<?xml version="1.0" encoding="UTF-8" standalone="no"?>
<svg
   version="1.1"
   id="svg34"
   sodipodi:docname="system.svg"
   inkscape:version="1.2.1 (9c6d41e410, 2022-07-14, custom)"
   xmlns:inkscape="http://www.inkscape.org/namespaces/inkscape"
   xmlns:sodipodi="http://sodipodi.sourceforge.net/DTD/sodipodi-0.dtd"
   xmlns="http://www.w3.org/2000/svg"
   xmlns:svg="http://www.w3.org/2000/svg">
  <defs
     id="defs38" />
  <sodipodi:namedview
     id="namedview36"
     pagecolor="#cfcfcf"
     bordercolor="#666666"
     borderopacity="1.0"
     inkscape:showpageshadow="false"
     inkscape:pageopacity="0"
     inkscape:pagecheckerboard="true"
     inkscape:deskcolor="#d1d1d1"
     showgrid="false"
     showborder="false"
     borderlayer="false"
     showguides="true"
     inkscape:zoom="0.75896128"
     inkscape:cx="122.5359"
     inkscape:cy="267.47083"
     inkscape:window-width="1920"
     inkscape:window-height="1023"
     inkscape:window-x="1366"
     inkscape:window-y="29"
     inkscape:window-maximized="1"
     inkscape:current-layer="layer1">
    <inkscape:grid
       type="xygrid"
       id="grid267" />
  </sodipodi:namedview>
  <g
     inkscape:groupmode="layer"
     id="layer1"
     inkscape:label="logo">
    <path
       id="polygon30"
       style="display:inline;fill:#ffffff"
       d="m 389.904,0.652 v 46.473 h 8.574 V 12.979 l 18.375,34.146 h 9.723 V 0.652 h -9.798 v 28.02 l -14.7,-28.02 z m 199.095,10.407 c 0,3.408 0,17.691 0,24.429 0,7.041 -5.292,12.324 -13.401,12.324 -0.036,0 -0.06,0 -0.099,0 -6.969,0 -4.971,0 -12.222,0 h -0.099 c -7.839,0 -13.032,-4.914 -13.389,-11.589 -0.012,-0.246 -0.012,-0.489 -0.012,-0.735 0,-4.656 0,-19.818 0,-24.426 0,-0.846 0,-1.335 0,-1.335 0,-4.68 5.046,-9.726 10.989,-9.726 4.395,0 17.148,0 17.148,0 7.191,-0.003 11.085,3.882 11.085,11.058 z m -9.861,23.313 c 0,-1.152 0,-20.016 0,-22.086 0,-1.8 -3.135,-4.938 -4.899,-4.938 -1.764,0 -9.726,0 -9.726,0 -2.523,0 -4.974,2.451 -4.974,4.74 0,1.497 0,19.944 0,22.284 0,3.489 1.335,4.827 3.711,4.827 2.181,0 8.16,0 11.064,0 2.376,0 4.824,-2.451 4.824,-4.827 z M 509.424,8.611 v 29.472 c 0,2.229 -6.294,8.526 -9.945,8.526 -7.353,0 -26.877,0 -26.877,0 V 0.034 c 0,0 19.062,0 24.426,0 7.593,0 12.396,4.803 12.396,8.577 z m -8.673,26.973 c 0,-3.186 0,-17.676 0,-24.45 0,-0.858 -2.889,-3.75 -4.911,-3.75 -3.714,0 -14.664,0 -14.664,0 v 33.075 c 0,0 10.473,0 14.7,0 1.506,0 4.875,-3.369 4.875,-4.875 z M 321.927,17.158 v 1.251 h 26.949 v 7.35 h -26.949 c 0,0 0,7.179 0,9.801 0,1.053 2.586,3.636 3.636,3.636 3.099,0 23.313,0 23.313,0 v 7.416 c 0,0 -19.806,0 -26.949,0 -5.04,0 -8.601,-4.332 -8.601,-8.601 0,-1.02 0,-22.05 0,-29.424 0,-5.346 3.201,-8.553 8.55,-8.553 h 27 v 7.35 c 0,0 -16.284,0 -22.05,0 -2.349,0 -4.899,2.553 -4.899,3.753 M 100.182,0.034 h 9.78 v 46.473 h -9.78 z m 60.03,0 v 46.473 h 8.574 V 12.361 l 18.375,34.146 h 9.726 V 0.034 h -9.801 v 28.02 L 172.389,0.034 Z m -146.985,0 v 46.473 h 8.574 V 12.361 l 18.375,34.146 h 9.723 V 0.034 h -9.798 v 28.02 l -14.7,-28.02 z m 221.142,0.618 v 7.35 h 14.697 v 39.123 h 9.903 V 8.002 h 14.598 V 0.652 Z M 536.226,126.28 H 600 v -14.847 h -47.85 v -10.872 h 26.949 V 87.01 H 552.15 v -9.801 h 46.626 V 63.658 h -62.55 z m -6.075,-25.845 v 16.011 c 0,5.67 -4.164,9.837 -17.163,9.837 -11.526,0 -50.211,0 -50.211,0 V 63.736 c 0,0 50.826,0 58.824,0 5.415,0 8.553,3.135 8.553,8.574 0,4.422 0,15.348 0,17.127 0,1.359 -1.851,3.699 -6.102,3.699 0.027,0.291 0,0 0,1.188 2.853,0 6.099,3.246 6.099,6.111 z m -15.924,9.864 c 0,-1.446 0,-5.28 0,-7.314 0,-2.022 -0.477,-2.499 -1.227,-2.499 -1.533,0 -33.051,0 -33.051,0 v 11.025 c 0,0 23.754,0 31.851,0 1.764,0 2.427,-0.663 2.427,-1.212 z m 0,-24.501 c 0,-1.446 0,-5.28 0,-7.314 0,-2.019 -0.477,-2.496 -1.227,-2.496 -1.533,0 -33.051,0 -33.051,0 V 87.01 c 0,0 23.754,0 31.851,0 1.764,0 2.427,-0.663 2.427,-1.212 z M 386.85,63.733 h 17.151 v 47.775 h 35.487 V 63.733 h 17.169 v 51.489 c 0,0 1.092,11.025 -14.679,11.025 -15.774,0 -41.649,0 -41.649,0 0,0 -13.476,1.227 -13.476,-11.025 -0.003,-8.535 -0.003,-51.489 -0.003,-51.489 z m -22.098,24.552 h 15.924 V 74.809 c 0,0 1.734,-11.073 -9.801,-11.073 0,0 -37.056,0 -50.22,0 -4.95,0 -7.299,2.349 -7.299,6.123 0,6.381 0,30.576 0,44.1 0,6.18 5.922,12.099 9.699,12.099 11.025,0 49.155,0 49.155,0 0,0 8.559,1.17 8.559,-8.424 0,-9.597 0,-18.324 0,-18.324 h -15.963 v 12.147 H 329.28 V 78.433 h 34.251 v 9.849 z M 237.096,63.811 v 62.247 h 63.852 v -14.703 h -46.551 v -10.719 h 26.952 V 87.01 h -26.952 v -9.801 h 46.551 V 63.811 Z m -122.271,47.547 v 14.7 H 69.576 l 36.75,-62.247 h 14.547 l 28.176,47.544 V 63.811 h 16.002 l 25.188,42.645 25.113,-42.645 h 15.849 v 62.247 h -15.849 l -0.078,-31.623 -18.375,31.623 h -13.473 l -18.3,-31.701 -0.075,31.701 H 138.024 L 113.064,83.41 96.525,111.355 Z M 72.276,64.549 V 77.821 H 17.355 v 33.894 h 40.017 v -9.393 H 34.299 v -14.19 h 38.997 c 0,0 0,15.474 0,25.881 -0.168,4.338 -8.838,13.011 -13.68,13.011 -8.985,0 -33.27,0 -44.685,0 C 8.637,127.024 0,118.39 0,114.034 0,100.789 0,87.883 0,76.594 0,69.304 4.755,64.549 10.95,64.549 c 10.257,0 61.326,0 61.326,0 z"
       inkscape:label="gamecube" />
  </g>
</svg>
