<?xml version="1.0" encoding="UTF-8" standalone="no"?>
<!-- Created with Inkscape (http://www.inkscape.org/) -->

<svg
   width="480"
   height="100"
   viewBox="0 0 127.00001 26.458333"
   version="1.1"
   id="svg5"
   xmlns="http://www.w3.org/2000/svg"
   xmlns:svg="http://www.w3.org/2000/svg">
  <defs
     id="defs2" />
  <g
     id="layer1"
     transform="matrix(0.74999967,0,0,0.74999967,-20.507961,-39.38017)">
    <g
       aria-label="GENRES"
       id="text245"
       style="font-size:45.1227px;line-height:1.25;fill:#ffffff;stroke-width:1.12807">
      <path
         d="M 48.974176,75.944082 49.19979,74.725769 H 47.0339 l 1.218313,-6.903773 h 10.333098 l -2.662239,15.070981 q -5.504969,2.030522 -11.055061,2.030522 -5.550092,0 -8.031841,-2.211012 -2.436626,-2.211013 -2.436626,-6.813528 0,-1.940276 0.631718,-5.730583 1.353681,-7.85135 4.783006,-11.325798 3.429325,-3.474448 11.370921,-3.474448 1.669539,0 4.241533,0.360982 2.617117,0.360982 3.83543,0.812209 l -2.481749,6.903773 q -3.384202,-0.631718 -6.226932,-0.631718 -2.797608,0 -4.015921,0.451227 -1.218312,0.451227 -1.443926,1.804908 l -2.211012,12.769724 h 2.84273 q 1.534172,0 2.256135,-0.315859 0.767086,-0.360982 0.992699,-1.579294 z"
         style="font-family:'Changa One';-inkscape-font-specification:'Changa One'"
         id="path1029" />
      <path
         d="m 79.071036,73.597701 h -8.573313 l -0.586595,3.429325 h 10.513589 l -1.263435,7.219632 H 60.07438 l 4.963497,-28.201687 h 18.861288 l -2.34638,7.219632 h -9.250154 l -0.631718,3.790307 h 8.573313 z"
         style="font-family:'Changa One';-inkscape-font-specification:'Changa One'"
         id="path1031" />
      <path
         d="M 99.737264,84.246658 95.134748,74.229419 q -0.18049,-0.315859 -0.18049,-0.857331 0,-0.586595 0.09025,-1.308559 h -0.360982 l -2.120767,12.183129 h -8.573312 l 4.963496,-28.201687 h 8.076964 l 4.602518,10.017239 q 0.13537,0.315859 0.13537,0.902454 0,0.541473 -0.0903,1.263436 h 0.36098 l 2.16589,-12.183129 h 8.57331 l -4.96349,28.201687 z"
         style="font-family:'Changa One';-inkscape-font-specification:'Changa One'"
         id="path1033" />
      <path
         d="m 136.9184,84.246658 h -9.43064 l -2.07565,-8.392822 h -1.85003 l -1.44392,8.392822 h -8.57332 l 4.9635,-28.201687 h 13.53681 q 7.71598,0 7.71598,6.903773 0,2.84273 -0.85733,5.414724 -1.57929,4.873252 -4.9635,6.497669 z m -11.14531,-20.982055 -0.9927,5.640337 h 1.9854 q 1.53418,0 2.30126,-0.315858 0.81221,-0.360982 1.08295,-1.940277 0.31585,-1.624417 0.31585,-1.985398 0,-0.902454 -0.72196,-1.128068 -0.67684,-0.270736 -2.25613,-0.270736 z"
         style="font-family:'Changa One';-inkscape-font-specification:'Changa One'"
         id="path1035" />
      <path
         d="m 159.57003,73.597701 h -8.57331 l -0.5866,3.429325 h 10.51359 l -1.26343,7.219632 h -19.0869 l 4.96349,-28.201687 h 18.86129 l -2.34638,7.219632 h -9.25015 l -0.63172,3.790307 h 8.57331 z"
         style="font-family:'Changa One';-inkscape-font-specification:'Changa One'"
         id="path1037" />
      <path
         d="m 163.67624,83.750309 2.52687,-7.445246 q 3.79031,1.037822 6.94889,1.037822 3.15859,0 5.09887,-0.270736 l 0.36098,-2.256135 -3.74518,-0.360982 q -4.28666,-0.406104 -6.09157,-1.940276 -1.75978,-1.534171 -1.75978,-4.331779 0,-1.218313 0.27073,-2.707362 1.03783,-5.775705 3.74519,-7.941595 2.75248,-2.16589 8.48306,-2.16589 5.73059,0 10.10749,1.128068 l -2.34638,7.219632 q -3.92568,-0.676841 -6.31718,-0.676841 -2.3915,0 -4.06104,0.225614 l -0.36098,2.211012 3.02322,0.315859 q 4.60251,0.49635 6.54279,2.211012 1.94028,1.66954 1.94028,4.51227 0,2.887853 -1.26344,5.956197 -0.63172,1.579294 -1.3988,2.662239 -0.72197,1.037822 -1.89516,1.804908 -1.12807,0.721963 -2.07564,1.128068 -0.94758,0.360981 -2.3915,0.541472 -2.12077,0.315859 -5.18912,0.315859 -5.59521,0 -10.1526,-1.17319 z"
         style="font-family:'Changa One';-inkscape-font-specification:'Changa One'"
         id="path1039" />
    </g>
  </g>
</svg>
