<?xml version="1.0" encoding="UTF-8" standalone="no"?>
<!-- Created with Inkscape (http://www.inkscape.org/) -->

<svg
   version="1.1"
   id="svg768"
   width="480.00009"
   height="96.064522"
   viewBox="0 0 480.00009 96.064522"
   xmlns="http://www.w3.org/2000/svg"
   xmlns:svg="http://www.w3.org/2000/svg">
  <defs
     id="defs772" />
  <g
     id="g774"
     transform="translate(-4210.6332,-843.77246)">
    <path
       style="fill:#cccccc;fill-opacity:1;stroke-width:0.0719202"
       d="m 4275.7967,939.35095 c -1.2663,-0.39798 -17.6725,-5.57838 -18.4656,-5.83067 l -0.2337,-0.0743 v -44.83676 c 0,-39.11172 0.013,-44.83676 0.1043,-44.83676 0.057,0 0.5832,0.0952 1.1687,0.21157 5.4762,1.08843 13.7205,3.28977 21.7056,5.79569 8.6127,2.7029 12.9514,4.54196 16.9732,7.19457 6.45,4.25422 9.628,9.70673 10.6026,18.1914 0.4264,3.71175 0.3839,8.24903 -0.1061,11.32077 -0.5415,3.39455 -1.8672,6.5903 -3.6275,8.74412 -0.9434,1.15433 -2.2856,2.26202 -3.5967,2.96813 -2.7041,1.45645 -6.1907,1.76712 -9.8956,0.88171 -1.411,-0.33721 -3.3492,-1.03314 -4.7205,-1.69491 l -0.268,-0.12935 -0.023,-16.00774 c -0.02,-14.60096 -0.033,-16.06794 -0.1432,-16.69281 -0.5017,-2.8483 -1.6105,-4.30261 -3.7835,-4.96264 -0.7395,-0.22462 -1.5454,-0.18261 -2.0801,0.10843 -0.9311,0.50675 -1.5097,1.52989 -1.9032,3.36548 -0.059,0.27336 -0.092,10.78763 -0.1212,38.57294 l -0.041,38.19716 z m 5.3221,-6.78517 c 0,-5.50823 0.01,-5.85674 0.1259,-5.90338 0.193,-0.076 27.4902,-9.80539 31.0156,-11.05471 2.2177,-0.78588 3.396,-1.33659 3.9763,-1.85843 1.1001,-0.98917 0.9023,-1.88272 -0.567,-2.56157 -1.9485,-0.90027 -5.8839,-1.10303 -9.4866,-0.48877 -1.8656,0.3181 -1.4519,0.18104 -16.0288,5.31089 -4.8998,1.72432 -8.9213,3.13513 -8.9365,3.13513 -0.015,0 -0.02,-2.74165 -0.01,-6.09255 l 0.018,-6.09255 1.5103,-0.49204 c 4.8488,-1.57966 10.6743,-2.76859 15.9304,-3.25124 7.4291,-0.68221 15.8574,0.10671 23.1118,2.16332 1.3185,0.37381 5.1806,1.69051 6.3396,2.16133 3.2406,1.31654 5.5147,3.04508 6.4281,4.88619 0.7917,1.59568 0.5351,3.29168 -0.7412,4.89906 -1.2204,1.53703 -4.0539,3.41352 -7.1433,4.73081 -0.836,0.35646 -45.3286,16.36232 -45.4835,16.36232 -0.033,0 -0.06,-2.63422 -0.06,-5.85381 z m 165.9202,3.35187 c 0,-0.0312 0.2557,-0.7189 0.5682,-1.52831 0.3125,-0.80941 1.4001,-3.64005 2.4169,-6.29032 1.0168,-2.65027 2.4117,-6.28459 3.0998,-8.07627 0.6881,-1.79168 1.251,-3.32026 1.251,-3.39682 0,-0.12066 -0.6254,-1.98863 -2.6361,-7.87348 -0.2567,-0.75157 -0.7688,-2.2565 -1.138,-3.3443 -0.3691,-1.0878 -0.9032,-2.65746 -1.1868,-3.48814 -0.2837,-0.83068 -0.7691,-2.2547 -1.0788,-3.16449 -0.3096,-0.9098 -0.7951,-2.33382 -1.0789,-3.1645 -0.5948,-1.74163 -1.6271,-4.77669 -1.9813,-5.82555 -0.1335,-0.39556 -0.6193,-1.81958 -1.0795,-3.16449 -0.4601,-1.34491 -1.1053,-3.23822 -1.4336,-4.20734 -0.3284,-0.96913 -0.8093,-2.38506 -1.0688,-3.14652 l -0.4717,-1.38447 h 4.7626 4.7627 l 0.886,2.60712 c 1.2391,3.64599 2.1165,6.23024 2.9119,8.5765 0.3755,1.10757 1.1896,3.50252 1.8091,5.32211 0.6195,1.81958 1.4276,4.19835 1.7957,5.28614 0.3681,1.0878 0.8091,2.39005 0.9799,2.89391 0.1708,0.50385 0.3344,0.89222 0.3635,0.86304 0.048,-0.0484 0.4432,-1.05467 2.1807,-5.55496 0.8018,-2.07677 1.6842,-4.35458 2.4798,-6.40091 0.3614,-0.92957 0.9517,-2.45068 1.3117,-3.38026 1.0957,-2.82857 1.8813,-4.85691 2.4511,-6.32899 1.2206,-3.15284 1.4871,-3.83269 1.5126,-3.85815 0.015,-0.0147 1.9509,-0.0183 4.3027,-0.008 l 4.276,0.0186 -1.1736,2.94874 c -0.6455,1.6218 -2.0444,5.13331 -3.1087,7.80336 -2.4581,6.16714 -6.5947,16.54686 -8.6702,21.75591 -0.8826,2.21514 -2.9143,7.31249 -4.5148,11.32745 -1.6005,4.01495 -3.5319,8.86149 -4.2919,10.77007 l -1.382,3.47016 h -3.9136 c -2.1524,0 -3.9136,-0.0255 -3.9136,-0.0566 z m -210.0433,-7.21359 c -5.0946,-0.34083 -9.065,-0.99683 -13.7368,-2.26962 -1.3841,-0.37707 -5.1021,-1.56417 -5.9119,-1.88757 -3.6941,-1.47523 -6.0173,-3.49861 -6.5988,-5.7472 -0.1375,-0.53168 -0.1548,-1.56861 -0.035,-2.0706 0.212,-0.88562 0.9549,-2.04266 1.731,-2.69607 2.1593,-1.81783 6.4914,-3.98449 11.2502,-5.6267 0.6305,-0.21757 2.3438,-0.82202 3.8074,-1.34324 5.2077,-1.85459 10.1421,-3.61115 15.355,-5.46609 2.9074,-1.03455 6.4137,-2.2832 7.7919,-2.77478 1.3782,-0.49156 2.5352,-0.89376 2.5712,-0.89376 0.039,0 0.065,2.39066 0.065,5.85448 v 5.85447 l -0.1978,0.0713 c -0.1087,0.0392 -4.965,1.77439 -10.7917,3.85592 -6.0633,2.16606 -10.8616,3.91915 -11.2196,4.0992 -2.8402,1.42823 -2.6835,3.03001 0.3733,3.81646 1.1824,0.30419 2.285,0.41866 4.0355,0.41895 1.7332,0 2.7833,-0.0857 4.3089,-0.3529 1.9753,-0.34595 2.0824,-0.38028 8.6997,-2.78882 2.5661,-0.93404 4.6779,-1.69825 4.6928,-1.69825 0.015,0 0.027,2.37876 0.027,5.28614 0,2.90738 -0.025,5.28615 -0.056,5.28615 -0.031,0 -0.5081,0.079 -1.0609,0.17559 -3.9343,0.68734 -7.467,0.981 -11.6077,0.96491 -1.4469,-0.006 -3.0191,-0.0362 -3.4937,-0.068 z m 190.2653,-28.51378 v -16.79812 l -4.2254,0.0275 c -3.6232,0.0236 -4.297,0.0446 -4.7287,0.14709 -2.8541,0.67777 -4.3512,3.67592 -4.7109,9.43388 -0.096,1.5305 -0.093,13.82517 0,14.67298 0.2359,2.08231 0.9546,3.20413 2.3159,3.61486 0.3137,0.0947 0.9702,0.12131 3.8307,0.15558 l 3.4522,0.0413 0.019,2.71499 0.019,2.71499 h -4.9454 c -5.3663,0 -5.5825,-0.0132 -6.7594,-0.40669 -2.5878,-0.86514 -4.7413,-2.86998 -5.9365,-5.5265 -0.5222,-1.16084 -0.8554,-2.40239 -1.0764,-4.01068 -0.1314,-0.95705 -0.1288,-11.9578 0,-13.46597 0.3483,-3.97743 1.1587,-6.84334 2.6238,-9.27772 0.514,-0.85414 0.6622,-1.06255 1.2276,-1.72609 1.9609,-2.30119 4.5446,-3.7032 7.9576,-4.31797 1.6473,-0.29674 2.4861,-0.3203 11.4168,-0.3206 l 8.5766,-2.7e-4 -0.018,19.54435 -0.018,19.54436 -4.513,0.0185 -4.513,0.0185 v -16.79812 z m 136.3609,0 v -16.79812 l -4.2253,0.0275 c -4.7029,0.0307 -4.7639,0.0362 -5.7539,0.52338 -0.5708,0.28089 -1.2523,0.86727 -1.6788,1.44459 -0.9335,1.26372 -1.5808,3.37606 -1.9145,6.24774 -0.177,1.52294 -0.2264,15.15201 -0.059,16.29285 0.2872,1.95822 0.9701,2.9626 2.2852,3.36059 0.3177,0.0962 0.9366,0.11898 3.8487,0.14198 l 3.4702,0.0274 v 2.7286 2.72859 l -4.9805,-10e-6 c -4.1303,-1e-5 -5.0787,-0.0185 -5.5558,-0.1082 -2.8845,-0.54235 -5.4554,-2.53466 -6.8561,-5.3131 -0.4617,-0.91581 -0.6875,-1.51831 -0.9487,-2.53131 -0.4573,-1.77351 -0.4649,-1.91183 -0.4655,-8.44522 -7e-4,-6.16985 0.028,-6.97187 0.3261,-9.026 0.6227,-4.29629 2.0636,-7.53846 4.3439,-9.774 1.93,-1.89207 4.3346,-3.04417 7.4339,-3.56177 1.6728,-0.27938 2.6528,-0.30348 11.3775,-0.27986 l 8.3787,0.0227 v 19.52638 19.52638 l -4.513,0.0185 -4.513,0.0185 z m -214.5384,-8.95251 v -25.67764 l 11.6691,0.0245 c 12.7556,0.0267 11.8825,-0.002 13.4387,0.44549 0.7317,0.2105 1.5468,0.56026 2.3299,0.99973 2.0384,1.14402 3.8646,3.24529 4.9383,5.6821 1.1849,2.68933 1.7107,5.85743 1.6189,9.75366 -0.052,2.21603 -0.2274,3.58095 -0.6739,5.25018 -0.4473,1.67257 -1.2099,3.41687 -2.028,4.63887 -1.5335,2.29055 -3.7733,4.05308 -6.1568,4.84497 -1.4503,0.48185 -1.2134,0.46495 -6.9223,0.49382 l -5.1963,0.0263 v -2.77243 -2.77244 h 3.5796 c 3.988,0 4.1246,-0.0139 4.9261,-0.49965 2.2279,-1.3502 3.4463,-4.8902 3.4546,-10.03668 0.01,-4.40575 -0.9196,-7.65431 -2.6564,-9.31147 -0.5736,-0.54725 -1.3294,-0.96421 -1.9598,-1.0811 -0.2364,-0.0438 -2.5291,-0.0718 -5.8795,-0.0718 h -5.4921 v 22.87067 22.87067 h -4.495 -4.4951 z m 39.646,0.0201 0.018,-25.65759 4.513,-0.0185 4.513,-0.0185 v 25.67611 25.6761 h -4.5311 -4.5311 z m 94.4855,22.9273 v -2.73029 l 6.9942,-0.0222 6.9943,-0.0222 0.5754,-0.16148 c 2.7462,-0.77073 4.3509,-2.84112 4.7059,-6.0718 0.1177,-1.07113 0.098,-4.63086 -0.03,-5.41898 -0.454,-2.79899 -2.1111,-4.63509 -4.7275,-5.23791 -0.4777,-0.11008 -1.2013,-0.18521 -3.545,-0.36809 -2.9451,-0.22981 -4.3976,-0.56157 -6.0413,-1.37984 -1.1675,-0.58121 -2.0116,-1.19831 -3.0252,-2.21158 -1.4584,-1.45802 -2.4556,-3.08745 -3.1494,-5.14655 -0.613,-1.81897 -0.6486,-2.09532 -0.6769,-5.24999 -0.027,-3.00213 0,-3.39184 0.3881,-4.81886 1.3324,-4.95531 4.9978,-8.43599 9.9536,-9.45196 1.2945,-0.26539 1.676,-0.27784 9.4375,-0.30809 l 7.6775,-0.0299 v 2.80929 2.80929 h -6.3848 c -3.9511,0 -6.6101,0.0282 -6.9757,0.0741 -1.4821,0.18583 -2.5682,0.68573 -3.5111,1.61603 -1.4796,1.45979 -2.0486,3.45326 -1.9504,6.83243 0.05,1.72088 0.2332,2.55207 0.824,3.73986 0.6493,1.30529 1.6856,2.32818 2.8588,2.82181 0.7068,0.2974 1.0889,0.34536 6.1851,0.77619 2.8891,0.24424 3.682,0.41645 5.1064,1.10908 2.8655,1.39339 5.1166,4.27171 6.1442,7.85623 0.5247,1.83005 0.5444,2.03917 0.5444,5.77638 0,2.92361 -0.018,3.48713 -0.1303,4.17138 -0.372,2.25954 -1.1071,4.22814 -2.1888,5.86151 -1.1941,1.80311 -2.6287,3.08146 -4.4414,3.95761 -0.9102,0.43988 -1.2229,0.55791 -2.1038,0.79397 -1.298,0.34784 -1.426,0.35205 -10.752,0.35345 l -8.7563,0.001 z m 43.7635,2.62223 c -1.6185,-0.25759 -3.0718,-0.85268 -4.3439,-1.77874 -0.5978,-0.43522 -1.7186,-1.5936 -2.1756,-2.24862 -1.1082,-1.58846 -1.7685,-3.21109 -2.0779,-5.10635 -0.1372,-0.84038 -0.1409,-1.32907 -0.1409,-18.60939 v -17.74635 h 4.5669 4.567 v 3.27238 3.27237 h 4.8906 4.8905 v 2.76894 2.76893 h -4.8905 -4.8906 v 12.32665 c 0,13.56036 -0.021,12.89642 0.4349,13.90541 0.241,0.53383 0.7959,1.14479 1.2778,1.40709 0.6821,0.37128 1.0025,0.40979 3.4087,0.40979 h 2.2145 v 2.73297 2.73297 l -3.5781,-0.008 c -2.5109,-0.006 -3.7496,-0.0356 -4.1534,-0.0998 z m 61.8515,0 c -1.4991,-0.23857 -2.7164,-0.70774 -3.9314,-1.51522 -1.9653,-1.30615 -3.5102,-3.45916 -4.2797,-5.96432 -0.097,-0.31645 -0.2461,-0.88282 -0.3308,-1.25861 l -0.154,-0.68324 -0.023,-18.03403 -0.023,-18.03403 h 4.5684 4.5685 v 3.27238 3.27237 h 4.8906 4.8906 v 2.76894 2.76893 h -4.8906 -4.8906 v 12.29692 c 0,11.12271 0.011,12.35372 0.1183,12.89172 0.2923,1.46973 1.1129,2.42381 2.3655,2.75005 0.3359,0.0875 0.8802,0.11025 2.6376,0.11025 h 2.2145 v 2.73297 2.73297 l -3.5781,-0.008 c -2.5109,-0.006 -3.7496,-0.0356 -4.1534,-0.0998 z m 15.7146,-19.41832 V 877.8627 h 4.531 4.531 v 19.52638 19.52637 h -4.531 -4.531 z m 29.4514,19.44686 c -5.622,-0.52187 -9.6345,-2.82077 -12.0319,-6.89359 -1.0364,-1.76059 -1.7083,-3.82088 -2.1185,-6.49596 -0.1492,-0.97262 -0.157,-1.2579 -0.1593,-5.80559 0,-4.97818 0.021,-5.50411 0.3269,-7.18088 0.6281,-3.44751 1.8847,-6.09707 3.8701,-8.16032 1.1395,-1.18407 2.2449,-1.98004 3.7631,-2.70948 2.4552,-1.17972 5.1845,-1.72637 8.623,-1.72712 6.2587,-0.001 10.8467,2.10291 13.6504,6.26073 0.5352,0.79375 1.3804,2.4006 1.6245,3.08862 0.6679,1.88208 1.0098,3.35176 1.2212,5.25019 0.1508,1.35362 0.1535,8.42427 0,9.88904 -0.4506,4.40802 -1.8533,7.79694 -4.2366,10.23498 -2.3937,2.44868 -5.4048,3.77764 -9.5743,4.22559 -1.0209,0.10969 -3.8889,0.12343 -4.9625,0.0238 z m 3.8203,-5.49741 c 1.5056,-0.26159 2.4297,-0.70899 3.3358,-1.61511 1.5472,-1.54721 2.2723,-3.82201 2.5152,-7.89048 0.095,-1.59675 0.096,-7.48706 7e-4,-8.97607 -0.3161,-4.94476 -1.4687,-7.52039 -3.9181,-8.75519 -1.5775,-0.79525 -4.3136,-0.9299 -6.1719,-0.30374 -2.8078,0.94609 -4.2003,3.32653 -4.6898,8.01731 -0.2514,2.4088 -0.2068,9.31434 0.075,11.68706 0.4975,4.18246 1.8232,6.51761 4.228,7.44752 1.1833,0.45754 3.2358,0.63005 4.6249,0.3887 z m 20.9563,-13.94892 V 877.8627 h 8.672 c 5.5629,0 8.9858,0.0276 9.5474,0.0769 7.6414,0.67136 12.0572,4.97318 13.3178,12.974 0.3062,1.94336 0.3216,2.64038 0.3226,14.58448 l 9e-4,11.41735 h -4.531 -4.531 v -11.60941 c 0,-11.57191 -0.022,-12.80909 -0.2566,-14.67747 -0.4846,-3.85219 -1.7322,-6.04334 -3.9148,-6.87562 -0.8314,-0.31706 -1.3763,-0.35181 -5.5197,-0.3521 l -3.9015,-2.7e-4 -0.018,16.73946 -0.018,16.73946 -4.5849,0.0185 -4.5849,0.0185 v -19.52692 z m -54.228,-27.97755 v -3.84774 h 4.531 4.531 v 3.84774 3.84774 h -4.531 -4.531 z"
       id="path895" />
  </g>
</svg>
