<?xml version="1.0" encoding="UTF-8" standalone="no"?>
<svg xmlns="http://www.w3.org/2000/svg" xmlns:svg="http://www.w3.org/2000/svg" version="1.1" id="svgc64logo" viewBox="0 0 640 64" xml:space="preserve" width="640" height="64">
     <g id="c64logo">
          <path id="c64logo06" fill="#3E3632" d="M 608.00917,0 H 54.146024 31.974161 C 14.386705,0 0,14.398332 0,32 0,49.601669 14.386705,64 31.974161,64 H 608.02585 c 17.58745,0 31.97416,-14.398331 31.97416,-32 0,-17.601668 -14.40338,-32 -31.99084,-32 z"/>
          <path id="c64logo05" fill="#14a3fd" d="m 522.12228,50.052114 v 4.671532 H 352.41593 v -4.671532 z"/>
          <path id="c64logo04" fill="#48cc31" d="m 522.12228,39.841485 v 4.688214 H 352.41593 v -4.688214 z"/>
          <path id="c64logo03" fill="#f2f540" d="m 522.12228,29.664223 v 4.654845 H 352.41593 v -4.654845 z"/>
          <path id="c64logo02" fill="#fd7801" d="m 522.12228,19.453592 v 4.688214 H 352.41593 v -4.688214 z"/>
          <path id="c64logo01" fill="#f20029" d="M 522.12228,9.2596455 V 13.931176 H 352.41593 V 9.2596455 Z"/>
          <path id="c64logo00" fill="#FFFFFF" d="m 37.042015,32.70073 v 7.858186 h 17.104009 l -7.85184,-7.858186 z m 0,-1.418144 h 9.252169 l 7.85184,-7.858185 H 37.042015 Z M 21.555052,32 c 0,-5.739312 4.667761,-10.427529 10.419109,-10.427529 1.850434,0 3.567503,0.483838 5.084525,1.334724 v -9.893639 c -1.617046,-0.433785 -3.317444,-0.667362 -5.084525,-0.667362 -10.852544,0 -19.637936,8.792492 -19.637936,19.653806 0,10.861314 8.785392,19.653806 19.637936,19.653806 1.75041,0 3.450809,-0.233576 5.084525,-0.667361 v -9.89364 c -1.500352,0.850887 -3.234091,1.334724 -5.084525,1.334724 C 26.222813,42.410845 21.555052,37.722628 21.555052,32 Z M 339.81298,33.568301 H 322.5256 c 0,1.017726 -0.0333,2.168926 0.81685,2.88634 0.90021,0.717413 3.4008,0.750782 4.48439,0.750782 1.08359,0 4.11763,0.03337 4.83446,-0.750782 0.30007,-0.300313 0.36676,-0.717414 0.45011,-1.117832 h 6.58488 c -0.15004,1.685089 -0.48345,3.003129 -1.76708,4.154328 -2.28387,2.068822 -7.75182,1.952033 -10.63583,1.952033 -2.61728,0 -7.00164,0.03337 -9.16882,-1.65172 -0.66682,-0.517206 -1.11692,-1.117831 -1.50035,-1.868613 -0.81686,-1.718457 -0.75017,-3.854015 -0.75017,-5.68926 0,-1.117831 0,-2.252346 0.11669,-3.336809 0.18338,-1.801877 0.78352,-3.403546 2.28387,-4.488009 2.31721,-1.685088 6.9683,-1.5683 9.70227,-1.5683 2.50059,0 5.23456,-0.06674 7.66847,0.633994 3.93425,1.167883 4.20098,4.754953 4.20098,8.325339 0,0.567257 0,1.167883 -0.0333,1.768509 z m -6.63489,-4.03754 c 0,-0.667361 -0.0333,-1.201251 -0.51679,-1.718456 -0.78351,-0.867571 -3.48415,-0.867571 -4.56773,-0.867571 -1.01691,0 -2.01714,0 -3.00071,0.150157 -1.8671,0.266944 -2.55059,0.967674 -2.58394,2.852972 h 10.66917 z m -19.80464,1.618353 h -6.21812 c 0,-2.619395 -0.86687,-3.336809 -3.48415,-3.336809 -4.08429,0 -4.20099,2.586027 -4.20099,5.839416 v 7.34098 h -6.61822 V 23.274244 h 6.25147 v 2.652763 h 0.30007 c 1.53369,-2.736183 4.00094,-3.103232 6.88495,-3.103232 2.06715,0 4.53439,0.266945 5.91805,1.985401 1.23362,1.534933 1.20028,3.753911 1.20028,5.622524 0,0.233577 -0.0333,0.483837 -0.0333,0.717414 z m -24.22234,4.104275 c -0.15004,1.718457 -0.60014,3.253389 -1.95046,4.421272 -2.28387,1.985402 -7.66847,1.768509 -10.48579,1.768509 -2.91735,0 -8.08523,0.266945 -10.48579,-1.768509 -0.66683,-0.567257 -1.08359,-1.167883 -1.417,-1.952033 -0.75018,-1.835245 -0.63348,-4.154327 -0.63348,-6.106361 0,-0.967674 0,-1.985401 0.11669,-2.953076 0.15004,-1.685089 0.78352,-3.186653 2.16717,-4.237748 2.25053,-1.718456 7.60179,-1.618352 10.25241,-1.618352 2.70063,0 7.96853,-0.116788 10.2524,1.618352 0.63348,0.483838 1.05025,0.967675 1.417,1.685089 0.96689,1.718457 0.86687,3.937435 0.86687,5.839416 0.0167,1.084463 -0.0333,2.218978 -0.10002,3.303441 z m -7.31839,-6.47341 c -0.96689,-0.934306 -3.81756,-0.967674 -5.05118,-0.967674 -1.20028,0 -2.4339,0.03337 -3.60084,0.266944 -2.31721,0.45047 -2.35055,2.252347 -2.35055,4.271116 0,0.967675 -0.0333,2.285714 0.66682,3.036497 1.0169,1.084463 3.93425,1.084463 5.28457,1.084463 1.26696,0 2.61728,0 3.8509,-0.333681 2.06715,-0.567258 2.01714,-2.435871 2.01714,-4.271116 0,-1.017727 -0.0333,-2.335767 -0.81686,-3.086549 z m -27.48977,12.196038 v -2.319082 h -0.33341 c -0.45011,0.750782 -0.78352,1.234619 -1.5337,1.685088 -1.65038,1.017727 -4.4177,1.084463 -6.2848,1.084463 -2.73398,0 -6.43484,0.03337 -8.60202,-1.868613 -1.95046,-1.718457 -1.91712,-5.138686 -1.91712,-7.524505 0,-2.769551 0.0667,-6.139729 2.61728,-7.874869 2.25053,-1.501565 5.3846,-1.351408 7.96854,-1.351408 1.95046,0 4.08429,-0.03337 5.80136,0.967675 0.86687,0.483837 1.16694,0.967674 1.65039,1.835245 h 0.26672 V 16 h 6.61822 v 24.992701 z m -0.66683,-11.511992 c -0.78351,-1.801877 -3.63418,-1.65172 -5.23456,-1.65172 -1.65038,0 -4.9845,-0.183525 -5.80136,1.685088 -0.30007,0.750782 -0.33341,1.718457 -0.33341,2.502607 0,1.051095 -0.0333,2.652764 0.75018,3.486966 0.90021,0.967675 3.78422,0.967675 4.9845,0.967675 1.35032,0 3.0007,-0.06674 4.26767,-0.483838 1.80042,-0.567257 1.76708,-2.285714 1.76708,-3.904067 -0.0333,-0.817518 -0.0667,-1.818561 -0.4001,-2.602711 z m -21.355,5.789364 c -0.15004,1.718457 -0.60014,3.253389 -1.95046,4.421272 -2.28387,1.985402 -7.66846,1.768509 -10.48579,1.768509 -2.91735,0 -8.08523,0.266945 -10.48579,-1.768509 -0.66682,-0.567257 -1.08359,-1.167883 -1.417,-1.952033 -0.75017,-1.835245 -0.63348,-4.154327 -0.63348,-6.106361 0,-0.967674 0,-1.985401 0.11669,-2.953076 0.15004,-1.685089 0.78352,-3.186653 2.16718,-4.237748 2.25053,-1.718456 7.60178,-1.618352 10.2524,-1.618352 2.70063,0 7.96854,-0.116788 10.2524,1.618352 0.63349,0.483838 1.05025,0.967675 1.417,1.685089 0.9669,1.718457 0.86687,3.937435 0.86687,5.839416 0.0167,1.084463 -0.0167,2.218978 -0.10002,3.303441 z m -7.33505,-6.47341 c -0.9669,-0.934306 -3.81756,-0.967674 -5.05119,-0.967674 -1.20028,0 -2.4339,0.03337 -3.60084,0.266944 -2.31721,0.45047 -2.35055,2.252347 -2.35055,4.271116 0,0.967675 -0.0333,2.285714 0.66682,3.036497 1.01691,1.084463 3.93426,1.084463 5.28457,1.084463 1.26697,0 2.61728,0 3.85091,-0.333681 2.06715,-0.567258 2.01713,-2.435871 2.01713,-4.271116 0.0167,-1.017727 -0.0333,-2.335767 -0.81685,-3.086549 z M 197.29624,40.976017 V 32.70073 c 0,-3.820646 -0.41676,-4.905109 -4.48438,-4.905109 -4.56774,0 -4.90115,1.801877 -4.90115,5.889468 v 7.307612 h -6.61822 v -8.275287 -1.234619 c 0,-3.220021 -1.38366,-3.67049 -4.38436,-3.67049 -4.71777,0 -5.01784,1.685088 -5.01784,5.889468 v 7.307612 h -6.61822 V 23.274244 h 6.25147 v 2.652763 h 0.30007 c 1.23362,-2.736183 4.53439,-3.103232 7.18501,-3.103232 3.36746,0 6.33482,0.567257 8.05189,3.703858 1.35032,-3.303441 4.48439,-3.703858 7.66846,-3.703858 2.58394,0 5.46795,0.300313 7.33506,2.285714 0.63348,0.667362 1.11693,1.384776 1.38366,2.285715 0.51678,1.718456 0.48344,3.553701 0.48344,5.32221 v 8.275287 z m -42.47662,0 V 32.70073 c 0,-3.820646 -0.41676,-4.905109 -4.48438,-4.905109 -4.56774,0 -4.90115,1.801877 -4.90115,5.889468 v 7.307612 h -6.61822 v -8.275287 -1.234619 c 0,-3.220021 -1.38366,-3.67049 -4.38436,-3.67049 -4.71777,0 -5.01784,1.685088 -5.01784,5.889468 v 7.307612 h -6.61822 V 23.274244 h 6.25146 v 2.652763 h 0.30007 c 1.23363,-2.736183 4.5344,-3.103232 7.18502,-3.103232 3.36746,0 6.33482,0.567257 8.05189,3.703858 1.35031,-3.303441 4.48438,-3.703858 7.66846,-3.703858 2.58394,0 5.46795,0.300313 7.33505,2.285714 0.63349,0.667362 1.11693,1.384776 1.38366,2.285715 0.51679,1.718456 0.48345,3.553701 0.48345,5.32221 v 8.275287 z m -35.75838,-5.722628 c -0.15004,1.718457 -0.60014,3.253389 -1.95046,4.421272 -2.28387,1.985402 -7.66846,1.768509 -10.48579,1.768509 -2.91735,0 -8.085227,0.266945 -10.48579,-1.768509 -0.666823,-0.567257 -1.083587,-1.167883 -1.416999,-1.952033 -0.750175,-1.835245 -0.633481,-4.154327 -0.633481,-6.106361 0,-0.967674 0,-1.985401 0.116694,-2.953076 0.150035,-1.685089 0.783517,-3.186653 2.167174,-4.237748 2.250528,-1.718456 7.601782,-1.618352 10.252402,-1.618352 2.70063,0 7.96854,-0.116788 10.2524,1.618352 0.63349,0.483838 1.05025,0.967675 1.417,1.685089 0.9669,1.718457 0.86687,3.937435 0.86687,5.839416 0.0167,1.084463 -0.0167,2.218978 -0.10002,3.303441 z m -7.33505,-6.47341 c -0.9669,-0.934306 -3.81756,-0.967674 -5.05119,-0.967674 -1.20028,0 -2.4339,0.03337 -3.60084,0.266944 -2.31721,0.45047 -2.35055,2.252347 -2.35055,4.271116 0,0.967675 -0.0333,2.285714 0.66682,3.036497 1.01691,1.084463 3.93426,1.084463 5.28457,1.084463 1.26697,0 2.61728,0 3.85091,-0.333681 2.06715,-0.567258 2.01714,-2.435871 2.01714,-4.271116 0,-1.017727 -0.0333,-2.335767 -0.81686,-3.086549 z m -27.389756,1.685089 c -0.30007,-2.736184 -3.334115,-2.652763 -5.467948,-2.652763 -1.166941,0 -3.600844,0.03337 -4.534397,0.817518 -0.900211,0.750782 -0.900211,2.702815 -0.900211,3.75391 0,1.017727 0.03334,2.352451 0.816859,3.103233 0.933552,0.900938 3.517491,0.967675 4.717772,0.967675 0.816858,0 1.617046,0 2.433904,-0.116789 1.650387,-0.216892 2.61728,-0.717414 2.884009,-2.469239 h 6.734912 c -0.06668,1.985402 -0.183376,3.904067 -1.650387,5.388947 -1.533693,1.618353 -3.900914,1.952034 -6.034748,2.068822 -1.617045,0.06674 -3.184079,0.116788 -4.784454,0.116788 -2.88401,0 -7.001641,0.06674 -9.468886,-1.65172 C 66.682296,38.106361 66.79899,34.586027 66.79899,32 c 0,-2.552659 -0.03334,-5.589155 2.100492,-7.374348 2.31721,-1.952033 7.151677,-1.801877 10.002345,-1.801877 2.850668,0 7.785158,-0.116788 10.152379,1.801877 0.633482,0.517205 1.050246,1.051095 1.383658,1.835245 0.566799,1.31804 0.600141,2.586027 0.633482,4.004171 z M 611.45998,42.127216 v 6.039625 h -9.4022 v -6.039625 h -25.8894 V 29.697602 l 19.28785,-14.014599 h 16.02042 v 19.153285 h 6.28481 V 42.1439 h -6.30148 z m -9.38553,-18.88634 h -2.00047 l -15.08687,10.327425 v 1.267987 h 17.08734 z m -38.30898,1.551616 c 0,-0.483837 -0.05,-1.167883 -0.48345,-1.518248 -0.43343,-0.333681 -1.11692,-0.383733 -1.60037,-0.433785 -2.53393,-0.250261 -5.16788,-0.250261 -7.73515,-0.250261 -2.38389,0 -4.96783,0 -7.30171,0.433785 -0.53346,0.100105 -1.0169,0.250261 -1.46701,0.583942 -1.11693,0.884255 -1.0169,3.320125 -1.0169,4.571429 v 1.267987 0.53389 c 0.58347,-0.583942 1.16694,-1.067779 1.90044,-1.468196 2.73398,-1.551617 8.18525,-1.418144 11.23597,-1.418144 3.31744,0 7.35172,0.05005 10.51913,1.067779 1.16694,0.383733 2.13383,0.917622 3.01737,1.801877 1.95046,1.901981 2.00047,5.555787 2.00047,8.091762 0,4.621481 -0.78351,8.775808 -5.93472,9.793535 -2.00047,0.383733 -4.03428,0.533889 -6.03475,0.583942 -2.91735,0.05005 -5.78469,0.100104 -8.71871,0.100104 -4.08429,0 -11.73608,0.250261 -14.85348,-2.586027 -2.23386,-2.002086 -2.38389,-5.889469 -2.48392,-8.675704 -0.05,-2.135558 -0.10002,-4.337852 -0.10002,-6.47341 0,-3.904067 -0.43343,-10.22732 2.76732,-13.013556 3.06738,-2.686131 13.5365,-2.535975 17.37073,-2.535975 2.13384,0 4.28434,0 6.41818,0.100104 2.96736,0.100105 7.9852,0.250261 10.21906,2.535975 1.55036,1.601669 1.51702,4.771637 1.51702,6.873827 h -9.2355 z m -2.81733,9.927008 c -2.63395,-0.383733 -5.45127,-0.300313 -8.13524,-0.300313 -1.95045,0 -3.95092,-0.100104 -5.88471,0.200208 -1.90044,0.300313 -2.63395,1.468196 -2.63395,3.320126 0,0.834202 0.20005,1.901981 0.78352,2.535975 0.96689,1.017726 6.46818,0.78415 7.73514,0.78415 1.7004,0 3.35079,-0.05005 5.06786,-0.100105 1.21695,-0.05005 3.70087,0.100105 4.66776,-0.834202 0.58347,-0.583941 0.68349,-1.65172 0.68349,-2.435871 0,-1.801877 -0.38342,-2.886339 -2.28387,-3.169968 z"/>
     </g>
</svg>
