<?xml version="1.0" encoding="UTF-8" standalone="no"?>
<svg xmlns="http://www.w3.org/2000/svg" xmlns:svg="http://www.w3.org/2000/svg" width="640" height="90" viewBox="0 0 640 90" version="1.1" id="svgflashlogo">
    <path id="flashlogo" fill="#000000" d="m 123.91799,0 c 0,0 6.80335,0 6.80335,0 0,0 0,67.492083 0,67.492083 0,0 0,16.628523 0,16.628523 0,0 -0.77753,3.902778 -0.77753,3.902778 0,0 -6.02582,0.498898 -6.02582,0.498898 0,0 0,-10.270526 0,-10.270526 0,0 -5.85087,6.31389 -5.85087,6.31389 -4.23265,3.594671 -10.98254,5.619477 -16.50296,5.404271 C 99.668944,89.896594 96.077754,89.241186 94.274871,88.64455 82.923006,84.90312 77.771907,72.862187 77.752469,61.623271 c 0,0 0,-4.890785 0,-4.890785 0.174954,-14.691742 10.190434,-29.158526 25.755511,-29.344404 5.18512,-0.05858 10.27304,0.376441 14.57858,3.682734 2.76022,2.122583 3.57662,4.000593 5.83143,6.098797 z m 93.30295,0 c 0,0 6.80335,0 6.80335,0 0,0 0,26.409941 0,26.409941 0,0 0.48595,13.69406 0.48595,13.69406 8.19804,-16.833903 33.58423,-17.386545 42.09812,-0.489109 5.58358,11.082444 4.15488,30.087799 -3.18299,40.104076 -6.73044,9.179906 -20.39545,13.204952 -30.65392,7.668662 -4.16462,-2.249764 -5.97722,-5.052132 -8.74716,-8.646841 0,0 0,9.781493 0,9.781493 0,0 -6.80335,0 -6.80335,0 z m 219.65073,0 c 0,0 16.03646,0 16.03646,0 0,0 0,67.981192 0,67.981192 0,0 0,14.183131 0,14.183131 0,0 -0.49569,5.575408 -0.49569,5.575408 0,0 -3.87791,0.782551 -3.87791,0.782551 0,0 -11.66286,0 -11.66286,0 z m 148.21565,0 c 0,0 15.55049,0 15.55049,0 0,0 0,24.453657 0,24.453657 0,0 0.48593,13.204952 0.48593,13.204952 4.3979,-8.387566 11.71635,-10.373216 20.41002,-10.270527 6.2688,0.07824 12.21687,3.056693 15.15205,8.803314 1.80287,3.526261 2.80875,8.275125 2.82822,12.226847 0,0 0,25.920908 0,25.920908 0,3.795213 -0.34507,10.250986 0.48597,13.694022 0,0 -16.03646,0.489109 -16.03646,0.489109 0,0 0,-34.724183 0,-34.724183 -0.0533,-4.328353 -1.17596,-9.727749 -4.86924,-12.39806 -6.30765,-4.572851 -14.65637,-0.146646 -17.13955,6.529134 -1.84177,4.949404 -1.31694,9.957543 -1.31694,15.161272 0,0 0,25.431837 0,25.431837 0,0 -15.55049,0 -15.55049,0 z M 394.10783,88.522282 c 0,0 -11.66291,0 -11.66291,0 -0.96699,0 -2.82334,0.112252 -3.59599,-0.498898 -0.96227,-0.767811 -0.77753,-2.777952 -0.77753,-3.902778 0,0 0,-54.287131 0,-54.287131 0,0 0,-22.0083032 0,-22.0083032 0.0677,-3.6631182 1.09822,-3.4186205 4.37352,-3.4235339 0,0 42.27795,0 42.27795,0 0,0 0,13.6940981 0,13.6940981 0,0 -26.24145,0 -26.24145,0 -4.24728,0.03024 -4.36388,0.860712 -4.37359,4.890671 0,0 0,18.095773 0,18.095773 0,0 28.18526,0 28.18526,0 0,0 0,13.204952 0,13.204952 0,0 -24.29764,0 -24.29764,0 -3.96053,0.07332 -3.88279,1.359609 -3.88762,4.890746 z M 0,88.522282 C 0.39848316,84.64392 5.8751737,71.52208 7.5711498,67.00305 c 0,0 16.6341662,-44.016643 16.6341662,-44.016643 0,0 4.621413,-12.22681 4.621413,-12.22681 0.481093,-1.3107401 1.52103,-4.6168063 2.59013,-5.384693 1.069096,-0.7678488 5.933484,-0.4841952 7.459374,-0.4841952 0,0 7.571149,20.5410902 7.571149,20.5410902 0,0 14.986784,40.104001 14.986784,40.104001 0,0 8.057102,22.986482 8.057102,22.986482 0,0 -4.373575,0 -4.373575,0 -3.975099,-0.02646 -3.425968,-0.278929 -5.855735,-6.84703 0,0 -4.504781,-12.226847 -4.504781,-12.226847 -0.490814,-1.344945 -1.530751,-4.641298 -2.522098,-5.506961 -1.15657,-1.012347 -3.163552,-0.850999 -4.611693,-0.850999 0,0 -25.755504,0 -25.755504,0 -1.491878,0 -3.440546,-0.156472 -4.655426,0.850999 -1.083681,0.890116 -1.914655,3.638702 -2.429767,5.01789 0,0 -4.412451,12.226847 -4.412451,12.226847 -0.4762359,1.369399 -1.9535323,6.113424 -2.9351588,6.851906 -0.6851943,0.518438 -1.7591471,0.46953 -2.5755478,0.484195 z M 34.98861,13.204951 c 0,0 -5.063629,13.694098 -5.063629,13.694098 0,0 -10.486863,29.833437 -10.486863,29.833437 0,0 30.615036,0 30.615036,0 0,0 -10.409114,-29.344404 -10.409114,-29.344404 z m 134.60896,14.393462 c 9.85514,-1.227553 20.06014,0.875414 26.47472,9.082054 5.90917,7.55622 6.18616,15.836221 6.08412,24.942804 -0.15549,13.268485 -8.8006,25.798564 -22.35382,27.740183 -9.08247,1.296075 -18.84041,-0.07332 -25.73608,-6.75413 -11.25953,-10.911231 -11.67744,-34.773052 -1.38982,-46.417928 4.71374,-5.335748 10.12241,-7.472995 16.92088,-8.592983 z m 157.44874,49.186092 c 0,0 0,3.912567 0,3.912567 -0.004,0.797178 0.0385,2.054098 -0.27704,2.773115 -0.77261,1.750791 -5.22395,3.579969 -7.01223,4.220637 -6.76449,2.43069 -15.48249,3.178998 -22.35387,0.782513 -11.8864,-4.142438 -16.73622,-17.11268 -17.00347,-28.806426 -0.19435,-8.651678 2.71647,-18.628762 8.78603,-24.923187 8.4264,-8.739705 25.59027,-10.563969 34.37631,-1.442722 6.74502,7.003503 7.37189,17.181128 7.37189,26.365909 0,0 -43.2498,0 -43.2498,0 0.0632,2.846438 0.74835,7.580675 1.63281,10.270564 0.7192,2.191068 1.97783,4.558224 3.41138,6.357922 5.68078,7.145424 14.6612,8.945159 23.14106,6.338381 4.20351,-1.291124 7.51287,-3.545726 11.17693,-5.849273 z M 469.91649,44.994747 c 0,0 0,-8.31428 0,-8.31428 0,-1.159106 -0.0971,-2.797455 0.49565,-3.80984 1.29748,-2.205694 7.70721,-3.746305 10.19528,-4.298948 9.59274,-2.127496 23.49585,-2.601902 30.45468,5.668309 3.51832,4.186507 4.99559,10.260775 5.01989,15.645468 0,0 0,38.636826 0,38.636826 0,0 -15.06456,0 -15.06456,0 0,0 -0.48593,-8.803314 -0.48593,-8.803314 -5.41349,11.097072 -21.62491,13.288064 -30.12907,6.196536 -8.36814,-6.979087 -8.11544,-22.223471 0.48593,-28.92378 3.2219,-2.508964 6.78879,-3.589758 10.69096,-4.455458 0,0 19.43811,-2.65081 19.43811,-2.65081 -0.0189,-1.941619 -0.004,-3.007786 -0.67544,-4.890709 -3.56689,-10.050482 -17.98998,-6.538885 -25.08003,-2.949127 z m 59.28624,28.366225 c 2.92056,0.596674 3.68353,1.628636 6.31741,2.714381 2.95944,1.217801 7.50311,2.435565 10.69096,2.621442 3.83418,0.220347 10.96796,-1.09062 11.53164,-5.824894 0.17953,-1.506331 -0.45192,-2.768164 -1.43841,-3.863698 -2.09447,-2.327962 -6.21536,-3.746268 -9.12133,-4.787981 -6.83735,-2.460019 -14.51546,-5.189103 -16.79455,-12.867553 -0.72409,-2.43069 -0.72409,-3.868498 -0.69978,-6.357922 0.13606,-11.874709 11.94474,-17.55772 22.35386,-17.606665 0,0 4.85949,0 4.85949,0 5.56906,0.01134 8.10569,1.178684 13.12071,1.956322 0,0 0,12.715918 0,12.715918 -5.00043,-0.943899 -4.93236,-3.193663 -14.57855,-3.550715 -8.37781,-0.308031 -12.83887,5.140195 -8.15913,9.747251 2.14791,2.117707 6.30765,3.526223 9.13104,4.587515 7.03173,2.645858 14.10236,5.125531 16.37665,13.180535 0.49077,1.736202 0.68515,3.580007 0.61225,5.379818 -0.67544,17.352303 -21.17779,19.978621 -34.4832,17.880492 0,0 -9.23312,-2.230186 -9.23312,-2.230186 z M 102.53607,33.398816 c -2.24025,0.371528 -3.766143,0.679824 -5.831436,1.721537 -7.469095,3.756095 -11.565683,12.46647 -11.662874,20.633991 0,0 0,5.868927 0,5.868927 0.01436,10.56393 5.705088,21.866419 17.49431,22.008265 6.0647,0.06803 11.01169,-0.73852 15.46302,-5.423849 5.92376,-6.24053 6.01123,-15.347113 5.9189,-23.431447 -0.034,-2.709505 -0.59286,-7.795842 -1.5842,-10.270564 -3.39195,-8.465877 -11.18178,-11.928491 -19.79772,-11.10686 z m 68.51937,0 c -4.79637,0.802054 -9.10191,2.494224 -12.41124,6.260145 -10.97283,12.495799 -8.06683,43.713374 13.8691,43.972575 6.05496,0.06803 10.70554,-0.322772 15.53105,-4.558149 3.1198,-2.743748 5.01504,-6.626948 6.03067,-10.603162 2.4395,-9.541795 1.73485,-23.720013 -6.01609,-30.723553 -4.44161,-4.005506 -11.26926,-4.895585 -17.00349,-4.347856 z m 70.94911,0 c -2.36172,0.39617 -4.6457,0.909695 -6.80332,1.995402 -11.14292,5.609726 -11.29841,16.897474 -11.17694,27.696227 0.12129,10.45149 6.86169,20.408996 17.98026,20.541091 3.60092,0.03931 6.45833,-0.09789 9.71907,-1.907377 8.34383,-4.631546 11.16234,-15.572145 11.17693,-24.502602 0.0147,-10.373254 -3.03235,-21.24533 -14.5786,-23.568454 -2.29371,-0.46458 -3.99939,-0.474368 -6.3174,-0.253984 z m 81.64011,19.910174 c -0.004,-4.044661 -0.45679,-7.531691 -2.18196,-11.248668 -0.89416,-1.926992 -2.07012,-3.814828 -3.66894,-5.169562 -5.75849,-5.105877 -15.99753,-4.597266 -21.84357,0 -4.80121,3.863697 -7.299,10.431912 -7.78011,16.41823 z m 177.37277,6.357921 c 0,0 -10.20499,1.11515 -10.20499,1.11515 -2.01188,0.274016 -4.4756,0.655295 -6.3174,1.501417 -6.32712,2.905097 -6.81789,10.231408 -2.82335,13.752757 4.72343,4.161978 15.2832,2.773039 18.59252,-6.58783 1.04481,-2.953966 0.75322,-6.641651 0.75322,-9.781494 z"/>
</svg>
