<?xml version="1.0" encoding="UTF-8" standalone="no"?>
<!-- Created with Inkscape (http://www.inkscape.org/) -->

<svg
   width="260.3508mm"
   height="91.579041mm"
   viewBox="0 0 260.3508 91.579041"
   version="1.1"
   id="svg5"
   inkscape:version="1.2.1 (9c6d41e410, 2022-07-14, custom)"
   sodipodi:docname="system.svg"
   xmlns:inkscape="http://www.inkscape.org/namespaces/inkscape"
   xmlns:sodipodi="http://sodipodi.sourceforge.net/DTD/sodipodi-0.dtd"
   xmlns="http://www.w3.org/2000/svg"
   xmlns:svg="http://www.w3.org/2000/svg">
  <sodipodi:namedview
     id="namedview7"
     pagecolor="#bfbfbf"
     bordercolor="#666666"
     borderopacity="1.0"
     inkscape:showpageshadow="2"
     inkscape:pageopacity="0"
     inkscape:pagecheckerboard="true"
     inkscape:deskcolor="#d1d1d1"
     inkscape:document-units="mm"
     showgrid="false"
     inkscape:zoom="0.7500982"
     inkscape:cx="446.60819"
     inkscape:cy="535.92983"
     inkscape:window-width="1920"
     inkscape:window-height="1023"
     inkscape:window-x="1366"
     inkscape:window-y="29"
     inkscape:window-maximized="1"
     inkscape:current-layer="layer1" />
  <defs
     id="defs2" />
  <g
     inkscape:label="Layer 1"
     inkscape:groupmode="layer"
     id="layer1"
     transform="translate(54.222894,-6.7673507)">
    <path
       id="Selection"
       fill="none"
       stroke="#000000"
       stroke-width="1"
       d="m 22.771665,19.760739 c 0,0 0,-9.260417 0,-9.260417 0.0026,-1.0027709 -0.08731,-2.0399376 0.642937,-2.8363334 0.865188,-0.9472084 2.156355,-0.8651875 3.325813,-0.8678334 0,0 27.25208,0 27.25208,0 0,0 11.37709,0 11.37709,0 1.25677,0 3.97404,-0.1852083 5.00062,0.3836459 1.40494,0.7805208 1.34673,2.1960416 1.34938,3.5851039 0,0 0,66.939584 0,66.939584 0,0 0,16.66875 0,16.66875 -0.037,2.910416 -0.97632,3.434291 -3.70417,3.439583 0,0 -34.660417,0 -34.660417,0 0,0 -7.14375,0 -7.14375,0 -0.968375,-0.0053 -1.820333,0.0344 -2.606146,-0.642938 -0.926041,-0.79375 -0.830791,-1.695979 -0.833437,-2.796645 0,0 0,-13.758334 0,-13.758334 0,0 -15.0812501,0 -15.0812501,0 0,0 1.309687,10.054167 1.309687,10.054167 0.230188,2.050521 0.01323,3.394604 2.3944801,3.439583 0,0 5.55625,0 5.55625,0 0.52652,0 1.537229,-0.06085 1.957916,0.269875 0.608542,0.481542 0.608542,3.212042 0,3.693584 -0.420687,0.330729 -1.431396,0.269875 -1.957916,0.269875 0,0 -51.59375,0 -51.59375,0 0,0 0,-4.233334 0,-4.233334 0,0 9.789583,0 9.789583,0 0,0 1.161521,-6.879166 1.161521,-6.879166 0,0 1.219729,-6.35 1.219729,-6.35 -1.905,-0.463021 -6.051021,-0.264584 -8.202083,-0.264584 0,0 -15.610417,0 -15.610417,0 -1.17475,0 -5.521854,0.134938 -6.339417,-0.195791 -0.560916,-0.227542 -0.931333,-0.608542 -1.214437,-1.137709 -0.433917,-0.814916 -0.381,-1.743604 -0.383646,-2.63525 0,0 0,-43.65625 0,-43.65625 0,0 0,-8.995833 0,-8.995833 0.0053,-1.018646 0,-2.283354 0.677333,-3.116792 0.926042,-1.140354 2.492375,-1.113896 3.820584,-1.116541 0,0 72.495833,0 72.495833,0 z M 138.12999,35.900322 c 0,0 0,4.233333 0,4.233333 0,0.587375 0.0582,1.508125 -0.26987,2.008188 -0.55563,0.838729 -3.47398,1.61925 -4.49263,1.849437 -4.51908,1.010709 -10.23408,0.492125 -14.2875,-1.830916 -5.5536,-3.182938 -6.94796,-8.524875 -6.87916,-14.462125 0.0741,-6.223 3.41577,-11.350625 9.26041,-13.636625 2.50561,-0.978959 5.27579,-1.209146 7.9375,-1.180042 1.88384,0.02381 4.57994,0.529167 6.35,1.17475 0.57415,0.206375 1.76742,0.621771 2.11932,1.113896 0.32808,0.460375 0.26193,1.389062 0.26193,1.944687 0,0 0,4.233334 0,4.233334 -3.03741,-1.121834 -4.04812,-2.598209 -7.9375,-2.645834 -3.3311,-0.03704 -5.28373,0.193146 -7.61735,2.910417 -2.06375,2.405062 -2.20663,4.958292 -2.17223,7.9375 0.0423,3.563937 1.65365,6.895042 5.02708,8.419042 4.65402,2.100791 8.61748,0.08731 12.7,-2.069042 z M 83.361245,13.410739 c 0,0 13.75834,0.219604 13.75834,0.219604 3.026825,0.288396 4.987385,0.174625 7.672905,2.106083 3.10357,2.230438 3.47927,5.005917 3.43959,8.522229 -0.037,3.066521 -1.31234,5.643563 -3.96875,7.283979 -3.48457,2.151063 -9.196915,1.976438 -13.229165,1.976438 0,0 0,10.583333 0,10.583333 0,0 -7.67292,0 -7.67292,0 0,0 0,-30.691666 0,-30.691666 z m 57.414585,34.660416 c 0,0 2.90512,-9.525 2.90512,-9.525 0,0 5.37104,-17.197916 5.37104,-17.197916 0,0 1.62454,-5.291667 1.62454,-5.291667 0,0 1.08215,-2.375958 1.08215,-2.375958 0,0 1.98173,-0.269875 1.98173,-0.269875 0,0 2.11667,0 2.11667,0 0,0 -2.64055,9.260416 -2.64055,9.260416 0,0 -5.55625,17.727084 -5.55625,17.727084 0,0 -1.55575,5.027083 -1.55575,5.027083 0,0 -1.016,2.383896 -1.016,2.383896 0,0 -1.93145,0.261937 -1.93145,0.261937 0,0 -2.38125,0 -2.38125,0 z M 38.646665,23.994072 c 0,0 11.90625,0 11.90625,0 0,0 11.37708,0 11.37708,0 3.88409,-0.05292 2.88396,-3.074458 2.91042,-5.820833 0.0132,-1.113896 0.31221,-2.434167 -0.44979,-3.3655 -0.78846,-0.963084 -2.13519,-0.865188 -3.25438,-0.867834 0,0 -24.341663,0 -24.341663,0 0,0 -3.704167,0 -3.704167,0 -2.497667,0.0053 -3.664479,0.386292 -3.704167,3.175 -0.01588,1.164167 -0.05821,1.772709 0.264584,2.910417 2.14577,-0.383646 7.466541,-0.881063 8.68627,1.346729 0.386292,0.709083 0.309563,1.822979 0.309563,2.622021 z m 52.3875,3.704167 c 1.93675,0 5.85523,0.306916 7.40304,-0.719667 2.606145,-1.727729 2.368015,-6.003396 -0.52387,-7.310438 -1.4314,-0.648229 -5.16732,-0.436562 -6.87917,-0.436562 0,0 0,8.466667 0,8.466667 z m -137.31875,46.302083 c 0,0 59.002083,0 59.002083,0 0,0 13.229167,0 13.229167,0 0.896937,0 3.688292,0.216958 4.235979,-0.460375 0.328083,-0.407458 0.261938,-1.407583 0.261938,-1.920875 0,0 0,-34.395833 0,-34.395833 0,0 0,-8.202084 0,-8.202084 0,-0.526521 0.06085,-1.537229 -0.269875,-1.957916 -0.415396,-0.523875 -1.502834,-0.423334 -2.111375,-0.423334 0,0 -74.347917,0 -74.347917,0 0,0 0,47.360417 0,47.360417 z m 84.93125,-36.247917 c 0,0 19.84375,0 19.84375,0 1.6219,0 5.11969,0.433917 6.04044,-1.113896 0.34131,-0.579437 0.30691,-1.404937 0.30956,-2.061104 0.008,-1.656291 0.50006,-5.715 -1.08744,-6.609291 -0.5715,-0.320146 -1.44198,-0.269875 -2.08756,-0.269875 0,0 -23.01875,0 -23.01875,0 0,0 0,10.054166 0,10.054166 z m 0,13.758334 c 0,0 19.84375,0 19.84375,0 1.6219,0 5.11969,0.433916 6.04044,-1.113896 0.34131,-0.579438 0.30691,-1.404938 0.30956,-2.061104 0.008,-1.53723 0.43656,-5.49275 -0.83344,-6.418792 -0.7276,-0.534458 -1.74625,-0.457729 -2.60614,-0.460375 0,0 -22.75417,0 -22.75417,0 0,0 0,10.054167 0,10.054167 z m 0,6.879166 c 0,0.566209 -0.07937,1.780646 0.269875,2.2225 0.388937,0.492125 1.283229,0.418042 1.846792,0.423334 0,0 3.704163,0 3.704163,0 0,0 17.4625,0 17.4625,0 0.65617,0 1.74625,0.05821 2.29923,-0.309563 0.67204,-0.449792 1.26206,-2.283354 -1.50548,-2.336271 0,0 -7.14375,0 -7.14375,0 0,0 -6.87916,0 -6.87916,0 0,0 -10.05417,0 -10.05417,0 z m 70.908325,2.645834 c 0,0 7.14375,0 7.14375,0 0,0 0,6.085416 0,6.085416 0,0 -7.14375,0 -7.14375,0 0,0 0,-6.085416 0,-6.085416 z M 62.197225,62.53328 c -2.60879,0.851959 -1.16416,3.429 0.51065,2.979209 1.28852,-0.343959 1.6801,-2.693459 -0.51065,-2.979209 z m 20.89944,-0.174625 c 0,0 7.9375,0 7.9375,0 0,0 0,24.341667 0,24.341667 0,0 13.758325,0 13.758325,0 0,0 0,6.085417 0,6.085417 0,0 -21.695825,0 -21.695825,0 0.508,-2.090209 0.26458,-10.263188 0.26458,-12.964584 0,0 0,-11.1125 0,-11.1125 0,-1.907646 0.17198,-4.558771 -0.26458,-6.35 z m -36.5125,4.852459 c -1.54517,0.362479 -2.84163,1.076854 -3.5851,2.555875 -1.47638,2.93952 0.65352,6.511395 3.84968,6.82625 5.04561,0.500062 7.00088,-6.707188 2.38125,-8.929688 -0.90487,-0.433917 -1.66687,-0.518583 -2.64583,-0.452437 z m -0.26458,1.934104 c 1.14564,-0.224896 1.96585,-0.203729 2.84956,0.682625 1.42346,1.420812 1.02658,4.148666 -1.00277,4.79425 -3.45017,1.098021 -5.82084,-3.767667 -1.84679,-5.476875 z m 84.666655,3.796771 c 3.15913,-2.251605 3.38667,-3.434292 7.67292,-3.439584 1.15887,-0.0026 2.04523,-0.03704 3.175,0.322792 5.8129,1.860021 5.02708,9.665229 5.02708,14.493875 0,0 0,3.704167 0,3.704167 0,0 0,4.7625 0,4.7625 0,0 -7.40833,0 -7.40833,0 0,0 0,-11.90625 0,-11.90625 -0.005,-2.68023 -0.37835,-6.098646 -3.96875,-5.79173 -2.36008,0.201084 -3.75444,2.325688 -4.16454,4.468813 -0.59267,3.106208 -0.33338,9.752542 -0.33338,13.229167 0,0 -7.14375,0 -7.14375,0 0,0 0,-23.01875 0,-23.01875 0,0 7.14375,0 7.14375,0 0,0 0,3.175 0,3.175 z m -21.43125,-3.175 c 0,0 7.14375,0 7.14375,0 0,0 0,23.01875 0,23.01875 0,0 -7.14375,0 -7.14375,0 0,0 0,-23.01875 0,-23.01875 z m 59.53125,19.84375 c -1.1721,1.145645 -2.19868,2.11402 -3.70416,2.823104 -3.70417,1.748896 -8.85032,1.071562 -10.89555,-2.823104 -1.62189,-3.090334 -1.27529,-8.17298 -1.27529,-11.641667 0,0 0,-6.085417 0,-6.085417 0.003,-0.481541 -0.0397,-1.30175 0.26988,-1.693333 0.41539,-0.523875 1.50283,-0.423333 2.11137,-0.423333 0,0 5.02709,0 5.02709,0 0,0 0,12.964583 0,12.964583 0.0185,1.486958 0.15345,3.092979 1.35202,4.130146 2.33362,2.021416 5.30489,0.15875 6.35264,-2.278063 0.59002,-1.370541 0.75936,-3.529541 0.762,-5.027083 0,0 0,-9.789583 0,-9.789583 0,0 7.14375,0 7.14375,0 0,0 0,23.01875 0,23.01875 0,0 -7.14375,0 -7.14375,0 0,0 0,-3.175 0,-3.175 z m 11.90625,-19.84375 c 0,0 5.82084,0 5.82084,0 0,0 1.56368,0.269875 1.56368,0.269875 0,0 1.87061,2.111375 1.87061,2.111375 0,0 2.91571,4.497916 2.91571,4.497916 0,0 3.1697,-4.497916 3.1697,-4.497916 0,0 1.86796,-2.111375 1.86796,-2.111375 0,0 2.10609,-0.269875 2.10609,-0.269875 0,0 5.29166,0 5.29166,0 0,0 -3.20939,4.7625 -3.20939,4.7625 0,0 -4.99269,6.614583 -4.99269,6.614583 0,0 4.34446,5.55625 4.34446,5.55625 0,0 4.38679,6.085417 4.38679,6.085417 0,0 -6.35,0 -6.35,0 -2.01083,-0.0344 -2.2516,-1.087438 -3.36285,-2.645834 -1.04246,-1.463146 -2.1934,-2.881312 -2.98715,-4.497916 0,0 -3.47663,4.7625 -3.47663,4.7625 0,0 -1.83885,2.111375 -1.83885,2.111375 0,0 -1.82827,0.269875 -1.82827,0.269875 0,0 -5.82083,0 -5.82083,0 0,0 5.91873,-8.202084 5.91873,-8.202084 0.52916,-0.706437 2.18016,-2.651125 2.20927,-3.439583 0.0318,-0.846667 -1.53988,-2.725208 -2.07698,-3.439583 -1.3335,-1.783292 -4.82071,-6.135688 -5.52186,-7.9375 z M 46.584165,81.522426 c -2.56117,1.039813 -1.92881,4.042833 0.26458,4.344458 2.78077,0.381 3.29142,-2.865437 1.79123,-3.997854 -0.66146,-0.500062 -1.29381,-0.441854 -2.05581,-0.346604 z"
       style="fill:#ffffff;fill-opacity:1;stroke:none" />
  </g>
</svg>
