<?xml version="1.0" encoding="UTF-8" standalone="no"?>
<!-- Created with Inkscape (http://www.inkscape.org/) -->

<svg
   width="256.00027"
   height="183.13499"
   viewBox="0 0 67.733404 48.454467"
   version="1.1"
   id="svg1"
   xml:space="preserve"
   sodipodi:docname="snes.svg"
   inkscape:version="1.3.2 (091e20ef0f, 2023-11-25, custom)"
   xmlns:inkscape="http://www.inkscape.org/namespaces/inkscape"
   xmlns:sodipodi="http://sodipodi.sourceforge.net/DTD/sodipodi-0.dtd"
   xmlns="http://www.w3.org/2000/svg"
   xmlns:svg="http://www.w3.org/2000/svg"><sodipodi:namedview
     id="namedview1"
     pagecolor="#ffffff"
     bordercolor="#666666"
     borderopacity="1.0"
     inkscape:showpageshadow="2"
     inkscape:pageopacity="0.0"
     inkscape:pagecheckerboard="true"
     inkscape:deskcolor="#d1d1d1"
     inkscape:zoom="0.68742655"
     inkscape:cx="-260.39146"
     inkscape:cy="298.21368"
     inkscape:window-width="1920"
     inkscape:window-height="1027"
     inkscape:window-x="1366"
     inkscape:window-y="29"
     inkscape:window-maximized="1"
     inkscape:current-layer="svg1" /><defs
     id="defs1" /><g
     id="layer10"
     transform="translate(-132.91762,-176.06399)"
     inkscape:label="snes"><g
       id="Layer_1"
       transform="matrix(0.29366344,0,0,0.29366344,-116.54944,170.92485)"
       style="display:inline;stroke-width:0.900975"
       inkscape:label="icon">
	
<ellipse
   style="fill:#eee816;fill-opacity:1;stroke:none;stroke-width:0.904545;stroke-linecap:round;stroke-miterlimit:4;stroke-dasharray:none"
   id="path1724-2"
   cx="983.41272"
   cy="157.96135"
   rx="48.855389"
   ry="24.538769"
   inkscape:label="yellow" /><ellipse
   ry="24.538769"
   rx="48.855389"
   cy="115.18548"
   cx="898.35529"
   id="path1724"
   style="fill:#7bc049;fill-opacity:1;stroke:none;stroke-width:0.904545;stroke-linecap:round;stroke-miterlimit:4;stroke-dasharray:none"
   inkscape:label="green" /><path
   d="m 1037.4901,59.964991 a 42.696593,42.742731 0 0 0 -16.8015,3.432638 42.696593,42.742731 0 0 0 -25.93085,39.488781 42.235885,39.033498 0 0 1 29.31735,11.21042 42.235885,39.033498 0 0 1 12.5204,30.39809 l 0.9706,0.95566 a 42.696593,42.742731 0 0 0 39.4203,-26.59777 42.696593,42.742731 0 0 0 -9.5864,-46.611598 42.696593,42.742731 0 0 0 -29.9099,-12.276221 z"
   style="fill:#ec1d23;fill-opacity:1;stroke:none;stroke-width:0.922635;stroke-linecap:round;stroke-miterlimit:4;stroke-dasharray:none"
   id="path1702"
   inkscape:label="red" /><path
   id="path1702-9"
   style="fill:#43b9e9;fill-opacity:1;stroke:none;stroke-width:0.922635;stroke-linecap:round;stroke-miterlimit:4;stroke-dasharray:none"
   d="m 952.41854,17.500134 a 42.696593,42.742731 0 0 0 -16.8015,3.432618 42.696593,42.742731 0 0 0 -25.93088,39.488777 42.235885,39.033499 0 0 1 29.31738,11.210444 42.235885,39.033499 0 0 1 12.52035,30.398077 l 0.97058,0.95566 a 42.696593,42.742731 0 0 0 39.4203,-26.597761 42.696593,42.742731 0 0 0 -9.58638,-46.611622 42.696593,42.742731 0 0 0 -29.90985,-12.276193 z"
   inkscape:label="blue" /></g></g></svg>
