<?xml version="1.0" encoding="UTF-8" standalone="no"?>
<!-- Created with Inkscape (http://www.inkscape.org/) -->

<svg
   width="126.25455"
   height="32.000004"
   viewBox="0 0 33.404851 8.4666677"
   version="1.1"
   id="svg1"
   xml:space="preserve"
   sodipodi:docname="logo.svg"
   inkscape:version="1.3.2 (091e20ef0f, 2023-11-25, custom)"
   xmlns:inkscape="http://www.inkscape.org/namespaces/inkscape"
   xmlns:sodipodi="http://sodipodi.sourceforge.net/DTD/sodipodi-0.dtd"
   xmlns="http://www.w3.org/2000/svg"
   xmlns:svg="http://www.w3.org/2000/svg"><sodipodi:namedview
     id="namedview1"
     pagecolor="#ffffff"
     bordercolor="#666666"
     borderopacity="1.0"
     inkscape:showpageshadow="2"
     inkscape:pageopacity="0.0"
     inkscape:pagecheckerboard="0"
     inkscape:deskcolor="#d1d1d1"
     inkscape:zoom="3.4573012"
     inkscape:cx="25.598001"
     inkscape:cy="51.774488"
     inkscape:window-width="1920"
     inkscape:window-height="1027"
     inkscape:window-x="1366"
     inkscape:window-y="29"
     inkscape:window-maximized="1"
     inkscape:current-layer="svg1" /><defs
     id="defs1">
	
</defs><path
     id="path27-4"
     class="st1"
     d="m 10.67312,7.5584 h 0.36946 L 11.02208,6.65529 Z M 7.77393,6.6399 C 7.73803,6.6349 7.69693,6.6296 7.65078,6.6296 H 7.50197 l -0.0975,0.54905 h 0.1488 c 0.10263,0 0.1796,-0.0205 0.23091,-0.0565 C 7.84578,7.07595 7.88681,6.999 7.9022,6.89637 7.9176,6.79887 7.9072,6.73217 7.8714,6.69112 7.8457,6.66542 7.815,6.65002 7.7739,6.63982 Z M -1e-5,6.15756 V 8.46665 H 33.40484 V 6.15756 Z M 1.45728,6.64503 H 0.94415 L 0.84665,7.17869 H 1.32899 L 1.29309,7.37368 H 0.81075 L 0.71325,7.93812 H 1.25717 L 1.22127,8.13311 H 0.44645 L 0.74406,6.43978 H 1.49323 Z M 3.01207,8.13824 H 2.66827 L 2.48355,6.96317 c 0,-0.0205 -0.0103,-0.0821 -0.0205,-0.18986 C 2.45805,6.71171 2.45275,6.66042 2.44765,6.6245 L 2.43735,6.6809 2.42705,6.7271 2.41675,6.7989 2.39625,6.90666 2.18074,8.13817 H 1.97036 L 2.26797,6.44484 H 2.6323 l 0.15907,1.00574 c 0.0308,0.23604 0.0513,0.40024 0.0616,0.49773 0.005,-0.0359 0.0103,-0.0872 0.0154,-0.15907 0.0154,-0.10262 0.0205,-0.15907 0.0256,-0.17446 L 3.09922,6.44484 H 3.30961 Z M 5.00302,6.64503 H 4.60791 L 4.34621,8.13824 H 4.1153 L 4.377,6.64503 H 3.98702 l 0.0359,-0.20012 h 1.02113 z m 1.47269,0 H 5.96258 L 5.87018,7.17869 H 6.35253 L 6.31663,7.37368 H 5.83428 L 5.73678,7.93812 H 6.2807 L 6.2448,8.13311 H 5.46484 L 5.76246,6.43978 h 0.74917 z m 1.66254,0.23604 c -0.0256,0.13855 -0.077,0.24117 -0.1642,0.30275 -0.0462,0.0359 -0.11289,0.0616 -0.19499,0.0821 0.0513,0.0154 0.0924,0.0257 0.11802,0.0411 0.0564,0.0308 0.0821,0.0975 0.0821,0.19499 0,0.0667 -0.0103,0.1796 -0.0308,0.33353 -0.0103,0.10263 -0.0154,0.1796 -0.005,0.22578 0.005,0.0257 0.0103,0.0462 0.0154,0.0718 h -0.2617 c -0.005,-0.0308 -0.0103,-0.0616 -0.0103,-0.0975 0,-0.0205 0.0103,-0.0975 0.0205,-0.22578 0.0154,-0.16934 0.0205,-0.28222 0.0205,-0.32841 -0.005,-0.0411 -0.0257,-0.0718 -0.0565,-0.0872 -0.0256,-0.0154 -0.0564,-0.0257 -0.0872,-0.0308 -0.0256,-0.005 -0.0616,-0.005 -0.10262,-0.005 H 7.36857 L 7.23515,8.12813 H 7.00424 L 7.30186,6.4348 h 0.4259 c 0.11289,0 0.20012,0.0103 0.25143,0.0257 0.14368,0.0616 0.20012,0.20012 0.15907,0.42077 z M 9.93421,6.64503 H 9.5391 L 9.27741,8.13824 H 9.0465 L 9.30819,6.64503 H 8.91821 l 0.0359,-0.20012 h 1.02113 z m 1.13402,1.49321 -0.0103,-0.38485 h -0.45155 l -0.14881,0.38485 h -0.22578 l 0.6876,-1.69333 h 0.30787 l 0.0924,1.69333 z m 1.22639,0 h -0.23091 l 0.29761,-1.69333 h 0.23091 z m 1.82161,0 H 13.77244 L 13.58771,6.96317 c 0,-0.0205 -0.0103,-0.0821 -0.0205,-0.18986 -0.005,-0.0616 -0.0103,-0.11289 -0.0154,-0.14881 l -0.0103,0.0564 -0.0103,0.0462 -0.0103,0.0718 -0.0205,0.10776 -0.21552,1.23151 h -0.21038 l 0.29761,-1.69333 h 0.36433 l 0.15907,1.00574 c 0.0308,0.23604 0.0513,0.40024 0.0616,0.49773 0.005,-0.0359 0.0103,-0.0872 0.0154,-0.15907 0.0154,-0.10262 0.0205,-0.15907 0.0257,-0.17446 l 0.20526,-1.16994 h 0.21038 z m 2.15002,0 H 16.06613 L 16.3227,6.68608 15.70694,8.13824 H 15.47603 L 15.37341,6.68608 15.11684,8.13824 h -0.20012 l 0.29761,-1.69333 h 0.38485 l 0.0821,1.29822 0.49774,-1.29822 h 0.38485 z m 1.81649,-1.49321 h -0.51313 l -0.0924,0.53366 h 0.48235 l -0.0359,0.19499 h -0.48235 l -0.0975,0.56444 h 0.53879 l -0.0359,0.19499 h -0.77996 l 0.29761,-1.69333 h 0.74918 z m 1.55479,1.49321 h -0.3438 L 19.109,6.96317 c 0,-0.0205 -0.0103,-0.0821 -0.0205,-0.18986 C 19.0835,6.71171 19.0782,6.66042 19.0731,6.6245 L 19.0628,6.6809 19.0525,6.7271 19.0422,6.7989 19.0217,6.90666 18.80618,8.13817 H 18.5958 l 0.29762,-1.69333 h 0.36432 l 0.15907,1.00574 c 0.0308,0.23604 0.0513,0.40024 0.0616,0.49773 0.005,-0.0359 0.0103,-0.0872 0.0154,-0.15907 0.0154,-0.10262 0.0205,-0.15907 0.0257,-0.17446 l 0.20525,-1.16994 h 0.21038 z m 1.99095,-1.49321 h -0.39512 l -0.26169,1.49321 h -0.23091 l 0.2617,-1.49321 h -0.38998 l 0.0359,-0.20012 h 1.02113 z m 2.64775,0.23604 c 0,0.005 -0.005,0.0257 -0.0103,0.0513 h -0.23604 c 0.005,-0.0256 0.005,-0.041 0.0103,-0.0462 0.0103,-0.0564 0.0103,-0.0975 0.0103,-0.12315 -0.0154,-0.10263 -0.077,-0.15394 -0.19499,-0.15394 -0.077,0 -0.13855,0.0257 -0.18473,0.0718 -0.0411,0.0411 -0.0667,0.0924 -0.077,0.15907 -0.0103,0.0616 -0.005,0.10776 0.0154,0.14881 0.0257,0.0564 0.0718,0.10262 0.14368,0.14367 l 0.13855,0.0821 c 0.12315,0.077 0.20525,0.15394 0.24117,0.2309 0.0308,0.0667 0.0359,0.15394 0.0154,0.2617 -0.0257,0.15394 -0.0975,0.27196 -0.20525,0.35406 -0.0975,0.0718 -0.21552,0.10263 -0.36433,0.10263 -0.16933,0 -0.29248,-0.0411 -0.35919,-0.12315 -0.0667,-0.077 -0.0821,-0.20012 -0.0564,-0.36433 0.005,-0.0154 0.0103,-0.0462 0.0205,-0.0975 h 0.23604 c -0.005,0.0308 -0.0103,0.0564 -0.0154,0.0667 -0.0154,0.0924 -0.0154,0.1642 0,0.21551 0.0257,0.077 0.0924,0.11289 0.20012,0.11289 0.0975,0 0.16933,-0.0308 0.22065,-0.0872 0.041,-0.0462 0.0718,-0.10263 0.0821,-0.17447 0.0154,-0.0821 0,-0.1488 -0.0462,-0.20525 -0.0359,-0.041 -0.0975,-0.0924 -0.19499,-0.14881 -0.0975,-0.0564 -0.17447,-0.11289 -0.22578,-0.1642 -0.0821,-0.0821 -0.11289,-0.19499 -0.0821,-0.34893 0.0257,-0.14368 0.0872,-0.25143 0.18473,-0.3284 0.0924,-0.0718 0.21038,-0.10263 0.34893,-0.10263 0.15907,0 0.27195,0.0411 0.33866,0.12315 0.0564,0.077 0.0718,0.18986 0.0462,0.3438 z M 25.4667,7.43525 25.34355,8.13824 H 25.11264 L 25.23579,7.43525 25.02541,6.44491 h 0.26682 l 0.11802,0.74404 0.38998,-0.74404 h 0.23091 z m 2.10384,-0.55418 c 0,0.005 -0.005,0.0257 -0.0103,0.0513 H 27.3242 c 0.005,-0.0256 0.005,-0.041 0.0103,-0.0462 0.0103,-0.0564 0.0103,-0.0975 0.0103,-0.12315 -0.0154,-0.10263 -0.077,-0.15394 -0.19499,-0.15394 -0.077,0 -0.13855,0.0257 -0.18473,0.0718 -0.041,0.0411 -0.0667,0.0924 -0.077,0.15907 -0.0103,0.0616 -0.005,0.10776 0.0154,0.14881 0.0256,0.0564 0.0718,0.10262 0.14367,0.14367 l 0.13855,0.0821 c 0.12315,0.077 0.20525,0.15394 0.24117,0.2309 0.0308,0.0667 0.0359,0.15394 0.0154,0.2617 -0.0257,0.15394 -0.0975,0.27196 -0.20525,0.35406 -0.0975,0.0718 -0.21551,0.10263 -0.36432,0.10263 -0.16934,0 -0.29249,-0.0411 -0.35919,-0.12315 -0.0667,-0.077 -0.0821,-0.20012 -0.0564,-0.36433 0.005,-0.0154 0.0103,-0.0462 0.0205,-0.0975 h 0.23604 c -0.005,0.0308 -0.0103,0.0564 -0.0154,0.0667 -0.0154,0.0924 -0.0154,0.1642 0,0.21551 0.0257,0.077 0.0924,0.11289 0.20012,0.11289 0.0975,0 0.16934,-0.0308 0.22065,-0.0872 0.0411,-0.0462 0.0718,-0.10263 0.0821,-0.17447 0.0154,-0.0821 0,-0.1488 -0.0462,-0.20525 -0.0359,-0.041 -0.0975,-0.0924 -0.19499,-0.14881 -0.0975,-0.0564 -0.17446,-0.11289 -0.22578,-0.1642 -0.0821,-0.0821 -0.11289,-0.19499 -0.0821,-0.34893 0.0257,-0.14368 0.0872,-0.25143 0.18473,-0.3284 0.0924,-0.0718 0.21038,-0.10263 0.34893,-0.10263 0.15907,0 0.27196,0.0411 0.33866,0.12315 0.0564,0.077 0.077,0.18986 0.0462,0.3438 z m 1.7703,-0.23604 h -0.39511 l -0.2617,1.49321 h -0.23091 l 0.2617,-1.49321 h -0.38998 l 0.0359,-0.20012 h 1.016 z m 1.47782,0 h -0.51313 l -0.0924,0.53366 h 0.48235 l -0.0359,0.19499 h -0.48235 l -0.0975,0.56444 h 0.54392 l -0.0359,0.19499 h -0.77996 l 0.29762,-1.69333 h 0.74917 z m 1.89345,1.49321 H 32.51199 L 32.76856,6.68608 32.1528,8.13824 H 31.92189 L 31.81926,6.68608 31.5627,8.13824 h -0.20012 l 0.29761,-1.69333 h 0.38485 l 0.0821,1.29822 0.49774,-1.29822 h 0.38485 z M 31.22403,0.82099 c 0.0359,-0.15394 0.0975,-0.29248 0.1796,-0.41051 0.0359,-0.0513 0.077,-0.10262 0.12828,-0.1488 0.0513,-0.0513 0.10776,-0.0924 0.1796,-0.13342 0.0667,-0.0359 0.14367,-0.0718 0.23091,-0.0924 0.0872,-0.0257 0.18472,-0.0359 0.29248,-0.0359 h 0.43103 c 0.10776,0 0.20012,0.0103 0.27709,0.0359 0.077,0.0257 0.14368,0.0564 0.20012,0.0924 0.0565,0.041 0.0975,0.0821 0.13342,0.13342 0.0308,0.0513 0.0564,0.0975 0.077,0.1488 0.041,0.11803 0.0513,0.25657 0.0359,0.41051 L 32.66081,4.9517 c -0.0359,0.15394 -0.0975,0.29248 -0.1796,0.4105 -0.0359,0.0513 -0.077,0.10263 -0.12828,0.14881 -0.0513,0.0513 -0.10776,0.0924 -0.1796,0.13341 -0.0667,0.0411 -0.14367,0.0718 -0.2309,0.0924 -0.0872,0.0256 -0.18473,0.0359 -0.29249,0.0359 h -0.43103 c -0.10776,0 -0.20012,-0.0103 -0.27709,-0.0359 -0.077,-0.0257 -0.14368,-0.0565 -0.20012,-0.0924 -0.0565,-0.0359 -0.0975,-0.0821 -0.13342,-0.13341 -0.0359,-0.0513 -0.0564,-0.0975 -0.077,-0.14881 -0.041,-0.11802 -0.0513,-0.25656 -0.0359,-0.4105 z m -0.0359,4.13071 c -0.005,0.0308 0,0.0616 0.005,0.0872 0.0103,0.0205 0.0205,0.0411 0.041,0.0616 0.0205,0.0205 0.0513,0.0257 0.0924,0.0257 h 0.43103 c 0.041,0 0.077,-0.0103 0.10262,-0.0257 0.0257,-0.0205 0.0462,-0.0359 0.0616,-0.0616 0.0154,-0.0257 0.0308,-0.0564 0.0359,-0.0872 l 0.72865,-4.12558 c 0.005,-0.0308 0,-0.0616 -0.005,-0.0872 -0.0103,-0.0205 -0.0205,-0.041 -0.0411,-0.0616 -0.0205,-0.0205 -0.0513,-0.0256 -0.0924,-0.0256 H 32.1168 c -0.041,0 -0.077,0.0103 -0.10263,0.0256 -0.0257,0.0205 -0.0462,0.0359 -0.0616,0.0616 -0.0154,0.0257 -0.0308,0.0564 -0.0359,0.0872 z M 28.68405,-2e-5 h 1.3598 c 0.10776,0 0.20012,0.0103 0.27709,0.0359 0.077,0.0257 0.14368,0.0564 0.20012,0.0924 0.0564,0.041 0.0975,0.0821 0.13342,0.13342 0.0308,0.0513 0.0564,0.0975 0.077,0.1488 0.0411,0.11803 0.0513,0.25657 0.0359,0.41051 l -0.73377,4.13071 c -0.0359,0.15394 -0.0975,0.29248 -0.1796,0.4105 -0.0359,0.0513 -0.077,0.10263 -0.12828,0.14881 -0.0513,0.0513 -0.10776,0.0924 -0.1796,0.13341 -0.0667,0.0411 -0.14367,0.0718 -0.23091,0.0924 -0.0872,0.0256 -0.18472,0.0359 -0.29248,0.0359 h -1.35467 z m -0.21038,5.12105 h 0.66194 c 0.041,0 0.077,-0.0103 0.10262,-0.0257 0.0257,-0.0205 0.0462,-0.0359 0.0616,-0.0616 0.0154,-0.0257 0.0308,-0.0565 0.0359,-0.0872 l 0.72864,-4.12558 c 0.005,-0.0308 0,-0.0616 -0.005,-0.0872 -0.0103,-0.0205 -0.0205,-0.0411 -0.041,-0.0616 -0.0205,-0.0205 -0.0513,-0.0256 -0.0924,-0.0256 H 29.26403 Z M 24.8407,5.77271 25.8567,-2e-5 h 0.69273 l -1.016,5.77273 z M 26.14405,2.30907 26.54943,-2e-5 26.91888,3.46362 26.51351,5.77271 Z m 0.36946,3.46364 1.016,-5.77273 h 0.69272 l -1.016,5.77273 z M 24.06587,2.61182 h 0.86719 l -0.11289,0.65167 h -0.86719 l -0.3284,1.86267 h 0.86719 l -0.11289,0.65168 h -1.55992 l 1.016,-5.77786 h 1.55992 L 25.28199,0.65166 H 24.4148 Z M 21.66955,-2e-5 h 1.70359 l -0.11289,0.65168 h -0.46181 l -0.90312,5.12105 h -0.77996 l 0.90312,-5.12105 h -0.46182 z m -3.84336,5.77273 1.016,-5.77273 h 0.69273 l -1.016,5.77273 z M 19.12955,2.30907 19.53492,-2e-5 19.90437,3.46362 19.499,5.77271 Z M 19.499,5.77271 20.515,-2e-5 h 0.69273 l -1.016,5.77273 z M 17.68765,-2e-5 h 0.69272 l -1.016,5.77273 h -0.69272 z m -3.84849,5.77273 1.016,-5.77273 h 0.69273 l -1.016,5.77273 z M 15.14252,2.30907 15.54789,-2e-5 15.91734,3.46362 15.51197,5.77271 Z M 15.5171,5.77271 16.5331,-2e-5 h 0.69273 l -1.016,5.77273 z M 10.79116,-2e-5 h 1.29823 c 0.10775,0 0.20012,0.0103 0.27709,0.0359 0.077,0.0257 0.14367,0.0564 0.20012,0.0924 0.0564,0.041 0.0975,0.0821 0.13341,0.13342 0.0308,0.0513 0.0565,0.0975 0.077,0.1488 0.041,0.11803 0.0513,0.25657 0.0359,0.41051 l -0.28735,1.61636 c -0.0205,0.10776 -0.0616,0.20012 -0.13342,0.28223 -0.0718,0.0821 -0.15394,0.15394 -0.2463,0.21551 0.0718,0.0616 0.12828,0.13341 0.16933,0.21552 0.0411,0.0821 0.0513,0.17446 0.0359,0.28222 l -0.4105,2.33988 h -0.69273 l 0.4105,-2.33988 c 0.005,-0.0308 0,-0.0616 -0.005,-0.0872 -0.0103,-0.0205 -0.0205,-0.0411 -0.0411,-0.0616 -0.0205,-0.0205 -0.0513,-0.0257 -0.0924,-0.0257 h -0.6055 L 10.47305,5.76757 H 9.78032 Z m 0.23091,2.61184 h 0.46182 0.14368 c 0.0411,0 0.077,-0.0103 0.10262,-0.0257 0.0257,-0.0205 0.0462,-0.0359 0.0616,-0.0616 0.0154,-0.0257 0.0308,-0.0565 0.0359,-0.0872 l 0.28735,-1.61636 c 0.005,-0.0308 0,-0.0616 -0.005,-0.0872 -0.0103,-0.0205 -0.0205,-0.0411 -0.0411,-0.0616 -0.0205,-0.0205 -0.0513,-0.0256 -0.0924,-0.0256 h -0.61063 z m -2.02174,0 h 0.8672 L 9.75464,3.26349 H 8.88745 L 8.55904,5.12616 H 9.42623 L 9.31334,5.77784 H 7.75343 l 1.016,-5.77273 h 1.55991 L 10.21646,0.65679 H 9.34926 Z M 6.14219,-2e-5 h 1.29823 c 0.10775,0 0.20012,0.0103 0.27709,0.0359 0.077,0.0257 0.14367,0.0564 0.20012,0.0924 0.0564,0.041 0.0975,0.0821 0.13341,0.13342 0.0308,0.0513 0.0564,0.0975 0.077,0.1488 0.041,0.11803 0.0513,0.25657 0.0359,0.41051 L 7.87659,2.43737 C 7.84069,2.59131 7.77909,2.72986 7.69699,2.84788 7.66109,2.89918 7.61999,2.9505 7.56871,2.99669 7.51741,3.04799 7.46095,3.08909 7.38911,3.1301 7.32241,3.1711 7.24544,3.2019 7.1582,3.2225 7.071,3.2482 6.97348,3.2584 6.86572,3.2584 H 6.26022 L 6.37311,2.60673 h 0.6055 c 0.041,0 0.077,-0.0103 0.10262,-0.0257 0.0257,-0.0205 0.0462,-0.0359 0.0616,-0.0616 0.0154,-0.0256 0.0308,-0.0564 0.0359,-0.0872 L 7.46608,0.81587 c 0.005,-0.0308 0,-0.0616 -0.005,-0.0872 -0.0103,-0.0205 -0.0205,-0.0411 -0.041,-0.0616 -0.0205,-0.0205 -0.0513,-0.0257 -0.0924,-0.0257 H 6.72218 L 5.81907,5.77269 H 5.12634 Z m -2.62723,0 H 4.20769 L 3.33537,4.9517 c -0.005,0.0308 0,0.0616 0.005,0.0872 0.0103,0.0205 0.0205,0.0411 0.041,0.0616 0.0205,0.0205 0.0513,0.0257 0.0924,0.0257 H 3.9048 c 0.041,0 0.077,-0.0103 0.10263,-0.0257 C 4.03303,5.08 4.05363,5.0646 4.06903,5.0389 4.08443,5.0132 4.09983,4.9825 4.10493,4.9517 L 4.97726,-2e-5 H 5.66998 L 4.79766,4.9517 c -0.0359,0.15394 -0.0975,0.29248 -0.1796,0.4105 -0.0359,0.0513 -0.077,0.10263 -0.12828,0.14881 -0.0513,0.0513 -0.10776,0.0924 -0.1796,0.13341 -0.0667,0.0411 -0.14367,0.0718 -0.2309,0.0924 -0.0872,0.0256 -0.18473,0.0359 -0.29249,0.0359 H 3.35576 C 3.248,5.77272 3.15564,5.76242 3.07867,5.73682 3.00167,5.71112 2.93499,5.68032 2.87855,5.64442 2.82215,5.60852 2.78105,5.56232 2.74513,5.51101 2.70923,5.45971 2.68873,5.41351 2.66813,5.3622 2.62713,5.24418 2.61683,5.10564 2.63223,4.9517 Z m -2.18594,1.4419 c -0.0154,0.0924 -0.0103,0.18986 0.0103,0.29248 0.0257,0.10263 0.0564,0.19499 0.0872,0.27709 0.041,0.0975 0.0924,0.19499 0.1488,0.29249 l 0.6055,1.15968 c 0.0359,0.0718 0.0667,0.1488 0.0872,0.23091 0.0205,0.0718 0.0359,0.15907 0.0462,0.25656 0.0103,0.0975 0.005,0.20525 -0.0154,0.32327 L 2.1808,4.9517 C 2.1449,5.10564 2.0833,5.24418 2.0012,5.3622 1.9653,5.4135 1.9242,5.46483 1.87292,5.51101 c -0.0513,0.0513 -0.10776,0.0924 -0.1796,0.13341 -0.0667,0.0411 -0.14367,0.0718 -0.2309,0.0924 -0.0872,0.0256 -0.18473,0.0359 -0.29249,0.0359 H 0.7389 c -0.10776,0 -0.20012,-0.0103 -0.27709,-0.0359 C 0.38481,5.71112 0.31813,5.68032 0.26169,5.64442 0.20529,5.60852 0.16419,5.56232 0.12827,5.51101 0.09237,5.45971 0.07187,5.41351 0.05127,5.3622 0.01027,5.24418 -3e-5,5.10564 0.01537,4.9517 L 0.23601,3.69453 H 0.92874 L 0.70809,4.9517 c -0.005,0.0308 0,0.0616 0.005,0.0872 0.0103,0.0205 0.0205,0.0411 0.041,0.0616 0.0205,0.0205 0.0513,0.0257 0.0924,0.0257 h 0.43103 c 0.041,0 0.077,-0.0103 0.10262,-0.0257 C 1.40584,5.08 1.42634,5.0646 1.44174,5.0389 1.45714,5.0132 1.47254,4.9825 1.47764,4.9517 L 1.5854,4.33081 C 1.6008,4.23841 1.5957,4.14095 1.5751,4.03832 1.5495,3.9357 1.5187,3.84333 1.4879,3.76123 1.4469,3.66373 1.3955,3.56624 1.33909,3.46875 L 0.74386,2.30907 C 0.70796,2.23727 0.67716,2.16026 0.65666,2.07816 0.63616,2.00636 0.62076,1.91909 0.61046,1.8216 0.60016,1.7241 0.60546,1.61634 0.62586,1.49832 L 0.74388,0.82099 c 0.0359,-0.15394 0.0975,-0.29248 0.1796,-0.41051 0.0359,-0.0513 0.077,-0.10262 0.12828,-0.1488 0.0513,-0.0513 0.10776,-0.0924 0.1796,-0.13342 0.0667,-0.0359 0.14367,-0.0718 0.23091,-0.0924 C 1.54947,0.01016 1.64699,-4e-5 1.75475,-4e-5 h 0.43103 c 0.10776,0 0.20012,0.0103 0.27709,0.0359 0.077,0.0257 0.14368,0.0564 0.20012,0.0924 0.0564,0.041 0.0975,0.0821 0.13342,0.13342 0.0308,0.0513 0.0564,0.0975 0.077,0.1488 0.041,0.11803 0.0513,0.25657 0.0359,0.41051 L 2.68866,2.07816 H 1.99593 L 2.21658,0.82099 c 0.005,-0.0308 0,-0.0616 -0.005,-0.0872 -0.0103,-0.0205 -0.0205,-0.0411 -0.041,-0.0616 -0.0205,-0.0205 -0.0513,-0.0256 -0.0924,-0.0256 H 1.64715 c -0.041,0 -0.077,0.0103 -0.10262,0.0256 -0.0257,0.0205 -0.0462,0.0359 -0.0616,0.0616 -0.0154,0.0256 -0.0308,0.0564 -0.0359,0.0872 z M 31.22405,0.82099 c 0.0359,-0.15394 0.0975,-0.29248 0.1796,-0.41051 0.0359,-0.0513 0.077,-0.10262 0.12828,-0.1488 0.0513,-0.0513 0.10776,-0.0924 0.1796,-0.13342 0.0667,-0.0359 0.14367,-0.0718 0.23091,-0.0924 0.0872,-0.0257 0.18472,-0.0359 0.29248,-0.0359 h 0.43103 c 0.10776,0 0.20012,0.0103 0.27709,0.0359 0.077,0.0257 0.14368,0.0564 0.20012,0.0924 0.0565,0.041 0.0975,0.0821 0.13342,0.13342 0.0308,0.0513 0.0564,0.0975 0.077,0.1488 0.041,0.11803 0.0513,0.25657 0.0359,0.41051 L 32.66083,4.9517 c -0.0359,0.15394 -0.0975,0.29248 -0.1796,0.4105 -0.0359,0.0513 -0.077,0.10263 -0.12828,0.14881 -0.0513,0.0513 -0.10776,0.0924 -0.1796,0.13341 -0.0667,0.0411 -0.14367,0.0718 -0.2309,0.0924 -0.0872,0.0256 -0.18473,0.0359 -0.29249,0.0359 h -0.43103 c -0.10776,0 -0.20012,-0.0103 -0.27709,-0.0359 -0.077,-0.0257 -0.14368,-0.0565 -0.20012,-0.0924 C 30.68522,5.60852 30.64422,5.56232 30.6083,5.51101 30.5724,5.45971 30.5519,5.41351 30.5313,5.3622 30.4903,5.24418 30.48,5.10564 30.4954,4.9517 Z m -0.0359,4.13071 c -0.005,0.0308 0,0.0616 0.005,0.0872 0.0103,0.0205 0.0205,0.0411 0.041,0.0616 0.0205,0.0205 0.0513,0.0257 0.0924,0.0257 h 0.43103 c 0.041,0 0.077,-0.0103 0.10262,-0.0257 0.0257,-0.0205 0.0462,-0.0359 0.0616,-0.0616 0.0154,-0.0257 0.0308,-0.0564 0.0359,-0.0872 l 0.72865,-4.12558 c 0.005,-0.0308 0,-0.0616 -0.005,-0.0872 -0.0103,-0.0205 -0.0205,-0.041 -0.0411,-0.0616 -0.0205,-0.0205 -0.0513,-0.0256 -0.0924,-0.0256 h -0.43103 c -0.041,0 -0.077,0.0103 -0.10263,0.0256 -0.0257,0.0205 -0.0462,0.0359 -0.0616,0.0616 -0.0154,0.0257 -0.0308,0.0564 -0.0359,0.0872 z M 28.68407,-2e-5 h 1.3598 c 0.10776,0 0.20012,0.0103 0.27709,0.0359 0.077,0.0257 0.14368,0.0564 0.20012,0.0924 0.0564,0.041 0.0975,0.0821 0.13342,0.13342 0.0308,0.0513 0.0564,0.0975 0.077,0.1488 0.0411,0.11803 0.0513,0.25657 0.0359,0.41051 l -0.73377,4.13071 c -0.0359,0.15394 -0.0975,0.29248 -0.1796,0.4105 -0.0359,0.0513 -0.077,0.10263 -0.12828,0.14881 -0.0513,0.0513 -0.10776,0.0924 -0.1796,0.13341 -0.0667,0.0411 -0.14367,0.0718 -0.23091,0.0924 -0.0872,0.0256 -0.18472,0.0359 -0.29248,0.0359 h -1.35467 z m -0.21038,5.12105 h 0.66194 c 0.041,0 0.077,-0.0103 0.10262,-0.0257 0.0257,-0.0205 0.0462,-0.0359 0.0616,-0.0616 0.0154,-0.0257 0.0308,-0.0565 0.0359,-0.0872 l 0.72864,-4.12558 c 0.005,-0.0308 0,-0.0616 -0.005,-0.0872 -0.0103,-0.0205 -0.0205,-0.0411 -0.041,-0.0616 -0.0205,-0.0205 -0.0513,-0.0256 -0.0924,-0.0256 h -0.66194 z m -3.63297,0.65168 1.016,-5.77273 h 0.69273 l -1.016,5.77273 z M 26.14407,2.30907 26.54945,-2e-5 26.9189,3.46362 26.51353,5.77271 Z m 0.36946,3.46364 1.016,-5.77273 h 0.69272 l -1.016,5.77273 z M 24.06589,2.61182 h 0.86719 L 24.82019,3.26349 H 23.953 l -0.3284,1.86267 h 0.86719 L 24.3789,5.77784 H 22.81898 L 23.83498,-2e-5 H 25.3949 L 25.28201,0.65166 H 24.41482 Z M 21.66957,-2e-5 h 1.70359 L 23.26027,0.65166 H 22.79846 L 21.89534,5.77271 H 21.11538 L 22.0185,0.65166 h -0.46182 z m -3.84336,5.77273 1.016,-5.77273 h 0.69273 l -1.016,5.77273 z M 19.12957,2.30907 19.53494,-2e-5 19.90439,3.46362 19.49902,5.77271 Z m 0.36945,3.46364 1.016,-5.77273 h 0.69273 l -1.016,5.77273 z M 17.68767,-2e-5 h 0.69272 l -1.016,5.77273 h -0.69272 z m -3.84849,5.77273 1.016,-5.77273 h 0.69273 l -1.016,5.77273 z M 15.14254,2.30907 15.54791,-2e-5 15.91736,3.46362 15.51199,5.77271 Z m 0.37458,3.46364 1.016,-5.77273 h 0.69273 l -1.016,5.77273 z M 10.79118,-2e-5 h 1.29823 c 0.10775,0 0.20012,0.0103 0.27709,0.0359 0.077,0.0257 0.14367,0.0564 0.20012,0.0924 0.0564,0.041 0.0975,0.0821 0.13341,0.13342 0.0308,0.0513 0.0565,0.0975 0.077,0.1488 0.041,0.11803 0.0513,0.25657 0.0359,0.41051 l -0.28735,1.61636 c -0.0205,0.10776 -0.0616,0.20012 -0.13342,0.28223 -0.0718,0.0821 -0.15394,0.15394 -0.2463,0.21551 0.0718,0.0616 0.12828,0.13341 0.16933,0.21552 0.0411,0.0821 0.0513,0.17446 0.0359,0.28222 l -0.4105,2.33988 h -0.69273 l 0.4105,-2.33988 c 0.005,-0.0308 0,-0.0616 -0.005,-0.0872 -0.0103,-0.0205 -0.0205,-0.0411 -0.0411,-0.0616 -0.0205,-0.0205 -0.0513,-0.0257 -0.0924,-0.0257 h -0.6055 L 10.47307,5.76757 H 9.78034 Z m 0.23091,2.61184 h 0.46182 0.14368 c 0.0411,0 0.077,-0.0103 0.10262,-0.0257 0.0257,-0.0205 0.0462,-0.0359 0.0616,-0.0616 0.0154,-0.0257 0.0308,-0.0565 0.0359,-0.0872 l 0.28735,-1.61636 c 0.005,-0.0308 0,-0.0616 -0.005,-0.0872 -0.0103,-0.0205 -0.0205,-0.0411 -0.0411,-0.0616 -0.0205,-0.0205 -0.0513,-0.0256 -0.0924,-0.0256 h -0.61063 z m -2.02174,0 h 0.8672 L 9.75466,3.26349 H 8.88747 L 8.55906,5.12616 H 9.42625 L 9.31336,5.77784 H 7.75345 l 1.016,-5.77273 h 1.55991 L 10.21648,0.65679 H 9.34928 Z M 6.14221,-2e-5 h 1.29823 c 0.10775,0 0.20012,0.0103 0.27709,0.0359 0.077,0.0257 0.14367,0.0564 0.20012,0.0924 0.0564,0.041 0.0975,0.0821 0.13341,0.13342 0.0308,0.0513 0.0564,0.0975 0.077,0.1488 0.041,0.11803 0.0513,0.25657 0.0359,0.41051 L 7.87661,2.43737 C 7.84071,2.59131 7.77911,2.72986 7.69701,2.84788 7.66111,2.89918 7.62001,2.9505 7.56873,2.99669 7.51743,3.04799 7.46097,3.08909 7.38913,3.1301 7.32243,3.1711 7.24546,3.2019 7.15822,3.2225 7.07102,3.2482 6.9735,3.2584 6.86574,3.2584 H 6.26024 L 6.37313,2.60673 h 0.6055 c 0.041,0 0.077,-0.0103 0.10262,-0.0257 0.0257,-0.0205 0.0462,-0.0359 0.0616,-0.0616 0.0154,-0.0256 0.0308,-0.0564 0.0359,-0.0872 L 7.4661,0.81587 c 0.005,-0.0308 0,-0.0616 -0.005,-0.0872 C 7.4508,0.70817 7.4406,0.68757 7.4201,0.66707 7.3996,0.64657 7.3688,0.64137 7.3277,0.64137 H 6.7222 L 5.81909,5.77269 H 5.12636 Z m -2.62723,0 H 4.20771 L 3.33539,4.9517 c -0.005,0.0308 0,0.0616 0.005,0.0872 0.0103,0.0205 0.0205,0.0411 0.041,0.0616 0.0205,0.0205 0.0513,0.0257 0.0924,0.0257 h 0.43103 c 0.041,0 0.077,-0.0103 0.10263,-0.0257 C 4.03305,5.08 4.05365,5.0646 4.06905,5.0389 4.08445,5.0132 4.09985,4.9825 4.10495,4.9517 L 4.97728,-2e-5 H 5.67 L 4.79768,4.9517 C 4.76178,5.10564 4.70018,5.24418 4.61808,5.3622 4.58218,5.4135 4.54108,5.46483 4.4898,5.51101 4.4385,5.56231 4.38204,5.60341 4.3102,5.64442 4.2435,5.68552 4.16653,5.71622 4.0793,5.73682 3.9921,5.76242 3.89457,5.77272 3.78681,5.77272 H 3.35578 c -0.10776,0 -0.20012,-0.0103 -0.27709,-0.0359 C 3.00169,5.71112 2.93501,5.68032 2.87857,5.64442 2.82217,5.60852 2.78107,5.56232 2.74515,5.51101 2.70925,5.45971 2.68875,5.41351 2.66815,5.3622 2.62715,5.24418 2.61685,5.10564 2.63225,4.9517 Z m -2.18594,1.4419 c -0.0154,0.0924 -0.0103,0.18986 0.0103,0.29248 0.0257,0.10263 0.0564,0.19499 0.0872,0.27709 0.041,0.0975 0.0924,0.19499 0.1488,0.29249 l 0.6055,1.15968 c 0.0359,0.0718 0.0667,0.1488 0.0872,0.23091 0.0205,0.0718 0.0359,0.15907 0.0462,0.25656 0.0103,0.0975 0.005,0.20525 -0.0154,0.32327 L 2.18082,4.9517 c -0.0359,0.15394 -0.0975,0.29248 -0.1796,0.4105 -0.0359,0.0513 -0.077,0.10263 -0.12828,0.14881 -0.0513,0.0513 -0.10776,0.0924 -0.1796,0.13341 -0.0667,0.0411 -0.14367,0.0718 -0.2309,0.0924 -0.0872,0.0256 -0.18473,0.0359 -0.29249,0.0359 H 0.73892 C 0.63116,5.77272 0.5388,5.76242 0.46183,5.73682 0.38483,5.71112 0.31815,5.68032 0.26171,5.64442 0.20531,5.60852 0.16421,5.56232 0.12829,5.51101 0.09239,5.45971 0.07189,5.41351 0.05129,5.3622 0.01029,5.24418 -1e-5,5.10564 0.01539,4.9517 L 0.23603,3.69453 H 0.92876 L 0.70811,4.9517 c -0.005,0.0308 0,0.0616 0.005,0.0872 0.0103,0.0205 0.0205,0.0411 0.041,0.0616 0.0205,0.0205 0.0513,0.0257 0.0924,0.0257 h 0.43103 c 0.041,0 0.077,-0.0103 0.10262,-0.0257 C 1.40586,5.08 1.42636,5.0646 1.44176,5.0389 1.45716,5.0132 1.47256,4.9825 1.47766,4.9517 L 1.58542,4.33081 C 1.60082,4.23841 1.59572,4.14095 1.57512,4.03832 1.54952,3.9357 1.51872,3.84333 1.48792,3.76123 1.44692,3.66373 1.39552,3.56624 1.33911,3.46875 L 0.74388,2.30907 C 0.70798,2.23727 0.67718,2.16026 0.65668,2.07816 0.63618,2.00636 0.62078,1.91909 0.61048,1.8216 0.60018,1.7241 0.60548,1.61634 0.62588,1.49832 L 0.7439,0.82099 C 0.7798,0.66705 0.8414,0.52851 0.9235,0.41048 0.9594,0.35918 1.0005,0.30786 1.05178,0.26168 1.10308,0.21038 1.15954,0.16928 1.23138,0.12826 1.29808,0.09236 1.37505,0.05646 1.46229,0.03586 1.54949,0.01016 1.64701,-4e-5 1.75477,-4e-5 H 2.1858 c 0.10776,0 0.20012,0.0103 0.27709,0.0359 0.077,0.0257 0.14368,0.0564 0.20012,0.0924 0.0564,0.041 0.0975,0.0821 0.13342,0.13342 0.0308,0.0513 0.0564,0.0975 0.077,0.1488 0.041,0.11803 0.0513,0.25657 0.0359,0.41051 L 2.68868,2.07816 H 1.99595 L 2.2166,0.82099 c 0.005,-0.0308 0,-0.0616 -0.005,-0.0872 C 2.2013,0.71329 2.1911,0.69269 2.1706,0.67219 2.1501,0.65169 2.1193,0.64659 2.0782,0.64659 H 1.64717 c -0.041,0 -0.077,0.0103 -0.10262,0.0256 -0.0257,0.0205 -0.0462,0.0359 -0.0616,0.0616 -0.0154,0.0256 -0.0308,0.0564 -0.0359,0.0872 z"
     style="fill:#fc0c18;stroke-width:0.264583"
     inkscape:label="logo" /></svg>
