<?xml version="1.0" encoding="UTF-8" standalone="no"?>
<svg
     version="1.0"
     width="640"
     height="22"
     id="svgps3logo"
     xmlns="http://www.w3.org/2000/svg"
     xmlns:svg="http://www.w3.org/2000/svg">
    <path
          id="ps3logo"
          fill="#000000"
          d="M 36.089544,8.2814333 C 32.590818,8.4960693 28.260989,8.6212785 23.211009,8.6212785 H 12.806266 c 0.160787,-0.447169 1.039571,-2.8082291 1.118116,-3.0228768 3.792907,-0.3040863 7.771935,-0.4471689 11.82264,-0.4471689 4.004809,0 7.812292,0.1430826 11.345591,0.4292836 -0.151631,0.4113864 -0.922657,2.5041251 -1.003009,2.7009051 z M 46.147341,1.6273541 C 43.954901,1.2517264 41.576158,0.92974896 39.071105,0.69723359 35.369573,0.3395149 31.459994,0.16063787 27.447837,0.16063787 c -3.911687,0 -8.495942,0.30406855 -11.526894,0.50083683 L 15.436774,0.6972099 C 12.997676,0.85820168 8.3021102,1.2695882 5.4518588,1.6451981 L 3.7454425,6.2599471 C 4.5676303,6.2062852 5.5907574,6.1526292 5.8812035,6.1526292 5.6784092,6.6892426 0,22 0,22 h 7.8399985 c 0,0 3.1241935,-8.424924 3.2192415,-8.674953 h 10.499913 c 16.267876,0 20.766117,-1.377282 20.954046,-1.430945 l 0.09134,-0.03579 3.78375,-10.1774868 -0.241168,-0.053662 M 437.00402,21.838442 h 7.8382 L 452.88099,0.17789225 H 445.0428 L 437.00402,21.838442 M 421.96371,0.69800019 c -3.70888,-0.35771869 -7.61894,-0.53659572 -11.63833,-0.53659572 -4.01944,0 -8.05743,0.17887703 -12.00333,0.53659572 -2.6857,0.23253306 -5.29839,0.53660161 -7.76472,0.93012041 l -0.12788,0.017868 -1.80876,4.8830587 0.34712,-0.053662 c 2.39338,-0.3577247 4.98776,-0.6618109 7.7099,-0.8764586 2.52131,-0.1967624 5.18875,-0.3219716 7.94781,-0.393513 -0.21924,0.5365959 -6.17515,16.6346093 -6.17515,16.6346093 h 7.8382 c 0,0 6.06552,-16.3662996 6.17514,-16.6346093 2.74051,0.053662 5.37145,0.1967506 7.78338,0.393513 2.55782,0.2146418 4.93295,0.5187103 7.07082,0.8764586 l 0.16442,0.017868 1.79051,-4.8115291 -0.23752,-0.053662 C 426.84288,1.252434 424.46774,0.93045659 421.9645,0.69794121 M 639.76219,1.6238159 c -2.17413,-0.3756277 -4.56751,-0.69760509 -7.07021,-0.93012047 -3.69063,-0.35771867 -7.61894,-0.5365957 -11.61966,-0.5365957 -4.01944,0 -8.05683,0.17887703 -12.02201,0.5365957 -2.6675,0.23253307 -5.28013,0.53660157 -7.7647,0.93012047 l -0.10963,0.017868 -1.827,4.8830586 0.36543,-0.053662 c 2.37513,-0.3577245 4.96945,-0.6618107 7.69183,-0.8764584 3.83669,-0.3040863 7.85626,-0.447169 11.9672,-0.447169 4.0012,0 7.80145,0.1430827 11.34559,0.4292836 -0.16444,0.4292777 -1.04144,2.8082291 -1.13281,3.0407444 h -23.60493 l -1.73563,4.7042069 h 23.60493 c -0.16444,0.447169 -1.04144,2.808228 -1.13275,3.022817 -3.81851,0.304074 -7.80145,0.447168 -11.82084,0.447168 -4.056,0 -7.98396,-0.143094 -11.61965,-0.465053 -2.55788,-0.214643 -4.93301,-0.500826 -7.05215,-0.858591 l -0.16443,-0.0358 -1.7905,4.847325 0.23756,0.03579 c 2.19237,0.375616 4.56751,0.697606 7.07021,0.930122 3.70888,0.339851 7.61894,0.518721 11.61965,0.518721 4.01944,0 8.05685,-0.17887 12.02201,-0.518721 2.66751,-0.232528 5.28014,-0.554488 7.76472,-0.930122 l 0.12786,-0.01787 L 640,1.6773741 639.76243,1.623712 M 560.07321,0.69800019 c -3.70882,-0.35771869 -7.61834,-0.53659572 -11.63833,-0.53659572 -3.89156,0 -7.83819,0.17887703 -11.67446,0.51872216 0.0548,-0.17887703 0.21925,-0.62601653 0.21925,-0.62601653 h -7.83759 l -8.03877,21.6605489 h 7.83759 c 0,0 5.88301,-15.883341 5.97438,-16.1156794 3.8002,-0.3040862 7.78339,-0.447169 11.82084,-0.447169 4.01944,0 7.81952,0.1430828 11.34559,0.4292836 -0.16444,0.5008192 -5.97433,16.1339608 -5.97433,16.1339608 h 7.8376 l 7.43583,-20.0330012 -0.23757,-0.053662 C 564.95087,1.2527645 562.57573,0.93078701 560.07242,0.69827163 M 201.79203,7.9040307 c -2.70401,0.1967624 -4.82333,0.3398453 -7.72857,0.4114042 0.1279,-0.4114042 0.60294,-1.8959762 0.60294,-1.8959762 h -7.8382 c 0,0 -0.51156,1.6097989 -0.58465,1.8602409 -2.4665,-0.071548 -5.51756,-0.1967565 -7.61894,-0.3756276 0.16444,-0.4650425 2.86845,-7.7450086 2.86845,-7.7450086 h -7.83819 l -4.33007,11.6623296 0.23751,0.03579 c 2.17413,0.375629 4.56757,0.697605 7.07081,0.947989 2.19244,0.19675 5.29839,0.339833 7.76472,0.429277 -0.16445,0.482934 -3.17901,8.6036 -3.17901,8.6036 h 7.83818 c 0,0 3.0877,-8.3176 3.17901,-8.549937 2.97807,-0.07154 5.70032,-0.232528 8.55076,-0.482928 2.704,-0.250419 4.80507,-0.572378 7.25332,-0.947989 l 0.12788,-0.01787 4.33007,-11.68002087 h -7.83819 c 0,0 -2.77707,7.49438967 -2.86844,7.74500867 M 261.48348,0.69799519 C 257.7929,0.3402765 253.88321,0.16139947 249.86382,0.16139947 c -4.01945,0 -8.05744,0.17887703 -12.02202,0.53659572 -2.66743,0.23253306 -5.28007,0.53660161 -7.7647,0.93012041 l -0.10962,0.017868 -4.33007,11.6800194 h 31.00462 c -0.16443,0.44717 -1.04144,2.80823 -1.1145,3.022818 -3.83676,0.304075 -7.80146,0.44717 -11.83891,0.44717 -4.05601,0 -7.96589,-0.143095 -11.60158,-0.465055 -2.55782,-0.214641 -4.93295,-0.500825 -7.07082,-0.858591 l -0.16442,-0.03579 -1.79051,4.847323 0.23752,0.0358 c 2.19244,0.375615 4.58581,0.697606 7.07082,0.93012 3.70881,0.339851 7.61893,0.518722 11.61965,0.518722 4.01944,0 8.05743,-0.178871 12.02201,-0.518722 2.66745,-0.232526 5.28007,-0.554487 7.76471,-0.93012 l 0.12789,-0.01787 4.33007,-11.6800204 h -31.02269 c 0.18269,-0.4471689 1.05969,-2.808229 1.13276,-3.0228768 3.78194,-0.3040861 7.7647,-0.447169 11.82083,-0.447169 4.11082,0 8.00263,0.1430829 11.61965,0.447169 2.55782,0.2146419 4.93295,0.5187104 7.05214,0.8764586 l 0.1827,0.017868 1.79051,-4.8115291 -0.23752,-0.053662 c -2.21069,-0.3756326 -4.58581,-0.69761 -7.08888,-0.93012537 m 54.02348,7.666e-5 c -3.69057,-0.35771869 -7.60027,-0.53659572 -11.61965,-0.53659572 -4.01945,0 -8.05745,0.17887703 -12.02202,0.53659572 -2.66744,0.23253306 -5.28007,0.53660161 -7.7647,0.93012041 l -0.10962,0.017868 -1.80875,4.8830587 0.34712,-0.053662 c 2.37514,-0.3577247 4.96952,-0.6618109 7.7099,-0.8764586 2.503,-0.1967624 5.18875,-0.3219716 7.92914,-0.393513 -0.20097,0.5365959 -6.17514,16.6346089 -6.17514,16.6346089 h 7.85627 c 0,0 6.06551,-16.3662992 6.15707,-16.6346089 2.75881,0.053662 5.3897,0.1967506 7.80145,0.393513 2.55781,0.2146418 4.93295,0.5187103 7.05214,0.8764586 l 0.1827,0.017868 1.7905,-4.8115291 -0.25578,-0.053662 C 320.40343,1.252434 318.00999,0.93045659 315.50675,0.69794121 M 89.564887,16.330723 c -3.86597,0.32196 -7.891197,0.465054 -11.957564,0.465054 -3.973788,0 -7.781572,-0.143094 -11.343784,-0.447168 C 66.44989,15.865681 72.330865,0 72.330865,0 h -7.841806 l -7.516544,20.283619 0.239337,0.0358 c 2.192442,0.375616 4.574859,0.697606 7.076238,0.93012 3.705207,0.339851 7.618942,0.518722 11.623267,0.518722 4.012157,0 8.055032,-0.178871 12.012377,-0.518722 2.665635,-0.232527 5.276458,-0.554486 7.770127,-0.93012 l 0.116931,-0.01787 1.80508,-4.883059 -0.339826,0.05367 c -2.391573,0.357736 -4.985953,0.643943 -7.711701,0.85859 M 135.1677,5.1501713 c 3.71617,0 6.79676,0.1251974 10.51798,0.4292836 -0.14616,0.4113865 -1.03228,2.808229 -1.1163,3.0407445 h -21.52627 c 0.16262,-0.447169 1.04505,-2.8082291 1.12179,-3.0228769 4.03589,-0.3219715 7.23706,-0.4471689 11.00225,-0.4471689 z m 12.50991,-4.45382225 c -3.35441,-0.32195978 -6.47149,-0.53659571 -10.81433,-0.53659571 -4.33736,0 -7.6075,0.21463593 -11.19079,0.53659571 -2.68208,0.23253306 -5.29104,0.53660165 -7.76832,0.93012045 l -0.1151,0.017868 -7.40331,19.9616485 h 7.84 c 0,0 2.97987,-8.03101 3.07305,-8.281629 h 21.52386 c -0.18818,0.50082 -3.07486,8.281629 -3.07486,8.281629 H 147.586 L 154.98569,1.6803091 154.74817,1.626647 C 152.55573,1.2510187 150.18061,0.92904132 147.67736,0.69652595 M 496.64729,16.348414 c -3.8367,0.304074 -7.81952,0.447169 -11.83891,0.447169 -3.96464,0 -7.78338,-0.143095 -11.32752,-0.447169 0.18269,-0.465054 3.89158,-10.5171491 3.98289,-10.7500772 3.80025,-0.3040862 7.78338,-0.4471689 11.82083,-0.4471689 4.00119,0 7.81952,0.1430827 11.34559,0.4292836 -0.16444,0.4829279 -3.89157,10.5354295 -3.98294,10.7677675 z m 6.24863,3.970864 0.12787,-0.01787 6.90638,-18.6201013 -0.2375,-0.053662 c -2.19244,-0.3756275 -4.58582,-0.69760504 -7.08889,-0.93012042 -3.69063,-0.35771867 -7.60026,-0.53659571 -11.61965,-0.53659571 -4.00119,0 -8.05684,0.17887704 -12.00334,0.53659571 -2.68569,0.23253307 -5.29832,0.53660152 -7.76471,0.93012042 l -0.12787,0.017868 -6.90639,18.6377913 0.23752,0.03579 c 2.21069,0.375617 4.5858,0.697606 7.07081,0.930121 3.70881,0.339851 7.61834,0.518722 11.63832,0.518722 4.00119,0 8.05744,-0.178871 12.00334,-0.518722 2.66751,-0.232527 5.28013,-0.554487 7.76471,-0.930121 M 355.3695,5.1501713 c 3.70888,0 6.79676,0.1251974 10.5234,0.4292836 -0.14616,0.4113865 -1.04137,2.808229 -1.1145,3.0407445 h -21.54072 c 0.16444,-0.447169 1.04144,-2.8082291 1.13276,-3.0228769 4.03769,-0.3219715 7.23525,-0.4471689 10.99864,-0.4471689 z m 12.51533,-4.45382225 c -3.36175,-0.32195978 -6.46788,-0.53659571 -10.81614,-0.53659571 -4.34832,0 -7.61894,0.21463593 -11.19983,0.53659571 -2.66744,0.23253306 -5.28007,0.53660165 -7.7647,0.93012045 l -0.10962,0.017868 -7.41776,19.9616485 h 7.85626 c 0,0 2.97806,-8.03101 3.06938,-8.281629 h 21.52205 c -0.1827,0.50082 -3.06938,8.281629 -3.06938,8.281629 h 7.83819 l 7.39969,-19.9256773 -0.23752,-0.053662 c -2.19243,-0.3756276 -4.58581,-0.69760499 -7.0708,-0.93012036" />
</svg>
