<?xml version="1.0" encoding="UTF-8" standalone="no"?>
<svg xmlns="http://www.w3.org/2000/svg" xmlns:svg="http://www.w3.org/2000/svg" width="128" height="128" viewBox="0 0 128 128" id="svg32xicon" version="1.1">
  <g id="32xicon">
    <path id="32xicon01" style="fill:#000000;stroke:none" d="m 12.900751,59.141299 v 10.475398 h -1.06852 V 59.141299 Z M 5.1241367,68.313117 0,77.452987 0.93229071,77.974481 6.0564278,68.834612 Z M 3.2396854,49.941842 7.342203,59.582464 6.3588314,59.999984 2.256314,50.359361 Z m 8.5437256,17.779893 v -6.734701 h 9.936146 q 2.306599,0 3.859124,-0.221536 1.552523,-0.221541 2.484037,-0.620305 0.975868,-0.398764 1.375087,-0.974765 0.399223,-0.575994 0.399223,-1.329219 0,-1.417833 -1.951742,-2.171058 -1.907387,-0.797536 -6.609309,-0.797536 -2.350966,0 -4.613211,0.354462 -2.262245,0.35446 -4.258349,0.930453 -1.951743,0.53169 -3.5486213,1.240605 -1.5968793,0.66461 -2.6614642,1.284915 L 3.0449282,51.150798 q 0.975869,-0.487379 2.8832559,-1.063374 1.9517426,-0.620305 4.4357749,-1.107684 2.528398,-0.531691 5.456009,-0.88615 2.927616,-0.354459 5.899589,-0.354459 3.193757,0 6.12137,0.53169 2.927615,0.531689 5.145505,1.683679 2.262245,1.107682 3.592978,2.835672 1.330736,1.683679 1.330736,4.031969 0,1.462144 -0.487939,2.658442 -0.443574,1.1963 -1.19766,2.126756 -0.754083,0.88612 -1.72995,1.506456 -0.931514,0.620292 -1.863028,0.930459 1.863028,0.177193 3.149404,0.93046 1.286372,0.753219 2.084814,1.816562 0.798441,1.019078 1.108945,2.215396 0.354863,1.151963 0.354863,2.126731 0,5.449825 -4.701929,7.931033 -4.657566,2.436899 -14.283202,2.436899 -3.149404,0 -6.121375,-0.443051 Q 11.295472,80.615187 8.8114401,79.950587 6.3274029,79.285985 4.4200206,78.532766 2.5126336,77.73519 1.4924045,77.070589 l 3.4599061,-7.266386 q 0.8427977,0.6646 2.8389004,1.46213 2.0404582,0.75322 4.480135,1.417821 2.439678,0.664645 4.834999,1.107697 2.439676,0.443097 4.080916,0.443097 1.77431,0 3.37119,-0.177238 1.641241,-0.177239 2.838902,-0.575982 1.242016,-0.398786 1.95174,-1.019078 0.754084,-0.620335 0.754084,-1.506486 0,-1.905183 -1.996103,-2.569782 -1.951743,-0.664647 -6.387517,-0.664647 z m 31.751136,-15.881552 4.102522,9.640622 -0.983378,0.417535 -4.102514,-9.640641 z m 36.3685,19.684397 V 82 h -1.06852 V 71.52458 Z M 78.78935,80.803908 H 42.46033 v -7.930987 q 2.439675,-2.569828 5.234216,-4.519368 2.439677,-1.683678 5.056785,-2.835685 2.661468,-1.151963 5.189863,-1.949494 2.572752,-0.841839 4.834998,-1.417864 2.306606,-0.620291 4.03656,-1.196287 1.729951,-0.575999 2.75018,-1.240609 1.02023,-0.664609 1.02023,-1.639368 0,-1.151994 -1.419449,-1.993833 -1.419447,-0.886145 -4.879357,-0.886145 -2.528393,0 -5.012426,0.44307 -2.484038,0.398769 -4.790643,1.107683 -2.262245,0.708921 -4.302705,1.639374 -1.996101,0.930455 -3.548621,1.949524 L 43.081339,53.11182 q 1.463803,-0.930456 3.504263,-1.816601 2.084817,-0.930454 4.790642,-1.639374 2.705823,-0.708919 6.077015,-1.151988 3.415551,-0.443075 7.540823,-0.443075 3.238117,0 5.899582,0.753224 2.705829,0.708919 4.613213,1.993829 1.907386,1.284914 2.927615,3.101519 1.064585,1.816598 1.064585,3.987663 0,2.614132 -0.754083,4.253493 -0.754082,1.639369 -2.395321,2.791377 -1.641239,1.152007 -4.258347,2.038112 -2.57275,0.841838 -6.210087,1.860917 -1.685595,0.487406 -3.681698,1.063387 -1.996097,0.575982 -3.770409,1.152008 -1.729955,0.575982 -3.060687,1.107653 -1.286378,0.531716 -1.552524,0.88615 H 78.78935 Z m 19.264871,0.639069 H 82.966457 v -0.998635 h 15.087764 z m 28.095409,0.321651 h -15.08776 v -0.998634 h 15.08776 z m -0.44276,-32.566455 h -15.08776 v -0.998675 h 15.08776 z m -26.807372,0 H 83.811734 v -0.998675 h 15.087764 z m 5.537602,8.990333 8.2949,-9.171622 h 11.00073 l -13.6622,14.311256 14.41629,17.412815 H 112.64329 L 104.08224,70.594572 95.121966,80.740955 H 84.032516 L 98.670588,64.701696 84.786597,49.016884 h 11.932248 z"/>
    <path id="32xicon00" style="fill:#aa0000;stroke:none" d="m 13.633769,65.982617 v -6.734716 h 9.936144 q 2.306605,0 3.85913,-0.221539 1.552518,-0.221535 2.484031,-0.6203 0.975874,-0.39877 1.375093,-0.974764 0.399219,-0.575995 0.399219,-1.32922 0,-1.417834 -1.951742,-2.171059 -1.907383,-0.797534 -6.609309,-0.797534 -2.350962,0 -4.613208,0.35446 -2.262245,0.354459 -4.258347,0.930454 -1.951743,0.531684 -3.548622,1.240604 -1.5968802,0.66461 -2.6614697,1.284914 L 4.8952852,49.411666 q 0.9758735,-0.48738 2.8832559,-1.063378 1.9517425,-0.6203 4.4357799,-1.10768 2.528393,-0.53169 5.456009,-0.886149 Q 20.59794,46 23.569913,46 q 3.193763,0 6.121374,0.531689 2.927612,0.53169 5.145502,1.683678 2.26225,1.107685 3.592982,2.835674 1.330732,1.683679 1.330732,4.031968 0,1.462143 -0.487933,2.658444 -0.44358,1.196293 -1.197662,2.126749 -0.754082,0.886149 -1.729951,1.506452 -0.931517,0.620301 -1.86303,0.930454 1.86303,0.177231 3.149402,0.930456 1.286377,0.753224 2.084818,1.816598 0.798438,1.01907 1.108944,2.215369 0.354861,1.15199 0.354861,2.126754 0,5.449807 -4.701923,7.931015 -4.657567,2.436905 -14.283208,2.436905 -3.149399,0 -6.121371,-0.443071 Q 13.145834,78.876059 10.661797,78.21145 8.1777644,77.546839 6.2703775,76.793615 4.3629951,75.996081 3.342766,75.331471 l 3.4599062,-7.266406 q 0.8427976,0.664611 2.8388956,1.46214 2.0404592,0.753225 4.4801392,1.417839 2.439678,0.66461 4.834999,1.107683 2.439678,0.44307 4.080913,0.44307 1.774315,0 3.371194,-0.177227 1.641234,-0.177231 2.838896,-0.575996 1.242021,-0.398765 1.951742,-1.01907 0.754083,-0.6203 0.754083,-1.506448 0,-1.905215 -1.996099,-2.569828 -1.951742,-0.664611 -6.387522,-0.664611 z M 5.0900507,48.202705 9.1925702,57.843327 8.2091952,58.260849 4.10668,48.62022 Z m 1.8844495,18.371302 -5.1241374,9.139826 0.9322932,0.521494 5.1241328,-9.139825 z m 7.7766168,-9.171826 v 10.47542 h -1.068526 v -10.47542 z m 67.002296,12.38329 V 80.260847 H 80.684889 V 69.785471 Z m -1.113697,9.279328 H 44.310691 v -7.931034 q 2.439676,-2.569828 5.234216,-4.519364 2.439683,-1.68368 5.056791,-2.835643 2.661464,-1.152007 5.189858,-1.949537 2.572752,-0.84184 4.834998,-1.417833 2.306604,-0.620301 4.036561,-1.196301 1.729951,-0.575994 2.750179,-1.240604 1.020229,-0.66461 1.020229,-1.639374 0,-1.151989 -1.419447,-1.993828 -1.419449,-0.88615 -4.879355,-0.88615 -2.528398,0 -5.012429,0.443075 -2.484039,0.398765 -4.790642,1.107684 -2.262246,0.70892 -4.302705,1.639373 -1.996097,0.930455 -3.548623,1.949524 l -3.548621,-7.2221 q 1.463808,-0.930454 3.504262,-1.816603 2.084819,-0.930455 4.790643,-1.63937 2.705823,-0.70892 6.077015,-1.151995 3.41555,-0.44307 7.540823,-0.44307 3.238117,0 5.899587,0.753225 2.705824,0.708915 4.613207,1.99383 1.907387,1.284914 2.927616,3.101518 1.064586,1.816599 1.064586,3.987656 0,2.614139 -0.754083,4.25351 -0.754082,1.639381 -2.395322,2.791344 -1.641234,1.152007 -4.258343,2.038157 -2.572754,0.841838 -6.210091,1.860918 -1.685595,0.487362 -3.681699,1.063388 -1.996096,0.57598 -3.770408,1.151963 -1.729955,0.57598 -3.060687,1.107697 -1.286378,0.531672 -1.552523,0.88615 h 24.973432 z m -35.254802,-28.963757 4.102514,9.640629 -0.983369,0.417514 -4.102516,-9.640622 z M 99.904582,79.703868 H 84.816823 v -0.99868 H 99.904582 Z M 128,80.025519 H 112.91223 V 79.026838 H 128 Z m -0.44277,-32.566483 h -15.08776 v -0.99867 h 15.08776 z m -26.80737,0 H 85.662101 v -0.99867 h 15.087759 z m 5.5376,8.990338 8.2949,-9.171626 h 11.00073 l -13.66218,14.311278 14.41626,17.412777 H 114.49364 L 105.9326,68.855419 96.972327,79.001803 H 85.882883 L 100.52095,62.96254 86.636964,47.277748 h 11.932241 z"/>
  </g>
</svg>
