<?xml version="1.0" encoding="UTF-8" standalone="no"?>
<svg xmlns="http://www.w3.org/2000/svg" xmlns:svg="http://www.w3.org/2000/svg" width="640" height="182" viewBox="0 0 640 182" id="svg32xlogo" version="1.1">
  <g id="32xlogo">
    <path id="logo01" style="font-style:normal;font-weight:normal;font-size:98.3948px;line-height:125%;font-family:sans-serif;letter-spacing:0px;word-spacing:0px;display:inline;fill:#000000;fill-opacity:1;stroke:#000000;stroke-width:2.13746;stroke-linecap:butt;stroke-linejoin:miter;stroke-opacity:1" d="M 65.697545,66.759827 V 119.08091 H 60.376457 V 66.759827 Z M 26.971044,112.56998 1.4535268,158.22049 6.0962105,160.82519 31.61373,115.17467 Z M 17.586729,20.81169 38.016719,68.963295 33.11966,71.048665 12.689669,22.897058 Z m 42.546618,88.80455 V 75.978634 h 49.480673 q 11.48657,0 19.21793,-1.106492 7.73137,-1.106515 12.37017,-3.098208 4.85969,-1.991694 6.84776,-4.868615 1.98807,-2.876896 1.98807,-6.638994 0,-7.081596 -9.71942,-10.843696 -9.49852,-3.98341 -32.91347,-3.98341 -11.7075,0 -22.97318,1.770405 -11.265681,1.770403 -21.206007,4.647302 -9.719417,2.655606 -17.671665,6.196393 -7.952246,3.319497 -13.253737,6.417705 L 16.616863,26.850016 q 4.859697,-2.434295 14.35823,-5.311192 9.719418,-3.098207 22.089571,-5.532504 12.59108,-2.655607 27.170195,-4.426011 14.579139,-1.7704058 29.379161,-1.7704058 15.90449,0 30.4836,2.6556068 14.57916,2.655607 25.62393,8.409401 11.26569,5.532503 17.89254,14.163216 6.62691,8.4094 6.62691,20.138296 0,7.302907 -2.42987,13.278013 -2.20892,5.975105 -5.96419,10.622405 -3.75522,4.425946 -8.61491,7.524312 -4.63882,3.09814 -9.27764,4.647323 9.27764,0.88502 15.68361,4.647321 6.40596,3.762077 10.38208,9.073113 3.97615,5.08996 5.5224,11.06515 1.7672,5.75364 1.7672,10.62229 0,27.22 -23.41498,39.61279 -23.19407,12.17148 -71.12846,12.17148 -15.683605,0 -30.483626,-2.21289 -14.57914,-2.21312 -26.94929,-5.53258 -12.370176,-3.31946 -21.868684,-7.08152 -9.498534,-3.98362 -14.5791379,-7.30307 L 26.115374,120.01745 q 4.19702,3.31945 14.137345,7.30282 10.16121,3.76209 22.310477,7.08155 12.149266,3.31968 24.077647,5.53256 12.149267,2.21313 20.322427,2.21313 8.83583,0 16.78807,-0.88526 8.17316,-0.88525 14.13734,-2.87683 6.18508,-1.99181 9.71943,-5.08994 3.75521,-3.09837 3.75521,-7.52439 0,-9.51572 -9.9403,-12.83517 -9.71944,-3.31968 -31.809,-3.31968 z M 218.24976,30.293258 238.67977,78.444866 233.7827,80.530371 213.35271,32.378606 Z m 181.11029,98.316882 v 52.32113 h -5.32109 v -52.32113 z m -5.54607,46.34706 H 212.90029 v -39.61257 q 12.14928,-12.83541 26.06572,-22.57267 12.14927,-8.40941 25.18211,-14.163292 13.25376,-5.753657 25.84482,-9.737047 12.81197,-4.204698 24.07765,-7.081753 11.48658,-3.098207 20.10153,-5.975104 8.61494,-2.876919 13.69556,-6.196418 5.08058,-3.319497 5.08058,-8.188087 0,-5.753816 -7.06867,-9.958517 -7.06865,-4.425988 -24.29855,-4.425988 -12.59106,0 -24.9612,2.212984 -12.37018,1.991716 -23.85676,5.532503 -11.26569,3.54081 -21.42689,8.188111 -9.94033,4.6473 -17.67167,9.737203 L 215.99285,36.64464 q 7.28956,-4.647303 17.45076,-9.073291 10.38211,-4.647302 23.85676,-8.188112 13.47465,-3.540809 30.26272,-5.753792 17.00899,-2.213005 37.5523,-2.213005 16.1254,0 29.37914,3.762097 13.47467,3.54081 22.97316,9.958494 9.49854,6.417707 14.57915,15.491019 5.3015,9.073289 5.3015,19.917007 0,13.056702 -3.75523,21.244811 -3.75523,8.188089 -11.92839,13.941971 -8.17314,5.753881 -21.20601,10.179671 -12.81193,4.20471 -30.92538,9.29465 -8.39406,2.43442 -18.33438,5.31126 -9.94029,2.87683 -18.77613,5.75387 -8.61496,2.87684 -15.24182,5.53235 -6.40598,2.65576 -7.73136,4.42603 h 124.36434 z m 95.93649,3.19193 h -75.13503 v -4.98783 h 75.13503 z m 139.91145,1.60654 h -75.13504 v -4.98785 h 75.13504 z M 627.45699,17.097315 h -75.13503 v -4.98804 h 75.13503 z m -133.49715,0 h -75.13505 v -4.98804 h 75.13505 z m 27.57652,44.903631 41.30751,-45.809096 h 54.78218 l -68.03593,71.479874 71.79115,86.971066 h -58.97919 l -42.63289,-50.67771 -44.62095,50.67771 H 419.92426 L 492.81991,94.532167 423.67948,16.19185 h 59.42101 z"/>
    <path id="logo00" style="font-style:normal;font-variant:normal;font-weight:900;font-stretch:normal;font-size:98.3948px;line-height:125%;font-family:PresicavW00-Heavy;-inkscape-font-specification:'PresicavW00-Heavy Heavy';letter-spacing:0px;word-spacing:0px;display:inline;fill:#aa0000;fill-opacity:1;stroke:#aa0000;stroke-width:2.24705px;stroke-linecap:butt;stroke-linejoin:miter;stroke-opacity:1" d="M 69.347973,100.93013 V 67.292365 h 49.480757 q 11.48661,0 19.21798,-1.106516 7.73134,-1.106493 12.37017,-3.09819 4.85973,-1.99172 6.84779,-4.868623 1.98804,-2.876899 1.98804,-6.639003 0,-7.081609 -9.7194,-10.843713 -9.49856,-3.983417 -32.91356,-3.983417 -11.70748,0 -22.973183,1.770407 -11.265698,1.770409 -21.206039,4.64731 -9.719434,2.655586 -17.671694,6.196403 -7.952259,3.319501 -13.253779,6.417715 L 25.831421,18.163669 q 4.859727,-2.4343 14.358251,-5.311223 Q 49.909106,9.7542537 62.279301,7.3199545 74.870382,4.6643432 89.449542,2.8939356 104.02869,1.1235281 118.82873,1.1235281 q 15.90455,0 30.48368,2.6556112 14.57914,2.6556116 25.62395,8.4094157 11.26572,5.53251 17.8926,14.163237 6.62688,8.409413 6.62688,20.138329 0,7.302919 -2.42984,13.278034 -2.209,5.975092 -5.96421,10.622402 -3.75524,4.426018 -8.61495,7.52423 -4.63884,3.098145 -9.27765,4.647332 9.27765,0.88525 15.68363,4.647332 6.40599,3.762083 10.38214,9.07335 3.97614,5.089729 5.5224,11.064919 1.76713,5.75391 1.76713,10.62233 0,27.22004 -23.41497,39.61285 -23.19411,12.1715 -71.12858,12.1715 -15.683612,0 -30.483658,-2.21288 -14.579162,-2.21314 -26.949355,-5.53259 -12.37017,-3.31946 -21.868722,-7.08154 -9.498524,-3.98342 -14.579136,-7.30285 l 17.229898,-36.29342 q 4.197026,3.31946 14.137345,7.30287 10.161227,3.76209 22.310535,7.08175 12.149287,3.31947 24.077689,5.53237 12.149274,2.21311 20.322434,2.21311 8.83587,0 16.78813,-0.88524 8.17314,-0.88525 14.13734,-2.87683 6.18512,-1.99182 9.71943,-5.08996 3.75522,-3.09815 3.75522,-7.52416 0,-9.51598 -9.94029,-12.83544 -9.71945,-3.31946 -31.80907,-3.31946 z M 26.801327,12.125309 47.231361,60.276992 42.334276,62.362367 21.904265,14.21066 Z m 9.384321,91.758581 -25.517563,45.65036 4.642706,2.60469 25.517539,-45.65036 z M 74.912227,58.073611 v 52.321209 h -5.32112 V 58.073611 Z M 408.57529,119.92406 v 52.321 h -5.32114 v -52.321 z m -5.54605,46.34715 H 222.11522 v -39.61287 q 12.14928,-12.83542 26.06575,-22.57271 12.14929,-8.409413 25.18216,-14.163082 13.25377,-5.753891 25.84483,-9.737286 12.812,-4.204774 24.07771,-7.081675 11.48659,-3.098191 20.10156,-5.975115 8.61495,-2.876901 13.69554,-6.196403 5.08063,-3.319504 5.08063,-8.188124 0,-5.753802 -7.06866,-9.95851 -7.06867,-4.426017 -24.29859,-4.426017 -12.5911,0 -24.96127,2.213009 -12.37019,1.991697 -23.8568,5.532513 -11.26572,3.540813 -21.42692,8.188122 -9.94034,4.647308 -17.67171,9.737219 L 225.20776,27.958308 q 7.28957,-4.647311 17.4508,-9.073329 10.38212,-4.647308 23.85679,-8.188102 13.47465,-3.5408146 30.26276,-5.7538244 17.00903,-2.212987 37.55238,-2.212987 16.12541,0 29.3792,3.7621048 13.47464,3.5407926 22.97319,9.9585076 9.49856,6.417719 14.57915,15.491046 5.30152,9.073305 5.30152,19.917016 0,13.056745 -3.75524,21.244847 -3.75523,8.188237 -11.92839,13.941903 -8.17317,5.753893 -21.20604,10.179912 -12.81199,4.204698 -30.92546,9.294658 -8.39405,2.4342 -18.33441,5.31128 -9.94033,2.87683 -18.77614,5.75366 -8.61498,2.87682 -15.24187,5.53258 -6.406,2.65553 -7.73136,4.42602 h 124.3646 z M 227.4647,21.606871 l 20.43003,48.151709 -4.89707,2.085349 -20.43,-48.151684 z M 498.96584,169.46315 h -75.13515 v -4.98809 h 75.13515 z m 139.91166,1.60652 h -75.13515 v -4.98806 H 638.8775 Z M 636.67256,8.4109294 H 561.53743 V 3.4229032 h 75.13513 z m -133.49735,0 H 428.04007 V 3.4229032 h 75.13514 z M 530.75177,53.314656 572.05936,7.5054609 h 54.78225 l -68.03602,71.4800351 71.79125,86.971074 h -58.97929 l -42.63294,-50.6778 -44.62101,50.6778 H 429.13953 L 502.03524,85.845814 432.89476,7.5054609 h 59.42108 z"/>
  </g>
</svg>
