<?xml version="1.0" encoding="UTF-8" standalone="no"?>
<svg xmlns:xlink="http://www.w3.org/1999/xlink" xmlns="http://www.w3.org/2000/svg" xmlns:svg="http://www.w3.org/2000/svg" width="128" height="128" version="1.1" id="svg3doicon">
  <defs id="defs1">
    <linearGradient id="linearGradient1">
      <stop style="stop-color:#ffe41b;stop-opacity:1;" offset="0.52" id="stop1"/>
      <stop style="stop-color:#49482e;stop-opacity:1;" offset="1" id="stop2"/>
      <stop style="stop-color:#716a13;stop-opacity:1;" offset="0.89" id="stop3"/>
    </linearGradient>
    <radialGradient xlink:href="#linearGradient1" id="radialGradient2" cx="67.241989" cy="85.500519" fx="67.241989" fy="85.500519" r="17.850013" gradientTransform="matrix(-1.1394999,0.41426954,-0.43725763,-1.2027314,181.24998,160.57807)" gradientUnits="userSpaceOnUse"/>
  </defs>
  <g id="3doicon">
    <path id="3doicon03" fill="#888888" d="m 43,124.39896 c 0,-1.98902 9.399972,-3.60104 20.999701,-3.60104 C 75.59943,120.79792 85,122.40994 85,124.39896 85,126.38855 75.60002,128 63.999701,128 52.399386,128 43,126.38855 43,124.39896 Z"/>
    <path id="3doicon02" fill="url(#radialGradient2)" d="m 46.149396,90.448294 c 0,-9.661765 7.989333,-17.490249 17.850298,-17.490249 9.86039,0 17.84973,7.828484 17.84973,17.490249 0,9.661196 -7.98992,17.490256 -17.84973,17.490256 -9.860965,0 -17.850298,-7.82906 -17.850298,-17.490256 z"/>
    <path id="3doicon01" fill="#0000a0" d="m 47.374814,44.838819 c -2.62724,1.712013 -3.326388,11.658256 -3.326388,11.658256 0,0 0.699152,9.946809 3.326388,11.658826 2.623715,1.715463 16.624887,2.744163 16.624887,2.744163 0,0 14.001756,-1.0287 16.624295,-2.744163 2.627837,-1.712017 3.326978,-11.658826 3.326978,-11.658826 0,0 -0.699134,-9.946814 -3.326978,-11.658256 -2.62254,-1.716612 -16.624295,-2.74532 -16.624295,-2.74532 0,0 -14.001173,1.028708 -16.624887,2.74532 z"/>
    <path id="3doicon00" fill="#ff0000" d="M 63.9997,40.972271 43.0902,20.488435 63.9997,0 84.9092,20.488435 Z"/>
  </g>
</svg>
