<?xml version="1.0" encoding="UTF-8" standalone="no"?>
<svg
     version="1.1"
     id="svgwslogo"
     width="640"
     height="52"
     xmlns="http://www.w3.org/2000/svg"
     xmlns:svg="http://www.w3.org/2000/svg">
     <path
          id="wslogo"
          fill="#000000"
          d="m 566.04124,18.54717 h -19.36621 c -9.5414,0 -17.8358,6.660377 -19.80077,16 -2.02164,9.584906 -0.83133,18.056604 12.64,17.415095 h 9.57919 l 7.0663,-4.943396 h -7.76538 c -4.02439,0 -7.02851,-3.698114 -6.17829,-7.64151 l 1.13363,-5.283019 c 1.32257,-6.169812 6.7829,-10.603774 13.11234,-10.603774 h 8.52114 l -6.08383,28.452831 h 16.38098 l 7.14188,-33.415095 H 568.55413 Z M 433.72752,21 h -3.47647 -3.02302 -15.03951 c -2.07833,-0.113208 -3.45758,-1.509434 -3.11749,-4.207547 0.79354,-6.18868 6.10272,-9.4528307 8.74786,-9.4528307 h 23.84405 L 452.16793,-5.4999998e-7 h -39.52596 v 0 C 400.09644,-5.4999998e-7 393.18129,9.2641506 391.72646,21.320755 c -1.05805,4.962264 2.73961,9.660377 7.82206,9.660377 h 3.47647 3.02302 15.03951 c 2.07833,0.113208 3.45758,1.509434 3.11749,4.207548 -0.77465,5.981132 -5.74373,9.226415 -8.48334,9.433962 h -48.78396 l -10.50498,7.339623 H 381.127 l -0.0189,0.01887 h 39.50707 v 0 c 12.54552,0 19.46068,-9.264151 20.9155,-21.320755 C 442.60763,25.679245 438.79107,21 433.72752,21 Z m 71.77778,2.509434 -3.6654,17.09434 -9.18242,6.415095 h -3.28753 l 6.08382,-28.471699 h -10.33494 l -7.0852,4.962264 -3.66541,17.09434 -9.18242,6.415095 h -3.30643 L 467.9632,18.54717 h -10.33494 l -7.0852,4.962264 -6.08383,28.452831 h 58.09863 L 518.12641,41.09434 522.92545,18.54717 H 512.6094 Z M 629.54352,18.54717 h -2.4751 -1.56819 -26.05464 v 0 h -9.67366 l -7.14188,33.415095 h 8.57782 l 9.16352,-6.396227 4.70457,-22.056604 h 14.81279 c 2.34284,0 4.06218,2.150943 3.58984,4.415094 l -5.13914,24.037737 h 16.38098 l 5.13913,-24.018869 C 640.89873,23.113208 636.043,18.54717 629.54352,18.54717 Z m -262.68138,0 h -24.39198 v 0 h -1.62487 l -15.56854,10.886792 -4.81794,22.547171 h 16.38098 l 4.70457,-22.056604 9.16353,-6.396227 h 6.55617 c 3.41978,0 5.85709,3.339623 4.78014,6.603774 -0.22672,0.641509 -0.51013,1.245283 -0.86911,1.81132 l -1.28479,2.037736 h 11.0907 l 7.57644,-5.283019 c 0.0189,-4.188679 -2.19169,-10.150943 -11.6953,-10.150943 z m -52.22264,0 h -2.98523 -4.27001 -22.89936 -1.49262 -1.62487 l -15.56855,10.886792 -3.75987,17.622642 c -0.54793,2.528302 1.39814,4.905661 3.9866,4.905661 h 5.80042 5.5359 22.08692 l 6.89626,-4.943396 h -25.39335 c -1.30367,0 -2.26726,-1.207548 -2.02164,-2.471699 l 1.15253,-5.35849 h 23.91963 l 15.90863,-11.113208 0.51013,-2.377359 c 0.81244,-3.679245 -2.02164,-7.150943 -5.78152,-7.150943 z m -8.84233,7.433962 -0.64239,3.056604 -6.97183,4.905661 h -16.98559 l 0.86912,-4.037736 9.16352,-6.396227 h 12.56442 c 1.30368,0 2.26727,1.188679 2.00275,2.471698 z m -46.98903,-6.867925 c 1.26588,-0.849056 2.4562,-1.773584 3.53315,-2.830188 4.40227,-4.415095 7.6898,-10.2830194 7.6898,-10.2830194 h -17.42014 c 0,0 -3.28753,5.8301884 -7.6898,10.2830194 -0.85023,0.849056 -1.75713,1.603773 -2.73961,2.301887 h -17.19342 -1.58708 -1.53041 l -15.56854,10.886792 -3.75988,17.622642 c -0.54792,2.528302 1.39815,4.905661 3.98661,4.905661 h 3.94881 7.3875 19.36621 5.17692 11.20406 l 6.38613,-29.867926 c 0.24562,-1.245283 -0.26452,-2.377358 -1.19031,-3.018868 z m -16.022,6.867925 -4.49674,21.037737 h -16.83443 c -1.30368,0 -2.26727,-1.207548 -2.02165,-2.471699 l 3.11749,-14.641509 9.16353,-6.396227 h 9.03126 c 1.34147,0 2.30505,1.188679 2.04054,2.471698 z M 76.406782,0.01886738 67.262152,6.415094 59.950227,40.603774 50.76781,47.018869 H 46.195495 L 54.848884,6.415094 56.228136,0.01886738 H 47.650322 L 38.505693,6.415094 v 0 l -7.311925,34.18868 -9.182418,6.415095 H 17.420142 L 26.092425,6.415094 v 0 L 27.471677,0.01886738 H 18.893863 L 9.7303394,6.415094 0,51.962265 h 12.413268 3.967711 12.37548 16.38098 12.394374 3.117487 L 60.932708,51.773586 76.217843,41.09434 84.984596,0.01886738 Z M 188.93863,18.54717 h -2.4751 -1.56819 -26.05463 v 0 h -9.67366 l -7.14188,33.415095 h 8.57781 l 9.16353,-6.396227 4.70457,-22.056604 h 14.81279 c 2.34284,0 4.06218,2.150943 3.58983,4.415094 l -5.13913,24.037737 h 16.39987 l 5.13913,-24.018869 c 1.02027,-4.830188 -3.85434,-9.396226 -10.33494,-9.396226 z m -52.18485,0 h -4.49674 -6.82068 -19.38511 -1.45482 -1.66266 L 87.365223,29.433962 83.58645,47.075472 c -0.547922,2.528302 1.398146,4.905661 3.986605,4.905661 h 4.761253 6.612853 19.366209 2.02164 1.11474 l 15.56854,-10.886793 3.75988,-17.64151 c 0.49124,-2.509434 -1.43593,-4.90566 -4.02439,-4.90566 z m -12.9234,7.433962 -3.11749,14.622642 -9.18242,6.415095 h -9.03126 c -1.30368,0 -2.26727,-1.207548 -2.02165,-2.471699 l 3.11749,-14.641509 9.16352,-6.396227 h 9.03127 c 1.34147,0 2.30505,1.207547 2.04054,2.471698 z" />
</svg>
