<?xml version="1.0" encoding="UTF-8" standalone="no"?>
<svg
   viewBox="0 0 24 24"
   version="1.1"
   id="svg4"
   width="24"
   height="24"
   xmlns="http://www.w3.org/2000/svg"
   xmlns:svg="http://www.w3.org/2000/svg">
  <defs
     id="defs8" />
  <!-- Font Awesome Pro 5.15.3 by @fontawesome - https://fontawesome.com License - https://fontawesome.com/license (Commercial License) -->
  <path
     d="M 12,0 C 5.370975,0 0,5.370975 0,12 0,18.629025 5.370975,24 12,24 18.629025,24 24,18.629025 24,12 24,5.370975 18.629025,0 12,0 Z m 0,22.45161 C 6.23709,22.45161 1.54839,17.76291 1.54839,12 1.54839,6.23709 6.23709,1.54839 12,1.54839 c 5.76291,0 10.45161,4.6887 10.45161,10.45161 0,5.76291 -4.6887,10.45161 -10.45161,10.45161 z M 12,7.354845 C 9.43548,7.354845 7.354845,9.43548 7.354845,12 c 0,2.56452 2.080635,4.645155 4.645155,4.645155 2.56452,0 4.645155,-2.080635 4.645155,-4.645155 C 16.645155,9.43548 14.56452,7.354845 12,7.354845 Z m 0,7.741935 c -1.708065,0 -3.09678,-1.388715 -3.09678,-3.09678 0,-1.708065 1.388715,-3.09678 3.09678,-3.09678 1.708065,0 3.09678,1.388715 3.09678,3.09678 0,1.708065 -1.388715,3.09678 -3.09678,3.09678 z m 0,-4.258065 c -0.638715,0 -1.161285,0.52257 -1.161285,1.161285 0,0.638715 0.52257,1.161285 1.161285,1.161285 0.638715,0 1.161285,-0.52257 1.161285,-1.161285 0,-0.638715 -0.52257,-1.161285 -1.161285,-1.161285 z m -0.38709,-6.96774 c -4.267755,0 -7.741935,3.47418 -7.741935,7.741935 H 5.41935 c 0,-3.41613 2.77743,-6.19356 6.19356,-6.19356 z"
     id="path2"
     style="fill:#ffffff;fill-opacity:1;stroke:none;stroke-width:0.0483872" />
</svg>
