<?xml version="1.0" encoding="UTF-8" standalone="no"?>
<svg
   width="112.69211"
   height="128"
   viewBox="0 0 112.69211 128"
   aria-hidden="true"
   class="symbol symbol-logo-giantbomb-bomb"
   version="1.1"
   id="svg15"
   xmlns="http://www.w3.org/2000/svg"
   xmlns:svg="http://www.w3.org/2000/svg">
  <defs
     id="defs15" />
  <g
     id="g15"
     transform="matrix(0.29844495,0,0,0.29844495,9.3259786e-5,-6.2850431e-4)"
     style="stroke-width:3.3507">
    <path
       d="M 341.27,16.8 A 56.71,56.71 0 0 1 334.41,59 C 326.31,72.08 312,82.08 296.63,84.33 a 20.81,20.81 0 0 1 1.57,2.08 c 1.84,2.81 0.46,7.78 -3.7,7.08 -6.94,-1.17 -11.51,-8.89 -13.39,-15.14 A 27.56,27.56 0 0 1 280,72.27 c -7.9,9.09 -12.2,22.5 -13.26,33.41 -0.09,0.87 -0.15,1.78 -0.2,2.7 a 144.58,144.58 0 0 1 28.51,21.81 155.34,155.34 0 0 1 18.55,21.48 88.92,88.92 0 0 0 17.2,-9.67 c 22,-15.85 37.67,-41.13 37.68,-68.75 0.01,-21.49 -10.26,-43.19 -27.21,-56.45 z"
       style="fill:#f7961d;stroke-width:3.3507"
       id="path1" />
    <path
       d="m 295.06,130.19 c 3.37,3.26 6.62,6.69 9.72,10.25 10.4,-4.88 20.3,-11.58 26.43,-21.46 6.43,-10.37 8.16,-23.53 2.42,-34.56 -0.58,-1.11 -2.33,-1.77 -3.33,-0.72 a 85.5,85.5 0 0 1 -23.53,17.8 c -5,2.5 -10.67,4.42 -16.31,3.27 -5.33,-1.09 -9.17,-4.86 -13,-8.42 -1,-0.91 -3,-0.7 -3.08,1 a 63.59,63.59 0 0 0 1.62,17.06 154,154 0 0 1 19.06,15.78 z"
       style="fill:#ffffff;stroke-width:9.88451"
       id="path2" />
    <circle
       cx="159"
       cy="269.87"
       r="144"
       style="fill:#888888;stroke-width:9.88451"
       transform="rotate(-45,158.995,269.872)"
       id="circle2" />
    <path
       d="m 341.27,16.8 a 57.86,57.86 0 0 1 1.35,15.08 c 3.15,6.71 6.71,13.27 9.44,20.17 4.35,11 6.83,21.8 5.45,33.63 -1.25,10.66 -5,20.86 -9.76,30.42 -2.38,4.76 -5,9.39 -7.77,14 -1.87,3.11 -4.13,6.2 -5.93,9.46 20.28,-15.94 34.42,-40 34.43,-66.29 0.01,-21.51 -10.26,-43.21 -27.21,-56.47 z"
       style="fill:#ec2024;stroke-width:3.3507"
       id="path3" />
    <path
       d="M 89.34,340.41 A 144,144 0 0 1 75.92,152.23 144,144 0 1 0 274.24,356.23 144,144 0 0 1 89.34,340.41 Z"
       style="fill:#666666;stroke-width:9.88451"
       id="path4" />
    <path
       d="m 280.91,246.48 a 7.5,7.5 0 0 1 -7.25,-5.61 118.38,118.38 0 0 0 -30.87,-53.79 7.5024029,7.5024029 0 0 1 10.61,-10.61 133.39,133.39 0 0 1 34.77,60.61 7.51,7.51 0 0 1 -7.26,9.39 z"
       style="fill:#ffffff;stroke-width:9.88451"
       id="path5" />
    <ellipse
       cx="103.72"
       cy="205.42999"
       rx="47.959999"
       ry="23.98"
       transform="rotate(-75.02,103.74,205.437)"
       id="ellipse5"
       style="stroke-width:3.3507" />
    <ellipse
       cx="193.57001"
       cy="219.64"
       rx="53.25"
       ry="26.620001"
       transform="rotate(-82.77,193.558,219.644)"
       id="ellipse6"
       style="stroke-width:3.3507" />
    <ellipse
       cx="195.72"
       cy="202.53999"
       rx="27.92"
       ry="17.9"
       style="fill:#ffffff;stroke-width:9.88451"
       transform="rotate(-82.77,195.714,202.543)"
       id="ellipse7" />
    <ellipse
       cx="107.91"
       cy="187.82001"
       rx="23.139999"
       ry="14.83"
       style="fill:#ffffff;stroke-width:9.88451"
       transform="rotate(-76.07,107.906,187.823)"
       id="ellipse8" />
    <path
       d="m 271.43,157.44 a 158.3,158.3 0 0 1 38.74,62.9 18.35,18.35 0 0 0 1.57,-1.38 C 325.8,204.9 314.4,170.71 286.28,142.59 258.16,114.47 224,103.08 209.91,117.13 a 18.35,18.35 0 0 0 -1.38,1.57 158.3,158.3 0 0 1 62.9,38.74 z"
       style="fill:#888888;stroke-width:9.88451"
       id="path8" />
    <path
       d="m 287.31,115.71 c 2.8,3.45 7.07,5.74 10.17,9 3.1,3.26 5.37,7.36 8.15,11 2.27,3 6.34,-0.24 5.21,-3.36 -1.75,-4.81 -5.69,-9.25 -9.34,-12.74 -3.33,-3.18 -7.55,-6.94 -12.22,-7.72 -2.06,-0.34 -3.16,2.31 -2,3.77 z m 6.69,-5.97 c 4,3.17 8.26,5.62 11.82,9.35 3.22,3.37 5.31,7.87 8.72,10.93 1.83,1.64 4.58,-0.57 4.22,-2.69 -0.83,-4.93 -5.6,-9.85 -9.11,-13.15 -3.81,-3.57 -8.34,-7.22 -13.46,-8.62 a 2.39,2.39 0 0 0 -2.19,4.19 z m 9,-6.48 -0.07,-0.18 -1.54,1.3 c 2.84,2 6.07,3.32 8.82,5.59 3.79,3.12 6.25,7 9.45,10.65 a 1.44,1.44 0 0 0 2.38,-1.54 c -1.71,-4.38 -5.49,-8.08 -9,-11.05 -2.39,-2 -7.55,-6.61 -11,-6 a 1.38,1.38 0 0 0 -1.1,1.57 1.88,1.88 0 0 0 0.36,0.78 c 0.69,1 2.07,-0.09 1.69,-1.09 z m 4.93,-2.7 c 2.74,1.88 5.57,3.61 8.16,5.69 a 38.7,38.7 0 0 1 7,7.68 c 0.35,0.48 1.13,0 0.86,-0.56 -3,-6 -9.82,-10.32 -15.49,-13.6 -0.52,-0.3 -1.05,0.43 -0.54,0.78 z"
       id="path9"
       style="stroke-width:3.3507" />
    <path
       d="M 368.85,35.61 A 77.73,77.73 0 0 0 333.42,0.42 c -3.94,-1.91 -8.12,3.14 -6.22,6.8 7.54,14.52 7.58,32.72 -1.35,46.71 -8.1,12.69 -21,19.15 -35.33,21.82 0,-0.12 -0.08,-0.23 -0.12,-0.35 -1.36,-4.65 -0.62,-9 1.42,-13.34 2.04,-4.34 -4.28,-8.64 -7.7,-5.4 -7.3,6.92 -13.81,13.29 -18.4,22.42 a 70.43,70.43 0 0 0 -7.1,25.17 q 4,1.91 7.94,4.14 c 0,-0.92 0.11,-1.82 0.2,-2.7 1.06,-10.92 5.36,-24.33 13.26,-33.41 a 27.56,27.56 0 0 0 1.11,6.08 c 1.88,6.25 6.45,14 13.39,15.14 4.16,0.7 5.53,-4.27 3.7,-7.08 a 20.81,20.81 0 0 0 -1.57,-2.08 C 312,82.08 326.31,72.08 334.41,59 a 56.71,56.71 0 0 0 6.86,-42.22 c 16.95,13.26 27.22,35 27.21,56.42 0,27.63 -15.68,52.9 -37.68,68.75 a 89,89 0 0 1 -17.18,9.69 q 2.3,3.24 4.4,6.62 a 84.29,84.29 0 0 0 9.56,-4.44 98.45,98.45 0 0 0 34.37,-31.27 c 17.44,-25.74 21.11,-58.86 6.9,-86.94 z M 152.17,357.51 C 162,344.19 176.8,339 192.83,339 c 0.68,0 0.68,-3.71 -0.1,-3.91 -16.67,-4.13 -33.88,7.34 -40.61,22.1 v 0.32 z"
       id="path10"
       style="stroke-width:3.3507" />
    <path
       d="m 239.61,279.78 c -1.31,-2.47 -4.52,-3 -6.84,-1.79 l -18.24,9.47 a 254.56,254.56 0 0 0 -27.25,7.29 4.35,4.35 0 0 0 -5.83,-3.1 c -24.15,7.26 -49.64,7.8 -74.61,5.72 a 4.05,4.05 0 0 0 -2.8,0.86 108.56,108.56 0 0 1 -11.4,-5.23 c -4.11,-2.18 -9.86,2.48 -6.84,6.84 l 2.58,3.72 c 0,0.09 0.05,0.17 0.09,0.26 a 17.69,17.69 0 0 0 6,8.16 c 0.67,0.74 1.38,1.46 2.12,2.14 a 4.76,4.76 0 0 0 6.14,0.56 109.87,109.87 0 0 0 26.77,5.14 4.47,4.47 0 0 0 0.77,0 128.38,128.38 0 0 0 48.38,-0.71 4.78,4.78 0 0 0 4.65,1.18 l 24.33,-5.7 c 6.68,-1.57 13.48,-2.89 19.73,-5.81 10.83,-5.1 18.36,-17.51 12.25,-29 z"
       style="fill:#ffffff;stroke-width:9.88451"
       id="path11" />
    <path
       d="M 246.94,270.7 A 5.37,5.37 0 0 0 244,266 a 4.55,4.55 0 0 0 -3.82,-0.63 4.1,4.1 0 0 0 -2.82,1.86 78.81,78.81 0 0 1 -17.42,10.77 150,150 0 0 1 -21,6.78 242.12,242.12 0 0 1 -45.44,7.35 234,234 0 0 1 -46.28,-1.65 107.4,107.4 0 0 1 -19.88,-4.37 92.11,92.11 0 0 1 -9.09,-3.57 C 75,281 72.27,279 68.86,278.28 c -1.89,-0.39 -3.45,2 -2.56,3.65 1.56,2.82 4.37,5.06 7.51,6.88 a 2.36,2.36 0 0 0 1,0.65 40.4,40.4 0 0 1 2.19,3.62 c 1.05,1.65 2.09,3.32 3.09,5 q 2.55,4.32 4.66,8.87 a 130.16,130.16 0 0 1 7.44,20.15 c 1.82,6.52 3.21,13.14 4.44,19.79 1.23,6.65 1.09,14.61 3.84,20.67 a 2.18,2.18 0 0 0 0.54,1.36 c 4.09,5 12.47,7.09 18.42,8.8 a 111.22,111.22 0 0 0 21.8,4 117.42,117.42 0 0 0 44.6,-4.89 c 13.62,-4.28 26.92,-11 37.26,-21 10.34,-10 16.8,-22.73 20.13,-36.56 3.78,-15.84 4.09,-32.27 3.72,-48.57 z M 203,358 c -14.69,8.92 -31.63,13.46 -48.71,14.5 a 121.15,121.15 0 0 1 -25.68,-1.4 123.34,123.34 0 0 1 -13.73,-3 c -2.53,-0.69 -5.09,-1.75 -7.69,-2.39 0.39,-3.88 -0.71,-8 -1.31,-11.84 -0.6,-3.84 -1.29,-7.85 -2.07,-11.76 a 189.53,189.53 0 0 0 -6.1,-23 114.1,114.1 0 0 0 -9.9,-22 c -0.47,-0.79 -1.06,-1.88 -1.74,-3.09 a 119,119 0 0 0 18.67,4.39 230.28,230.28 0 0 0 49.26,2.32 235.23,235.23 0 0 0 50,-8.17 c 11.06,-3.07 23,-6.7 32.59,-13.4 -0.23,13.53 -0.83,27.2 -4.51,40.24 -4.62,16.38 -14.43,29.75 -29.08,38.6 z m -79,12.3 0.31,0.07 z"
       id="path12"
       style="stroke-width:3.3507" />
    <path
       d="m 235.25,303 c -10.56,4 -20.86,8.21 -31.89,11 a 205,205 0 0 1 -37.27,5.9 208.51,208.51 0 0 1 -36.9,-0.79 c -6,-0.68 -12.08,-1.56 -18.06,-2.64 q -4.84,-0.87 -9.63,-2 c -1.87,-0.44 -3.7,-1 -6.05,-1.54 q 1.22,3.1 2.28,6.26 c 0.13,0.4 0.26,0.8 0.38,1.2 q 1.79,5.47 3.24,11 l 0.17,0.35 -0.06,0.11 c 0.88,3.41 1.67,6.84 2.37,10.3 0.78,3.9 1.45,7.83 2.07,11.76 0.62,3.93 1.7,8 1.31,11.84 2.6,0.63 5.16,1.7 7.69,2.39 2.53,0.69 4.82,1.23 7.25,1.75 a 18,18 0 0 1 2,-8.22 c 0.2,-0.48 0.38,-1 0.54,-1.45 l 0.32,-0.12 a 30,30 0 0 1 17.45,-13.48 l 0.14,-0.06 c 5.41,-1.57 11.34,-1.72 16.46,0.26 q -0.51,0.55 -1,1.12 h 0.76 a 4.2,4.2 0 0 0 1.33,0.18 l 1.58,-0.08 a 44.46,44.46 0 0 1 9.63,-5.26 c 13.19,-3.23 28.43,-0.16 38.47,8.78 a 3.83,3.83 0 0 1 0.79,1 h 0.09 a 65,65 0 0 0 21.35,-33.17 c 0.65,-2.3 1.2,-4.62 1.67,-7 0.19,-0.92 0.36,-1.84 0.52,-2.76 0.39,-2.19 0.75,-4.42 1,-6.63 z"
       id="path13"
       style="stroke-width:3.3507" />
    <path
       d="m 154.31,372.53 c 17.08,-1 34,-5.58 48.71,-14.5 a 66.69,66.69 0 0 0 7.66,-5.42 3.88,3.88 0 0 0 -0.83,-1.06 c -10,-8.94 -25.27,-12 -38.47,-8.78 a 43.33,43.33 0 0 0 -19.22,14.74 c 0,0 -0.08,-0.26 0,-0.32 a 39.82,39.82 0 0 1 7,-10.4 c -7.74,-3 -17.37,-1.12 -24.22,3.18 -6.45,4.06 -12.88,11.94 -12.73,19.95 2.15,0.46 4.31,0.88 6.49,1.21 a 121.15,121.15 0 0 0 25.61,1.4 z"
       style="fill:#ec2024;stroke-width:3.3507"
       id="path14" />
    <path
       d="m 314.66,237.25 c 2.56,-2.56 5.12,-5.1 7.67,-7.67 a 34.8,34.8 0 0 0 7.09,-10.4 c 6.24,-14.07 3,-30.39 -2.68,-44.07 -7.06,-17 -18.51,-32.16 -31.67,-44.93 -12.61,-12.23 -27.39,-22.87 -43.9,-29.13 -14,-5.3 -30.73,-7.74 -44.37,-0.17 -4.81,2.67 -8.46,6.61 -12.3,10.45 l -2.27,2.27 c -0.15,0.15 -0.34,0.43 -0.53,0.53 -0.45,0.22 -1.78,-0.28 -2.32,-0.38 q -7.55,-1.45 -15.23,-2.18 A 160.81,160.81 0 0 0 119.42,115.8 157.53,157.53 0 0 0 71.51,137 161.42,161.42 0 0 0 32,174.09 157.87,157.87 0 0 0 8.4,218.61 160.59,160.59 0 0 0 7.7,319 a 157.77,157.77 0 0 0 23.1,45 161.28,161.28 0 0 0 40.36,38.47 157.72,157.72 0 0 0 56,23.26 161.39,161.39 0 0 0 61.52,0.4 157.61,157.61 0 0 0 56.36,-22.5 161.19,161.19 0 0 0 41.77,-39.17 157.84,157.84 0 0 0 31.1,-98 162.81,162.81 0 0 0 -3.25,-29.21 z M 209.91,117.13 c 8.38,-8.38 22,-6.61 32.25,-3.31 12.32,4 23.6,11.05 33.57,19.21 a 138.07,138.07 0 0 1 28.66,31.84 c 6.14,9.52 11.35,20.26 12.94,31.59 1.11,7.89 0.21,16.61 -5.64,22.54 l -1.49,1.49 A 158.2,158.2 0 0 0 282.57,169.8 160.84,160.84 0 0 0 238.1,131.88 157.27,157.27 0 0 0 208.38,118.67 Z m -105.1,286.19 a 144,144 0 1 1 193.6,-169.6 145.7,145.7 0 0 1 4.16,47.2 142.54,142.54 0 0 1 -11.85,47.21 146.38,146.38 0 0 1 -26.12,39.62 144.15,144.15 0 0 1 -159.79,35.57 z"
       id="path15"
       style="stroke-width:3.3507" />
  </g>
</svg>
