<?xml version="1.0" encoding="UTF-8" standalone="no"?>
<svg
   height="128"
   viewBox="0 0 127.60113 178.58578"
   width="91.283646"
   version="1.1"
   id="svg28"
   xmlns="http://www.w3.org/2000/svg"
   xmlns:svg="http://www.w3.org/2000/svg">
  <defs
     id="defs28" />
  <g
     id="g29"
     style="display:inline;stroke-width:1.68479"
     transform="matrix(0.59354566,0,0,0.59354566,-264.42459,-1.74845)">
    <g
       id="g30"
       style="display:inline;stroke-width:1.68479">
      <path
         d="m 464.5,176.77 a 86,86 0 0 1 11.41,-18 12.88,12.88 0 0 1 10.25,-4.43 18,18 0 0 1 7.37,1.82 42,42 0 0 0 10.27,3 c 0.3,0 0.81,0.07 1.59,0.09 a 43.83,43.83 0 0 0 9.21,-0.84 19.11,19.11 0 0 1 4.7,-0.51 c 5.37,0.1 9.69,2.58 11.83,6.82 a 83.29,83.29 0 0 1 6.56,19.35 c 1.3,6.39 2.07,15.1 -1.61,20.31 a 10.93,10.93 0 0 1 -9.42,4.61 17.81,17.81 0 0 1 -2,-0.18 c -6,-1 -11.74,-6.21 -17.13,-11.5 l -0.09,-0.09 c -0.42,-0.42 -0.89,-0.88 -1.25,-1.22 a 40.47,40.47 0 0 0 -5.81,-0.84 l -2.65,-0.3 c -1.29,-0.15 -2.8,-0.32 -4.14,-0.34 -0.38,0 -0.73,0 -1,0 l -1.62,1 c -6.35,3.89 -13.05,7.67 -19,7.56 h -0.11 -0.4 c -4.44,-0.25 -8,-2.42 -9.73,-6 -2.85,-5.71 -0.06,-14.2 2.77,-20.31 z"
         fill="#07576d"
         id="path7"
         style="display:inline;stroke-width:1.68479" />
      <path
         d="m 480.76,162.39 c 2.39,-2.8 6.32,-2.8 10,-1.07 a 46.9,46.9 0 0 0 12.36,3.68 48.39,48.39 0 0 0 13,-0.88 c 4,-0.92 7.8,-0.07 9.43,3.16 6.35,12.53 12,37.83 0.15,35.93 -6.11,-1 -14.91,-11.51 -16.26,-12.11 -2.52,-1.14 -7,-1.44 -9.22,-1.66 H 500 c -2.19,-0.26 -6.64,-0.92 -9.38,-0.36 -1.46,0.3 -12.6,8.68 -18.81,8.33 -12.02,-0.75 -0.29,-24.18 8.95,-35.02 z"
         fill="#ffffff"
         id="path8"
         style="display:inline;stroke-width:1.68479" />
      <path
         d="m 467.11,193 c 6.21,0.34 17.35,-8 18.81,-8.33 2.74,-0.57 7.19,0.09 9.38,0.35 h 0.11 0.12 c 2.19,0.23 6.69,0.53 9.22,1.66 a 54.83,54.83 0 0 1 4.75,4.44 h -0.09 c -2.52,-1.14 -7,-1.44 -9.22,-1.66 H 500 c -2.19,-0.26 -6.64,-0.92 -9.38,-0.36 -1.46,0.3 -12.6,8.68 -18.81,8.33 -3.07,-0.17 -4.58,-1.85 -5,-4.42 0.1,-0.09 0.19,-0.01 0.3,-0.01 z"
         fill="#d1d3d4"
         id="path9"
         style="display:inline;stroke-width:1.68479" />
      <path
         d="m 496.89,166.29 a 6,6 0 1 0 6.95,-5 6,6 0 0 0 -6.95,5 z"
         fill="#07576d"
         id="path10"
         style="display:none;stroke-width:1.68479" />
      <path
         d="m 395,200.63 a 29.22,29.22 0 0 0 6.61,0.25 c 23.17,-1.66 29.32,-15.19 35.27,-28.27 4.63,-10.17 9.4,-20.68 22.39,-25.85 12.23,-4.88 21.62,-3 27.34,-0.53 8.21,3.52 14.21,10.4 16.06,18.4 a 2.62,2.62 0 0 0 3,1.74 2.13,2.13 0 0 0 2,-2.45 c -2.16,-9.3 -9.19,-17.33 -18.83,-21.45 -9.64,-4.12 -20.88,-3.94 -31.88,0.44 -14.78,5.88 -19.91,17.18 -24.88,28.11 -5.9,13 -11,24.19 -31,25.62 -5.08,0.36 -9.27,-0.75 -12.43,-3.3 -5.74,-4.61 -7.34,-13.18 -6.95,-19.67 a 2.6,2.6 0 0 0 -5.1,-0.32 c -0.59,9.63 2.6,18.23 8.53,23 a 20.59,20.59 0 0 0 9.87,4.28 z"
         fill="#07576d"
         id="path24"
         style="display:none;stroke-width:1.68479" />
    </g>
    <path
       d="m 543.27,300.71 a 120.4,120.4 0 0 1 -28.7,-0.56 55.22,55.22 0 0 1 -14.57,3.52 c -18.59,1.82 -30.71,-7.08 -32,-8.1 l -22.5,-17.41 33.33,-1.88 H 479 a 5.16,5.16 0 0 0 2.72,-2.13 29.07,29.07 0 0 1 14.27,-10 c 0.58,-4.33 4.69,-9.25 8.29,-12.3 a 32.67,32.67 0 0 0 0.67,-10.05 l -3.55,-11.89 c 0,0 33.24,9.4 32.38,33.59 6.76,-2.4 15.91,-13.16 20.64,-22.57 14.05,-27.95 10.29,-56.28 0.33,-72 -4.33,-6.82 -9.73,-11 -14.1,-10.87 -22.36,0.59 -33.6,-8.21 -35.28,-17.67 -10.72,-0.85 -20.09,-3.12 -28,-6.81 C 467.63,129.12 456,117.92 455.62,90 455.2,59.3 469.89,14.23 487.62,5.39 a 29.17,29.17 0 0 1 10.26,-2.7 C 524.58,0.09 584.26,20.65 591,23 l 0.23,0.08 c 2.7,1 66.24,25.92 69.13,118.15 C 662,195 647.05,234.49 611.8,269.15 588.6,292 561.73,298.9 543.27,300.71 Z m 9.82,-162.37 c 7.71,3.31 14.82,9.71 20.49,18.64 12.37,19.47 20,55.77 0.77,94 -1.1,2.19 -8.06,15.48 -19.17,25.13 a 87.3,87.3 0 0 0 41,-22.87 C 627,222.9 639.5,189.61 638,141.93 c -2.37,-76.09 -52.34,-97 -54.57,-97.9 -17.11,-6 -64.94,-20.89 -83.34,-19.09 a 9.09,9.09 0 0 0 -2.51,0.48 c -6.14,3.81 -21.26,38.41 -19.49,67.62 0.38,6.26 2,17.23 8.6,20.29 10,4.62 24.51,6.14 42.08,4.42 a 185.88,185.88 0 0 0 32.94,-6.34 l 7.42,21.06 c -1.42,0.53 -8,3.13 -16.04,5.87 z"
       fill="#07576d"
       id="path12"
       style="display:inline;stroke-width:1.68479" />
    <path
       d="m 604,261.19 c 31.33,-30.8 46.89,-66.13 45.21,-119.61 -2.68,-85.81 -61.89,-108 -61.89,-108 0,0 -76.98,-26.99 -94.69,-18.17 -17.71,8.82 -42.14,93.46 -10.63,108.06 31.51,14.6 83,-1.39 83,-1.39 0,0 -31.79,12.56 -43,12.48 -11.21,-0.08 -6.39,13 18.3,12.35 24.69,-0.65 48.9,49.6 24,99 -5.61,11.17 -24.59,38.17 -42.57,26.21 0,0 4.42,-21.64 -8.15,-30.8 0,0 1.5,15.65 -3.94,19.51 -5.44,3.86 -1.18,13.42 -1.18,13.42 a 18.38,18.38 0 0 0 -18,6.76 c -7.38,9.39 -15.65,5.69 -15.65,5.69 0,0 15.74,12.19 38.43,1.85 0.01,0.03 51.29,11.45 90.76,-27.36 z"
       fill="#00bdff"
       id="path13"
       style="display:inline;stroke-width:1.68479" />
    <path
       d="M 593.32,76.16 A 27.66,27.66 0 1 1 563.1,51.34 27.65,27.65 0 0 1 593.32,76.16 Z"
       fill="#07576d"
       id="path14"
       style="display:inline;stroke-width:1.68479" />
    <path
       d="M 585.9,76.89 A 20.2,20.2 0 1 1 563.83,58.76 20.19,20.19 0 0 1 585.9,76.89 Z"
       fill="#ffffff"
       id="path15"
       style="display:inline;stroke-width:1.68479" />
    <path
       d="m 576.53,77.8 a 10.78,10.78 0 1 1 -11.78,-9.67 10.78,10.78 0 0 1 11.78,9.67 z"
       fill="#07576d"
       id="path16"
       style="display:inline;stroke-width:1.68479" />
    <path
       d="m 564.09,74.34 a 3.09,3.09 0 1 1 -3.38,-2.76 3.1,3.1 0 0 1 3.38,2.76 z"
       fill="#ffffff"
       id="path17"
       style="display:inline;stroke-width:1.68479" />
    <path
       d="m 503,19.22 8.45,15.54 2.17,-0.51 c 21.74,-4.78 33.16,-6.79 33.16,-6.79 0,0 -30.62,-9.2 -43.78,-8.24 z"
       fill="#48d8ff"
       id="path18"
       style="display:inline;stroke-width:1.68479" />
    <path
       d="m 495.27,22.32 c -7.52,5.78 -13.17,17.78 -14,27.77 0,0 7.24,-7.57 22.06,-12.9 z"
       fill="#48d8ff"
       id="path19"
       style="display:inline;stroke-width:1.68479" />
    <path
       d="m 510.65,281.14 c 0,0 -12.19,14.23 -35.23,5.8 a 4.86,4.86 0 0 1 -0.6,-0.21 c 0,0 15.74,12.19 38.43,1.85 0,0 51.28,11.38 90.71,-27.39 22.68,-22.3 37,-47 42.64,-79.22 -2.23,6.52 -45.09,128.2 -135.95,99.17 z"
       fill="#00a1cc"
       id="path20"
       style="display:inline;stroke-width:1.68479" />
    <path
       d="m 552.55,263 0.13,0.16 c 19.72,-14.57 28.55,-48.77 28.55,-48.77 l 10.89,-5.56 -17.34,-6.34 A 95.28,95.28 0 0 1 564.36,245.97 81.16,81.16 0 0 1 552.55,263 Z"
       fill="#00a1cc"
       id="path21"
       style="display:inline;stroke-width:1.68479" />
    <path
       d="m 521,198.78 c 5,0.81 6.76,-2.39 6.75,-8.4 -2.28,-2.62 -4.39,-8.48 -6,-12.42 a 26.09,26.09 0 0 0 10.37,10.1 c 1.32,8.85 0.14,16.16 -6.43,15.1 -4.43,-0.71 -10.26,-6.44 -13.65,-9.76 2.9,2.54 6.2,4.93 8.96,5.38 z"
       fill="#d1d3d4"
       id="path11"
       style="display:inline;stroke-width:1.68479" />
    <path
       d="m 592.12,208.8 c -51,3.25 -75.77,-7.71 -83.14,-23.13 a 12.59,12.59 0 0 1 0.59,-12.32 c 3.27,-5.24 13.35,-10.95 47.62,-13.68 17.58,-1.39 34.4,7.53 35.09,7.53 0,0 -54.48,11.12 -63.59,14.2 8.07,5.79 63.43,27.4 63.43,27.4 z"
       fill="#07576d"
       id="path22"
       style="display:inline;stroke-width:1.68479" />
    <path
       d="m 592.28,167.2 c 0,0 -66.56,0.25 -73.18,10.85 -6.62,10.6 35.33,26.14 73,30.75 z"
       fill="#00bdff"
       id="path23"
       style="display:inline;stroke-width:1.68479" />
  </g>
</svg>
