<?xml version="1.0" encoding="UTF-8" standalone="no"?>
<svg
   width="128"
   height="128"
   viewBox="0 0 546.13333 546.13333"
   class="octicon octicon-steamdb"
   aria-hidden="true"
   version="1.1"
   id="svg1"
   xmlns="http://www.w3.org/2000/svg"
   xmlns:svg="http://www.w3.org/2000/svg">
  <defs
     id="defs1" />
  <path
     fill-rule="evenodd"
     d="M 272.64,0 C 130.13333,0 13.22667,50.77333 0.42667,115.62667 L 152.32,144.21333 c 12.37333,-3.84 26.45333,-5.54666 40.96,-5.54666 L 264.53333,96 C 263.68,85.33333 270.08,74.24 284.58667,65.28 c 20.48,-13.22667 52.48,-20.48 84.90667,-20.48 22.18666,-0.42667 44.8,2.98667 64,9.38667 47.78666,16.21333 58.45333,47.36 24.32,69.54666 -21.76,14.08 -56.74667,21.33334 -91.30667,20.48 L 272.64,177.92 c -0.85333,6.82667 -5.54667,13.22667 -14.50667,19.2 -25.17333,16.21333 -74.24,20.05333 -109.22666,8.10667 -15.36,-5.12 -25.6,-12.8 -29.86667,-20.48 L 10.66667,163.84 c 9.81333,15.36 25.6,29.44 46.08,41.81333 C 21.33333,226.13333 0,251.73333 0,279.46667 c 0,27.30667 20.48,52.48 55.04,72.96 C 20.48,372.48 0,397.65334 0,424.96 c 0,66.98667 122.02667,121.17334 273.06667,121.17334 150.61333,0 273.06667,-54.18667 273.06667,-121.17334 0,-27.30666 -20.48,-52.48 -55.04,-72.53333 34.56,-20.48 55.04,-45.65333 55.04,-72.96 0,-27.73334 -21.33334,-53.76 -57.17334,-74.24 35.41334,-21.76 56.74667,-48.64 56.74667,-77.65334 C 545.70667,57.17333 423.25334,0 272.64,0 Z m 97.28,60.58667 c -22.18666,0.42666 -43.52,5.12 -57.17333,14.08 -23.46667,15.36 -16.21333,36.26666 16.21333,47.36 32.42667,11.09333 77.22667,7.68 100.69334,-7.68 C 453.12,98.98667 445.86667,78.08 413.44,67.41333 c -13.22666,-4.26666 -28.58666,-6.4 -43.52,-6.4 z M 371.2,67.84 c 31.57334,0 56.74667,11.94667 56.74667,26.45333 0,14.50667 -25.17333,26.45334 -56.74667,26.45334 -31.57333,0 -56.74666,-11.94667 -56.74666,-26.45334 C 314.45334,79.78667 339.62667,67.84 371.2,67.84 Z m -177.92,78.93333 c -6.82667,0.42667 -13.22667,0.85334 -19.62667,1.70667 l 38.82667,7.25333 a 46.207121,21.392186 0 1 1 -34.56,39.68 L 139.94667,188.16 c 4.26666,3.84 10.24,7.25333 18.34666,10.24 C 185.6,207.78667 224,204.8 243.62667,192 263.25333,179.2 257.28,161.28 229.97333,152.32 218.88,148.48 205.65333,146.77333 193.28,146.77333 Z M 465.06667,217.6 v 39.68 c 0,46.93334 -86.18667,84.90667 -192,84.90667 -106.24,0 -192,-37.97333 -192,-84.90667 V 218.02667 C 130.13333,240.64 197.97333,254.72 272.64,254.72 c 75.09334,0 143.36,-14.08 192.85334,-37.12 z m 0,147.62667 v 37.54667 c 0,46.93333 -86.18667,84.90666 -192,84.90666 -106.24,0 -192,-37.97333 -192,-84.90666 v -37.54667 c 49.49333,21.76 116.90666,34.98667 192,34.98667 75.09333,0 142.93333,-13.22667 192,-34.98667 z"
     id="path1"
     style="fill:#444444;fill-opacity:1;stroke:none;stroke-width:1" />
</svg>
