<?xml version="1.0" encoding="UTF-8" standalone="no"?>
<svg xmlns="http://www.w3.org/2000/svg" xmlns:svg="http://www.w3.org/2000/svg" version="1.1" id="svg_tg16_icon" x="0px" y="0px" viewBox="0 0 128 128" xml:space="preserve" width="128" height="128">
    <g id="tg16_icon">
        <path id="icon09" style="fill:#010101;stroke:none" d="M 20.878369,1.8665369 H 107.12786 V 126.13964 H 20.878369 Z"/>
        <path id="icon08" style="fill:#F6EB16;stroke:none" d="M 18.999999,0 V 128 H 109 V 0 Z m 3.377332,3.9123129 H 105.24947 V 124.64393 H 22.377331 Z"/>
        <path id="icon07" style="fill:#FDFCE7;stroke:none" d="M 22.377331,3.9123129 H 105.24947 V 124.64393 H 22.377331 Z M 20.878368,1.8665379 V 126.13963 H 107.12785 V 1.8665379 Z"/>
        <path id="icon06" style="fill:#F8991D;stroke:none" d="m 41.503108,65.118685 c 0,7.249832 5.921218,13.133752 13.217001,13.133752 h 17.440222 c 7.295785,0 13.216999,-5.88392 13.216999,-13.133752 0,-7.24983 -5.921214,-13.133751 -13.216999,-13.133751 H 54.720109 c -7.295783,0 -13.217001,5.883921 -13.217001,13.133751 z m 1.872149,-0.02472 c 0,-6.366007 5.193504,-11.526799 11.599862,-11.526799 h 16.880442 c 6.40636,0 11.599863,5.160792 11.599863,11.526799 0,6.366007 -5.193503,11.526797 -11.599863,11.526797 H 54.975119 c -6.400138,0 -11.599862,-5.16079 -11.599862,-11.526797 z"/>
        <path id="icon05" style="fill:#FEF8E7;stroke:none" d="m 54.975119,77.374793 c -3.271596,0 -6.350379,-1.26702 -8.670352,-3.572379 -2.319973,-2.305361 -3.595025,-5.364752 -3.595025,-8.615742 0,-6.7183 5.504493,-12.188121 12.265377,-12.188121 h 16.886663 c 6.760885,0 12.265377,5.469821 12.265377,12.188121 0,6.718301 -5.504492,12.188121 -12.265377,12.188121 z m 0,-23.053596 c -6.026952,0 -10.934346,4.876485 -10.934346,10.865475 0,2.898697 1.138216,5.630517 3.20318,7.682472 2.06496,2.051956 4.814097,3.183004 7.731166,3.183004 0,0 0,0 0,0 h 16.886663 c 6.026952,0 10.934346,-4.876485 10.934346,-10.865476 0,-5.995172 -4.907394,-10.865475 -10.934346,-10.865475 z"/>
        <path id="icon04" style="display:inline;fill:#f8991d;stroke:none" d="m 56.685555,72.943311 v -1.67494 H 54.440219 V 57.294059 H 50.503108 V 58.969 h 2.245335 v 12.299371 h -2.245335 v 1.67494 z m 17.440222,-2.818348 v 0.587156 H 73.541118 61.779542 61.188664 v -0.587156 -2.768904 -1.093964 c 0,-0.568614 0.01866,-0.587157 0.590878,-0.587157 h 11.761576 c 0.572218,0 0.584659,0.01854 0.584659,0.587157 z M 61.188664,63.999999 v -4.443843 c 0,-0.568614 0.01866,-0.587156 0.590878,-0.587156 h 11.761576 c 0.572218,0 0.584659,0.01854 0.584659,0.587156 v 1.650217 h 1.685554 V 60.03206 c 0,-1.514243 -1.231511,-2.738001 -2.755356,-2.738001 H 62.252246 c -1.517623,0 -2.755356,1.229938 -2.755356,2.738001 v 10.17325 c 0,1.508064 1.231512,2.738001 2.755356,2.738001 h 10.803729 c 1.523845,0 2.755356,-1.229937 2.755356,-2.738001 v -4.023563 c 0,-1.508063 -0.671734,-2.175567 -2.189357,-2.175567 h -12.43331 z"/>
        <path id="icon03" style="fill:#f6eb16;stroke:none" d="M 36.44022,116.26306 H 31.937109 V 70.990246 h 4.503111 v 10.618251 h 3.483067 l -0.0062,-11.458811 c 0,-1.699663 -1.387007,-3.071754 -3.091222,-3.071754 h -5.162407 c -1.704215,0 -3.091222,1.378271 -3.091222,3.071754 v 46.953934 c 0,1.69965 1.387007,3.07175 3.091222,3.07175 l 8.266068,-0.006 -0.0062,-29.623561 h -5.734623 v 3.356059 h 2.251556 z m 10.685556,-14.52438 1.685556,-0.0124 3.937111,18.44287 h 3.937112 l -3.937112,-18.44287 c 1.6047,-0.11744 2.92329,-1.44626 2.92329,-3.065578 l -0.01244,-13.980451 c 0,-1.699663 -1.387007,-3.071754 -3.091224,-3.071754 h -8.819625 v 38.566873 h 3.377331 z m 0,-16.217869 h 4.496891 v 12.29319 H 47.125776 Z M 71.979958,120.17537 V 84.680251 c 0,-1.699663 -1.387008,-3.071754 -3.091224,-3.071754 H 63.16033 c -1.710435,0 -3.091223,1.378271 -3.091223,3.071754 v 35.495119 h 3.476849 V 101.7325 h 4.963373 v 18.44287 z M 68.503107,85.520811 v 12.29319 h -4.963371 v -12.29319 z m 16.874223,-3.906134 -5.908775,-0.0062 c -1.704216,0 -3.091225,1.378271 -3.091225,3.071752 v 35.495121 h 3.47685 V 101.7325 h 4.963371 V 97.820182 H 79.85418 V 85.52699 h 5.52315 z m 2.811336,21.718593 v 16.8421 h 3.377331 v -16.8421 c 0.0062,-0.39556 0.05598,-2.34244 0.559779,-3.28189 0.261231,-0.482089 1.119558,-1.953071 1.965446,-3.386968 0.852108,1.440077 1.710435,2.904879 1.971667,3.386968 0.503799,0.93945 0.559779,2.88633 0.559779,3.28189 v 16.8421 H 100 v -16.8421 c -0.006,-0.50063 -0.0498,-3.442596 -0.559781,-4.400582 -0.478921,-0.890005 -2.581202,-4.30169 -3.203177,-5.309126 0.621975,-1.001255 2.724256,-4.419121 3.203177,-5.309126 C 99.956461,87.356445 100,84.420665 100,83.913857 V 67.071752 h -3.377332 v 16.842105 c -0.0062,0.395557 -0.05598,2.342444 -0.559779,3.281892 -0.261232,0.482086 -1.119559,1.953067 -1.971667,3.386963 -0.852107,-1.440077 -1.710435,-2.904877 -1.965446,-3.386963 -0.503801,-0.939448 -0.559779,-2.886335 -0.559779,-3.281892 V 67.071752 h -3.377331 v 16.842105 c 0.0062,0.500627 0.04975,3.442588 0.559779,4.400579 0.47892,0.890005 2.581202,4.307871 3.203177,5.309126 -0.621975,1.007436 -2.724257,4.419121 -3.203177,5.309126 -0.510023,0.957986 -0.55356,3.899952 -0.559779,4.400582 z"/>
        <path id="icon02" style="fill:#FDFCE7;stroke:none" d="M 38.125775,118.12341 H 31.937109 V 70.984064 h 6.188666 v 10.618252 h 1.791293 l -0.0062,-9.592273 c 0,-1.699663 -1.387006,-3.071754 -3.091224,-3.071754 h -3.476847 c -1.704215,0 -3.091225,1.378272 -3.091225,3.071754 v 45.087397 c 0,1.69965 1.38701,3.07175 3.091225,3.07175 l 6.58051,-0.006 -0.0062,-27.942432 h -4.422214 v 1.674939 h 2.624741 z m 9.000001,-16.38473 3.563925,-0.0124 3.937113,18.44287 h 2.064961 l -3.93711,-18.44287 c 1.604698,-0.11744 2.923288,-1.44626 2.923288,-3.065578 l -0.01244,-11.934677 c 0,-1.699662 -1.387007,-3.071753 -3.091221,-3.071753 h -7.134071 v 36.514918 h 1.685555 z m 0,-16.217869 h 6.375259 V 99.680536 H 47.125776 Z M 71.979958,120.17537 V 86.732205 c 0,-1.699661 -1.387008,-3.071752 -3.091224,-3.071752 h -4.036628 c -1.710435,0 -3.091222,1.378271 -3.091222,3.071752 v 33.443165 h 1.791291 V 101.7325 h 6.64893 v 18.44287 z M 70.188665,85.520811 V 99.680536 H 63.539736 V 85.520811 Z m 15.188665,-1.860358 -4.216999,-0.0062 c -1.704215,0 -3.091225,1.378271 -3.091225,3.071753 V 120.16913 H 79.8604 V 101.7263 h 4.963373 V 99.674335 H 79.8604 V 85.514609 h 5.52315 v -1.854177 z m 4.683485,19.672817 v 16.8421 h 1.498962 v -16.8421 c 0.0062,-0.39556 0.05598,-2.34244 0.559779,-3.28189 0.261231,-0.482089 2.052522,-3.257176 2.90463,-4.691072 0.852108,1.440077 2.64962,4.208983 2.904632,4.691072 0.5038,0.93945 0.559777,2.88633 0.559777,3.28189 v 16.8421 h 1.498966 v -16.8421 c -0.006,-0.50063 -0.0498,-3.442596 -0.559781,-4.400582 -0.478922,-0.890005 -2.581202,-4.30169 -3.203179,-5.309126 0.621977,-1.001255 2.724257,-4.419121 3.203179,-5.309126 0.516241,-0.957991 0.559781,-3.893771 0.559781,-4.400579 V 68.938289 h -1.498966 v 14.975568 c -0.0062,0.395557 -0.05598,2.342444 -0.559777,3.281892 -0.261231,0.482086 -2.052524,3.442589 -2.904632,4.882666 -0.852108,-1.440077 -2.643399,-4.394399 -2.90463,-4.882666 -0.5038,-0.939448 -0.559779,-2.886335 -0.559779,-3.281892 V 68.938289 h -1.498962 v 14.975568 c 0.0062,0.500627 0.04975,3.442588 0.559779,4.400579 0.47892,0.890005 2.581203,4.307871 3.203177,5.309126 -0.621974,1.007436 -2.724257,4.419121 -3.203177,5.309126 -0.510022,0.957986 -0.55356,3.899952 -0.559779,4.400582 z"/>
        <path id="icon01" style="fill:#f6eb16;stroke:none" d="m 33.062888,12.299372 h 3.937111 V 8.9433122 H 25.754663 v 3.3560598 h 3.937112 V 61.4845 h 3.371113 z M 40.37733,8.9433122 40.43331,44.401351 c 0,1.699662 1.387006,3.071753 3.091221,3.071753 h 5.04423 c 1.710437,0 3.072564,-1.378271 3.072564,-3.071753 L 51.715962,8.9433122 H 48.239115 V 43.597875 H 43.736003 V 8.9433122 Z m 18.55978,20.1301788 1.685556,-0.0062 3.937112,18.442877 h 3.937111 L 64.559778,29.067349 c 1.604699,-0.117431 2.92329,-1.446258 2.92329,-3.065572 l -0.01244,-13.980493 c 0,-1.693481 -1.387007,-3.0717524 -3.091222,-3.0717524 h -8.81963 V 47.516368 h 3.377333 z m 0,-16.217866 h 4.50311 v 12.299373 h -4.50311 z m 12.937112,34.654563 8.19765,0.04945 c 1.710434,0 3.1472,-1.520425 3.1472,-3.220087 V 28.511057 c 0,-0.4141 -0.646854,-1.087784 -0.796128,-1.446258 0.149274,-0.358473 0.796128,-1.032157 0.796128,-1.440077 V 12.021245 c 0,-1.69348 -1.387006,-3.0717522 -3.091222,-3.0717522 h -8.253628 z m 3.377332,-34.654563 h 4.50311 v 12.299373 h -4.50311 z m 0,16.211685 h 4.50311 v 14.530565 h -4.50311 z m 12.937112,-17.046065 0.01244,46.403863 c 0,1.693482 1.387007,3.071753 3.091225,3.071753 h 5.093986 c 1.710435,0 3.15964,-1.378271 3.15964,-3.071753 l -0.01244,-46.403863 c 0,-1.69348 -1.387006,-3.0717522 -3.091224,-3.0717522 h -5.162405 c -1.704216,-0.00618 -3.091222,1.3720912 -3.091222,3.0717522 z m 3.377331,0.83438 h 4.496892 v 44.716561 h -4.496892 z"/>
        <path id="icon00" style="fill:#fdfce7;stroke:none" d="M 33.062888,61.4845 V 12.299372 h 3.937111 v -1.674939 h -8.620594 v 1.674939 H 31.37733 V 61.4845 Z m 9,-50.860067 0.05597,33.783099 c 0,1.699662 0.07464,3.071753 1.778855,3.071753 h 4.671042 c 1.710437,0 3.072564,-1.378272 3.072564,-3.071753 l 0.07464,-33.783099 H 49.93089 v 34.83998 h -6.188669 v -34.83998 z m 16.874222,18.449058 3.563926,-0.0062 3.937111,18.442877 h 2.06496 l -3.93711,-18.442819 c 1.604699,-0.117431 2.92329,-1.446258 2.92329,-3.065572 l -0.01244,-12.305592 c 0,-1.693481 -1.387007,-3.071752 -3.091223,-3.071752 h -7.134071 v 36.891935 h 1.685556 z m 0,-16.217866 h 6.375259 v 14.15973 H 58.93711 Z m 14.622668,34.654563 6.512094,0.04945 c 1.710434,0 3.1472,-1.520425 3.1472,-3.220087 V 28.511057 c 0,-0.4141 -0.646854,-1.087784 -0.796128,-1.446258 0.149274,-0.358473 0.796128,-1.032157 0.796128,-1.440077 V 13.696185 c 0,-1.693481 -1.387006,-3.071752 -3.091222,-3.071752 h -6.568072 z m 1.691776,-34.654563 h 6.188667 v 14.15973 h -6.188667 z m 0,16.211685 h 6.188667 v 16.397103 h -6.188667 z m 14.622668,-15.371125 0.01244,44.722742 c 0,1.693482 1.387006,3.071753 3.091221,3.071753 h 3.408432 c 1.710435,0 3.15964,-1.378271 3.15964,-3.071753 l -0.01244,-44.722742 c 0,-1.693481 -1.387006,-3.071752 -3.091224,-3.071752 h -3.476848 c -1.704214,0 -3.091222,1.372091 -3.091221,3.071752 z m 1.691775,-0.84056 h 6.375259 v 46.576918 h -6.375259 z"/>
    </g>
</svg>
