<?xml version="1.0" encoding="UTF-8" standalone="no"?>
<svg xmlns="http://www.w3.org/2000/svg" xmlns:svg="http://www.w3.org/2000/svg" version="1.1" id="svg_tg16_logo" x="0px" y="0px" width="640" height="118" viewBox="0 0 640 118" xml:space="preserve">
     <g id="tg16_logo">
          <path id="logo01" style="fill:#d5e14d;stroke:none" d="m 488.99744,19.508118 c 3.29926,0 6.60387,0 9.90849,0 0.0589,8.834129 -0.12318,17.679064 0.0857,26.50779 1.68176,2.831243 3.64204,5.49499 5.39878,8.288412 1.72461,-2.733988 3.74381,-5.289672 5.29703,-8.131721 0.14996,-8.877354 0.0321,-17.770917 0.0535,-26.653674 3.30998,-0.01621 6.61995,-0.02161 9.92993,0 -0.0321,6.348686 -0.005,12.697371 -0.0107,19.046057 -0.0375,2.950113 0.27851,5.997482 -0.80339,8.817919 -2.19594,5.905628 -5.50055,11.303363 -8.78375,16.636259 3.73309,6.051512 7.78219,12.17867 9.49609,19.170329 0.19817,10.600954 0.0536,21.223521 0.0696,31.829881 -3.07431,-0.0216 -6.14327,-0.005 -9.21757,-0.0108 -0.0321,-10.65499 0.0643,-21.30997 -0.0429,-31.959552 -1.55322,-3.225673 -3.89376,-6.046111 -5.75763,-9.109689 -1.91742,2.960919 -3.93126,5.851597 -5.8594,8.80171 -0.005,10.763048 0.0482,21.526101 -0.0214,32.289151 -3.25106,-0.0486 -6.49676,-0.0108 -9.74246,-0.0216 -0.005,-9.9958 0.0107,-19.991604 -0.005,-29.987407 -0.0428,-2.712375 1.24258,-5.192415 2.30841,-7.607617 2.30841,-4.679116 5.00781,-9.158317 7.89466,-13.497036 -3.86699,-5.981272 -8.16781,-11.957141 -10.07988,-18.921784 -0.27851,-8.482926 -0.0375,-16.992866 -0.11783,-25.486597 z m -47.26618,8.212768 c 0.0321,-4.192833 3.66882,-8.142527 7.87859,-8.207364 5.2756,-0.02161 10.54584,0.0054 15.82145,-0.0054 0,2.836648 0,5.673294 0,8.509941 -4.72395,-0.0108 -9.44789,0.02161 -14.16647,-0.02161 -0.0589,10.682002 -0.0161,21.3586 -0.0214,32.040602 3.8777,-0.0108 7.76076,-0.0054 11.64382,-0.0054 0,3.150029 -0.0107,6.300057 0.005,9.450086 -3.88306,0.0108 -7.76611,0.0054 -11.64917,0 -0.0161,15.128783 0,30.262969 -0.005,45.391759 -3.17072,0 -6.34143,0 -9.50679,0 0.005,-29.052673 0,-58.10534 0,-87.152603 z m -53.68796,0.529508 c 0.0214,-4.344122 3.60455,-8.515344 7.98571,-8.720663 4.30082,-0.05944 8.60164,0.0054 12.90246,-0.03242 2.19593,-0.03782 4.47757,0.529507 6.20218,1.961339 1.99241,1.620941 3.03682,4.230656 3.03146,6.791743 -0.005,28.874363 0,57.748726 0,86.623097 -3.07966,0 -6.15933,0 -9.23899,0 -0.005,-15.128791 0.005,-30.262977 -0.005,-45.39176 -3.83485,0.0054 -7.66971,0.0108 -11.49921,-0.0054 -0.0268,15.134186 0.005,30.268372 -0.0214,45.40256 -3.12252,-0.0108 -6.23968,-0.005 -9.36218,-0.005 0.005,-28.874364 -0.0107,-57.748728 0.005,-86.62309 z m 9.63534,0.983371 c 0.0161,10.228138 -0.0321,20.456276 0.0214,30.684413 3.65276,-0.04323 7.30551,-0.01621 10.95826,-0.02161 -0.005,-10.222736 0.0107,-20.445471 -0.0107,-30.668205 -3.65811,0.0108 -7.31086,0 -10.96897,0.0054 z M 332.4647,19.378443 c 6.56103,0.0054 13.12741,-0.03242 19.68844,0.01621 4.04374,-0.04863 8.17852,2.172061 9.90313,5.94345 0.70698,1.421025 0.52435,3.047369 0.55166,4.58186 -0.0268,10.082254 0,20.164507 -0.0161,30.24676 -0.21959,4.273881 -3.21891,8.628809 -7.584,9.369039 3.24034,15.096364 6.38428,30.214341 9.53893,45.332318 -3.0636,0.005 -6.12185,0.005 -9.18008,0.005 -3.40638,-14.961296 -6.8449,-29.906373 -10.25664,-44.862255 -1.09261,0.0108 -2.17986,0.01621 -3.26712,0.02161 -0.0107,14.993704 0.0161,29.987415 -0.0161,44.981115 -3.12251,-0.0162 -6.24502,0.005 -9.36165,-0.0162 0.0155,-31.873105 0.005,-63.74621 -5.3e-4,-95.619313 z m 9.51215,9.315008 c 0,10.357814 0,20.710223 0,31.068036 3.6581,0.0054 7.31621,-0.0054 10.97432,0.0054 0.0161,-10.357813 0.005,-20.715626 0.005,-31.07344 -3.66347,0 -7.32158,0 -10.97968,0 z M 275.69172,10.441655 c -0.20888,-4.9060478 3.70631,-9.58516416 8.48916,-10.33079704 3.90449,-0.15128783 7.81432,0.005403 11.72416,-0.06483764 5.6291,-0.59974818 10.89399,4.76016348 10.59406,10.37942568 -0.005,5.635471 -0.0214,11.270943 0.005,16.901011 -3.35282,0.03242 -6.70028,0.01081 -10.0531,0.01621 -0.0161,-5.727325 0.0321,-11.449247 -0.0268,-17.176572 -3.7331,0.03782 -7.46619,0.02702 -11.19927,0.0054 -0.0482,31.792058 -0.005,63.589517 -0.0214,95.381575 3.84556,-0.0162 7.69112,0.0324 11.54204,-0.0324 -0.0589,-15.388132 -0.0107,-30.776267 -0.0268,-46.1644 -1.69783,0 -3.39566,0 -5.08814,0 0,-3.063579 0,-6.121754 0,-9.185332 4.94353,-0.0108 9.89243,0.02161 14.84132,-0.01621 0.0268,21.580128 0.0536,43.160256 -0.0161,64.734972 -6.90381,-0.0432 -13.80762,-0.005 -20.71142,-0.0108 -4.01696,0.0108 -8.00178,-2.56649 -9.48538,-6.3595 -0.79268,-1.98294 -0.52488,-4.15501 -0.56238,-6.23522 0,-30.614161 0.0107,-61.228334 -0.005,-91.842507 z"/>
          <path id="logo00" style="fill:#f79226;stroke:none" d="m 223.83015,19.907951 c 2.88149,-0.837486 5.91831,-0.453864 8.88014,-0.534911 3.26178,0.06484 6.78598,-0.405235 9.76924,1.253528 2.96719,1.588522 5.60232,4.614279 5.5059,8.174946 -0.0107,24.514032 -0.005,49.028063 0,73.542096 -0.0375,2.13424 0.24638,4.39815 -0.7284,6.38111 -1.51038,3.18785 -4.51506,5.91102 -8.09819,6.26223 -3.21355,0.0757 -6.42712,-0.0162 -9.63533,0.027 -1.87993,-0.0163 -3.83486,0.1729 -5.61303,-0.56193 -3.75987,-1.49126 -6.8556,-5.23024 -6.73242,-9.43928 0.005,-24.487018 0.0107,-48.979436 0,-73.471856 0.0214,-1.972144 -0.19281,-4.052352 0.62665,-5.905628 1.11403,-2.625924 3.34746,-4.77097 6.02544,-5.727325 z m 3.66345,9.055657 c -0.005,25.346115 0.005,50.697633 -0.005,76.043752 3.48137,0.0108 6.96809,0.0108 10.45481,0 -0.0107,-25.351523 0,-50.697637 -0.005,-76.043752 -3.48136,0 -6.96273,0 -10.44409,0 z m -65.3639,-9.568955 c 7.08591,-0.01621 14.17182,-0.07564 21.25238,0.02161 4.48827,-0.01081 8.72482,3.738971 8.8855,8.337041 0.0268,10.087656 0,20.180716 0.0107,30.273774 0.0268,2.804229 -1.96028,5.019515 -3.90983,6.770131 1.88528,1.583119 3.71166,3.641714 3.88841,6.23522 0.28922,4.111787 0.10176,8.239784 0.15532,12.362377 -0.0482,6.294655 0.11783,12.594712 -0.1339,18.889364 -0.0857,2.67456 0.40705,5.53822 -0.91586,8.00205 -1.43004,2.97713 -4.71858,4.69532 -7.92144,4.72234 -7.09127,0.0162 -14.17718,-0.027 -21.26844,0.0162 -0.0643,-31.878508 0.0214,-63.757015 -0.0429,-95.630119 z m 9.79602,9.433876 c 0,10.401039 -0.005,20.80748 0.005,31.208519 3.61526,-0.0108 7.22517,0 10.84043,-0.0054 0.005,-10.401038 -0.0107,-20.796673 0.0107,-31.192309 -3.62062,-0.02161 -7.23588,-0.0054 -10.85649,-0.0108 z m 0.0107,41.188112 c -0.0268,11.843676 -0.005,23.692755 -0.0107,35.536429 3.61526,-0.005 7.23587,0.0108 10.85114,-0.005 -0.0161,-11.843674 0,-23.681946 -0.005,-35.520219 -3.60991,-0.0054 -7.22517,0.0108 -10.83507,-0.0108 z M 105.24425,19.37304 c 6.75919,0.03782 13.5291,-0.07564 20.28831,0.05403 4.78821,0.06484 9.91384,3.722762 9.96204,8.877354 0.0161,10.449667 0.0161,20.904737 0,31.354403 -0.0375,4.522426 -3.03146,9.233961 -7.64293,10.071447 3.19215,15.090961 6.33073,30.187326 9.53358,45.272886 -3.0636,0.0108 -6.1272,0.005 -9.1908,0.005 -3.39031,-14.90725 -6.82882,-29.798302 -10.21377,-44.705557 -1.11939,-0.0054 -2.24415,-0.0054 -3.36354,-0.0108 -0.005,14.907254 0.005,29.814507 -0.005,44.716357 -3.12252,0 -6.24503,0 -9.36754,0 0,-31.878504 0,-63.757011 0,-95.635518 z m 9.76923,9.460892 c 0.0107,10.401039 0,20.796674 0.005,31.197713 3.6099,0.0054 7.21981,-0.01621 10.83507,0.01621 0.0268,-10.406441 0.005,-20.812883 0.0107,-31.219325 -3.62061,0.0054 -7.23588,-0.0054 -10.85114,0.0054 z M 49.810254,19.37304 c 3.251056,-0.0108 6.496757,0.02161 9.747813,-0.02161 0.06427,28.642029 0.0054,57.28946 0.02678,85.93148 3.658108,0 7.321571,0 10.979679,0 0.02142,-28.647423 -0.04285,-57.289451 0.03214,-85.936883 3.29926,0.05944 6.593164,0 9.892423,0.04323 -0.03749,27.453338 -0.01071,54.906675 -0.01607,82.360023 -0.03749,1.97755 0.17139,4.00372 -0.316,5.94345 -0.931935,4.17121 -4.959603,7.33205 -9.18544,7.31584 -3.925904,0 -7.857166,0.0162 -11.783071,-0.0108 -5.130991,-0.0972 -9.485372,-4.90064 -9.351473,-10.03902 -0.06427,-28.528568 -0.01071,-57.05713 -0.02678,-85.585693 z M 0,0.05682659 c 9.8174403,0 19.640237,0 29.457677,0 0,3.19865691 0,6.39191081 0,9.59056771 -3.068954,-0.00541 -6.132552,0.021613 -9.201507,-0.027016 -0.09105,35.1257927 -0.01071,70.2569877 -0.03749,105.3881817 -3.401022,-0.0108 -6.802044,0.0216 -10.197712,-0.0216 0.05356,-35.109584 0,-70.22457 0.02678,-105.3341528 -3.3474645,-0.010806 -6.7002837,0 -10.047747,-0.00541 0,-3.198657 0,-6.3919109 0,-9.59056778 z M 581.69807,17.336058 c 13.28273,-2.226092 27.401,1.215705 38.15037,9.417667 7.79289,5.819179 13.78084,14.015737 17.1283,23.190263 3.87234,10.757646 4.05444,22.855269 0.37491,33.699364 -3.15464,9.585165 -9.32469,18.105918 -17.30558,24.184438 -8.72483,6.65126 -19.65631,10.37943 -30.60866,10.16331 -16.39454,0.15128 -32.4463,-8.66663 -41.44963,-22.444637 -9.37826,-13.918481 -11.06538,-32.640349 -4.45614,-48.071708 6.52888,-15.733934 21.43447,-27.577611 38.16643,-30.138697 z m -25.47285,28.366468 c -0.0161,1.988354 -0.0161,3.971305 -0.0107,5.954256 1.77817,0 3.56171,0 5.35059,-0.0054 0.0107,10.584744 0,21.164087 0.005,31.748831 -1.78888,0 -3.57241,0 -5.35594,0 -0.005,1.982952 -0.005,3.9605 0,5.943451 5.58089,0 11.15642,0 16.73732,0 -0.005,-1.982951 0,-3.960499 0,-5.943451 -1.78889,0 -3.57777,0 -5.3613,-0.0108 0.0321,-12.546083 -0.0268,-25.092167 0.0268,-37.63825 -3.79736,-0.08645 -7.59472,-0.0108 -11.39208,-0.04862 z m 21.94864,3.733568 c 0.0321,11.876094 -0.0696,23.752189 0.0482,35.628283 0.99621,1.534491 2.54408,2.652941 3.77594,4.009128 12.49006,0 24.98011,0 37.47017,0 1.37647,-1.793841 4.27404,-3.01495 3.84556,-5.662488 -0.0643,-5.084351 0.0589,-10.1633 -0.0589,-15.242248 -0.7659,-1.356187 -2.09953,-2.296334 -3.15465,-3.425589 -12.17942,0.05403 -24.35883,-0.03241 -36.53824,0.04323 -0.075,-4.419766 -0.0161,-8.844935 -0.0321,-13.264701 11.51527,0 23.03055,0 34.54582,0 -0.005,1.847873 -0.005,3.695746 0.0107,5.543618 1.73532,-0.0054 3.47065,-0.0054 5.21132,-0.0054 0,-2.609715 -0.0214,-5.224833 0.0214,-7.834549 -1.0819,-1.150867 -2.19593,-2.269316 -3.30998,-3.382363 -12.72035,0.04323 -25.44071,-0.05944 -38.15572,0.04863 -1.37647,1.015789 -2.45838,2.36117 -3.67953,3.544457 z m 5.62373,20.996589 c 11.29033,0.0054 22.58601,-0.0054 33.8817,0.0054 -0.0107,4.273882 -0.005,8.547763 -0.005,12.827047 -11.30104,-0.02161 -22.60208,0.03782 -33.89776,-0.03242 0.0482,-4.268478 0.005,-8.531553 0.0214,-12.80003 z"/>
     </g>
</svg>
