<?xml version="1.0" encoding="UTF-8" standalone="no"?>
<svg
     width="640"
     height="68"
     id="svgpsplogo"
     version="1.0"
     xmlns="http://www.w3.org/2000/svg"
     xmlns:svg="http://www.w3.org/2000/svg">
    <path
         id="psplogo"
         fill="#000000"
         d="m 635.31755,32.001899 c 0,-7.27015 -4.01356,-13.180127 -11.70632,-13.180127 -7.69275,0 -11.70627,6.128324 -12.54243,13.180127 z m -24.24875,3.626676 c 0,8.059296 4.34806,14.775401 12.54243,14.775401 5.51872,0 10.0339,-3.106337 11.20459,-8.579803 h 4.84983 c -2.17405,7.051772 -6.52214,12.475055 -16.05442,12.475055 -11.87357,0 -17.05773,-8.512574 -17.05773,-19.543673 0,-10.896826 6.35486,-19.84585 17.05773,-19.84585 10.20121,0 16.38877,7.303657 16.38877,20.71887 h -28.9312 m -17.55939,17.663238 h 4.34791 V 1.3599899 h -4.34791 z m -26.75735,-2.887837 c 7.19101,0 12.54246,-5.272164 12.70973,-14.641006 0.33448,-9.368948 -3.84635,-16.941198 -12.70973,-16.941198 -7.85985,0 -12.54243,7.202861 -12.54243,15.631622 0,9.033052 4.34806,15.950582 12.54243,15.950582 z m -12.54243,2.887837 h -4.34807 V 1.3599899 h 4.34807 V 21.911049 c 2.67563,-4.533218 8.0271,-7.001344 13.21132,-7.001344 11.37195,0 16.55614,9.318459 16.55614,19.778683 0,11.01433 -4.68257,19.61084 -16.72324,19.61084 -4.84987,0 -10.36859,-2.669658 -13.04422,-7.572311 v 0 6.564896 M 532.63648,33.664188 c -3.67902,1.511153 -7.35817,1.813268 -11.03729,2.098782 -6.5221,0.503708 -10.53562,2.887944 -10.53562,7.924901 0,4.566908 4.01352,6.716105 8.02711,6.716105 6.85659,0 13.5458,-3.324515 13.5458,-10.896888 z m -7.19094,-2.149198 c 1.50516,-0.150965 4.18083,-0.587567 5.68597,-1.242393 1.33788,-0.638058 1.50497,-2.585691 1.50497,-3.878575 0,-4.398991 -2.50837,-7.57225 -9.19774,-7.57225 -6.02038,0 -10.03387,1.947665 -10.87003,8.428608 h -4.34808 c 0.6689,-8.798058 7.19095,-12.340675 15.21811,-12.340675 7.52552,0 13.54584,2.971757 13.54584,11.618681 v 20.332758 c 0,3.391667 0.83628,4.180859 4.5153,2.88799 v 3.39156 c -0.66883,0.218285 -2.17405,0.722024 -3.34466,0.722024 -0.66883,0 -1.3379,-0.0672 -2.0068,-0.218347 -2.84287,-0.419634 -3.34467,-2.95505 -3.34467,-5.55751 -3.67902,4.046509 -8.52885,6.212367 -13.88017,6.212367 -6.52212,0 -12.54265,-3.542693 -12.54265,-10.745707 0,-6.262673 4.3481,-10.090866 13.04423,-11.249293 l 6.02038,-0.789238 m -23.74702,21.911219 c -1.00339,0.218162 -2.84296,0.873019 -4.84979,0.873019 -4.34795,0 -6.68931,-1.880435 -6.68931,-7.438084 V 19.526905 h -5.18414 v -3.593122 h 5.18414 V 5.5408024 h 4.34808 V 15.933783 h 7.02378 v 3.593122 h -7.02378 v 25.604907 c 0,3.693873 0.16732,5.272164 3.67911,5.272164 1.17063,0 2.50852,-0.218332 3.51191,-0.503739 v 3.525972 m -36.28959,-0.134396 h -4.34795 v -37.35803 h 4.34795 v 7.001573 h 0.16723 c 2.3413,-5.994158 5.85324,-8.025651 12.04084,-8.025651 v 4.701151 c -9.69954,-0.218178 -12.20807,6.984683 -12.20807,15.346139 V 53.291813 M 437.48109,18.821772 c -9.03051,0 -12.70967,7.706614 -12.70967,15.782664 0,9.301644 4.5153,15.79954 12.70967,15.79954 9.03054,0 12.70973,-7.790719 12.70973,-15.79954 -0.16725,-8.797982 -3.51193,-15.782664 -12.70973,-15.782664 z m -17.225,15.782664 c 0,-10.880011 5.68596,-19.694731 17.225,-19.694731 11.70632,0 17.22504,8.730768 17.22504,19.694731 0,11.83709 -6.85661,19.694792 -17.22504,19.694792 -9.53226,-0.151118 -17.225,-6.632138 -17.225,-19.694792 m -21.74022,-8.428624 c 9.19773,0 14.88368,-1.880573 14.88368,-10.661679 0,-6.4977276 -4.18074,-9.9733306 -13.37857,-9.9733306 H 387.31131 V 26.175812 Z M 382.46144,53.291813 V 1.3599899 h 18.89731 c 13.37879,0 16.89054,6.7160595 16.89054,14.5067171 0,11.602005 -10.20121,14.489841 -19.90067,14.489841 h -11.03731 v 22.935265 h -4.84987 m -62.545,0 h -4.34808 v -37.35803 h 4.34808 v 5.188243 c 3.34466,-3.67709 6.85648,-6.212321 11.87345,-6.212321 4.68258,0 8.69613,1.44388 11.37192,5.339132 1.83956,2.686519 2.00678,5.490328 2.00678,8.579849 v 24.463127 h -4.34805 V 28.912637 c 0,-6.699275 -2.84297,-10.090865 -9.69959,-10.090865 -5.35144,0 -9.03047,3.458727 -10.36835,7.270104 -0.83616,2.384236 -0.83616,4.483004 -0.83616,7.085372 V 53.291813 M 292.15575,18.821787 c -9.03054,0 -12.54248,7.706615 -12.54248,15.782665 0,9.301643 4.3481,15.799539 12.54248,15.799539 9.03065,0 12.70967,-7.790719 12.70967,-15.799539 0,-8.797983 -3.51193,-15.782665 -12.70967,-15.782665 z M 274.9307,34.604452 c 0,-10.880012 5.8532,-19.694731 17.22505,-19.694731 11.70629,0 17.39223,8.730768 17.39223,19.694731 0,11.837074 -6.8566,19.694792 -17.39223,19.694792 -9.36506,-0.151118 -17.22505,-6.632139 -17.22505,-19.694792 m -8.19441,18.687376 h -4.18077 v -37.35803 h 4.18077 z M 262.2211,7.7737817 V 1.3600053 h 4.84975 v 6.4137764 h -4.84975 m -8.36159,45.6524423 c -1.00351,0.218163 -2.84308,0.87302 -5.01712,0.87302 -4.18082,0 -6.52209,-1.880436 -6.52209,-7.438084 V 19.52692 h -5.18424 v -3.593122 h 5.18424 V 5.5408178 h 4.34804 V 15.933798 h 6.85663 v 3.593122 h -6.85663 v 25.604907 c 0,3.693873 0,5.272164 3.67919,5.272164 1.1707,0 2.34137,-0.218331 3.51198,-0.503739 v 3.525972 M 224.09199,33.664203 c -3.67919,1.511154 -7.35821,1.813269 -11.03745,2.098783 -6.52197,0.503707 -10.5356,2.887943 -10.5356,7.9249 0,4.566908 4.01363,6.716105 8.02722,6.716105 6.85645,0 13.54583,-3.324515 13.54583,-10.896887 z m -7.19096,-2.149197 c 1.50499,-0.150965 4.18081,-0.587567 5.6858,-1.242394 1.33789,-0.638057 1.50516,-2.585691 1.50516,-3.878575 0,-4.398991 -2.50853,-7.57225 -9.19775,-7.57225 -6.02044,0 -10.03405,1.947665 -10.87021,8.428609 h -4.34806 c 0.66892,-8.798059 7.191,-12.340675 15.21827,-12.340675 7.52537,0 13.54583,2.971756 13.54583,11.618681 V 46.86116 c 0,3.391666 0.83614,4.180858 4.51524,2.88799 v 3.39156 c -0.66889,0.218285 -2.17405,0.722024 -3.34457,0.722024 -0.66904,0 -1.33792,-0.0672 -2.00692,-0.218347 -2.84294,-0.419634 -3.34451,-2.95505 -3.34451,-5.55751 -3.67926,4.046509 -8.52892,6.212367 -13.8804,6.212367 -6.5221,0 -12.54241,-3.542694 -12.54241,-10.745708 0,-6.262673 4.34802,-10.090865 13.04403,-11.249293 l 6.0205,-0.789237 m -25.08491,21.911218 c -1.00355,0.218163 -2.84311,0.87302 -5.01712,0.87302 -4.18075,0 -6.52205,-1.880436 -6.52205,-7.438084 V 19.52692 h -5.35133 v -3.593122 h 5.35133 V 5.5408178 h 4.34802 V 15.933798 h 6.85666 v 3.593122 h -6.85666 v 25.604907 c 0,3.693873 0,5.272164 3.67921,5.272164 1.17067,0 2.34129,-0.218331 3.51194,-0.503739 v 3.525972 M 136.46191,37.777772 c 0.83616,9.301689 6.85669,12.693341 14.88378,12.693341 9.19776,0 13.04423,-5.037018 13.04423,-10.745708 C 164.38992,23.640473 132.95,34.319029 132.95,13.918967 132.95,6.6992907 138.80327,0 150.50955,0 c 11.53909,0 17.39216,7.0518495 17.22492,15.514133 h -4.51518 c 0,-7.9418068 -6.18763,-11.3334433 -12.70974,-11.3334433 -10.03404,0 -13.54583,6.1285083 -12.70967,11.4676703 2.17403,13.398658 31.60703,3.744318 31.60703,23.858728 0,9.536775 -7.02393,15.144699 -18.89736,15.144699 -10.87018,0 -18.8973,-5.607924 -18.8973,-16.874015 h 4.84966 M 96.493301,63.449769 c 1.170657,0.218316 2.341298,0.453386 3.511919,0.453386 5.01699,0 5.68582,-7.085403 7.35827,-10.325935 L 92.814296,15.933783 h 4.849662 l 12.040822,32.102665 11.87343,-32.102665 h 4.68258 L 112.38041,52.788058 C 108.86848,62.156961 106.52734,68 100.5069,68 99.001834,68 97.663958,67.781654 96.493301,67.496247 V 63.449769 M 81.60954,33.664188 c -3.679037,1.511153 -7.525445,1.813268 -11.204542,2.098782 -6.522114,0.503708 -10.535604,2.887944 -10.535604,7.924901 0,4.566908 4.01349,6.716105 8.027087,6.716105 6.856598,0 13.713059,-3.324515 13.713059,-10.896888 z M 74.251345,31.51499 c 1.672375,-0.150965 4.348066,-0.587567 5.685957,-1.242393 1.504988,-0.638058 1.672238,-2.585691 1.672238,-3.878575 0,-4.398991 -2.675645,-7.57225 -9.364994,-7.57225 -5.853115,0 -10.0339,1.947665 -10.870057,8.428608 h -4.348051 c 0.668892,-8.798058 7.19093,-12.340675 15.385358,-12.340675 7.525506,0 13.378575,2.971757 13.378575,11.618681 v 20.332758 c 0,3.391667 1.003392,4.180859 4.515316,2.88799 v 3.39156 c -0.501597,0.218285 -2.006783,0.722024 -3.34469,0.722024 -0.668831,0 -1.170626,-0.0672 -1.839457,-0.218347 -3.01019,-0.419634 -3.512,-2.95505 -3.512,-5.55751 -3.511802,4.046509 -8.528836,6.212367 -13.880309,6.212367 -6.521977,0 -12.37526,-3.542693 -12.37526,-10.745707 0,-6.262673 4.348096,-10.090866 13.044244,-11.249293 l 5.85313,-0.789238 M 42.309896,53.291813 h 4.180831 V 1.3599899 H 42.309896 Z M 16.054418,26.175812 c 9.197744,0 14.716467,-1.880573 14.716467,-10.661679 0,-6.4977276 -4.013735,-9.9733306 -13.211478,-9.9733306 H 4.8496624 V 26.175812 Z M 0,53.291813 V 1.3599899 h 18.897282 c 13.378575,0 16.890561,6.7160595 16.890561,14.5067171 0,11.602005 -10.368431,14.489841 -19.900751,14.489841 H 4.8496624 V 53.291813 H 0" />
</svg>
