<?xml version="1.0" encoding="UTF-8" standalone="no"?>
<svg
     id="svgxboxlogo"
     width="128"
     height="128"
     version="1.1"
     xmlns:xlink="http://www.w3.org/1999/xlink"
     xmlns="http://www.w3.org/2000/svg"
     xmlns:svg="http://www.w3.org/2000/svg">
    <defs id="defs1">
        <radialGradient
             xlink:href="#linearGradient1"
             id="radialGradient2"
             cx="-214.76004"
             cy="130.30998"
             fx="-214.76004"
             fy="130.30998"
             r="193.52316"
             gradientTransform="matrix(0.15972335,-0.21945608,0.24528849,0.17925676,68.115528,-16.019522)"
             gradientUnits="userSpaceOnUse" />
        <linearGradient
             id="linearGradient1">
            <stop
                 style="stop-color:#2b832a;stop-opacity:1;"
                 offset="0"
                 id="stop2" />
            <stop
                 style="stop-color:#86bf2a;stop-opacity:1;"
                 offset="0.43949813"
                 id="stop1" />
        </linearGradient>
    </defs>
    <path
         id="xboxicon"
         fill="url(#radialGradient2)"
         d="M 0.85448595,115.08507 C 12.72604,102.8037 25.98569,85.643192 40.742872,63.461944 c 1.623782,-2.44069 4.472965,-6.77703 4.695315,-7.1461 0.02041,-0.034 0.116486,-5.018309 0.118639,-6.144539 6.63e-4,-0.33183 -0.0038,-0.353 -0.05526,-0.31105 -0.04301,0.034 -0.04052,0.0227 0.01134,-0.0533 0.03665,-0.054 0.07661,-0.11527 0.08863,-0.13606 0.01323,-0.0227 -3.631468,-3.58439 -9.201922,-8.992189 -7.511988,-7.292641 -9.802805,-9.537221 -12.344499,-12.095381 -6.335337,-6.37639 -9.758603,-9.92885 -12.663871,-13.141789 -0.430927,-0.47655 -1.055551,-1.16186 -1.388045,-1.5229 -0.3325226,-0.36102 -0.8314286,-0.90685 -1.1087136,-1.2129 -0.277267,-0.30607 -0.5566679,-0.61352 -0.6208859,-0.68326 -0.08137,-0.08831 0.1957409,0.0815 0.9126199,0.55934 4.9795526,3.31913 10.1741786,6.330809 16.3231016,9.4636 10.684259,5.443459 23.169269,10.654489 37.91536,15.825179 l 0.95554,0.33487 1.08689,-0.449501 C 85.69831,29.388375 101.08004,22.388676 111.55286,16.783876 c 2.46832,-1.321 4.9184,-2.70895 6.81354,-3.85986 0.045,-0.0272 -0.008,0.0451 -0.11762,0.16082 -0.10961,0.11569 -0.96232,1.0356 -1.8948,2.04417 -13.96698,15.106619 -25.58854,27.223358 -32.07991,33.446728 -0.78057,0.748349 -0.99641,0.97249 -0.96875,1.00589 0.0196,0.0227 0.042,0.20901 0.0499,0.412379 0.0295,0.76023 0.1756,5.539331 0.1756,5.73851 v 0.20712 l 0.838,1.206841 c 12.73756,18.344258 27.38281,37.411946 42.58532,55.444816 0.58202,0.69037 1.05267,1.26074 1.04591,1.26751 -0.014,0.0151 -0.0845,-0.0302 -2.003,-1.29718 -2.26579,-1.49465 -5.95763,-3.9857 -8.67627,-5.85426 C 98.173416,93.546952 80.854818,80.099523 65.148948,66.197384 c -0.37748,-0.3341 -0.71185,-0.62747 -0.7431,-0.652 -0.0511,-0.0401 -0.18935,0.0854 -1.38885,1.26025 -2.824289,2.76646 -4.166919,4.05276 -6.576991,6.30112 -15.716838,14.662238 -32.775469,27.854806 -51.2404953,39.627716 -1.3074149,0.83358 -3.9069137,2.4693 -4.67309674,2.9405 -0.24264598,0.1493 -0.47792196,0.29481 -0.52285596,0.32354 -0.04486,0.0302 0.33819298,-0.38249 0.85141095,-0.91344 z" />
</svg>
