<?xml version="1.0" encoding="UTF-8" standalone="no"?>
<svg xmlns="http://www.w3.org/2000/svg" xmlns:svg="http://www.w3.org/2000/svg" version="1.1" viewBox="0 0 128 128" id="svgdosicon" width="128" height="128">
  <g id="dosicon">
    <path id="dosicon05" fill="#ffcc00" d="m 89.45799,65.597897 c -16.635915,0 -22.349259,9.587386 -22.349259,18.670171 0,19.679372 35.624379,16.315372 35.624379,24.893562 0,4.03679 -1.5124,7.90539 -12.602961,7.90539 -12.098848,0 -12.434927,-9.41919 -12.434927,-9.41919 H 65.596377 c 0,10.09199 8.570015,20.35217 24.701811,20.35217 17.140032,0 24.197692,-8.33884 24.197692,-19.51117 0,-19.679369 -36.296538,-15.715238 -36.296538,-24.557161 0,-5.389961 5.041185,-7.400789 11.594728,-7.400789 10.58649,0 10.92257,8.409987 10.92257,8.409987 h 11.9308 c 0,-11.101183 -9.07413,-19.34297 -23.18945,-19.34297 z"/>
    <path id="dosicon04" fill="#ab0000" d="M 12.999999,66.775296 V 126.6544 h 26.886326 c 0,0 23.525536,-1.05047 23.525536,-29.939552 0,-28.889079 -23.525536,-29.939552 -23.525536,-29.939552 z m 11.930807,11.773981 h 15.627677 c 0,0 11.594729,0 11.594729,18.140342 0,18.140341 -11.594729,18.190791 -11.594729,18.190791 H 24.930806 Z"/>
    <path id="dosicon03" fill="#800080" d="m 65.932454,65.261498 c -22.685338,0 -29.742999,13.960578 -29.742999,31.032851 0,17.072271 7.049764,31.032851 29.742999,31.032851 22.638287,0 29.742999,-13.96058 29.742999,-31.032851 0,-17.072273 -7.104376,-31.032851 -29.742999,-31.032851 z m 0,11.101182 c 13.685476,0 17.980231,8.914586 17.980231,19.931669 0,11.017071 -4.294755,21.277271 -17.980231,21.277271 -13.685476,0 -17.98023,-10.2602 -17.98023,-21.277271 0,-11.017083 4.294754,-19.931669 17.98023,-19.931669 z"/>
    <path id="dosicon02" fill="#aa0000" d="m 50.030873,107.86145 c -3.345835,6.98584 -9.471548,7.0193 -9.471548,7.0193 h -0.274057 v 8.91594 l 9.163365,0.015 c 2.97598,-1.55287 6.142012,-3.95875 8.708816,-7.65342 z"/>
    <path id="dosicon01" fill="#ffcc00" d="m 78.911828,67.2513 c -5.273416,1.91916 -8.514899,5.327559 -10.235625,9.245436 l 10.219157,4.382781 c 1.588965,-3.111191 5.775183,-4.348806 10.898205,-4.348806 0.375014,0 0.733998,0.01315 1.08372,0.03351 l -0.0018,-9.316753 z m 0.319276,44.86727 -10.786626,5.32824 c 2.092596,3.36131 5.325005,6.25972 9.644294,8.16458 h 12.041041 l 0.04004,-8.54538 c -0.01407,10e-6 -0.02595,10e-4 -0.04004,10e-4 -6.254936,0 -9.352577,-2.51644 -10.89854,-4.94845 z"/>
    <path id="dosicon00" fill="#200080" d="m 90.634267,-5.1e-7 c -16.131796,0 -22.18122,10.71785651 -22.18122,19.84756851 0,21.193168 33.607903,14.33415 33.607903,24.893562 0,3.921409 -2.431863,7.400788 -10.754525,7.400788 -9.604804,0 -10.754531,-8.578186 -10.754531,-8.578186 H 67.948929 c 0,9.082786 8.401977,19.847569 23.525535,19.847569 C 107.93243,63.411301 115,52.662833 115,43.563732 115,23.404993 80.887973,27.921156 80.887973,18.838371 c 0,-5.536799 5.041186,-7.40079 10.082374,-7.40079 8.567328,0 10.082373,8.409987 10.082373,8.409987 h 11.76276 C 112.81548,10.748468 104.74959,-5.1e-7 90.634267,-5.1e-7 Z M 12.999999,1.1773977 V 62.738502 H 25.098846 V 27.080158 l 8.401977,35.658344 H 45.263591 L 53.665568,27.080158 V 62.738502 H 65.764414 V 1.1773977 H 48.120263 L 39.382207,37.676741 30.644151,1.1773977 Z"/>
  </g>
</svg>
