<?xml version="1.0" encoding="UTF-8" standalone="no"?>
<svg xmlns="http://www.w3.org/2000/svg" xmlns:svg="http://www.w3.org/2000/svg" version="1.1" viewBox="0 0 640 276" id="svgdoslogo" width="640" height="276">
  <g id="doslogo">
    <path id="doslogo05" fill="#ffcc00" d="m 529.98035,1.4798942 c -73.10029,0 -98.20546,42.1769398 -98.20546,82.1340448 0,86.573731 156.53802,71.774791 156.53802,109.512061 0,17.75871 -6.6457,34.77747 -55.37902,34.77747 -53.16384,0 -54.64062,-41.437 -54.64062,-41.437 h -53.16386 c 0,44.39679 37.65773,89.53351 108.54288,89.53351 75.31545,0 106.32769,-36.68432 106.32769,-85.83377 0,-86.57373 -159.49155,-69.13466 -159.49155,-108.032168 0,-23.711578 22.15161,-32.557637 50.9487,-32.557637 46.51836,0 47.99514,36.997312 47.99514,36.997312 h 52.42546 c 0,-48.836453 -39.87289,-85.0938228 -101.89738,-85.0938228 z"/>
    <path id="doslogo04" fill="#ab0000" d="M 194.01434,6.659517 V 270.08042 h 118.1419 c 0,0 103.37416,-4.62126 103.37416,-131.71046 C 415.5304,11.280779 312.15624,6.659517 312.15624,6.659517 Z m 52.42547,51.796245 h 68.66997 c 0,0 50.9487,0 50.9487,79.803208 0,79.80322 -50.9487,80.02521 -50.9487,80.02521 h -68.66997 z"/>
    <path id="doslogo03" fill="#800080" d="m 426.60619,0 c -99.68222,0 -130.69446,61.415547 -130.69446,136.5201 0,75.10455 30.97754,136.5201 130.69446,136.5201 99.47547,0 130.69447,-61.41555 130.69447,-136.5201 C 557.30066,61.415547 526.08314,0 426.60619,0 Z m 0,48.836458 c 60.1357,0 79.00739,39.217157 79.00739,87.683642 0,48.46649 -18.87169,93.60321 -79.00739,93.60321 -60.13569,0 -79.00739,-45.13672 -79.00739,-93.60321 0,-48.466485 18.8717,-87.683642 79.00739,-87.683642 z"/>
    <path id="doslogo02" fill="#aa0000" d="m 356.73265,187.40622 c -14.70202,30.73217 -41.61917,30.87942 -41.61917,30.87942 h -1.20424 v 39.22309 l 40.26497,0.066 c 13.07684,-6.8314 26.98877,-17.41537 38.26764,-33.66903 z"/>
    <path id="doslogo01" fill="#ffcc00" d="M 483.63919,8.7535656 C 460.46714,17.196354 446.22365,32.190626 438.66258,49.426196 l 44.90425,19.280781 c 6.98211,-13.686786 25.37687,-19.131312 47.88808,-19.131312 1.64785,0 3.22526,0.05786 4.76201,0.147412 l -0.008,-40.986367 z m 1.40293,197.3806844 -47.39779,23.44002 c 9.19514,14.78709 23.39874,27.53784 42.37824,35.91774 h 52.90984 l 0.17595,-37.59297 c -0.0618,5e-5 -0.114,0.004 -0.17595,0.004 -27.48496,0 -41.09639,-11.07033 -47.88955,-21.76922 z"/>
    <path id="doslogo00" fill="#200080" d="m 0,65.930809 c 0,43.650741 28.912569,60.019771 53.540955,60.019771 57.170855,0 38.667915,-90.939044 67.153065,-90.939044 10.57841,0 19.96442,6.58035 19.96442,29.100492 0,25.989465 -23.14059,29.100488 -23.14059,29.100488 v 34.102144 c 24.5018,0 53.54096,-22.73477 53.54096,-63.657329 C 171.05881,19.12403 142.06366,5.0566551e-6 117.51785,5.0566551e-6 63.137495,5.0566551e-6 75.320331,92.303127 50.818528,92.303127 c -14.936102,0 -19.96442,-13.64085 -19.96442,-27.281705 0,-23.182186 22.686847,-27.281718 22.686847,-27.281718 V 5.911036 C 28.995144,5.911036 0,27.736412 0,65.930809 Z M 3.1761628,276 H 169.24386 V 243.26193 H 73.051645 L 169.24386,220.52717 V 188.69851 L 73.051645,165.96374 H 169.24386 V 133.22569 H 3.1761628 v 47.743 L 101.63707,204.61285 3.1761628,228.25698 Z"/>
  </g>
</svg>
