<?xml version="1.0" encoding="UTF-8" standalone="no"?>
<svg
     id="svgps2logo"
     width="640"
     height="124"
     version="1.1"
     xmlns="http://www.w3.org/2000/svg"
     xmlns:svg="http://www.w3.org/2000/svg">
    <path
         id="ps2logo"
         fill="#000000"
         d="m 639.96553,24.594104 c 0.17234,9.137763 -0.27591,13.871387 -3.32992,18.535642 -2.69155,4.005366 -8.02288,7.698626 -19.80699,7.698626 l -14.61373,-0.45085 c -2.29463,0 -8.28163,0.71089 -11.11121,3.77995 -2.43273,2.6009 -2.58799,4.57756 -2.86405,11.58262 v 20.47765 h 49.70725 v 10.07409 h -54.29665 -2.58807 a 7.1084281,7.1437682 0 0 1 -7.33274,-7.54256 v -15.29323 c 0.24113,-17.89407 1.53555,-20.46031 5.40034,-25.14188 2.67424,-3.22512 8.9373,-6.849015 16.59787,-7.24783 a 78.244471,78.633464 0 0 1 8.26439,-0.121285 c 2.93314,0.08678 5.79719,0.173253 7.07392,0.173253 6.76335,0.08678 9.23062,-1.161721 11.09401,-3.60655 2.10489,-2.756954 3.22635,-5.982036 3.22635,-11.287861 0,-4.941691 -1.00067,-9.657952 -2.88136,-11.825367 -2.2947,-2.51418 -4.45137,-4.196088 -10.83511,-4.196088 -16.04576,0 -34.81754,0.364119 -34.81754,0.364119 V 1.099328 c 0,0 18.34046,-0.814953 37.04319,-1.09237 11.64609,-0.173405 18.04717,2.912976 21.30807,7.195778 3.2609,4.282806 4.65842,8.669616 4.79645,17.425931 M 327.31541,52.926422 a 13.302423,13.368556 0 0 0 -2.72602,-8.912369 c -1.8116,-2.28878 -5.52114,-3.138395 -8.62677,-3.138395 l -16.23549,0.502829 v -8.028076 l 19.53086,-0.502828 c 0,0 9.23066,-0.398797 14.40672,3.710608 3.60598,2.878329 6.0042,7.455877 6.0042,15.345231 v 41.05935 l -23.5855,0.52015 c 0,0 -10.69712,0 -16.06299,-2.15008 -5.36583,-2.15007 -8.1264,-8.02808 -8.1264,-16.19484 0,-7.88937 2.4328,-12.46694 6.00419,-15.34523 5.17607,-4.12675 14.4412,-3.71061 14.4412,-3.71061 h 7.52247 v 6.93569 h -4.2271 c -3.15734,0 -6.43555,0.58953 -8.21261,2.89565 a 11.145739,11.201151 0 0 0 -2.6053,8.14945 c 0,5.46186 1.05244,7.88936 3.60597,9.74465 2.24292,1.73393 6.31476,2.01135 10.81791,2.01135 l 8.10913,-0.4855 v -32.40703 m -207.61093,0 a 13.302423,13.368556 0 0 0 -2.74333,-8.912373 c -1.72535,-2.288772 -5.50382,-3.138387 -8.62669,-3.138387 L 92.133383,41.37849 v -8.028075 l 19.548227,-0.502832 c 0,0 9.24781,-0.398793 14.40664,3.710611 3.60596,2.87833 6.00415,7.455878 6.00415,15.345228 v 41.05935 l -23.58544,0.52015 c 0,0 -10.679947,0 -16.062977,-2.15008 -5.3831,-2.15007 -8.10912,-8.02807 -8.10912,-16.19484 0,-7.88937 2.39819,-12.46693 6.00415,-15.34523 5.17606,-4.12675 14.423947,-3.71061 14.423947,-3.71061 h 7.52246 v 6.93569 h -4.22709 c -3.15734,0 -6.41831,0.58954 -8.229917,2.89565 a 11.214753,11.270508 0 0 0 -2.58799,8.14945 c 0,5.46186 1.05245,7.88936 3.605967,9.74465 2.26023,1.73394 6.29752,2.01136 10.81791,2.01136 l 8.12643,-0.48551 V 52.926402 M 366.25645,21.958529 h -12.24998 v 58.173133 c 0,0 0.27666,5.32315 0.58674,7.17846 0.3103,1.8553 2.98484,6.31148 10.07607,6.31148 l 12.75031,-0.26011 v -7.45585 c 0,0 -3.45071,0.24276 -5.55568,0.24276 -2.1049,0 -4.65842,-0.13875 -5.17599,-3.72795 a 73.913851,74.281315 0 0 1 -0.44886,-7.85467 V 40.303434 h 13.8028 v -7.455897 h -13.8028 V 21.958526 m 127.50316,19.437286 12.07741,-0.502828 c 3.15741,0 6.90141,0.849615 8.62677,3.13841 a 13.302423,13.368556 0 0 1 2.74325,8.912368 v 40.62586 h 12.31896 v -41.61417 c 0,-7.889374 -2.41546,-12.466911 -6.02143,-15.345225 -5.17599,-4.109401 -14.42389,-3.710604 -14.42389,-3.710604 l -27.60555,0.502825 v 60.201834 h 12.21547 V 41.395838 M 442.0336,32.327402 c 8.36791,0 14.8724,1.872632 18.35765,4.716257 3.48518,2.843653 7.85038,8.843043 7.85038,26.199613 0,17.35659 -4.33065,23.33861 -7.85038,26.18226 -3.51972,2.84363 -9.98974,4.73363 -18.35765,4.73363 -8.36795,0 -14.87252,-1.89 -18.39224,-4.73363 -3.51976,-2.84365 -7.81584,-8.84302 -7.81584,-26.18226 0,-17.33924 4.29608,-23.35596 7.81584,-26.199613 3.51972,-2.843625 9.98982,-4.716257 18.39224,-4.716257 z m -8.48875,11.651989 c -1.72535,2.098031 -3.76123,6.502201 -3.76123,19.263881 0,12.76167 2.05319,17.14851 3.76123,19.24656 a 13.009114,13.073789 0 0 0 17.65028,0 c 1.72536,-2.09805 3.76124,-6.50221 3.76124,-19.24656 0,-12.74434 -2.07043,-17.16585 -3.76124,-19.263881 a 13.009114,13.073789 0 0 0 -17.65028,0 M 390.82523,25.39172 h 12.30176 V 14.36395 h -12.30176 z m 0,68.229902 h 12.30176 V 32.847568 H 390.82523 Z M 272.01786,21.958552 H 259.7161 v 58.17314 c 0,0 0.29329,5.32314 0.58674,7.17845 0.29329,1.8553 3.01939,6.31148 10.07607,6.31148 l 12.75031,-0.2601 v -7.45585 c 0,0 -3.45071,0.24275 -5.53837,0.24275 -2.08766,0 -4.67573,-0.13874 -5.17606,-3.72794 a 71.205056,71.559054 0 0 1 -0.46572,-7.85467 V 40.30346 h 13.90632 V 32.847568 H 271.94907 V 21.958575 m -67.09872,71.194907 v -7.49054 c 0,0 13.00911,0.50283 15.7179,0.50283 6.02147,0 9.00631,-1.28311 11.26654,-3.71061 1.34574,-1.47382 2.55353,-7.94136 2.55353,-10.23015 a 31.55659,31.713475 0 0 0 -1.34574,-9.29383 7.2982163,7.3344998 0 0 0 -6.15957,-4.12672 c -2.24293,-0.19064 -5.71087,-0.65891 -9.76547,-0.83231 a 15.666147,15.744032 0 0 1 -11.24921,-5.40982 c -1.8116,-2.13275 -4.20986,-5.35785 -4.20986,-15.241195 0,-9.883366 2.55352,-15.44928 5.17606,-18.015488 a 17.253466,17.339242 0 0 1 9.16155,-4.248102 70.739214,71.090895 0 0 1 8.62677,-0.589531 l 17.25347,0.502825 v 7.490562 c 0,0 -12.57782,-0.502828 -15.26937,-0.502828 -6.02139,0 -7.81576,1.283096 -10.07599,3.710585 a 14.544672,14.616981 0 0 0 -2.36368,7.73331 29.330893,29.476713 0 0 0 1.17324,8.964378 7.2982163,7.3344998 0 0 0 6.15946,4.144084 c 2.22569,0.17341 5.71086,0.62418 9.74815,0.81494 a 15.52812,15.605318 0 0 1 11.24932,5.39251 c 1.8116,2.15005 4.22709,6.69295 4.22709,16.55897 0,9.86602 -2.57075,16.97513 -5.17606,19.54132 a 17.253466,17.339242 0 0 1 -9.16157,4.23078 68.910346,69.252934 0 0 1 -8.71302,0.60686 l -18.87532,-0.50283 M 138.51079,32.847594 161.02655,92.165152 148.10375,124 h 10.21401 l 37.233,-91.152406 H 184.1462 L 167.92796,77.270742 152.83118,32.847594 H 138.51079 M 60.714953,93.621652 h 12.23266 V 14.363943 H 60.645943 V 93.621622 Z M 0,14.363973 V 93.621652 H 12.318981 V 21.958575 h 11.387251 c 0,0 8.281694,0 11.111275,3.710585 2.415492,3.173087 2.864046,8.895027 2.864046,12.779036 0,3.883994 -0.275754,10.542256 -1.725354,12.883036 -2.087656,3.58923 -5.538361,4.30014 -8.626764,4.30014 h -7.522462 v 7.03973 h 10.817908 c 0,0 9.765456,0.39879 13.958082,-3.884 5.175984,-5.20175 6.452784,-12.32818 6.452784,-21.778074 0,-8.669628 -3.105638,-17.339244 -9.437624,-20.217563 C 36.335739,14.363973 26.86365,14.363973 26.86365,14.363973 H 0" />
</svg>
