<?xml version="1.0" encoding="UTF-8" standalone="no"?>
<svg xmlns="http://www.w3.org/2000/svg" xmlns:svg="http://www.w3.org/2000/svg" version="1.0" width="128" height="128" id="svgndsicon">
  <path id="ndsicon01" fill="#929497" d="m 20.81018,80.76434 c 0,0.445849 -0.36667,0.847106 -0.81828,0.847106 H 4.33285 c -0.45609,0 -0.82276,-0.401257 -0.82276,-0.847106 V 69.484064 c 0,-0.445848 0.36667,-0.802544 0.82276,-0.802544 H 19.9919 c 0.45161,0 0.81828,0.356696 0.81828,0.802544 z M 20.13051,65.293 H 4.18976 C 1.88248,65.293 0,67.165608 0,69.484064 V 80.808898 C 0,83.082796 1.88248,85 4.18976,85 h 15.94075 c 2.31175,0 4.18976,-1.917204 4.18976,-4.191102 V 69.484064 c 0,-2.318456 -1.87801,-4.191064 -4.18976,-4.191064"/>
  <path id="ndsicon00" fill="#221e1f" d="m 50.53644,48.751563 h -8.04863 v 30.407684 h 8.04863 c 12.35464,0 20.14839,-5.305752 20.14839,-15.159267 0,-9.85348 -7.79375,-15.248417 -20.14839,-15.248417 z m 21.60161,33.216579 c -3.97959,1.78346 -11.50953,2.942672 -18.09152,2.942672 H 28.8901 V 43.089148 h 25.15643 c 6.58199,0 14.11193,1.159245 18.10047,2.942668 9.68965,4.36943 12.8465,11.369461 12.8465,17.968164 0,6.598738 -3.13002,13.598731 -12.85545,17.968162 m 14.39363,-5.305714 c 3.7918,1.515908 11.80018,2.719744 18.05128,2.719744 6.84133,0 9.67178,-2.31849 9.67178,-5.261161 0,-2.675153 -2.62924,-4.191098 -10.18153,-6.955403 C 93.97218,63.464949 86.56299,60.522278 86.56299,53.878948 86.56299,47.057321 95.47908,43 109.06784,43 c 7.29742,0 9.80144,0.445844 14.43387,1.292984 l 0.0358,6.509554 c -4.55197,-0.847135 -8.58521,-2.31849 -14.84973,-2.31849 -6.71612,0 -9.57787,2.140123 -9.57787,4.32484 0,3.165629 4.40887,4.681537 12.14003,7.445875 10.76279,3.834401 16.75007,6.777068 16.75007,13.242032 C 128.00001,80.18472 120.50139,85 103.59033,85 96.64614,85 91.85722,84.554151 86.53171,83.662421 V 76.662428 M 20.81018,58.738855 c 0,0.401254 -0.36667,0.802544 -0.81828,0.802544 H 4.33285 c -0.45609,0 -0.82276,-0.40129 -0.82276,-0.802544 V 47.413984 c 0,-0.445844 0.36667,-0.802544 0.82276,-0.802544 H 19.9919 c 0.45161,0 0.81828,0.3567 0.81828,0.802544 z M 20.13051,43.22292 H 4.18976 C 1.88248,43.22292 0,45.095532 0,47.413984 v 11.324871 c 0,2.318457 1.88248,4.191065 4.18976,4.191065 h 15.94075 c 2.31175,0 4.18976,-1.872608 4.18976,-4.191065 V 47.413984 c 0,-2.318452 -1.87801,-4.191064 -4.18976,-4.191064"/>
</svg>
