<?xml version="1.0" encoding="UTF-8" standalone="no"?>
<svg xmlns="http://www.w3.org/2000/svg" xmlns:svg="http://www.w3.org/2000/svg" version="1.0" width="640" height="92" id="svg101576">
  <g id="logo">
    <path id="logo01" style="fill:#929497;stroke:none" d="m 406.97226,82.721889 c 0,0.976621 -0.79712,1.855566 -1.77892,1.855566 H 371.151 c -0.99153,0 -1.78864,-0.878945 -1.78864,-1.855566 V 58.012713 c 0,-0.976621 0.79711,-1.757955 1.78864,-1.757955 h 34.04234 c 0.9818,0 1.77892,0.781334 1.77892,1.757955 z m -1.47757,-33.889604 h -34.65476 c -5.01595,0 -9.10842,4.101904 -9.10842,9.180428 v 24.806778 c 0,4.980922 4.09247,9.180509 9.10842,9.180509 h 34.65476 c 5.02567,0 9.10841,-4.199587 9.10841,-9.180509 V 58.012713 c 0,-5.078524 -4.08274,-9.180428 -9.10841,-9.180428"/>
    <path id="logo00" style="fill:#221e1f;stroke:none" d="m 471.59634,12.598662 h -17.4975 v 66.607309 h 17.4975 c 26.85864,0 43.80205,-11.622124 43.80205,-33.206016 0,-21.583812 -16.94341,-33.401293 -43.80205,-33.401293 z m 46.96131,72.760127 c -8.65153,3.906626 -25.0214,6.445852 -39.33047,6.445852 H 424.53779 V 0.195277 h 54.68939 c 14.30907,0 30.67894,2.5392981 39.34992,6.445843 21.06504,9.571134 27.92795,24.904535 27.92795,39.358835 0,14.454381 -6.80458,29.787699 -27.9474,39.358834 m 31.29136,-11.622042 c 8.24326,3.320561 25.65325,5.957534 39.24297,5.957534 14.87287,0 21.02619,-5.078596 21.02619,-11.524448 0,-5.859858 -5.7159,-9.1805 -22.13436,-15.235644 C 566.02445,44.827984 549.91706,38.382132 549.91706,23.830077 549.91706,8.887466 569.30041,0 598.842,0 c 15.86438,0 21.30806,0.9766113 31.37884,2.8322498 l 0.0778,14.2590232 c -9.89585,-1.855629 -18.66402,-5.078596 -32.28291,-5.078596 -14.60065,0 -20.82202,4.687888 -20.82202,9.47346 0,6.934234 9.58475,10.254794 26.39209,16.310011 23.398,8.399164 36.41419,14.845008 36.41419,29.006356 C 639.99999,81.452244 623.6982,92 586.93402,92 571.83753,92 561.42655,91.023379 549.84904,89.070066 V 73.736747 M 406.97226,34.475588 c 0,0.878937 -0.79712,1.757954 -1.77892,1.757954 H 371.151 c -0.99153,0 -1.78864,-0.879017 -1.78864,-1.757954 V 9.668728 c 0,-0.976612 0.79711,-1.757954 1.78864,-1.757954 h 34.04234 c 0.9818,0 1.77892,0.781342 1.77892,1.757954 z M 405.49469,0.4883011 h -34.65476 c -5.01595,0 -9.10842,4.1019119 -9.10842,9.1804269 v 24.80686 c 0,5.078524 4.09247,9.180427 9.10842,9.180427 h 34.65476 c 5.02567,0 9.10841,-4.101903 9.10841,-9.180427 V 9.668728 c 0,-5.078515 -4.08274,-9.1804269 -9.10841,-9.1804269 M 336.00047,36.233542 H 311.58175 V 7.910774 h 24.41872 c 7.64057,0 10.35269,7.617821 10.35269,14.161347 0,6.445925 -2.71212,14.161421 -10.35269,14.161421 z M 349.04583,6.836478 c -3.11066,-4.1995867 -7.70862,-6.3481769 -13.26893,-6.3481769 0,0 -31.39828,0 -31.86488,0 0,0.4883102 0,42.6794039 0,43.1677139 0.4666,0 31.86488,0 31.86488,0 5.56031,0 10.15827,-2.246274 13.26893,-6.348178 2.91625,-3.808951 4.46186,-9.082824 4.46186,-15.235716 0,-6.152818 -1.54561,-11.426691 -4.46186,-15.235643 M 231.6571,0.4883011 c 0,0 1.14705,0 1.48727,0 0,0.3906355 0,7.0318369 0,7.4224729 -0.45687,0 -34.08122,0 -34.08122,0 v 9.668809 c 0,0 25.91573,0 26.36289,0 0,0.48831 0,6.934162 0,7.422544 -0.44716,0 -26.36289,0 -26.36289,0 v 11.231415 c 0,0 33.62435,0 34.08122,0 0,0.390636 0,6.934163 0,7.422473 -0.45687,0 -41.49821,0 -41.95509,0 0,-0.48831 0,-42.6794037 0,-43.1677139 0.45688,0 40.46782,0 40.46782,0 m -50.93716,0 c 0,0 1.10817,0 1.45812,0 0,0.3906355 0,7.0318369 0,7.4224729 -0.46659,0 -19.16946,0 -19.16946,0 0,0 0,35.256931 0,35.745241 -0.42772,0 -7.835,0 -8.26272,0 0,-0.48831 0,-35.745241 0,-35.745241 0,0 -18.70287,0 -19.16947,0 0,-0.390636 0,-7.0318374 0,-7.4224729 0.47632,0 45.14353,0 45.14353,0 m -114.939091,0 c 0,0 1.127621,0 1.46785,0 0,0.4883102 0,42.6794039 0,43.1677139 -0.418001,0 -7.523922,0 -7.951642,0 0,-0.48831 0,-42.6794037 0,-43.1677139 0.437438,0 6.483792,0 6.483792,0 M 252.8971,11.719725 c 0,0 0,31.44798 0,31.93629 -0.43743,0 -7.5142,0 -7.95164,0 0,-0.48831 0,-42.6794037 0,-43.1677139 0.44717,0 6.59072,0 6.78514,0 L 283.93571,31.93629 c 0,0 0,-30.9596787 0,-31.4479889 0.43744,0 6.37687,0 6.37687,0 0,0 1.13734,0 1.47757,0 0,0.4883102 0,42.6794039 0,43.1677139 -0.43745,0 -5.99776,0 -6.2019,0 L 252.8971,11.719725 m -165.224935,0 c 0,0 0,31.44798 0,31.93629 -0.42772,0 -7.51421,0 -7.951639,0 0,-0.48831 0,-42.6794037 0,-43.1677139 0.447156,0 6.580999,0 6.785126,0 L 118.71077,31.93629 c 0,0 0,-30.9596787 0,-31.4479889 0.43744,0 6.37686,0 6.37686,0 0,0 1.13734,0 1.47758,0 0,0.4883102 0,42.6794039 0,43.1677139 -0.43745,0 -5.99776,0 -6.21162,0 L 87.672165,11.719725 m -79.720525,0 c 0,0 0,31.44798 0,31.93629 -0.417996,0 -7.5239215,0 -7.95164,0 0,-0.48831 0,-42.6794037 0,-43.1677139 0.4471541,0 6.590724,0 6.794857,0 L 38.999969,31.93629 c 0,0 0,-30.9596787 0,-31.4479889 0.437432,0 6.367138,0 6.367138,0 0,0 1.127617,0 1.477567,0 0,0.4883102 0,42.6794039 0,43.1677139 -0.427711,0 -5.997746,0 -6.21161,0 L 7.95164,11.719725"/>
  </g>
</svg>
