<?xml version="1.0" encoding="UTF-8" standalone="no"?>
<!-- Created with Inkscape (http://www.inkscape.org/) -->

<svg
   width="127mm"
   height="17.286982mm"
   viewBox="0 0 127 17.286981"
   version="1.1"
   id="svg5"
   sodipodi:docname="system.svg"
   inkscape:version="1.2.1 (9c6d41e410, 2022-07-14, custom)"
   xmlns:inkscape="http://www.inkscape.org/namespaces/inkscape"
   xmlns:sodipodi="http://sodipodi.sourceforge.net/DTD/sodipodi-0.dtd"
   xmlns="http://www.w3.org/2000/svg"
   xmlns:svg="http://www.w3.org/2000/svg">
  <sodipodi:namedview
     id="namedview7"
     pagecolor="#686868"
     bordercolor="#666666"
     borderopacity="1.0"
     inkscape:showpageshadow="2"
     inkscape:pageopacity="0"
     inkscape:pagecheckerboard="true"
     inkscape:deskcolor="#d1d1d1"
     inkscape:document-units="mm"
     showgrid="false"
     inkscape:zoom="1.0062496"
     inkscape:cx="62.608721"
     inkscape:cy="211.6771"
     inkscape:window-width="1920"
     inkscape:window-height="1023"
     inkscape:window-x="1366"
     inkscape:window-y="29"
     inkscape:window-maximized="1"
     inkscape:current-layer="layer1" />
  <defs
     id="defs2" />
  <g
     id="layer1"
     transform="matrix(0.74999967,0,0,0.74999967,-15.392649,-37.172966)">
    <g
       aria-label="ALL GAMES"
       id="text236"
       style="font-size:35.1898px;line-height:1.25;fill:#ffffff;stroke-width:0.879747">
      <path
         d="M 27.561502,72.085449 H 20.523541 L 29.778459,50.091824 H 40.12426 l 1.548351,21.993625 h -7.073149 l -0.14076,-3.48379 h -5.524798 z m 6.017455,-15.237183 -2.463286,6.158215 h 2.815184 v -6.158215 z"
         style="font-weight:bold;font-family:'Changa One';-inkscape-font-specification:'Changa One Bold'"
         id="path11346" />
      <path
         d="M 57.367237,72.085449 H 43.995113 l 3.870878,-21.993625 h 6.686062 l -2.885564,16.363257 h 6.686062 z"
         style="font-weight:bold;font-family:'Changa One';-inkscape-font-specification:'Changa One Bold'"
         id="path11348" />
      <path
         d="M 72.358114,72.085449 H 58.98599 l 3.870878,-21.993625 h 6.686062 l -2.885564,16.363257 h 6.686062 z"
         style="font-weight:bold;font-family:'Changa One';-inkscape-font-specification:'Changa One Bold'"
         id="path11350" />
      <path
         d="m 92.979384,65.610526 0.175949,-0.950125 h -1.68911 l 0.950124,-5.384039 h 8.058463 l -2.076197,11.753393 q -4.293155,1.583541 -8.621501,1.583541 -4.328345,0 -6.263784,-1.7243 -1.900249,-1.7243 -1.900249,-5.31366 0,-1.513161 0.492657,-4.469104 1.055694,-6.123026 3.730119,-8.83264 2.674424,-2.709615 8.867829,-2.709615 1.302023,0 3.307842,0.281518 2.041004,0.281519 2.991134,0.633417 l -1.93544,5.384039 q -2.639235,-0.492657 -4.856193,-0.492657 -2.181768,0 -3.131892,0.351898 -0.950125,0.351898 -1.126074,1.407592 l -1.7243,9.958714 h 2.216957 q 1.196454,0 1.75949,-0.246329 0.598227,-0.281518 0.774176,-1.231643 z"
         style="font-weight:bold;font-family:'Changa One';-inkscape-font-specification:'Changa One Bold'"
         id="path11352" />
      <path
         d="M 106.63304,72.085449 H 99.595082 L 108.85,50.091824 h 10.3458 l 1.54835,21.993625 H 113.671 l -0.14076,-3.48379 h -5.5248 z m 6.01746,-15.237183 -2.46329,6.158215 h 2.81519 v -6.158215 z"
         style="font-weight:bold;font-family:'Changa One';-inkscape-font-specification:'Changa One Bold'"
         id="path11354" />
      <path
         d="m 129.40082,72.085449 h -6.96758 l 5.13771,-21.993625 h 8.72707 l 0.63342,11.190357 h 0.24633 l 4.57467,-11.190357 h 8.72707 l -2.60405,21.993625 h -7.00277 l 1.47798,-10.662509 h -0.24633 l -4.39873,10.662509 h -5.10252 L 131.86411,61.42294 h -0.17595 z"
         style="font-weight:bold;font-family:'Changa One';-inkscape-font-specification:'Changa One Bold'"
         id="path11356" />
      <path
         d="m 166.42052,63.780656 h -6.68606 l -0.45747,2.674425 h 8.19922 l -0.98531,5.630368 h -14.88529 l 3.87088,-21.993625 h 14.70934 l -1.82987,5.630368 h -7.21391 l -0.49266,2.955943 h 6.68606 z"
         style="font-weight:bold;font-family:'Changa One';-inkscape-font-specification:'Changa One Bold'"
         id="path11358" />
      <path
         d="m 169.62281,71.698361 1.97063,-5.806317 q 2.95595,0.809366 5.41923,0.809366 2.46329,0 3.97645,-0.211139 l 0.28152,-1.75949 -2.92076,-0.281518 q -3.34303,-0.316709 -4.75062,-1.513162 -1.3724,-1.196453 -1.3724,-3.378221 0,-0.950124 0.21114,-2.111388 0.80936,-4.504294 2.92075,-6.193405 2.14658,-1.68911 6.61568,-1.68911 4.46911,0 7.88252,0.879745 l -1.82987,5.630368 q -3.06151,-0.527847 -4.92657,-0.527847 -1.86506,0 -3.16708,0.175949 l -0.28152,1.7243 2.35771,0.246329 q 3.58936,0.387088 5.10253,1.7243 1.51316,1.302023 1.51316,3.51898 0,2.252147 -0.98532,4.645054 -0.49266,1.231643 -1.09088,2.076198 -0.56304,0.809365 -1.47797,1.407592 -0.87975,0.563037 -1.61873,0.879745 -0.73899,0.281518 -1.86506,0.422278 -1.65392,0.246328 -4.04683,0.246328 -4.36354,0 -7.91771,-0.914935 z"
         style="font-weight:bold;font-family:'Changa One';-inkscape-font-specification:'Changa One Bold'"
         id="path11360" />
    </g>
  </g>
</svg>
