<?xml version="1.0" encoding="UTF-8" standalone="no"?>
<svg
     version="1.1"
     id="svgpsxicon"
     width="128"
     height="128"
     xmlns="http://www.w3.org/2000/svg"
     xmlns:svg="http://www.w3.org/2000/svg">
     <path
          id="psxicon04"
          fill="#de0029"
          d="M 69.062894,34.794728 68.978923,114 48.340939,107.09819 V 14 l 26.34321,7.161648 C 91.546632,25.821756 101.86602,34.880269 101.69807,50.756127 101.5304,69.220935 93.224717,76.640276 77.032949,71.808558 V 35.397525 c 0,-4.400541 -7.970055,-4.658235 -7.970055,-0.602797 z"  />
     <path
          id="psxicon03"
          fill="#f3c202"
          d="m 38.860211,91.738243 -9.732119,3.365774 c -6.293015,2.243848 -11.661586,-3.01906 -5.872909,-5.177366 l 4.697861,-1.72445 -17.702179,-5.782034 c -5.4535824,1.899012 -10.57154808,5.954184 -10.23515088,11.649071 0.335617,5.780165 13.17121788,7.161382 23.07179288,8.800822 9.228038,1.5523 17.617692,0.68967 25.253177,-2.07142 V 94.844718 Z M 69.1466,114 87.184393,107.52829 68.978925,101.57572 v 11.99204 z" />
     <path
          id="psxicon02"
          fill="#326db3"
          d="m 117.13543,96.657916 0.33535,-0.08687 c 7.88635,-2.846369 11.24227,-6.816805 10.40386,-10.525538 -1.34245,-6.211877 -10.99061,-9.577642 -25.84067,-10.699571 -10.654498,-0.776019 -21.141288,1.639182 -31.376704,5.262641 l -1.678085,0.604671 18.37341,5.867037 10.738456,-3.710603 c 11.242253,-2.156434 15.773473,1.639439 4.950283,5.177364 l -5.369613,1.897133 z m -68.79449,-27.436981 -8.138779,2.846382 8.138779,2.588677 z" />
     <path
          id="psxicon01"
          fill="#00aa9e"
          d="M 87.184393,107.52829 117.13543,96.657916 97.671197,90.444175 68.978925,100.53907 v 1.03665 z M 48.34094,88.459891 l -9.48047,3.278627 9.48047,3.1062 z m 20.637985,5.092094 V 81.213244 l 18.37341,5.867037 z M 27.953306,88.202201 48.340684,80.695712 V 74.655994 L 40.202161,72.067317 10.670455,82.334898 c -0.08397,0 -0.25165,0.08527 -0.419329,0.08527 z" />
</svg>
