<?xml version="1.0" encoding="UTF-8" standalone="no"?>
<svg
     version="1.1"
     id="svgpsxlogo"
     width="640"
     height="132"
     xmlns="http://www.w3.org/2000/svg"
     xmlns:svg="http://www.w3.org/2000/svg">
     <path
          id="psxlogo"
          fill="#000000"
          d="m 172.97927,23.02714 -0.19211,0.28851 24.59924,72.11489 c 0.0408,0.162069 0.0408,0.411369 -0.01,0.569899 L 183.52553,131.70615 C 183.46689,131.87533 183.54335,132 183.707,132 h 14.42368 c 0.1779,0 0.36468,-0.12464 0.42338,-0.29385 L 241.7362,23.31565 c 0.0606,-0.172761 -0.0159,-0.28851 -0.18501,-0.28851 h -15.73655 c -0.17078,0 -0.35044,0.12994 -0.40381,0.28851 L 207.12858,70.7042 h -0.2046 l -16.1404,-47.38855 c -0.0374,-0.172761 -0.22238,-0.28851 -0.38781,-0.28851 m 419.75614,0 h -29.5898 c -0.15477,0 -0.29176,0.12994 -0.29176,0.29742 l -0.009,72.78095 0.27752,0.297399 h 16.60822 l 0.28109,-0.297399 -0.0232,-62.48367 0.11562,-0.12105 12.61626,-0.009 c 3.41203,0 7.15491,0.550309 9.54939,4.5004 2.18988,3.56896 3.18254,9.84315 3.18254,19.689869 0.0143,0.425641 -0.0129,38.423401 -0.0129,38.423401 0,0.15316 0.13167,0.297409 0.29529,0.297409 h 16.5371 c 0.17966,0 0.31131,-0.144249 0.31131,-0.297409 V 59.60579 c 0,-17.10575 -3.4138,-36.57837 -29.84894,-36.57837 M 495.44339,9e-5 H 478.8654 l -0.30243,0.28851 v 13.91426 c 0,0.16917 0.14767,0.29385 0.30243,0.29385 h 16.57799 c 0.18145,0 0.30597,-0.12465 0.30597,-0.29385 V 0.2885 C 495.74936,0.13357 495.62486,0 495.44339,0 m 0,23.02732 H 478.8654 c -0.15476,0 -0.30243,0.12995 -0.30243,0.29742 v 72.780949 l 0.30243,0.29741 h 16.57799 c 0.18145,0 0.30597,-0.14425 0.30597,-0.29741 V 23.32474 c 0,-0.16741 -0.1245,-0.29742 -0.30597,-0.29742 m -27.4153,0 h -17.90153 l -0.12091,-0.11044 V 10.84222 l -0.27397,-0.29563 H 433.1181 c -0.16366,0 -0.30597,0.1354 -0.30597,0.29563 V 74.4247 c 0,12.735399 7.91631,21.978369 18.82836,21.978369 h 11.87089 c 0.17791,0 0.29354,-0.14425 0.29354,-0.297409 v -9.919721 c 0,-0.16208 -0.11563,-0.31524 -0.29354,-0.31524 h -7.28833 c -1.87323,-0.0285 -6.2174,-0.12292 -6.2174,-9.50657 V 33.55966 l 0.0996,-0.0961 c 5.47203,0.0285 17.92288,0 17.92288,0 l 0.2953,-0.27247 v -9.8663 c 0,-0.167421 -0.14942,-0.29742 -0.2953,-0.29742 m -115.78637,0 h -18.00293 l -0.0943,-0.11044 V 10.84227 c 0,-0.16028 -0.12279,-0.29564 -0.28996,-0.29564 H 317.2748 c -0.16899,0 -0.31665,0.1354 -0.31665,0.29564 v 63.582479 c 0,12.73538 7.93054,21.97835 18.8497,21.97835 h 11.87447 c 0.17077,0 0.30241,-0.14424 0.30241,-0.29739 v -9.91975 c 0,-0.16206 -0.13167,-0.31522 -0.30241,-0.31522 h -7.29012 c -1.86791,-0.0285 -6.24766,-0.12292 -6.26544,-9.506559 V 33.55971 l 0.10129,-0.0961 c 5.51475,0.0285 18.01362,0 18.01362,0 l 0.29174,-0.27247 v -9.86631 c 0,-0.167411 -0.13697,-0.29741 -0.29174,-0.29741 m 66.67309,0.29563 c 0,-0.1692 -0.14055,-0.29742 -0.29709,-0.29742 h -29.61946 c -26.44401,0 -29.86669,19.47438 -29.86669,36.58903 l 0.0213,14.80126 c 0,12.73716 7.90565,21.985499 18.84082,21.985499 h 16.0799 l 0.29886,-0.29563 V 86.17534 c 0,-0.162051 -0.14055,-0.30632 -0.29886,-0.30632 l -11.52402,0.0196 c -2.64351,-0.0553 -6.18361,-1.17897 -6.19429,-10.311531 V 59.59688 c 0,-10.61966 0.998,-17.40853 3.14874,-21.271341 2.38734,-4.263519 6.16761,-4.83521 9.48889,-4.83521 h 12.65364 l 0.1245,0.149611 -0.0302,62.465859 c 0,0.151371 0.13697,0.29563 0.30241,0.29563 h 16.58866 c 0.16368,0 0.28286,-0.144259 0.28286,-0.29563 M 283.0017,40.09756 274.82923,39.47425 c -6.12846,-0.52896 -10.68612,-3.92695 -10.68612,-13.98026 0,-11.73806 5.25857,-14.94907 12.27828,-14.94907 h 22.61929 l 0.30064,-0.29206 V 0.28859 l -0.30064,-0.28672 h -0.47321 l -24.50497,0.006 c -15.43767,0 -26.41555,9.0773499 -26.41555,27.16797 v 0.78717 c 0,14.27408 8.77376,24.57672 21.849,25.5776 l 8.13334,0.603739 c 6.20496,0.470151 10.06884,6.024861 10.06884,14.45396 v 2.370411 c 0,5.269749 -1.31643,14.91167 -12.60562,14.91167 h -23.50164 c -0.15834,0 -0.29531,0.13712 -0.29531,0.30631 v 9.917959 l 0.29531,0.297401 h 29.17826 c 8.99077,0 24.04601,-3.64199 24.04601,-28.140351 0,-8.876099 -2.01377,-15.87157 -6.09646,-20.927609 -3.47961,-4.34188 -8.63499,-6.69093 -15.71698,-7.235891 M 163.62202,23.32351 c 0,-0.16918 -0.14941,-0.2974 -0.31308,-0.2974 h -29.55363 c -26.50095,0 -29.88805,19.47439 -29.88805,36.58903 l 0.0195,14.80124 c 0,12.737169 7.91274,21.98551 18.791,21.98551 h 16.12436 l 0.29176,-0.29563 v -9.93044 c 0,-0.16205 -0.13697,-0.30631 -0.29176,-0.30631 l -11.51689,0.0196 c -2.65419,-0.0553 -6.22631,-1.178969 -6.22631,-10.311549 V 59.597329 c -0.0129,-10.619619 0.97486,-17.408499 3.17719,-21.271319 2.38557,-4.26352 6.14093,-4.8352 9.51915,-4.8352 h 12.5967 l 0.10674,0.14959 -0.0159,62.46586 c 0,0.151359 0.12808,0.29563 0.30419,0.29563 h 16.56554 c 0.16366,0 0.30953,-0.144271 0.30953,-0.29563 M 91.243836,5.5e-4 H 74.648045 c -0.188569,0 -0.323769,0.13354 -0.323769,0.28852 v 95.81719 c 0,0.15493 0.13525,0.2974 0.323769,0.2974 h 16.595791 l 0.304189,-0.2974 V 0.28907 L 91.243836,5.5e-4 m -50.01679,0.0179 -40.922849,-0.0178 C 0.135207,6.4999999e-4 0,0.13418 0,0.28916 v 95.81719 c 0,0.15316 0.13525,0.29741 0.304197,0.29741 h 16.58511 l 0.291747,-0.29741 0.01949,-85.4166 0.09786,-0.14243 18.990232,-0.0357 c 6.91477,0 10.71281,6.97587 10.71281,19.61685 0,12.648119 -3.79804,19.64001 -10.71281,19.64001 l -11.429717,-0.0129 c -0.170781,0 -0.286403,0.12994 -0.286403,0.29384 v 9.94112 c 0,0.194099 0.115622,0.311669 0.286403,0.311669 h 16.368066 c 5.774461,0 11.42973,-2.678519 15.510631,-7.282199 4.83518,-5.46386 7.380849,-13.35158 7.380849,-22.80472 0,-18.31855 -8.937429,-30.19731 -22.89148,-30.19731 M 548.54487,81.05164 c -2.60971,4.302719 -6.75286,4.87795 -10.51178,4.87795 -3.72155,0 -7.87716,-0.575231 -10.51536,-4.87795 -2.37843,-3.87172 -3.4796,-10.655251 -3.4796,-21.351471 v -0.08549 c 0,-12.62316 1.55123,-19.794941 5.02196,-23.21074 2.07602,-2.07299 4.76756,-2.913601 8.973,-2.913601 4.26592,0 6.93078,0.840611 9.00503,2.913601 3.44047,3.415799 4.99527,10.617839 4.99527,23.296239 0,10.71048 -1.10472,17.49935 -3.48852,21.351471 M 538.03302,23.02744 c -27.69462,0 -31.23473,19.56521 -31.23473,36.672749 0,17.12713 3.54011,36.756461 31.23473,36.756461 27.69641,0 31.22761,-19.629331 31.22761,-36.756461 0,-17.107539 -3.5312,-36.672749 -31.22761,-36.672749" />
</svg>
