<?xml version="1.0" encoding="UTF-8" standalone="no"?>
<svg xmlns="http://www.w3.org/2000/svg" xmlns:svg="http://www.w3.org/2000/svg" version="1.1" id="svgdreamcastlogo" width="640" height="108" viewBox="0 0 640 108">
     <path id="dreamcastlogo" fill="#000000" d="m 167.50001,69.398228 c 0.009,-1.830351 0.25142,-3.573839 0.45939,-5.261487 h 52.51621 c 0,-18.046014 -9.02636,-33.526438 -30.41899,-33.526438 -22.20276,0 -35.38225,17.3542 -35.38225,39.489041 0,20.019077 14.67559,37.900656 39.80852,37.900656 7.94618,0 14.59182,-1.95752 21.76199,-4.46418 l 2.52354,-12.796939 c -6.13346,5.047424 -16.05067,8.034923 -24.99634,8.034923 -16.08792,-0.003 -26.34657,-11.639782 -26.27207,-29.375576 z m 2.12,-13.265395 c 1.7041,-8.782574 9.83031,-17.72338 19.55819,-17.72338 14.86494,0 19.16706,11.593258 19.16706,17.726478 -0.003,-0.003 -38.72525,0.02179 -38.72525,-0.003 v 0 z M 471.34228,44.19832 c -5.11225,-2.981291 -13.1764,-5.348348 -18.80081,-5.348348 -19.7444,0 -28.79561,12.13926 -28.79561,29.620672 0,17.32008 8.84324,30.579269 28.15929,30.579269 6.6208,0 15.63475,-2.968888 22.62801,-7.265562 l -2.84634,12.741109 c -7.11743,2.11575 -13.11741,3.124 -21.0605,3.124 -27.14429,0 -39.86439,-19.237307 -39.86439,-39.256373 0,-22.131733 17.06567,-37.689716 40.15926,-37.689716 10.09416,0 17.4661,2.475618 20.44282,3.319438 l -0.0218,10.175511 v 0 z M 274.27377,65.172904 c -2.28764,2.149886 -7.08017,3.822024 -12.02791,4.47041 -12.99636,1.703148 -24.2545,3.862339 -24.2545,16.516588 0,7.504431 8.1821,13.414294 14.6694,13.414294 17.17742,0 21.61611,-12.384335 21.61611,-22.144145 V 65.172904 h -0.003 z M 233.69855,34.205847 c 6.55561,-2.627633 17.13707,-3.831326 23.76718,-3.831326 16.94151,0 28.19653,8.459939 28.19653,28.100542 v 32.577149 c 0,6.037051 0.09,11.748358 2.24419,15.762738 h -13.62026 l -0.48731,-8.568527 c -5.15881,6.651297 -11.31711,9.629497 -21.77752,9.629497 -20.63215,0 -25.13913,-14.0906 -25.13913,-20.865992 0,-24.163732 23.01291,-24.449147 33.00461,-25.87 5.52819,-0.784882 12.64561,-2.345329 13.71338,-7.52615 1.76615,-8.571638 -4.36731,-14.996481 -16.89185,-14.996481 -9.19089,0 -16.72115,2.792066 -23.00981,6.555141 z m 292.71452,30.967057 c -2.28764,2.149886 -7.08329,3.822024 -12.03102,4.47041 -12.99325,1.703148 -24.25448,3.862339 -24.25448,16.516588 0,7.504431 8.18206,13.414294 14.6694,13.414294 17.17741,0 21.6161,-12.384335 21.6161,-22.144145 z M 485.83785,34.205847 c 6.55561,-2.627633 17.13706,-3.831326 23.76717,-3.831326 16.94152,0 28.19656,8.459939 28.19656,28.100542 v 32.577149 c 0,6.037051 -1.3161,11.627378 2.24108,15.762738 h -13.62028 l -0.48733,-8.568527 c -5.1588,6.651297 -11.31711,9.629497 -21.77439,9.629497 -20.62905,0 -25.13912,-14.0906 -25.13912,-20.865992 0,-24.163732 23.01288,-24.449147 33.00459,-25.87 5.5313,-0.784882 12.6487,-2.345329 13.71338,-7.52615 1.76307,-8.571638 -4.3673,-14.996481 -16.89186,-14.996481 -9.19087,0 -16.72112,2.792066 -23.0098,6.555141 z m -173.75139,6.331784 c 0,-0.877962 0.0341,-8.742257 0.0341,-9.750507 l -16.03516,2.478728 c 1.93068,2.022704 3.41438,8.338966 3.41438,12.849691 V 98.6342 c 0,1.79004 -0.76668,6.13633 -2.43043,8.18386 h 17.48472 c -1.66373,-2.04753 -2.43041,-6.39382 -2.43041,-8.18386 V 59.117232 c 0,-14.456665 8.94877,-19.516511 17.85409,-19.516511 8.06104,0 15.34607,3.486985 15.34607,19.516511 V 98.6342 c 0,1.79004 -0.76979,6.13633 -2.43043,8.18386 h 16.95704 C 358.18668,104.77053 357.42,100.42424 357.42,98.6342 V 59.117232 c 0,-16.029526 9.91102,-19.516511 17.98134,-19.516511 8.05796,0 16.49146,5.056738 16.49146,19.516511 V 98.6342 c 0,1.79004 -0.76668,6.13633 -2.4304,8.18386 h 16.32382 c -1.66372,-2.04753 -2.43042,-6.39382 -2.43042,-8.18386 V 51.6159 c 0,-8.013215 -8.17588,-20.850483 -27.28396,-20.850483 -11.11224,0 -17.52819,4.938842 -22.40143,9.19207 -4.1438,-4.83336 -10.89184,-9.368904 -21.73096,-9.368904 -10.56905,0 -16.80493,6.185963 -19.85304,9.949048 v 0 z m 233.04981,50.706915 c 6.27623,4.479713 16.12207,8.456841 23.34502,8.456841 10.01965,0 17.18983,-4.87059 17.18983,-14.037853 0,-16.926095 -38.6104,-14.124725 -38.6104,-35.598777 0,-14.518711 12.99017,-19.978738 25.37194,-19.978738 3.97621,0 13.05843,0.862428 18.83803,3.096068 l -0.0497,9.914925 c -5.12779,-4.380437 -12.95911,-5.441418 -18.11792,-5.441418 -8.19449,0 -14.34038,4.060902 -14.34038,12.02757 0,11.698741 38.57624,11.02244 38.57624,35.02797 0,15.523856 -13.46195,22.764596 -28.27103,22.764596 -7.21985,0 -14.74078,-1.28124 -21.00772,-3.07127 z m 63.09147,-50.858933 c 0,1.026859 0,44.821889 0,48.097891 0,15.092636 10.41074,19.131826 18.12723,19.131826 3.26538,0.16133 7.881,-0.60183 11.10914,-1.31846 l 1.98966,-9.319285 c -3.76513,1.433246 -8.13864,1.774501 -10.75839,1.774501 -4.836,0 -8.33419,-3.207759 -8.33419,-8.224158 0,-4.50453 -0.11485,-48.650111 0,-50.064767 h -0.0527 c 0.64564,0 10.67459,-0.03408 11.68647,0 3.29333,0.117895 5.81998,0.319545 7.99275,1.19129 l 0.0123,-8.776377 c 0,0 -19.26949,-0.02479 -19.64197,-0.02479 l 0.0776,-22.510216 -14.6011,4.032978 c 2.01758,1.879983 2.66941,7.389654 2.66941,11.019331 0,0 -0.009,6.725757 -0.009,7.538564 -0.65805,0 -8.06413,0.03419 -9.29332,0.03419 V 40.3857 c 1.29746,-0.003 9.02638,0 9.02638,0 v 0 z m -500.75557,-7.554074 15.83961,-2.47253 c 0,3.23879 0,12.744209 0,13.938588 4.06311,-10.03281 16.70249,-18.095658 34.6683,-11.109303 l -4.21207,11.019331 c -16.44178,-7.796042 -30.45623,-0.955497 -30.45623,17.292167 v 37.655593 c 0,1.790035 0.38799,5.410395 1.46197,7.730915 h -16.45421 c 1.66374,-2.04751 2.43043,-5.94088 2.43043,-7.730915 V 44.837392 c 0,-3.9399 -0.80082,-10.039007 -3.2778,-12.005853 z M 3.0698351,10.147588 C 3.0698351,6.5737497 2.3900636,1.9451378 0.81013845,0 11.1557,0 33.50745,0.06826272 43.089432,0.06826272 c 22.044457,0 55.300485,12.22922128 55.300485,53.45245628 0,30.597888 -23.475387,53.393511 -55.300485,53.393511 -6.980847,0 -33.634713,-0.0807 -43.089432,-0.0807 1.9399868,-3.57694 3.0698351,-8.428925 3.0698351,-12.260242 z M 18.921855,96.447095 C 29.096696,97.762456 38.489336,98.168864 46.98803,96.952768 55.210469,95.780099 82.838984,89.836116 82.668264,53.170151 82.503753,18.424498 61.036639,10.485742 44.492431,9.5116252 35.860266,9.0028531 27.526083,9.325487 18.921855,10.817691 Z"/>
</svg>
