<?xml version="1.0" encoding="UTF-8" standalone="no"?>
<!-- Created with Inkscape (http://www.inkscape.org/) -->

<svg
   width="278.34167mm"
   height="71.706497mm"
   viewBox="0 0 278.34167 71.706497"
   version="1.1"
   id="svg5"
   inkscape:version="1.2.1 (9c6d41e410, 2022-07-14, custom)"
   sodipodi:docname="system.svg"
   xmlns:inkscape="http://www.inkscape.org/namespaces/inkscape"
   xmlns:sodipodi="http://sodipodi.sourceforge.net/DTD/sodipodi-0.dtd"
   xmlns="http://www.w3.org/2000/svg"
   xmlns:svg="http://www.w3.org/2000/svg">
  <sodipodi:namedview
     id="namedview7"
     pagecolor="#bfbfbf"
     bordercolor="#666666"
     borderopacity="1.0"
     inkscape:showpageshadow="2"
     inkscape:pageopacity="0"
     inkscape:pagecheckerboard="true"
     inkscape:deskcolor="#d1d1d1"
     inkscape:document-units="mm"
     showgrid="false"
     inkscape:zoom="0.53039953"
     inkscape:cx="810.70962"
     inkscape:cy="588.23582"
     inkscape:window-width="1920"
     inkscape:window-height="1023"
     inkscape:window-x="1366"
     inkscape:window-y="29"
     inkscape:window-maximized="1"
     inkscape:current-layer="layer1" />
  <defs
     id="defs2" />
  <g
     inkscape:label="Layer 1"
     inkscape:groupmode="layer"
     id="layer1"
     transform="translate(133.18837,16.576767)">
    <path
       id="Selection"
       fill="none"
       stroke="#000000"
       stroke-width="1"
       d="m -133.18837,-16.575543 c 0,0 8.20209,0 8.20209,0 0,0 1.21444,7.6729166 1.21444,7.6729166 0,0 2.3786,13.7583333 2.3786,13.7583333 0,0 1.94204,11.3770831 1.94204,11.3770831 0,0 1.34408,6.879167 1.34408,6.879167 0,0 1.47903,-8.73125 1.47903,-8.73125 0,0 3.30464,-19.5791671 3.30464,-19.5791671 0,0 1.83092,-11.3770829 1.83092,-11.3770829 0,0 8.20208,0 8.20208,0 0,0 -2.85485,13.7583329 -2.85485,13.7583329 0,0 -7.35807,35.4541671 -7.35807,35.4541671 0,0 -3.06916,14.816667 -3.06916,14.816667 -0.33073,1.653645 -0.98954,5.916083 -1.79917,7.14375 0,0 -1.20385,-5.820834 -1.20385,-5.820834 0,0 -2.7649,-13.229166 -2.7649,-13.229166 0,0 -7.25487,-34.9250001 -7.25487,-34.9250001 0,0 -2.11667,-10.054167 -2.11667,-10.054167 0,0 -1.47638,-7.1437499 -1.47638,-7.1437499 z m 33.337505,0 c 0,0 7.9375,0 7.9375,0 0,0 0,71.702083 0,71.702083 0,0 -7.9375,0 -7.9375,0 0,0 0,-71.702083 0,-71.702083 z m 15.08125,0 c 0,0 13.758333,0 13.758333,0 0.846667,0 1.553104,-0.02646 2.38125,0.209021 3.167063,0.899583 7.122584,4.553479 8.03275,7.7284789 0.198438,0.682625 0.169334,1.412875 0.169334,2.116667 0,0 0,18.7854161 0,18.7854161 -0.0053,2.682875 -1.002771,4.429125 -2.93423,6.305021 -0.918104,0.891646 -3.286125,2.156354 -3.254375,3.495146 0,0 2.251605,8.720667 2.251605,8.720667 0,0 3.976687,15.08125 3.976687,15.08125 0,0 2.341563,9.260416 2.341563,9.260416 0,0 -5.291667,0 -5.291667,0 0,0 -1.926167,-0.261937 -1.926167,-0.261937 0,0 -0.896937,-2.119313 -0.896937,-2.119313 0,0 -1.849438,-6.085416 -1.849438,-6.085416 0,0 -5.455708,-17.991667 -5.455708,-17.991667 0,0 -3.100917,-9.789583 -3.100917,-9.789583 0,0 0,36.247916 0,36.247916 0,0 -8.202083,0 -8.202083,0 0,0 0,-71.702083 0,-71.702083 z m 26.722917,0 c 0,0 24.341666,0 24.341666,0 0,0 0,5.291667 0,5.291667 0,0 -0.269875,1.6933329 -0.269875,1.6933329 0,0 -2.111375,0.4233333 -2.111375,0.4233333 0,0 -5.820833,0 -5.820833,0 0,0 0,64.2937498 0,64.2937498 0,0 -7.9375,0 -7.9375,0 0,0 0,-64.2937498 0,-64.2937498 0,0 -6.35,0 -6.35,0 0,0 -1.582208,-0.4233333 -1.582208,-0.4233333 0,0 -0.269875,-1.9579169 -0.269875,-1.9579169 0,0 0,-5.027083 0,-5.027083 z m 27.252083,0 c 0,0 8.20208,0 8.20208,0 0,0 0,63.5 0,63.5 0,0 8.20209,0 8.20209,0 0,0 0,-63.5 0,-63.5 0,0 7.9374996,0 7.9374996,0 0,0 0,61.9125 0,61.9125 0,0.706437 0.0264,1.42875 -0.16669,2.116667 -0.78581,2.756958 -3.8391096,5.688541 -6.4478996,6.754812 -1.85473,0.756708 -3.57981,0.939271 -5.55625,0.918104 -4.2836,-0.05027 -8.35554,-2.272771 -10.75266,-5.820833 -0.44715,-0.661458 -1.02923,-1.616604 -1.24884,-2.38125 -0.19843,-0.682625 -0.16933,-1.412875 -0.16933,-2.116667 0,0 0,-61.383333 0,-61.383333 z m 59.79583,0 c 0,0 8.20209,0 8.20209,0 0,0 0,49.477083 0,49.477083 0,0 0,12.964584 0,12.964584 0.0397,2.156354 0.73554,2.11402 2.64583,2.116666 0,0 7.40833,0 7.40833,0 0.56357,0.0053 1.45786,-0.06879 1.84679,0.423334 0.33073,0.420687 0.26988,1.431395 0.26988,1.957916 0,0 0,4.7625 0,4.7625 0,0 -20.37292,0 -20.37292,0 0,0 0,-71.702083 0,-71.702083 z m 29.10417,0 c 0,0 14.55208,0 14.55208,0 0.70909,0 1.42875,-0.02646 2.11667,0.166687 2.89719,0.8255 6.25475,3.876146 7.26281,6.7124796 0.4154,1.1641666 0.40746,1.9711458 0.41011,3.1750003 0,0 0,20.9020831 0,20.9020831 -0.0291,2.378604 -0.64559,4.016375 -3.175,4.497917 0.18785,2.259541 1.30439,1.537229 2.46062,3.185583 0.74613,1.066271 0.71173,2.196042 0.71438,3.429 0,0 0,20.6375 0,20.6375 -0.008,5.357812 -4.33388,8.987896 -9.525,8.995833 0,0 -14.81667,0 -14.81667,0 0,0 0,-71.702083 0,-71.702083 z m 40.74583,0.116417 c 6.265335,-0.804334 14.276915,2.759604 14.287495,9.9377499 0,0 0,51.8583331 0,51.8583331 -0.003,1.227667 -0.0344,2.25425 -0.42333,3.439583 -1.87325,5.720292 -7.94015,6.408209 -13.070415,6.35 -5.82083,-0.06879 -10.83733,-3.264958 -10.81352,-9.525 0,0 0,-52.1229161 0,-52.1229161 -0.0344,-0.5794378 -0.0529,-1.291167 0,-1.8520837 0.99484,-4.2915412 5.97959,-7.3289582 10.01977,-8.0856662 z m 16.668745,-0.116417 c 0,0 7.40834,0 7.40834,0 0,0 1.47637,6.35 1.47637,6.35 0,0 3.7809,15.6104169 3.7809,15.6104169 0,0 1.88648,8.4666661 1.88648,8.4666661 0,0 0.52916,0 0.52916,0 0,0 1.88384,-9.2604161 1.88384,-9.2604161 0,0 3.14325,-14.2875003 3.14325,-14.2875003 0,0 1.02658,-4.7624996 1.02658,-4.7624996 0,0 0.75142,-1.85473 0.75142,-1.85473 0,0 1.92616,-0.261937 1.92616,-0.261937 0,0 5.82084,0 5.82084,0 0,0 -2.87073,11.3770829 -2.87073,11.3770829 0,0 -5.56419,20.9020841 -5.56419,20.9020841 -0.84667,3.201458 -2.67229,8.54075 -2.67758,11.641666 0,0 0,27.78125 0,27.78125 0,0 -8.20209,0 -8.20209,0 0,0 0,-28.045833 0,-28.045833 -0.005,-3.151188 -1.97114,-9.604375 -2.81252,-12.964583 0,0 -4.56671,-18.5208341 -4.56671,-18.5208341 0,0 -2.93952,-12.1708329 -2.93952,-12.1708329 z m -104.774995,0.529167 c 0,0 1.75948,7.4083329 1.75948,7.4083329 0,0 3.74386,17.727083 3.74386,17.727083 0,0 7.03791,33.6020841 7.03791,33.6020841 0,0 2.54,12.435416 2.54,12.435416 0,0 -6.35,0 -6.35,0 0,0 -1.58485,-0.423333 -1.58485,-0.423333 0,0 -0.60325,-2.751667 -0.60325,-2.751667 0,0 -0.9869,-6.35 -0.9869,-6.35 0,0 -9.5250004,0 -9.5250004,0 -0.68262,0.01323 -1.37583,-0.02117 -1.8071,0.611188 -0.32544,0.47625 -0.53181,2.185458 -0.64029,2.828396 0,0 -0.99219,6.085416 -0.99219,6.085416 0,0 -8.20208,0 -8.20208,0 0,0 1.43404,-6.35 1.43404,-6.35 0,0 2.64583004,-12.170833 2.64583004,-12.170833 0,0 7.97982996,-36.5125001 7.97982996,-36.5125001 0,0 3.5507104,-16.1395829 3.5507104,-16.1395829 z m -79.374997,6.8791662 c 0,0 -7.9375,0 -7.9375,0 0,0 0,24.8708338 0,24.8708338 0,0 7.9375,0 7.9375,0 0,0 0,-24.8708338 0,-24.8708338 z m 143.139587,0.79375 c 0,0 -8.20209,0 -8.20209,0 0,0 0,24.0770838 0,24.0770838 0,0 6.08542,0 6.08542,0 0,0 1.69333,-0.269875 1.69333,-0.269875 0,0 0.42334,-2.111375 0.42334,-2.111375 0,0 0,-21.6958338 0,-21.6958338 z m 30.427075,0 c 0,0 -7.937495,0 -7.937495,0 0,0 0,56.0916668 0,56.0916668 0,0 7.937495,0 7.937495,0 0,0 0,-56.0916668 0,-56.0916668 z M 11.009555,14.909874 c -0.74084,1.137708 -1.3811304,6.043083 -1.6536504,7.672916 0,0 -2.84427,16.404167 -2.84427,16.404167 0,0 7.9375004,0 7.9375004,0 0,0 -0.72231,-5.291667 -0.72231,-5.291667 0,0 -2.71727,-18.785416 -2.71727,-18.785416 z m 63.5,32.808333 c 0,0 0,-18.785417 0,-18.785417 0,0 0,-4.233333 0,-4.233333 0,0 -0.42334,-1.582208 -0.42334,-1.582208 0,0 -1.95791,-0.269875 -1.95791,-0.269875 0,0 -5.82084,0 -5.82084,0 0,0 0,24.870833 0,24.870833 0,0 8.20209,0 8.20209,0 z"
       style="fill:#ffffff;fill-opacity:1;stroke:none" />
  </g>
</svg>
