<?xml version="1.0" encoding="UTF-8" standalone="no"?>
<!-- Generator: Adobe Illustrator 16.0.3, SVG Export Plug-In . SVG Version: 6.00 Build 0)  -->

<svg
   version="1.1"
   id="svg1354"
   x="0px"
   y="0px"
   width="515.51801"
   height="246.58701"
   viewBox="0 -26.707 515.51801 246.58701"
   enable-background="new 0 -26.707 566.93 300"
   xml:space="preserve"
   sodipodi:docname="system.svg"
   inkscape:version="1.2.1 (9c6d41e410, 2022-07-14, custom)"
   xmlns:inkscape="http://www.inkscape.org/namespaces/inkscape"
   xmlns:sodipodi="http://sodipodi.sourceforge.net/DTD/sodipodi-0.dtd"
   xmlns="http://www.w3.org/2000/svg"
   xmlns:svg="http://www.w3.org/2000/svg"><sodipodi:namedview
   id="namedview18336"
   pagecolor="#727272"
   bordercolor="#666666"
   borderopacity="1.0"
   inkscape:showpageshadow="2"
   inkscape:pageopacity="0"
   inkscape:pagecheckerboard="true"
   inkscape:deskcolor="#d1d1d1"
   showgrid="false"
   inkscape:zoom="0.56797136"
   inkscape:cx="850.39499"
   inkscape:cy="339.80586"
   inkscape:window-width="1920"
   inkscape:window-height="1023"
   inkscape:window-x="1366"
   inkscape:window-y="29"
   inkscape:window-maximized="1"
   inkscape:current-layer="svg1354" /><defs
   id="defs16728" />
<g
   id="g16723"
   style="fill:#ffffff;fill-opacity:1;stroke:none"
   transform="translate(0,-26.707)">
	<path
   fill="#8A8A8A"
   d="m 355.764,28.076 c 0,15.479 13.033,28.043 29.076,28.043 16.676,0 29.77,-12.304 29.77,-28.043 C 414.609,12.333 401.516,0 384.84,0 368.797,0 355.764,12.582 355.764,28.076"
   id="path16709"
   style="fill:#ffffff;fill-opacity:1;stroke:none" />
	<rect
   x="360.59"
   y="84.226997"
   fill="#8A8A8A"
   width="49.639"
   height="160.606"
   id="rect16711"
   style="fill:#ffffff;fill-opacity:1;stroke:none" />
	<path
   fill="#8A8A8A"
   d="m 456.672,28.076 c 0,15.479 13.059,28.043 29.092,28.043 16.686,0 29.754,-12.304 29.754,-28.043 C 515.518,12.333 502.449,0 485.764,0 469.73,0 456.672,12.582 456.672,28.076"
   id="path16713"
   style="fill:#ffffff;fill-opacity:1;stroke:none" />
	<rect
   x="461.48199"
   y="84.226997"
   fill="#8A8A8A"
   width="49.652"
   height="160.606"
   id="rect16715"
   style="fill:#ffffff;fill-opacity:1;stroke:none" />
	<path
   fill="#8A8A8A"
   d="m 281.654,13.507 -43.528,170.654 c 0,0 -33.281,-128.097 -38.695,-146.266 -5.414,-18.199 -16.558,-26.172 -32.36,-26.172 -15.809,0 -26.971,7.973 -32.384,26.172 -5.394,18.169 -38.683,146.266 -38.683,146.266 L 52.447,13.507 H 0 c 0,0 50.371,182.08 57.219,203.164 5.327,16.459 17.944,29.916 36.648,29.916 21.384,0 31.385,-15.592 36.016,-29.916 4.582,-14.24 37.188,-134.498 37.188,-134.498 0,0 32.604,120.258 37.175,134.498 4.629,14.324 14.63,29.916 36.009,29.916 18.719,0 31.313,-13.457 36.673,-29.916 6.831,-21.084 57.17,-203.164 57.17,-203.164 z"
   id="path16717"
   style="fill:#ffffff;fill-opacity:1;stroke:none" />
	
	
</g>
</svg>
