<?xml version="1.0" encoding="UTF-8" standalone="no"?>
<svg
     width="640"
     height="174"
     version="1.1"
     id="svgscummvmlogo"
     xmlns="http://www.w3.org/2000/svg"
     xmlns:svg="http://www.w3.org/2000/svg">
     <path
          id="scummvmlogo04"
          fill="#333333"
          d="m 434.59941,76.800023 c 0,0 0.78698,-6.09993 0.78698,-6.09993 0,0 1.50001,-10.899896 1.50001,-10.899896 0,0 4.39998,-31.999661 4.39998,-31.999661 0,0 1.50001,-10.899885 1.50001,-10.899885 0.456,-3.272969 0.451,-5.625942 2.74299,-8.2999148 1.09402,-1.2769872 2.75794,-2.341975 4.36994,-2.8279721 0,0 2.20001,-0.4929927 2.20001,-0.4929927 0,0 2.99998,-0.6189929 2.99998,-0.6189929 0,0 15.79995,-3.1799696 15.79995,-3.1799696 0,0 4.89998,-0.97998995 4.89998,-0.97998995 0.88197,-0.17599832 2.23601,-0.48999479 3.09999,-0.49999492381 C 482.3652,-0.0391754 485.37119,1.3768099 487.3322,4.3007824 c 0.54197,0.8079901 1.11796,1.9329771 1.26701,2.8999669 2.52998,-2.3229754 5.60395,-3.3389622 8.99994,-3.2999654 0,0 5.90003,0.5829935 5.90003,0.5829935 0,0 10.99987,1.0999896 10.99987,1.0999896 0,0 5.00004,0.5009944 5.00004,0.5009944 1.557,0.1660005 2.89099,0.2589957 4.39997,0.7849919 2.81898,0.9839898 5.30999,2.8779708 7.01198,5.3309457 1.46202,2.107979 1.75797,3.516964 2.40297,5.89994 0,0 0.97301,3.599962 0.97301,3.599962 0,0 3.82699,14.199851 3.82699,14.199851 0,0 10.76996,39.899588 10.76996,39.899588 0,0 3.77296,13.999849 3.77296,13.999849 0,0 1.74202,6.299932 1.74202,6.299932 0,0 2.16899,-4.099953 2.16899,-4.099953 0,0 4.59997,-8.39991 4.59997,-8.39991 0,0 15.59992,-28.499709 15.59992,-28.499709 0,0 14.94494,-27.299713 14.94494,-27.299713 1.04604,-1.884982 3.01301,-5.809938 4.23201,-7.299923 2.91002,-3.554964 7.10798,-5.352945 11.65396,-5.299946 0,0 3.19997,0.283 3.19997,0.283 0,0 6.89999,0.599994 6.89999,0.599994 0,0 2.99994,0.234002 2.99994,0.234002 0,0 4.00003,0.373995 4.00003,0.373995 0,0 5.39998,0.550993 5.39998,0.550993 3.17797,0.700993 6.09296,2.587975 7.85596,5.357946 0.54197,0.849992 1.137,2.038977 1.44099,2.999969 0.46996,1.480985 0.621,2.854969 0.60298,4.399952 0,0 -0.28308,3.199968 -0.28308,3.199968 0,0 -0.60002,6.699929 -0.60002,6.699929 0,0 -1.59999,17.899812 -1.59999,17.899812 0,0 -0.53397,6.299936 -0.53397,6.299936 0,0 -2.666,29.599689 -2.666,29.599689 0,0 -0.53402,6.299932 -0.53402,6.299932 0,0 -1.79998,20.199796 -1.79998,20.199796 0,0 -0.60002,6.69993 -0.60002,6.69993 0,0 -0.27399,2.79997 -0.27399,2.79997 0,0 -0.89203,9.99989 -0.89203,9.99989 0,0 -1.2,13.49987 -1.2,13.49987 0,0 -0.3341,3.99995 -0.3341,3.99995 0,0 -0.274,2.79998 -0.274,2.79998 -0.13723,1.95297 -0.25589,4.05295 -0.95101,5.89993 -1.955,5.19295 -6.70202,8.16292 -12.15798,8.09992 0,0 -4.8,-0.483 -4.8,-0.483 0,0 -7.69996,-0.79999 -7.69996,-0.79999 0,0 -7.79999,-0.79998 -7.79999,-0.79998 -1.75597,-0.17602 -3.52295,-0.28899 -5.19994,-0.886 -2.55299,-0.90799 -4.764,-2.68097 -6.26498,-4.93094 -0.678,-1.01799 -1.14801,-2.03298 -1.507,-3.19997 -0.58804,-1.91498 -0.55001,-2.84698 -0.52801,-4.79995 0,0 0.28308,-3.19997 0.28308,-3.19997 0,0 0.50001,-5.79994 0.50001,-5.79994 0,0 0.13379,-1.89997 0.13379,-1.89997 0,0 1.2,-13.89987 1.2,-13.89987 0,0 0.59199,-6.89993 0.59199,-6.89993 0.0521,-0.74499 0.32014,-2.46297 0.19086,-3.09996 0,0 -2.54,4.49995 -2.54,4.49995 0,0 -3.51796,6.09993 -3.51796,6.09993 0,0 -11.24099,19.4998 -11.24099,19.4998 0,0 -3.39996,5.89994 -3.39996,5.89994 -0.87901,1.49599 -1.38198,2.48797 -2.60994,3.79996 -0.98706,1.05499 -2.41807,2.07898 -3.69105,2.76897 -1.92598,1.04399 -4.21398,1.63199 -6.39995,1.72699 0,0 -3.4,-0.27999 -3.4,-0.27999 0,0 -4.69999,-0.49899 -4.69999,-0.49899 0,0 -6.99996,-0.806 -6.99996,-0.806 -3.41398,-0.78499 -6.42496,-2.65297 -8.49897,-5.51094 -1.62401,-2.23798 -1.89902,-3.55096 -2.64302,-6.09994 0,0 -1.62994,-5.59994 -1.62994,-5.59994 0,0 -2.96999,-10.19989 -2.96999,-10.19989 0,0 -3.644,-12.49987 -3.644,-12.49987 0,0 -2.32799,-7.99992 -2.32799,-7.99992 0,0 -0.67199,-2.29997 -0.67199,-2.29997 -0.12888,-0.455 -0.20296,-0.93499 -0.514,-1.29999 0,0 -0.472,3.79996 -0.472,3.79996 0,0 -0.90097,6.49993 -0.90097,6.49993 0,0 -2.61399,18.79981 -2.61399,18.79981 0,0 -0.58504,4.19995 -0.58504,4.19995 -0.20296,1.54199 -0.442,3.76196 -0.903,5.19995 -0.50901,1.58898 -1.329,3.01497 -2.38599,4.29995 -2.16697,2.63198 -5.36995,4.16296 -8.73894,4.40896 -0.44302,0.0321 -0.59405,0.107 -1.10006,0.087 0,0 -1.99994,-0.17899 -1.99994,-0.17899 0,0 -3.49998,-0.29999 -3.49998,-0.29999 0,0 -9.09996,-0.79999 -9.09996,-0.79999 -3.68402,-0.35701 -6.82896,-0.17899 -10.09996,-2.28597 -1.815,-1.16899 -3.34801,-2.78898 -4.31904,-4.73095 0,0 -0.67292,-1.59999 -0.67292,-1.59999 0,0 -0.40799,-1.19999 -0.40799,-1.19999 -0.042,0.90599 -0.3451,2.33398 -0.63302,3.19997 -0.90802,2.72297 -2.83099,4.73895 -5.46699,5.85694 -1.18604,0.50299 -2.90999,0.763 -4.19998,1.00399 0,0 -7.00001,1.31899 -7.00001,1.31899 0,0 -6.59998,1.24499 -6.59998,1.24499 -0.85396,0.14898 -2.17496,0.46499 -2.99998,0.47499 -1.30794,0.0151 -1.90698,0.052 -3.19994,-0.288 -2.00204,-0.528 -3.757,-1.70698 -5.05401,-3.31197 -0.63303,-0.78299 -1.36602,-2.10098 -1.88803,-2.99997 0,0 -1.65892,-2.79997 -1.65892,-2.79997 0,0 -9.49897,-15.99983 -9.49897,-15.99983 -0.0692,1.49699 -0.89804,5.69794 -1.329,7.19992 -0.51003,1.77599 -1.24904,3.83997 -2.24003,5.39995 -0.55898,0.87899 -0.986,1.45998 -1.73098,2.19998 -1.96701,1.95298 -4.73696,2.99596 -7.49997,2.99996 0,0 -1.99997,0 -1.99997,0 -1.50902,-0.002 -3.76399,-0.35199 -5.3,-0.57299 0,0 -5.39999,-0.80699 -5.39999,-0.80699 -2.87396,-0.555 -4.59694,-1.05499 -7.59996,-1.01999 -2.688,0.0321 -4.043,2.09498 -6.99998,2.75797 -2.53199,0.567 -5.02498,0.546 -7.59997,0.542 0,0 -1.5,-0.10001 -1.5,-0.10001 0,0 -1.79999,0 -1.79999,0 0,0 -1.7,-0.1 -1.7,-0.1 -3.80598,-0.006 -8.40296,0.168 -12.09995,-0.526 -1.94599,-0.36499 -4.15398,-1.88898 -5.99997,-1.96998 -1.654,-0.073 -3.45799,0.706 -5.09998,1.01599 0,0 -4.29999,0.389 -4.29999,0.389 0,0 -1.59999,0.091 -1.59999,0.091 0,0 -1.49999,0.10401 -1.49999,0.10401 0,0 -1.59999,0 -1.59999,0 0,0 -1.2,0.096 -1.2,0.096 0,0 -3.99999,0 -3.99999,0 0,0 -1.69999,-0.1 -1.69999,-0.1 0,0 -4.09999,-0.21698 -4.09999,-0.21698 -1.90899,-0.188 -4.57398,-1.447 -6.29997,-1.37899 -1.062,0.042 -2.39099,0.61099 -3.39999,0.96199 -1.40599,0.488 -2.69999,0.81599 -4.19998,0.83399 -3.69798,0.043 -7.19297,-0.67899 -10.79996,-1.39998 -1.71299,-0.34299 -5.14898,-0.99699 -6.79997,-0.99999 0,0 -1.8,0 -1.8,0 -2.35598,0.028 -5.00198,1.66698 -7.19997,2.51897 -1.51399,0.586 -3.27498,0.96199 -4.89998,0.98099 0,0 -1.89999,0.1 -1.89999,0.1 0,0 -6.49998,0 -6.49998,0 0,0 -1.69999,-0.1 -1.69999,-0.1 0,0 -1.49999,-0.091 -1.49999,-0.091 0,0 -6.59998,-0.65098 -6.59998,-0.65098 -1.80799,-0.28101 -2.08499,-0.34799 -3.79998,-0.99999 -1.347,-0.51299 -2.83199,-1.18999 -4.29998,-1.15699 -1.194,0.0268 -3.47599,0.73999 -4.79999,0.99899 -1.09699,0.214 -4.20698,0.38599 -5.39998,0.39999 0,0 -1.49999,0.10001 -1.49999,0.10001 0,0 -2.69999,0 -2.69999,0 0,0 -1.19999,0.095 -1.19999,0.095 0,0 -1.3,0 -1.3,0 0,0 -1.49999,-0.095 -1.49999,-0.095 0,0 -2.79999,0 -2.79999,0 0,0 -2.09999,-0.10001 -2.09999,-0.10001 0,0 -4.59999,-0.58199 -4.59999,-0.58199 -2.37698,0.16899 -4.27098,1.40599 -6.49997,1.99398 -1.34899,0.35501 -3.37698,0.497 -4.79998,0.59699 0,0 -3.09999,0.19102 -3.09999,0.19102 0,0 -1.59999,0.10001 -1.59999,0.10001 0,0 -6.19998,0 -6.19998,0 0,0 -1.79999,-0.10001 -1.79999,-0.10001 0,0 -3.89999,-0.31601 -3.89999,-0.31601 -1.75299,-0.22998 -4.01198,-1.26398 -5.69998,-1.28399 -1.64899,-0.0189 -1.96799,-0.0181 -3.59998,0.34201 -2.19899,0.48599 -4.31698,1.33099 -6.59998,1.35799 0,0 -2.09999,0.1 -2.09999,0.1 0,0 -2.29998,-0.1 -2.29998,-0.1 0,0 -2.89999,-0.22798 -2.89999,-0.22798 -5.61798,-0.70099 -10.90696,-2.72997 -15.69994,-5.71394 -2.60899,-1.62499 -4.95699,-3.55897 -7.19997,-5.64894 -0.60401,-0.563 -1.213,-1.08199 -1.758,-1.70899 -0.21898,-0.25198 -0.58899,-0.74799 -0.94199,-0.77699 -0.23501,-0.0189 -0.6,0.218 -0.8,0.33702 -0.632,0.37599 -1.122,0.73199 -1.7,1.18199 -2.05599,1.60298 -3.82298,3.53896 -5.99998,4.99094 -4.05297,2.70398 -8.71596,4.29396 -13.49994,5.09195 -1.374,0.229 -3.645,0.55899 -4.99999,0.57899 0,0 -1.00002,0 -1.00002,0 0,0 -0.99998,0.096 -0.99998,0.096 0,0 -1.8,0 -1.8,0 0,0 -2.19997,-0.1 -2.19997,-0.1 0,0 -1.00003,-0.091 -1.00003,-0.091 0,0 -4.29995,-0.482 -4.29995,-0.482 -5.30999,-0.78199 -10.652972,-2.50098 -15.399964,-5.00495 -1.457987,-0.76899 -4.244961,-2.52797 -5.390985,-3.63896 0,0 -1.495969,-1.68298 -1.495969,-1.68298 -0.811005,-0.94199 -1.609992,-1.90698 -2.613002,-2.65198 -0.451993,-0.336 -1.016991,-0.70599 -1.599984,-0.72199 -0.471,-0.0121 -1.014006,0.29401 -1.400005,0.544 -0.918004,0.59399 -1.728974,1.45898 -2.499996,2.22997 0,0 -2.699971,2.66998 -2.699971,2.66998 -1.138996,0.97699 -3.937988,2.75896 -5.299972,3.49896 -5.571982,3.02697 -11.21499,4.83895 -17.499938,5.65894 0,0 -3.30001,0.37198 -3.30001,0.37198 0,0 -0.899975,0 -0.899975,0 0,0 -1.199992,0.10001 -1.199992,0.10001 0,0 -4.60001,0 -4.60001,0 0,0 -0.99998,-0.091 -0.99998,-0.091 -2.162413,-0.14807 -4.261403,-0.38106 -6.399399,-0.76706 -9.521953,-1.71701 -18.843932,-6.38596 -25.6998924,-13.24189 -4.0870141,-4.08696 -7.570969,-8.32092 -7.49998974,-14.39985 0.06799344,-5.75295 5.02697904,-10.72189 8.54196334,-14.79985 0,0 3.2489828,-3.59996 3.2489828,-3.59996 0.54202,-0.588 1.258993,-1.55399 1.175013,-2.39998 -0.108019,-1.09598 -0.968992,-2.42197 -1.594993,-3.29996 C 9.8810145,102.30776 8.5250387,101.18177 7.3260264,98.799795 5.0250589,94.230843 3.819054,88.994899 3.5970455,83.899952 c 0,0 -0.096,-1.299993 -0.096,-1.299993 0,0 0,-1.99997 0,-1.99997 0,0 0.1040122,-1.199988 0.1040122,-1.199988 0,0 0,-0.999991 0,-0.999991 0.2669851,-2.672973 0.7110018,-5.336948 1.5299847,-7.899919 0.8359904,-2.61397 2.0020079,-5.117949 3.5330129,-7.399923 1.3449777,-2.004979 3.1209707,-4.139959 4.9329447,-5.727939 2.459026,-2.156981 4.417003,-3.581963 7.299978,-5.140949 3.823997,-2.067976 8.132982,-3.403966 12.399976,-4.172952 1.429979,-0.25799 4.091965,-0.640997 5.499946,-0.657997 0,0 1.900001,-0.100004 1.900001,-0.100004 0,0 3.300006,0 3.300006,0 0,0 1.799992,0.100004 1.799992,0.100004 0,0 0.999983,0.09101 0.999983,0.09101 2.700993,0.189016 5.361994,0.66799 7.999982,1.273986 2.450975,0.562993 4.867975,1.381983 7.199972,2.314974 3.800981,1.520988 6.011956,2.852972 9.499957,4.87795 5.160963,2.994972 10.55395,6.519932 12.591937,12.441873 0.874011,2.537971 0.957012,5.253947 0.691009,7.899915 0,0 -0.383015,2.499977 -0.383015,2.499977 3.513017,-0.708995 6.415005,-3.68396 9.69997,-5.273946 2.689009,-1.301986 6.453966,-2.335976 9.399986,-2.88697 2.30898,-0.431993 5.36596,-0.834992 7.69996,-0.83899 0,0 1.69999,-0.100004 1.69999,-0.100004 0,0 3.49998,0.100004 3.49998,0.100004 0,0 4.89999,0.472994 4.89999,0.472994 3.569,0.513996 7.04899,1.361984 10.39997,2.706973 1.97499,0.791993 4.33099,2.008977 5.99998,3.319962 0.855,0.671993 2.60399,2.247983 3.69998,2.208979 1.129,-0.04101 2.349,-1.25799 3.1,-2.008977 0.87299,-0.872989 2.37598,-2.495976 3.39998,-3.064968 0.378,-0.211013 0.97799,-0.401996 1.4,-0.532996 2.04599,-0.632993 4.65998,-0.811996 6.79997,-1.018984 4.33598,-0.420002 8.73997,-0.290004 13.09995,-0.283014 0,0 1.49999,0.100008 1.49999,0.100008 1.42199,0.01587 3.56499,0.132019 4.89998,0.566992 1.613,0.525998 4.07698,1.710984 5.69997,1.514985 1.949,-0.235994 4.30999,-2.539972 6.19999,-3.227966 1.22199,-0.444995 3.75398,-0.808989 5.09998,-0.968988 0,0 4.59998,-0.394003 4.59998,-0.394003 0,0 1.19999,-0.09101 1.19999,-0.09101 0,0 1.8,-0.100009 1.8,-0.100009 4.05398,-0.04698 10.26896,-0.13799 14.09994,0.847993 2.18399,0.561987 3.63798,2.30397 5.69998,2.976966 0.66399,0.216981 1.21499,0.183005 1.89999,0.174993 0,0 5.09998,-0.78299 5.09998,-0.78299 0,0 2.19999,-0.117016 2.19999,-0.117016 0,0 1.7,-0.10401 1.7,-0.10401 0,0 1.19999,0 1.19999,0 0,0 1.2,-0.096 1.2,-0.096 0,0 1.39999,0 1.39999,0 0,0 1.49999,-0.100004 1.49999,-0.100004 0,0 2.49999,0 2.49999,0 0,0 1.3,0.100004 1.3,0.100004 1.013,0.01096 1.71199,0.10201 2.69999,0.346999 1.91699,0.477999 4.25998,1.549987 6.19998,1.552986 0,0 0.89999,0 0.89999,0 1.98999,-0.02419 4.82899,-1.07299 7.09997,-1.099991 1.86099,-0.02116 6.15598,0.714995 7.89998,1.342987 1.38499,0.498997 3.92498,1.838981 5.29997,1.738984 2.55499,-0.18599 4.69198,-1.806982 7.09997,-2.466977 2.042,-0.559993 6.00798,-1.211987 8.09997,-1.21499 0,0 3.99998,0 3.99998,0 0,0 1,0.09101 1,0.09101 2.53799,0.174993 5.03698,0.573997 7.49998,1.22099 1.09099,0.285998 3.22098,0.877994 4.19998,1.31899 0,0 4.49998,2.710967 4.49998,2.710967 0.605,0.345977 1.694,0.893995 2.39999,0.823995 0.84299,-0.083 1.757,-0.707993 2.39999,-1.226994 1.16299,-0.939988 2.86899,-2.740968 4.09998,-3.357956 0.82,-0.411002 2.475,-0.836996 3.39999,-1.045996 1.85,-0.418996 3.71399,-0.614995 5.59998,-0.74399 0,0 1.1,-0.09101 1.1,-0.09101 0,0 2.19998,-0.100008 2.19998,-0.100008 0,0 3.59999,0 3.59999,0 0,0 1.49999,0.100008 1.49999,0.100008 0,0 1.8,0 1.8,0 0,0 1.59999,0.100005 1.59999,0.100005 3.42199,0.01588 6.16498,1.894976 9.09997,1.899977 0,0 0.8,0 0.8,0 1.96499,-0.02305 4.66298,-1.073989 6.89997,-1.099991 2.28899,-0.02608 6.13297,0.796994 8.29996,1.568987 1.176,0.418996 3.74199,1.59698 4.89999,1.512984 1.84599,-0.133984 3.51798,-1.302989 5.19998,-1.99598 1.21899,-0.501996 5.07297,-1.324985 6.39997,-1.385985 0,0 -1.45799,-2.499974 -1.45799,-2.499974 0,0 -3.49999,-5.899941 -3.49999,-5.899941 0,0 -5.28198,-8.899905 -5.28198,-8.899905 0,0 -6.03997,-10.199891 -6.03997,-10.199891 0,0 -3.49999,-5.899942 -3.49999,-5.899942 -1.359,-2.269975 -2.40899,-3.66396 -2.62799,-6.399932 0,0 -0.084,-0.799993 -0.084,-0.799993 0,0 0.075,-0.699991 0.075,-0.699991 0,0 0.061,-0.799993 0.061,-0.799993 0.43399,-2.774968 2.17099,-5.503941 4.65597,-6.868929 2.136,-1.172987 3.325,-1.173985 5.59999,-1.672979 0,0 8.09996,-1.677983 8.09996,-1.677983 0,0 7.09996,-1.479988 7.09996,-1.479988 0,0 5.60002,-1.141987 5.60002,-1.141987 0,0 4.79998,-0.997989 4.79998,-0.997989 0.80496,-0.161 2.01296,-0.449994 2.79998,-0.459994 2.77097,-0.03201 5.13196,0.675991 7.19997,2.608973 1.38797,1.296985 2.26799,3.144965 3.18597,4.790948 0,0 4.15597,7.399924 4.15597,7.399924 0,0 18.21595,32.399666 18.21595,32.399666 0,0 5.11199,9.099899 5.11199,9.099899 0,0 1.68799,2.999973 1.68799,2.999973 0.28799,0.508994 0.525,1.082988 0.942,1.499978 z" />
     <path
          id="scummvmlogo03"
          fill="#b5b5b5"
          d="m 465.35121,12.441978 c 0,0 4.29995,-0.854996 4.29995,-0.854996 0,0 6.09994,-1.225009 6.09994,-1.225009 1.13704,-0.226998 2.56005,-0.4869861 3.02003,0.980022 0.0771,0.245972 0.0862,0.543982 0.076,0.799967 0,0 -0.97102,5.899932 -0.97102,5.899932 0,0 -1.98301,11.699897 -1.98301,11.699897 0,0 -0.96693,5.799927 -0.96693,5.799927 0,0 -3.01601,17.799844 -3.01601,17.799844 0,0 -1.48398,8.799889 -1.48398,8.799889 0,0 -0.77501,4.599944 -0.77501,4.599944 0,0 -10.39997,0 -10.39997,0 0,0 0,4.599976 0,4.599976 0,0 -0.0601,0.699957 -0.0601,0.699957 0,0 -2.37999,2.699998 -2.37999,2.699998 0,0 -0.0601,0.699997 -0.0601,0.699997 0,0 0,14.09983 0,14.09983 0,0 -0.096,1.199989 -0.096,1.199989 0,0 0,2.100002 0,2.100002 0,0 0.15607,0.839988 0.15607,0.839988 0,0 0.84,0.159987 0.84,0.159987 0,0 7.39999,0 7.39999,0 0,0 -0.692,4.099949 -0.692,4.099949 0,0 -1.59999,9.499902 -1.59999,9.499902 0,0 -0.58297,3.39999 -0.58297,3.39999 -0.096,0.57497 -0.0971,1.21397 -0.53905,1.63897 0,0 -4.68598,3.69596 -4.68598,3.69596 -0.53301,0.41299 -1.19197,1.15297 -1.89996,1.08898 0,0 -0.80001,0 -0.80001,0 0,0 -4.3,0 -4.3,0 -0.21809,-0.0238 -0.49399,-0.0352 -0.7,0 -0.30196,0.13002 -0.83001,0.55801 -1.10002,0.76399 0,0 -2.09995,1.62397 -2.09995,1.62397 -0.42097,0.32104 -2.00602,1.44101 -2.19802,1.797 -0.12205,0.22602 -0.10091,0.53899 -0.10204,0.79101 0,0 0,6.29991 0,6.29991 0,0.26502 0.034,0.62501 -0.15986,0.83002 -0.16402,0.17397 -0.78698,0.35497 -1.03999,0.45096 0,0 -2.70001,1.00002 -2.70001,1.00002 0,0 -8.19996,3.02397 -8.19996,3.02397 0,0 -4.89998,1.79495 -4.89998,1.79495 0,0 -1.73995,-2.89997 -1.73995,-2.89997 0,0 -4.16003,-6.99991 -4.16003,-6.99991 0,0 -1.30002,-2.2 -1.30002,-2.2 -0.55695,-0.92798 -0.898,-1.19197 -0.89995,-2.29997 0,0 0,-1.39996 0,-1.39996 0,0 0.0998,-1.5 0.0998,-1.5 0,0 0,-3.99995 0,-3.99995 0,0 -0.096,-1.19999 -0.096,-1.19999 0,0 0,-1.19998 0,-1.19998 0,0 -0.0949,-1.19999 -0.0949,-1.19999 0,0 -0.192,-2.59998 -0.192,-2.59998 -0.37904,-3.90796 -0.92098,-7.81693 -2.01698,-11.599861 0,0 3.09995,-2.558976 3.09995,-2.558976 0,0 6.10002,-5.099967 6.10002,-5.099967 0,0 2.29995,-1.915975 2.29995,-1.915975 0.19804,-0.163993 0.60501,-0.573993 0.879,-0.490992 0.23393,0.07 0.56799,0.741989 0.69102,0.965995 0,0 1.51495,2.699956 1.51495,2.699956 0,0 6.07303,10.79989 6.07303,10.79989 0,0 1.92796,3.39999 1.92796,3.39999 0.18783,0.286 0.62998,0.90296 1.04097,0.75099 0.32392,-0.12 0.51003,-0.54301 0.59701,-0.851 0,0 0.38899,-2.59998 0.38899,-2.59998 0,0 1.48702,-10.79989 1.48702,-10.79989 0,0 3.92802,-28.59969 3.92802,-28.59969 0,0 1.49997,-10.899895 1.49997,-10.899895 0,0 0.49895,-3.599961 0.49895,-3.599961 0,0 0.2729,-1.99999 0.2729,-1.99999 0,0 7.49997,0 7.49997,0 0,0 0.79997,-0.074 0.79997,-0.074 0,0 2.4,-1.917979 2.4,-1.917979 0,0 1.23999,-1.111963 1.23999,-1.111963 0,0 0.15989,-0.896004 0.15989,-0.896004 0,0 0,-12.199885 0,-12.199885 0,0 0.0589,-0.7 0.0589,-0.7 0,0 2.18503,-2.699952 2.18503,-2.699952 0,0 0.0559,-0.699999 0.0559,-0.699999 0,0 0,-3.19998 0,-3.19998 0,0 0.0601,-0.582986 0.0601,-0.582986 0,0 2.13798,-2.120973 2.13798,-2.120973 0,0 0.10204,-0.795998 0.10204,-0.795998 z m -16.39998,31.599656 c 0,0 0.37304,-3.099969 0.37304,-3.099969 0,0 0.60001,-4.399932 0.60001,-4.399932 0,0 1.79999,-13.099895 1.79999,-13.099895 0,0 0.59904,-4.299924 0.59904,-4.299924 0.1799,-1.371009 0.21996,-2.420007 1.23698,-3.498975 1.18896,-1.260006 2.22801,-1.232982 3.79094,-1.566976 0,0 3.80004,-0.774 3.80004,-0.774 0,0 2.4,-0.460002 2.4,-0.460002 0,0 0,5.299938 0,5.299938 0,0.195024 0.0113,0.505016 -0.0601,0.682991 -0.19387,0.47701 -1.86196,1.640979 -2.123,2.126001 -0.13906,0.258969 -0.11714,0.603999 -0.11714,0.890976 0,0 0,3.099974 0,3.099974 0,0.213014 0.0113,0.501009 -0.059,0.699999 -0.26721,0.748981 -1.84605,1.863968 -2.08501,2.599948 -0.0669,0.205001 -0.0559,0.483018 -0.0559,0.699999 0,0 0,12.299891 0,12.299891 -0.0151,0.797965 -0.41898,0.94098 -1.00001,1.424978 -0.34089,0.283997 -1.35899,1.193981 -1.69996,1.315986 -0.19882,0.07101 -0.48698,0.059 -0.7,0.059 z m 39.79988,8.999906 c 0,0 1.527,-10.19989 1.527,-10.19989 0,0 2.55997,-17.099804 2.55997,-17.099804 0,0 1.09999,-7.399937 1.09999,-7.399937 0.16215,-1.155994 0.23701,-2.776978 0.96599,-3.698947 1.07502,-1.35899 2.46499,-1.107012 3.94701,-0.928998 0,0 3.69998,0.344992 3.69998,0.344992 0,0 4.39997,0.465973 4.39997,0.465973 0,0 9.89998,1.000014 9.89998,1.000014 1.66298,0.16698 3.71998,0.10201 5.1,1.109998 1.48597,1.083957 1.65597,2.461959 2.08798,4.106943 0,0 0.89898,3.299947 0.89898,3.299947 0,0 2.99799,11.099904 2.99799,11.099904 0,0 1.12697,4.199958 1.12697,4.199958 0,0 0.68803,2.499978 0.68803,2.499978 0,0 -25.79987,0 -25.79987,0 0,0 -0.75804,0.10197 -0.75804,0.10197 0,0 -0.3749,0.697996 -0.3749,0.697996 0,0 -0.56702,1.79998 -0.56702,1.79998 0,0 -1.80201,5.699959 -1.80201,5.699959 0,0 -0.89796,2.899964 -0.89796,2.899964 z m 104.09956,-6.999912 c 0,0 2.96901,-5.499954 2.96901,-5.499954 0,0 5.14494,-9.399885 5.14494,-9.399885 0,0 2.52401,-4.499972 2.52401,-4.499972 0.43002,-0.53801 0.94602,-0.964979 1.56203,-1.272969 1.507,-0.754008 2.52296,-0.495 4.09997,-0.344009 0,0 2.99998,0.23399 2.99998,0.23399 0,0 1.89999,0.183005 1.89999,0.183005 0,0 -1.79998,5.499949 -1.79998,5.499949 0,0 -3.53298,10.599878 -3.53298,10.599878 0,0 -1.46701,4.49997 -1.46701,4.49997 z m -49.69981,45.499519 c 0,0 0.68502,2.599986 0.68502,2.599986 0,0 1.27302,4.699944 1.27302,4.699944 0,0 2.35698,8.799893 2.35698,8.799893 0,0 1.59799,5.89994 1.59799,5.89994 0,0 1.40199,5.19993 1.40199,5.19993 0.1391,0.50702 0.442,1.48999 1.085,1.518 0.69497,0.0298 1.28297,-1.19599 1.56999,-1.71797 0,0 3.22997,-5.89993 3.22997,-5.89993 0,0 3.93102,-7.19993 3.93102,-7.19993 0,0 9.79996,-17.899807 9.79996,-17.899807 0,0 12.0999,-22.099804 12.0999,-22.099804 0,0 4.44401,-8.099893 4.44401,-8.099893 0,0 3.99398,-7.299934 3.99398,-7.299934 0.23811,-0.438984 1.00102,-1.992957 1.35198,-2.197959 0.21013,-0.123023 0.54002,-0.102009 0.77898,-0.102009 0,0 14.79999,0 14.79999,0 0.22792,0 0.57603,0.02117 0.77298,-0.10201 0.32997,-0.207003 0.71704,-1.668984 0.86001,-2.097954 0,0 2.36696,-7.099957 2.36696,-7.099957 0,0 3.16701,-9.499896 3.16701,-9.499896 0,0 0.79997,-2.399975 0.79997,-2.399975 0.09,-0.268989 0.18408,-0.713 0.46002,-0.839991 0.27895,-0.128996 1.97299,0.06403 2.37301,0.112025 0,0 2.99998,0.244989 2.99998,0.244989 0,0 1.79998,0.178998 1.79998,0.178998 0,0 3.40001,0.294989 3.40001,0.294989 1.197,0.08799 2.33493,0.083 3.16096,1.109998 0.90901,1.129991 0.58298,2.486978 0.45601,3.798952 0,0 -0.60002,6.699937 -0.60002,6.699937 0,0 -1.63397,18.599805 -1.63397,18.599805 0,0 -0.59998,6.699934 -0.59998,6.699934 0,0 -0.28308,3.299951 -0.28308,3.299951 0,0 -7.7,0 -7.7,0 0,0 -1.49993,-0.100004 -1.49993,-0.100004 0,0 -5.60001,0 -5.60001,0 -0.22793,0 -0.57701,-0.02117 -0.77201,0.102009 -0.23697,0.148987 -0.29708,0.449001 -0.37003,0.697992 0,0 -0.44403,1.599975 -0.44403,1.599975 0,0 -2.18494,7.899919 -2.18494,7.899919 0,0 -1.57101,5.699959 -1.57101,5.699959 -0.32201,1.156978 -0.85603,2.622969 -0.85802,3.799935 0,0 0,6.399964 0,6.399964 0,0 -0.10013,1.99995 -0.10013,1.99995 0,0 0,17.599832 0,17.599832 0,0 -10.69998,0 -10.69998,0 0,0 0.28308,-3.59996 0.28308,-3.59996 0,0 0.5,-5.79993 0.5,-5.79993 0,0 1.134,-13.499883 1.134,-13.499883 0,0 0.30013,-3.499956 0.30013,-3.499956 0,0 0.26907,-2.899964 0.26907,-2.899964 0,0 0,-0.399983 0,-0.399983 -0.195,-1.417001 -1.10501,0.06297 -1.36598,0.499991 0,0 -3.00505,5.199933 -3.00505,5.199933 0,0 -11.18692,19.399812 -11.18692,19.399812 0,0 -22.1859,38.49957 -22.1859,38.49957 0,0 -3.69997,6.39995 -3.69997,6.39995 0,0 -1.94603,3.29897 -1.94603,3.29897 -0.79798,1.03199 -2.47396,1.86797 -3.79594,1.76899 0,0 -3.20001,-0.35101 -3.20001,-0.35101 0,0 -6.59998,-0.70102 -6.59998,-0.70102 -1.62101,-0.17298 -3.25299,-0.10597 -4.60001,-1.16797 -1.31097,-1.03199 -1.42999,-1.97497 -1.87198,-3.44795 0,0 -1.45699,-4.99996 -1.45699,-4.99996 0,0 -4.71297,-16.19984 -4.71297,-16.19984 0,0 -1.40003,-4.79994 -1.40003,-4.79994 -0.19692,-0.69101 -0.59897,-1.84496 -0.65795,-2.49998 0,0 5.29996,0 5.29996,0 0,0 0,-32.099653 0,-32.099653 z M 384.7515,50.841581 c 0,0 -7.49995,0 -7.49995,0 -0.23902,0 -0.56901,0.02116 -0.779,-0.10201 -0.26502,-0.154998 -0.61401,-0.815011 -0.77899,-1.097979 0,0 -1.48202,-2.499985 -1.48202,-2.499985 0,0 -6.39997,-10.799884 -6.39997,-10.799884 -0.667,-1.112984 -2.15197,-2.964971 -1.337,-4.295956 0.528,-0.863991 2.04498,-1.018005 2.97701,-1.203994 0,0 7.69997,-1.579977 7.69997,-1.579977 0,0 11.69994,-2.419968 11.69994,-2.419968 1.88295,-0.390006 3.76699,-1.138004 5.59997,-0.219024 1.41303,0.708995 1.86302,1.929996 2.60004,3.218991 0,0 3.99994,7.199925 3.99994,7.199925 0,0 -4.79996,0 -4.79996,0 0,0 -0.77001,0.101971 -0.77001,0.101971 0,0 -1.83899,2.196001 -1.83899,2.196001 0,0 -0.791,0.10201 -0.791,0.10201 0,0 -8.09998,0 -8.09998,0 z m 1.69999,-9.599903 c 0,0 7.19996,0 7.19996,0 0,0 0.78203,-0.102009 0.78203,-0.102009 0,0 1.922,-2.295965 1.922,-2.295965 0,0 0.596,-0.10201 0.596,-0.10201 0,0 4.29996,0 4.29996,0 0,0 0.76096,0.10201 0.76096,0.10201 0,0 0.497,0.697994 0.497,0.697994 0,0 0.90003,1.599972 0.90003,1.599972 0,0 4.319,7.699917 4.319,7.699917 0,0 4.33697,7.699914 4.33697,7.699914 0,0 9.42794,16.799824 9.42794,16.799824 0,0 4.1,7.299931 4.1,7.299931 0,0 2.25797,4.199953 2.25797,4.199953 0,0 -2.99998,2.458976 -2.99998,2.458976 0,0 -5.89998,4.915943 -5.89998,4.915943 0,0 -3.09996,2.525001 -3.09996,2.525001 0,0 -0.74201,-2.099998 -0.74201,-2.099998 -0.607,-1.606997 -1.29599,-3.173975 -2.08399,-4.699945 -2.63101,-5.098945 -6.65097,-9.43092 -11.77395,-12.073877 -2.35503,-1.214991 -5.60797,-2.266975 -8.19997,-2.86096 0,0 -2.70001,-0.523003 -2.70001,-0.523003 -0.33485,-0.05201 -0.97098,-0.07601 -1.22195,-0.298999 -0.22299,-0.198991 -0.93199,-1.494974 -1.13801,-1.842995 0,0 -2.50001,-4.199949 -2.50001,-4.199949 0,0 -4.97998,-8.399918 -4.97998,-8.399918 0,0 -3.05999,-5.199928 -3.05999,-5.199928 0,0 8.99997,0 8.99997,0 z m 114.3996,13.499842 c 0,0 0.65794,-2.299972 0.65794,-2.299972 0,0 2.02802,-6.39992 2.02802,-6.39992 0,0 0.54697,-1.699976 0.54697,-1.699976 0,0 0.32318,-0.697996 0.32318,-0.697996 0,0 0.744,-0.10201 0.744,-0.10201 0,0 24.19988,0 24.19988,0 0,0 0.74899,0.10201 0.74899,0.10201 0,0 0.31409,0.697996 0.31409,0.697996 0,0 0.45202,1.699976 0.45202,1.699976 0,0 2.21393,8.199901 2.21393,8.199901 0,0 1.98605,7.399935 1.98605,7.399935 0,0 4.09997,15.199818 4.09997,15.199818 0,0 2.12702,7.899926 2.12702,7.899926 0,0 0.69996,2.599982 0.69996,2.599982 0,0 0.65798,2.499985 0.65798,2.499985 0,0 -12.99993,0 -12.99993,0 0,0 0,31.999635 0,31.999635 0,0 -3.4,0 -3.4,0 -0.19996,0 -0.56597,0.0261 -0.72797,-0.099 -0.15989,-0.12499 -0.24493,-0.50698 -0.30087,-0.70098 0,0 -0.44199,-1.5 -0.44199,-1.5 0,0 -2.21495,-7.59991 -2.21495,-7.59991 0,0 -8.614,-29.599705 -8.614,-29.599705 0,0 -2.798,-9.599902 -2.798,-9.599902 0,0 -0.69001,-2.299972 -0.69001,-2.299972 -0.0862,-0.198012 -0.27399,-0.599009 -0.51194,-0.637978 -0.26989,-0.04403 -0.41001,0.339969 -0.47004,0.537969 0,0 -0.288,1.799985 -0.288,1.799985 0,0 -1.09998,7.899926 -1.09998,7.899926 0,0 -1.97002,14.199835 -1.97002,14.199835 0,0 -1.94399,13.899872 -1.94399,13.899872 0,0 -0.90097,6.49992 -0.90097,6.49992 -0.051,0.35501 -0.15119,1.71498 -0.38598,1.89798 -0.16216,0.12601 -0.53999,0.10201 -0.741,0.088 0,0 -10.1,0 -10.1,0 -0.21201,0.014 -0.49797,0.0219 -0.69996,0 0,0 -4.29999,-2.272 -4.29999,-2.272 -0.20183,-0.0219 -0.48803,-0.014 -0.70004,0 0,0 -6.69996,0 -6.69996,0 0,0 0.2729,-1.91398 0.2729,-1.91398 0,0 0.59998,-3.99994 0.59998,-3.99994 0,0 1.80002,-12.09988 1.80002,-12.09988 0,0 2.79995,-18.799818 2.79995,-18.799818 0,0 1.33501,-8.99991 1.33501,-8.99991 0,0 1.579,-10.599874 1.579,-10.599874 0,0 0.32618,-2.199967 0.32618,-2.199967 0,0 0.2468,-0.898005 0.2468,-0.898005 0,0 0.73998,-0.10201 0.73998,-0.10201 z m -39.8999,13.699851 c 0,0 8.39996,0 8.39996,0 0,0 -3.99994,23.599768 -3.99994,23.599768 0,0 -6.90003,0 -6.90003,0 0,0 0,-15.999824 0,-15.999824 0,-0.209008 -0.0113,-0.505998 0.0601,-0.699996 0.41099,-1.118014 2.41299,-1.681986 2.43998,-3.099978 z M 607.65066,114.1409 c 0,0 0,-2.39998 0,-2.39998 0,0 0.0998,-1.89998 0.0998,-1.89998 0,0 0,-23.099742 0,-23.099742 0.004,-1.077987 0.39304,-2.165988 0.68603,-3.199978 0,0 1.32795,-4.799953 1.32795,-4.799953 0,0 2.18596,-7.899923 2.18596,-7.899923 0,0 0.44204,-1.599971 0.44204,-1.599971 0.0589,-0.203001 0.1391,-0.569984 0.31409,-0.697996 0.17082,-0.124989 0.53499,-0.10201 0.744,-0.10201 0,0 13.39995,0 13.39995,0 0,0 -0.68299,7.899923 -0.68299,7.899923 0,0 -1.2,13.399873 -1.2,13.399873 0,0 -0.53402,6.299912 -0.53402,6.299912 0,0 -1.766,19.499825 -1.766,19.499825 0,0 -0.60002,6.7999 -0.60002,6.7999 0,0 -0.24489,2.9 -0.24489,2.9 0,0 -0.58902,6.6999 -0.58902,6.6999 0,0 -0.39999,4.49997 -0.39999,4.49997 0,0 -0.18595,1.99999 -0.18595,1.99999 0,0 -0.26911,2.79996 -0.26911,2.79996 -0.0302,0.26601 0.004,0.85197 -0.14511,1.04299 -0.15685,0.19801 -0.55302,0.157 -0.78301,0.157 0,0 -6.29997,0 -6.29997,0 -0.19391,0.004 -0.40498,0 -0.57899,0.10201 -0.25512,0.15099 -0.41602,0.53998 -0.546,0.79796 0,0 -0.80001,1.60001 -0.80001,1.60001 -0.1221,0.24401 -0.27895,0.626 -0.51397,0.77097 -0.21017,0.13002 -1.07002,0.214 -1.36102,0.25603 0,0 -3.29999,0.43098 -3.29999,0.43098 -0.42897,0.059 -1.33298,0.037 -1.54901,0.45701 -0.15494,0.30096 -0.14398,0.84899 -0.15193,1.18498 0,0 -0.10883,0.89998 -0.10883,0.89998 0,0 0,0.99997 0,0.99997 0,0 -0.19883,2.59998 -0.19883,2.59998 0,0 -0.48701,6.29996 -0.48701,6.29996 0,0 0,0.89997 0,0.89997 0,0 -0.19504,2.1 -0.19504,2.1 -0.0189,0.26098 0.051,0.831 -0.16894,0.999 -0.18404,0.13598 -0.70098,0.02 -0.93998,0 0,0 -2.69997,-0.28203 -2.69997,-0.28203 0,0 -4.8,-0.49999 -4.8,-0.49999 -1.33399,-0.13398 -2.408,-0.19899 -3.16401,-1.51697 -0.37603,-0.65699 -0.34393,-1.27399 -0.33597,-1.99999 0,0 0.18291,-2 0.18291,-2 0,0 0.19995,-2.29997 0.19995,-2.29997 0,0 0.59998,-6.99991 0.59998,-6.99991 0,0 0.33414,-4.19996 0.33414,-4.19996 0,0 1.26596,-14.39985 1.26596,-14.39985 0,0 0.33415,-4.19995 0.33415,-4.19995 0,0 0.59998,-6.99992 0.59998,-6.99992 0,0 0.28308,-3.29998 0.28308,-3.29998 z m -146.29948,0.7 c 0.1629,0.42398 0.0189,0.76799 -0.0578,1.19998 0,0 -0.401,2.39998 -0.401,2.39998 0,0 -1.50001,8.89991 -1.50001,8.89991 0,0 -2.73301,16.09982 -2.73301,16.09982 0,0 -0.49996,2.99997 -0.49996,2.99997 -0.25207,1.52098 -0.31179,2.621 -1.52498,3.75598 -1.13002,1.05799 -2.61704,1.20297 -4.08303,1.45196 0,0 -5.29997,1.00002 -5.29997,1.00002 0,0 -5.39998,0.95799 -5.39998,0.95799 -0.58301,0 -1.47902,-0.24303 -1.99997,-0.50301 -0.39804,-0.199 -0.881,-0.54101 -1.18198,-0.86698 0,0 -2.27802,-3.69597 -2.27802,-3.69597 0,0 -4.27999,-7.19992 -4.27999,-7.19992 0,0 -2.45999,-4.19996 -2.45999,-4.19996 0,0 12.39994,-4.56894 12.39994,-4.56894 0,0 3.49999,-1.29901 3.49999,-1.29901 0,0 1.90003,-0.63197 1.90003,-0.63197 0,0 0,-7.59995 0,-7.59995 0,-0.20198 -0.0113,-0.51098 0.0601,-0.69599 0.14893,-0.388 1.44598,-1.29297 1.84,-1.59098 0.42398,-0.32099 2.05197,-1.61796 2.4,-1.72197 0.3288,-0.135 1.16197,0.008 1.59999,0 0,0 3.90001,0 3.90001,0 1.08094,0.007 1.47395,-0.53601 2.29994,-1.19099 z m 17.99992,1.19998 c 0,0 6.50001,0 6.50001,0 0,0 0.79997,0.055 0.79997,0.055 0,0 4.20002,2.17997 4.20002,2.17997 0,0 0.80001,0.065 0.80001,0.065 0,0 11.09997,0 11.09997,0 0,0 -0.47301,3.49995 -0.47301,3.49995 0,0 -0.66902,4.89996 -0.66902,4.89996 0,0 -0.45799,3.39995 -0.45799,3.39995 0,0 -5,-0.58397 -5,-0.58397 0,0 -12.59994,-1.5 -12.59994,-1.5 0,0 -4.29999,-0.50899 -4.29999,-0.50899 -0.3171,-0.0291 -1.29998,-0.05 -1.42102,-0.34998 -0.10696,-0.18501 -0.008,-0.64599 0,-0.857 0,0 0.3481,-2.2 0.3481,-2.2 z m -1.89996,13.09986 c 0,0 5.39999,0.58401 5.39999,0.58401 0,0 12.99992,1.53198 12.99992,1.53198 0,0 5.00004,0.58401 5.00004,0.58401 0,0 -0.77201,5.79992 -0.77201,5.79992 0,0 -1.40101,10.09989 -1.40101,10.09989 -0.0881,0.61002 -0.19313,1.773 -0.382,2.29997 -0.45004,1.26099 -1.63303,1.97301 -2.94502,1.92599 0,0 -2.59995,-0.20901 -2.59995,-0.20901 0,0 -5.69999,-0.49998 -5.69999,-0.49998 0,0 -2.99998,-0.234 -2.99998,-0.234 0,0 -1.70001,-0.174 -1.70001,-0.174 0,0 -3.09999,-0.26699 -3.09999,-0.26699 -1.36501,-0.18002 -2.85203,0.075 -3.88203,-1.04601 -0.26908,-0.29299 -0.46494,-0.60899 -0.56593,-0.99597 -0.0699,-0.26601 -0.11792,-0.626 -0.10091,-0.90001 0,0 1.02193,-6.99991 1.02193,-6.99991 0,0 1,-6.69994 1,-6.69994 z m 128.59949,18.9998 c 0,0 4.19998,-0.55797 4.19998,-0.55797 0.398,-0.056 1.27599,-0.094 1.579,-0.31601 0.34393,-0.251 1.013,-1.76199 1.24599,-2.22597 0.11605,-0.23301 0.29709,-0.65899 0.51401,-0.79799 0.19504,-0.12401 0.53398,-0.10201 0.76097,-0.10201 0,0 5.8,0 5.8,0 0,0 -0.51701,5.69995 -0.51701,5.69995 0,0 -0.77399,8.49988 -0.77399,8.49988 0,0 -0.192,2.1 -0.192,2.1 -0.1391,1.43398 -0.0639,2.62198 -1.51702,3.44697 -1.049,0.59599 -2.82097,0.22299 -4.00002,0.081 0,0 -5.39995,-0.54499 -5.39995,-0.54499 0,0 -2.69997,-0.28301 -2.69997,-0.28301 0,0 0.291,-4.39993 0.291,-4.39993 0,0 0.51803,-7.79992 0.51803,-7.79992 z" />
     <path
          id="scummvmlogo02"
          fill="#006a1b"
          d="m 75.516675,70.174547 c 0.182023,0.460001 0.100009,1.833984 0.100009,2.399984 0,0 0,1.69998 0,1.69998 0,0.218004 0.0091,0.491999 -0.05099,0.699989 -0.08803,0.30599 -1.102032,1.802984 -1.354011,2.199979 0,0 -4.027976,6.099939 -4.027976,6.099939 0,0 -1.132984,1.699979 -1.132984,1.699979 -0.692035,1.059989 -1.15502,2.149979 -2.634024,2.095981 -0.903981,-0.03288 -1.531984,-0.661996 -2.199975,-1.19599 -1.027008,-0.820992 -2.089014,-1.590984 -3.200002,-2.294972 -3.461954,-2.191978 -7.820947,-4.42396 -11.799944,-5.441949 -1.740009,-0.44499 -4.390998,-0.902986 -6.099977,-0.257007 -0.949983,0.36 -0.959996,0.565997 -1.699987,1.093992 -0.510992,-1.067993 -0.713989,-1.372984 -0.700005,-2.59997 0.02986,-2.573975 1.926982,-3.744969 4.299989,-3.798964 1.762993,-0.03999 4.31998,0.571993 5.99998,1.131994 3.636984,1.212982 7.179974,3.061964 10.39997,5.135944 1.108983,0.714995 2.182968,1.497985 3.199959,2.338976 0.606994,0.501992 1.356016,1.095989 2.200018,0.922989 1.395964,-0.287016 2.167969,-2.020976 2.899984,-3.130969 z m 113.598995,9.299912 c 0,0 0.12801,1.399982 0.12801,1.399982 0,0 0.28101,4.199957 0.28101,4.199957 0,0 0.49099,6.599934 0.49099,6.599934 0,0 0,0.89999 0,0.89999 0,0 0.10001,1.499982 0.10001,1.499982 0,0 0.10001,1.499987 0.10001,1.499987 0,0 0.1,1.699976 0.1,1.699976 0,0 0,1.199992 0,1.199992 0,0 0.096,0.999991 0.096,0.999991 0,0 0,1.59998 0,1.59998 0,0 -0.096,1.19999 -0.096,1.19999 0,0 -0.391,-7.399926 -0.391,-7.399926 0,0 -0.51799,-8.099916 -0.51799,-8.099916 0,0 -0.19102,-2.199975 -0.19102,-2.199975 0,0 0,-0.899995 0,-0.899995 0,0 -0.1,-1.19998 -0.1,-1.19998 z m 129.39949,2.699971 c 0,0 0.10001,1.399986 0.10001,1.399986 0,0 0.10401,1.499982 0.10401,1.499982 0,0 0,1.199988 0,1.199988 0,0 0.096,1.199989 0.096,1.199989 0,0 0.1,3.899955 0.1,3.899955 0,0 0.10001,1.49999 0.10001,1.49999 0,0 -0.10001,2.099975 -0.10001,2.099975 0,0 0,-1.799981 0,-1.799981 0,0 -0.096,-1.199988 -0.096,-1.199988 0,0 0,-1.199988 0,-1.199988 0,0 -0.10401,-1.69998 -0.10401,-1.69998 0,0 -0.1,-2.799972 -0.1,-2.799972 0,0 -0.10001,-1.599987 -0.10001,-1.599987 z m -143.39944,0.200009 c 0,0 0.10001,2.399977 0.10001,2.399977 0,0 0,1.399981 0,1.399981 0,0 -0.758,5.199944 -0.758,5.199944 0,0 -1.15799,8.999909 -1.15799,8.999909 0,0 -0.867,7.89992 -0.867,7.89992 0,0 -0.321,4.29995 -0.321,4.29995 0,0 -0.096,1.19999 -0.096,1.19999 0,0 -0.1,1.19999 -0.1,1.19999 0,0 0.1,-4.89995 0.1,-4.89995 0,0 0.10001,-1.69999 0.10001,-1.69999 0,0 0.091,-1.19998 0.091,-1.19998 0,0 0.392,-4.69995 0.392,-4.69995 0,0 1.232,-11.199889 1.232,-11.199889 0,0 0.82699,-5.79994 0.82699,-5.79994 z m 46.89982,0.100008 c 0,0 0.1,1.299982 0.1,1.299982 0,0 0.10001,1.699979 0.10001,1.699979 0,0 0.10001,3.299971 0.10001,3.299971 0,0 0.1,1.499983 0.1,1.499983 0,0 -0.1,2.299976 -0.1,2.299976 0,0 0,-1.599984 0,-1.599984 0,0 -0.10001,-2.099978 -0.10001,-2.099978 0,0 -0.10001,-2.099979 -0.10001,-2.099979 0,0 -0.1,-1.69998 -0.1,-1.69998 z M 13.416938,82.67446 c 0.124989,0.312001 0.175974,0.93099 0.242003,1.299985 0,0 0.499992,2.19998 0.499992,2.19998 0.622977,2.237973 1.430999,3.830962 2.638969,5.79994 2.925985,4.767951 7.041988,8.542915 11.618978,11.697875 0,0 4.399958,2.72198 4.399958,2.72198 0,0 7.099965,4.23994 7.099965,4.23994 1.899014,1.14499 3.97102,2.51898 5.699994,3.89997 1.285981,1.02799 2.474981,2.16898 2.848997,3.83996 0.25799,1.15299 0.0189,2.49597 -0.349,3.59996 0,0 -0.200013,0 -0.200013,0 -1.148974,-1.81898 -3.065978,-3.05797 -4.799981,-4.27196 0,0 -4.699976,-2.96797 -4.699976,-2.96797 0,0 -6.899991,-4.09996 -6.899991,-4.09996 -5.875969,-3.52599 -10.980918,-7.67895 -14.641906,-13.559891 -1.193003,-1.916977 -1.940023,-3.430963 -2.586018,-5.599939 -0.983996,-3.30196 -0.871971,-5.456943 -0.871971,-8.799909 z m 208.998602,9.999898 c 0.16399,0.41399 0.16399,2.285972 0,2.699966 z m 96.59962,2.999965 c 0.16101,0.405994 0.16101,1.893981 0,2.299975 z m -96.49962,0.499995 c 0.15998,0.403993 0.15998,1.795978 0,2.199975 z M 103.91257,111.47416 c 0,0 0,-1.49999 0,-1.49999 -0.031,-0.38699 -0.11101,-0.571 -0.087,-0.99999 0.122,-2.14498 0.41699,-4.22596 1.32199,-6.19994 0.83702,-1.82798 2.19598,-3.525955 3.86898,-4.647943 1.78801,-1.19899 3.57001,-1.661983 5.70003,-1.651981 1.60199,0.0079 3.85896,0.424991 5.29997,1.125986 1.68401,0.818991 2.87963,2.13298 3.89959,3.673958 0.87196,1.31899 1.19694,2.78998 3.09982,3.06997 0.61996,0.091 1.10396,-0.062 1.69996,-0.19098 0,0 3.19999,-0.79199 3.19999,-0.79199 0,0 7.39997,-1.82398 7.39997,-1.82398 0,0 4.19998,-0.96299 4.19998,-0.96299 0,0 0,4.09995 0,4.09995 0,0.20002 0.0261,0.567 -0.099,0.728 -0.14899,0.19098 -0.757,0.29801 -1.00099,0.35901 0,0 -2.59999,0.626 -2.59999,0.626 0,0 -8.79997,2.17397 -8.79997,2.17397 0,0 -3.49999,0.79199 -3.49999,0.79199 -0.25697,0.0151 -0.54996,-0.042 -0.79996,-0.10299 -1.64788,-0.401 -1.86285,-1.52499 -2.66882,-2.77598 -0.82794,-1.28398 -1.84958,-2.51397 -3.1306,-3.36396 -2.13297,-1.41599 -4.51898,-1.63998 -6.99997,-1.63598 -1.28303,0.002 -2.65703,0.42499 -3.80003,0.99699 -1.51597,0.75799 -2.80296,1.95098 -3.80997,3.30296 -0.74,0.99199 -1.512,2.61497 -1.887,3.79996 z m 142.30688,-2.29998 c 0,0 0,-1.49999 0,-1.49999 0,0 0.096,-1.09998 0.096,-1.09998 0,0 0,-1.79999 0,-1.79999 0.002,-1.49498 0.52701,-3.72796 1.8,-4.63595 0.707,-0.504989 2.03699,-0.753984 2.89999,-0.763986 0.555,-0.006 1.18399,0.02683 1.69999,0.253002 1.083,0.473984 1.888,1.970974 2.26599,3.046964 0.643,1.83599 0.908,3.46897 1.043,5.39995 0,0 0.091,1.09999 0.091,1.09999 0,0 0.10001,2.09997 0.10001,2.09997 10e-4,0.588 0.085,2.13298 -0.10001,2.59998 0,-2.43498 -0.64099,-6.24994 -2.15299,-8.19992 -0.32198,-0.415 -0.766,-0.82799 -1.247,-1.04799 -0.67699,-0.31 -1.27799,-0.25999 -1.99999,-0.25198 -1.19199,0.014 -2.50399,0.439 -3.26098,1.39998 -0.898,1.13899 -1.053,2.94698 -1.235,3.39997 z m 32.09587,10.39989 c 0,0 0,-2.09998 0,-2.09998 0,0 0.10001,-1.59998 0.10001,-1.59998 0,0 0.1,-3.09996 0.1,-3.09996 0,0 0.096,-1.1 0.096,-1.1 0,0 0.504,-5.29994 0.504,-5.29994 0.288,-2.10498 0.791,-4.59496 2.51699,-6.01193 1.89299,-1.55299 5.13298,-1.256998 6.70198,0.61599 1.36099,1.62398 1.64699,3.75595 1.78999,5.79594 0,0 0.091,0.99998 0.091,0.99998 0.007,0.618 0.086,2.52998 -0.10001,2.99997 -0.16301,-2.00798 -0.85599,-4.02895 -2.39999,-5.38194 -1.024,-0.89699 -2.10299,-1.03299 -3.39998,-1.01799 -1.632,0.0189 -2.95999,0.95499 -3.82999,2.29997 -0.614,0.94799 -0.988,2.29598 -1.21,3.39997 -0.417,2.07398 -0.54299,4.20096 -0.75599,6.29994 0,0 0,0.89999 0,0.89999 0,0 -0.10401,1.19998 -0.10401,1.19998 -0.001,0.383 0.043,0.741 -0.10001,1.09999 z m 64.40375,-10.1999 c 0,0 0,-1.19998 0,-1.19998 0,0 0.096,-1.09999 0.096,-1.09999 0,0 0,-2.19998 0,-2.19998 0.002,-1.51298 0.50899,-3.81195 1.79999,-4.73595 0.70499,-0.504989 2.03899,-0.753984 2.89999,-0.763986 0.59599,-0.006 1.25199,0.03401 1.79999,0.292006 1.031,0.48499 1.64799,1.70798 2.07199,2.70797 0.723,1.70898 1.003,3.66196 1.137,5.49994 0,0 0.091,0.99999 0.091,0.99999 0,0 0.1,1.99998 0.1,1.99998 10e-4,0.61199 0.089,2.32398 -0.1,2.79997 0,-2.39598 -0.649,-6.08994 -2.152,-7.99992 -0.329,-0.41899 -0.75899,-0.84199 -1.24799,-1.06499 -0.626,-0.28497 -1.233,-0.23799 -1.89999,-0.23501 -1.193,0.006 -2.479,0.369 -3.27899,1.29999 -0.558,0.64999 -0.94399,1.86398 -1.132,2.69997 -0.076,0.33501 -0.063,0.68199 -0.185,0.99999 z m 32.09587,10.3999 c 0,0 0,-1.89998 0,-1.89998 0,0 0.10001,-1.59998 0.10001,-1.59998 0,0 0,-1.19999 0,-1.19999 0,0 0.1,-1.99998 0.1,-1.99998 0,0 0.096,-1.19999 0.096,-1.19999 0,0 0.491,-5.29994 0.491,-5.29994 0.31601,-2.27198 0.739,-4.72096 2.61297,-6.26694 1.90798,-1.573979 5.19798,-1.110987 6.71898,0.767 1.23798,1.52898 1.551,3.59696 1.69002,5.49994 0,0 0.0911,0.99998 0.0911,0.99998 0,0 0,2.19999 0,2.19999 0,0.42799 0.0601,0.89698 -0.10016,1.29998 -0.0151,-1.79398 -0.72797,-4.08796 -2.029,-5.35695 -2.12598,-2.07598 -5.65995,-1.76197 -7.39194,0.657 -0.99699,1.39198 -1.36699,3.23996 -1.60599,4.89995 0,0 -0.57299,5.29994 -0.57299,5.29994 0,0 0,0.89999 0,0.89999 0,0 -0.10001,1.19999 -0.10001,1.19999 -0.001,0.383 0.043,0.741 -0.10001,1.09999 z m -55.69979,-19.69983 c 0.153,0.385 0.153,1.21498 0,1.59999 z m -96.49961,0.69999 c 0.148,0.37202 0.148,0.92799 0,1.29999 z m -32.19988,2.29998 c 0.15602,0.393 0.15602,1.40699 0,1.79998 z m 55.69979,9.09991 c 0.146,0.36899 0.146,0.83099 0,1.19999 z m 96.49962,0.59999 c 0.146,0.369 0.146,0.83099 0,1.19999 z M 81.716661,113.1741 c 0,0 0.227982,1.89998 0.227982,1.89998 0,0 0.709003,4.19996 0.709003,4.19996 1.400989,5.67194 3.080981,9.4559 6.990961,13.89986 1.28602,1.46098 2.977992,2.85597 4.571999,3.97196 4.258001,2.97896 9.152964,4.72795 14.299944,5.34294 0,0 2.99998,0.28501 2.99998,0.28501 0,0 2.10005,0.10001 2.10005,0.10001 0,0 1.2,0 1.2,0 0,0 1.29997,-0.096 1.29997,-0.096 6.61564,-0.28898 12.97135,-2.76397 17.89934,-7.22093 2.72698,-2.46597 5.03598,-5.64394 6.56897,-8.9829 0,0 1.42599,-3.59997 1.42599,-3.59997 0.19801,-0.54199 0.427,-1.44697 0.70501,-1.89998 0,0 0,3.59996 0,3.59996 -0.002,1.52299 -0.43301,2.40698 -0.931,3.79997 -0.887,2.48497 -1.79799,4.59295 -3.26899,6.79993 -4.06299,6.09294 -9.95096,10.17889 -17.09932,11.75788 -3.44899,0.76098 -5.54099,0.74699 -9,0.74199 0,0 -2.49999,-0.18301 -2.49999,-0.18301 -4.354,-0.43599 -8.27797,-1.31998 -12.199971,-3.34296 -2.307999,-1.18999 -4.471998,-2.64797 -6.399963,-4.39095 -5.011973,-4.53196 -7.833984,-10.81189 -8.97498,-17.38282 -0.534011,-3.07797 -0.624985,-6.18394 -0.624985,-9.29991 z m 164.298789,3.79996 c 0.146,0.369 0.146,0.831 0,1.19999 z m 96.49961,0.5 c 0.14801,0.37198 0.14801,0.92799 0,1.29999 z m -194.29923,0.89999 c 0.105,0.264 0.17401,1.33999 0.20701,1.69998 0,0 0.33498,2.39998 0.33498,2.39998 0.35198,2.26597 1.11399,4.98694 1.99999,7.09992 1.12999,2.69197 2.74898,5.26795 4.81898,7.33893 4.42198,4.42095 10.43596,6.46793 16.53893,7.07792 0,0 2.2,0.18701 2.2,0.18701 0,0 1.29999,0 1.29999,0 0,0 0.9,0.095 0.9,0.095 0,0 1.19999,-0.10299 1.19999,-0.10299 0,0 0.8,0 0.8,0 2.53099,-0.25399 5.22998,-1.08599 7.49997,-2.22098 1.229,-0.61399 2.86399,-1.51998 3.89999,-2.40497 0.48999,-0.418 1.18099,-1.25199 1.89799,-1.14599 0.471,0.07 0.62999,0.45099 0.684,0.87599 0.096,0.75799 -0.099,1.53998 -0.12299,2.29998 -0.0329,1.04598 0.773,2.01897 1.741,2.33997 0.46199,0.15402 0.91999,0.16502 1.39999,0.15999 0,0 1.49999,-0.10001 1.49999,-0.10001 0,0 2.79999,0 2.79999,0 0,0 1.69999,-0.10001 1.69999,-0.10001 0,0 11.79996,-0.19997 11.79996,-0.19997 0,0 1.59999,-0.1 1.59999,-0.1 0,0 0,4.99994 0,4.99994 0,0 -2.19999,0 -2.19999,0 0,0 -1.69999,0.10001 -1.69999,0.10001 0,0 -11.79995,0.20001 -11.79995,0.20001 0,0 -1.7,0.1 -1.7,0.1 0,0 -2.49999,0 -2.49999,0 -1.68599,-0.003 -2.57999,-0.91298 -2.59999,-2.59997 0,0 0,-1.79998 0,-1.79998 0,-0.22699 0.014,-0.58299 -0.074,-0.78999 -0.34402,-0.81099 -1.167,-0.30199 -1.626,0.057 0,0 -1.09999,0.95699 -1.09999,0.95699 -1.78399,1.33299 -4.19199,2.54498 -6.29998,3.26797 -2.98399,1.02299 -4.91198,1.11299 -7.99997,1.10799 0,0 -1.29999,-0.096 -1.29999,-0.096 -2.70399,-0.118 -5.39098,-0.502 -7.99997,-1.24599 -2.20299,-0.62799 -4.33298,-1.52298 -6.29998,-2.70297 -1.41699,-0.84999 -2.92898,-1.99098 -4.09598,-3.15897 -3.84498,-3.84396 -5.89898,-9.1149 -6.77897,-14.39585 -0.19899,-1.19398 -0.511,-3.33096 -0.525,-4.49995 0,0 -0.10001,-1.89998 -0.10001,-1.89998 z m 163.59936,0.7 c 0.15998,0.40299 0.1,0.87198 0.096,1.29998 0,0 0,1.69998 0,1.69998 0,0 -0.096,0.99999 -0.096,0.99999 -0.055,4.74096 -1.249,13.17286 -2.059,17.99981 0,0 -0.84099,4.99995 -0.84099,4.99995 -0.061,0.31699 -0.151,1.41499 -0.443,1.53398 -0.17401,0.071 -1.20199,-0.1 -1.457,-0.12899 0,0 -3.89998,-0.477 -3.89998,-0.477 0,0 -13.19995,-1.62298 -13.19995,-1.62298 0,0 -1.49999,-0.19 -1.49999,-0.19 -1.056,-0.126 -2.16099,-0.255 -2.58699,-1.41499 -0.12499,-0.34098 -0.11199,-0.64498 -0.11301,-0.99998 0,0 0,-2.59997 0,-2.59997 0,-0.444 -0.064,-0.98799 0.1,-1.39999 0.58801,1.37399 1.82899,1.36298 3.09999,1.51498 0,0 2.49999,0.31299 2.49999,0.31299 0,0 11.29996,1.38698 11.29996,1.38698 0,0 5.99997,0.68499 5.99997,0.68499 0,0 0.992,-5.89994 0.992,-5.89994 0.63,-3.80996 1.214,-7.66091 1.62399,-11.49988 0.22001,-2.05497 0.484,-4.13195 0.484,-6.19993 z m 96.49964,0.1 c 0.15986,0.40299 0.0998,0.87199 0.0998,1.29999 0,0 0,1.49998 0,1.49998 0,0 -0.0998,1.39998 -0.0998,1.39998 0,0 -0.19086,3.09997 -0.19086,3.09997 -0.23019,3.35197 -0.69801,6.66794 -1.13701,9.9999 0,0 -0.57002,4.39995 -0.57002,4.39995 0,0 -0.57501,4.99995 -0.57501,4.99995 -0.10392,0.71899 -0.2241,1.47599 -1.027,1.71899 -0.44598,0.13598 -1.41299,-0.082 -1.9,-0.16 0,0 -3.6,-0.51699 -3.6,-0.51699 0,0 -2.49994,-0.27001 -2.49994,-0.27001 0,0 -9.99998,-1.21398 -9.99998,-1.21398 0,0 -1.8,-0.22998 -1.8,-0.22998 -1.08798,-0.142 -2.22599,-0.21801 -2.686,-1.42799 -0.12586,-0.33298 -0.11301,-0.65099 -0.11414,-0.99998 0,0 0,-2.59998 0,-2.59998 0,-0.44399 -0.0639,-0.98799 0.10016,-1.39998 0.73598,1.37198 1.74697,1.35398 3.1,1.51498 0,0 1.59999,0.20001 1.59999,0.20001 0,0 13.09992,1.56998 13.09992,1.56998 0,0 3.49999,0.523 3.49999,0.523 0.69902,0.11399 1.33699,0.21498 1.83602,-0.418 0.43899,-0.556 0.49501,-1.59498 0.57899,-2.28998 0,0 0.26795,-1.89997 0.26795,-1.89997 0,0 0.23397,-2.59998 0.23397,-2.59998 0,0 0.755,-5.59994 0.755,-5.59994 0,0 0.74501,-6.29993 0.74501,-6.29993 z m -332.298163,0.79999 c 0.187991,0.473 0.101026,2.64698 0.100004,3.29997 0,0.83099 -0.154997,2.06798 -0.292005,2.89997 -0.89699,5.45494 -3.557961,10.06089 -7.707976,13.71486 -4.956984,4.36495 -11.25596,6.62693 -17.699912,7.62692 0,0 -4.199985,0.45799 -4.199985,0.45799 0,0 -1.899997,0.1 -1.899997,0.1 0,0 -3.999971,-0.1 -3.999971,-0.1 0,0 -1.000022,-0.091 -1.000022,-0.091 0,0 -2.99999,-0.29401 -2.99999,-0.29401 -4.950969,-0.59198 -9.814938,-2.12896 -14.099922,-4.69494 -4.031985,-2.41497 -7.587977,-5.62093 -10.591971,-9.2199 -0.373,-0.44699 -1.912963,-2.30297 -2.0939635,-2.69997 -0.1340222,-0.29299 -0.1130082,-0.586 -0.1140287,-0.89999 0,0 0,-2.69997 0,-2.69997 0,-0.444 -0.063987,-0.98799 0.1000065,-1.39999 1.2800067,1.91298 3.1699907,3.96996 4.7999807,5.59994 0,0 1.699987,1.68298 1.699987,1.68298 2.875,2.60098 6.245003,4.95895 9.799974,6.53094 4.256979,1.88198 8.404957,2.66297 12.999936,3.10296 0,0 2.600005,0.18301 2.600005,0.18301 0,0 3.899966,0 3.899966,0 0,0 1.199993,-0.091 1.199993,-0.091 3.671985,-0.25198 7.301982,-0.90999 10.799957,-2.07598 7.255984,-2.41798 13.926974,-7.24292 17.027954,-14.43285 0.750988,-1.74098 1.630971,-4.61195 1.67198,-6.49993 z m 169.898783,1.79998 c 0.148,0.37198 0.148,0.92799 0,1.29999 z m 96.49962,0.6 c 0.146,0.36899 0.146,0.83099 0,1.19998 z m -96.59962,4.19995 c 0.148,0.37198 0.148,0.92799 0,1.29999 z m 96.49962,0.7 c 0.146,0.36899 0.146,0.83099 0,1.19998 z m -96.59963,4.09995 c 0.14801,0.37199 0.14801,0.92799 0,1.29999 z m 96.49963,0.7 c 0.146,0.36899 0.146,0.83099 0,1.19998 z m -96.59962,4.09995 c 0.148,0.37202 0.148,0.92799 0,1.29999 z m 96.49961,0.8 c 0.14601,0.36899 0.14601,0.83099 0,1.19998 z m -96.59961,2.59997 c 0.16399,0.41199 0.10001,0.95599 0.10001,1.39998 0,0 -0.10001,3.09997 -0.10001,3.09997 -0.002,0.34602 0.003,0.564 -0.11002,0.89999 -0.295,0.87799 -1.056,1.56499 -1.98999,1.69498 0,0 -1,0 -1,0 0,0 -0.99999,0.105 -0.99999,0.105 0,0 -4.69999,0 -4.69999,0 0,0 -1.49999,0.1 -1.49999,0.1 0,0 -4.49998,0 -4.49998,0 0,0 -1.5,0.10001 -1.5,0.10001 0,0 -3.99998,0 -3.99998,0 -1.61199,-0.02 -2.39799,-1.06599 -2.39999,-2.59997 0,0 0,-2.49997 0,-2.49997 0,-0.444 -0.064,-0.988 0.1,-1.39999 0.803,1.63498 1.92,1.60198 3.49999,1.59998 0,0 1.7,-0.10001 1.7,-0.10001 0,0 4.29998,0 4.29998,0 0,0 1.69999,-0.1 1.69999,-0.1 0,0 4.19999,0 4.19999,0 0,0 1.59999,-0.10001 1.59999,-0.10001 0,0 2.79998,0 2.79998,0 1.376,-0.017 2.575,-0.771 2.8,-2.19998 z m 96.49962,0.1 c 0.16399,0.41201 0.1,0.956 0.1,1.39999 0,0 0,1.19999 0,1.19999 0,0 -0.1,1.79998 -0.1,1.79998 -0.002,0.349 0.001,0.559 -0.105,0.89999 -0.277,0.88899 -1.066,1.56899 -1.99499,1.69498 0,0 -1,0 -1,0 0,0 -0.99999,0.105 -0.99999,0.105 0,0 -4.69999,0 -4.69999,0 0,0 -1.49999,0.1 -1.49999,0.1 0,0 -4.49998,0 -4.49998,0 0,0 -1.5,0.10001 -1.5,0.10001 0,0 -3.99998,0 -3.99998,0 -1.671,-0.0212 -2.39799,-1.14798 -2.39999,-2.69996 0,0 0,-2.49998 0,-2.49998 0,-0.444 -0.064,-0.98799 0.10001,-1.39999 0.73499,2.30498 3.41798,1.60298 5.19998,1.59998 0,0 4.29998,0 4.29998,0 0,0 1.69999,-0.1 1.69999,-0.1 0,0 4.29999,0 4.29999,0 0,0 1.59999,-0.10001 1.59999,-0.10001 0,0 2.69999,0 2.69999,0 1.314,-0.0159 2.54399,-0.734 2.79999,-2.09998 z m -86.09966,1.69999 c 0.50899,0.60499 0.591,0.94699 1.39999,1.30998 0.647,0.29001 1.04,0.14 1.69999,0.21801 0,0 4.09999,0.072 4.09999,0.072 0,0 1.49999,0.10001 1.49999,0.10001 0,0 7.59997,0.1 7.59997,0.1 0,0 1.6,0.10001 1.6,0.10001 0,0 2.99999,0 2.99999,0 0,0 1.59999,0.1 1.59999,0.1 0,0 0.69999,0 0.69999,0 0,0 0,4.89995 0,4.89995 0,0 -2.79998,0 -2.79998,0 0,0 -1.7,-0.1 -1.7,-0.1 0,0 -7.59997,-0.10001 -7.59997,-0.10001 0,0 -1.69999,-0.1 -1.69999,-0.1 0,0 -2.89999,0 -2.89999,0 0,0 -1.69999,-0.10001 -1.69999,-0.10001 -1.58999,-0.002 -3.99498,0.385 -4.68699,-1.49998 -0.12499,-0.34201 -0.11198,-0.644 -0.113,-0.99999 z m 96.49962,0 c 0.43599,0.5 0.76899,0.98999 1.39999,1.28099 0.64899,0.29998 0.96099,0.17499 1.59999,0.23599 0,0 4.19999,0.083 4.19999,0.083 0,0 1.49999,0.10001 1.49999,0.10001 0,0 7.79997,0.1 7.79997,0.1 0,0 1.69999,0.10001 1.69999,0.10001 0,0 1.2,0 1.2,0 1.505,0.002 2.28199,0.45199 3.69998,-0.4 0,0 0,4.09996 0,4.09996 -0.006,0.427 -0.0219,0.84699 -0.41299,1.11499 -0.497,0.34 -1.96099,0.192 -2.58699,0.18501 0,0 -1.4,-0.10001 -1.4,-0.10001 0,0 -2.69999,0 -2.69999,0 0,0 -1.69999,-0.10001 -1.69999,-0.10001 0,0 -3.09999,0 -3.09999,0 0,0 -1.69999,-0.1 -1.69999,-0.1 0,0 -6.79997,-0.10001 -6.79997,-0.10001 -1.707,-0.02 -2.69699,-0.85899 -2.69999,-2.59997 z" />
     <path
          id="scummvmlogo01"
          fill="#00c832"
          d="m 39.892349,55.430255 c 0,0 3.400014,0 3.400014,0 0,0 1.899997,0.07899 1.899997,0.07899 0,0 4.29995,0.472995 4.29995,0.472995 7.078993,1.042985 13.583947,3.928957 19.299934,8.213916 0,0 4.499998,3.684963 4.499998,3.684963 0,0 1.39997,1.318978 1.39997,1.318978 0.196007,0.183006 0.612019,0.505001 0.736025,0.712998 0.223971,0.375003 -0.031,0.681991 -0.235994,0.995989 0,0 -1.467017,2.199975 -1.467017,2.199975 0,0 -4.599968,6.999933 -4.599968,6.999933 -0.715993,1.074987 -1.249017,2.260976 -2.733006,2.195977 -0.89,-0.039 -1.343994,-0.513999 -1.999966,-1.029992 0,0 -2.900019,-2.131981 -2.900019,-2.131981 -1.920975,-1.255988 -3.93697,-2.360976 -5.999977,-3.359961 -3.323972,-1.608982 -6.952947,-3.016972 -10.699952,-2.97397 -2.054999,0.02381 -3.783973,1.174985 -4.09998,3.299959 -0.039,0.265024 -0.08901,0.531003 -0.068,0.799994 0.264002,3.312968 4.408993,5.395951 6.967985,6.919931 0,0 4.09998,2.210975 4.09998,2.210975 0,0 7.799969,4.349955 7.799969,4.349955 3.305978,2.020979 6.173987,4.260957 8.899956,7.018929 1.193989,1.207989 2.443989,2.868972 3.368988,4.299962 2.133006,3.30096 3.333981,6.00693 3.987988,9.89989 0.165998,0.98999 0.338003,2.40698 0.342992,3.39997 0,0 0.09502,1.09998 0.09502,1.09998 0,0 0,1.29999 0,1.29999 0,0 -0.09502,1.69998 -0.09502,1.69998 -0.03099,2.63497 -1.075003,6.23794 -2.225978,8.59991 -1.537016,3.15397 -4.295986,6.39294 -7.073965,8.51191 -6.858985,5.23095 -15.91394,7.18693 -24.399928,7.08793 0,0 -0.999984,-0.096 -0.999984,-0.096 0,0 -1.099987,0 -1.099987,0 0,0 -1.000022,-0.095 -1.000022,-0.095 0,0 -3.699956,-0.38199 -3.699956,-0.38199 -4.212989,-0.60701 -8.345999,-1.827 -12.099962,-3.85798 -2.170991,-1.17399 -4.410994,-2.72697 -6.299995,-4.31295 0,0 -1.699987,-1.52798 -1.699987,-1.52798 -1.702973,-1.49999 -3.219993,-3.27297 -4.657985,-5.02795 0,0 -1.0039895,-1.29999 -1.0039895,-1.29999 -0.1410143,-0.192 -0.3539908,-0.45 -0.3440126,-0.69999 0.013984,-0.37501 0.9379991,-1.36599 1.2060041,-1.69998 0,0 3.538985,-4.39996 3.538985,-4.39996 0,0 3.453001,-4.29995 3.453001,-4.29995 0.519985,-0.62699 0.980972,-1.38199 1.807967,-1.62099 1.415995,-0.40999 2.20202,0.643 3.099995,1.51999 1.044014,1.01799 2.674987,2.23297 3.900003,3.04997 2.703977,1.80198 5.265957,3.02497 8.299962,4.15595 2.672984,0.99599 5.531963,1.72799 8.399968,1.69499 1.564981,-0.0189 3.675991,-0.455 4.635987,-1.79998 0.535973,-0.75 0.783002,-2.18598 0.76301,-3.09997 -0.05503,-2.39698 -2.041014,-4.01696 -3.799014,-5.33695 -3.865991,-2.90397 -8.159971,-5.21894 -12.299936,-7.70292 0,0 -4.799981,-3.03196 -4.799981,-3.03196 -4.749977,-3.33497 -9.291969,-7.829926 -11.973949,-13.027873 -1.300001,-2.517975 -2.041013,-5.28394 -2.322019,-8.099912 0,0 0,-0.899994 0,-0.899994 0,0 -0.103975,-0.999987 -0.103975,-0.999987 0,0 0,-0.999991 0,-0.999991 0,0 0.103975,-1.099988 0.103975,-1.099988 0,0 0,-0.89999 0,-0.89999 0.284031,-2.847975 0.894006,-5.403952 2.128017,-7.999919 1.970978,-4.147956 5.707971,-7.945913 9.767961,-10.074894 3.257978,-1.707981 6.263976,-2.770969 9.899943,-3.381966 0,0 3.400013,-0.425993 3.400013,-0.425993 z M 189.09231,77.609023 c 0,0 3.79999,0 3.79999,0 0,0 1.59999,-0.100008 1.59999,-0.100008 0,0 3.09999,0 3.09999,0 0,0 1.49999,-0.100005 1.49999,-0.100005 0,0 3.19999,0 3.19999,0 0,0 1.7,-0.100004 1.7,-0.100004 0,0 2.99998,0 2.99998,0 0,0 1.7,-0.100009 1.7,-0.100009 1.52599,-0.0019 3.30598,-0.09501 3.77598,1.799977 0.11501,0.464003 0.12299,0.730992 0.12401,1.199988 0,0 0.10001,4.299954 0.10001,4.299954 0,0 0.1,1.699988 0.1,1.699988 0,0 0.10001,4.199953 0.10001,4.199953 0,0 0.096,1.199992 0.096,1.199992 0,0 0,1.499979 0,1.499979 0,0 0.1,1.199988 0.1,1.199988 0,0 0,1.49999 0,1.49999 0,0 0.10798,1.499983 0.10798,1.499983 0,0 0,1.299985 0,1.299985 0,0 0.10001,1.199984 0.10001,1.199984 0,0 0,1.299992 0,1.299992 0,0 0.10001,1.19999 0.10001,1.19999 0,0 0,1.29998 0,1.29998 0,0 0.096,1.19999 0.096,1.19999 0,0 0.20001,5.79993 0.20001,5.79993 0,0 0.10401,1.69999 0.10401,1.69999 0,0 0,1.29999 0,1.29999 0,0 0.096,1.19999 0.096,1.19999 0,0 0.10001,3.39996 0.10001,3.39996 0,0 0.10401,1.49999 0.10401,1.49999 0,0 0,1.29998 0,1.29998 0,0 0.096,1.19999 0.096,1.19999 0,0 0.10001,3.49996 0.10001,3.49996 0,0 0.10401,1.49999 0.10401,1.49999 0,0 0,1.49998 0,1.49998 0,0 0.096,1.09999 0.096,1.09999 0,0 0,1.39999 0,1.39999 0,0 0.10001,1.29998 0.10001,1.29998 0,0 0,1.29999 0,1.29999 0,0 0.1,1.59998 0.1,1.59998 0,0 0.20002,8.39991 0.20002,8.39991 0,0 -2.2,0 -2.2,0 0,0 -1.59999,0.10001 -1.59999,0.10001 0,0 -11.79995,0.20001 -11.79995,0.20001 0,0 -1.7,0.1 -1.7,0.1 0,0 -1.89999,0 -1.89999,0 -1.362,0 -2.56499,0.0299 -3.15299,-1.49998 -0.11599,-0.29998 -0.13799,-0.483 -0.146,-0.79999 0,0 0.099,-1.49999 0.099,-1.49999 0,0 0,-0.39999 0,-0.39999 -0.001,-0.56 -0.10998,-1.48599 -0.9,-1.42199 -0.538,0.043 -1.46399,1.02499 -1.89999,1.37099 -1.105,0.87599 -2.53699,1.64598 -3.79998,2.27598 -2.28399,1.13898 -5.84098,2.17097 -8.39998,2.17497 0,0 -2.29998,0 -2.29998,0 0,0 -2.59999,-0.183 -2.59999,-0.183 -6.24698,-0.60499 -11.73796,-2.22698 -16.49994,-6.53394 -4.35898,-3.94096 -6.60597,-9.98889 -7.42697,-15.68283 0,0 -0.382,-3.79996 -0.382,-3.79996 0,0 -0.091,-1.19999 -0.091,-1.19999 0,0 0,-5.29994 0,-5.29994 0,0 0.096,-1.19999 0.096,-1.19999 0,0 0,-1.39998 0,-1.39998 0,0 0.10402,-1.29999 0.10402,-1.29999 0,0 0.19101,-2.99997 0.19101,-2.99997 0,0 0.89399,-10.199893 0.89399,-10.199893 0,0 0.53201,-4.999954 0.53201,-4.999954 0,0 0.76799,-6.199927 0.76799,-6.199927 0,0 0.32799,-2.399981 0.32799,-2.399981 0.031,-0.226015 0.067,-0.755992 0.24699,-0.897989 0.15999,-0.126007 0.54,-0.102009 0.74,-0.102009 0,0 7.69997,0 7.69997,0 0,0 1.49999,-0.100005 1.49999,-0.100005 0,0 8.19997,0 8.19997,0 0,0 1.29999,-0.100008 1.29999,-0.100008 0,0 2.09999,0 2.09999,0 1.096,0.01285 2.132,0.494994 2.282,1.699983 0.073,0.593993 -0.321,2.688975 -0.441,3.399964 0,0 -0.936,6.399932 -0.936,6.399932 0,0 -0.73299,6.399937 -0.73299,6.399937 0,0 -0.38901,3.69996 -0.38901,3.69996 0,0 -0.58699,6.89993 -0.58699,6.89993 0,0 -0.10001,1.09998 -0.10001,1.09998 0,0 0,1.19999 0,1.19999 0,0 -0.096,1.19999 -0.096,1.19999 0,0 0,4.39996 0,4.39996 0.004,2.87397 1.68499,6.09593 4.29999,7.40292 1.71799,0.85899 3.23698,0.91799 5.09997,0.89699 1.024,-0.0121 2.247,-0.312 3.19999,-0.68099 3.67199,-1.42299 6.09398,-4.64395 6.09998,-8.61892 0,0 0,-8.3999 0,-8.3999 0,0 -0.10001,-1.49999 -0.10001,-1.49999 0,0 0,-3.49996 0,-3.49996 0,0 -0.1,-1.49999 -0.1,-1.49999 0,0 -0.10001,-3.599957 -0.10001,-3.599957 0,0 -0.096,-0.999991 -0.096,-0.999991 0,0 0,-0.899991 0,-0.899991 0,0 -0.10401,-1.79998 -0.10401,-1.79998 0,0 -0.19098,-2.499977 -0.19098,-2.499977 0,0 -0.31801,-5.099948 -0.31801,-5.099948 0,0 -0.18198,-2.099978 -0.18198,-2.099978 0,0 -0.118,-2.399977 -0.118,-2.399977 z m -63.19975,36.599617 c 0,0 4.29999,1.15799 4.29999,1.15799 0,0 7.89996,2.21298 7.89996,2.21298 0.722,0.205 2.87399,0.75999 3.39999,1.06499 0.36499,0.21199 0.654,0.49699 0.864,0.86399 0.62899,1.10298 0.137,2.21597 -0.25901,3.29996 -0.847,2.32098 -1.689,4.68195 -2.98599,6.79993 -3.98699,6.50893 -10.27796,11.01389 -17.71896,12.65787 -3.44419,0.75999 -5.72331,0.78199 -9.20047,0.74199 0,0 -0.99998,-0.091 -0.99998,-0.091 0,0 -2.39999,-0.194 -2.39999,-0.194 -7.82197,-0.93399 -14.943967,-4.16896 -20.056931,-10.3149 -2.931011,-3.52396 -4.724996,-7.47892 -5.829972,-11.89987 -0.544024,-2.17398 -0.883993,-4.37196 -1.109026,-6.59993 0,0 0,-0.9 0,-0.9 0,0 -0.103972,-1.19999 -0.103972,-1.19999 0,0 0,-2.59996 0,-2.59996 0,0 0.100005,-1.89999 0.100005,-1.89999 0.01701,-1.42798 0.397003,-3.85595 0.657977,-5.29994 1.001988,-5.54694 3.359002,-10.992883 7.158964,-15.199842 4.519014,-5.003949 10.985985,-7.900918 17.582935,-8.872909 3.01998,-0.44499 5.663,-0.461994 8.70014,-0.426992 0,0 1.00006,0.09101 1.00006,0.09101 0,0 3.60017,0.400994 3.60017,0.400994 3.00911,0.497998 5.8801,1.32999 8.60008,2.733974 4.43899,2.289978 8.52797,6.395934 10.92297,10.773888 1.22499,2.239974 2.21599,4.436949 2.91898,6.899928 0,0 0.422,1.599979 0.422,1.599979 0.074,0.218 0.17401,0.511 0,0.686 -0.17601,0.137 -1.01899,0.31498 -1.26399,0.377 0,0 -2.99999,0.72399 -2.99999,0.72399 0,0 -7.49997,1.84998 -7.49997,1.84998 0,0 -3.99999,0.944 -3.99999,0.944 -0.323,0.0268 -0.79,-0.062 -1.09999,-0.15799 -1.556,-0.48 -1.724,-1.50099 -2.48099,-2.72297 -0.37002,-0.597 -0.903,-1.26399 -1.362,-1.799983 -1.78505,-2.083978 -4.64119,-3.167965 -7.35738,-3.199967 0,0 -1.40008,0 -1.40008,0 -0.89405,0.0011 -1.65701,0.183006 -2.50004,0.466991 -3.43697,1.155991 -5.78696,4.065959 -6.89995,7.432919 -0.626,1.89598 -0.72302,3.62597 -0.70001,5.59995 0,0 0.091,0.99999 0.091,0.99999 0.242,3.46196 1.30597,6.50493 3.80895,8.9999 1.259,1.25499 2.67201,2.15598 4.4,2.61197 1.00599,0.26499 1.95907,0.4 3.0001,0.388 1.37808,-0.0159 2.78815,-0.55999 4.0002,-1.17598 2.98321,-1.51599 6.11618,-4.43296 6.80018,-7.82393 z m 96.09962,-33.799645 c 1.192,-0.156999 2.39899,-0.098 3.59999,-0.100005 0,0 1.69999,-0.100008 1.69999,-0.100008 0,0 2.39999,0 2.39999,0 0,0 1.7,-0.100005 1.7,-0.100005 0,0 6.59997,-0.100008 6.59997,-0.100008 0,0 1.5,-0.100005 1.5,-0.100005 1.36899,-0.01588 2.73999,0.143019 3.35198,1.599983 0.26498,0.630992 0.20799,0.977995 0.29,1.599983 0,0 0.27901,2.499974 0.27901,2.499974 0.072,0.346998 0.28399,0.673994 0.679,0.662997 0.41299,-0.01096 0.89399,-0.558 1.19999,-0.82 0,0 2.69999,-2.170969 2.69999,-2.170969 2.21899,-1.549987 5.38198,-2.639977 8.09997,-2.671979 3.08799,-0.0359 6.27297,0.561 8.79996,2.437982 1.104,0.819989 1.796,1.463982 2.63499,2.561969 0.413,0.541995 0.758,1.242986 1.565,1.122986 0.81299,-0.120983 1.49199,-1.064985 2.09999,-1.593979 1.049,-0.912988 2.77899,-2.125978 3.99998,-2.797971 2.58999,-1.424985 5.92798,-2.425975 8.89997,-2.430976 0,0 3.69999,0 3.69999,0 0,0 1.09999,0.09101 1.09999,0.09101 2.15899,0.148007 4.31298,0.438998 6.39997,1.037992 1.957,0.561991 3.66099,1.286984 5.39999,2.351977 1.06699,0.653991 2.18498,1.474979 3.09998,2.327972 5.43298,5.05895 7.00797,12.001876 7.71697,19.090805 0,0 0.28301,3.59996 0.28301,3.59996 0,0 0.10001,1.59998 0.10001,1.59998 0,0 0,2.09998 0,2.09998 0,0 0.1,1.49999 0.1,1.49999 0,0 -0.1,1.49998 -0.1,1.49998 0,0 0,2.39997 0,2.39997 0,0 -0.10001,1.99999 -0.10001,1.99999 0,0 -0.091,0.99998 -0.091,0.99998 0,0 -0.192,2.59998 -0.192,2.59998 -0.42899,4.42695 -1.09599,8.7989 -1.74399,13.19986 0,0 -0.848,4.99995 -0.848,4.99995 -0.065,0.37398 -0.10798,1.47298 -0.53899,1.55198 0,0 -1.886,-0.20999 -1.886,-0.20999 0,0 -3.49999,-0.427 -3.49999,-0.427 0,0 -11.99995,-1.47298 -11.99995,-1.47298 0,0 -2.49999,-0.314 -2.49999,-0.314 -1.21499,-0.15001 -2.25499,-0.155 -2.74499,-1.52799 -0.27999,-0.78299 -0.042,-1.32798 0.12401,-2.09997 0,0 0.82099,-3.69996 0.82099,-3.69996 1.018,-4.75996 2.06099,-9.4749 2.74199,-14.29986 0.29601,-2.08997 0.57,-4.19295 0.662,-6.29993 0,0 0.096,-1.29999 0.096,-1.29999 0,0 0,-1.39998 0,-1.39998 0.017,-1.84398 0.047,-3.15997 -0.32001,-4.99995 -0.43001,-2.15698 -1.415,-4.27695 -3.67999,-4.996947 -0.752,-0.238982 -1.12999,-0.211996 -1.89999,-0.203001 -2.138,0.02608 -3.56499,1.545978 -4.35699,3.399968 -0.64499,1.50898 -0.88499,3.46895 -1.059,5.09995 0,0 -0.38799,4.79994 -0.38799,4.79994 0,0 -0.096,1.29999 -0.096,1.29999 0,0 0,0.59999 0,0.59999 0,0 -0.1,1.49999 -0.1,1.49999 0,0 0,2.29998 0,2.29998 0,0 -0.10001,1.49998 -0.10001,1.49998 0,0 0,5.59993 0,5.59993 0,0 0.10001,1.49999 0.10001,1.49999 0,0 0,3.09997 0,3.09997 0,0 0.1,1.69998 0.1,1.69998 0,0 0,2.19998 0,2.19998 0,0 0.10001,1.39998 0.10001,1.39998 0,0 0.31698,5.39995 0.31698,5.39995 0,0 0.28302,2.49998 0.28302,2.49998 0,0 -2.89999,0 -2.89999,0 0,0 -1.69999,-0.10001 -1.69999,-0.10001 0,0 -7.59997,-0.10001 -7.59997,-0.10001 0,0 -1.69999,-0.1 -1.69999,-0.1 0,0 -2.9,0 -2.9,0 0,0 -1.69999,-0.10001 -1.69999,-0.10001 0,0 -1.89999,0 -1.89999,0 -1.46,-0.002 -2.60399,-0.52299 -2.85599,-2.09998 -0.089,-0.55699 0.055,-1.13198 0.056,-1.69998 0,0 0.10001,-3.09997 0.10001,-3.09997 0,0 0.1,-1.69998 0.1,-1.69998 0,0 0,-1.39998 0,-1.39998 0,0 0.10001,-1.59999 0.10001,-1.59999 0,0 0,-20.99978 0,-20.99978 0,0 -0.10001,-1.19999 -0.10001,-1.19999 0,0 0,-0.89999 0,-0.89999 -0.14699,-2.02197 -0.539,-4.36895 -1.42599,-6.19993 -0.761,-1.57099 -1.501,-2.596975 -3.37399,-2.599975 -1.13999,-0.0019 -2.23799,0.08701 -3.19999,0.778995 -0.88499,0.63599 -1.35199,1.79098 -1.61099,2.82097 -0.299,1.18999 -0.28899,3.32796 -0.28899,4.59995 0,0 0,1.59998 0,1.59998 0,0 -0.1,1.59999 -0.1,1.59999 0,0 0,3.09996 0,3.09996 0,0 -0.10001,1.49999 -0.10001,1.49999 0,0 0,3.29996 0,3.29996 0,0 -0.1,1.59999 -0.1,1.59999 0,0 0,3.19996 0,3.19996 0,0 -0.10001,1.69999 -0.10001,1.69999 0,0 0,3.09997 0,3.09997 0,0 -0.10001,1.69998 -0.10001,1.69998 0,0 -0.1,7.89991 -0.1,7.89991 -10e-4,0.37701 -0.10402,1.90398 -0.21302,2.19998 -0.28898,0.78799 -1.05999,1.42899 -1.88699,1.58798 0,0 -1,0 -1,0 0,0 -1.19999,0.11199 -1.19999,0.11199 0,0 -4.29999,0 -4.29999,0 0,0 -1.69999,0.10001 -1.69999,0.10001 0,0 -4.19998,0 -4.19998,0 0,0 -1.7,0.1 -1.7,0.1 0,0 -4.09998,0 -4.09998,0 -1.61799,-0.008 -2.49699,-0.89098 -2.49999,-2.49997 0,0 0,-18.79981 0,-18.79981 0,0 0.10001,-1.49998 0.10001,-1.49998 0,0 0,-4.19996 0,-4.19996 0,0 -0.10001,-1.49998 -0.10001,-1.49998 0,0 0,-8.89991 0,-8.89991 0,0 -0.10001,-1.49998 -0.10001,-1.49998 0,0 0,-3.899962 0,-3.899962 0,0 -0.1,-1.69998 -0.1,-1.69998 0,0 0,-2.299976 0,-2.299976 0,0 -0.10001,-1.699984 -0.10001,-1.699984 0,0 -0.1,-4.199957 -0.1,-4.199957 0,0 -0.096,-1.199984 -0.096,-1.199984 0,0 0,-1.299985 0,-1.299985 0,0 -0.10001,-1.199989 -0.10001,-1.199989 0,0 0,-1.199988 0,-1.199988 0,0 -0.10401,-1.499986 -0.10401,-1.499986 z m 113.29955,-0.457996 c 1.552,-0.189013 3.32399,-0.068 4.06499,1.557983 0.22798,0.500994 0.242,1.060984 0.30701,1.599983 0.085,0.712995 0.11701,1.971979 0.30599,2.599971 0.088,0.292005 0.29201,0.750991 0.62599,0.817995 0.409,0.08001 0.916,-0.543992 1.154,-0.817995 0.86,-0.988987 1.66899,-1.667982 2.74199,-2.411972 2.75499,-1.907982 5.77498,-2.726968 9.09996,-2.687976 0,0 1,0.09101 1,0.09101 2.60199,0.189996 5.01698,0.934989 7.09997,2.550977 0.841,0.65399 1.63,1.420979 2.28799,2.257972 0.31699,0.402 0.98,1.204989 1.512,1.261987 0.569,0.061 1.13499,-0.599992 1.49999,-0.961985 0.941,-0.934996 1.99799,-1.731986 3.09999,-2.466977 2.77999,-1.85298 5.28998,-2.829968 8.59999,-3.260966 0,0 1.89997,-0.172006 1.89997,-0.172006 0,0 3.6,0 3.6,0 0,0 1.2,0.09101 1.2,0.09101 2.88099,0.198008 5.79892,0.659994 8.49995,1.728982 3.26102,1.29099 6.26295,3.434965 8.45496,6.179935 3.389,4.241953 4.82699,9.703902 5.46001,14.999843 0,0 0.39402,3.99996 0.39402,3.99996 0,0 0.0911,0.99999 0.0911,0.99999 0,0 0.10014,1.69998 0.10014,1.69998 0,0 0,1.39999 0,1.39999 0,0 0.0998,1.69998 0.0998,1.69998 0,0 -0.0998,5.09995 -0.0998,5.09995 0,0 -0.10014,1.89998 -0.10014,1.89998 0,0 -0.19086,2.39998 -0.19086,2.39998 0,0 -0.73702,6.89992 -0.73702,6.89992 0,0 -0.55699,3.89996 -0.55699,3.89996 0,0 -0.39804,3.29996 -0.39804,3.29996 0,0 -0.3749,3.49997 -0.3749,3.49997 -0.10205,0.68899 -0.18408,2.05498 -0.541,2.59597 -0.44399,0.673 -1.01397,0.598 -1.70098,0.50399 0,0 -3.6,-0.54199 -3.6,-0.54199 0,0 -5.89999,-0.67399 -5.89999,-0.67399 0,0 -7.09994,-0.87899 -7.09994,-0.87899 -0.85201,-0.095 -3.24302,-0.32398 -3.90001,-0.63799 -0.39599,-0.18898 -0.62499,-0.389 -0.85799,-0.767 -0.54502,-0.91798 -0.22602,-1.74798 0,-2.69997 0,0 1.16999,-5.29994 1.16999,-5.29994 0.986,-4.28396 1.84198,-8.64191 2.41598,-12.99987 0,0 0.58103,-5.69994 0.58103,-5.69994 0,0 0.0911,-0.99999 0.0911,-0.99999 0,0 0,-1.29999 0,-1.29999 0,0 0.0911,-1.29998 0.0911,-1.29998 0,0 -0.0911,-1.19999 -0.0911,-1.19999 -0.004,-1.78398 -0.35604,-4.27195 -1.30598,-5.79994 -1.14301,-1.83798 -2.518,-2.423973 -4.59402,-2.399972 -0.683,0.0079 -1.40096,0.201979 -1.99993,0.534992 -0.99204,0.551 -1.68604,1.46199 -2.17403,2.46498 -0.783,1.61098 -1.052,3.82296 -1.24199,5.59994 0,0 -0.293,3.39996 -0.293,3.39996 0,0 -0.091,0.99999 -0.091,0.99999 0,0 -0.1,2.59997 -0.1,2.59997 0,0 -0.10001,1.59999 -0.10001,1.59999 0,0 0,2.49997 0,2.49997 0,0 -0.1,1.69998 -0.1,1.69998 0,0 0,3.99996 0,3.99996 0,0 0.1,1.69999 0.1,1.69999 0,0 0,2.99997 0,2.99997 0,0 0.10001,1.59998 0.10001,1.59998 0,0 0,2.39998 0,2.39998 0,0 0.096,1.19998 0.096,1.19998 0,0 0,1.29998 0,1.29998 0,0 0.095,1 0.095,1 0,0 0.16702,2.59997 0.16702,2.59997 0,0 0.238,2.39997 0.238,2.39997 0.0121,0.295 0.01,0.717 -0.181,0.95799 -0.26699,0.33702 -1.304,0.44001 -1.715,0.41 0,0 -1.49999,-0.077 -1.49999,-0.077 0,0 -1.2,-0.091 -1.2,-0.091 0,0 -2.69998,0 -2.69998,0 0,0 -1.7,-0.1 -1.7,-0.1 0,0 -7.69997,-0.10001 -7.69997,-0.10001 0,0 -1.69999,-0.10001 -1.69999,-0.10001 0,0 -1.89999,0 -1.89999,0 -1.216,-0.002 -2.40399,-0.37899 -2.77999,-1.69998 -0.12299,-0.59399 -0.0212,-1.10099 0,-1.69998 0,0 0,-1.19999 0,-1.19999 0,0 0.08,-1.19999 0.08,-1.19999 0,0 0.1,-3.49996 0.1,-3.49996 0,0 0.10001,-1.69998 0.10001,-1.69998 0,0 0,-3.89996 0,-3.89996 0,0 0.1,-1.69998 0.1,-1.69998 0,0 0,-13.59986 0,-13.59986 0,0 -0.1,-1.49999 -0.1,-1.49999 0,0 0,-1.19998 0,-1.19998 0,0 -0.091,-1.19999 -0.091,-1.19999 -0.15402,-2.24298 -0.367,-4.17596 -1.18999,-6.29994 -0.40201,-1.03598 -1.097,-2.27697 -2.119,-2.800969 -0.703,-0.358982 -1.33899,-0.307995 -2.09999,-0.299 -1.038,0.01285 -2.243,0.360983 -2.99099,1.108989 -0.97799,0.97799 -1.40299,2.94597 -1.40899,4.29096 0,0 -0.10001,1.59998 -0.10001,1.59998 0,0 0,3.19997 0,3.19997 0,0 -0.1,1.69998 -0.1,1.69998 0,0 0,3.29997 0,3.29997 0,0 -0.10001,1.49998 -0.10001,1.49998 0,0 -0.20002,12.89986 -0.20002,12.89986 0,0 -0.1,1.69999 -0.1,1.69999 0,0 0,3.09996 0,3.09996 0,0 -0.10001,1.69999 -0.10001,1.69999 0,0 0,2.99996 0,2.99996 -10e-4,0.486 -0.038,1.03299 -0.17801,1.49999 -0.23399,0.77699 -1.01399,1.52498 -1.822,1.68798 0,0 -1.09999,0 -1.09999,0 0,0 -1.19999,0.11199 -1.19999,0.11199 0,0 -4.29999,0 -4.29999,0 0,0 -1.69999,0.1 -1.69999,0.1 0,0 -4.19999,0 -4.19999,0 0,0 -1.69999,0.10001 -1.69999,0.10001 0,0 -4.09998,0 -4.09998,0 -1.597,-0.008 -2.49799,-0.91099 -2.49999,-2.49997 0,0 0,-16.89983 0,-16.89983 0,0 0.1,-1.49998 0.1,-1.49998 0,0 0,-8.19991 0,-8.19991 0,0 -0.1,-1.49999 -0.1,-1.49999 0,0 0,-7.79991 0,-7.79991 0,0 -0.10001,-1.39999 -0.10001,-1.39999 0,0 0,-3.499972 0,-3.499972 0,0 -0.1,-1.69998 -0.1,-1.69998 0,0 0,-2.199979 0,-2.199979 0,0 -0.10001,-1.599983 -0.10001,-1.599983 0,0 -0.10001,-4.29995 -0.10001,-4.29995 0,0 -0.096,-1.199992 -0.096,-1.199992 0,0 0,-1.199988 0,-1.199988 0,0 -0.10401,-1.69998 -0.10401,-1.69998 0,0 -0.10001,-2.899972 -0.10001,-2.899972 -0.002,-0.36 -0.18701,-1.395984 0,-1.625978 0.17001,-0.211996 0.65,-0.17401 0.9,-0.17401 0,0 2.59999,0 2.59999,0 0,0 1.49999,-0.100009 1.49999,-0.100009 0,0 6.69998,-0.100004 6.69998,-0.100004 0,0 1.69999,-0.100009 1.69999,-0.100009 z" />
</svg>
