<?xml version="1.0" encoding="UTF-8" standalone="no"?>
<svg xmlns="http://www.w3.org/2000/svg" xmlns:svg="http://www.w3.org/2000/svg" width="640" height="89" id="svgscdlogo" version="1.1">
  <g id="scdlogo">
    <path id="scdlogo01" fill="#b2ae85" d="M -2.4113814e-7,-3.6701142e-6 H 640 V 88.999996 H -2.4113814e-7 Z"/>
    <path id="scdlogo00" fill="#000000" d="M 3.7005662,84.979165 V 4.0210263 L 320.48029,4.1903256 636.29943,4.020824 v 80.81673 z M 189.60467,63.098854 h -2.56162 c 0,2.06566 -1.46989,2.978424 -2.6808,3.303536 H 128.21052 V 48.185758 h 36.43338 c 0.45665,0.0054 2.07126,1.623705 2.31098,2.875385 h 2.07486 V 33.95663 h -2.32878 c 0,1.722907 -1.36073,3.344225 -2.25454,3.333692 h -36.2359 V 21.159297 h 54.3726 c 1.4301,0.284483 2.92176,2.094838 2.92176,3.369802 h 2.06383 V 6.9833128 h -2.02611 c -0.0841,1.2643841 -1.09218,2.9673037 -2.6695,3.2623262 h -77.52982 v 1.447501 c 2.60243,0.04471 3.78624,2.102977 3.78624,2.997035 v 58.58047 c -0.16932,1.168601 -1.28232,2.668107 -3.9322,2.51431 v 1.954124 h 79.42387 c 0.98693,0.497325 2.2801,1.114553 2.49213,3.28723 h 2.53341 z M 99.53178,56.859244 C 99.051787,39.443524 74.736742,36.443306 61.944142,35.812139 49.998839,35.222781 38.628892,33.95669 36.226853,31.549829 c -2.289282,-2.293882 -3.150397,-5.005052 1.525158,-8.407574 3.368127,-2.45107 8.77946,-3.66349 17.83376,-3.697079 13.206102,-0.04902 27.045881,3.91543 31.031022,8.892996 1.306206,1.631494 0.01536,1.983344 2.051444,2.635058 L 99.495163,14.777448 97.680084,13.802922 c 0,0 -2.098302,1.340557 -3.297927,1.340557 -3.010294,0 -18.608754,-7.5429849 -39.226635,-7.5489933 -17.486523,0 -38.169214,5.7462103 -38.696701,21.6130433 0,4.72527 -0.09474,11.277166 13.640171,17.423913 13.815095,6.182636 50.404362,0.286769 50.404362,11.056489 0,11.391864 -29.999165,11.584381 -45.918151,6.002028 C 32.25151,62.871596 24.295904,61.242388 24.705815,54.853445 L 22.988889,54.481919 12.901343,71.39558 c 2.178445,2.18282 1.700699,0.222485 4.737835,0.222485 3.225461,0.179225 17.068685,7.301679 39.851984,7.718076 C 77.702738,79.705544 98.965029,73.28368 99.53178,56.859244 Z M 630.17407,77.814315 V 10.476836 L 410.29029,10.226367 V 78.064785 Z M 509.88382,22.207953 c -78.46459,14.675992 -64.83787,50.795803 3.49111,42.915655 -108.1876,22.591387 -139.30159,-24.951239 -3.49111,-42.915655 z m 15.199,11.253389 6.82182,25.032787 c 57.24003,-6.455425 83.39175,-43.201702 -9.95977,-39.031056 76.48331,-9.9843853 103.45894,0.688749 96.92954,11.668201 -6.5294,10.979453 -44.89826,25.364616 -94.10726,32.102455 z M 292.08685,66.879713 c -0.0279,-1.398348 -2.68,-0.833327 -4.05592,-3.221279 V 47.145133 c -0.0298,-0.62584 1.67106,-2.3505 3.87198,-2.439904 l -0.0487,-1.753137 H 249.1039 c -0.98331,-0.96806 -1.69912,-1.974442 -1.89673,-2.945496 h -2.46574 v 15.927341 h 2.08089 c 1.04541,-0.748097 0.68668,-2.529348 2.67892,-3.116791 l 23.09664,0.04457 v 9.181782 C 192.24321,87.224954 196.8123,-0.17188023 268.26177,23.77786 c 7.46508,3.049815 3.73091,6.120401 7.47203,6.121965 l 9.66709,-16.152267 c -1.00948,-1.664981 -2.71748,0.344297 -4.62231,0.222626 -3.90981,0 -17.88573,-5.8770387 -34.43653,-5.9438454 -23.79526,0.056914 -51.67833,8.6090394 -51.67833,36.3695314 1.57868,26.632075 30.36552,35.037471 53.16703,33.254021 10.98694,0 30.0219,-3.170272 44.2561,-10.770178 z m 27.30837,8.129025 c -1.07185,-0.0047 -3.99821,-0.7929 -3.94097,-3.787885 l 6.44248,-11.691938 36.21981,0.07619 c 0.75596,1.656491 6.60695,10.362001 6.45452,12.380174 0,0.433943 -0.034,2.773316 -3.90053,3.076991 v 1.859555 l 29.4418,-2.02e-4 v -1.793079 c -2.13136,-0.125609 -3.5592,-0.671411 -4.32857,-1.53041 L 351.22729,14.16461 c 0.0421,-2.422129 2.91934,-2.652597 3.65963,-3.115841 V 9.1521394 h -28.35785 l -0.013,1.8755566 c 2.87816,0.210502 4.03668,1.92059 3.62029,4.093577 l -32.7642,57.948581 c -1.44872,1.27311 -2.49859,2.138758 -4.45976,1.978266 v 1.766833 h 26.5248 z m 7.55892,-24.863623 13.05307,-24.123395 13.07094,24.149897 z"/>
  </g>
</svg>
