<?xml version="1.0" encoding="UTF-8" standalone="no"?>
<!-- Created with Inkscape (http://www.inkscape.org/) -->

<svg
   width="127.00004mm"
   height="18.626381mm"
   viewBox="0 0 127.00004 18.626381"
   version="1.1"
   id="svg5"
   inkscape:version="1.2.1 (9c6d41e410, 2022-07-14, custom)"
   sodipodi:docname="system.svg"
   xmlns:inkscape="http://www.inkscape.org/namespaces/inkscape"
   xmlns:sodipodi="http://sodipodi.sourceforge.net/DTD/sodipodi-0.dtd"
   xmlns="http://www.w3.org/2000/svg"
   xmlns:svg="http://www.w3.org/2000/svg">
  <sodipodi:namedview
     id="namedview7"
     pagecolor="#8b8b8b"
     bordercolor="#666666"
     borderopacity="1.0"
     inkscape:showpageshadow="2"
     inkscape:pageopacity="0"
     inkscape:pagecheckerboard="true"
     inkscape:deskcolor="#d1d1d1"
     inkscape:document-units="mm"
     showgrid="false"
     inkscape:zoom="0.7500982"
     inkscape:cx="262.63228"
     inkscape:cy="279.96334"
     inkscape:window-width="1920"
     inkscape:window-height="1023"
     inkscape:window-x="1366"
     inkscape:window-y="29"
     inkscape:window-maximized="1"
     inkscape:current-layer="layer1" />
  <defs
     id="defs2" />
  <g
     inkscape:label="Layer 1"
     inkscape:groupmode="layer"
     id="layer1"
     transform="translate(5.7110739,-74.453721)">
    <path
       id="Selection"
       fill="none"
       stroke="#000000"
       stroke-width="0.331946"
       d="m 0.43332984,93.073675 c 0,0 0,-1.229585 0,-1.229585 0,0 -0.0843143,-1.053928 -0.0843143,-1.053928 0,0 0,-9.661012 0,-9.661012 0,0 0,-2.722649 0,-2.722649 -9.9584e-4,-0.226594 0.0175599,-0.563852 -0.15281798,-0.73775 -0.16687259,-0.170385 -0.5032534,-0.139646 -0.72545474,-0.140524 0,0 -3.95223222,0 -3.95223222,0 -0.8624655,-0.01054 -1.2243132,0.01844 -1.2295845,-0.790446 0,0 0,-1.493066 0,-1.493066 0.00966,-0.712279 0.1334987,-0.70174 0.7904465,-0.702618 0,0 4.04005847,0 4.04005847,0 0,0 1.40524035,-0.08783 1.40524035,-0.08783 0,0 7.37749948,0 7.37749948,0 0,0 1.4930633,0.08783 1.4930633,0.08783 0.1879512,0.0035 0.4189391,-0.0035 0.5620975,0.140523 0.1686283,0.168629 0.1396433,0.514669 0.1405223,0.73775 0,0 0,2.02003 0,2.02003 0,0 -1.4052366,0.08783 -1.4052366,0.08783 0,0 -4.9183339,0 -4.9183339,0 0,0 -0.087826,3.337441 -0.087826,3.337441 0,0 -0.08783,1.229583 -0.08783,1.229583 0,0 0,7.3775 0,7.3775 0,0 0,2.634822 0,2.634822 0,0 -0.1695049,0.825576 -0.1695049,0.825576 0,0 -0.7087678,0.140526 -0.7087678,0.140526 0,0 -2.28702507,0 -2.28702507,0 z M 77.110147,74.542097 c 0,0 1.756549,-0.08783 1.756549,-0.08783 0,0 2.195684,0 2.195684,0 0.181803,0 0.446165,-0.0097 0.614793,0.0527 0.381171,0.142281 1.234853,1.254175 1.544004,1.616024 0,0 1.690678,1.844375 1.690678,1.844375 0,0 2.424035,2.810477 2.424035,2.810477 0,0 2.093806,2.283512 2.093806,2.283512 0.482172,0.563851 0.841387,0.945022 0.345161,1.66872 -0.250307,0.364483 -1.550155,1.620415 -1.949768,2.02003 0,0 -4.295637,4.303541 -4.295637,4.303541 -0.366239,0.393466 -1.407873,1.749521 -1.764452,1.930445 -0.210786,0.106273 -0.471633,0.08871 -0.70262,0.08959 0,0 -2.722648,0 -2.722648,0 -0.233621,0 -0.923066,0.04216 -1.089059,-0.08959 -0.1739,-0.137887 -0.140526,-0.498858 -0.140526,-0.700861 0,0 0,-17.741131 0,-17.741131 z m 2.986134,14.754998 c 1.666963,-0.718426 3.394526,-2.395051 4.830504,-3.56052 0.422452,-0.342527 1.542248,-1.082034 1.619539,-1.621294 0.07992,-0.562095 -1.045149,-1.342881 -1.443883,-1.675746 0,0 -2.722651,-2.455654 -2.722651,-2.455654 -0.709644,-0.678028 -1.384158,-1.433343 -2.371339,-1.665207 0,0 0,7.3775 0,7.3775 0,0.75795 -0.07904,3.014236 0.08783,3.600921 z M 17.124046,86.135311 c 0,0 0.255575,-1.580893 0.255575,-1.580893 0,0 0,-2.371339 0,-2.371339 0,0 -0.159845,-1.932203 -0.159845,-1.932203 -0.01228,-0.181803 -0.0325,-0.592835 0.08168,-0.73775 0.137887,-0.173898 0.498858,-0.140524 0.700861,-0.140524 0,0 1.493067,0 1.493067,0 0.245915,0.0035 0.628841,-0.0026 0.78869,0.220447 0.109781,0.153698 0.08958,0.471633 0.08958,0.657827 0,0 0,6.762709 0,6.762709 0,0 0,1.493065 0,1.493065 -0.0035,0.171264 0.0088,0.406641 -0.140522,0.525208 -0.139647,0.109784 -0.475148,0.08958 -0.649924,0.08958 0,0 -5.533125,0 -5.533125,0 0,0 -1.405237,-0.08783 -1.405237,-0.08783 0,0 -2.7226515,0 -2.7226515,0 0,0 -2.1956834,0 -2.1956834,0 -0.2055144,-0.0018 -0.4821715,0.01844 -0.6376252,-0.140523 -0.1809271,-0.185316 -0.1528213,-0.582296 -0.1528213,-0.825578 0,0 0,-6.323571 0,-6.323571 0,0 0.087826,-1.405239 0.087826,-1.405239 0.00438,-0.939752 -0.1440347,-1.216409 0.9661023,-1.229583 0,0 1.0539286,0 1.0539286,0 1.0398775,0.01317 1.0521725,0.583174 1.0539285,1.493066 0,0 0,2.107857 0,2.107857 0,0 0.08783,1.493065 0.08783,1.493065 9.96e-4,0.409276 -0.05797,1.235732 0.127351,1.575624 0.217813,0.39698 0.533991,0.3557 0.926577,0.356579 0,0 5.884437,0 5.884437,0 z m 14.667171,-3.864405 c -1.502726,-0.491833 -3.333047,-0.380292 -4.918331,-0.35131 -0.922189,0.01757 -0.877397,0.658706 -0.878276,1.405239 0,0 0,4.215714 0,4.215714 -0.0035,0.286317 -0.07026,1.248906 -0.250308,1.440369 -0.175655,0.186194 -0.647288,0.143159 -0.891447,0.140524 0,0 -1.405237,-0.08958 -1.405237,-0.08958 -0.171264,-0.0053 -0.409276,-0.0044 -0.527844,-0.151063 -0.108905,-0.135254 -0.08695,-0.467242 -0.08695,-0.637627 0,0 0,-6.674881 0,-6.674881 0,-0.439137 -0.120324,-1.748643 0.201126,-2.017395 0.240648,-0.201125 0.559462,-0.177412 0.852802,-0.17829 0,0 12.383662,0 12.383662,0 0.456704,8.64e-4 1.305995,-0.01054 0.888815,0.702619 0,0 -2.364316,2.898304 -2.364316,2.898304 -0.259966,0.324962 -0.764976,0.881787 -0.744774,1.317411 0.02022,0.453189 0.586685,0.981032 0.862463,1.31741 0,0 1.558058,1.844376 1.558058,1.844376 0.387321,0.445285 0.722819,0.754437 0.941512,1.31741 -0.386442,0.164238 -0.896719,0.295979 -1.317411,0.318814 -0.51994,0.02811 -1.855794,-0.22396 -2.268582,-0.550678 0,0 -1.940985,-2.227302 -1.940985,-2.227302 0,0 -1.194454,-1.317411 -1.194454,-1.317411 -0.142279,-0.174777 -0.373267,-0.471633 -0.387318,-0.702619 -0.0158,-0.263482 0.201126,-0.512034 0.358335,-0.702619 0,0 1.12946,-1.317411 1.12946,-1.317411 z m 7.166714,-2.80872 c 0.370631,-0.158089 0.942389,-0.08958 1.352544,-0.08958 0,0 2.722648,0 2.722648,0 0,0 9.485357,0 9.485357,0 0.310908,8.64e-4 1.21553,-0.01142 1.04251,0.530478 -0.05533,0.17302 -0.551555,0.786055 -0.691201,0.962588 0,0 -1.722295,2.107857 -1.722295,2.107857 -0.283681,0.349553 -0.835236,0.925701 -0.795715,1.405238 0.02987,0.363606 0.526085,0.850169 0.761464,1.141756 0,0 1.738103,2.02003 1.738103,2.02003 0.196734,0.24943 0.59108,0.750046 0.659583,1.052172 0.11242,0.500616 -0.402249,0.440015 -0.728966,0.440893 0,0 -10.714942,0 -10.714942,0 0,0 -2.459166,0 -2.459166,0 -0.215177,0 -0.552434,0.03338 -0.708768,-0.140523 -0.184435,-0.205516 -0.169504,-0.734237 -0.169504,-1.001232 0,0 0,-6.499227 0,-6.499227 0,0 0.115052,-1.743373 0.115052,-1.743373 0.05006,-0.169507 0.05709,-0.108906 0.113296,-0.187073 z m 16.899747,-0.01493 c 0.531356,-0.146671 2.642725,-0.07465 3.335682,-0.07465 0,0 6.850536,0 6.850536,0 0,0 1.932205,0 1.932205,0 0.310908,0.0044 0.616547,0.0123 0.825577,0.283683 0.165993,0.214299 0.139646,0.51379 0.140522,0.770246 0,0 0,7.465328 0,7.465328 -9.96e-4,0.249429 0.02722,0.551555 -0.140522,0.756193 -0.09661,0.117689 -0.243284,0.194977 -0.386442,0.240647 0,0 -1.932202,0.144915 -1.932202,0.144915 0,0 -8.08012,0 -8.08012,0 0,0 -1.317411,-0.08783 -1.317411,-0.08783 -0.301247,-0.0035 -0.776392,0.0325 -1.045145,-0.0887 -0.620062,-0.278413 -0.533112,-1.280524 -0.535748,-1.843497 0,0 -0.08783,-1.405239 -0.08783,-1.405239 0,0 0,-4.127886 0,-4.127886 0,-0.352188 -0.05621,-1.487796 0.08958,-1.739861 0.100125,-0.17302 0.193223,-0.201125 0.351312,-0.293344 z m 36.534434,9.410705 c 0,0 0,-7.201846 0,-7.201846 0,0 0,-1.66872 0,-1.66872 0.0035,-0.172141 -0.01318,-0.392588 0.13789,-0.512034 0.158966,-0.124714 0.541896,-0.102758 0.740386,-0.102758 0.411908,-8.63e-4 1.781139,-0.09485 2.018272,0.224838 0.109784,0.149307 0.08959,0.471633 0.08959,0.653436 0,0 0,3.776578 0,3.776578 0.0017,0.377658 0.05796,1.741617 0.308272,1.967333 0.187075,0.168629 0.509401,0.139645 0.745657,0.140524 0,0 5.181811,0 5.181811,0 0.20815,-0.0035 0.49008,0.0035 0.64992,-0.15282 0.1941,-0.189707 0.22747,-1.219922 0.22835,-1.5159 0,0 0,-3.600923 0,-3.600923 0.004,-0.242404 0.0703,-1.10399 0.19059,-1.279645 0.16599,-0.240647 0.5173,-0.211664 0.77551,-0.213421 0,0 2.09908,0 2.09908,0 0,0 0,8.607084 0,8.607084 0.009,0.138767 0.014,0.399614 0,0.526964 -0.1941,0.688568 -0.96347,0.440015 -1.48428,0.439137 0,0 -8.431428,0 -8.431428,0 0,0 -1.141758,-0.08783 -1.141758,-0.08783 0,0 -2.107857,0 -2.107857,0 z m 15.808928,0.08783 c 0,0 -0.0799,-1.405238 -0.0799,-1.405238 0,0 0,-5.35747 0,-5.35747 0,0 0,-1.844376 0,-1.844376 0.0351,-0.153697 0.0773,-0.525207 0.16687,-0.641139 0.22308,-0.288074 1.22695,-0.324084 1.58177,-0.324962 0,0 8.78274,0 8.78274,0 0,0 1.58089,0 1.58089,0 0.24855,0.0035 0.80275,0.01493 0.96435,0.226595 0.11066,0.144915 0.0896,0.472511 0.0896,0.651679 0,0 0,8.694911 0,8.694911 0,0 -1.9322,0.08783 -1.9322,0.08783 0,0 -4.91833,0 -4.91833,0 0,0 -1.31741,-0.08783 -1.31741,-0.08783 0,0 -4.91834,0 -4.91834,0 z M 47.951458,86.310966 c -0.109785,-0.954684 -1.004748,-1.280524 -1.096086,-1.932203 -0.07378,-0.530477 0.79747,-1.233096 1.101354,-1.66872 0.496226,-0.710524 0.101001,-0.789568 -0.532233,-0.790447 0,0 -4.654852,0 -4.654852,0 -0.219569,0 -0.640261,-0.03337 -0.791326,0.15282 -0.08607,0.105393 -0.129984,0.649923 -0.150182,0.813282 -0.103637,0.876517 0.05182,1.759182 0.06323,2.634821 0.01228,0.856317 0.39171,0.789568 1.141755,0.790447 0,0 4.918335,0 4.918335,0 z m 17.916786,-0.175655 c 0,0 0,-2.546994 0,-2.546994 -0.0035,-0.267874 -0.05709,-1.345516 -0.240648,-1.493944 -0.13789,-0.111541 -0.463728,-0.08344 -0.637628,-0.08783 0,0 -1.229581,-0.08695 -1.229581,-0.08695 0,0 -4.127889,0 -4.127889,0 -0.940632,0.0018 -0.964346,0.125593 -0.966102,1.053929 -0.0017,0.919553 -0.06675,2.300199 0.08783,3.161786 0,0 1.405237,0.08783 1.405237,0.08783 0,0 4.39137,0 4.39137,0 0,0 1.317411,-0.08783 1.317411,-0.08783 z m 45.406756,0.08783 c 0,0 2.37134,0 2.37134,0 0,0 1.40524,0.08783 1.40524,0.08783 0,0 2.28351,0 2.28351,0 0,0 0.70086,-0.140524 0.70086,-0.140524 0,0 0.16951,-1.176887 0.16951,-1.176887 0,0 0,-2.02003 0,-2.02003 0,0 -0.16951,-0.73775 -0.16951,-0.73775 0,0 -0.70086,-0.140524 -0.70086,-0.140524 0,0 -3.07396,0 -3.07396,0 0,0 -1.31741,0.08783 -1.31741,0.08783 0,0 -1.66872,0 -1.66872,0 0,0 -0.0878,2.020029 -0.0878,2.020029 0,0 0.0878,2.02003 0.0878,2.02003 z"
       style="fill:#ffffff;fill-opacity:1;stroke:none" />
  </g>
</svg>
