<?xml version="1.0" encoding="UTF-8" standalone="no"?>
<svg
     width="128"
     height="128"
     id="svg_sms_logo"
     version="1.1"
     xml:space="preserve"
     xmlns="http://www.w3.org/2000/svg"
     xmlns:svg="http://www.w3.org/2000/svg">
    <path
         id="sms_logo"
         style="fill:#ff0000;stroke:none"
         d="m 126.65878,37.222222 c -10e-6,0.802813 -0.19959,1.51508 -0.59873,2.136841 -0.39919,0.621762 -1.01388,0.932645 -1.84411,0.932645 -0.89413,0 -1.57669,-0.228236 -2.04767,-0.684746 -0.47102,-0.456469 -0.70652,-0.960165 -0.70651,-1.511087 -1e-5,-0.346302 0.028,-0.66109 0.0839,-0.944451 0.0559,-0.283318 0.10779,-0.566636 0.15567,-0.849997 -0.75043,0 -1.62856,0.299075 -2.63443,0.897224 -1.00589,0.598148 -1.86008,1.448146 -2.56259,2.549991 v 13.552811 c -1e-5,0.550922 0.10778,0.999533 0.32331,1.345835 0.21555,0.346302 0.55483,0.605964 1.01786,0.779113 0.39914,0.157481 0.91405,0.275503 1.54474,0.354203 0.63065,0.07856 1.17749,0.133821 1.64053,0.165251 v 1.558355 h -12.45369 v -1.558355 c 0.36723,-0.03143 0.74642,-0.06286 1.13759,-0.09428 0.39118,-0.03143 0.73045,-0.09433 1.01786,-0.188864 0.44704,-0.141683 0.77835,-0.389622 0.9939,-0.743824 0.21554,-0.354116 0.32332,-0.814534 0.32332,-1.381213 V 39.158478 c 0,-0.48794 -0.11576,-0.968022 -0.34727,-1.44029 -0.23152,-0.472183 -0.55483,-0.849955 -0.96995,-1.133315 -0.30337,-0.188864 -0.66261,-0.326595 -1.07773,-0.413192 -0.41512,-0.08655 -0.86217,-0.145588 -1.34117,-0.177101 v -1.534742 l 7.85541,-0.51941 0.33529,0.330545 v 3.281964 h 0.1198 c 0.9899,-1.274996 2.09157,-2.24306 3.30502,-2.904192 1.21341,-0.66109 2.32307,-0.991635 3.32896,-0.991678 1.00586,4.3e-5 1.82413,0.322731 2.45482,0.968065 0.63065,0.645376 0.94599,1.511129 0.946,2.597217 z m -15.77116,14.804235 c -0.98992,1.857388 -2.31512,3.337047 -3.97559,4.438848 -1.66052,1.10189 -3.56848,1.65281 -5.72392,1.65281 -1.899995,0 -3.564479,-0.330544 -4.993453,-0.991676 -1.42899,-0.661134 -2.606493,-1.558356 -3.532538,-2.691671 -0.926048,-1.133315 -1.61659,-2.455538 -2.071622,-3.966667 -0.455044,-1.511088 -0.682556,-3.108771 -0.682556,-4.793051 0,-1.51113 0.243484,-2.994696 0.730453,-4.450699 0.486973,-1.456003 1.201462,-2.766419 2.143475,-3.931247 0.910068,-1.117601 2.03969,-2.018774 3.388837,-2.703477 1.349139,-0.684745 2.861953,-1.027097 4.538414,-1.027097 1.72435,0 3.20123,0.267604 4.43064,0.80277 1.22938,0.535208 2.22729,1.267139 2.99368,2.195833 0.73443,0.881509 1.28128,1.920414 1.64053,3.11667 0.35922,1.196298 0.53885,2.494949 0.53886,3.895826 v 1.558357 H 94.673873 c -1.2e-5,1.526843 0.147686,2.912049 0.443069,4.155574 0.295367,1.243525 0.76237,2.337513 1.401026,3.281921 0.622683,0.91298 1.43696,1.633103 2.442843,2.160455 1.005862,0.527309 2.203339,0.790963 3.592419,0.790963 1.42098,0 2.64639,-0.326637 3.67624,-0.97987 1.02979,-0.653233 2.0237,-1.829868 2.9817,-3.529862 z M 105.5948,43.14863 c -2e-5,-0.881467 -0.0759,-1.825875 -0.22752,-2.83331 -0.15169,-1.00739 -0.39518,-1.849531 -0.73045,-2.526418 -0.36724,-0.724031 -0.87018,-1.314324 -1.50882,-1.770835 -0.63866,-0.456468 -1.46092,-0.684703 -2.46679,-0.684703 -1.676471,0 -3.069518,0.688653 -4.179166,2.06596 -1.109669,1.377347 -1.71239,3.293768 -1.808181,5.749307 z M 92.625714,56.489005 c -1.037816,0.424914 -2.01974,0.782978 -2.945772,1.074197 -0.926061,0.291258 -2.059671,0.43689 -3.40082,0.43689 -1.979829,0 -3.372877,-0.491889 -4.179168,-1.475668 -0.806306,-0.983818 -1.209448,-2.372975 -1.209448,-4.167422 V 36.584745 h -4.262991 v -2.266672 h 4.358794 v -7.248631 h 4.358782 v 7.248631 h 6.777694 v 2.266672 H 85.393 v 13.009746 c -1.6e-5,0.97592 0.03591,1.790497 0.107783,2.44373 0.07186,0.653275 0.24348,1.223862 0.514913,1.711843 0.255443,0.456469 0.638631,0.802771 1.149567,1.038863 0.510911,0.236089 1.197456,0.354199 2.059655,0.354199 0.39914,0 0.985897,-0.03484 1.760271,-0.106386 0.77435,-0.07131 1.321191,-0.161386 1.640537,-0.271512 z M 77.549084,46.100049 c 0.6546,0.566678 1.157541,1.219911 1.508816,1.959699 0.351235,0.739829 0.526864,1.644953 0.526888,2.715284 -2.4e-5,2.156505 -0.81829,3.919482 -2.45481,5.288933 -1.63656,1.369404 -3.756088,2.05415 -6.358568,2.05415 -1.373114,0 -2.638438,-0.243991 -3.79598,-0.732015 -1.157565,-0.487896 -1.983826,-0.936509 -2.478773,-1.345708 l -0.478982,1.53466 h -1.79621 l -0.239491,-8.098629 h 1.652513 c 0.12772,0.613906 0.399144,1.330122 0.814277,2.148649 0.415121,0.818484 0.91805,1.558313 1.508812,2.219403 0.622671,0.692603 1.369101,1.274952 2.239266,1.747304 0.870156,0.472186 1.848083,0.708275 2.933805,0.708275 1.532755,0 2.714251,-0.342349 3.544509,-1.027095 0.830229,-0.684704 1.24535,-1.664575 1.245378,-2.939571 -2.8e-5,-0.661132 -0.131749,-1.231719 -0.395175,-1.711801 -0.263451,-0.480082 -0.650635,-0.901173 -1.161539,-1.263188 -0.526904,-0.362058 -1.173542,-0.688696 -1.939901,-0.979871 -0.766388,-0.291217 -1.620592,-0.578486 -2.562593,-0.861804 -0.750427,-0.220378 -1.584654,-0.523401 -2.502704,-0.90903 -0.918078,-0.385629 -1.704407,-0.838191 -2.359023,-1.357643 -0.702514,-0.550922 -1.277303,-1.227768 -1.724357,-2.030581 -0.447058,-0.80277 -0.670585,-1.747221 -0.670585,-2.833352 0,-1.904572 0.718486,-3.518012 2.15545,-4.840277 1.43696,-1.32218 3.360885,-1.983312 5.771811,-1.983312 0.926033,0 1.872031,0.11811 2.837999,0.354158 0.965943,0.236134 1.75228,0.519495 2.359019,0.849997 l 0.550835,-1.227768 h 1.724361 l 0.359245,7.484721 H 76.71086 c -0.335306,-1.668481 -1.057778,-3.026123 -2.167426,-4.072927 -1.109668,-1.046718 -2.462804,-1.57012 -4.059425,-1.57012 -1.30924,0 -2.339058,0.322688 -3.089473,0.968064 -0.750415,0.645376 -1.12562,1.424533 -1.12562,2.337471 0,0.708359 0.123734,1.298651 0.37122,1.770877 0.247474,0.472224 0.618686,0.873609 1.113645,1.204155 0.478983,0.31483 1.081712,0.609955 1.808181,0.885416 0.726452,0.275462 1.624556,0.586343 2.694313,0.932645 1.053753,0.330544 2.047656,0.716216 2.981699,1.156928 0.934002,0.440755 1.704383,0.928737 2.31111,1.463903 z M 64.699743,57.07917 c -0.750427,0.267647 -1.409036,0.484032 -1.975815,0.649327 -0.566828,0.165335 -1.209468,0.247939 -1.927934,0.247939 -1.245383,0 -2.239286,-0.287267 -2.981699,-0.861847 -0.742445,-0.574449 -1.217442,-1.412685 -1.424993,-2.514527 h -0.143696 c -1.037816,1.133401 -2.151473,1.999068 -3.340943,2.597219 -1.189495,0.59815 -2.62247,0.897266 -4.298917,0.897266 -1.772255,0 -3.229176,-0.53521 -4.370765,-1.605541 -1.141589,-1.070458 -1.71239,-2.471337 -1.712378,-4.202843 -1.2e-5,-0.897224 0.127724,-1.699994 0.383192,-2.408353 0.255456,-0.708318 0.638643,-1.345794 1.149571,-1.912473 0.399144,-0.472225 0.926032,-0.893273 1.580661,-1.263231 0.654608,-0.369872 1.269309,-0.664997 1.844106,-0.885418 0.71847,-0.26756 2.175392,-0.7634 4.370761,-1.487473 2.195346,-0.724072 3.676214,-1.290752 4.442622,-1.699994 v -2.337512 c -2.9e-5,-0.204622 -0.0439,-0.59815 -0.131733,-1.180585 -0.0878,-0.582393 -0.27543,-1.133316 -0.562807,-1.652768 -0.319342,-0.582392 -0.770392,-1.090038 -1.353144,-1.522936 -0.58278,-0.432812 -1.409041,-0.649282 -2.478757,-0.649282 -0.734467,0 -1.417023,0.122016 -2.047676,0.365965 -0.630673,0.244033 -1.073742,0.499788 -1.329198,0.76735 0,0.314873 0.07591,0.779199 0.227524,1.393062 0.151671,0.613905 0.227512,1.180584 0.227524,1.700037 -1.2e-5,0.550921 -0.251487,1.054617 -0.754412,1.511086 -0.502946,0.456512 -1.201466,0.684746 -2.095573,0.684746 -0.798321,0 -1.385074,-0.279411 -1.760283,-0.838232 -0.375206,-0.558738 -0.562819,-1.184449 -0.562803,-1.877053 -1.6e-5,-0.724073 0.259437,-1.416675 0.778347,-2.077808 0.518906,-0.66109 1.193484,-1.25134 2.023721,-1.770833 0.718474,-0.440714 1.588643,-0.814535 2.610494,-1.121509 1.021824,-0.306932 2.019724,-0.460419 2.993678,-0.460419 1.341145,0 2.510674,0.09054 3.508579,0.271512 0.997876,0.181049 1.903959,0.570628 2.71826,1.168778 0.814265,0.582435 1.432947,1.373398 1.856078,2.37289 0.423091,0.999577 0.634639,2.286379 0.634659,3.860449 -2e-5,2.250916 -0.02403,4.246078 -0.07186,5.985399 -0.04794,1.739364 -0.07185,3.640071 -0.07185,5.702124 -1.2e-5,0.613862 0.107783,1.101844 0.323311,1.46386 0.215533,0.3621 0.546834,0.669033 0.993908,0.920837 0.239475,0.141679 0.618669,0.220421 1.137604,0.236133 0.518869,0.01572 1.049755,0.02294 1.592623,0.02294 z M 56.341409,44.612532 c -1.357142,0.393529 -2.54664,0.779199 -3.568463,1.156971 -1.021852,0.377772 -1.971847,0.849997 -2.849986,1.416634 -0.79832,0.535209 -1.428982,1.168778 -1.892,1.900708 -0.46303,0.731972 -0.694539,1.601633 -0.694527,2.609025 -1.2e-5,1.306508 0.347261,2.266672 1.041801,2.880578 0.694523,0.61382 1.576659,0.920794 2.646404,0.920794 1.133595,0 2.131487,-0.271555 2.993682,-0.814576 0.862162,-0.543023 1.588626,-1.184449 2.179393,-1.924279 z M 43.444175,57.50421 H 28.427897 v -1.676337 c 0.542825,-0.01572 1.241349,-0.07135 2.095573,-0.165252 0.854164,-0.09433 1.440923,-0.228276 1.760281,-0.401512 0.494922,-0.299076 0.858154,-0.641384 1.089698,-1.027013 0.231478,-0.385671 0.347233,-0.869703 0.347266,-1.452095 V 28.415278 H 33.361474 L 21.769961,56.961187 H 20.572492 L 9.5318162,27.825028 H 9.220473 v 19.998628 c -8.4e-6,1.936128 0.1237296,3.407888 0.3712168,4.415279 0.2474672,1.007434 0.6266652,1.731507 1.1375962,2.172219 0.351248,0.330502 1.077712,0.64542 2.179396,0.944493 1.101659,0.299116 1.82014,0.45651 2.155446,0.472226 V 57.50421 H 1.3411189 v -1.676337 c 0.7184804,-0.0629 1.4728862,-0.181095 2.2632187,-0.3542 C 4.394664,55.300521 5.0053725,55.040731 5.4364678,54.694514 5.9952805,54.25376 6.378471,53.576913 6.586039,52.663933 6.7935933,51.750996 6.8973749,50.22411 6.897381,48.08336 V 30.941697 C 6.8973749,29.95002 6.7776293,29.139394 6.5381395,28.509731 6.2986402,27.880111 5.9553652,27.368559 5.5083164,26.974989 5.0133563,26.550033 4.4066393,26.235244 3.6881613,26.03058 2.969676,25.825959 2.2591771,25.707892 1.5566632,25.67638 V 23.999999 H 13.148175 l 9.72346,25.122266 8.310444,-21.013919 c 0.303327,-0.771257 0.562778,-1.577978 0.778355,-2.420159 0.215512,-0.842098 0.331268,-1.404827 0.347266,-1.688188 h 11.088582 v 1.676381 c -0.447106,0.01572 -1.017891,0.08655 -1.712394,0.21252 -0.694575,0.125966 -1.201502,0.243991 -1.520782,0.354158 -0.542892,0.188908 -0.910117,0.503739 -1.101676,0.944451 -0.191631,0.440755 -0.287423,0.920879 -0.287386,1.440289 V 52.782 c -3.7e-5,0.550923 0.09577,1.015291 0.287386,1.393063 0.191559,0.377771 0.558784,0.708273 1.101676,0.991637 0.287351,0.157393 0.798275,0.303064 1.532762,0.436802 0.734402,0.133826 1.317174,0.208655 1.748307,0.224371 z M 128,93.516588 h -11.51966 v -1.558355 c 0.36719,-0.03143 0.73841,-0.06286 1.11364,-0.09428 0.37519,-0.03143 0.70648,-0.09433 0.99391,-0.188864 0.44702,-0.141678 0.77832,-0.389621 0.9939,-0.74382 0.21551,-0.354115 0.32328,-0.814536 0.32332,-1.381214 V 77.531982 c -4e-5,-1.637011 -0.37923,-2.900243 -1.1376,-3.789606 -0.75843,-0.889326 -1.70444,-1.33399 -2.83801,-1.33403 -0.78237,4e-5 -1.51682,0.11811 -2.20334,0.35416 -0.68658,0.236133 -1.31724,0.566719 -1.892,0.991676 -0.46305,0.346301 -0.85023,0.720164 -1.16155,1.121552 -0.31136,0.401385 -0.54687,0.735879 -0.70651,1.003438 v 13.434747 c -2e-5,0.55092 0.0958,1.003482 0.2874,1.357642 0.19156,0.354115 0.51887,0.625753 0.98192,0.814574 0.3672,0.141682 0.6985,0.247943 0.9939,0.318784 0.29535,0.07135 0.68253,0.122015 1.16155,0.153442 v 1.558358 H 102.1107 v -1.558358 c 0.36721,-0.03143 0.72245,-0.0629 1.06574,-0.09432 0.34326,-0.03143 0.6586,-0.09429 0.94601,-0.188824 0.44703,-0.141679 0.77834,-0.389621 0.99389,-0.743821 0.21554,-0.354159 0.32331,-0.814578 0.32332,-1.381213 V 77.532069 c -1e-5,-1.63701 -0.37922,-2.900202 -1.13759,-3.789566 -0.75841,-0.889325 -1.70442,-1.33403 -2.83801,-1.33403 -0.78236,0 -1.516805,0.122016 -2.20335,0.365966 -0.686549,0.24399 -1.31723,0.578485 -1.892,1.003483 -0.46303,0.346301 -0.854204,0.735879 -1.173522,1.168738 -0.319326,0.432898 -0.558829,0.759535 -0.718486,0.979869 v 13.340289 c 0,0.535208 0.111707,0.983822 0.335294,1.345834 0.223515,0.362017 0.558813,0.63752 1.005871,0.826341 0.335286,0.157394 0.678563,0.275504 1.029838,0.354203 0.351247,0.07861 0.742421,0.133821 1.173514,0.165251 v 1.558399 H 87.549457 v -1.558399 c 0.367223,-0.03143 0.746418,-0.06286 1.137588,-0.09428 0.391174,-0.03143 0.730453,-0.09428 1.017854,-0.188951 0.44705,-0.141552 0.778351,-0.389495 0.993908,-0.743694 0.215536,-0.354159 0.32331,-0.814578 0.32331,-1.381257 V 75.076658 c 0,-0.503696 -0.115756,-0.956257 -0.347265,-1.357641 -0.231517,-0.401388 -0.554832,-0.743737 -0.969953,-1.027098 -0.303365,-0.188865 -0.678571,-0.342354 -1.125625,-0.46042 -0.447049,-0.117982 -0.910079,-0.192813 -1.389062,-0.224326 v -1.5347 l 7.903298,-0.519454 0.335299,0.330546 v 3.329192 h 0.167643 c 0.399144,-0.393486 0.886125,-0.857855 1.460919,-1.393063 0.574777,-0.535166 1.109636,-0.96802 1.604607,-1.298611 0.558809,-0.377771 1.257333,-0.692559 2.095572,-0.944446 0.83822,-0.251852 1.74431,-0.377732 2.71826,-0.377776 1.53275,4.4e-5 2.84996,0.405337 3.95166,1.215963 1.10165,0.810669 1.89198,1.790543 2.37098,2.939613 0.57477,-0.55092 1.08169,-1.034952 1.5208,-1.452096 0.43904,-0.417099 1.01782,-0.861803 1.73632,-1.334028 0.60669,-0.409242 1.32118,-0.739789 2.14348,-0.991676 0.82224,-0.251852 1.7363,-0.377732 2.74221,-0.377776 1.99574,4.4e-5 3.5764,0.645378 4.74197,1.936131 1.1655,1.290753 1.74827,3.274064 1.74832,5.94998 v 11.829202 c -5e-5,0.55092 0.0958,1.003482 0.28739,1.357641 0.19155,0.354116 0.51885,0.625627 0.98192,0.814578 0.36719,0.141679 0.73041,0.247939 1.08969,0.318781 0.35921,0.07135 0.76235,0.121971 1.20945,0.153402 z m -38.1399,-5.47775 c -0.989935,1.857388 -2.315119,3.337045 -3.97559,4.43885 -1.660511,1.101884 -3.56848,1.65281 -5.72391,1.65281 -1.900002,0 -3.564482,-0.330547 -4.99346,-0.99168 -1.428986,-0.66113 -2.606489,-1.558356 -3.532537,-2.691671 -0.926045,-1.133314 -1.616587,-2.455538 -2.071619,-3.966668 -0.455044,-1.511087 -0.682556,-3.108769 -0.682556,-4.793048 0,-1.51113 0.243489,-2.994696 0.730454,-4.450699 0.486977,-1.456004 1.201465,-2.766418 2.14347,-3.931246 0.910072,-1.117604 2.039694,-2.018775 3.388841,-2.703481 1.34914,-0.684746 2.861949,-1.027094 4.538413,-1.027094 1.724344,0 3.201228,0.267602 4.430637,0.802768 1.229386,0.53521 2.227275,1.26714 2.993682,2.195832 0.734423,0.88151 1.281264,1.920416 1.64053,3.116671 0.359217,1.196298 0.538847,2.494948 0.538859,3.895826 v 1.558355 H 73.64636 c -1.2e-5,1.526847 0.147686,2.912052 0.443065,4.155576 0.295371,1.243524 0.76237,2.337511 1.401034,3.281922 0.622679,0.912977 1.436956,1.633102 2.442843,2.160453 1.005859,0.527309 2.203339,0.790963 3.59241,0.790963 1.42098,0 2.646392,-0.326639 3.676238,-0.979871 1.029797,-0.653231 2.023701,-1.829866 2.981698,-3.529861 z m -5.292813,-8.877826 c -2.4e-5,-0.881468 -0.0759,-1.825879 -0.22752,-2.833309 -0.151698,-1.007391 -0.395187,-1.849535 -0.730453,-2.526422 -0.367239,-0.72403 -0.870181,-1.314323 -1.508816,-1.770832 -0.638672,-0.45647 -1.460927,-0.684707 -2.46679,-0.684707 -1.676471,0 -3.069523,0.688655 -4.179171,2.065961 -1.109668,1.377348 -1.712386,3.293772 -1.808177,5.749309 z M 71.598198,92.501383 c -1.037828,0.424914 -2.019753,0.782982 -2.945773,1.074197 -0.92606,0.291262 -2.059663,0.43689 -3.40082,0.43689 -1.979825,0 -3.372881,-0.491889 -4.179179,-1.475664 -0.806291,-0.983822 -1.209449,-2.372977 -1.209437,-4.167426 V 72.597123 h -4.263002 v -2.266668 h 4.358797 v -7.24863 h 4.358794 v 7.24863 h 6.777678 v 2.266668 h -6.72978 v 13.009746 c -1.2e-5,0.975922 0.03591,1.7905 0.107782,2.443731 0.07186,0.653276 0.243476,1.223864 0.514909,1.711845 0.255456,0.456466 0.638647,0.802768 1.149575,1.038861 0.510912,0.236093 1.197465,0.354199 2.059647,0.354199 0.399148,0 0.985909,-0.03484 1.760287,-0.106387 0.77435,-0.07131 1.321192,-0.161386 1.640534,-0.271512 z M 56.521559,82.112427 c 0.6546,0.566679 1.157541,1.219915 1.508812,1.959699 0.351239,0.739833 0.526864,1.644956 0.526892,2.715287 -2.8e-5,2.156504 -0.818298,3.919483 -2.454822,5.28893 -1.636548,1.369408 -3.756076,2.054154 -6.35856,2.054154 -1.373106,0 -2.638434,-0.24399 -3.795988,-0.732015 -1.157557,-0.487896 -1.983809,-0.936509 -2.478757,-1.345708 l -0.478994,1.534656 h -1.796201 l -0.239492,-8.098627 h 1.652497 c 0.12774,0.613904 0.39916,1.330124 0.814293,2.148647 0.415105,0.818487 0.91805,1.558315 1.508816,2.219404 0.622663,0.692604 1.369097,1.274955 2.239266,1.747307 0.870153,0.472182 1.84808,0.708275 2.933805,0.708275 1.532747,0 2.714251,-0.342353 3.544505,-1.027098 0.830229,-0.684702 1.245346,-1.664576 1.245374,-2.939569 -2.8e-5,-0.661134 -0.131745,-1.231718 -0.395167,-1.711802 -0.263466,-0.480083 -0.650643,-0.901174 -1.161555,-1.263187 -0.526888,-0.36206 -1.173534,-0.688698 -1.939901,-0.979874 -0.766392,-0.291215 -1.62058,-0.578485 -2.562581,-0.861803 -0.750427,-0.220377 -1.584658,-0.523399 -2.50272,-0.909029 -0.918062,-0.385628 -1.704395,-0.83819 -2.359003,-1.357645 -0.702522,-0.55092 -1.277307,-1.227768 -1.724357,-2.03058 -0.447066,-0.802768 -0.670593,-1.74722 -0.670593,-2.833349 0,-1.904573 0.718486,-3.518016 2.155447,-4.840278 1.436956,-1.322183 3.360893,-1.983312 5.771803,-1.983312 0.926032,0 1.872042,0.11811 2.838014,0.354155 0.965947,0.236137 1.752276,0.519499 2.359015,0.849998 l 0.550831,-1.227769 h 1.724357 l 0.359241,7.484723 h -1.652505 c -0.335306,-1.668481 -1.057789,-3.026122 -2.167417,-4.072928 -1.109676,-1.046719 -2.462809,-1.570117 -4.059434,-1.570117 -1.309232,0 -2.339066,0.322685 -3.089469,0.968063 -0.750415,0.645374 -1.125624,1.424533 -1.125624,2.337472 0,0.708358 0.123739,1.298649 0.37122,1.770875 0.247466,0.472226 0.618686,0.873609 1.113645,1.204156 0.478983,0.314831 1.081704,0.609955 1.808181,0.885416 0.726456,0.275461 1.624557,0.586343 2.694301,0.932645 1.053769,0.330542 2.04766,0.716215 2.981711,1.156927 0.934007,0.440755 1.704383,0.928736 2.311114,1.463901 z M 20.082066,101.11942 c 0,-0.7871 0.219542,-1.428528 0.658605,-1.92428 0.439072,-0.495921 0.985926,-0.74386 1.640538,-0.74386 0.510923,0 0.949995,0.09432 1.317218,0.283359 0.367227,0.188951 0.694523,0.432941 0.981924,0.732014 0.239488,0.236091 0.494943,0.558737 0.76638,0.968067 0.271424,0.40919 0.486969,0.7476 0.646642,1.01524 0.798296,-0.42508 1.752288,-1.534692 2.861952,-3.329182 1.10964,-1.794449 1.911954,-3.368562 2.406909,-4.722296 -1.516806,-3.730491 -2.889905,-7.067538 -4.119286,-10.011058 -1.229414,-2.943517 -2.514699,-5.989347 -3.855868,-9.137531 -0.30335,-0.72403 -0.814277,-1.286761 -1.532764,-1.688188 -0.718469,-0.401341 -1.436956,-0.65714 -2.155442,-0.767349 V 70.236 h 10.777231 v 1.652808 c -0.478995,0.01572 -1.05378,0.114118 -1.724357,0.295125 -0.670593,0.18105 -1.005871,0.389621 -1.005871,0.625714 0,0.09441 0.03591,0.251848 0.107783,0.472226 0.07185,0.220374 0.155667,0.448609 0.25147,0.684702 0.606719,1.558355 1.532747,3.805321 2.778138,6.740986 1.24535,2.93566 2.211309,5.284981 2.897875,7.047915 0.718461,-1.684239 1.464891,-3.427549 2.239265,-5.229855 0.774358,-1.802306 1.640526,-3.931248 2.598515,-6.386826 0.111707,-0.299032 0.271408,-0.712267 0.478979,-1.239576 0.20755,-0.52731 0.311335,-0.979828 0.311347,-1.357645 -1.2e-5,-0.409242 -0.36325,-0.790961 -1.089694,-1.145121 -0.726481,-0.35416 -1.417023,-0.570584 -2.071623,-0.649323 v -1.511129 h 8.76548 v 1.463901 c -0.479011,0.0787 -1.109676,0.35025 -1.892008,0.814579 -0.782356,0.464366 -1.365124,1.121548 -1.748304,1.971545 -1.900005,4.344439 -3.588428,8.30325 -5.065303,11.876388 -1.476879,3.57318 -2.598523,6.201827 -3.36489,7.886194 -1.005883,2.203689 -1.903984,3.923304 -2.694302,5.158926 -0.790338,1.235716 -1.560719,2.207676 -2.311126,2.916086 -0.73445,0.66101 -1.401038,1.10575 -1.999774,1.33398 -0.598732,0.22828 -1.217431,0.3424 -1.856074,0.3424 -1.245374,0 -2.223301,-0.29122 -2.933805,-0.87369 -0.710492,-0.58244 -1.065748,-1.25131 -1.065748,-2.00689 z m 1.16106,-22.973657 c 0.718462,0.787057 1.249335,1.648861 1.59264,2.58541 0.343252,0.936593 0.51488,2.026632 0.514908,3.270116 -2.8e-5,2.959317 -1.109684,5.399099 -3.328964,7.319467 -2.219328,1.920333 -4.973514,2.880582 -8.262543,2.880582 -1.516807,0 -3.0336053,-0.232228 -4.5503917,-0.696595 C 5.6919686,93.040414 4.3827445,92.477688 3.2810707,91.816554 L 2.2512492,93.540161 H 0.33529834 L 0,82.065202 h 1.9399016 c 0.3991562,1.416676 0.8661716,2.695622 1.401046,3.836792 0.5348583,1.141216 1.2413771,2.207682 2.119524,3.199319 0.8302294,0.928735 1.8001862,1.668567 2.9098463,2.219444 1.1096439,0.550923 2.3989181,0.826429 3.8678311,0.826429 1.101662,0 2.063625,-0.141684 2.885912,-0.425041 0.822231,-0.283278 1.488823,-0.684745 1.999774,-1.204156 0.5109,-0.519454 0.890095,-1.12941 1.137588,-1.829867 0.247466,-0.700461 0.371201,-1.507182 0.371225,-2.420162 -2.4e-5,-1.337935 -0.383212,-2.585411 -1.149572,-3.742338 -0.766407,-1.156927 -1.907992,-2.03449 -3.424767,-2.632639 C 13.020481,79.48374 11.830999,79.031179 10.489846,78.53534 9.1486647,78.039503 7.9911112,77.571226 7.0171854,77.13047 5.1012185,76.280473 3.6123679,75.166822 2.5506173,73.789473 1.4888507,72.412212 0.95797743,70.613811 0.95797743,68.394322 c 0,-1.274949 0.26343807,-2.463391 0.79032627,-3.565279 0.5268922,-1.101801 1.2773072,-2.085623 2.2512491,-2.951375 0.9260323,-0.818484 2.0197279,-1.459913 3.2810707,-1.924321 1.2613266,-0.464328 2.578545,-0.696468 3.9516555,-0.696513 1.56468,4.5e-5 2.965722,0.236137 4.203114,0.708319 1.237367,0.472265 2.366989,1.023189 3.388853,1.652809 l 0.981924,-1.605584 h 1.91595 l 0.191594,11.120844 h -1.939901 c -0.351283,-1.274955 -0.74645,-2.494866 -1.185498,-3.659694 -0.439091,-1.164825 -1.009892,-2.219445 -1.712385,-3.163895 -0.686569,-0.912938 -1.524793,-1.64096 -2.514691,-2.184067 -0.989919,-0.543022 -2.203352,-0.814535 -3.640308,-0.814578 -1.5168065,4.3e-5 -2.8100701,0.480123 -3.8797989,1.440289 -1.0697489,0.960206 -1.6046193,2.132892 -1.6046072,3.518054 -1.21e-5,1.448191 0.3432645,2.648395 1.0298176,3.600703 0.686545,0.952348 1.6844336,1.735457 2.9936859,2.349318 1.1655196,0.550968 2.3110936,1.027098 3.4367346,1.428482 1.125608,0.401389 2.215303,0.830334 3.269095,1.286804 0.957953,0.409285 1.88,0.873609 2.766158,1.393065 0.886097,0.51945 1.656474,1.125457 2.31111,1.81806 z" />
</svg>
