<?xml version="1.0" encoding="UTF-8" standalone="no"?>
<svg xmlns="http://www.w3.org/2000/svg" xmlns:svg="http://www.w3.org/2000/svg" viewBox="0 0 128 128" height="128" width="128" id="svgflashicon" version="1.1">
     <g id="flashicon">
        <path id="flashicon03" fill="#f03b22" d="M 128,128 H 0 V 0 h 128 v 128"/>
        <path id="flashicon02" fill="#231311" d="M 122.368,122.368 H 5.632 V 5.632 h 116.736 v 116.736"/>
        <path id="flashicon01" fill="#f03b22" d="m 46.395136,87.672064 c 0,0.528384 -0.151296,0.704512 -0.605952,0.704512 h -8.104448 c -0.302592,0 -0.453888,-0.263936 -0.453888,-0.704512 V 31.57632 c 0,-0.52864 0.07552,-0.616448 0.52992,-0.616448 h 29.160448 c 0.454656,0 0.605952,0.08781 0.681984,0.616448 l 0.681472,7.132928 c 0.07603,0.528128 -0.07552,0.792576 -0.52992,0.792576 H 46.395136 v 16.731904 h 19.163136 c 0.4544,0 0.605952,0.176128 0.605952,0.616192 v 7.309568 c 0,0.440064 -0.227584,0.616448 -0.605952,0.616448 H 46.395136 v 22.896128"/>
        <path id="flashicon00" fill="#f03b22" d="m 91.607808,81.563392 c -0.5952,0.08806 -1.411584,0.176128 -1.858304,0.176128 -1.339392,0 -2.453504,-0.616448 -2.453504,-3.346432 V 34.34112 30.916864 30.464 h 0.314112 c -0.07424,0 -0.233472,0 -0.54016,0 h -7.739904 c -0.3264,0 -0.492544,0 -0.558848,0 H 78.592 v 0.452864 3.424256 44.580352 c 0,8.541952 3.420416,10.831616 8.183552,10.831616 2.083328,0 3.829504,-0.440064 4.647936,-0.88064 C 91.869952,88.696576 91.904,88.519936 91.904,87.904 v -5.900544 c 0,-0.352 -0.0727,-0.528384 -0.296192,-0.440064"/>
    </g>
</svg>
