<?xml version="1.0" encoding="UTF-8" standalone="no"?>
<svg xmlns="http://www.w3.org/2000/svg" xmlns:svg="http://www.w3.org/2000/svg" width="640" height="122" viewBox="0 0 640 122" version="1.1" id="svg1" xml:space="preserve"><defs id="defs1"/>
     <path id="windows_logo" style="fill:#0078d4;stroke:none;" d="M 640,96.929157 C 640,114.9689 623.8316,122 607.62336,122 c -10.55649,0 -21.06739,-4.1139 -21.06739,-4.1139 V 98.698074 c 0,0 9.13667,8.055406 21.89945,8.155746 8.74915,0 12.69044,-2.79155 12.69044,-8.106154 0.21582,-4.263841 -2.34969,-6.615024 -5.41704,-8.377735 -2.10826,-1.279809 -5.40246,-2.852928 -9.88256,-4.719429 -5.27074,-2.292967 -9.19714,-4.505964 -11.77984,-6.639042 -2.5299,-2.132999 -4.42723,-4.639231 -5.69235,-7.518856 -1.21224,-2.87957 -2.10735,-6.043975 -2.10735,-9.883597 0,-14.566614 12.00771,-24.858925 31.20147,-24.858925 12.68584,0 18.18365,3.147277 18.18365,3.147277 v 18.228408 c 0,0 -9.01561,-6.30393 -18.38275,-6.361266 -6.71203,0 -11.78752,2.472446 -11.87641,8.067803 -0.0469,7.212022 8.68176,10.72738 13.89358,12.860848 7.58963,3.092885 13.1438,6.394586 16.25341,10.180739 3.10972,3.786161 4.46014,7.598658 4.46014,14.056007 z m -81.59445,22.555003 h -20.60477 l -15.75031,-58.64222 -16.89668,58.64222 h -19.99941 l -23.2986,-80.778823 h 19.55214 l 15.21502,62.756523 17.78275,-62.756523 h 18.3391 l 15.85557,62.593803 14.83204,-62.593803 h 17.91908 z M 458.1978,78.612425 c 0,28.066295 -16.57927,43.269805 -41.47687,43.269805 -27.07446,0 -40.95228,-16.39829 -40.95228,-41.510964 0,-28.729153 16.62939,-43.67271 42.9281,-43.67271 24.09736,0 39.50105,15.584719 39.50105,41.913869 z m -19.44952,0.639613 c 0,-12.486607 -4.37477,-26.366725 -21.07964,-26.366725 -16.02175,0 -22.24596,12.063171 -22.24596,26.846729 0,16.060456 7.47595,26.275688 22.13182,26.275688 15.70129,0 21.07964,-12.192178 21.19416,-26.755692 z m -95.0637,40.232122 v -10.43062 h -0.31596 c -5.79761,9.86539 -17.63229,12.13987 -25.88323,12.13987 -24.52237,0 -33.52116,-19.27325 -33.52116,-39.783107 0,-13.59809 3.34688,-24.476553 10.04069,-32.635408 6.7465,-8.212309 15.75908,-11.766796 27.03848,-11.766796 17.5584,0 22.32559,9.883986 22.32559,9.883986 h 0.31597 V 0 h 18.94375 v 119.48494 z m 0.15799,-46.171498 c 0,-9.787915 -6.21695,-20.908506 -19.33852,-20.908506 -15.01013,0 -20.84338,13.215708 -20.84338,28.447495 0,13.298234 5.50432,25.367599 19.79838,25.567889 14.01611,0 20.26975,-13.515557 20.38352,-24.688075 z M 251.97733,119.48416 V 74.370291 c 0,-11.820261 -3.62396,-22.016887 -15.39337,-22.016887 -11.70826,0 -19.13254,10.666553 -19.13254,21.457082 v 45.671744 h -18.2628 V 38.455462 h 18.26292 v 11.461126 h 0.31634 c 6.06108,-9.49386 14.81061,-12.827524 26.24776,-12.827524 8.59098,0 15.23218,2.13947 19.92284,7.685435 4.74349,5.545777 6.82617,13.971164 6.82617,25.276559 V 119.48067 Z M 182.2877,15.274795 c 0,3.039617 -1.10684,5.572505 -3.32048,7.599042 -2.16096,2.026386 -4.79634,3.03958 -7.90596,3.03958 -3.1097,0 -5.74519,-1.013314 -7.90595,-3.03958 -2.16096,-2.026424 -3.24142,-4.559425 -3.24142,-7.599042 0,-3.092848 1.08046,-5.6790407 3.24142,-7.759044 2.21368,-2.0796938 4.84918,-3.1195791 7.90595,-3.1195791 3.21511,0 5.87691,1.0666946 7.98522,3.1995399 2.16092,2.1331567 3.24142,4.6926962 3.24142,7.6788502 z M 161.4497,119.48029 V 38.453523 h 18.67073 v 81.026767 z m -38.81948,0.004 H 99.595455 L 77.134682,32.983227 54.426547,119.48409 H 30.882898 L 0,7.0500122 H 20.892756 L 43.163226,96.483645 67.476527,7.0500844 H 88.5795 L 111.43276,97.014397 132.58398,7.0500844 h 20.17365 z"/>
</svg>
