<?xml version="1.0" encoding="UTF-8" standalone="no"?>
<svg
     id="svgvblogo"
     width="640"
     height="166"
     version="1.1"
     xmlns="http://www.w3.org/2000/svg"
     xmlns:svg="http://www.w3.org/2000/svg">
     <path
          id="vblogo"
          fill="#fe0016"
          d="M 439.74395,9.3218005e-5 V 165.98641 h 37.27227 c 17.30015,-4.52624 18.37528,-16.89578 18.37528,-16.89578 0,0 -0.0273,-44.3354 -0.0273,-55.795889 -1.29901,-7.234089 -7.21852,-7.475822 -7.21852,-7.475822 0,0 -0.0221,-2.020388 0,-3.612199 6.54097,-0.502053 7.24578,-7.632223 7.24578,-7.632223 0,0 -0.0273,-44.290934 0,-55.756019 C 492.56467,5.2780034 477.01622,9.3218005e-5 477.01622,9.3218005e-5 Z M 458.3511,18.935001 h 18.66512 V 74.574497 H 458.3511 Z m -0.0579,72.476997 h 18.7231 V 149.09063 H 458.29323 Z M 235.58499,0.01884868 h 18.71965 V 147.1658 h 18.71963 V 0.01884868 h 18.36646 V 147.1658 c 0,0 -6.00442,18.81491 -27.01987,18.81491 -21.01545,0 -28.78587,-18.81491 -28.78587,-18.81491 z m 302.44132,0 c -21.07821,0 -27.85342,18.79962932 -27.85342,18.79962932 0.17659,0.266264 0,124.799552 0,128.349532 2.79606,20.17509 27.85342,18.8127 27.85342,18.8127 v 0 c 27.8015,0 27.79413,-18.8127 27.79413,-18.8127 V 18.818478 C 558.63231,-0.91288578 538.02631,0.01884868 538.02631,0.01884868 Z M 528.72208,18.818478 h 18.54917 V 149.09063 H 528.72208 Z M 571.30244,0.01884868 h 16.95364 L 605.56292,71.551083 621.28036,0.01884868 H 640 L 614.03974,97.643492 V 165.98071 H 595.4967 V 97.643492 Z m -198.32231,0 h 18.54305 V 149.11829 h 27.72626 v 16.86242 H 372.98013 Z M 330.94137,9.3218005e-5 295.11825,165.81162 v 0.17469 h 18.37529 l 3.88373,-22.37232 h 25.9109 l 3.70983,22.37232 h 18.5492 L 330.94137,0 Z m 0,71.544817781995 8.46306,57.154289 H 321.08711 Z M 172.89183,0.01884868 h 55.45254 V 16.881295 H 209.80132 V 165.98071 H 191.25828 V 16.881295 H 172.89183 Z M 111.42333,9.3218e-5 V 165.98641 h 18.54919 V 80.225839 l 25.79496,85.760571 h 17.10003 L 152.23154,87.508495 C 163.69659,80.594516 167.0709,71.544911 167.0709,71.544911 V 18.818478 C 159.47706,1.8672964 146.37695,9.3218005e-5 146.37695,9.3218005e-5 Z M 129.97252,16.895856 h 18.54919 V 74.574497 H 129.97252 Z M 76.291398,0.01884868 H 94.834445 V 165.98071 H 76.291398 Z M 0,0.01884868 34.437087,165.98071 68.697565,0.01884868 H 50.154527 L 34.437087,93.294741 18.543047,0.01884868 Z" />
</svg>
