<?xml version="1.0" encoding="UTF-8" standalone="no"?>
<svg xmlns="http://www.w3.org/2000/svg" xmlns:svg="http://www.w3.org/2000/svg" version="1.1" id="svgn64icon" width="128" height="128">
  <g id="n64icon">
    <path id="n64icon03" fill="#384ea2" d="M 35.190633,101.06839 16.926353,61.52324 18.09511,108.64753 Z M 108.76056,75.892193 109.86439,30.104272 127.98,24.592085 v 76.391145 l -18.11561,7.66466 v 0 L 83.243789,75.831791 V 119.8894 l -19.221263,8.09048 -0.77917,-79.600791 20.000433,-6.413767 z M 77.961669,40.20971 81.88299,37.320232 V 6.9633595 L 62.346699,12.321421 49.20569,40.294463 64.107576,35.969505 Z"/>
    <path id="n64icon02" fill="#00b25a" d="m 46.162508,6.8782753 -9.866454,17.7141497 8.504934,17.37281 4.215149,-1.332619 16.433539,-29.317025 z M 44.800988,41.965235 44.007321,78.672204 18.869026,31.230878 -0.01960035,24.592425 V 100.98362 L 18.095108,108.64753 V 68.024963 L 44.800988,119.88942 64.022564,127.98 V 48.001546 Z m 46.947784,-17.373153 -13.72711,15.549669 5.22248,1.823484 26.620238,38.153077 5.5e-4,-50.703413 z"/>
    <path id="n64icon01" fill="#ed1c24" d="m 83.243789,92.807586 5.443188,7.664664 21.177413,8.17564 L 83.243789,73.816255 Z M 16.768417,28.909738 36.296279,24.592085 44.801262,41.965322 v 39.94141 z"/>
    <path id="n64icon00" fill="#faa61a" d="M 64.022526,-0.01999999 46.162062,6.8781967 64.022564,13.861536 81.88299,6.9633595 v 0 z M 18.180665,17.608726 36.296279,24.592085 18.180665,31.575443 -0.02,24.592085 Z m 91.683725,0 18.11561,6.983359 -18.11561,6.983358 -18.115618,-6.983358 z M 44.801262,41.965322 64.107576,34.64131 83.244145,41.965235 64.022526,49.289332 Z"/>
  </g>
</svg>
