<?xml version="1.0" encoding="UTF-8" standalone="no"?>
<svg xmlns="http://www.w3.org/2000/svg" xmlns:svg="http://www.w3.org/2000/svg" version="1.1" id="svgn64logo" width="640" height="93">
  <g id="n64logo">
    <path id="n64logo01" style="fill:#ed1c24;stroke:none" d="m 581.88578,-0.01999996 c -8.93766,0.32068734 -16.27816,2.88774626 -22.0238,8.33943516 -6.06484,5.4516888 -9.57638,14.4311438 -9.57638,24.6931428 0,12.827503 6.70273,24.689318 22.34365,24.689318 11.81046,0 20.42836,-8.978674 20.42836,-20.523424 0,-11.865439 -7.97935,-18.2779 -16.59781,-18.2779 -4.46884,0 -7.66313,0.961544 -10.53595,3.527046 h -0.31604 c 1.59602,-5.451689 5.74559,-9.939763 16.91767,-10.581137 h 4.46643 V -0.01999996 Z M 615.72109,0.94018228 597.20801,34.294097 v 9.94229 h 23.29938 V 57.06305 h 13.7268 V 44.553896 h 5.74583 V 33.012578 h -5.74583 V 0.94018228 Z m 4.7863,10.90629872 h 0.31985 c 0,3.84825 -0.31985,7.696245 -0.31985,11.223807 v 9.620955 h -9.57259 v -0.321337 l 4.46646,-9.299618 c 1.91521,-3.84825 3.51012,-7.375557 5.10613,-11.223807 z M 571.6697,29.803043 c 4.78801,0 6.70538,4.491187 6.70538,8.339436 0,4.810312 -2.23462,8.335609 -5.74583,8.335609 -4.78805,0 -7.02208,-4.80999 -7.34128,-9.299616 0,-1.60344 6.5e-4,-2.564335 0.31984,-3.20571 0.95762,-2.244813 3.18905,-4.169719 6.06189,-4.169719 z"/>
    <path id="n64logo00" style="fill:#384ea2;stroke:none" d="m 506.23417,19.221907 c -22.98255,0 -34.15516,15.070382 -34.15516,36.877135 0,21.806754 11.49181,36.88096 34.15516,36.88096 22.98258,0 34.15518,-15.074206 34.15518,-36.88096 0,-21.806753 -11.4918,-36.877135 -34.15518,-36.877135 z M -0.02000019,21.146099 V 91.055812 H 21.048064 V 50.647807 h 0.319847 L 35.410748,91.055812 H 66.6949 V 21.146099 H 45.626835 v 40.08667 H 45.306989 L 31.260344,21.146099 Z m 79.48215419,0 V 91.055812 H 105.63636 V 21.146099 Z m 38.621606,0 v 69.909713 h 21.06807 V 50.647807 h 0.31985 l 14.04283,40.408005 h 31.28415 V 21.146099 H 163.7306 v 40.08667 h -0.31985 l -14.04283,-40.08667 z m 74.37602,0 V 40.06667 h 16.59781 v 50.989142 h 26.1742 V 40.06667 H 251.8296 V 21.146099 Z m 67.35078,0 v 69.909713 h 52.34842 V 72.777913 h -26.81391 v -7.696764 h 23.94289 V 47.12076 h -23.94289 v -7.375427 h 26.17801 V 21.146099 Z m 61.60495,0 v 69.909713 h 21.06807 V 50.647807 h 0.31986 l 14.04282,40.408005 h 31.28416 V 21.146099 h -21.06806 v 40.08667 h -0.31986 l -14.04283,-40.08667 z m 78.20659,0 v 69.909713 h 32.55592 c 20.10973,0 33.19942,-13.148719 33.19942,-34.314097 0,-20.524005 -8.30108,-35.595616 -34.79484,-35.595616 z m 106.61207,15.393526 c 4.14963,0 7.02144,2.566154 7.02144,19.241906 0,17.317129 -2.87181,19.238082 -7.02144,19.238082 -4.14963,0 -7.02055,-2.241642 -7.02141,-19.238082 0,-16.996441 2.87178,-19.241906 7.02141,-19.241906 z M 425.1566,36.86096 h 2.55497 c 4.14964,0 7.02085,1.279703 8.61685,4.165892 1.59601,2.886188 1.91528,8.337751 1.91528,15.07219 0,6.734438 -0.31927,12.186001 -1.91528,15.07219 -1.596,2.886188 -4.46721,4.169717 -8.61685,4.169717 h -2.55497 v -0.321336 z"/>
  </g>
</svg>
