<?xml version="1.0" encoding="UTF-8" standalone="no"?>
<svg xmlns="http://www.w3.org/2000/svg" xmlns:svg="http://www.w3.org/2000/svg" id="svggamecubelogo" version="1.1" viewBox="0 0 640 134" width="640" height="134">
    <g id="gamecubelogo">
        <path id="gamecubelogo01" fill="#000000" d="m 271.03614,106.89937 h 28.82183 V 93.194325 H 271.03614 V 82.362917 h 49.44054 V 68.613659 h -66.99969 v 65.342131 h 67.59829 v -14.8324 h -50.03914 v -12.22402 m 318.9469,0 H 618.7827 V 93.194325 H 589.98304 V 82.362917 H 639.4014 V 68.613659 H 572.35736 V 133.95579 H 640 v -14.8324 h -50.01696 v -12.22402 m -40.70531,8.66513 c 0,3.1389 -0.70946,4.00099 -5.47616,4.00099 h -31.61534 v -12.62191 h 31.61534 c 4.7667,0 5.47616,0.8842 5.47616,3.97889 v 4.64203 M 512.2084,81.74398 h 31.57101 c 4.87754,0 5.09924,1.061036 5.09924,2.939952 v 5.946223 c 0,1.878918 -0.2217,2.962059 -5.09924,2.962059 H 512.2084 Z m 46.38099,18.63443 c 4.2346,-2.011535 6.56252,-5.72516 6.56252,-10.566137 v -7.648301 c 0,-9.26196 -4.96623,-13.550313 -15.60813,-13.550313 h -54.93887 v 65.342131 h 51.12551 c 13.32456,0 20.02009,-4.59782 20.02009,-13.81557 v -7.93567 c -0.0222,-5.54833 -2.54962,-9.65984 -7.16112,-11.82614 z m -89.32553,18.74498 H 430.93082 V 68.613659 h -17.60349 v 49.072911 c 0,12.35665 4.14591,16.29132 17.02705,16.29132 h 39.48592 c 12.90333,0 17.04924,-3.93467 17.04924,-16.29132 V 68.613659 h -17.60349 l -0.0222,50.509731 M 389.25002,68.613659 h -38.53258 c -12.92549,0 -17.02706,3.934675 -17.02706,16.247113 v 32.825798 c 0,12.35665 4.10157,16.26922 17.02706,16.26922 h 38.53258 c 12.88113,0 17.04922,-3.91257 17.04922,-16.26922 V 105.77202 H 388.67358 V 119.1455 H 351.2717 V 82.805016 h 37.40188 v 11.826129 h 17.62566 v -9.770373 c 0,-12.312438 -4.16809,-16.247113 -17.04922,-16.247113 M 77.131675,94.631145 H 36.182495 V 108.42461 H 59.927256 V 119.1455 H 17.559153 V 82.78291 H 76.422215 V 68.613659 H 17.027058 C 4.1680836,68.613659 2.335e-6,72.548334 2.335e-6,84.860772 V 117.70868 C 2.335e-6,130.06533 4.145913,134 17.027058,134 h 43.121903 c 12.881145,0 17.004886,-3.93467 17.004886,-16.29132 L 77.131675,94.631145 M 209.26872,133.95579 229.42184,99.052128 v 34.903662 h 16.2289 l 0.0443,-65.342131 H 229.4883 L 202.7505,114.87925 175.96836,68.613659 h -16.14024 l 0.0222,65.342131 h 16.1624 V 99.052128 l 20.21963,34.903662 h 13.03634 M 112.71556,68.613659 75.025464,133.95579 h 47.156966 v -14.8324 h -21.03995 l 19.46583,-32.450015 26.33873,47.282415 h 19.57668 l -38.067,-65.342131 h -15.74116"/>
        <path id="gamecubelogo00" fill="#C2C3C4" d="m 334.422,37.644672 c 0,6.985154 6.76206,12.621906 15.20907,12.90927 h 22.19282 v -7.957769 h -21.23948 c -3.3256,0 -6.7177,-2.166282 -6.7177,-5.21676 v -9.08512 h 27.95718 v -8.04619 h -27.95718 v -6.719894 c 0,-3.028374 3.3921,-5.2388654 6.7177,-5.2388654 h 21.23948 V 0.35367889 H 349.96362 C 341.36142,0.53051822 334.422,6.2335865 334.422,13.285055 v 24.359617 m 283.87294,0.06632 c 0,3.028374 -3.43645,5.52623 -6.71771,5.52623 h -7.98143 c -3.30341,0 -6.7177,-2.497856 -6.7177,-5.52623 V 13.240845 c 0,-3.116793 3.41429,-5.548334 6.7177,-5.548334 h 7.98143 c 3.28126,0 6.71771,2.431541 6.71771,5.548334 v 24.470141 m 9.51122,-24.757505 C 627.80616,5.7914881 620.62286,2.4000001e-7 611.86546,2.4000001e-7 h -8.60222 C 594.48367,2.4000001e-7 587.34472,5.8135931 587.34472,12.953481 v 25.022765 c 0,7.184097 7.13895,12.975585 15.91852,12.975585 h 8.60222 c 8.7574,0 15.9407,-5.791488 15.9407,-12.975585 z M 514.04857,8.0682945 h 13.5241 c 3.30342,0 6.7177,2.5199595 6.7177,5.5704385 v 23.718574 c 0,3.249424 -3.50296,5.504124 -6.7177,5.504124 h -13.5241 V 8.0682945 m 13.81232,42.4856475 c 8.82392,0 15.94068,-5.813592 15.94068,-12.953481 V 13.35137 c 0,-7.1840982 -7.11676,-12.99769111 -15.94068,-12.99769111 H 504.55954 V 50.576048 Z m -259.48524,0 h 10.26502 V 8.3556584 h 16.16239 V 0.37578381 H 252.19109 V 8.3556584 h 16.18456 V 50.553942 M 105.86483,0.35367889 h 10.79711 V 50.576048 H 105.86483 Z M 22.968791,11.428242 l 19.731874,39.1257 h 9.466864 V 0.35367889 H 42.589811 V 32.361597 L 26.316558,0.35367889 H 13.391071 V 50.553942 h 9.57772 v -39.1257 m 156.968169,0 19.75404,39.1257 h 9.51121 V 0.35367889 h -9.57772 V 32.361597 L 183.3069,0.35367889 H 170.38141 V 50.553942 h 9.55555 v -39.1257 m 277.62081,39.1257 V 0.35367889 h -9.59989 V 32.361597 L 431.66246,0.35367889 H 418.75914 V 50.553942 h 9.55555 v -39.1257 l 19.73188,39.1257 h 9.5112"/>
    </g>
</svg>
