<?xml version="1.0" encoding="UTF-8" standalone="no"?>
<svg xmlns="http://www.w3.org/2000/svg" xmlns:svg="http://www.w3.org/2000/svg" id="svg3dsicon" version="1.1" width="128" height="128" viewBox="0 0 128 128" xml:space="preserve">
     <g id="3dsicon">
          <path id="3dsicon01" fill="#000000" d="m 113.77778,60.769231 c -6.65233,-2.307692 -10.32258,-3.692308 -10.32258,-6.461539 0,-1.846154 2.52329,-3.692307 8.02867,-3.692307 5.27599,0 8.71685,1.153846 12.61649,2.076923 V 47.153846 C 120.20072,46.461538 118.1362,46 111.94265,46 c -11.46953,0 -19.039425,3.461538 -19.039425,9.230769 0,5.538462 6.193548,8.076923 14.910395,11.307693 6.42294,2.307692 8.71685,3.692307 8.71685,5.999999 0,2.538462 -2.29391,4.615385 -8.25807,4.615385 -5.27599,0 -11.928315,-0.923077 -15.369175,-2.307692 v 6 C 97.491039,81.538462 101.39068,82 107.35484,82 121.57706,82 128,77.846154 128,72.307693 128,66.538462 122.9534,64 113.77778,60.769231 Z m -33.032261,-12 C 77.304659,47.153846 71.11111,46.23077 65.376343,46.23077 H 44.04301 V 82 H 65.376343 C 70.88172,82 77.304659,81.076923 80.745519,79.461539 89.003583,75.769231 91.526881,69.769231 91.526881,64.23077 91.756272,58.461539 89.003583,52.461538 80.745519,48.769231 Z M 62.623655,76.923077 h -6.88172 V 51.076923 h 6.88172 c 10.551972,0 16.974911,4.615385 16.974911,12.923077 0,8.538461 -6.65233,12.923077 -16.974911,12.923077 z"/>
          <path id="3dsicon00" fill="#CE181E" d="m 29.362007,62.384615 c 0,0 9.863799,-1.615384 9.863799,-7.846154 C 39.225806,48.538461 28.673835,46 17.433691,46 7.3405014,46 0.68817164,47.153846 0.68817164,47.153846 v 5.538462 C 5.2759852,51.538461 9.6344082,50.615385 15.598566,50.615385 c 6.422939,0 11.240143,1.846153 11.240143,4.615384 0,3.23077 -4.817204,5.076923 -15.369175,5.076923 H 6.88172 v 5.076923 h 4.587814 c 11.010752,0 17.204301,1.615385 17.204301,5.769231 0,3.692308 -5.505377,5.769231 -12.616488,5.769231 -6.1935482,0 -11.6989245,-1.384615 -16.05734740000003,-2.538461 v 5.999999 C 2.2939064,80.846154 8.0286734,82 18.580645,82 30.50896,82 40.831541,78.076924 40.831541,71.384616 c 0,-5.769231 -7.340502,-9.000001 -11.469534,-9.000001"/>
     </g>
</svg>
