<?xml version="1.0" encoding="UTF-8" standalone="no"?>
<!-- Created with Inkscape (http://www.inkscape.org/) -->

<svg
   width="127mm"
   height="39.43087mm"
   viewBox="0 0 127 39.430869"
   version="1.1"
   id="svg5"
   sodipodi:docname="system.svg"
   inkscape:version="1.2.1 (9c6d41e410, 2022-07-14, custom)"
   xmlns:inkscape="http://www.inkscape.org/namespaces/inkscape"
   xmlns:sodipodi="http://sodipodi.sourceforge.net/DTD/sodipodi-0.dtd"
   xmlns="http://www.w3.org/2000/svg"
   xmlns:svg="http://www.w3.org/2000/svg">
  <sodipodi:namedview
     id="namedview7"
     pagecolor="#939393"
     bordercolor="#666666"
     borderopacity="1.0"
     inkscape:showpageshadow="2"
     inkscape:pageopacity="0"
     inkscape:pagecheckerboard="true"
     inkscape:deskcolor="#d1d1d1"
     inkscape:document-units="mm"
     showgrid="false"
     inkscape:zoom="1.0062496"
     inkscape:cx="565.46606"
     inkscape:cy="326.95665"
     inkscape:window-width="1920"
     inkscape:window-height="1023"
     inkscape:window-x="1366"
     inkscape:window-y="29"
     inkscape:window-maximized="1"
     inkscape:current-layer="text454" />
  <defs
     id="defs2">
    <rect
       x="-9.6468639"
       y="-53.557163"
       width="732.81848"
       height="385.45959"
       id="rect456" />
  </defs>
  <g
     aria-label="RECENTLY
         PLAYED"
     transform="matrix(0.64193171,0,0,0.64193171,6.1923842,31.413763)"
     id="text454"
     style="font-size:40px;line-height:0.85;white-space:pre;shape-inside:url(#rect456);display:inline;fill:#ffffff">
    <g
       id="g10112">
      <path
         d="M 11.393516,-23.336301 H 3.0335156 l -1.84,-7.44 h -1.63999997 l -1.28000003,7.44 h -7.6 l 4.4,-25 h 12 q 6.8400004,0 6.8400004,6.12 0,2.52 -0.76,4.8 -1.4,4.32 -4.4000004,5.76 z m -9.8800004,-18.6 -0.87999997,5 H 2.3935156 q 1.36,0 2.04,-0.28 0.72,-0.32 0.96,-1.72 0.28,-1.44 0.28,-1.76 0,-0.8 -0.64,-1 -0.6,-0.24 -2,-0.24 z"
         style="font-family:'Changa One';-inkscape-font-specification:'Changa One'"
         id="path10069" />
      <path
         d="m 31.473553,-32.776301 h -7.6 l -0.52,3.04 h 9.32 l -1.12,6.4 h -16.92 l 4.4,-25 h 16.72 l -2.08,6.4 h -8.2 l -0.56,3.36 h 7.6 z"
         style="font-family:'Changa One';-inkscape-font-specification:'Changa One'"
         id="path10071" />
      <path
         d="m 53.03358,-30.496301 -0.64,6.72 q -2.56,1.04 -6.48,1.04 -5.04,0 -7.24,-1.96 -2.16,-1.96 -2.16,-6.04 0,-1.72 0.56,-5.08 1.2,-6.88 4.12,-10 2.96,-3.12 9.32,-3.12 1.48,0 3.36,0.32 1.92,0.28 2.8,0.72 l -2.24,6.12 q -2.36,-0.56 -4.44,-0.56 -2.04,0 -2.92,0.4 -0.88,0.4 -1.08,1.6 l -1.84,10.48 q 1.44,0.32 2.96,0.32 3.24,0 5.92,-0.96 z"
         style="font-family:'Changa One';-inkscape-font-specification:'Changa One'"
         id="path10073" />
      <path
         d="m 72.67358,-32.776301 h -7.6 l -0.52,3.04 h 9.32 l -1.12,6.4 h -16.92 l 4.4,-25 h 16.72 l -2.08,6.4 h -8.2 l -0.56,3.36 h 7.6 z"
         style="font-family:'Changa One';-inkscape-font-specification:'Changa One'"
         id="path10075" />
      <path
         d="m 90.993608,-23.336301 -4.08,-8.88 q -0.16,-0.28 -0.16,-0.76 0,-0.52 0.08,-1.16 h -0.32 l -1.88,10.8 h -7.6 l 4.4,-25 h 7.16 l 4.08,8.88 q 0.12,0.28 0.12,0.8 0,0.48 -0.08,1.12 h 0.32 l 1.92,-10.8 h 7.600002 l -4.400002,25 z"
         style="font-family:'Changa One';-inkscape-font-specification:'Changa One'"
         id="path10077" />
      <path
         d="m 123.27364,-41.936301 h -5.52 l -3.24,18.6 h -7.6 l 3.24,-18.6 h -5.48 l 1.16,-6.4 h 18.6 z"
         style="font-family:'Changa One';-inkscape-font-specification:'Changa One'"
         id="path10079" />
      <path
         d="m 138.43364,-23.336301 h -15.2 l 4.4,-25 h 7.6 l -3.28,18.6 h 7.6 z"
         style="font-family:'Changa One';-inkscape-font-specification:'Changa One'"
         id="path10081" />
      <path
         d="m 146.55363,-48.336301 0.52,8.8 h 0.28 l 3.68,-8.8 h 8.4 l -10.08,18.2 -1.16,6.8 h -7.6 l 1.16,-6.8 -3.6,-18.2 z"
         style="font-family:'Changa One';-inkscape-font-specification:'Changa One'"
         id="path10083" />
      <path
         d="m 76.27379,6.4490315 h -4.96 l -1.04,6.0399995 h -7.6 l 4.4,-25 h 12 q 6.8,0 6.8,6.3200005 0,3 -0.84,5.43999998 -0.84,2.40000002 -1.88,3.84000002 -1,1.4 -2.8,2.4 -1.76,0.96 -4.08,0.96 z m -2.76,-12.56 -1.08,6.15999998 h 1.76 q 1.36,0 2.04,-0.28 0.72,-0.32 0.92,-1.39999998 0.52,-2.96 0.52,-3.24 0,-0.76 -0.6,-1 -0.6,-0.24 -1.8,-0.24 z"
         style="font-family:'Changa One';-inkscape-font-specification:'Changa One'"
         id="path10085" />
      <path
         d="M 100.79379,12.489031 H 85.593788 l 4.4,-25 h 7.6 l -3.28,18.6000005 h 7.600002 z"
         style="font-family:'Changa One';-inkscape-font-specification:'Changa One'"
         id="path10087" />
      <path
         d="m 106.31384,12.489031 h -7.999997 l 10.519997,-25 h 11.76 l 1.76,25 h -8.04 l -0.16,-3.9599995 h -6.28 z m 6.84,-17.3199995 -2.8,7 h 3.2 v -7 z"
         style="font-family:'Changa One';-inkscape-font-specification:'Changa One'"
         id="path10089" />
      <path
         d="m 132.47381,-12.510969 0.52,8.8000005 h 0.28 l 3.68,-8.8000005 h 8.4 l -10.08,18.2000005 -1.16,6.7999995 h -7.6 l 1.16,-6.7999995 -3.6,-18.2000005 z"
         style="font-family:'Changa One';-inkscape-font-specification:'Changa One'"
         id="path10091" />
      <path
         d="m 159.27385,3.0490315 h -7.6 l -0.52,3.04 h 9.32 l -1.12,6.3999995 h -16.92 l 4.4,-25 h 16.72 l -2.08,6.4000005 h -8.2 l -0.56,3.36 h 7.6 z"
         style="font-family:'Changa One';-inkscape-font-specification:'Changa One'"
         id="path10093" />
      <path
         d="m 163.63387,12.489031 4.4,-25 h 10.64 q 5.16,0 7.32,1.84 2.2,1.8000005 2.2,5.8800005 0,2.08 -0.48,4.79999998 -1.2,6.72000002 -4.12,9.60000002 -2.88,2.8799995 -9.32,2.8799995 z m 14,-18.5999995 h -3.16 l -2.12,12.2 h 3.16 q 1.56,0 2.32,-0.36 0.76,-0.4 1,-1.76 l 1.4,-7.96 q 0.04,-0.24 0.04,-0.64 0,-0.92 -0.64,-1.2 -0.64,-0.28 -2,-0.28 z"
         style="font-family:'Changa One';-inkscape-font-specification:'Changa One'"
         id="path10095" />
    </g>
  </g>
</svg>
