<?xml version="1.0" encoding="UTF-8" standalone="no"?>
<!-- Created with Inkscape (http://www.inkscape.org/) -->

<svg
   width="254mm"
   height="76.491776mm"
   viewBox="0 0 254 76.491776"
   version="1.1"
   id="svg4452"
   inkscape:version="1.2.1 (9c6d41e410, 2022-07-14, custom)"
   sodipodi:docname="system.svg"
   xmlns:inkscape="http://www.inkscape.org/namespaces/inkscape"
   xmlns:sodipodi="http://sodipodi.sourceforge.net/DTD/sodipodi-0.dtd"
   xmlns="http://www.w3.org/2000/svg"
   xmlns:svg="http://www.w3.org/2000/svg">
  <sodipodi:namedview
     id="namedview4454"
     pagecolor="#bfbfbf"
     bordercolor="#666666"
     borderopacity="1.0"
     inkscape:showpageshadow="2"
     inkscape:pageopacity="0"
     inkscape:pagecheckerboard="true"
     inkscape:deskcolor="#d1d1d1"
     inkscape:document-units="mm"
     showgrid="false"
     inkscape:zoom="0.7500982"
     inkscape:cx="311.95915"
     inkscape:cy="315.95863"
     inkscape:window-width="1920"
     inkscape:window-height="1023"
     inkscape:window-x="1366"
     inkscape:window-y="29"
     inkscape:window-maximized="1"
     inkscape:current-layer="layer1" />
  <defs
     id="defs4449" />
  <g
     inkscape:label="Layer 1"
     inkscape:groupmode="layer"
     id="layer1"
     transform="translate(18.632104,-64.748757)">
    <path
       id="Selection"
       fill="none"
       stroke="#000000"
       stroke-width="1"
       d="m 99.372066,64.869641 c 3.508374,-0.449792 6.992934,0.910167 9.048754,3.852333 2.77283,3.963459 1.40229,9.641417 -2.69875,12.078229 -1.05569,0.627063 -2.48444,1.161521 -3.70417,1.336146 -4.426484,0.637646 -9.157234,-2.018771 -10.178524,-6.535208 -0.17463,-0.772584 -0.14817,-1.8415 -0.14023,-2.645833 0.0291,-2.354792 1.1139,-4.474105 2.91306,-5.998105 1.47373,-1.248833 2.90513,-1.740958 4.75986,-2.087562 z m 31.220834,0 c 7.11465,-0.910167 13.27944,6.209771 9.42975,12.848166 -0.62177,1.071563 -1.80975,2.248959 -2.81517,2.965979 -1.17475,0.83873 -2.29393,1.193271 -3.70416,1.415521 -3.03742,0.478896 -6.31561,-0.518583 -8.41905,-2.804583 -3.41841,-3.717396 -2.75431,-9.734021 1.2753,-12.707937 1.4552,-1.074209 2.50031,-1.391709 4.23333,-1.717146 z m 85.98958,-0.116417 c 0,0 6.08542,0 6.08542,0 5.37633,0 10.24996,0.280459 12.23698,6.35 0.4445,1.352021 0.46037,2.050521 0.46302,3.439584 0,0 0,34.395832 0,34.395832 -0.0212,4.72811 -2.03729,9.27629 -6.35,11.55436 -2.12725,1.12447 -5.53773,1.67216 -7.9375,1.67481 0,0 -47.88958,0 -47.88958,0 -4.33388,-0.008 -9.06463,-1.35202 -11.69723,-5.02709 -1.8759,-2.61672 -2.58498,-6.61722 -2.59027,-9.78958 0,0 0,-31.749999 0,-31.749999 0.005,-2.876021 0.70114,-6.376458 2.93423,-8.379354 2.99772,-2.690813 6.58018,-2.468563 10.29493,-2.468563 0,0 5.82084,0 5.82084,0 0,0 0,28.575 0,28.575 0.008,5.614458 2.56645,11.234206 7.14375,14.570606 7.3607,5.37104 20.82535,4.52437 26.93987,-2.39977 4.67519,-5.29431 4.54554,-11.432649 4.54554,-17.991669 0,0 0,-22.754167 0,-22.754167 z m -29.63333,0 c 0,0 20.37292,0 20.37292,0 0,0 0,26.722917 0,26.722917 -0.0106,6.585479 -3.68565,11.456459 -10.58334,11.377079 -5.01914,-0.0608 -8.53546,-3.659184 -9.40329,-8.466663 -0.57944,-3.212041 -0.38629,-8.008937 -0.38629,-11.377083 0,0 0,-18.25625 0,-18.25625 z M 11.265813,121.37406 c 0,0 1.883833,-7.40834 1.883833,-7.40834 0,0 2.420937,-9.26041 2.420937,-9.26041 0,0 6.506105,-24.606253 6.506105,-24.606253 1.666875,-5.908145 3.198812,-11.554354 10.620375,-11.641666 1.30175,-0.01323 2.161645,-0.03969 3.439583,0.306917 6.291792,1.70127 7.027333,7.585603 8.543396,12.922249 0,0 7.749646,29.368753 7.749646,29.368753 0,0 2.756958,10.31875 2.756958,10.31875 0,0 4.066646,-15.875 4.066646,-15.875 0,0 6.217708,-24.341669 6.217708,-24.341669 0,0 2.116667,-8.202083 2.116667,-8.202083 0,0 1.074208,-3.545417 1.074208,-3.545417 0,0 2.135188,-0.423333 2.135188,-0.423333 0,0 14.022913,0 14.022913,0 0,0 -2.00554,7.672916 -2.00554,7.672916 0,0 -3.439582,12.435417 -3.439582,12.435417 0,0 -7.141104,25.399999 -7.141104,25.399999 0,0 -3.114146,11.1125 -3.114146,11.1125 -1.857375,5.95048 -2.973916,13.04396 -9.964208,15.10506 -1.005417,0.29634 -1.860021,0.47625 -2.910417,0.50271 -7.609416,0.17463 -10.324041,-4.96623 -12.244916,-11.37444 0,0 -10.773834,-39.158329 -10.773834,-39.158329 0,0 -2.833687,10.054169 -2.833687,10.054169 0,0 -6.654271,24.07708 -6.654271,24.07708 -1.473729,5.20436 -2.545292,11.69194 -7.445375,14.82725 -4.156604,2.66171 -9.9112916,1.87325 -13.4699376,-1.41287 -1.66952,-1.53988 -2.89189502,-3.88144 -3.63802002,-6.00605 0,0 -3.11149998,-10.58333 -3.11149998,-10.58333 0,0 -5.291667,-18.78542 -5.291667,-18.78542 0,0 -5.3683954,-19.314579 -5.3683954,-19.314579 0,0 -2.569105,-9.260417 -2.569105,-9.260417 0,0 -1.476375,-5.291666 -1.476375,-5.291666 0,0 16.4041674,0 16.4041674,0 0,0 3.05064498,12.170833 3.05064498,12.170833 0,0 4.92125002,19.314579 4.92125002,19.314579 0,0 3.307292,12.96459 3.307292,12.96459 0,0 2.2145626,7.9375 2.2145626,7.9375 z M 93.022066,90.946974 c 0,0 15.610414,0 15.610414,0 0,0 0,49.741666 0,49.741666 0,0 -15.610414,0 -15.610414,0 0,0 0,-49.741666 0,-49.741666 z m 31.220834,0 c 0,0 15.61042,0 15.61042,0 0,0 0,49.741666 0,49.741666 0,0 -15.61042,0 -15.61042,0 0,0 0,-49.741666 0,-49.741666 z"
       style="fill:#ffffff;fill-opacity:1;stroke:none" />
  </g>
</svg>
