<?xml version="1.0" encoding="UTF-8" standalone="no"?>

<svg
     width="63.999996"
     height="64"
     viewBox="0 0 16.933332 16.933334"
     version="1.1"
     id="svg1"
     xml:space="preserve"
     xmlns="http://www.w3.org/2000/svg"
     xmlns:svg="http://www.w3.org/2000/svg">
     <defs id="defs1" />
     <g
          id="icon"
          transform="matrix(0.07341578,0,0,0.07341578,-62.366698,-1.2847848)"
          style="display:inline;stroke-width:0">
	
          <ellipse
               style="fill:#eee816;fill-opacity:1;stroke:none;stroke-width:0;stroke-linecap:round;stroke-miterlimit:4;stroke-dasharray:none"
               id="yellow"
               cx="983.41272"
               cy="190.78624"
               rx="48.855389"
               ry="24.538769" />
          <ellipse
               ry="24.538769"
               rx="48.855389"
               cy="148.01036"
               cx="898.35529"
               id="green"
               style="fill:#7bc049;fill-opacity:1;stroke:none;stroke-width:0;stroke-linecap:round;stroke-miterlimit:4;stroke-dasharray:none" />
          <path
               d="m 1037.4901,92.789881 a 42.696593,42.742731 0 0 0 -16.8015,3.432638 42.696593,42.742731 0 0 0 -25.93085,39.488781 42.235885,39.033498 0 0 1 29.31735,11.21042 42.235885,39.033498 0 0 1 12.5204,30.39809 l 0.9706,0.95566 a 42.696593,42.742731 0 0 0 39.4203,-26.59777 42.696593,42.742731 0 0 0 -9.5864,-46.6116 42.696593,42.742731 0 0 0 -29.9099,-12.276219 z"
               style="fill:#ec1d23;fill-opacity:1;stroke:none;stroke-width:0;stroke-linecap:round;stroke-miterlimit:4;stroke-dasharray:none"
               id="red" />
          <path
               id="blue"
               style="fill:#43b9e9;fill-opacity:1;stroke:none;stroke-width:0;stroke-linecap:round;stroke-miterlimit:4;stroke-dasharray:none"
               d="m 952.41854,50.325024 a 42.696593,42.742731 0 0 0 -16.8015,3.432618 42.696593,42.742731 0 0 0 -25.93088,39.488777 42.235885,39.033499 0 0 1 29.31738,11.210441 42.235885,39.033499 0 0 1 12.52035,30.39808 l 0.97058,0.95566 a 42.696593,42.742731 0 0 0 39.4203,-26.59776 42.696593,42.742731 0 0 0 -9.58638,-46.611623 42.696593,42.742731 0 0 0 -29.90985,-12.276193 z" />
     </g>
</svg>
