<?xml version="1.0" encoding="UTF-8" standalone="no"?>
<!-- Created with Inkscape (http://www.inkscape.org/) -->

<svg
   width="256"
   height="134.83177"
   viewBox="0 0 67.733336 35.674241"
   version="1.1"
   id="svg898"
   inkscape:version="1.3.2 (091e20ef0f, 2023-11-25, custom)"
   sodipodi:docname="retroarch.svg"
   style="enable-background:new"
   xmlns:inkscape="http://www.inkscape.org/namespaces/inkscape"
   xmlns:sodipodi="http://sodipodi.sourceforge.net/DTD/sodipodi-0.dtd"
   xmlns="http://www.w3.org/2000/svg"
   xmlns:svg="http://www.w3.org/2000/svg"
   xmlns:rdf="http://www.w3.org/1999/02/22-rdf-syntax-ns#"
   xmlns:cc="http://creativecommons.org/ns#"
   xmlns:dc="http://purl.org/dc/elements/1.1/">
  <defs
     id="defs892" />
  <sodipodi:namedview
     id="base"
     pagecolor="#ffffff"
     bordercolor="#666666"
     borderopacity="1.0"
     inkscape:pageopacity="0.0"
     inkscape:pageshadow="2"
     inkscape:zoom="0.25"
     inkscape:cx="426"
     inkscape:cy="-216"
     inkscape:document-units="mm"
     inkscape:current-layer="g885"
     showgrid="false"
     fit-margin-top="0"
     fit-margin-left="0"
     fit-margin-right="0"
     fit-margin-bottom="0"
     showguides="true"
     inkscape:guide-bbox="true"
     inkscape:window-width="1920"
     inkscape:window-height="1027"
     inkscape:window-x="1366"
     inkscape:window-y="29"
     inkscape:window-maximized="1"
     units="px"
     inkscape:showpageshadow="2"
     inkscape:pagecheckerboard="true"
     inkscape:deskcolor="#d1d1d1" />
  <metadata
     id="metadata895">
    <rdf:RDF>
      <cc:Work
         rdf:about="">
        <dc:format>image/svg+xml</dc:format>
        <dc:type
           rdf:resource="http://purl.org/dc/dcmitype/StillImage" />
      </cc:Work>
    </rdf:RDF>
  </metadata>
  <g
     inkscape:label="retroarch"
     id="g885"
     inkscape:groupmode="layer"
     style="display:inline"
     transform="translate(91.203156,-27.20557)">
    <g
       id="g938"
       transform="matrix(0.35448331,0,0,0.35448331,-37.011662,29.075805)"
       style="display:inline;stroke-width:3.79732"
       inkscape:label="icon">
      <path
         d="m -83.662545,-5.2721395 c 0.827998,0 2.1443,-0.055207 2.900112,0.2547683 1.163443,0.4713206 2.861898,2.5774063 3.715373,3.5667562 0,0 6.301268,7.2184358 6.301268,7.2184358 0.853474,0.98935 2.551929,3.0954341 3.715371,3.5667562 0.755813,0.3099668 2.072116,0.2547683 2.900114,0.2547683 0,0 14.012256,0 14.012256,0 3.804539,-0.025485 4.033831,-1.0955037 6.432899,-3.8215245 0,0 6.326747,-7.2184358 6.326747,-7.2184358 0.844982,-0.9511355 2.335375,-2.8364209 3.392665,-3.3884184 0.985103,-0.513783 2.288668,-0.4288597 3.379925,-0.4331061 0,0 17.409168,0 17.409168,0 0,0 -11.889189,14.8614848 -11.889189,14.8614848 0,0 21.6553062,0 21.6553062,0 0,0 4.19093937,16.9845527 4.19093937,16.9845527 1.07002683,4.271615 0.82374973,5.452042 4.30133793,5.51998 0,0 8.0676575,0 8.0676575,0 0,0 -5.5199745,-22.5045327 -5.5199745,-22.5045327 0,0 15.2860985,0 15.2860985,0 0,0 3.091194,0.4203667 3.091194,0.4203667 0,0 1.210145,2.976543 1.210145,2.976543 0,0 1.910754,7.643049 1.910754,7.643049 0,0 6.046507,24.202989 6.046507,24.202989 0,0 3.027498,13.16303 3.027498,13.16303 0,0 -29.298355,0 -29.298355,0 0,0 3.396916,14.861483 3.396916,14.861483 0,0 -24.202993,0 -24.202993,0 0,0 13.2267192,15.286098 13.2267192,15.286098 0,0 5.880903,7.218436 5.880903,7.218436 0,0 -23.3537622,0 -23.3537622,0 -4.742937,-0.0085 -4.967982,-1.898025 -7.961509,-5.519979 0,0 -9.282059,-11.464574 -9.282059,-11.464574 -2.878881,-3.545526 -3.473341,-5.511488 -8.233262,-5.519981 0,0 -31.421423,0 -31.421423,0 -4.66226,0.0085 -4.700476,1.588056 -7.609081,5.095366 0,0 -9.634488,11.889189 -9.634488,11.889189 -2.853405,3.511556 -3.256788,5.511486 -7.808648,5.519979 0,0 -23.778375,0 -23.778375,0 0,0 19.10762,-22.504534 19.10762,-22.504534 0,0 -23.77837,0 -23.77837,0 0,0 3.39691,-14.861483 3.39691,-14.861483 0,0 -29.72297,0 -29.72297,0 0,0 3.0275,-12.313802 3.0275,-12.313802 0,0 5.62188,-22.504534 5.62188,-22.504534 0,0 3.23981,-13.5876417 3.23981,-13.5876417 0,0 19.10762,0 19.10762,0 0,0 -5.51998,22.5045327 -5.51998,22.5045327 0,0 11.03996,0 11.03996,0 0,0 3.66442,-15.710712 3.66442,-15.710712 0,0 1.82584,-6.114439 1.82584,-6.114439 0,0 3.42663,-0.6793817 3.42663,-0.6793817 0,0 18.258396,0 18.258396,0 0,0 -11.889186,-14.8614848 -11.889186,-14.8614848 0,0 17.409165,0 17.409165,0 z m -9.766117,33.5444925 c 0,0 0,11.03996 0,11.03996 0,0 11.039958,0 11.039958,0 0,0 0,-11.03996 0,-11.03996 z m 61.569006,0 c 0,0 0,11.03996 0,11.03996 0,0 11.03996,0 11.03996,0 0,0 0,-11.03996 0,-11.03996 z"
         id="path881"
         inkscape:connector-curvature="0"
         style="display:inline;fill:#ffffff;stroke:none;stroke-width:1.6124" />
      <path
         style="display:inline;fill:#000000;stroke:none;stroke-width:1.6124"
         inkscape:connector-curvature="0"
         id="icon-3"
         d="m -84.301774,-1.0920745 c 3.311988,0.063696 4.123001,1.85131578 6.19087,4.2461378 1.711193,1.9829464 7.710987,9.2735667 9.519842,10.1822407 1.031811,0.513782 2.271684,0.42886 3.396911,0.433106 0,0 16.55994,0 16.55994,0 1.103995,-0.0042 2.386329,0.08068 3.392663,-0.433106 1.201657,-0.61569 2.492485,-2.352361 3.430881,-3.3884182 0,0 9.349997,-10.36057871 9.349997,-10.36057871 1.715438,-1.16344139 9.023044,-0.67938159 11.426357,-0.67938159 0,0 -11.889187,14.8614845 -11.889187,14.8614845 0,0 26.750672,0 26.750672,0 0,0 3.8767246,15.710712 3.8767246,15.710712 0,0 1.94897667,6.114439 1.94897667,6.114439 0,0 3.51580253,0.679382 3.51580253,0.679382 0,0 14.8615442,0 14.8615442,0 0,0 -5.520007,-22.504533 -5.520007,-22.504533 0,0 7.643082,0 7.643082,0 0,0 3.159159,0.433106 3.159159,0.433106 0,0 1.142212,2.539191 1.142212,2.539191 0,0 1.588069,6.369207 1.588069,6.369207 0,0 7.698272,31.421425 7.698272,31.421425 0,0 -29.723103,0 -29.723103,0 0,0 3.3969113,15.286098 3.3969113,15.286098 0,0 -27.1752863,0 -27.1752863,0 0,0 19.1076223,22.079919 19.1076223,22.079919 0,0 -13.5876413,0 -13.5876413,0 -4.573092,-0.0085 -4.658016,-1.609287 -7.536897,-5.095366 0,0 -9.625996,-11.889187 -9.625996,-11.889187 -2.810942,-3.426635 -2.98928,-5.086875 -7.464711,-5.095366 0,0 -36.092176,0 -36.092176,0 -4.776906,0.0085 -4.946751,1.881039 -7.902063,5.519979 0,0 -8.997573,11.039961 -8.997573,11.039961 -2.785467,3.47334 -3.176112,5.511486 -7.727975,5.519979 0,0 -13.587649,0 -13.587649,0 0,0 7.52416,-8.916891 7.52416,-8.916891 0,0 11.583471,-13.163028 11.583471,-13.163028 0,0 -27.599911,0 -27.599911,0 0,0 3.39691,-15.286098 3.39691,-15.286098 0,0 -29.29835,0 -29.29835,0 0,0 2.60288,-11.464574 2.60288,-11.464574 0,0 7.16323,-29.298355 7.16323,-29.298355 0,0 11.03996,0 11.03996,0 0,0 -5.51998,22.079919 -5.51998,22.079919 3.09544,0.751566 11.23953,0.433106 14.86149,0.424614 1.1507,-0.0042 2.6963,0.135881 3.60497,-0.679382 0.95114,-0.853475 1.4352,-3.558263 1.7579,-4.840598 0,0 2.76,-11.03996 2.76,-11.03996 1.46491,-5.868162 0.96811,-5.936101 5.04016,-5.944593 0,0 22.929163,0 22.929163,0 0,0 -11.464579,-14.8614845 -11.464579,-14.8614845 0,0 8.492282,0 8.492282,0 z M -97.040197,24.809369 c 0,0 0,18.683009 0,18.683009 0,0 18.683016,0 18.683016,0 0,0 0,-18.683009 0,-18.683009 0,0 -18.683016,0 -18.683016,0 z m 61.569014,0 c 0,0 0,18.683009 0,18.683009 0,0 18.68301,0 18.68301,0 0,0 0,-18.683009 0,-18.683009 0,0 -18.68301,0 -18.68301,0 z" />
    </g>
  </g>
</svg>
