<?xml version="1.0" encoding="UTF-8" standalone="no"?>
<svg
     width="32"
     height="32"
     viewBox="0 0 8.4407956 8.4667474"
     version="1.1"
     xml:space="preserve"
     id="svg1"
     xmlns="http://www.w3.org/2000/svg"
     xmlns:svg="http://www.w3.org/2000/svg"><defs
     id="defs1" />

    <g
     id="search"
     transform="matrix(2,0,0,2,0.00648795,0)"
     style="stroke-width:0.5"><rect
         style="display:inline;fill:#507dba;stroke-width:0.132293;stroke-linejoin:bevel"
         id="background"
         width="4.2333736"
         height="4.2333736"
         x="-0.0064879502"
         y="0" /><path
         id="icon"
         style="fill:#ffffff;fill-opacity:1;stroke:none;stroke-width:0"
         d="M 2.5535148,0.87099706 C 2.7846537,1.1021367 2.9002307,1.3844573 2.9002307,1.7179589 c 0,0.1221732 -0.01482,0.2377426 -0.044537,0.3467091 l 0.12878,0.1337301 0.029716,0.029724 0.034681,0.034674 0.4853962,0.485394 c 0.1056625,0.1122663 0.160137,0.2426953 0.1634472,0.3912851 v 0.024766 c -0.00301,0.1485904 -0.057777,0.2740655 -0.1634463,0.3764274 -0.089156,0.092456 -0.1931699,0.1469392 -0.312042,0.1634486 l -0.079248,0.00497 -0.074328,-0.00497 C 2.9497702,3.6876115 2.842461,3.634777 2.7466998,3.5456218 L 2.4990553,3.297972 v -0.00497 l -0.4210137,-0.4259579 0.039571,0.044574 -0.054542,-0.054482 -0.3516661,0.044582 c -0.3302028,0 -0.6125211,-0.1155702 -0.84696268,-0.3467098 C 0.63660565,2.3238732 0.52268375,2.0448552 0.52268375,1.7179581 c 0,-0.3302004 0.1139219,-0.612521 0.34175817,-0.84696179 C 1.1021861,0.63985665 1.384512,0.52428645 1.7114046,0.52428645 c 0.3334978,0 0.6141762,0.1155702 0.8420049,0.34670986 M 2.4939772,1.7030986 C 2.490968,1.4884691 2.4147292,1.3068591 2.266141,1.1582694 v -0.00497 C 2.1142426,1.0047144 1.929333,0.93041956 1.7114046,0.93041956 c -0.2179284,0 -0.4044931,0.0742903 -0.5596866,0.22288454 l -0.00527,0.00497 c -0.14858438,0.1518926 -0.22287473,0.3384551 -0.22287473,0.559689 0,0.2146288 0.0759379,0.3978901 0.22783633,0.5497818 0.1518908,0.1485896 0.3351529,0.2245352 0.5497862,0.2278377 h 0.00986 c 0.2179284,0 0.4011905,-0.075946 0.5497862,-0.2278377 h 0.00527 C 2.4179942,2.1158482 2.4939396,1.9325869 2.4939396,1.7179581 v -0.014858" /></g>
</svg>
