<?xml version="1.0" encoding="UTF-8" standalone="no"?>
<!-- Created with Inkscape (http://www.inkscape.org/) -->

<svg
   width="33.86665mm"
   height="33.571655mm"
   viewBox="0 0 33.86665 33.571655"
   version="1.1"
   id="svg1"
   xmlns="http://www.w3.org/2000/svg"
   xmlns:svg="http://www.w3.org/2000/svg">
  <defs
     id="defs1" />
  <g
     id="layer1"
     transform="matrix(0.54449863,0,0,0.54449863,-54.445353,-26.215988)"
     style="stroke-width:1.83655">
    <path
       id="Selection"
       fill="none"
       stroke="#000000"
       stroke-width="1.83655"
       d="m 120.12083,109.5375 c 0.66146,-0.9525 3.06123,-3.56394 3.25702,-4.23333 1.08744,-3.69094 -5.81025,-3.65125 -7.33954,-5.04825 -0.6641,-0.608545 -0.41804,-3.524253 -0.41539,-4.476753 0.003,-0.717021 -0.0847,-1.680105 0.42333,-2.246313 1.23031,-1.373187 7.43744,-1.148292 7.08819,-4.632854 -0.21961,-2.172229 -5.15673,-4.577292 -4.34182,-7.14375 0.33073,-1.034521 2.16165,-4.431771 3.20675,-4.669896 1.90236,-0.431271 5.70442,1.844146 7.37659,0.608542 2.11931,-1.563688 0.77258,-4.400021 0.32544,-6.521979 -0.254,-1.203855 -0.56092,-2.053167 0.51329,-2.936875 1.00012,-0.822855 4.27831,-2.915709 5.51656,-2.344209 1.56104,0.722313 3.94494,4.15925 5.55625,4.167188 3.42371,0.01587 2.99773,-6.008688 4.63285,-7.458604 0.5715,-0.508 1.52665,-0.420688 2.24632,-0.423334 0.98425,-0.0026 3.63273,-0.22225 4.3127,0.423334 1.67217,1.584854 0.88636,7.440083 5.2123,7.254875 1.48695,-0.0635 2.34156,-1.91823 4.49791,-2.651125 V 77.7875 c -1.70656,-0.320146 -3.15383,-1.325563 -4.7625,-1.955271 -2.11402,-0.8255 -5.13821,-1.436687 -7.40833,-1.479021 -11.55435,-0.227541 -22.09006,9.850438 -22.225,21.425959 -0.037,3.28877 0.63235,6.516683 1.9685,9.525003 0.68527,1.54781 1.86002,2.84691 2.26483,4.49791 h -7.40833 z m 27.25209,-31.636229 c 3.79148,-0.468313 8.0301,0.246062 11.37708,2.119312 2.37596,1.328209 3.43429,1.849438 3.43958,4.646084 V 96.308333 107.95 c -0.037,1.98173 -0.59796,1.84944 -2.38125,1.85208 h -20.6375 c -2.93158,-0.005 -3.43429,-1.03452 -5.02708,-3.43958 -2.1881,-3.30465 -2.9554,-6.929438 -2.91042,-10.847917 0.0794,-6.786562 4.43442,-13.263562 10.58334,-16.057562 1.82827,-0.830792 3.59039,-1.235604 5.55625,-1.55575 z m 1.32291,14.276916 c -5.59858,1.75948 -3.175,9.464143 2.11667,8.260293 2.80458,-0.640293 4.12221,-4.180418 2.47385,-6.506105 -1.19591,-1.693333 -2.65112,-2.016125 -4.59052,-1.754188 z"
       style="fill:#2dabdf;fill-opacity:1;stroke:none" />
    <path
       d="m 113.24696,48.270584 c 0.83873,-0.108479 2.31775,-0.320146 2.9845,0.306917 0.91016,0.851958 1.01071,3.463396 2.33098,3.931708 1.50812,0.53975 3.51102,-2.243666 5.26256,-1.434041 0.37571,0.174625 0.75671,0.518583 1.05569,0.799041 0.58473,0.545042 1.32821,1.240897 1.2991,2.100793 -0.0423,1.230312 -1.78329,2.913062 -1.05304,4.198937 1.18533,2.090209 4.72017,0.322792 4.78367,3.738563 0.0132,0.746125 0.14287,2.100792 -0.4154,2.648479 -0.81492,0.796396 -3.44752,0.931333 -3.85233,2.391833 -0.34661,1.25148 1.54252,3.01625 1.60602,4.220105 0.0344,0.695854 -0.44186,1.341437 -0.86519,1.852083 -0.24871,0.298979 -0.6641,0.740833 -0.97367,0.971021 -1.95262,1.444625 -3.83645,-1.534584 -5.49539,-0.648229 -1.27529,0.679979 -1.15094,3.439583 -2.05846,4.280958 -0.59002,0.547687 -1.98438,0.436562 -2.76225,0.423333 -3.15119,-0.05292 -1.67217,-3.251729 -3.73327,-4.15925 -1.9685,-0.867833 -3.3999,3.021542 -6.05631,0.894292 l -0.76465,-0.714375 c -1.81504,-1.9685 -0.0688,-2.870729 0.3466,-4.751917 0.53182,-2.402416 -3.54541,-2.325687 -4.45029,-3.156479 -0.560915,-0.515937 -0.436561,-1.939396 -0.42333,-2.664354 0.0132,-0.592667 -0.01588,-1.2065 0.42333,-1.666875 0.78317,-0.8255 3.43165,-0.968375 3.85234,-2.330979 0.46831,-1.518709 -2.1934,-3.466042 -1.59544,-4.997979 0.14287,-0.370417 0.49477,-0.759355 0.75142,-1.058334 0.55827,-0.650876 1.19327,-1.492251 2.12725,-1.492251 1.39964,-0.0053 3.10885,1.865314 4.43706,1.008063 1.84414,-1.193271 0.35983,-4.042834 3.2385,-4.691063 z m 0.78846,11.099272 c -4.23598,1.36525 -3.7809,7.188729 0.52916,7.686146 4.14338,0.481542 5.85523,-5.199063 2.37596,-7.236354 -0.94456,-0.555625 -1.85473,-0.582084 -2.90512,-0.449792 z"
       style="fill:#157b9f;fill-opacity:1;stroke:none;stroke-width:1.83655"
       id="path1" />
  </g>
</svg>
