<?xml version="1.0" encoding="UTF-8" standalone="no"?>
<svg xmlns="http://www.w3.org/2000/svg" xmlns:svg="http://www.w3.org/2000/svg" id="svgsaturnicon" width="128" height="128" version="1.1">
  <path id="saturnicon" fill="#000000" d="m 63.957207,24.000073 c 0,0 1.359947,0 1.359947,0 0,0 0.24,0.01512 0.24,0.01512 0,0 0.335999,0 0.335999,0 0,0 0.192,0.01512 0.192,0.01512 0,0 0.224125,0 0.224125,0 0,0 0.335999,0.01512 0.335999,0.01512 0,0 0.176126,0.01512 0.176126,0.01512 0,0 0.128126,0 0.128126,0 0,0 0.272125,0.01512 0.272125,0.01512 0,0 0.159874,0.01512 0.159874,0.01512 0,0 0.975948,0.0771 0.975948,0.0771 0,0 0.479961,0.04573 0.479961,0.04573 0.04876,0.0076 0.117921,0.0038 0.159496,0.02646 0.04309,0.02268 0.107716,0.102425 0.14211,0.141354 0,0 0.264944,0.303874 0.264944,0.303874 0,0 0.811841,0.928061 0.811841,0.928061 0,0 2.911667,3.312182 2.911667,3.312182 2.190913,2.48855 4.384698,4.97589 6.602482,7.440326 1.925175,2.139322 3.847628,4.27872 5.808972,6.384329 0,0 1.490001,1.584072 1.490001,1.584072 0,0 0.350739,0.351874 0.350739,0.351874 0,0 0.864603,0.879872 0.864603,0.879872 0,0 0.159874,0.144756 0.159874,0.144756 0,0 1.599871,1.490151 1.599871,1.490151 0,0 1.183973,1.072061 1.183973,1.072061 0,0 0.335999,0.30274 0.335999,0.30274 0.04346,0.04006 0.119811,0.11981 0.176126,0.135307 0.06009,0.01512 0.280818,-0.05594 0.351873,-0.07484 0,0 0.87991,-0.231307 0.87991,-0.231307 0,0 1.935908,-0.492622 1.935908,-0.492622 0,0 1.16791,-0.281953 1.16791,-0.281953 0,0 -0.799936,-0.768678 -0.799936,-0.768678 0,0 -0.320125,-0.318614 -0.320125,-0.318614 0,0 -1.071948,-1.025384 -1.071948,-1.025384 0,0 -0.783948,-0.766751 -0.783948,-0.766751 0,0 -3.42383,-3.297443 -3.42383,-3.297443 0,0 -0.320125,-0.318613 -0.320125,-0.318613 0,0 -1.087935,-1.041334 -1.087935,-1.041334 0,0 -0.320125,-0.318614 -0.320125,-0.318614 0,0 -6.687597,-6.4496 -6.687597,-6.4496 0,0 -0.320126,-0.318614 -0.320126,-0.318614 0,0 -1.071947,-1.025308 -1.071947,-1.025308 0,0 -0.336,-0.334866 -0.336,-0.334866 0,0 -3.871816,-3.729441 -3.871816,-3.729441 0,0 -0.783948,-0.766751 -0.783948,-0.766751 0,0 -0.623923,-0.593309 -0.623923,-0.593309 0,0 -0.320126,-0.318614 -0.320126,-0.318614 0,0 -0.847935,-0.816678 -0.847935,-0.816678 0,0 -0.495987,-0.480037 -0.495987,-0.480037 0,0 -0.207873,-0.207874 -0.207873,-0.207874 0,0 1.471934,0.309543 1.471934,0.309543 0.788219,0.181039 1.578592,0.380144 2.351882,0.618065 0,0 1.039897,0.320125 1.039897,0.320125 0.08202,0.02646 0.377953,0.117543 0.430563,0.155339 0.04271,0.03024 0.154961,0.165921 0.195402,0.212787 0,0 0.320503,0.368125 0.320503,0.368125 0,0 1.074064,1.232009 1.074064,1.232009 0,0 2.1349,2.43216 2.1349,2.43216 0,0 1.222977,1.392035 1.222977,1.392035 0,0 3.039982,3.42417 3.039982,3.42417 0,0 2.586439,2.864158 2.586439,2.864158 0,0 2.11313,2.288084 2.11313,2.288084 0.663193,0.711873 1.33659,1.415884 2.033344,2.095933 0,0 0.144,0.129638 0.144,0.129638 0,0 0.416012,0.397152 0.416012,0.397152 0,0 0.511936,0.466884 0.511936,0.466884 0,0 2.831844,2.54528 2.831844,2.54528 0,0 0.943973,0.833951 0.943973,0.833951 0,0 0.447948,0.38725 0.447948,0.38725 0.06425,0.03402 0.12548,0.0076 0.192,-0.01134 0,0 0.351873,-0.08012 0.351873,-0.08012 0,0 1.471859,-0.327307 1.471859,-0.327307 0,0 1.871922,-0.381089 1.871922,-0.381089 1.26425,-0.25285 2.5336,-0.493001 3.80779,-0.690972 0,0 2.46383,-0.347338 2.46383,-0.347338 0,0 0.72,-0.08882 0.72,-0.08882 0,0 1.08794,-0.111873 1.08794,-0.111873 0,0 0.46397,-0.0378 0.46397,-0.0378 0,0 0.94393,-0.0771 0.94393,-0.0771 0,0 0.144,0 0.144,0 0,0 0.11188,-0.01512 0.11188,-0.01512 0,0 0.15987,0 0.15987,0 0,0 0.15988,-0.01512 0.15988,-0.01512 0,0 0.35187,-0.01512 0.35187,-0.01512 0,0 0.36812,-0.01512 0.36812,-0.01512 0,0 0.24,0 0.24,0 0,0 0.25588,-0.01512 0.25588,-0.01512 0,0 1.64794,0 1.64794,0 0,0 0.27213,0.01512 0.27213,0.01512 0,0 0.54402,0.01512 0.54402,0.01512 0,0 0.15988,0.01512 0.15988,0.01512 0,0 0.15987,0 0.15987,0 0,0 0.11187,0.01512 0.11187,0.01512 0,0 1.10396,0.09487 1.10396,0.09487 2.18366,0.233574 4.31191,0.771211 6.22359,1.88137 0.68304,0.396698 1.311,0.878436 1.88795,1.415884 0,0 0.31861,0.305385 0.31861,0.305385 0.63469,0.681145 1.10524,1.308546 1.54839,2.128097 0.55884,1.033321 0.89806,2.184752 1.06526,3.344157 0.0639,0.443565 0.11868,0.896351 0.12359,1.344073 0,0 0.0151,0.24 0.0151,0.24 0,0 0,0.656011 0,0.656011 0,0 -0.0151,0.224126 -0.0151,0.224126 0,0 -0.0151,0.255873 -0.0151,0.255873 0,0 -0.0858,0.912074 -0.0858,0.912074 -0.24491,1.859902 -0.95437,3.797285 -1.87899,5.424255 0,0 -0.70348,1.168061 -0.70348,1.168061 -1.6258,2.524304 -3.88172,4.781471 -6.18058,6.694853 -3.38622,2.81854 -7.12953,5.169742 -10.97538,7.303583 -1.65846,0.920201 -3.34828,1.788055 -5.05568,2.614484 0,0 -1.77592,0.848842 -1.77592,0.848842 0,0 -0.68799,0.315212 -0.68799,0.315212 0.0265,-0.09751 0.12284,-0.26948 0.17197,-0.368125 0,0 0.31975,-0.640024 0.31975,-0.640024 0,0 0.78123,-1.728072 0.78123,-1.728072 0.83338,-1.953521 1.6013,-4.25026 2.07635,-6.320304 0.23547,-1.025686 0.45388,-2.061388 0.6003,-3.104157 0,0 0.12548,-0.896049 0.12548,-0.896049 0.008,-0.06916 0.0265,-0.31559 0.062,-0.358299 0.0302,-0.03779 0.26759,-0.165543 0.32655,-0.199181 0,0 0.63998,-0.38003 0.63998,-0.38003 0,0 2.14382,-1.329484 2.14382,-1.329484 1.45599,-0.937964 2.9328,-1.988784 4.27177,-3.086432 1.24939,-1.024062 2.44576,-2.119442 3.49454,-3.350886 0.57596,-0.676194 1.21595,-1.541779 1.61318,-2.336046 0.15609,-0.312188 0.37825,-0.776691 0.42338,-1.120098 0.10016,-0.759079 -0.36699,-1.451109 -1.08332,-1.701049 -0.27175,-0.09487 -0.75886,-0.128882 -1.05596,-0.157606 -0.42029,-0.04082 -0.84125,-0.06047 -1.26391,-0.06123 0,0 -0.27213,-0.01512 -0.27213,-0.01512 0,0 -0.336,0 -0.336,0 0,0 -0.25587,0.01512 -0.25587,0.01512 0,0 -0.40003,0 -0.40003,0 0,0 -0.192,0.01512 -0.192,0.01512 0,0 -0.192,0 -0.192,0 0,0 -0.192,0.01512 -0.192,0.01512 0,0 -0.144,0 -0.144,0 0,0 -0.27212,0.01512 -0.27212,0.01512 0,0 -0.15987,0.01512 -0.15987,0.01512 0,0 -0.35188,0.0189 -0.35188,0.0189 0,0 -0.30387,0.03024 -0.30387,0.03024 -0.90939,0.06236 -1.81553,0.181795 -2.71982,0.30085 -0.85629,0.112629 -1.70883,0.25285 -2.55983,0.400515 0,0 -1.56797,0.288378 -1.56797,0.288378 -0.0934,0.0189 -0.0828,0.04158 -0.16063,0.06047 0,0 -0.49538,0.09449 -0.49538,0.09449 0,0 -0.86393,0.176127 -0.86393,0.176127 0,0 -1.88791,0.408831 -1.88791,0.408831 0,0 0.36813,0.324281 0.36813,0.324281 0,0 0.52796,0.463974 0.52796,0.463974 0,0 1.85586,1.625232 1.85586,1.625232 0,0 0.78398,0.685945 0.78398,0.685945 0,0 0.3515,0.324661 0.3515,0.324661 0,0 0.034,0.255874 0.034,0.255874 0,0 0.0457,0.496024 0.0457,0.496024 0,0 0,0.128126 0,0.128126 0,0 0.0302,0.432037 0.0302,0.432037 0,0 0.0151,0.255873 0.0151,0.255873 0,0 0.0151,0.303873 0.0151,0.303873 0,0 0.0151,0.320126 0.0151,0.320126 0,0 0,0.239999 0,0.239999 0,0 0.0151,0.272126 0.0151,0.272126 0,0 0,0.720036 0,0.720036 0,0 -0.25588,-0.237354 -0.25588,-0.237354 0,0 -0.46393,-0.450632 -0.46393,-0.450632 0,0 -0.192,-0.176125 -0.192,-0.176125 0,0 -0.336,-0.334488 -0.336,-0.334488 0,0 -0.47996,-0.464805 -0.47996,-0.464805 0,0 -0.15988,-0.144756 -0.15988,-0.144756 0,0 -0.35187,-0.351118 -0.35187,-0.351118 0,0 -1.63192,-1.569332 -1.63192,-1.569332 0,0 -0.99197,-0.962153 -0.99197,-0.962153 0,0 -0.383966,-0.380635 -0.383966,-0.380635 0,0 -0.144,-0.12926 -0.144,-0.12926 0,0 -0.368125,-0.366613 -0.368125,-0.366613 0,0 -0.255874,-0.240756 -0.255874,-0.240756 0,0 -0.351873,-0.338645 -0.351873,-0.338645 0,0 -0.144,-0.113007 -0.144,-0.113007 0,0 -0.287999,0.05367 -0.287999,0.05367 0,0 -0.704012,0.176126 -0.704012,0.176126 0,0 -1.695871,0.42803 -1.695871,0.42803 0,0 -0.639948,0.167811 -0.639948,0.167811 0,0 -0.320125,0.07408 -0.320125,0.07408 0,0 0.783948,0.706543 0.783948,0.706543 0,0 1.695908,1.505988 1.695908,1.505988 0,0 2.33582,2.073067 2.33582,2.073067 0,0 2.495877,2.208109 2.495877,2.208109 0,0 1.91989,1.696137 1.91989,1.696137 0,0 0.54398,0.479999 0.54398,0.479999 0,0 0.23887,0.22677 0.23887,0.22677 0,0 -0.0113,0.288 -0.0113,0.288 0,0 -0.0643,0.656049 -0.0643,0.656049 0,0 -0.21506,1.680035 -0.21506,1.680035 0,0 -0.12359,0.80001 -0.12359,0.80001 -0.1217,-0.04762 -0.24226,-0.194267 -0.336,-0.287998 0,0 -0.56001,-0.544025 -0.56001,-0.544025 0,0 -0.39991,-0.384151 -0.39991,-0.384151 0,0 -0.39998,-0.399231 -0.39998,-0.399231 0,0 -1.10393,-1.072703 -1.10393,-1.072703 0,0 -0.17612,-0.16063 -0.17612,-0.16063 0,0 -0.39999,-0.399193 -0.39999,-0.399193 0,0 -0.17612,-0.16025 -0.17612,-0.16025 0,0 -2.255849,-2.192539 -2.255849,-2.192539 0,0 -0.991973,-0.974813 -0.991973,-0.974813 0,0 -2.415832,-2.33737 -2.415832,-2.33737 0,0 -0.991973,-0.974776 -0.991973,-0.974776 0,0 -1.02391,-0.992691 -1.02391,-0.992691 0,0 -0.560011,-0.544024 -0.560011,-0.544024 -0.05329,-0.05329 -0.186331,-0.196157 -0.255874,-0.211653 -0.04535,-0.01134 -0.216188,0.04724 -0.272125,0.06161 0,0 -0.687949,0.191243 -0.687949,0.191243 0,0 -1.631921,0.461479 -1.631921,0.461479 0,0 -0.560012,0.159874 -0.560012,0.159874 0,0 -0.255873,0.07332 -0.255873,0.07332 0,0 0.368125,0.338645 0.368125,0.338645 0,0 0.639949,0.576074 0.639949,0.576074 0,0 1.743908,1.568048 1.743908,1.568048 0,0 5.711687,5.120267 5.711687,5.120267 0,0 4.367723,3.904131 4.367723,3.904131 0,0 1.34396,1.200112 1.34396,1.200112 0,0 0.71993,0.637302 0.71993,0.637302 0,0 -0.12208,0.495987 -0.12208,0.495987 -0.15194,0.600868 -0.31824,1.200262 -0.50219,1.792097 0,0 -0.35149,1.104074 -0.35149,1.104074 -0.10772,-0.05102 -0.29102,-0.259275 -0.38396,-0.351874 0,0 -0.27213,-0.256251 -0.27213,-0.256251 0,0 -0.46397,-0.46371 -0.46397,-0.46371 0,0 -0.15988,-0.144755 -0.15988,-0.144755 0,0 -0.46397,-0.46318 -0.46397,-0.46318 0,0 -0.17613,-0.160252 -0.17613,-0.160252 0,0 -0.47996,-0.479205 -0.47996,-0.479205 0,0 -0.15987,-0.144756 -0.15987,-0.144756 0,0 -0.463975,-0.463747 -0.463975,-0.463747 0,0 -0.191999,-0.176126 -0.191999,-0.176126 0,0 -0.447949,-0.44742 -0.447949,-0.44742 0,0 -0.159874,-0.144755 -0.159874,-0.144755 0,0 -0.479999,-0.479206 -0.479999,-0.479206 0,0 -0.159874,-0.144755 -0.159874,-0.144755 0,0 -0.463974,-0.46318 -0.463974,-0.46318 0,0 -0.159873,-0.144756 -0.159873,-0.144756 0,0 -0.447949,-0.447684 -0.447949,-0.447684 0,0 -0.159874,-0.144756 -0.159874,-0.144756 0,0 -0.479999,-0.479243 -0.479999,-0.479243 0,0 -0.159874,-0.144756 -0.159874,-0.144756 0,0 -0.479999,-0.479167 -0.479999,-0.479167 0,0 -0.159874,-0.144756 -0.159874,-0.144756 0,0 -0.479961,-0.479168 -0.479961,-0.479168 0,0 -0.159874,-0.144755 -0.159874,-0.144755 0,0 -0.463936,-0.462689 -0.463936,-0.462689 0,0 -0.143999,-0.12926 -0.143999,-0.12926 0,0 -0.496025,-0.495193 -0.496025,-0.495193 0,0 -0.159873,-0.144755 -0.159873,-0.144755 0,0 -0.464012,-0.463256 -0.464012,-0.463256 0,0 -0.176126,-0.160252 -0.176126,-0.160252 0,0 -0.479961,-0.479205 -0.479961,-0.479205 0,0 -0.159874,-0.144756 -0.159874,-0.144756 0,0 -0.447911,-0.447684 -0.447911,-0.447684 0,0 -0.191999,-0.176126 -0.191999,-0.176126 0,0 -0.464012,-0.463369 -0.464012,-0.463369 0,0 -0.159874,-0.144755 -0.159874,-0.144755 0,0 -0.464012,-0.463218 -0.464012,-0.463218 0,0 -0.368125,-0.35263 -0.368125,-0.35263 0,0 -0.431999,-0.416163 -0.431999,-0.416163 0,0 -0.479961,-0.479243 -0.479961,-0.479243 0,0 -0.159874,-0.144756 -0.159874,-0.144756 0,0 -0.447987,-0.447684 -0.447987,-0.447684 0,0 -0.191999,-0.176125 -0.191999,-0.176125 0,0 -0.463974,-0.463332 -0.463974,-0.463332 0,0 -0.159874,-0.144755 -0.159874,-0.144755 0,0 -0.479961,-0.479206 -0.479961,-0.479206 0,0 -0.207874,-0.192755 -0.207874,-0.192755 0,0 -0.815961,-0.800049 -0.815961,-0.800049 0,0 -0.224125,-0.223748 -0.224125,-0.223748 -0.03402,-0.03402 -0.07937,-0.0805 -0.128126,-0.09033 -0.04951,-0.01134 -0.199559,0.04422 -0.255873,0.06047 0,0 -0.623999,0.187464 -0.623999,0.187464 0,0 -1.551871,0.46662 -1.551871,0.46662 0,0 -0.336,0.100913 -0.336,0.100913 0,0 -0.464012,0.138708 -0.464012,0.138708 0,0 0.512012,0.466733 0.512012,0.466733 0,0 0.895935,0.816037 0.895935,0.816037 0,0 3.199818,2.912196 3.199818,2.912196 0,0 2.015845,1.834655 2.015845,1.834655 0,0 6.943622,6.288252 6.943622,6.288252 0,0 3.823778,3.456183 3.823778,3.456183 0,0 1.00796,0.91026 1.00796,0.91026 0,0 0.32013,0.287999 0.32013,0.287999 0.0412,0.0378 0.1217,0.09827 0.14211,0.148535 0.0227,0.05707 -0.0423,0.183685 -0.0665,0.24 0,0 -0.24907,0.592062 -0.24907,0.592062 0,0 -0.71823,1.568085 -0.71823,1.568085 0,0 -0.42009,0.848049 -0.42009,0.848049 -0.1149,-0.08239 -0.48915,-0.457171 -0.60797,-0.576075 0,0 -0.432003,-0.416163 -0.432003,-0.416163 0,0 -0.54391,-0.543193 -0.54391,-0.543193 0,0 -0.144,-0.129259 -0.144,-0.129259 0,0 -0.527999,-0.527432 -0.527999,-0.527432 0,0 -0.192,-0.176126 -0.192,-0.176126 0,0 -0.512011,-0.511747 -0.512011,-0.511747 0,0 -0.159874,-0.144756 -0.159874,-0.144756 0,0 -0.543987,-0.543154 -0.543987,-0.543154 0,0 -0.176125,-0.160252 -0.176125,-0.160252 0,0 -0.543987,-0.543193 -0.543987,-0.543193 0,0 -0.159873,-0.144755 -0.159873,-0.144755 0,0 -0.527924,-0.527659 -0.527924,-0.527659 0,0 -0.159873,-0.144756 -0.159873,-0.144756 0,0 -0.543987,-0.543268 -0.543987,-0.543268 0,0 -0.159874,-0.144756 -0.159874,-0.144756 0,0 -0.543986,-0.543268 -0.543986,-0.543268 0,0 -0.176126,-0.160252 -0.176126,-0.160252 0,0 -0.527999,-0.527659 -0.527999,-0.527659 0,0 -0.159873,-0.144755 -0.159873,-0.144755 0,0 -0.527962,-0.527206 -0.527962,-0.527206 0,0 -0.159873,-0.144755 -0.159873,-0.144755 0,0 -0.527924,-0.527243 -0.527924,-0.527243 0,0 -0.159873,-0.144756 -0.159873,-0.144756 0,0 -0.575962,-0.574789 -0.575962,-0.574789 0,0 -0.159873,-0.144756 -0.159873,-0.144756 0,0 -0.527961,-0.527697 -0.527961,-0.527697 0,0 -0.192,-0.176125 -0.192,-0.176125 0,0 -0.512012,-0.51137 -0.512012,-0.51137 0,0 -0.159873,-0.144755 -0.159873,-0.144755 0,0 -0.544025,-0.543684 -0.544025,-0.543684 0,0 -0.159873,-0.144756 -0.159873,-0.144756 0,0 -0.527924,-0.527243 -0.527924,-0.527243 0,0 -0.159873,-0.144756 -0.159873,-0.144756 0,0 -0.543987,-0.543268 -0.543987,-0.543268 0,0 -0.159874,-0.144755 -0.159874,-0.144755 0,0 -0.559973,-0.558727 -0.559973,-0.558727 0,0 -0.159874,-0.144756 -0.159874,-0.144756 0,0 -0.543986,-0.543192 -0.543986,-0.543192 0,0 -0.24,-0.224504 -0.24,-0.224504 0,0 -1.311947,-1.28069 -1.311947,-1.28069 0,0 -0.543949,-0.542739 -0.543949,-0.542739 0,0 -0.159873,-0.144756 -0.159873,-0.144756 0,0 -0.527962,-0.527735 -0.527962,-0.527735 0,0 -0.176125,-0.160251 -0.176125,-0.160251 0,0 -0.543949,-0.543193 -0.543949,-0.543193 0,0 -0.159874,-0.144756 -0.159874,-0.144756 0,0 -0.671961,-0.657296 -0.671961,-0.657296 0,0 -0.543986,-0.542626 -0.543986,-0.542626 0,0 -0.176126,-0.160629 -0.176126,-0.160629 0,0 -0.303873,-0.303496 -0.303873,-0.303496 0,0 -0.335999,-0.326928 -0.335999,-0.326928 -0.03024,-0.02646 -0.09147,-0.08731 -0.128126,-0.09978 -0.05102,-0.0189 -0.186331,0.03402 -0.24,0.05291 0,0 -0.575999,0.181039 -0.575999,0.181039 0,0 -1.519896,0.475879 -1.519896,0.475879 0,0 -0.703936,0.212409 -0.703936,0.212409 0,0 0.368126,0.337511 0.368126,0.337511 0,0 1.039935,0.960074 1.039935,0.960074 0,0 3.27983,3.024183 3.27983,3.024183 0,0 2.575856,2.369344 2.575856,2.369344 0,0 2.543844,2.336122 2.543844,2.336122 0,0 3.407805,3.13069 3.407805,3.13069 0,0 1.519972,1.392111 1.519972,1.392111 0,0 1.327897,1.217308 1.327897,1.217308 0,0 0.655936,0.596219 0.655936,0.596219 0,0 1.135972,1.040011 1.135972,1.040011 0,0 2.559832,2.346704 2.559832,2.346704 0,0 0.751973,0.688024 0.751973,0.688024 0,0 0.511974,0.466544 0.511974,0.466544 0,0 0.287999,0.263054 0.287999,0.263054 0.0378,0.03402 0.125102,0.108473 0.140221,0.153449 0.0189,0.05594 -0.06765,0.173102 -0.09676,0.224126 0,0 -0.342425,0.576036 -0.342425,0.576036 0,0 -0.52815,0.848087 -0.52815,0.848087 0,0 -0.948886,1.408022 -0.948886,1.408022 0,0 -0.575961,-0.558575 -0.575961,-0.558575 0,0 -0.799974,-0.785309 -0.799974,-0.785309 0,0 -0.159874,-0.144755 -0.159874,-0.144755 0,0 -0.431961,-0.431395 -0.431961,-0.431395 0,0 -0.272125,-0.270613 -0.272125,-0.270613 0,0 -0.159874,-0.145512 -0.159874,-0.145512 0,0 -0.655974,-0.655369 -0.655974,-0.655369 0,0 -0.159873,-0.144756 -0.159873,-0.144756 0,0 -0.639987,-0.639721 -0.639987,-0.639721 0,0 -0.159873,-0.144756 -0.159873,-0.144756 0,0 -0.671961,-0.671243 -0.671961,-0.671243 0,0 -0.176126,-0.160251 -0.176126,-0.160251 0,0 -0.655898,-0.655747 -0.655898,-0.655747 0,0 -0.176126,-0.160252 -0.176126,-0.160252 0,0 -0.655973,-0.655747 -0.655973,-0.655747 0,0 -0.159874,-0.144755 -0.159874,-0.144755 0,0 -0.671961,-0.671243 -0.671961,-0.671243 0,0 -0.176125,-0.160252 -0.176125,-0.160252 0,0 -0.639949,-0.639759 -0.639949,-0.639759 0,0 -0.176126,-0.160252 -0.176126,-0.160252 0,0 -1.487883,-1.471745 -1.487883,-1.471745 0,0 -0.176126,-0.160252 -0.176126,-0.160252 0,0 -1.471972,-1.455758 -1.471972,-1.455758 0,0 -0.176126,-0.160251 -0.176126,-0.160251 0,0 -0.655973,-0.655709 -0.655973,-0.655709 0,0 -0.176126,-0.160252 -0.176126,-0.160252 0,0 -0.639948,-0.639684 -0.639948,-0.639684 0,0 -0.159874,-0.144755 -0.159874,-0.144755 0,0 -0.687986,-0.687231 -0.687986,-0.687231 0,0 -0.159874,-0.144755 -0.159874,-0.144755 0,0 -0.656011,-0.655218 -0.656011,-0.655218 0,0 -0.176126,-0.160252 -0.176126,-0.160252 0,0 -0.655973,-0.655709 -0.655973,-0.655709 0,0 -0.176126,-0.160251 -0.176126,-0.160251 0,0 -0.655974,-0.655672 -0.655974,-0.655672 0,0 -0.176125,-0.160251 -0.176125,-0.160251 0,0 -0.656012,-0.655671 -0.656012,-0.655671 0,0 -0.176125,-0.160252 -0.176125,-0.160252 0,0 -0.671961,-0.671205 -0.671961,-0.671205 0,0 -0.159874,-0.144756 -0.159874,-0.144756 0,0 -0.639948,-0.639684 -0.639948,-0.639684 0,0 -0.159874,-0.144755 -0.159874,-0.144755 0,0 -0.671961,-0.671243 -0.671961,-0.671243 0,0 -0.159874,-0.144756 -0.159874,-0.144756 0,0 -0.655936,-0.655406 -0.655936,-0.655406 0,0 -0.176125,-0.16063 -0.176125,-0.16063 0,0 -0.543987,-0.543457 -0.543987,-0.543457 0,0 -0.287999,-0.272504 -0.287999,-0.272504 0,0 -0.655936,-0.655406 -0.655936,-0.655406 0,0 -0.351873,-0.336 -0.351873,-0.336 0,0 -0.351874,-0.351873 -0.351874,-0.351873 0,0 -0.159873,-0.131527 -0.159873,-0.131527 0,0 -0.224126,0.05669 -0.224126,0.05669 0,0 -0.527923,0.167811 -0.527923,0.167811 0,0 -1.31191,0.424402 -1.31191,0.424402 0,0 -0.752011,0.234709 -0.752011,0.234709 0,0 0.272126,0.273637 0.272126,0.273637 0,0 0.495986,0.465335 0.495986,0.465335 0,0 0.399949,0.379841 0.399949,0.379841 0,0 0.86396,0.802884 0.86396,0.802884 0,0 4.063741,3.792182 4.063741,3.792182 0,0 8.175556,7.613541 8.175556,7.613541 0,0 5.151751,4.784155 5.151751,4.784155 0,0 3.551767,3.296196 3.551767,3.296196 0,0 0.767998,0.706959 0.767998,0.706959 0,0 0.351874,0.331842 0.351874,0.331842 0,0 0.399986,0.370015 0.399986,0.370015 0,0 0.207874,0.208629 0.207874,0.208629 0,0 -0.601737,0.752049 -0.601737,0.752049 0,0 -1.057699,1.248036 -1.057699,1.248036 0,0 -0.53227,0.592024 -0.53227,0.592024 0,0 -0.208252,0.207874 -0.208252,0.207874 0,0 -0.799973,-0.79986 -0.799973,-0.79986 0,0 -0.192,-0.176126 -0.192,-0.176126 0,0 -0.81596,-0.815885 -0.81596,-0.815885 0,0 -0.176126,-0.160252 -0.176126,-0.160252 0,0 -0.831948,-0.831683 -0.831948,-0.831683 0,0 -0.176126,-0.160252 -0.176126,-0.160252 0,0 -0.847935,-0.847746 -0.847935,-0.847746 0,0 -0.176126,-0.160252 -0.176126,-0.160252 0,0 -0.831948,-0.831721 -0.831948,-0.831721 0,0 -0.176125,-0.160252 -0.176125,-0.160252 0,0 -0.863923,-0.863242 -0.863923,-0.863242 0,0 -0.159874,-0.144756 -0.159874,-0.144756 0,0 -0.831986,-0.831721 -0.831986,-0.831721 0,0 -0.176125,-0.160252 -0.176125,-0.160252 0,0 -0.832024,-0.831721 -0.832024,-0.831721 0,0 -0.159874,-0.144756 -0.159874,-0.144756 0,0 -0.86396,-0.86328 -0.86396,-0.86328 0,0 -0.176126,-0.160252 -0.176126,-0.160252 0,0 -0.83191,-0.831721 -0.83191,-0.831721 0,0 -0.176126,-0.160252 -0.176126,-0.160252 0,0 -0.847935,-0.847708 -0.847935,-0.847708 0,0 -0.176126,-0.160252 -0.176126,-0.160252 0,0 -0.831948,-0.831721 -0.831948,-0.831721 0,0 -0.176126,-0.160252 -0.176126,-0.160252 0,0 -0.83191,-0.831646 -0.83191,-0.831646 0,0 -0.176126,-0.160251 -0.176126,-0.160251 0,0 -0.847973,-0.847747 -0.847973,-0.847747 0,0 -0.176125,-0.160252 -0.176125,-0.160252 0,0 -0.831986,-0.831721 -0.831986,-0.831721 0,0 -0.176126,-0.160251 -0.176126,-0.160251 0,0 -0.863961,-0.863243 -0.863961,-0.863243 0,0 -0.159873,-0.144756 -0.159873,-0.144756 0,0 -0.831911,-0.831721 -0.831911,-0.831721 0,0 -0.159873,-0.144755 -0.159873,-0.144755 0,0 -0.831986,-0.831382 -0.831986,-0.831382 0,0 -0.192,-0.176503 -0.192,-0.176503 0,0 -0.287999,-0.287244 -0.287999,-0.287244 0,0 -0.575961,-0.575432 -0.575961,-0.575432 0,0 -0.176126,-0.160629 -0.176126,-0.160629 0,0 -0.831948,-0.831419 -0.831948,-0.831419 0,0 -0.159874,-0.144756 -0.159874,-0.144756 0,0 -1.839908,-1.82377 -1.839908,-1.82377 0,0 -0.176126,-0.160251 -0.176126,-0.160251 0,0 -0.86396,-0.863696 -0.86396,-0.863696 0,0 -0.24,-0.224126 -0.24,-0.224126 0,0 -0.767923,-0.767847 -0.767923,-0.767847 0,0 -0.159874,-0.144756 -0.159874,-0.144756 0,0 -0.416011,-0.415332 -0.416011,-0.415332 0,0 -0.368126,-0.368125 -0.368126,-0.368125 0,0 -0.176125,-0.145133 -0.176125,-0.145133 0,0 -0.207874,0.04913 -0.207874,0.04913 0,0 -0.495949,0.159874 -0.495949,0.159874 0,0 -1.19996,0.394771 -1.19996,0.394771 0,0 -0.671923,0.213165 -0.671923,0.213165 0.09789,0.136441 0.523766,0.514922 0.671923,0.656729 0,0 1.471935,1.391998 1.471935,1.391998 0,0 2.559831,2.41689 2.559831,2.41689 0,0 0.464012,0.445189 0.464012,0.445189 0,0 1.759896,1.650971 1.759896,1.650971 0,0 0.735986,0.701138 0.735986,0.701138 0,0 2.303844,2.162944 2.303844,2.162944 0,0 0.719961,0.685152 0.719961,0.685152 0,0 8.431468,7.923311 8.431468,7.923311 0,0 1.759933,1.661175 1.759933,1.661175 0,0 3.279831,3.075018 3.279831,3.075018 0,0 0.671961,0.637151 0.671961,0.637151 0,0 1.311909,1.232842 1.311909,1.232842 0.137952,0.131905 0.46352,0.409965 0.559974,0.544705 -0.667993,0.66803 -1.361988,1.309981 -2.07987,1.924418 0,0 -0.527962,0.444963 -0.527962,0.444963 -0.04195,0.03402 -0.156094,0.144378 -0.207873,0.140976 -0.04687,-0.0032 -0.11074,-0.07748 -0.144,-0.109984 0,0 -0.335999,-0.320125 -0.335999,-0.320125 0,0 -0.943936,-0.943935 -0.943936,-0.943935 0,0 -0.303873,-0.288 -0.303873,-0.288 0,0 -0.975986,-0.975872 -0.975986,-0.975872 0,0 -0.191999,-0.176126 -0.191999,-0.176126 0,0 -1.103923,-1.103847 -1.103923,-1.103847 0,0 -0.176125,-0.160251 -0.176125,-0.160251 0,0 -1.119948,-1.119305 -1.119948,-1.119305 0,0 -0.144,-0.12926 -0.144,-0.12926 0,0 -0.831948,-0.831343 -0.831948,-0.831343 0,0 -0.320125,-0.317102 -0.320125,-0.317102 0,0 -1.279935,-1.266101 -1.279935,-1.266101 0,0 -0.143999,-0.12926 -0.143999,-0.12926 0,0 -1.103885,-1.103431 -1.103885,-1.103431 0,0 -0.192,-0.176126 -0.192,-0.176126 0,0 -1.10396,-1.103733 -1.10396,-1.103733 0,0 -0.176125,-0.160252 -0.176125,-0.160252 0,0 -1.11991,-1.119758 -1.11991,-1.119758 0,0 -0.176126,-0.160252 -0.176126,-0.160252 0,0 -1.087935,-1.087859 -1.087935,-1.087859 0,0 -0.191999,-0.176126 -0.191999,-0.176126 0,0 -1.087898,-1.087935 -1.087898,-1.087935 0,0 -0.191999,-0.176126 -0.191999,-0.176126 0,0 -1.10396,-1.103733 -1.10396,-1.103733 0,0 -0.176126,-0.160252 -0.176126,-0.160252 0,0 -1.119872,-1.11972 -1.119872,-1.11972 0,0 -0.176126,-0.160252 -0.176126,-0.160252 0,0 -1.10396,-1.103733 -1.10396,-1.103733 0,0 -0.191999,-0.176126 -0.191999,-0.176126 0,0 -1.103923,-1.103922 -1.103923,-1.103922 0,0 -0.176125,-0.160252 -0.176125,-0.160252 0,0 -1.07191,-1.07191 -1.07191,-1.07191 0,0 -0.192,-0.176126 -0.192,-0.176126 0,0 -0.735948,-0.735834 -0.735948,-0.735834 0,0 -0.383961,-0.383395 -0.383961,-0.383395 0,0 -0.176126,-0.16063 -0.176126,-0.16063 0,0 -1.119948,-1.119872 -1.119948,-1.119872 0,0 -0.176125,-0.160251 -0.176125,-0.160251 0,0 -1.087935,-1.087897 -1.087935,-1.087897 0,0 -0.192,-0.176126 -0.192,-0.176126 0,0 -0.751936,-0.75186 -0.751936,-0.75186 0,0 -1.087972,-1.071985 -1.087972,-1.071985 0,0 -0.303874,-0.303874 -0.303874,-0.303874 -0.03402,-0.03402 -0.09827,-0.105826 -0.143999,-0.119433 -0.04951,-0.01512 -0.142866,0.02646 -0.192,0.04347 0,0 -0.464012,0.150425 -0.464012,0.150425 0,0 -1.231935,0.40558 -1.231935,0.40558 0,0 -0.495986,0.159496 -0.495986,0.159496 0,0 0.207874,0.192755 0.207874,0.192755 0,0 0.751973,0.720037 0.751973,0.720037 0,0 1.327972,1.278801 1.327972,1.278801 0,0 0.831911,0.785308 0.831911,0.785308 0,0 4.063778,3.886897 4.063778,3.886897 0,0 1.839908,1.745383 1.839908,1.745383 0,0 5.327688,5.086932 5.327688,5.086932 0,0 1.83987,1.74542 1.83987,1.74542 0,0 2.703869,2.576877 2.703869,2.576877 0,0 0.895936,0.861202 0.895936,0.861202 0,0 2.015883,1.920865 2.015883,1.920865 0,0 2.495844,2.369382 2.495844,2.369382 0,0 0.991973,0.944842 0.991973,0.944842 0,0 0.224125,0.221102 0.224125,0.221102 0,0 1.327935,1.264817 1.327935,1.264817 0,0 0.575961,0.544742 0.575961,0.544742 0,0 0.239999,0.224503 0.239999,0.224503 0,0 0.224126,0.220724 0.224126,0.220724 0.05367,0.04838 0.216944,0.186709 0.244157,0.242646 0.03779,0.07446 -0.08202,0.133039 -0.132283,0.170078 0,0 -0.543949,0.401272 -0.543949,0.401272 -0.623961,0.444849 -1.254158,0.884672 -1.903933,1.291424 0,0 -0.447949,0.281952 -0.447949,0.281952 -0.04384,0.02646 -0.14022,0.101291 -0.192,0.08806 -0.0378,-0.0076 -0.09713,-0.07332 -0.128125,-0.100535 0,0 -0.336,-0.324661 -0.336,-0.324661 0,0 -1.119909,-1.120099 -1.119909,-1.120099 0,0 -0.368126,-0.367369 -0.368126,-0.367369 0,0 -0.207873,-0.192756 -0.207873,-0.192756 0,0 -1.631922,-1.631996 -1.631922,-1.631996 0,0 -0.191999,-0.176126 -0.191999,-0.176126 0,0 -1.183935,-1.184086 -1.183935,-1.184086 0,0 -0.511936,-0.511369 -0.511936,-0.511369 0,0 -0.144,-0.12926 -0.144,-0.12926 0,0 -0.495986,-0.495382 -0.495986,-0.495382 0,0 -1.183935,-1.184048 -1.183935,-1.184048 0,0 -0.192,-0.176125 -0.192,-0.176125 0,0 -1.679883,-1.679884 -1.679883,-1.679884 0,0 -0.207874,-0.192 -0.207874,-0.192 0,0 -1.663896,-1.663933 -1.663896,-1.663933 0,0 -0.176126,-0.160252 -0.176126,-0.160252 0,0 -1.663896,-1.663934 -1.663896,-1.663934 0,0 -0.191999,-0.176126 -0.191999,-0.176126 0,0 -1.679922,-1.679959 -1.679922,-1.679959 0,0 -0.207873,-0.191999 -0.207873,-0.191999 0,0 -1.663896,-1.664085 -1.663896,-1.664085 0,0 -0.192,-0.176126 -0.192,-0.176126 0,0 -1.663896,-1.663896 -1.663896,-1.663896 0,0 -0.192,-0.176126 -0.192,-0.176126 0,0 -1.631921,-1.631921 -1.631921,-1.631921 0,0 -0.224126,-0.208252 -0.224126,-0.208252 0,0 -0.87991,-0.879872 -0.87991,-0.879872 0,0 -0.831986,-0.83191 -0.831986,-0.83191 0,0 -0.224125,-0.208252 -0.224125,-0.208252 0,0 -1.631922,-1.631921 -1.631922,-1.631921 0,0 -0.191999,-0.176126 -0.191999,-0.176126 0,0 -1.679884,-1.679883 -1.679884,-1.679883 0,0 -0.191999,-0.176126 -0.191999,-0.176126 0,0 -1.311948,-1.312098 -1.311948,-1.312098 0,0 -0.368125,-0.36737 -0.368125,-0.36737 -0.03402,-0.03402 -0.15307,-0.14211 -0.192,-0.15496 -0.04535,-0.01512 -0.130393,0.02268 -0.176125,0.03779 0,0 -0.383999,0.126614 -0.383999,0.126614 0,0 -0.735949,0.241511 -0.735949,0.241511 0,0 -0.847935,0.277417 -0.847935,0.277417 0,0 1.695871,1.64874 1.695871,1.64874 0,0 0.287999,0.286866 0.287999,0.286866 0,0 1.423972,1.361345 1.423972,1.361345 0,0 0.288,0.286866 0.288,0.286866 0,0 0.591948,0.561297 0.591948,0.561297 0,0 0.303874,0.302739 0.303874,0.302739 0,0 3.727779,3.58548 3.727779,3.58548 0,0 0.320125,0.318614 0.320125,0.318614 0,0 1.519934,1.457383 1.519934,1.457383 0,0 0.320126,0.318613 0.320126,0.318613 0,0 7.951544,7.665662 7.951544,7.665662 0,0 0.320125,0.318613 0.320125,0.318613 0,0 1.535922,1.473333 1.535922,1.473333 0,0 0.320125,0.318613 0.320125,0.318613 0,0 2.943831,2.833394 2.943831,2.833394 0,0 0.783948,0.766751 0.783948,0.766751 0,0 1.071947,1.025346 1.071947,1.025346 0,0 0.320126,0.318614 0.320126,0.318614 0,0 0.911923,0.880703 0.911923,0.880703 0,0 0.176125,0.16063 0.176125,0.16063 0,0 0.783948,0.766751 0.783948,0.766751 0,0 0.767999,0.736629 0.767999,0.736629 0,0 0.463974,0.448062 0.463974,0.448062 0.07408,0.07408 0.162519,0.144378 0.207873,0.24 0,0 -0.431999,0.235086 -0.431999,0.235086 0,0 -0.735948,0.392503 -0.735948,0.392503 0,0 -1.535921,0.75269 -1.535921,0.75269 0,0 -0.703936,0.31975 -0.703936,0.31975 -0.05745,0.0265 -0.249449,0.12321 -0.303874,0.11112 -0.04951,-0.0113 -0.123212,-0.0941 -0.159873,-0.13115 0,0 -0.320126,-0.32013 -0.320126,-0.32013 0,0 -1.183972,-1.168059 -1.183972,-1.168059 0,0 -4.415765,-4.400231 -4.415765,-4.400231 0,0 -0.320126,-0.303873 -0.320126,-0.303873 0,0 -2.479819,-2.480159 -2.479819,-2.480159 0,0 -0.207873,-0.192 -0.207873,-0.192 0,0 -2.463832,-2.464172 -2.463832,-2.464172 0,0 -0.192,-0.176125 -0.192,-0.176125 0,0 -2.447844,-2.447958 -2.447844,-2.447958 0,0 -0.239999,-0.224126 -0.239999,-0.224126 0,0 -2.479895,-2.480121 -2.479895,-2.480121 0,0 -0.207874,-0.192 -0.207874,-0.192 0,0 -2.463831,-2.464171 -2.463831,-2.464171 0,0 -0.207874,-0.192 -0.207874,-0.192 0,0 -0.591948,-0.591873 -0.591948,-0.591873 0,0 -1.279897,-1.280086 -1.279897,-1.280086 0,0 -0.655974,-0.655331 -0.655974,-0.655331 0,0 -0.143999,-0.129259 -0.143999,-0.129259 0,0 -0.623961,-0.623395 -0.623961,-0.623395 0,0 -1.199923,-1.200073 -1.199923,-1.200073 0,0 -0.687986,-0.687835 -0.687986,-0.687835 0,0 -0.191999,-0.176125 -0.191999,-0.176125 0,0 -1.887909,-1.88806 -1.887909,-1.88806 0,0 -1.311909,-1.296073 -1.311909,-1.296073 0,0 -0.383961,-0.383999 -0.383961,-0.383999 -0.03024,-0.03024 -0.131528,-0.139843 -0.166677,-0.152693 -0.03855,-0.01512 -0.11452,0.0189 -0.153071,0.03024 0,0 -0.351873,0.117165 -0.351873,0.117165 0,0 -0.847973,0.272126 -0.847973,0.272126 0,0 -0.543987,0.165165 -0.543987,0.165165 0,0 1.24796,1.247884 1.24796,1.247884 0,0 0.159874,0.144756 0.159874,0.144756 0,0 0.607973,0.606726 0.607973,0.606726 0,0 2.079833,2.00137 2.079833,2.00137 0,0 0.399986,0.398739 0.399986,0.398739 0,0 0.144,0.12926 0.144,0.12926 0,0 0.399987,0.398701 0.399987,0.398701 0,0 0.159873,0.144756 0.159873,0.144756 0,0 0.432,0.431205 0.432,0.431205 0,0 0.159873,0.144756 0.159873,0.144756 0,0 0.447987,0.447231 0.447987,0.447231 0,0 0.144,0.129259 0.144,0.129259 0,0 0.447948,0.446702 0.447948,0.446702 0,0 0.159874,0.144755 0.159874,0.144755 0,0 0.448025,0.447193 0.448025,0.447193 0,0 0.159873,0.144756 0.159873,0.144756 0,0 0.479999,0.479243 0.479999,0.479243 0,0 0.159874,0.144756 0.159874,0.144756 0,0 0.463974,0.463218 0.463974,0.463218 0,0 0.159874,0.144755 0.159874,0.144755 0,0 0.479961,0.479244 0.479961,0.479244 0,0 0.159874,0.144755 0.159874,0.144755 0,0 0.495948,0.495722 0.495948,0.495722 0,0 0.176126,0.160252 0.176126,0.160252 0,0 0.495987,0.495722 0.495987,0.495722 0,0 0.159873,0.144755 0.159873,0.144755 0,0 1.199922,1.182726 1.199922,1.182726 0,0 0.159874,0.144755 0.159874,0.144755 0,0 0.527961,0.527206 0.527961,0.527206 0,0 0.159874,0.144755 0.159874,0.144755 0,0 0.511974,0.511256 0.511974,0.511256 0,0 0.159874,0.144756 0.159874,0.144756 0,0 0.512011,0.511293 0.512011,0.511293 0,0 0.159874,0.144756 0.159874,0.144756 0,0 0.511974,0.51118 0.511974,0.51118 0,0 0.159874,0.144756 0.159874,0.144756 0,0 0.527961,0.527659 0.527961,0.527659 0,0 0.176125,0.160251 0.176125,0.160251 0,0 0.559936,0.559218 0.559936,0.559218 0,0 0.159874,0.144756 0.159874,0.144756 0,0 0.543949,0.543268 0.543949,0.543268 0,0 0.159873,0.144756 0.159873,0.144756 0,0 0.544025,0.543684 0.544025,0.543684 0,0 0.159873,0.144755 0.159873,0.144755 0,0 0.543987,0.543193 0.543987,0.543193 0,0 0.176125,0.160252 0.176125,0.160252 0,0 0.543949,0.543684 0.543949,0.543684 0,0 0.159874,0.144755 0.159874,0.144755 0,0 0.543948,0.543231 0.543948,0.543231 0,0 0.159874,0.144755 0.159874,0.144755 0,0 0.575961,0.57479 0.575961,0.57479 0,0 0.159874,0.144755 0.159874,0.144755 0,0 0.575923,0.575243 0.575923,0.575243 0,0 0.159874,0.144756 0.159874,0.144756 0,0 0.560011,0.559709 0.560011,0.559709 0,0 0.159874,0.144756 0.159874,0.144756 0,0 0.591986,0.591193 0.591986,0.591193 0,0 0.176126,0.160251 0.176126,0.160251 0,0 0.575999,0.575205 0.575999,0.575205 0,0 0.159874,0.144756 0.159874,0.144756 0,0 0.575961,0.575659 0.575961,0.575659 0,0 0.176125,0.160252 0.176125,0.160252 0,0 0.575962,0.575205 0.575962,0.575205 0,0 0.159873,0.144755 0.159873,0.144755 0,0 0.591987,0.591269 0.591987,0.591269 0,0 0.159873,0.144755 0.159873,0.144755 0,0 0.559974,0.559747 0.559974,0.559747 0,0 0.159874,0.144757 0.159874,0.144757 0,0 0.303873,0.303494 0.303873,0.303494 0,0 0.303874,0.303496 0.303874,0.303496 0,0 0.159873,0.144755 0.159873,0.144755 0,0 0.575999,0.575243 0.575999,0.575243 0,0 0.159874,0.144756 0.159874,0.144756 0,0 0.575999,0.575657 0.575999,0.575657 0,0 0.159874,0.14476 0.159874,0.14476 0,0 0.368125,0.36737 0.368125,0.36737 0.08088,0.0809 0.20863,0.18746 0.255874,0.288 0,0 -0.464012,0.16932 -0.464012,0.16932 0,0 -0.671961,0.24605 -0.671961,0.24605 -0.665989,0.2434 -1.35012,0.46367 -2.03187,0.65903 0,0 -0.799974,0.22866 -0.799974,0.22866 -0.0669,0.0189 -0.260787,0.082 -0.320125,0.0631 -0.05291,-0.0151 -0.134551,-0.10847 -0.176126,-0.14967 0,0 -0.320125,-0.32012 -0.320125,-0.32012 0,0 -1.183897,-1.18405 -1.183897,-1.18405 0,0 -3.087831,-3.088133 -3.087831,-3.088133 0,0 -0.191999,-0.176125 -0.191999,-0.176125 0,0 -0.975948,-0.975836 -0.975948,-0.975836 0,0 -15.231165,-15.200814 -15.231165,-15.200814 0,0 -0.735948,-0.735873 -0.735948,-0.735873 0,0 -0.207874,-0.192 -0.207874,-0.192 0,0 -4.639739,-4.64023 -4.639739,-4.64023 0,0 -1.567934,-1.552062 -1.567934,-1.552062 0,0 -0.431962,-0.432037 -0.431962,-0.432037 -0.04195,-0.04195 -0.159496,-0.170078 -0.207873,-0.18633 -0.04195,-0.01512 -0.103559,0.01134 -0.144,0.02646 0,0 -0.303874,0.096 -0.303874,0.096 0,0 -1.167909,0.368124 -1.167909,0.368124 0,0 1.087897,1.087897 1.087897,1.087897 0,0 0.207874,0.192001 0.207874,0.192001 0,0 1.439959,1.439958 1.439959,1.439958 0,0 0.159874,0.144756 0.159874,0.144756 0,0 0.495986,0.494701 0.495986,0.494701 0,0 1.055885,1.009359 1.055885,1.009359 0,0 0.431999,0.430677 0.431999,0.430677 0,0 0.159874,0.144756 0.159874,0.144756 0,0 0.543986,0.543722 0.543986,0.543722 0,0 0.176126,0.16025 0.176126,0.16025 0,0 0.575961,0.575773 0.575961,0.575773 0,0 0.176126,0.160252 0.176126,0.160252 0,0 0.703973,0.703747 0.703973,0.703747 0,0 0.176126,0.160252 0.176126,0.160252 0,0 0.767923,0.767734 0.767923,0.767734 0,0 0.176125,0.160251 0.176125,0.160251 0,0 0.911961,0.911243 0.911961,0.911243 0,0 0.159874,0.144755 0.159874,0.144755 0,0 0.975985,0.975759 0.975985,0.975759 0,0 0.176126,0.160252 0.176126,0.160252 0,0 1.087935,1.087708 1.087935,1.087708 0,0 0.176125,0.160252 0.176125,0.160252 0,0 1.151923,1.151884 1.151923,1.151884 0,0 0.191999,0.176126 0.191999,0.176126 0,0 1.263948,1.263871 1.263948,1.263871 0,0 0.191999,0.176125 0.191999,0.176125 0,0 1.359872,1.359684 1.359872,1.359684 0,0 0.176125,0.160251 0.176125,0.160251 0,0 1.551909,1.551758 1.551909,1.551758 0,0 0.176126,0.160252 0.176126,0.160252 0,0 1.599871,1.599757 1.599871,1.599757 0,0 0.176126,0.160252 0.176126,0.160252 0,0 1.583921,1.583921 1.583921,1.583921 0,0 0.24,0.224126 0.24,0.224126 0,0 1.74387,1.743946 1.74387,1.743946 0,0 0.192,0.176125 0.192,0.176125 0,0 1.34396,1.344073 1.34396,1.344073 0,0 0.575961,0.575357 0.575961,0.575357 0,0 0.144,0.129259 0.144,0.129259 0,0 1.327896,1.327443 1.327896,1.327443 0,0 0.639949,0.63859 0.639949,0.63859 0,0 1.039973,1.02553 1.039973,1.02553 0,0 0.575998,0.59199 0.575998,0.59199 0,0 -1.263947,0.2623 -1.263947,0.2623 -0.791961,0.14853 -1.585206,0.27704 -2.383857,0.38226 0,0 -0.927948,0.11187 -0.927948,0.11187 0,0 -0.303873,0.0302 -0.303873,0.0302 -0.04157,0.002 -0.08731,0.0151 -0.128126,0 -0.05367,-0.0151 -0.133795,-0.1062 -0.176125,-0.14853 0,0 -0.320126,-0.32013 -0.320126,-0.32013 0,0 -1.199922,-1.20007 -1.199922,-1.20007 0,0 -2.719819,-2.720159 -2.719819,-2.720159 0,0 -1.375783,-1.376048 -1.375783,-1.376048 0,0 -0.160251,-0.176125 -0.160251,-0.176125 0,0 -1.79172,-1.792135 -1.79172,-1.792135 0,0 -3.551804,-3.552145 -3.551804,-3.552145 0,0 -5.519688,-5.520254 -5.519688,-5.520254 0,0 -0.207873,-0.224126 -0.207873,-0.224126 0,0 -3.519754,-3.520207 -3.519754,-3.520207 0,0 -5.567725,-5.568255 -5.567725,-5.568255 0,0 -1.519897,-1.520047 -1.519897,-1.520047 0,0 -0.401423,-0.41605 -0.401423,-0.41605 -0.03817,-0.0412 -0.140976,-0.152692 -0.190487,-0.167432 -0.05367,-0.01512 -0.314457,0.07597 -0.384,0.09676 0,0 -0.687986,0.205228 -0.687986,0.205228 0,0 -0.303873,0.0892 -0.303873,0.0892 0,0 1.871921,1.87211 1.871921,1.87211 0,0 0.943935,0.943859 0.943935,0.943859 0,0 0.192,0.176126 0.192,0.176126 0,0 1.039897,1.03986 1.039897,1.03986 0,0 0.159873,0.144755 0.159873,0.144755 0,0 0.559974,0.55918 0.559974,0.55918 0,0 0.159874,0.144756 0.159874,0.144756 0,0 0.320125,0.318613 0.320125,0.318613 0,0 0.623961,0.59331 0.623961,0.59331 0,0 0.479962,0.479394 0.479962,0.479394 0,0 0.191999,0.176126 0.191999,0.176126 0,0 0.751974,0.751746 0.751974,0.751746 0,0 0.191999,0.176126 0.191999,0.176126 0,0 1.455947,1.456136 1.455947,1.456136 0,0 0.192,0.176125 0.192,0.176125 0,0 1.055922,1.055923 1.055922,1.055923 0,0 2.191933,2.19216 2.191933,2.19216 0,0 0.255874,0.239999 0.255874,0.239999 0,0 1.983908,1.984059 1.983908,1.984059 0,0 1.167796,1.168137 1.167796,1.168137 0,0 0.176126,0.191999 0.176126,0.191999 0,0 3.151818,3.152158 3.151818,3.152158 0,0 2.383856,2.384122 2.383856,2.384122 0,0 0.207874,0.224125 0.207874,0.224125 0,0 3.071805,3.072111 3.071805,3.072111 0,0 0.24,0.25587 0.24,0.25587 0,0 1.983908,1.98406 1.983908,1.98406 0,0 0.770682,0.78406 0.770682,0.78406 0,0 0.253228,0.27213 0.253228,0.27213 0,0 -0.447911,0.0151 -0.447911,0.0151 0,0 -0.255874,0.0151 -0.255874,0.0151 0,0 -0.239999,0 -0.239999,0 0,0 -0.176126,0.0151 -0.176126,0.0151 0,0 -0.351873,0 -0.351873,0 0,0 -0.272126,0.0151 -0.272126,0.0151 0,0 -1.279934,0 -1.279934,0 0,0 -0.24,-0.0151 -0.24,-0.0151 0,0 -0.368125,0 -0.368125,0 0,0 -0.24,-0.0151 -0.24,-0.0151 0,0 -0.239999,0 -0.239999,0 0,0 -0.192,-0.0151 -0.192,-0.0151 0,0 -0.368125,-0.0151 -0.368125,-0.0151 0,0 -0.192,-0.0151 -0.192,-0.0151 0,0 -0.479961,-0.0302 -0.479961,-0.0302 0,0 -0.431999,-0.034 -0.431999,-0.034 0,0 -0.255874,-0.034 -0.255874,-0.034 0,0 -0.159874,-0.14363 -0.159874,-0.14363 0,0 -0.287999,-0.28799 -0.287999,-0.28799 0,0 -0.959923,-0.96004 -0.959923,-0.96004 0,0 -0.943821,-0.94409 -0.943821,-0.94409 0,0 -0.176126,-0.192 -0.176126,-0.192 0,0 -2.095895,-2.09608 -2.095895,-2.09608 0,0 -1.823884,-1.824072 -1.823884,-1.824072 0,0 -0.207873,-0.224126 -0.207873,-0.224126 0,0 -3.919779,-3.920194 -3.919779,-3.920194 0,0 -0.176125,-0.192 -0.176125,-0.192 0,0 -1.023797,-1.024023 -1.023797,-1.024023 0,0 -2.047857,-2.048122 -2.047857,-2.048122 0,0 -0.895785,-0.896011 -0.895785,-0.896011 0,0 -0.176125,-0.192 -0.176125,-0.192 0,0 -3.455805,-3.456182 -3.455805,-3.456182 0,0 -0.511331,-0.51205 -0.511331,-0.51205 0,0 -0.16063,-0.176126 -0.16063,-0.176126 0,0 -3.647804,-3.64822 -3.647804,-3.64822 0,0 -0.319369,-0.320125 -0.319369,-0.320125 0,0 -0.144756,-0.159874 -0.144756,-0.159874 0,0 -1.151809,-1.152073 -1.151809,-1.152073 0,0 -1.583921,-1.584035 -1.583921,-1.584035 0,0 -0.415974,-0.416012 -0.415974,-0.416012 0,0 -0.192,-0.161763 -0.192,-0.161763 0,0 -0.335999,0.07937 -0.335999,0.07937 0,0 -0.815961,0.226393 -0.815961,0.226393 0,0 0.255873,0.255874 0.255873,0.255874 0,0 0.527962,0.527999 0.527962,0.527999 0,0 1.439884,1.439392 1.439884,1.439392 0,0 0.143999,0.12926 0.143999,0.12926 0,0 1.231973,1.231405 1.231973,1.231405 0,0 0.191999,0.176126 0.191999,0.176126 0,0 0.959923,0.959885 0.959923,0.959885 0,0 0.192,0.176125 0.192,0.176125 0,0 0.655935,0.655747 0.655935,0.655747 0,0 0.159874,0.144756 0.159874,0.144756 0,0 0.479999,0.479243 0.479999,0.479243 0,0 0.159874,0.144756 0.159874,0.144756 0,0 0.335999,0.334865 0.335999,0.334865 0,0 2.975806,2.928826 2.975806,2.928826 0,0 2.22387,2.224097 2.22387,2.224097 0,0 1.119796,1.120061 1.119796,1.120061 0,0 0.176126,0.191999 0.176126,0.191999 0,0 1.551946,1.552061 1.551946,1.552061 0,0 0.176126,0.191999 0.176126,0.191999 0,0 1.247733,1.248036 1.247733,1.248036 0,0 0.176126,0.191999 0.176126,0.191999 0,0 1.071607,1.072099 1.071607,1.072099 0,0 0.160252,0.176126 0.160252,0.176126 0,0 0.975796,0.976061 0.975796,0.976061 0,0 0.176126,0.192 0.176126,0.192 0,0 0.943104,0.94401 0.943104,0.94401 0,0 0.129259,0.144 0.129259,0.144 0,0 0.751331,0.752049 0.751331,0.752049 0,0 0.288,0.303874 0.288,0.303874 0,0 0.847784,0.848011 0.847784,0.848011 0,0 0.160252,0.176125 0.160252,0.176125 0,0 0.767809,0.768039 0.767809,0.768039 0,0 0.176126,0.192 0.176126,0.192 0,0 0.735835,0.73602 0.735835,0.73602 0,0 0.303873,0.32013 0.303873,0.32013 0,0 1.31191,1.32804 1.31191,1.32804 0,0 0.448024,0.46405 0.448024,0.46405 0,0 0.335999,0.35188 0.335999,0.35188 0,0 -1.215947,-0.17462 -1.215947,-0.17462 -0.723778,-0.11981 -1.443323,-0.25323 -2.159883,-0.41057 -2.678584,-0.58832 -5.300815,-1.43315 -7.807544,-2.5486 -0.74158,-0.32995 -1.4708,-0.681941 -2.191895,-1.054148 0,0 -0.703936,-0.370015 -0.703936,-0.370015 0,0 -0.95996,-0.536957 -0.95996,-0.536957 -0.08239,-0.048 -0.377952,-0.232818 -0.447949,-0.244535 -0.04838,-0.0076 -0.273637,0.02646 -0.335999,0.03779 0,0 -0.607974,0.08428 -0.607974,0.08428 0,0 -1.183935,0.157984 -1.183935,0.157984 0,0 -1.007922,0.128125 -1.007922,0.128125 0,0 -1.551947,0.182929 -1.551947,0.182929 0,0 -2.399844,0.266834 -2.399844,0.266834 0,0 -2.687844,0.255874 -2.687844,0.255874 0,0 -0.495949,0.0378 -0.495949,0.0378 0,0 -1.599946,0.126614 -1.599946,0.126614 0,0 -0.303874,0.03024 -0.303874,0.03024 0,0 -0.815961,0.05102 -0.815961,0.05102 0,0 -0.383961,0.03024 -0.383961,0.03024 0,0 -0.463936,0.03024 -0.463936,0.03024 0,0 -0.400025,0.0189 -0.400025,0.0189 0,0 -0.159873,0.01512 -0.159873,0.01512 0,0 -0.368126,0.01512 -0.368126,0.01512 0,0 -0.224125,0.01512 -0.224125,0.01512 0,0 -0.303874,0.01512 -0.303874,0.01512 0,0 -0.287999,0.01512 -0.287999,0.01512 0,0 -0.288,0.01512 -0.288,0.01512 0,0 -0.463936,0.01512 -0.463936,0.01512 0,0 -0.159873,0.01512 -0.159873,0.01512 0,0 -0.207874,0 -0.207874,0 0,0 -0.24,0.01512 -0.24,0.01512 0,0 -0.368125,0.01512 -0.368125,0.01512 0,0 -0.224126,0 -0.224126,0 0,0 -0.176125,0.01512 -0.176125,0.01512 0,0 -0.224126,0 -0.224126,0 0,0 -0.207873,0.01512 -0.207873,0.01512 0,0 -0.255874,0 -0.255874,0 0,0 -0.255873,0.01512 -0.255873,0.01512 0,0 -0.303874,0 -0.303874,0 0,0 -0.255873,0.01512 -0.255873,0.01512 0,0 -0.399987,0 -0.399987,0 0,0 -0.24,0.01512 -0.24,0.01512 0,0 -0.543948,0 -0.543948,0 0,0 -0.272126,0.01512 -0.272126,0.01512 0,0 -1.19996,0 -1.19996,0 0,0 -0.239999,0.01512 -0.239999,0.01512 0,0 -1.11991,0 -1.11991,0 0,0 -0.239999,-0.01512 -0.239999,-0.01512 0,0 -1.135935,0 -1.135935,0 0,0 -0.24,-0.01512 -0.24,-0.01512 0,0 -0.511974,0 -0.511974,0 0,0 -0.239999,-0.01512 -0.239999,-0.01512 0,0 -0.368126,0 -0.368126,0 0,0 -0.239999,-0.01512 -0.239999,-0.01512 0,0 -0.303874,0 -0.303874,0 0,0 -0.255873,-0.01512 -0.255873,-0.01512 0,0 -0.224126,0 -0.224126,0 0,0 -0.255873,-0.01512 -0.255873,-0.01512 0,0 -0.543949,-0.01512 -0.543949,-0.01512 0,0 -0.176125,-0.01512 -0.176125,-0.01512 0,0 -0.224126,0 -0.224126,0 0,0 -0.207874,-0.01512 -0.207874,-0.01512 -0.205228,-0.0024 -0.404938,-0.03024 -0.607936,-0.05972 -1.432287,-0.210897 -2.762111,-1.087897 -3.535023,-2.308418 -0.522556,-0.825145 -0.796118,-1.792097 -0.784742,-2.768121 0,0 0.01512,-0.176125 0.01512,-0.176125 0.0926,-2.125187 1.567594,-3.958746 3.600409,-4.564754 0.318992,-0.09487 0.854852,-0.20296 1.183973,-0.205228 0,0 0.159874,0 0.159874,0 0,0 0.159873,0 0.159873,0 0,0 0.144,0 0.144,0 0,0 0.847936,0.03402 0.847936,0.03402 0,0 0.239999,0.01512 0.239999,0.01512 0,0 0.192,0 0.192,0 0,0 0.159873,0.01512 0.159873,0.01512 0,0 0.207874,0 0.207874,0 0,0 0.224126,0.01512 0.224126,0.01512 0,0 0.255873,0 0.255873,0 0,0 0.255874,0.01512 0.255874,0.01512 0,0 0.351873,0 0.351873,0 0,0 0.255874,0.01512 0.255874,0.01512 0,0 0.527961,0 0.527961,0 0,0 0.272125,0.01512 0.272125,0.01512 0,0 3.023806,0 3.023806,0 0,0 0.239999,-0.01512 0.239999,-0.01512 0,0 0.607974,0 0.607974,0 0,0 0.272125,-0.01512 0.272125,-0.01512 0,0 0.384,0 0.384,0 0,0 0.239999,-0.01512 0.239999,-0.01512 0,0 0.303874,0 0.303874,0 0,0 0.239999,-0.01512 0.239999,-0.01512 0,0 0.24,0 0.24,0 0,0 0.255873,-0.01512 0.255873,-0.01512 0,0 0.24,0 0.24,0 0,0 0.192,-0.01512 0.192,-0.01512 0,0 0.207873,0 0.207873,0 0,0 0.192,-0.01512 0.192,-0.01512 0,0 0.831948,-0.03024 0.831948,-0.03024 0,0 0.239999,-0.01512 0.239999,-0.01512 0,0 0.687949,-0.03024 0.687949,-0.03024 0,0 0.224125,-0.01512 0.224125,-0.01512 0,0 0.607974,-0.03024 0.607974,-0.03024 0,0 0.399987,-0.03024 0.399987,-0.03024 0,0 0.143999,0 0.143999,0 0,0 0.368126,-0.03024 0.368126,-0.03024 0,0 1.263909,-0.08277 1.263909,-0.08277 0,0 1.02391,-0.08013 1.02391,-0.08013 0,0 0.95996,-0.08013 0.95996,-0.08013 0,0 0.432,-0.03024 0.432,-0.03024 0,0 -0.543987,-0.671998 -0.543987,-0.671998 -0.475652,-0.599697 -0.932559,-1.213037 -1.371437,-1.840098 -1.01945,-1.456703 -1.95284,-2.979811 -2.768158,-4.560218 -0.524447,-1.016351 -0.992465,-2.054018 -1.444079,-3.104196 0,0 -0.591949,0.138331 -0.591949,0.138331 0,0 -1.05596,0.243779 -1.05596,0.243779 -1.615594,0.383205 -3.245701,0.721964 -4.879701,1.016729 -1.127129,0.203338 -2.256223,0.383356 -3.391818,0.532799 0,0 -1.871883,0.19918 -1.871883,0.19918 0,0 -0.479999,0.04611 -0.479999,0.04611 0,0 -0.128126,0 -0.128126,0 0,0 -0.351873,0.03024 -0.351873,0.03024 0,0 -0.351873,0.01512 -0.351873,0.01512 0,0 -0.224126,0.01512 -0.224126,0.01512 0,0 -0.368125,0.01512 -0.368125,0.01512 0,0 -0.224126,0 -0.224126,0 0,0 -0.239999,0.01512 -0.239999,0.01512 0,0 -1.391922,0 -1.391922,0 0,0 -0.24,-0.01512 -0.24,-0.01512 0,0 -0.207873,0 -0.207873,0 0,0 -0.303874,-0.01512 -0.303874,-0.01512 0,0 -0.191999,-0.01512 -0.191999,-0.01512 0,0 -1.231935,-0.110362 -1.231935,-0.110362 C 8.4338588,81.157988 7.3671647,80.934241 6.3344485,80.575753 5.295156,80.214809 4.3547357,79.716025 3.4866177,79.038357 3.2435945,78.848248 3.0165209,78.639013 2.7986315,78.421086 1.8164475,77.438789 1.2019731,76.343862 0.73973775,75.044878 0.38408487,74.045649 0.11944285,72.93617 0.04536425,71.876733 c 0,0 -0.03023617,-0.480037 -0.03023617,-0.480037 0,0 -0.01511808,-0.255873 -0.01511808,-0.255873 0,0 0,-0.640024 0,-0.640024 0,0 0.01511808,-0.336 0.01511808,-0.336 0,0 0.01511808,-0.176124 0.01511808,-0.176124 0.03023617,-0.656958 0.15155878,-1.38992 0.29896007,-2.032061 0.64028857,-2.790193 2.19711087,-5.329388 4.05784437,-7.472376 2.2156683,-2.551781 5.0363245,-4.780527 7.8350974,-6.667037 2.153419,-1.451562 4.388325,-2.759503 6.671609,-3.994424 0,0 1.711859,-0.90304 1.711859,-0.90304 1.320262,-0.664856 2.640524,-1.328124 3.983765,-1.945093 0,0 1.695947,-0.781302 1.695947,-0.781302 0,0 1.919883,-0.848238 1.919883,-0.848238 0,0 0.607936,-0.263055 0.607936,-0.263055 0.0514,-0.02268 0.251338,-0.100913 0.281574,-0.127747 0.03402,-0.03024 0.141354,-0.238866 0.173102,-0.295181 0,0 0.377196,-0.656011 0.377196,-0.656011 0,0 0.431999,0.431999 0.431999,0.431999 0,0 0.960565,1.008074 0.960565,1.008074 0,0 2.015883,2.112071 2.015883,2.112071 0,0 0.992729,1.040049 0.992729,1.040049 0,0 0.557857,0.575961 0.557857,0.575961 0,0 0.817246,0.864074 0.817246,0.864074 0,0 0.926663,0.960036 0.926663,0.960036 0,0 4.897049,5.120267 4.897049,5.120267 0,0 0.25474,0.255874 0.25474,0.255874 0,0 0.913207,0.960074 0.913207,0.960074 0,0 0.270614,0.272125 0.270614,0.272125 0,0 2.161168,2.256071 2.161168,2.256071 0,0 0.318613,0.320126 0.318613,0.320126 0,0 0.561221,0.591986 0.561221,0.591986 0,0 0.348472,0.351874 0.348472,0.351874 0,0 0.402028,0.416049 0.402028,0.416049 0,0 0.129259,0.144 0.129259,0.144 0,0 0.318614,0.320125 0.318614,0.320125 0,0 0.176503,0.192 0.176503,0.192 0,0 0.272126,0.272125 0.272126,0.272125 0,0 0.130771,0.115654 0.130771,0.115654 0,0 0.173102,-0.03402 0.173102,-0.03402 0,0 0.351874,-0.116409 0.351874,-0.116409 0,0 0.911922,-0.294424 0.911922,-0.294424 0,0 0.543949,-0.165166 0.543949,-0.165166 -0.07559,-0.105449 -0.384642,-0.400629 -0.495986,-0.512048 0,0 -1.07191,-1.056036 -1.07191,-1.056036 0,0 -1.263947,-1.26391 -1.263947,-1.26391 0,0 -0.192,-0.176125 -0.192,-0.176125 0,0 -1.679884,-1.679884 -1.679884,-1.679884 0,0 -0.176125,-0.160252 -0.176125,-0.160252 0,0 -1.679922,-1.679771 -1.679922,-1.679771 0,0 -0.176125,-0.160251 -0.176125,-0.160251 0,0 -1.695909,-1.69572 -1.695909,-1.69572 0,0 -0.176125,-0.160252 -0.176125,-0.160252 0,0 -1.663934,-1.663933 -1.663934,-1.663933 0,0 -0.224126,-0.207874 -0.224126,-0.207874 0,0 -1.663858,-1.663934 -1.663858,-1.663934 0,0 -0.192,-0.176125 -0.192,-0.176125 0,0 -1.663934,-1.663933 -1.663934,-1.663933 0,0 -0.176125,-0.160252 -0.176125,-0.160252 0,0 -1.679884,-1.679884 -1.679884,-1.679884 0,0 -0.224125,-0.207873 -0.224125,-0.207873 0,0 -1.647947,-1.647909 -1.647947,-1.647909 0,0 -0.176126,-0.160252 -0.176126,-0.160252 0,0 -0.847935,-0.847859 -0.847935,-0.847859 0,0 -0.272126,-0.272126 -0.272126,-0.272126 -0.03402,-0.03402 -0.109984,-0.102426 -0.121322,-0.144 -0.01512,-0.05556 0.08428,-0.19011 0.116409,-0.239999 0,0 0.404938,-0.624037 0.404938,-0.624037 0.404598,-0.607105 0.820269,-1.208388 1.257976,-1.792097 0,0 0.399192,-0.528 0.399192,-0.528 0.0635,-0.08164 0.137575,-0.191621 0.214677,-0.255873 0,0 0.5105,0.544024 0.5105,0.544024 0,0 1.311909,1.392072 1.311909,1.392072 0,0 3.39469,3.600183 3.39469,3.600183 0,0 0.717089,0.752049 0.717089,0.752049 0,0 1.810768,1.92011 1.810768,1.92011 0,0 0.477126,0.496024 0.477126,0.496024 0,0 1.266745,1.343997 1.266745,1.343997 0,0 0.205228,0.207875 0.205228,0.207875 0,0 2.080701,2.192122 2.080701,2.192122 0,0 0.737233,0.784022 0.737233,0.784022 0,0 1.774599,1.856085 1.774599,1.856085 0,0 1.248564,1.312098 1.248564,1.312098 0,0 0.176504,0.192 0.176504,0.192 0,0 0.671923,0.704049 0.671923,0.704049 0,0 1.614649,1.68011 1.614649,1.68011 0,0 1.040578,1.088011 1.040578,1.088011 0,0 0.208629,0.224125 0.208629,0.224125 0,0 0.368881,0.384038 0.368881,0.384038 0,0 0.284976,0.287999 0.284976,0.287999 0,0 0.241512,0.255874 0.241512,0.255874 0,0 0.128125,0.09713 0.128125,0.09713 0,0 0.176126,-0.04271 0.176126,-0.04271 0,0 0.447949,-0.145512 0.447949,-0.145512 0,0 1.567934,-0.517265 1.567934,-0.517265 0,0 -0.943973,-0.943898 -0.943973,-0.943898 0,0 -0.192,-0.176125 -0.192,-0.176125 0,0 -1.087973,-1.087897 -1.087973,-1.087897 0,0 -0.176125,-0.160252 -0.176125,-0.160252 0,0 -1.103923,-1.103696 -1.103923,-1.103696 0,0 -0.176125,-0.160251 -0.176125,-0.160251 0,0 -2.39992,-2.383781 -2.39992,-2.383781 0,0 -0.176126,-0.160252 -0.176126,-0.160252 0,0 -1.103922,-1.103734 -1.103922,-1.103734 0,0 -0.192,-0.176125 -0.192,-0.176125 0,0 -1.10396,-1.103885 -1.10396,-1.103885 0,0 -0.176126,-0.160252 -0.176126,-0.160252 0,0 -1.103922,-1.103732 -1.103922,-1.103732 0,0 -0.192,-0.176126 -0.192,-0.176126 0,0 -1.071985,-1.072062 -1.071985,-1.072062 0,0 -0.224126,-0.207872 -0.224126,-0.207872 0,0 -1.087972,-1.08786 -1.087972,-1.08786 0,0 -0.176126,-0.160251 -0.176126,-0.160251 0,0 -1.103922,-1.103734 -1.103922,-1.103734 0,0 -0.207874,-0.191999 -0.207874,-0.191999 0,0 -1.071948,-1.07191 -1.071948,-1.07191 0,0 -0.416011,-0.400176 -0.416011,-0.400176 0,0 -0.607974,-0.608049 -0.607974,-0.608049 0,0 -0.320126,-0.31748 -0.320126,-0.31748 0,0 -1.231896,-1.218177 -1.231896,-1.218177 0,0 -0.144,-0.12926 -0.144,-0.12926 0,0 -1.135973,-1.135216 -1.135973,-1.135216 0,0 -0.176125,-0.160252 -0.176125,-0.160252 0,0 -1.119986,-1.119758 -1.119986,-1.119758 0,0 -0.255873,-0.24 -0.255873,-0.24 0,0 -0.959923,-0.959998 -0.959923,-0.959998 0,0 -0.239244,-0.224126 -0.239244,-0.224126 -0.03024,-0.03402 -0.06085,-0.06425 -0.04762,-0.111874 0.01134,-0.04157 0.123969,-0.16781 0.157606,-0.207873 0,0 0.396775,-0.463974 0.396775,-0.463974 0,0 1.14183,-1.264099 1.14183,-1.264099 0,0 0.221858,-0.224125 0.221858,-0.224125 0,0 0.20863,-0.224126 0.20863,-0.224126 0,0 0.512011,-0.512087 0.512011,-0.512087 0.03931,-0.03931 0.132284,-0.153826 0.192,-0.138708 0.03855,0.01134 0.08769,0.07635 0.114898,0.106582 0,0 0.269479,0.288 0.269479,0.288 0,0 1.056603,1.136048 1.056603,1.136048 0,0 1.296678,1.392073 1.296678,1.392073 0,0 2.719856,2.91212 2.719856,2.91212 0,0 5.919674,6.320341 5.919674,6.320341 0,0 2.527857,2.688109 2.527857,2.688109 0,0 0.701063,0.735985 0.701063,0.735985 0,0 2.546717,2.704133 2.546717,2.704133 0,0 0.477126,0.496063 0.477126,0.496063 0,0 1.440716,1.520085 1.440716,1.520085 0,0 1.247922,1.312061 1.247922,1.312061 0,0 0.144756,0.159874 0.144756,0.159874 0,0 0.863166,0.896086 0.863166,0.896086 0,0 0.192756,0.207873 0.192756,0.207873 0,0 0.351873,0.368125 0.351873,0.368125 0.07635,0.07635 0.178016,0.15874 0.224126,0.255874 0,0 0.575999,-0.186708 0.575999,-0.186708 0,0 1.215909,-0.400025 1.215909,-0.400025 0,0 0.703936,-0.229417 0.703936,-0.229417 0,0 -0.847935,-0.84786 -0.847935,-0.84786 0,0 -0.192,-0.176125 -0.192,-0.176125 0,0 -0.815923,-0.815885 -0.815923,-0.815885 0,0 -0.176126,-0.160252 -0.176126,-0.160252 0,0 -0.847973,-0.847746 -0.847973,-0.847746 0,0 -0.176125,-0.160252 -0.176125,-0.160252 0,0 -0.831986,-0.831721 -0.831986,-0.831721 0,0 -0.176126,-0.160252 -0.176126,-0.160252 0,0 -0.863923,-0.863167 -0.863923,-0.863167 0,0 -0.159873,-0.144756 -0.159873,-0.144756 0,0 -0.831949,-0.831683 -0.831949,-0.831683 0,0 -0.176125,-0.160252 -0.176125,-0.160252 0,0 -0.831948,-0.831721 -0.831948,-0.831721 0,0 -0.159874,-0.144756 -0.159874,-0.144756 0,0 -0.863961,-0.863242 -0.863961,-0.863242 0,0 -0.176125,-0.160252 -0.176125,-0.160252 0,0 -0.83191,-0.831721 -0.83191,-0.831721 0,0 -0.176126,-0.160252 -0.176126,-0.160252 0,0 -0.847973,-0.847708 -0.847973,-0.847708 0,0 -0.176126,-0.160252 -0.176126,-0.160252 0,0 -0.831986,-0.831684 -0.831986,-0.831684 0,0 -0.176125,-0.160251 -0.176125,-0.160251 0,0 -0.831949,-0.831722 -0.831949,-0.831722 0,0 -0.176125,-0.160251 -0.176125,-0.160251 0,0 -0.847973,-0.847709 -0.847973,-0.847709 0,0 -0.176126,-0.160252 -0.176126,-0.160252 0,0 -0.831948,-0.831721 -0.831948,-0.831721 0,0 -0.159874,-0.144755 -0.159874,-0.144755 0,0 -0.86396,-0.863281 -0.86396,-0.863281 0,0 -0.176126,-0.160251 -0.176126,-0.160251 0,0 -0.815923,-0.815847 -0.815923,-0.815847 0,0 -0.368125,-0.351874 -0.368125,-0.351874 0,0 -0.703936,-0.702575 -0.703936,-0.702575 0,0 -0.943973,-0.929498 -0.943973,-0.929498 0,0 -0.224126,-0.207873 -0.224126,-0.207873 0,0 -0.81596,-0.815885 -0.81596,-0.815885 0,0 -0.176126,-0.160252 -0.176126,-0.160252 0,0 -0.847973,-0.847709 -0.847973,-0.847709 0,0 -0.159874,-0.144755 -0.159874,-0.144755 0,0 -0.831986,-0.831381 -0.831986,-0.831381 0,0 -0.191999,-0.176126 -0.191999,-0.176126 0,0 -0.703974,-0.70386 -0.703974,-0.70386 0,0 -0.655973,-0.640024 -0.655973,-0.640024 0,0 -0.559936,-0.555551 -0.559936,-0.555551 0,0 -0.399987,-0.388536 -0.399987,-0.388536 -0.03402,-0.03401 -0.144378,-0.135306 -0.154582,-0.176125 -0.01512,-0.06765 0.109984,-0.154583 0.154582,-0.194646 0,0 0.575999,-0.518662 0.575999,-0.518662 0.540887,-0.467829 1.085818,-0.927532 1.647871,-1.370114 0,0 0.86396,-0.652648 0.86396,-0.652648 0,0 0.702538,0.768036 0.702538,0.768036 0,0 0.82008,0.896011 0.82008,0.896011 0,0 0.490506,0.528036 0.490506,0.528036 0,0 1.681207,1.824073 1.681207,1.824073 0,0 2.303882,2.496146 2.303882,2.496146 0,0 3.05869,3.312108 3.05869,3.312108 0,0 5.388841,5.792303 5.388841,5.792303 0,0 3.232623,3.456145 3.232623,3.456145 0,0 0.354142,0.384037 0.354142,0.384037 0,0 0.95996,1.024024 0.95996,1.024024 0,0 0.685076,0.720074 0.685076,0.720074 0,0 2.224701,2.352109 2.224701,2.352109 0,0 0.402028,0.431999 0.402028,0.431999 0,0 0.541907,0.560087 0.541907,0.560087 0,0 0.20863,0.224126 0.20863,0.224126 0,0 0.287999,0.303873 0.287999,0.303873 0,0 0.134551,0.119811 0.134551,0.119811 0,0 0.201449,-0.04649 0.201449,-0.04649 0,0 0.559936,-0.185197 0.559936,-0.185197 0,0 1.19996,-0.38929 1.19996,-0.38929 0,0 0.831986,-0.266834 0.831986,-0.266834 0,0 -0.207874,-0.20863 -0.207874,-0.20863 0,0 -0.368125,-0.367369 -0.368125,-0.367369 0,0 -0.320126,-0.31937 -0.320126,-0.31937 0,0 -0.159874,-0.144756 -0.159874,-0.144756 0,0 -0.67196,-0.671205 -0.67196,-0.671205 0,0 -0.144,-0.129259 -0.144,-0.129259 0,0 -0.687986,-0.686777 -0.687986,-0.686777 0,0 -0.159874,-0.144755 -0.159874,-0.144755 0,0 -0.655936,-0.655218 -0.655936,-0.655218 0,0 -0.159874,-0.144756 -0.159874,-0.144756 0,0 -0.655973,-0.655709 -0.655973,-0.655709 0,0 -0.176126,-0.160251 -0.176126,-0.160251 0,0 -0.671961,-0.671206 -0.671961,-0.671206 0,0 -0.159873,-0.144755 -0.159873,-0.144755 0,0 -1.471897,-1.45572 -1.471897,-1.45572 0,0 -0.159874,-0.144756 -0.159874,-0.144756 0,0 -0.671923,-0.671205 -0.671923,-0.671205 0,0 -0.176125,-0.160252 -0.176125,-0.160252 0,0 -0.671961,-0.671205 -0.671961,-0.671205 0,0 -0.159874,-0.144755 -0.159874,-0.144755 0,0 -0.655936,-0.655671 -0.655936,-0.655671 0,0 -0.176125,-0.160252 -0.176125,-0.160252 0,0 -0.655974,-0.655709 -0.655974,-0.655709 0,0 -0.176126,-0.160252 -0.176126,-0.160252 0,0 -0.639986,-0.639759 -0.639986,-0.639759 0,0 -0.176126,-0.160252 -0.176126,-0.160252 0,0 -0.656011,-0.655747 -0.656011,-0.655747 0,0 -0.159874,-0.144755 -0.159874,-0.144755 0,0 -0.671998,-0.671281 -0.671998,-0.671281 0,0 -0.159874,-0.144756 -0.159874,-0.144756 0,0 -0.671999,-0.67128 -0.671999,-0.67128 0,0 -0.176126,-0.160252 -0.176126,-0.160252 0,0 -0.639986,-0.639759 -0.639986,-0.639759 0,0 -0.176125,-0.160252 -0.176125,-0.160252 0,0 -0.656012,-0.655709 -0.656012,-0.655709 0,0 -0.176125,-0.160252 -0.176125,-0.160252 0,0 -0.655974,-0.655671 -0.655974,-0.655671 0,0 -0.176126,-0.160252 -0.176126,-0.160252 0,0 -0.656011,-0.655671 -0.656011,-0.655671 0,0 -0.176126,-0.160251 -0.176126,-0.160251 0,0 -0.656011,-0.655672 -0.656011,-0.655672 0,0 -0.176126,-0.160251 -0.176126,-0.160251 0,0 -0.623923,-0.62381 -0.623923,-0.62381 0,0 -0.192,-0.176126 -0.192,-0.176126 0,0 -0.639948,-0.639873 -0.639948,-0.639873 0,0 -0.192,-0.176125 -0.192,-0.176125 0,0 -0.655973,-0.655709 -0.655973,-0.655709 0,0 -0.159874,-0.144756 -0.159874,-0.144756 0,0 -0.671961,-0.671205 -0.671961,-0.671205 0,0 -0.176126,-0.160252 -0.176126,-0.160252 0,0 -0.671923,-0.671243 -0.671923,-0.671243 0,0 -0.159873,-0.144755 -0.159873,-0.144755 0,0 -0.639949,-0.639722 -0.639949,-0.639722 0,0 -0.207873,-0.191999 -0.207873,-0.191999 0,0 -0.639949,-0.639382 -0.639949,-0.639382 0,0 -0.144,-0.12926 -0.144,-0.12926 0,0 -0.671961,-0.671205 -0.671961,-0.671205 0,0 -0.159873,-0.144755 -0.159873,-0.144755 0,0 -0.495987,-0.495382 -0.495987,-0.495382 0,0 -0.671923,-0.672074 -0.671923,-0.672074 0,0 0.703936,-0.479999 0.703936,-0.479999 0.665573,-0.443716 1.336703,-0.888339 2.03187,-1.284546 0,0 0.671999,-0.388799 0.671999,-0.388799 0.04989,-0.03024 0.222236,-0.135307 0.270613,-0.13115 0.04195,0.0038 0.0858,0.06274 0.113764,0.09222 0,0 0.275905,0.303873 0.275905,0.303873 0,0 0.44073,0.480037 0.44073,0.480037 0,0 0.564169,0.623999 0.564169,0.623999 0,0 1.777206,1.952122 1.777206,1.952122 0,0 2.351844,2.576121 2.351844,2.576121 0,0 3.455805,3.776195 3.455805,3.776195 0,0 0.826506,0.896011 0.826506,0.896011 0,0 2.897078,3.152158 2.897078,3.152158 0,0 1.794818,1.952084 1.794818,1.952084 0,0 2.767857,2.992171 2.767857,2.992171 0,0 1.836998,1.968072 1.836998,1.968072 0,0 2.690754,2.880146 2.690754,2.880146 0,0 0.815923,0.864036 0.815923,0.864036 0,0 0.171968,0.176125 0.171968,0.176125 0,0 0.593233,0.624037 0.593233,0.624037 0,0 0.56141,0.592062 0.56141,0.592062 0,0 0.303874,0.320125 0.303874,0.320125 0.03401,0.03402 0.100913,0.108095 0.143999,0.122457 0.04951,0.01512 0.186709,-0.04044 0.24,-0.05821 0,0 0.591986,-0.191999 0.591986,-0.191999 0,0 1.455909,-0.464315 1.455909,-0.464315 0,0 0.799936,-0.255495 0.799936,-0.255495 0,0 0,-0.03024 0,-0.03024 -0.09562,-0.04536 -0.165921,-0.133795 -0.24,-0.207874 0,0 -0.399948,-0.399835 -0.399948,-0.399835 0,0 -0.176126,-0.160252 -0.176126,-0.160252 0,0 -0.527961,-0.527168 -0.527961,-0.527168 0,0 -0.159874,-0.144755 -0.159874,-0.144755 0,0 -0.559974,-0.558387 -0.559974,-0.558387 0,0 -0.671961,-0.657334 -0.671961,-0.657334 0,0 -0.191999,-0.176125 -0.191999,-0.176125 0,0 -0.527962,-0.527432 -0.527962,-0.527432 0,0 -0.159873,-0.144756 -0.159873,-0.144756 0,0 -0.543949,-0.543193 -0.543949,-0.543193 0,0 -0.159874,-0.144755 -0.159874,-0.144755 0,0 -0.527961,-0.527659 -0.527961,-0.527659 0,0 -0.159874,-0.144756 -0.159874,-0.144756 0,0 -0.54391,-0.543193 -0.54391,-0.543193 0,0 -0.176126,-0.160251 -0.176126,-0.160251 0,0 -0.527999,-0.527243 -0.527999,-0.527243 0,0 -0.159874,-0.144756 -0.159874,-0.144756 0,0 -0.527999,-0.527697 -0.527999,-0.527697 0,0 -0.191999,-0.176125 -0.191999,-0.176125 0,0 -0.527962,-0.527357 -0.527962,-0.527357 0,0 -0.159873,-0.144755 -0.159873,-0.144755 0,0 -0.543949,-0.543193 -0.543949,-0.543193 0,0 -0.159874,-0.144756 -0.159874,-0.144756 0,0 -0.527923,-0.527696 -0.527923,-0.527696 0,0 -0.159874,-0.144756 -0.159874,-0.144756 0,0 -0.527999,-0.527281 -0.527999,-0.527281 0,0 -0.159874,-0.144756 -0.159874,-0.144756 0,0 -0.543986,-0.54323 -0.543986,-0.54323 0,0 -0.159874,-0.144756 -0.159874,-0.144756 0,0 -0.559936,-0.558688 -0.559936,-0.558688 0,0 -0.159873,-0.144756 -0.159873,-0.144756 0,0 -0.527962,-0.527659 -0.527962,-0.527659 0,0 -0.159873,-0.144756 -0.159873,-0.144756 0,0 -0.527961,-0.527394 -0.527961,-0.527394 0,0 -0.192,-0.176126 -0.192,-0.176126 0,0 -0.527961,-0.527734 -0.527961,-0.527734 0,0 -0.159874,-0.144756 -0.159874,-0.144756 0,0 -0.527999,-0.527394 -0.527999,-0.527394 0,0 -0.192,-0.176126 -0.192,-0.176126 0,0 -0.512011,-0.511671 -0.512011,-0.511671 0,0 -0.159874,-0.144756 -0.159874,-0.144756 0,0 -0.543986,-0.54323 -0.543986,-0.54323 0,0 -0.176126,-0.160252 -0.176126,-0.160252 0,0 -0.527961,-0.527205 -0.527961,-0.527205 0,0 -0.159874,-0.144756 -0.159874,-0.144756 0,0 -0.543949,-0.543722 -0.543949,-0.543722 0,0 -0.159873,-0.144755 -0.159873,-0.144755 0,0 -0.543987,-0.543231 -0.543987,-0.543231 0,0 -0.176125,-0.160251 -0.176125,-0.160251 0,0 -0.544025,-0.543193 -0.544025,-0.543193 0,0 -0.159873,-0.144756 -0.159873,-0.144756 0,0 -0.527999,-0.527696 -0.527999,-0.527696 0,0 -0.176126,-0.160252 -0.176126,-0.160252 0,0 -0.527961,-0.527243 -0.527961,-0.527243 0,0 -0.159874,-0.144756 -0.159874,-0.144756 0,0 -0.527923,-0.527696 -0.527923,-0.527696 0,0 -0.159874,-0.144756 -0.159874,-0.144756 0,0 -0.527961,-0.527394 -0.527961,-0.527394 0,0 -0.192,-0.176126 -0.192,-0.176126 0,0 -0.527999,-0.527697 -0.527999,-0.527697 0,0 -0.159874,-0.144755 -0.159874,-0.144755 0,0 -0.559973,-0.558765 -0.559973,-0.558765 0,0 -0.159874,-0.144755 -0.159874,-0.144755 0,0 -0.543986,-0.543193 -0.543986,-0.543193 0,0 -0.159874,-0.144756 -0.159874,-0.144756 0,0 -0.527924,-0.527205 -0.527924,-0.527205 0,0 -0.159873,-0.144755 -0.159873,-0.144755 0,0 -0.527962,-0.527697 -0.527962,-0.527697 0,0 -0.159873,-0.144756 -0.159873,-0.144756 0,0 -0.527961,-0.527394 -0.527961,-0.527394 0,0 -0.192,-0.176126 -0.192,-0.176126 0,0 -0.512012,-0.51186 -0.512012,-0.51186 -0.163275,-0.161386 -0.500597,-0.451691 -0.623961,-0.623999 0,0 0.272126,-0.139842 0.272126,-0.139842 0,0 0.607973,-0.303874 0.607973,-0.303874 0.695319,-0.336755 1.399443,-0.656048 2.111921,-0.954933 0,0 0.767923,-0.31559 0.767923,-0.31559 0.05329,-0.02268 0.276283,-0.114897 0.319369,-0.108094 0.04724,0.0076 0.09676,0.07559 0.128882,0.110362 0,0 0.272881,0.303873 0.272881,0.303873 0,0 1.12316,1.248073 1.12316,1.248073 0,0 1.112691,1.232048 1.112691,1.232048 0,0 3.045349,3.376132 3.045349,3.376132 0,0 4.815676,5.312305 4.815676,5.312305 0,0 1.242517,1.360061 1.242517,1.360061 0,0 2.687806,2.944095 2.687806,2.944095 0,0 2.289218,2.496147 2.289218,2.496147 0,0 0.642783,0.704049 0.642783,0.704049 0,0 2.061048,2.224096 2.061048,2.224096 0,0 2.306717,2.480122 2.306717,2.480122 0,0 1.327935,1.40806 1.327935,1.40806 0,0 0.205228,0.207874 0.205228,0.207874 0,0 0.802052,0.848011 0.802052,0.848011 0,0 0.269857,0.272125 0.269857,0.272125 0,0 0.305386,0.320126 0.305386,0.320126 0.03402,0.03402 0.100913,0.108094 0.143999,0.122456 0.0446,0.01512 0.218835,-0.04687 0.272126,-0.06387 0,0 0.671961,-0.213165 0.671961,-0.213165 0,0 1.663934,-0.517756 1.663934,-0.517756 0,0 0.479999,-0.148913 0.479999,-0.148913 0,0 0.351873,-0.106583 0.351873,-0.106583 0,0 -1.215872,-1.184653 -1.215872,-1.184653 0,0 -0.479999,-0.478752 -0.479999,-0.478752 0,0 -0.159873,-0.144755 -0.159873,-0.144755 0,0 -0.479962,-0.479659 -0.479962,-0.479659 0,0 -0.159873,-0.144756 -0.159873,-0.144756 0,0 -0.463937,-0.463218 -0.463937,-0.463218 0,0 -0.159873,-0.144755 -0.159873,-0.144755 0,0 -0.479999,-0.479281 -0.479999,-0.479281 0,0 -0.159874,-0.144756 -0.159874,-0.144756 0,0 -0.463974,-0.46318 -0.463974,-0.46318 0,0 -0.159874,-0.144756 -0.159874,-0.144756 0,0 -0.463974,-0.463331 -0.463974,-0.463331 0,0 -0.191999,-0.176126 -0.191999,-0.176126 0,0 -0.447949,-0.447684 -0.447949,-0.447684 0,0 -0.159874,-0.144756 -0.159874,-0.144756 0,0 -0.479999,-0.479243 -0.479999,-0.479243 0,0 -0.159874,-0.144756 -0.159874,-0.144756 0,0 -0.479999,-0.479281 -0.479999,-0.479281 0,0 -0.159873,-0.144755 -0.159873,-0.144755 0,0 -0.463974,-0.463218 -0.463974,-0.463218 0,0 -0.159874,-0.144756 -0.159874,-0.144756 0,0 -0.479961,-0.479205 -0.479961,-0.479205 0,0 -0.159874,-0.144756 -0.159874,-0.144756 0,0 -0.464012,-0.463218 -0.464012,-0.463218 0,0 -0.159874,-0.144756 -0.159874,-0.144756 0,0 -0.479999,-0.479167 -0.479999,-0.479167 0,0 -0.159873,-0.144756 -0.159873,-0.144756 0,0 -0.479962,-0.479205 -0.479962,-0.479205 0,0 -0.159873,-0.144756 -0.159873,-0.144756 0,0 -0.463974,-0.462727 -0.463974,-0.462727 0,0 -0.159874,-0.144755 -0.159874,-0.144755 0,0 -0.495949,-0.495231 -0.495949,-0.495231 0,0 -0.159873,-0.144756 -0.159873,-0.144756 0,0 -0.463974,-0.463218 -0.463974,-0.463218 0,0 -0.159874,-0.144755 -0.159874,-0.144755 0,0 -0.463936,-0.463672 -0.463936,-0.463672 0,0 -0.159874,-0.144755 -0.159874,-0.144755 0,0 -0.463936,-0.463256 -0.463936,-0.463256 0,0 -0.159874,-0.144756 -0.159874,-0.144756 0,0 -0.463974,-0.46318 -0.463974,-0.46318 0,0 -0.159873,-0.144756 -0.159873,-0.144756 0,0 -0.495949,-0.495155 -0.495949,-0.495155 0,0 -0.159874,-0.144755 -0.159874,-0.144755 0,0 -0.463936,-0.463256 -0.463936,-0.463256 0,0 -0.159874,-0.144756 -0.159874,-0.144756 0,0 -0.479961,-0.479243 -0.479961,-0.479243 0,0 -0.159874,-0.144756 -0.159874,-0.144756 0,0 -0.463974,-0.463255 -0.463974,-0.463255 0,0 -0.159873,-0.144756 -0.159873,-0.144756 0,0 -0.479962,-0.479206 -0.479962,-0.479206 0,0 -0.159873,-0.144755 -0.159873,-0.144755 0,0 -0.479962,-0.478752 -0.479962,-0.478752 0,0 -0.159873,-0.144756 -0.159873,-0.144756 0,0 -0.479962,-0.479281 -0.479962,-0.479281 0,0 -0.159873,-0.144755 -0.159873,-0.144755 0,0 -0.479962,-0.479206 -0.479962,-0.479206 0,0 -0.159873,-0.144755 -0.159873,-0.144755 0,0 -0.463974,-0.463218 -0.463974,-0.463218 0,0 -0.159874,-0.144756 -0.159874,-0.144756 0,0 -0.479961,-0.479243 -0.479961,-0.479243 0,0 -3.311805,-3.217468 -3.311805,-3.217468 0,0 -1.119948,-1.102751 -1.119948,-1.102751 0,0 -0.144,-0.129259 -0.144,-0.129259 0,0 -0.447986,-0.44742 -0.447986,-0.44742 0,0 -0.192,-0.176126 -0.192,-0.176126 0,0 -0.447948,-0.447646 -0.447948,-0.447646 0,0 -0.159874,-0.144755 -0.159874,-0.144755 0,0 -0.383999,-0.383395 -0.383999,-0.383395 0,0 -0.511974,-0.495986 -0.511974,-0.495986 -0.07635,-0.07635 -0.178016,-0.15874 -0.224126,-0.255874 0,0 0.415974,-0.138708 0.415974,-0.138708 0,0 0.783986,-0.255874 0.783986,-0.255874 0.684887,-0.218834 1.382133,-0.421001 2.07987,-0.595426 0,0 0.831948,-0.206739 0.831948,-0.206739 0.06539,-0.01512 0.249827,-0.0703 0.303874,-0.04838 0.04724,0.0189 0.096,0.08655 0.130393,0.125102 0,0 0.286488,0.320125 0.286488,0.320125 0,0 1.025346,1.152074 1.025346,1.152074 0,0 2.384046,2.67212 2.384046,2.67212 0,0 1.34566,1.504061 1.34566,1.504061 0,0 0.90478,1.008035 0.90478,1.008035 0,0 1.967845,2.192122 1.967845,2.192122 0,0 6.645077,7.360352 6.645077,7.360352 0,0 2.351882,2.576159 2.351882,2.576159 0,0 1.018543,1.104036 1.018543,1.104036 0,0 2.913066,3.13617 2.913066,3.13617 0,0 1.37669,1.456023 1.37669,1.456023 0,0 0.608654,0.640024 0.608654,0.640024 0,0 0.320503,0.335999 0.320503,0.335999 0,0 0.495193,0.495986 0.495193,0.495986 0,0 0.144756,0.159874 0.144756,0.159874 0,0 0.287243,0.288 0.287243,0.288 0,0 0.336,0.320125 0.336,0.320125 0.03855,0.03855 0.106204,0.117921 0.159874,0.126236 0.0378,0.0076 0.266078,-0.07181 0.320125,-0.08769 0,0 0.831948,-0.252094 0.831948,-0.252094 0,0 0.92791,-0.278173 0.92791,-0.278173 0,0 1.679921,-0.500522 1.679921,-0.500522 0,0 -0.543948,-0.527394 -0.543948,-0.527394 0,0 -0.144,-0.129259 -0.144,-0.129259 0,0 -0.431961,-0.430715 -0.431961,-0.430715 0,0 -0.159874,-0.144755 -0.159874,-0.144755 0,0 -0.400025,-0.399231 -0.400025,-0.399231 0,0 -2.975805,-2.881393 -2.975805,-2.881393 0,0 -0.431999,-0.430752 -0.431999,-0.430752 0,0 -3.535779,-3.425455 -3.535779,-3.425455 0,0 -0.431962,-0.430714 -0.431962,-0.430714 0,0 -1.279934,-1.233371 -1.279934,-1.233371 0,0 -0.415974,-0.414689 -0.415974,-0.414689 0,0 -1.279935,-1.233371 -1.279935,-1.233371 0,0 -0.431961,-0.430714 -0.431961,-0.430714 0,0 -1.839909,-1.777357 -1.839909,-1.777357 0,0 -0.431961,-0.430752 -0.431961,-0.430752 0,0 -1.839909,-1.777395 -1.839909,-1.777395 0,0 -0.416011,-0.414727 -0.416011,-0.414727 0,0 -2.415832,-2.337369 -2.415832,-2.337369 0,0 -0.431962,-0.430752 -0.431962,-0.430752 0,0 -1.263909,-1.217384 -1.263909,-1.217384 0,0 -0.431961,-0.430714 -0.431961,-0.430714 0,0 -2.255921,-2.192537 -2.255921,-2.192537 0,0 -0.159873,-0.144756 -0.159873,-0.144756 0,0 -0.399911,-0.39923 -0.399911,-0.39923 0,0 -0.159874,-0.144756 -0.159874,-0.144756 0,0 -0.415974,-0.41518 -0.415974,-0.41518 0,0 -0.159874,-0.144756 -0.159874,-0.144756 0,0 -0.400024,-0.399231 -0.400024,-0.399231 0,0 -0.159874,-0.144755 -0.159874,-0.144755 0,0 -0.383961,-0.383395 -0.383961,-0.383395 0,0 -0.207874,-0.192 -0.207874,-0.192 0,0 -0.399987,-0.399193 -0.399987,-0.399193 0,0 -0.303873,-0.304629 -0.303873,-0.304629 0.839167,-0.152693 1.681357,-0.289889 2.527894,-0.395527 0,0 0.815923,-0.08882 0.815923,-0.08882 0,0 1.023948,-0.09298 1.023948,-0.09298 0.06387,-0.0038 0.325039,-0.03779 0.368125,-0.02268 0.05367,0.0189 0.09335,0.07672 0.130394,0.118299 0,0 0.254361,0.288 0.254361,0.288 0,0 0.94541,1.072061 0.94541,1.072061 0,0 3.455804,3.904168 3.455804,3.904168 0,0 8.335657,9.328499 8.335657,9.328499 0,0 3.135793,3.456145 3.135793,3.456145 0,0 1.17853,1.280048 1.17853,1.280048 0,0 2.065167,2.224135 2.065167,2.224135 0.871596,0.935696 1.752829,1.863568 2.657268,2.76812 0,0 0.719999,0.688667 0.719999,0.688667 0,0 0.687948,0.646109 0.687948,0.646109 0,0 0.320125,0.297448 0.320125,0.297448 0.04346,0.04195 0.136063,0.138709 0.192,0.15496 0.05669,0.01512 0.26948,-0.05934 0.335999,-0.07937 0,0 0.783986,-0.224126 0.783986,-0.224126 0,0 2.111845,-0.596711 2.111845,-0.596711 0,0 0.831948,-0.23055 0.831948,-0.23055 0,0 -0.383961,-0.368504 -0.383961,-0.368504 0,0 -0.368126,-0.366613 -0.368126,-0.366613 0,0 -0.623923,-0.593347 -0.623923,-0.593347 0,0 -0.368125,-0.366614 -0.368125,-0.366614 0,0 -1.151922,-1.10532 -1.151922,-1.10532 0,0 -0.863961,-0.846764 -0.863961,-0.846764 0,0 -3.663829,-3.53748 -3.663829,-3.53748 0,0 -0.351874,-0.35074 -0.351874,-0.35074 0,0 -1.151884,-1.10532 -1.151884,-1.10532 0,0 -0.351874,-0.35074 -0.351874,-0.35074 0,0 -6.671609,-6.4496 -6.671609,-6.4496 0,0 -0.368125,-0.366614 -0.368125,-0.366614 0,0 -1.647947,-1.585358 -1.647947,-1.585358 0,0 -0.351873,-0.350739 -0.351873,-0.350739 0,0 -2.655832,-2.561343 -2.655832,-2.561343 0,0 -0.368125,-0.366614 -0.368125,-0.366614 0,0 -1.151922,-1.105358 -1.151922,-1.105358 0,0 -0.351873,-0.35074 -0.351873,-0.35074 0,0 -0.97591,-0.944691 -0.97591,-0.944691 0,0 -0.176126,-0.160629 -0.176126,-0.160629 0,0 -0.335999,-0.334866 -0.335999,-0.334866 0,0 -0.144,-0.129259 -0.144,-0.129259 0,0 -0.863961,-0.847218 -0.863961,-0.847218 0,0 -0.159874,-0.144755 -0.159874,-0.144755 0,0 -0.303873,-0.303496 -0.303873,-0.303496 z m 20.782827,5.312267 c 0.0737,0.0038 0.253228,-0.03402 0.336,-0.04687 0,0 0.687948,-0.111874 0.687948,-0.111874 0,0 2.015921,-0.314456 2.015921,-0.314456 2.052959,-0.318613 4.114461,-0.579703 6.175623,-0.834291 0,0 3.03983,-0.327307 3.03983,-0.327307 1.081548,-0.108093 2.163889,-0.212408 3.247784,-0.286865 0,0 0.73598,-0.06123 0.73598,-0.06123 0,0 1.19996,-0.08126 1.19996,-0.08126 0,0 0.144,0 0.144,0 0,0 0.47996,-0.03024 0.47996,-0.03024 0,0 0.24,-0.01512 0.24,-0.01512 0,0 0.336,-0.01512 0.336,-0.01512 0,0 0.27213,-0.01512 0.27213,-0.01512 0,0 0.32012,-0.01512 0.32012,-0.01512 0,0 0.288,-0.01512 0.288,-0.01512 0,0 0.17613,0 0.17613,0 0,0 0.24,-0.01512 0.24,-0.01512 0,0 0.17612,0 0.17612,0 0,0 0.15988,-0.01512 0.15988,-0.01512 0,0 0.22412,0 0.22412,0 0,0 0.24,-0.01512 0.24,-0.01512 0,0 0.24,0 0.24,0 0,0 0.25587,-0.01512 0.25587,-0.01512 0,0 0.30388,0 0.30388,0 0,0 0.25587,-0.01512 0.25587,-0.01512 0,0 0.47993,0 0.47993,0 0,0 0.27212,-0.01512 0.27212,-0.01512 0,0 2.75187,0 2.75187,0 0,0 0.24,0.01512 0.24,0.01512 0,0 0.41597,0 0.41597,0 0,0 0.24,0.01512 0.24,0.01512 0,0 0.27213,0 0.27213,0 0,0 0.32012,0.01512 0.32012,0.01512 0.36322,0.0038 0.93275,0.134929 1.27998,0.250582 1.4957,0.498557 2.69389,1.672363 3.19418,3.173399 0.19351,0.581139 0.26873,1.165831 0.26155,1.77611 0,0 -0.0151,0.159874 -0.0151,0.159874 0,0 -0.0748,0.624036 -0.0748,0.624036 -0.32163,1.780079 -1.60973,3.211232 -3.30258,3.813159 -0.43722,0.155338 -0.89866,0.236976 -1.35991,0.268346 0,0 -0.192,0.01512 -0.192,0.01512 0,0 -0.38396,0 -0.38396,0 0,0 -0.27213,-0.01512 -0.27213,-0.01512 0,0 -0.32012,0 -0.32012,0 0,0 -0.25587,-0.01512 -0.25587,-0.01512 0,0 -0.75194,0 -0.75194,0 0,0 -0.27213,-0.01512 -0.27213,-0.01512 0,0 -0.95996,0 -0.95996,0 0,0 -0.27212,0.01512 -0.27212,0.01512 0,0 -0.79994,0 -0.79994,0 0,0 -0.27212,0.01512 -0.27212,0.01512 0,0 -0.35188,0 -0.35188,0 0,0 -0.27212,0.01512 -0.27212,0.01512 0,0 -0.27213,0 -0.27213,0 0,0 -0.192,0.01512 -0.192,0.01512 0,0 -0.20787,0 -0.20787,0 0,0 -0.192,0.01512 -0.192,0.01512 0,0 -0.24,0 -0.24,0 0,0 -0.192,0.01512 -0.192,0.01512 0,0 -0.192,0 -0.192,0 0,0 -0.22412,0.01512 -0.22412,0.01512 0,0 -0.44795,0.01512 -0.44795,0.01512 0,0 -0.22413,0.01512 -0.22413,0.01512 0,0 -0.62392,0.03024 -0.62392,0.03024 0,0 -0.20788,0.01512 -0.20788,0.01512 0,0 -0.46397,0.03024 -0.46397,0.03024 0,0 -0.624,0.03402 -0.624,0.03402 0,0 -1.0879,0.08013 -1.0879,0.08013 0,0 -0.27212,0.02646 -0.27212,0.02646 0,0 -0.575962,0.048 -0.575962,0.048 0,0 -1.199922,0.101291 -1.199922,0.101291 0,0 -1.743909,0.176126 -1.743909,0.176126 0,0 -0.895973,0.09789 -0.895973,0.09789 0,0 -0.735911,0.07559 -0.735911,0.07559 0.987438,1.137786 1.909943,2.338464 2.757274,3.584157 0.226015,0.332219 0.818039,1.205175 0.98653,1.520123 0,0 -0.464011,-0.432075 -0.464011,-0.432075 0,0 -0.543949,-0.527848 -0.543949,-0.527848 0,0 -0.575961,-0.544856 -0.575961,-0.544856 0,0 -1.135973,-1.10275 -1.135973,-1.10275 0,0 -3.951791,-3.793467 -3.951791,-3.793467 0,0 -0.287999,-0.286866 -0.287999,-0.286866 0,0 -0.975986,-0.92927 -0.975986,-0.92927 0,0 -0.287999,-0.286866 -0.287999,-0.286866 0,0 -3.087793,-2.961481 -3.087793,-2.961481 0,0 -1.135973,-1.102751 -1.135973,-1.102751 0,0 -0.991935,-0.945296 -0.991935,-0.945296 0,0 -0.287999,-0.286865 -0.287999,-0.286865 0,0 -0.399987,-0.384491 -0.399987,-0.384491 z m 7.567621,5.536242 c 0,0 -0.01512,0 -0.01512,0 0,0 0.01512,0.01512 0.01512,0.01512 z m 0.01512,0.01512 c 0,0 -0.01512,0 -0.01512,0 0,0 0.01512,0.01512 0.01512,0.01512 z m 0.01512,0.01512 c 0,0 -0.01512,0 -0.01512,0 0,0 0.01512,0.01512 0.01512,0.01512 z m 0.01512,0.01512 c 0,0 -0.01512,0 -0.01512,0 0,0 0.01512,0.01512 0.01512,0.01512 z m 0.01512,0.01512 c 0,0 -0.01512,0 -0.01512,0 0,0 0.01512,0.01512 0.01512,0.01512 z m 0.224126,0.207874 c 0,0 -0.01512,0 -0.01512,0 0,0 0.01512,0.01512 0.01512,0.01512 z m 0.01512,0.01512 c 0,0 -0.01512,0 -0.01512,0 0,0 0.01512,0.01512 0.01512,0.01512 z m 0.01512,0.01512 c 0,0 -0.01512,0 -0.01512,0 0,0 0.01512,0.01512 0.01512,0.01512 z m 0.01512,0.01512 c 0,0 -0.01512,0 -0.01512,0 0,0 0.01512,0.01512 0.01512,0.01512 z m 0.01512,0.01512 c 0,0 -0.01512,0 -0.01512,0 0,0 0.01512,0.01512 0.01512,0.01512 z m 0.272125,0.255874 c 0,0 -0.01512,0 -0.01512,0 0,0 0.01512,0.01512 0.01512,0.01512 z m 0.01512,0.01512 c 0,0 -0.01512,0 -0.01512,0 0,0 0.01512,0.01512 0.01512,0.01512 z m 0.01512,0.01512 c 0,0 -0.01512,0 -0.01512,0 0,0 0.01512,0.01512 0.01512,0.01512 z m 0.01512,0.01512 c 0,0 -0.01512,0 -0.01512,0 0,0 0.01512,0.01512 0.01512,0.01512 z m 0.01512,0.01512 c 0,0 -0.01512,0 -0.01512,0 0,0 0.01512,0.01512 0.01512,0.01512 z m 0.01512,0.01512 c 0,0 -0.01512,0 -0.01512,0 0,0 0.01512,0.01512 0.01512,0.01512 z m 0.01512,0.01512 c 0,0 -0.01512,0 -0.01512,0 0,0 0.01512,0.01512 0.01512,0.01512 z m 0.01512,0.01512 c 0,0 -0.01512,0 -0.01512,0 0,0 0.01512,0.01512 0.01512,0.01512 z m 0.01512,0.01512 c 0,0 -0.01512,0 -0.01512,0 0,0 0.01512,0.01512 0.01512,0.01512 z m 0.01512,0.01512 c 0,0 -0.01512,0 -0.01512,0 0,0 0.01512,0.01512 0.01512,0.01512 z m 0.01512,0.01512 c 0,0 -0.01512,0 -0.01512,0 0,0 0.01512,0.01512 0.01512,0.01512 z m 0.01512,0.01512 c 0,0 -0.01512,0 -0.01512,0 0,0 0.01512,0.01512 0.01512,0.01512 z m 0.01512,0.01512 c 0,0 -0.01512,0 -0.01512,0 0,0 0.01512,0.01512 0.01512,0.01512 z m 0.01512,0.01512 c 0,0 -0.01512,0 -0.01512,0 0,0 0.01512,0.01512 0.01512,0.01512 z m 0.01512,0.01512 c 0,0 -0.01512,0 -0.01512,0 0,0 0.01512,0.01512 0.01512,0.01512 z m 0.01512,0.01512 c 0,0 -0.01512,0 -0.01512,0 0,0 0.01512,0.01512 0.01512,0.01512 z m 0.01512,0.01512 c 0,0 -0.01512,0 -0.01512,0 0,0 0.01512,0.01512 0.01512,0.01512 z m 0.01512,0.01512 c 0,0 -0.01512,0 -0.01512,0 0,0 0.01512,0.01512 0.01512,0.01512 z m 0.03024,0.03024 c 0,0 -0.01512,0 -0.01512,0 0,0 0.01512,0.01512 0.01512,0.01512 z m 0.01512,0.01512 c 0,0 -0.01512,0 -0.01512,0 0,0 0.01512,0.01512 0.01512,0.01512 z m 0.01512,0.01512 c 0,0 -0.01512,0 -0.01512,0 0,0 0.01512,0.01512 0.01512,0.01512 z m 0.01512,0.01512 c 0,0 -0.01512,0 -0.01512,0 0,0 0.01512,0.01512 0.01512,0.01512 z m 0.01512,0.01512 c 0,0 -0.01512,0 -0.01512,0 0,0 0.01512,0.01512 0.01512,0.01512 z m 0.01512,0.01512 c 0,0 -0.01512,0 -0.01512,0 0,0 0.01512,0.01512 0.01512,0.01512 z m 0.01512,0.01512 c 0,0 -0.01512,0 -0.01512,0 0,0 0.01512,0.01512 0.01512,0.01512 z m 0.01512,0.01512 c 0,0 -0.01512,0 -0.01512,0 0,0 0.01512,0.01512 0.01512,0.01512 z m 0.01512,0.01512 c 0,0 -0.01512,0 -0.01512,0 0,0 0.01512,0.01512 0.01512,0.01512 z m 0.01512,0.01512 c 0,0 -0.01512,0 -0.01512,0 0,0 0.01512,0.01512 0.01512,0.01512 z m 0.01512,0.01512 c 0,0 -0.01512,0 -0.01512,0 0,0 0.01512,0.01512 0.01512,0.01512 z m 0.01512,0.01512 c 0,0 -0.01512,0 -0.01512,0 0,0 0.01512,0.01512 0.01512,0.01512 z m 0.01512,0.01512 c 0,0 -0.01512,0 -0.01512,0 0,0 0.01512,0.01512 0.01512,0.01512 z m 0.01512,0.01512 c 0,0 -0.01512,0 -0.01512,0 0,0 0.01512,0.01512 0.01512,0.01512 z m 0.01512,0.01512 c 0,0 -0.01512,0 -0.01512,0 0,0 0.01512,0.01512 0.01512,0.01512 z m 0.01512,0.01512 c 0,0 -0.01512,0 -0.01512,0 0,0 0.01512,0.01512 0.01512,0.01512 z m 0.01512,0.01512 c 0,0 -0.01512,0 -0.01512,0 0,0 0.01512,0.01512 0.01512,0.01512 z m 0.01512,0.01512 c 0,0 -0.01512,0 -0.01512,0 0,0 0.01512,0.01512 0.01512,0.01512 z m 0.01512,0.01512 c 0,0 -0.01512,0 -0.01512,0 0,0 0.01512,0.01512 0.01512,0.01512 z m 0.01512,0.01512 c 0,0 -0.01512,0 -0.01512,0 0,0 0.01512,0.01512 0.01512,0.01512 z m 0.01512,0.01512 c 0,0 -0.01512,0 -0.01512,0 0,0 0.01512,0.01512 0.01512,0.01512 z m 0.01512,0.01512 c 0,0 -0.01512,0 -0.01512,0 0,0 0.01512,0.01512 0.01512,0.01512 z m 0.01512,0.01512 c 0,0 -0.01512,0 -0.01512,0 0,0 0.01512,0.01512 0.01512,0.01512 z m 0.01512,0.01512 c 0,0 -0.01512,0 -0.01512,0 0,0 0.01512,0.01512 0.01512,0.01512 z m 0.01512,0.01512 c 0,0 -0.01512,0 -0.01512,0 0,0 0.01512,0.01512 0.01512,0.01512 z m 0.01512,0.01512 c 0,0 -0.01512,0 -0.01512,0 0,0 0.01512,0.01512 0.01512,0.01512 z m 0.01512,0.01512 c 0,0 -0.01512,0 -0.01512,0 0,0 0.01512,0.01512 0.01512,0.01512 z m 0.01512,0.01512 c 0,0 -0.01512,0 -0.01512,0 0,0 0.01512,0.01512 0.01512,0.01512 z m 0.01512,0.01512 c 0,0 -0.01512,0 -0.01512,0 0,0 0.01512,0.01512 0.01512,0.01512 z m 0.01512,0.01512 c 0,0 -0.01512,0 -0.01512,0 0,0 0.01512,0.01512 0.01512,0.01512 z m 0.01512,0.01512 c 0,0 -0.01512,0 -0.01512,0 0,0 0.01512,0.01512 0.01512,0.01512 z m 0.01512,0.01512 c 0,0 -0.01512,0 -0.01512,0 0,0 0.01512,0.01512 0.01512,0.01512 z m 0.01512,0.01512 c 0,0 -0.01512,0 -0.01512,0 0,0 0.01512,0.01512 0.01512,0.01512 z m 0.01512,0.01512 c 0,0 -0.01512,0 -0.01512,0 0,0 0.01512,0.01512 0.01512,0.01512 z m 0.01512,0.01512 c 0,0 -0.01512,0 -0.01512,0 0,0 0.01512,0.01512 0.01512,0.01512 z m 0.01512,0.01512 c 0,0 -0.01512,0 -0.01512,0 0,0 0.01512,0.01512 0.01512,0.01512 z m 0.01512,0.01512 c 0,0 -0.01512,0 -0.01512,0 0,0 0.01512,0.01512 0.01512,0.01512 z m 0.159874,0.176126 c 0,0 -0.01512,0 -0.01512,0 0,0 0.01512,0.01512 0.01512,0.01512 z m 0.01512,0.01512 c 0,0 -0.01512,0 -0.01512,0 0,0 0.01512,0.01512 0.01512,0.01512 z m 0.01512,0.01512 c 0,0 -0.01512,0 -0.01512,0 0,0 0.01512,0.01512 0.01512,0.01512 z m 0.01512,0.01512 c 0,0 -0.01512,0 -0.01512,0 0,0 0.01512,0.01512 0.01512,0.01512 z m 0.01512,0.01512 c 0,0 -0.01512,0 -0.01512,0 0,0 0.01512,0.01512 0.01512,0.01512 z m 0.01512,0.01512 c 0,0 -0.01512,0 -0.01512,0 0,0 0.01512,0.01512 0.01512,0.01512 z m 0.01512,0.01512 c 0,0 -0.01512,0 -0.01512,0 0,0 0.01512,0.01512 0.01512,0.01512 z m 0.01512,0.01512 c 0,0 -0.01512,0 -0.01512,0 0,0 0.01512,0.01512 0.01512,0.01512 z m 0.01512,0.01512 c 0,0 -0.01512,0 -0.01512,0 0,0 0.01512,0.01512 0.01512,0.01512 z m 0.01512,0.01512 c 0,0 -0.01512,0 -0.01512,0 0,0 0.01512,0.01512 0.01512,0.01512 z m 0.01512,0.01512 c 0,0 -0.01512,0 -0.01512,0 0,0 0.01512,0.01512 0.01512,0.01512 z m 0.01512,0.01512 c 0,0 -0.01512,0 -0.01512,0 0,0 0.01512,0.01512 0.01512,0.01512 z m 0.01512,0.01512 c 0,0 -0.01512,0 -0.01512,0 0,0 0.01512,0.01512 0.01512,0.01512 z m 0.01512,0.01512 c 0,0 -0.01512,0 -0.01512,0 0,0 0.01512,0.01512 0.01512,0.01512 z m 0.08013,0.096 c 0,0 -0.01512,0 -0.01512,0 0,0 0.01512,0.01512 0.01512,0.01512 z m 0.01512,0.01512 c 0,0 -0.01512,0 -0.01512,0 0,0 0.01512,0.01512 0.01512,0.01512 z m 0.01512,0.01512 c 0,0 -0.01512,0 -0.01512,0 0,0 0.01512,0.01512 0.01512,0.01512 z m 0.01512,0.01512 c 0,0 -0.01512,0 -0.01512,0 0,0 0.01512,0.01512 0.01512,0.01512 z m 0.01512,0.01512 c 0,0 -0.01512,0 -0.01512,0 0,0 0.01512,0.01512 0.01512,0.01512 z m 0.01512,0.01512 c 0,0 -0.01512,0 -0.01512,0 0,0 0.01512,0.01512 0.01512,0.01512 z m 0.01512,0.01512 c 0,0 -0.01512,0 -0.01512,0 0,0 0.01512,0.01512 0.01512,0.01512 z m 0.01512,0.01512 c 0,0 -0.01512,0 -0.01512,0 0,0 0.01512,0.01512 0.01512,0.01512 z m 0.01512,0.01512 c 0,0 -0.01512,0 -0.01512,0 0,0 0.01512,0.01512 0.01512,0.01512 z m 0.01512,0.01512 c 0,0 -0.01512,0 -0.01512,0 0,0 0.01512,0.01512 0.01512,0.01512 z m 0.01512,0.01512 c 0,0 -0.01512,0 -0.01512,0 0,0 0.01512,0.01512 0.01512,0.01512 z m 0.048,0.06387 c 0,0 -0.01512,0 -0.01512,0 0,0 0.01512,0.01512 0.01512,0.01512 z m 0.01512,0.01512 c 0,0 -0.01512,0 -0.01512,0 0,0 0.01512,0.01512 0.01512,0.01512 z m 0.01512,0.01512 c 0,0 -0.01512,0 -0.01512,0 0,0 0.01512,0.01512 0.01512,0.01512 z m 0.01512,0.01512 c 0,0 -0.01512,0 -0.01512,0 0,0 0.01512,0.01512 0.01512,0.01512 z m 0.01512,0.01512 c 0,0 -0.01512,0 -0.01512,0 0,0 0.01512,0.01512 0.01512,0.01512 z m 0.01512,0.01512 c 0,0 -0.01512,0 -0.01512,0 0,0 0.01512,0.01512 0.01512,0.01512 z m 0.01512,0.01512 c 0,0 -0.01512,0 -0.01512,0 0,0 0.01512,0.01512 0.01512,0.01512 z m 0.01512,0.01512 c 0,0 -0.01512,0 -0.01512,0 0,0 0.01512,0.01512 0.01512,0.01512 z m 0.01512,0.01512 c 0,0 -0.01512,0 -0.01512,0 0,0 0.01512,0.01512 0.01512,0.01512 z m 0.048,0.06387 c 0,0 -0.01512,0 -0.01512,0 0,0 0.01512,0.01512 0.01512,0.01512 z m 0.01512,0.01512 c 0,0 -0.01512,0 -0.01512,0 0,0 0.01512,0.01512 0.01512,0.01512 z m 0.01512,0.01512 c 0,0 -0.01512,0 -0.01512,0 0,0 0.01512,0.01512 0.01512,0.01512 z m 0.01512,0.01512 c 0,0 -0.01512,0 -0.01512,0 0,0 0.01512,0.01512 0.01512,0.01512 z m 0.01512,0.01512 c 0,0 -0.01512,0 -0.01512,0 0,0 0.01512,0.01512 0.01512,0.01512 z m 0.01512,0.01512 c 0,0 -0.01512,0 -0.01512,0 0,0 0.01512,0.01512 0.01512,0.01512 z m 0.01512,0.01512 c 0,0 -0.01512,0 -0.01512,0 0,0 0.01512,0.01512 0.01512,0.01512 z m 0.01512,0.01512 c 0,0 -0.01512,0 -0.01512,0 0,0 0.01512,0.01512 0.01512,0.01512 z m 0.01512,0.01512 c 0,0 -0.01512,0 -0.01512,0 0,0 0.01512,0.01512 0.01512,0.01512 z m 0.01512,0.03024 c 0,0 -0.01512,0 -0.01512,0 0,0 0.01512,0.01512 0.01512,0.01512 z m 0.01512,0.01512 c 0,0 -0.01512,0 -0.01512,0 0,0 0.01512,0.01512 0.01512,0.01512 z m 0.01512,0.01512 c 0,0 -0.01512,0 -0.01512,0 0,0 0.01512,0.01512 0.01512,0.01512 z m 0.01512,0.01512 c 0,0 -0.01512,0 -0.01512,0 0,0 0.01512,0.01512 0.01512,0.01512 z m 0.01512,0.01512 c 0,0 -0.01512,0 -0.01512,0 0,0 0.01512,0.01512 0.01512,0.01512 z m 0.01512,0.01512 c 0,0 -0.01512,0 -0.01512,0 0,0 0.01512,0.01512 0.01512,0.01512 z m 0.01512,0.01512 c 0,0 -0.01512,0 -0.01512,0 0,0 0.01512,0.01512 0.01512,0.01512 z m 0.01512,0.01512 c 0,0 -0.01512,0 -0.01512,0 0,0 0.01512,0.01512 0.01512,0.01512 z m 0.03024,0.048 c 0,0 -0.01512,0 -0.01512,0 0,0 0.01512,0.01512 0.01512,0.01512 z m 0.01512,0.01512 c 0,0 -0.01512,0 -0.01512,0 0,0 0.01512,0.01512 0.01512,0.01512 z m 0.01512,0.01512 c 0,0 -0.01512,0 -0.01512,0 0,0 0.01512,0.01512 0.01512,0.01512 z m 0.01512,0.01512 c 0,0 -0.01512,0 -0.01512,0 0,0 0.01512,0.01512 0.01512,0.01512 z m 0.01512,0.01512 c 0,0 -0.01512,0 -0.01512,0 0,0 0.01512,0.01512 0.01512,0.01512 z m 0.01512,0.01512 c 0,0 -0.01512,0 -0.01512,0 0,0 0.01512,0.01512 0.01512,0.01512 z m 0.01512,0.01512 c 0,0 -0.01512,0 -0.01512,0 0,0 0.01512,0.01512 0.01512,0.01512 z m 0.01512,0.01512 c 0,0 -0.01512,0 -0.01512,0 0,0 0.01512,0.01512 0.01512,0.01512 z m 0.01512,0.03024 c 0,0 -0.01512,0 -0.01512,0 0,0 0.01512,0.01512 0.01512,0.01512 z m 0.01512,0.01512 c 0,0 -0.01512,0 -0.01512,0 0,0 0.01512,0.01512 0.01512,0.01512 z m 0.01512,0.01512 c 0,0 -0.01512,0 -0.01512,0 0,0 0.01512,0.01512 0.01512,0.01512 z m 0.01512,0.01512 c 0,0 -0.01512,0 -0.01512,0 0,0 0.01512,0.01512 0.01512,0.01512 z m 0.01512,0.01512 c 0,0 -0.01512,0 -0.01512,0 0,0 0.01512,0.01512 0.01512,0.01512 z m 0.01512,0.01512 c 0,0 -0.01512,0 -0.01512,0 0,0 0.01512,0.01512 0.01512,0.01512 z m 0.01512,0.01512 c 0,0 -0.01512,0 -0.01512,0 0,0 0.01512,0.01512 0.01512,0.01512 z m 0.01512,0.03024 c 0,0 -0.01512,0 -0.01512,0 0,0 0.01512,0.01512 0.01512,0.01512 z m 0.01512,0.01512 c 0,0 -0.01512,0 -0.01512,0 0,0 0.01512,0.01512 0.01512,0.01512 z m 0.01512,0.01512 c 0,0 -0.01512,0 -0.01512,0 0,0 0.01512,0.01512 0.01512,0.01512 z m 0.01512,0.01512 c 0,0 -0.01512,0 -0.01512,0 0,0 0.01512,0.01512 0.01512,0.01512 z m 0.01512,0.01512 c 0,0 -0.01512,0 -0.01512,0 0,0 0.01512,0.01512 0.01512,0.01512 z m 0.01512,0.01512 c 0,0 -0.01512,0 -0.01512,0 0,0 0.01512,0.01512 0.01512,0.01512 z m 0.01512,0.01512 c 0,0 -0.01512,0 -0.01512,0 0,0 0.01512,0.01512 0.01512,0.01512 z m 0.01512,0.03024 c 0,0 -0.01512,0 -0.01512,0 0,0 0.01512,0.01512 0.01512,0.01512 z m 0.01512,0.01512 c 0,0 -0.01512,0 -0.01512,0 0,0 0.01512,0.01512 0.01512,0.01512 z m 0.01512,0.01512 c 0,0 -0.01512,0 -0.01512,0 0,0 0.01512,0.01512 0.01512,0.01512 z m -66.22026,7.024277 c 0,0 -0.01512,0 -0.01512,0 0,0 0.01512,0.01512 0.01512,0.01512 z m -0.01512,0.03024 c 0,0 -0.01512,0 -0.01512,0 0,0 0.01512,0.01512 0.01512,0.01512 z m -0.01512,0.03024 c 0,0 -0.01512,0 -0.01512,0 0,0 0.01512,0.01512 0.01512,0.01512 z m -1.35991,2.784184 c -0.06501,0.06803 -0.114897,0.214299 -0.153448,0.303874 0,0 -0.251338,0.592024 -0.251338,0.592024 -0.02646,0.0582 -0.122079,0.268346 -0.110362,0.320125 0.01134,0.05518 0.187464,0.215811 0.23622,0.272126 0,0 0.37455,0.384037 0.37455,0.384037 0,0 0.352252,0.368125 0.352252,0.368125 0,0 0.224503,0.24 0.224503,0.24 0,0 0.318614,0.320125 0.318614,0.320125 0,0 0.129259,0.144 0.129259,0.144 0,0 0.30274,0.303873 0.30274,0.303873 0,0 1.473181,1.536111 1.473181,1.536111 0,0 0.782663,0.800049 0.782663,0.800049 0,0 2.497167,2.592146 2.497167,2.592146 0,0 0.830626,0.848049 0.830626,0.848049 0,0 1.633206,1.696059 1.633206,1.696059 0,0 0.366614,0.368126 0.366614,0.368126 0,0 2.080512,2.144084 2.080512,2.144084 0,0 0.16063,0.176126 0.16063,0.176126 0,0 0.414727,0.416049 0.414727,0.416049 0,0 0.129259,0.144 0.129259,0.144 0,0 0.399155,0.399987 0.399155,0.399987 0,0 0.144756,0.159873 0.144756,0.159873 0,0 0.41518,0.41605 0.41518,0.41605 0,0 0.144756,0.159874 0.144756,0.159874 0,0 0.447193,0.448062 0.447193,0.448062 0,0 0.160252,0.176125 0.160252,0.176125 0,0 0.463142,0.46405 0.463142,0.46405 0.06312,0.06576 0.233574,0.272125 0.304629,0.302362 0.04649,0.0189 0.09865,-0.0038 0.144,-0.0189 0,0 0.320125,-0.09827 0.320125,-0.09827 0,0 0.895974,-0.281575 0.895974,-0.281575 0,0 0.415974,-0.127748 0.415974,-0.127748 0,0 -0.511974,-0.527999 -0.511974,-0.527999 0,0 -0.783986,-0.783872 -0.783986,-0.783872 0,0 -0.303874,-0.288 -0.303874,-0.288 0,0 -2.367869,-2.368096 -2.367869,-2.368096 0,0 -0.192,-0.176126 -0.192,-0.176126 0,0 -0.879986,-0.879834 -0.879986,-0.879834 0,0 -1.599871,-1.600098 -1.599871,-1.600098 0,0 -0.176125,-0.16063 -0.176125,-0.16063 0,0 -0.447987,-0.447344 -0.447987,-0.447344 0,0 -2.063845,-2.063958 -2.063845,-2.063958 0,0 -0.191999,-0.176126 -0.191999,-0.176126 0,0 -2.495882,-2.495995 -2.495882,-2.495995 0,0 -0.192,-0.176126 -0.192,-0.176126 0,0 -2.479857,-2.480083 -2.479857,-2.480083 0,0 -0.192,-0.176126 -0.192,-0.176126 z m -1.98387,5.536242 c -0.05745,0.0669 -0.08504,0.229795 -0.109606,0.320125 0,0 -0.184441,0.720037 -0.184441,0.720037 -0.01512,0.06765 -0.08202,0.279684 -0.06387,0.335999 0.0189,0.05934 0.148157,0.172346 0.196157,0.224126 0,0 0.49746,0.512011 0.49746,0.512011 0,0 0.25663,0.272126 0.25663,0.272126 0,0 0.51118,0.511974 0.51118,0.511974 0,0 0.144755,0.159873 0.144755,0.159873 0,0 0.52713,0.527999 0.52713,0.527999 0,0 0.24,0.255874 0.24,0.255874 0,0 1.248564,1.280086 1.248564,1.280086 0,0 0.574676,0.576036 0.574676,0.576036 0,0 0.144756,0.159874 0.144756,0.159874 0,0 0.55918,0.560049 0.55918,0.560049 0,0 0.144756,0.159874 0.144756,0.159874 0,0 0.543608,0.543987 0.543608,0.543987 0,0 0.160252,0.176125 0.160252,0.176125 0,0 0.591646,0.591986 0.591646,0.591986 0,0 0.160252,0.176126 0.160252,0.176126 0,0 0.607142,0.608012 0.607142,0.608012 0,0 0.144755,0.159873 0.144755,0.159873 0,0 0.607143,0.60805 0.607143,0.60805 0,0 0.144755,0.159873 0.144755,0.159873 0,0 0.639155,0.640062 0.639155,0.640062 0,0 0.129259,0.144 0.129259,0.144 0,0 0.687117,0.688099 0.687117,0.688099 0,0 0.192,0.207874 0.192,0.207874 0,0 0.685265,0.688062 0.685265,0.688062 0,0 0.498708,0.512011 0.498708,0.512011 0.04611,0.04611 0.167432,0.181417 0.224125,0.195401 0.03402,0.0076 0.09298,-0.01134 0.128126,-0.02268 0,0 0.287999,-0.08693 0.287999,-0.08693 0,0 1.119986,-0.342802 1.119986,-0.342802 0,0 -0.432,-0.448062 -0.432,-0.448062 0,0 -0.831985,-0.832024 -0.831985,-0.832024 0,0 -0.591949,-0.591873 -0.591949,-0.591873 0,0 -0.192,-0.176125 -0.192,-0.176125 0,0 -1.871883,-1.87211 -1.871883,-1.87211 z m -1.039973,4.800218 c -0.10885,0.03024 -0.326172,0.151558 -0.431961,0.210141 0,0 -0.591949,0.3137 -0.591949,0.3137 -0.872615,0.450406 -1.726485,0.944465 -2.575894,1.437465 -1.548696,0.898808 -3.059824,1.863795 -4.511727,2.912159 -1.333831,0.963097 -2.625746,2.012406 -3.77559,3.190898 0,0 -0.656956,0.720036 -0.656956,0.720036 -0.443829,0.499843 -0.867929,1.074744 -1.211941,1.64806 -0.209764,0.349983 -0.402519,0.682581 -0.403162,1.103998 -9.44e-4,0.655293 0.317858,1.227323 0.943973,1.480929 0.324661,0.131528 0.602834,0.145134 0.943936,0.168568 0,0 0.191999,0.01512 0.191999,0.01512 0,0 0.575961,0.01512 0.575961,0.01512 0,0 0.272126,-0.01512 0.272126,-0.01512 0,0 0.287999,0 0.287999,0 0,0 0.320126,-0.01512 0.320126,-0.01512 0,0 0.159874,-0.01512 0.159874,-0.01512 0,0 0.623998,-0.04687 0.623998,-0.04687 0,0 1.743871,-0.206362 1.743871,-0.206362 1.714013,-0.247181 3.416498,-0.590097 5.103751,-0.97848 0,0 2.14382,-0.511823 2.14382,-0.511823 0,0 0.527999,-0.132283 0.527999,-0.132283 0.08353,-0.02268 0.172346,-0.0669 0.255873,-0.03024 0,0 -0.08013,-0.60805 -0.08013,-0.60805 0,0 0.303873,0.303873 0.303873,0.303873 0,0 0.159874,0.133039 0.159874,0.133039 0,0 0.335999,-0.07106 0.335999,-0.07106 0,0 0.895935,-0.238111 0.895935,-0.238111 0,0 -0.511936,-0.527998 -0.511936,-0.527998 0,0 -0.239999,-0.255874 -0.239999,-0.255874 0,0 -0.591798,-0.591985 -0.591798,-0.591985 0,0 -0.335999,-0.336001 -0.335999,-0.336001 0,0 -0.175748,-0.191999 -0.175748,-0.191999 0,0 -0.03402,-0.320126 -0.03402,-0.320126 0,0 -0.03024,-0.432075 -0.03024,-0.432075 0,0 -0.01512,-0.383999 -0.01512,-0.383999 0,0 -0.01512,-0.255873 -0.01512,-0.255873 0,0 0,-0.192 0,-0.192 0,0 -0.01512,-0.176126 -0.01512,-0.176126 0,0 0,-0.320125 0,-0.320125 0,0 -0.01512,-0.272125 -0.01512,-0.272125 0,0 0,-1.440036 0,-1.440036 0,0 0.01512,-0.239999 0.01512,-0.239999 0,0 0,-0.303874 0,-0.303874 0,0 0.01512,-0.191999 0.01512,-0.191999 0,0 0,-0.192 0,-0.192 0,0 0.01512,-0.351873 0.01512,-0.351873 0,0 0.01512,-0.207874 0.01512,-0.207874 0,0 0.03024,-0.544061 0.03024,-0.544061 0,0 0.687797,0.688062 0.687797,0.688062 0,0 0.176126,0.191999 0.176126,0.191999 0,0 1.135745,1.136086 1.135745,1.136086 0,0 0.160252,0.176126 0.160252,0.176126 0,0 1.231784,1.232048 1.231784,1.232048 0,0 0.176125,0.192 0.176125,0.192 0,0 1.087784,1.088085 1.087784,1.088085 0,0 0.416163,0.431999 0.416163,0.431999 0,0 0.847784,0.848011 0.847784,0.848011 0,0 0.336,0.336 0.336,0.336 0,0 0.176125,0.148914 0.176125,0.148914 0,0 0.128126,-0.0189 0.128126,-0.0189 0,0 0.255874,-0.07295 0.255874,-0.07295 0,0 0.97591,-0.281196 0.97591,-0.281196 0,0 -0.623961,-0.640062 -0.623961,-0.640062 0,0 -1.215872,-1.21606 -1.215872,-1.21606 0,0 -0.655823,-0.656012 -0.655823,-0.656012 0,0 -0.176125,-0.191999 -0.176125,-0.191999 0,0 -2.831844,-2.832109 -2.831844,-2.832109 0,0 -1.535921,-1.536071 -1.535921,-1.536071 0,0 -0.416012,-0.416013 -0.416012,-0.416013 0,0 -0.181795,-0.207873 -0.181795,-0.207873 0,0 0.03779,-0.384 0.03779,-0.384 0,0 0.06085,-0.479999 0.06085,-0.479999 z m -0.048,11.296533 c 0,0 0,0.08013 0,0.08013 z m 0.01512,0.111874 c 0,0 0,0.08013 0,0.08013 z m 0.01512,0.111873 c 0,0 0,0.08013 0,0.08013 z m 0.01512,0.111874 c 0,0 0,0.08013 0,0.08013 z m 0.01512,0.111874 c 0,0 0,0.08013 0,0.08013 z m 0.03024,0.207874 c 0,0 0,0.08013 0,0.08013 z m 0.01512,0.096 c 0,0 0,0.08012 0,0.08012 z m 0.831986,3.952169 c 0,0 -0.01512,0 -0.01512,0 0,0 0.01512,0.01512 0.01512,0.01512 z m 0.01512,0.06387 c 0,0 -0.01512,0 -0.01512,0 0,0 0.01512,0.01512 0.01512,0.01512 z m 0.01512,0.06387 c 0,0 -0.01512,0 -0.01512,0 0,0 0.01512,0.01512 0.01512,0.01512 z m 0.03024,0.111874 c 0,0 -0.01512,0 -0.01512,0 0,0 0.01512,0.01512 0.01512,0.01512 z m 0.03024,0.111874 c 0,0 -0.01512,0 -0.01512,0 0,0 0.01512,0.01512 0.01512,0.01512 z m 0.01512,0.06387 c 0,0 -0.01512,0 -0.01512,0 0,0 0.01512,0.01512 0.01512,0.01512 z m 0.03024,0.111874 c 0,0 -0.01512,0 -0.01512,0 0,0 0.01512,0.01512 0.01512,0.01512 z m 0.096,0.335999 c 0,0 -0.01512,0 -0.01512,0 0,0 0.01512,0.01512 0.01512,0.01512 z"/>
</svg>
