<?xml version="1.0" encoding="UTF-8" standalone="no"?>
<svg
     id="32xicon"
     width="128"
     height="128"
     version="1.1"
     xmlns="http://www.w3.org/2000/svg"
     xmlns:svg="http://www.w3.org/2000/svg">
    <path
         id="32xicon02"
         fill="#000000"
         d="m 4.013819,50.9245 c 0,0 0.6644584,-0.249506 0.6644584,-0.249506 0,0 1.487118,-0.476781 1.487118,-0.476781 0.7089122,-0.209865 1.4165564,-0.414756 2.135751,-0.589331 0.9023984,-0.218883 1.8111206,-0.395945 2.7211116,-0.580939 1.328437,-0.270182 2.673648,-0.483308 4.018381,-0.657265 0,0 1.518757,-0.184835 1.518757,-0.184835 0,0 1.012508,-0.103533 1.012508,-0.103533 0,0 1.139072,-0.08177 1.139072,-0.08177 0,0 0.806836,-0.04524 0.806836,-0.04524 0,0 0.158208,-0.01492 0.158208,-0.01492 0,0 0.20566,0 0.20566,0 0,0 0.237306,-0.01678 0.237306,-0.01678 0,0 0.253128,0 0.253128,0 0,0 0.18984,-0.01492 0.18984,-0.01492 0,0 0.379694,0 0.379694,0 0,0 0.268946,-0.01555 0.268946,-0.01555 0,0 1.408016,0 1.408016,0 0,0 0.268948,0.01555 0.268948,0.01555 0,0 0.711918,0.01555 0.711918,0.01555 0,0 0.237306,0.01555 0.237306,0.01555 0,0 0.72774,0.04524 0.72774,0.04524 0.720302,0.04835 1.43475,0.122034 2.15157,0.214683 1.337618,0.173024 2.6659,0.434189 3.955104,0.827955 0,0 0.585358,0.187637 0.585358,0.187637 1.885472,0.677164 3.77411,1.601034 5.15887,3.061691 0.720146,0.759556 1.253764,1.514138 1.596438,2.502833 0.189686,0.547516 0.293312,1.118968 0.333652,1.694462 0,0 0.01442,0.186548 0.01442,0.186548 0,0 0,0.202092 0,0.202092 0,0 0.0144,0.202095 0.0144,0.202095 0,0 -0.0144,0.186542 -0.0144,0.186542 0,0 0,0.217639 0,0.217639 0,0 -0.01442,0.155452 -0.01442,0.155452 -0.03638,0.522646 -0.12118,1.036113 -0.274802,1.539012 -0.235088,0.769971 -0.616682,1.589531 -1.076736,2.254102 -0.557352,0.804794 -1.287938,1.45413 -2.114556,1.984544 0,0 -0.680272,0.404807 -0.680272,0.404807 0,0 -0.442974,0.237847 -0.442974,0.237847 0.171652,0.0078 0.626646,0.122964 0.806844,0.173175 0.764756,0.212975 1.347258,0.481291 2.009186,0.915013 0.557668,0.365318 1.066926,0.799197 1.496136,1.305822 0.384276,0.45378 0.731534,0.954653 0.982766,1.492374 0.221166,0.47305 0.372886,0.97253 0.501186,1.476825 0.11011,0.432793 0.18605,0.860912 0.217056,1.305827 0,0 0.0144,0.186549 0.0144,0.186549 0,0 0,0.59073 0,0.59073 0,0 -0.01582,0.295364 -0.01582,0.295364 0,0 -0.01442,0.170996 -0.01442,0.170996 0,0 -0.09208,0.839463 -0.09208,0.839463 -0.133682,0.910968 -0.449294,1.926091 -0.895116,2.736016 -0.575388,1.045434 -1.303126,1.874478 -2.257412,2.605118 -1.514808,1.159697 -3.381294,1.830329 -5.220734,2.305403 -1.489014,0.384594 -3.228312,0.656956 -4.76194,0.807591 0,0 -0.601176,0.05192 -0.601176,0.05192 0,0 -1.21817,0.09203 -1.21817,0.09203 0,0 -0.474612,0.02969 -0.474612,0.02969 0,0 -0.174024,0.01557 -0.174024,0.01557 0,0 -0.189848,0 -0.189848,0 0,0 -0.189844,0.01557 -0.189844,0.01557 0,0 -0.506252,0.01557 -0.506252,0.01557 0,0 -0.268948,0.01557 -0.268948,0.01557 0,0 -0.25312,0 -0.25312,0 0,0 -0.25313,0.01557 -0.25313,0.01557 0,0 -0.427152,0 -0.427152,0 0,0 -0.268944,0.01557 -0.268944,0.01557 0,0 -1.93009,0 -1.93009,0 0,0 -0.268948,-0.01557 -0.268948,-0.01557 0,0 -0.30059,0 -0.30059,0 0,0 -0.189846,-0.01493 -0.189846,-0.01493 0,0 -0.20566,0 -0.20566,0 0,0 -0.189848,-0.01557 -0.189848,-0.01557 0,0 -0.174022,0 -0.174022,0 0,0 -0.221486,-0.01616 -0.221486,-0.01616 0,0 -0.332226,-0.01557 -0.332226,-0.01557 0,0 -0.158208,-0.01416 -0.158208,-0.01416 0,0 -0.442972,-0.03109 -0.442972,-0.03109 0,0 -1.487114,-0.13882 -1.487114,-0.13882 -0.837058,-0.08799 -1.670162,-0.214685 -2.499624,-0.356151 0,0 -1.550401,-0.283699 -1.550401,-0.283699 -1.392353,-0.283091 -2.767305,-0.611722 -4.1291236,-1.014817 0,0 -1.7244246,-0.544557 -1.7244246,-0.544557 0,0 -1.2972718,-0.468548 -1.2972718,-0.468548 -0.6019672,-0.236603 -1.5366372,-0.66006 -2.1041148,-0.961647 0,0 -0.7119192,-0.399365 -0.7119192,-0.399365 0,0 -0.1898428,0.357548 -0.1898428,0.357548 0,0 -0.300589,0.528545 -0.300589,0.528545 0,0 -0.3796874,-0.195557 -0.3796874,-0.195557 0,0 -0.6169968,-0.337655 -0.6169968,-0.337655 0,0 -0.2213284,-0.123272 -0.2213284,-0.123272 0,0 -0.0746726,-0.07571 -0.0746726,-0.07571 0,0 0.1014096,-0.200538 0.1014096,-0.200538 0,0 0.2828682,-0.497458 0.2828682,-0.497458 0,0 1.037185,-1.818829 1.037185,-1.818829 0,0 2.63758,-4.632567 2.63758,-4.632567 0,0 0.8770826,-1.539006 0.8770826,-1.539006 0,0 0.3591228,-0.637372 0.3591228,-0.637372 0,0 0.4429712,0.226653 0.4429712,0.226653 0,0 0.8701222,0.472898 0.8701222,0.472898 0,0 -0.23256,0.435276 -0.23256,0.435276 0,0 -0.463537,0.808368 -0.463537,0.808368 0,0 0.696097,0.369207 0.696097,0.369207 0.4222464,0.207378 0.8599978,0.394855 1.297273,0.56974 0.6919844,0.276711 1.40849,0.506322 2.1199334,0.729712 1.487433,0.46714 2.989108,0.882364 4.508813,1.236489 1.360082,0.316974 2.729969,0.598661 4.113305,0.798886 0.62016,0.08969 1.537426,0.206448 2.151578,0.21344 0,0 0.237304,0.01557 0.237304,0.01557 0,0 1.154886,0 1.154886,0 0,0 0.26895,-0.01557 0.26895,-0.01557 0,0 0.569532,-0.01557 0.569532,-0.01557 0,0 0.158206,-0.01557 0.158206,-0.01557 0,0 0.158204,0 0.158204,0 0,0 0.110744,-0.01557 0.110744,-0.01557 0,0 0.142382,0 0.142382,0 0,0 0.680278,-0.05954 0.680278,-0.05954 1.131472,-0.107729 2.103482,-0.243908 3.19572,-0.577517 0.284766,-0.08691 0.566368,-0.185927 0.838478,-0.306558 0.595802,-0.263965 1.374004,-0.724736 1.656244,-1.326033 0.132254,-0.28169 0.150768,-0.48922 0.147286,-0.792826 -0.0023,-0.174731 -0.04746,-0.420662 -0.09302,-0.590729 -0.03908,-0.145196 -0.08812,-0.255258 -0.156152,-0.388638 -0.533306,-1.04544 -1.875032,-1.342515 -2.946548,-1.532482 0,0 -0.648638,-0.09561 -0.648638,-0.09561 -0.45642,-0.06404 -0.917108,-0.09903 -1.37637,-0.12996 0,0 -0.474618,-0.02969 -0.474618,-0.02969 0,0 -0.158204,-0.01493 -0.158204,-0.01493 0,0 -0.158202,0 -0.158202,0 0,0 -0.237308,-0.01677 -0.237308,-0.01677 0,0 -0.237302,0 -0.237302,0 0,0 -0.189844,-0.01493 -0.189844,-0.01493 0,0 -0.363868,0 -0.363868,0 0,0 -0.268952,-0.01557 -0.268952,-0.01557 0,0 -2.199032,0 -2.199032,0 0,0 -7.229923,0 -7.229923,0 0,0 0,1.849918 0,1.849918 0,0 -1.50294,0 -1.50294,0 0,0 0,-1.849918 0,-1.849918 0,0 -0.06328,0 -0.06328,0 0,0 0,-7.057672 0,-7.057672 0,0 0.06328,0 0.06328,0 0,0 0,-1.803285 0,-1.803285 0,0 1.50294,0 1.50294,0 0,0 0,1.803285 0,1.803285 0,0 5.869363,0 5.869363,0 0,0 2.942596,0 2.942596,0 0,0 0.237308,-0.01556 0.237308,-0.01556 0,0 0.64864,0 0.64864,0 0,0 0.237302,-0.01556 0.237302,-0.01556 0,0 0.189846,0 0.189846,0 0,0 0.316408,-0.01556 0.316408,-0.01556 0,0 0.30059,-0.01556 0.30059,-0.01556 0,0 0.395508,-0.02969 0.395508,-0.02969 0.50356,-0.03404 1.003488,-0.08969 1.502936,-0.165872 0.8176,-0.124673 1.741354,-0.322879 2.483806,-0.686646 0.22575,-0.110684 0.493118,-0.260697 0.680276,-0.426257 0.324316,-0.28666 0.502454,-0.578451 0.607028,-0.992272 0.025,-0.09856 0.05616,-0.273291 0.05743,-0.373096 0.0035,-0.293963 -0.0025,-0.466207 -0.117864,-0.746182 -0.228604,-0.554666 -0.846864,-0.961026 -1.385076,-1.19483 0,0 -0.69609,-0.270494 -0.69609,-0.270494 -0.725372,-0.230696 -1.582362,-0.374804 -2.341422,-0.449421 0,0 -0.854306,-0.07648 -0.854306,-0.07648 0,0 -0.42715,-0.02969 -0.42715,-0.02969 0,0 -0.158206,-0.01555 -0.158206,-0.01555 0,0 -0.174022,0 -0.174022,0 0,0 -0.189844,-0.01617 -0.189844,-0.01617 0,0 -0.189846,0 -0.189846,0 0,0 -0.158206,-0.01492 -0.158206,-0.01492 0,0 -0.253126,0 -0.253126,0 0,0 -0.268944,-0.01555 -0.268944,-0.01555 0,0 -1.977552,0 -1.977552,0 0,0 -0.2373,0.01555 -0.2373,0.01555 0,0 -0.458798,0.01555 -0.458798,0.01555 0,0 -0.284764,0.01555 -0.284764,0.01555 0,0 -0.158204,0.01415 -0.158204,0.01415 0,0 -0.427154,0.03109 -0.427154,0.03109 -0.602756,0.04073 -1.205194,0.112705 -1.803526,0.199295 -1.545333,0.2237 -3.069947,0.54067 -4.572093,0.961489 -1.352329,0.378845 -2.18116,0.652135 -3.4804882,1.196853 0,0 -0.6011768,0.251836 -0.6011768,0.251836 0,0 -0.917582,0.419263 -0.917582,0.419263 0,0 -0.2373048,0.10913 -0.2373048,0.10913 -0.030535,0.0154 -0.076256,0.0356 -0.089389,0.06918 -0.01313,0.03343 0.00855,0.07493 0.021676,0.105554 0,0 0.094923,0.217639 0.094923,0.217639 0,0 0.3841172,0.886096 0.3841172,0.886096 0,0 -0.743557,0.315574 -0.743557,0.315574 0,0 -0.6486388,0.259613 -0.6486388,0.259613 0,0 -0.1605756,-0.388642 -0.1605756,-0.388642 0,0 -0.2757506,-0.637368 -0.2757506,-0.637368 0,0 -0.9017636,-2.083102 -0.9017636,-2.083102 0,0 -2.9175978,-6.746763 -2.9175978,-6.746763 0,0 0.806843,-0.342156 0.806843,-0.342156 0,0 0.5695348,-0.233029 0.5695348,-0.233029 0,0 0.2562882,0.575185 0.2562882,0.575185 z m 40.183823,1.694463 c 0,0 0.47461,-0.253548 0.47461,-0.253548 0.581238,-0.308889 1.183526,-0.585601 1.787706,-0.84801 0,0 0.838476,-0.359567 0.838476,-0.359567 1.2408,-0.503055 2.517508,-0.917029 3.812718,-1.261677 2.217074,-0.589952 4.47686,-0.997712 6.755316,-1.276754 0.852878,-0.104466 1.706228,-0.188099 2.562904,-0.245775 0,0 0.569532,-0.04524 0.569532,-0.04524 0,0 0.142388,0 0.142388,0 0,0 0.158204,-0.01555 0.158204,-0.01555 0,0 0.363868,-0.01555 0.363868,-0.01555 0,0 0.174024,-0.01492 0.174024,-0.01492 0,0 0.174028,0 0.174028,0 0,0 0.237304,-0.01678 0.237304,-0.01678 0,0 0.205666,0 0.205666,0 0,0 0.189842,-0.01492 0.189842,-0.01492 0,0 0.221484,0 0.221484,0 0,0 0.237308,-0.01556 0.237308,-0.01556 0,0 0.316408,0 0.316408,0 0,0 0.268948,-0.01555 0.268948,-0.01555 0,0 0.775202,0 0.775202,0 0,0 0.26894,-0.01555 0.26894,-0.01555 0,0 0.696102,0 0.696102,0 0,0 0.253128,0.01555 0.253128,0.01555 0,0 0.411328,0 0.411328,0 0,0 0.158206,0.01492 0.158206,0.01492 0,0 0.205666,0 0.205666,0 0,0 0.205662,0.01617 0.205662,0.01617 0,0 0.45879,0.02969 0.45879,0.02969 0,0 0.71192,0.06094 0.71192,0.06094 1.105844,0.108663 2.203784,0.309667 3.274828,0.602388 0,0 0.585348,0.157633 0.585348,0.157633 0.768714,0.224165 1.533156,0.48844 2.26232,0.817539 1.998114,0.901642 3.72302,2.183215 4.831866,4.083657 0.31625,0.542073 0.525082,0.976727 0.726314,1.570097 0.208518,0.614672 0.330648,1.251108 0.375892,1.896556 0,0 0.01504,0.155456 0.01504,0.155456 0,0 0,0.186547 0,0.186547 0,0 0.01518,0.186547 0.01518,0.186547 0,0 -0.01582,0.792823 -0.01582,0.792823 0,0 -0.01582,0.264272 -0.01582,0.264272 0,0 -0.0144,0.171001 -0.0144,0.171001 0,0 -0.06028,0.637368 -0.06028,0.637368 -0.15393,1.225609 -0.482524,2.40272 -1.196338,3.435565 -0.800194,1.15752 -1.845766,1.935107 -3.0796,2.600768 -1.217222,0.656798 -2.520346,1.14586 -3.844358,1.550204 0,0 -2.73693,0.827952 -2.73693,0.827952 0,0 -2.926774,0.826089 -2.926774,0.826089 0,0 -4.36643,1.243642 -4.36643,1.243642 0,0 -1.756064,0.526374 -1.756064,0.526374 -1.161692,0.343869 -2.313576,0.734218 -3.448846,1.155032 0,0 -1.12325,0.443979 -1.12325,0.443979 -0.154252,0.067 -0.4743,0.204118 -0.601176,0.293188 0,0 24.078652,0 24.078652,0 0,0 0,-1.476829 0,-1.476829 0,0 1.502938,0 1.502938,0 0,0 0,10.710879 0,10.710879 0,0 -1.502938,0 -1.502938,0 0,0 0,-1.165913 0,-1.165913 0,0 -36.355284,0 -36.355284,0 0,0 0,-7.974859 0,-7.974859 4e-4,-0.183594 0.0954,-0.23365 0.221486,-0.357547 0,0 0.506252,-0.513006 0.506252,-0.513006 0.756536,-0.743389 1.550876,-1.452573 2.373064,-2.125854 1.83959,-1.506515 3.853372,-2.817937 5.995932,-3.870526 1.832158,-0.900242 4.09337,-1.738767 6.04339,-2.377532 1.40675,-0.460772 2.827106,-0.882987 4.255686,-1.273334 0,0 1.233996,-0.319772 1.233996,-0.319772 0.895276,-0.238004 1.78802,-0.488597 2.673646,-0.75909 0.64848,-0.197895 1.292842,-0.401072 1.930088,-0.632704 0,0 0.727736,-0.295677 0.727736,-0.295677 0.458954,-0.203334 0.973906,-0.45222 1.376378,-0.748827 0.326852,-0.240956 0.590888,-0.525595 0.705116,-0.91921 0.05379,-0.184834 0.05648,-0.292877 0.05426,-0.481911 -0.0033,-0.275777 -0.13115,-0.567257 -0.284768,-0.792819 -0.314982,-0.462327 -0.92359,-0.877394 -1.439656,-1.101561 -0.615092,-0.267226 -1.281924,-0.402626 -1.945906,-0.488438 0,0 -0.965048,-0.09032 -0.965048,-0.09032 0,0 -0.60117,-0.02969 -0.60117,-0.02969 0,0 -0.26895,-0.01555 -0.26895,-0.01555 0,0 -1.20235,0 -1.20235,0 0,0 -0.237308,0.01555 -0.237308,0.01555 0,0 -0.205664,0 -0.205664,0 0,0 -0.316406,0.01555 -0.316406,0.01555 0,0 -0.30059,0.01555 -0.30059,0.01555 0,0 -0.363866,0.02969 -0.363866,0.02969 0,0 -0.74356,0.06094 -0.74356,0.06094 -0.843072,0.08286 -1.681236,0.205822 -2.515446,0.353659 -1.043196,0.184837 -2.075004,0.392683 -3.100796,0.657578 -1.838964,0.475072 -3.872678,1.201358 -5.600424,1.980969 0,0 -0.253126,0.122963 -0.253126,0.122963 -0.551342,0.256037 -1.096354,0.527461 -1.6295,0.818318 0,0 -0.75938,0.428433 -0.75938,0.428433 0,0 -0.284768,0.164474 -0.284768,0.164474 0,0 0.411488,0.948278 0.411488,0.948278 0,0 0.189684,0.466365 0.189684,0.466365 0,0 -1.376372,0.559639 -1.376372,0.559639 0,0 -2.96506,-6.855581 -2.96506,-6.855581 0,0 -0.861104,-1.989827 -0.861104,-1.989827 0,0 -0.275752,-0.637369 -0.275752,-0.637369 0,0 -0.153776,-0.388637 -0.153776,-0.388637 0,0 1.376384,-0.55964 1.376384,-0.55964 z m 39.551004,-4.290568 c 0,0 15.567276,0 15.567276,0 0,0 0,1.461282 0,1.461282 0,0 -1.756064,0 -1.756064,0 0,0 0.29932,0.357547 0.29932,0.357547 0,0 0.611616,0.715094 0.611616,0.715094 0,0 1.888006,2.207468 1.888006,2.207468 0,0 2.77901,3.249016 2.77901,3.249016 0,0 0.91759,1.072644 0.91759,1.072644 0,0 0.56035,0.652912 0.56035,0.652912 0,0 0.377,-0.419731 0.377,-0.419731 0,0 0.60118,-0.652913 0.60118,-0.652913 0,0 1.77188,-1.927647 1.77188,-1.927647 0,0 3.1008,-3.37338 3.1008,-3.37338 0,0 1.32891,-1.445737 1.32891,-1.445737 0,0 0.3982,-0.435273 0.3982,-0.435273 0,0 -1.66113,0 -1.66113,0 0,0 0,-1.461282 0,-1.461282 0,0 15.56727,0 15.56727,0 0,0 0,1.461282 0,1.461282 0,0 -2.18322,0 -2.18322,0 -0.19601,3.95e-4 -0.21737,0.103222 -0.34804,0.233184 0,0 -0.48981,0.497454 -0.48981,0.497454 0,0 -0.19048,0.202095 -0.19048,0.202095 0,0 -0.90239,0.932731 -0.90239,0.932731 0,0 -1.50167,1.539008 -1.50167,1.539008 0,0 -0.44424,0.466367 -0.44424,0.466367 0,0 -6.35853,6.54467 -6.35853,6.54467 0,0 -0.76065,0.792825 -0.76065,0.792825 0,0 -1.50167,1.539007 -1.50167,1.539007 0,0 -0.64864,0.668457 -0.64864,0.668457 0,0 -0.23793,0.248729 -0.23793,0.248729 0,0 0.41781,0.481913 0.41781,0.481913 0,0 0.82282,0.979368 0.82282,0.979368 0,0 2.34142,2.782649 2.34142,2.782649 0,0 1.95113,2.316288 1.95113,2.316288 0,0 5.06253,6.016126 5.06253,6.016126 0,0 2.74484,3.264561 2.74484,3.264561 0,0 0.65433,0.777274 0.65433,0.777274 0.0492,0.05938 0.17924,0.231005 0.24363,0.254947 0.0299,0.01106 0.0781,0.0093 0.11059,0.0093 0,0 1.66114,0 1.66114,0 0,0 0,1.461281 0,1.461281 0,0 -15.56728,0 -15.56728,0 0,0 0,-1.461281 0,-1.461281 0,0 1.32892,0 1.32892,0 0,0 -0.33619,-0.404181 -0.33619,-0.404181 0,0 -0.65385,-0.761735 -0.65385,-0.761735 0,0 -1.94591,-2.269647 -1.94591,-2.269647 0,0 -3.55959,-4.15066 -3.55959,-4.15066 0,0 -1.57287,-1.834372 -1.57287,-1.834372 0,0 -0.2623,0.310909 -0.2623,0.310909 0,0 -0.57175,0.637368 -0.57175,0.637368 0,0 -1.89845,2.114192 -1.89845,2.114192 0,0 -1.995266,2.223015 -1.995266,2.223015 0,0 -1.534578,1.710008 -1.534578,1.710008 0,0 -1.297274,1.445735 -1.297274,1.445735 0,0 -0.587886,0.652913 -0.587886,0.652913 0,0 2.388884,0 2.388884,0 0,0 0,1.476827 0,1.476827 0,0 -15.567276,0 -15.567276,0 0,0 0,-1.476827 0,-1.476827 0,0 1.376372,0 1.376372,0 0,0 0.110114,-0.0093 0.110114,-0.0093 0,0 0.242368,-0.2394 0.242368,-0.2394 0,0 0.648638,-0.699549 0.648638,-0.699549 0,0 1.258508,-1.352463 1.258508,-1.352463 0,0 1.38049,-1.492364 1.38049,-1.492364 0,0 1.28272,-1.383559 1.28272,-1.383559 0,0 2.119932,-2.285195 2.119932,-2.285195 0,0 4.503438,-4.850209 4.503438,-4.850209 0,0 1.629498,-1.756646 1.629498,-1.756646 0,0 0.648636,-0.699548 0.648636,-0.699548 0,0 0.429842,-0.466364 0.429842,-0.466364 0,0 -0.350578,-0.373097 -0.350578,-0.373097 0,0 -0.727584,-0.808365 -0.727584,-0.808365 0,0 -2.16755,-2.409559 -2.16755,-2.409559 0,0 -3.733616,-4.150661 -3.733616,-4.150661 0,0 -1.930088,-2.145281 -1.930088,-2.145281 0,0 -1.163748,-1.290281 -1.163748,-1.290281 0,0 -2.599768,-2.89147 -2.599768,-2.89147 0,0 -0.616206,-0.684003 -0.616206,-0.684003 0,0 -0.222906,-0.223858 -0.222906,-0.223858 0,0 -0.109322,-0.0093 -0.109322,-0.0093 0,0 -1.170708,0 -1.170708,0 z" />
    <path
         id="32xicon01"
         fill="#aa0000"
         d="m 5.4709936,49.031393 c 0,0 0.664458,-0.249507 0.664458,-0.249507 0,0 1.4871184,-0.47678 1.4871184,-0.47678 0.7089128,-0.209866 1.4165568,-0.414757 2.1357512,-0.589331 0.9023988,-0.218882 1.8111208,-0.395946 2.7211118,-0.580937 1.328437,-0.270184 2.673647,-0.483311 4.018381,-0.657266 0,0 1.518754,-0.184837 1.518754,-0.184837 0,0 1.012508,-0.103533 1.012508,-0.103533 0,0 1.139072,-0.08177 1.139072,-0.08177 0,0 0.806834,-0.04523 0.806834,-0.04523 0,0 0.15821,-0.01492 0.15821,-0.01492 0,0 0.205662,0 0.205662,0 0,0 0.237308,-0.0168 0.237308,-0.0168 0,0 0.253128,0 0.253128,0 0,0 0.18984,-0.01492 0.18984,-0.01492 0,0 0.379694,0 0.379694,0 0,0 0.268944,-0.01555 0.268944,-0.01555 0,0 1.408018,0 1.408018,0 0,0 0.268946,0.01555 0.268946,0.01555 0,0 0.711916,0.01555 0.711916,0.01555 0,0 0.237308,0.01555 0.237308,0.01555 0,0 0.72774,0.04524 0.72774,0.04524 0.720298,0.04834 1.43475,0.122031 2.151574,0.214682 1.337614,0.173021 2.665894,0.434187 3.955098,0.827956 0,0 0.585358,0.187635 0.585358,0.187635 1.885476,0.677162 3.774114,1.601036 5.158874,3.061691 0.720142,0.759557 1.253766,1.514135 1.596436,2.502834 0.189688,0.547513 0.29331,1.118967 0.333648,1.694462 0,0 0.01442,0.186548 0.01442,0.186548 0,0 0,0.202091 0,0.202091 0,0 0.0144,0.202092 0.0144,0.202092 0,0 -0.0144,0.186547 -0.0144,0.186547 0,0 0,0.217637 0,0.217637 0,0 -0.01442,0.155455 -0.01442,0.155455 -0.03639,0.522643 -0.121182,1.036112 -0.2748,1.539009 -0.235086,0.769971 -0.616676,1.589533 -1.076736,2.254105 -0.557348,0.80479 -1.287936,1.454129 -2.114548,1.984543 0,0 -0.68028,0.404803 -0.68028,0.404803 0,0 -0.44297,0.237849 -0.44297,0.237849 0.17165,0.0078 0.626644,0.122963 0.806838,0.173175 0.76476,0.212975 1.347264,0.481293 2.009192,0.915013 0.557668,0.365319 1.06693,0.799195 1.496134,1.305824 0.384276,0.453775 0.731538,0.954651 0.982764,1.492374 0.22117,0.473049 0.372892,0.972524 0.501192,1.476821 0.11011,0.432791 0.18605,0.860914 0.21706,1.30583 0,0 0.0144,0.186544 0.0144,0.186544 0,0 0,0.590734 0,0.590734 0,0 -0.01582,0.295362 -0.01582,0.295362 0,0 -0.01442,0.171 -0.01442,0.171 0,0 -0.09208,0.839459 -0.09208,0.839459 -0.133684,0.910972 -0.4493,1.926095 -0.895116,2.736014 -0.575394,1.04544 -1.303132,1.874482 -2.257418,2.605126 -1.514806,1.159694 -3.381296,1.830331 -5.220734,2.305398 -1.489016,0.384603 -3.228312,0.656957 -4.761938,0.807593 0,0 -0.601174,0.05192 -0.601174,0.05192 0,0 -1.218176,0.09203 -1.218176,0.09203 0,0 -0.474606,0.02968 -0.474606,0.02968 0,0 -0.174026,0.01557 -0.174026,0.01557 0,0 -0.189844,0 -0.189844,0 0,0 -0.189848,0.01557 -0.189848,0.01557 0,0 -0.506252,0.01557 -0.506252,0.01557 0,0 -0.268948,0.01557 -0.268948,0.01557 0,0 -0.253122,0 -0.253122,0 0,0 -0.25313,0.01557 -0.25313,0.01557 0,0 -0.42715,0 -0.42715,0 0,0 -0.268944,0.01557 -0.268944,0.01557 0,0 -1.93009,0 -1.93009,0 0,0 -0.268952,-0.01557 -0.268952,-0.01557 0,0 -0.300582,0 -0.300582,0 0,0 -0.189846,-0.01493 -0.189846,-0.01493 0,0 -0.205668,0 -0.205668,0 0,0 -0.189848,-0.01557 -0.189848,-0.01557 0,0 -0.174024,0 -0.174024,0 0,0 -0.221482,-0.01616 -0.221482,-0.01616 0,0 -0.332228,-0.01557 -0.332228,-0.01557 0,0 -0.158208,-0.01416 -0.158208,-0.01416 0,0 -0.44297,-0.03108 -0.44297,-0.03108 0,0 -1.487116,-0.138823 -1.487116,-0.138823 -0.837055,-0.08798 -1.670159,-0.214681 -2.499621,-0.356147 0,0 -1.550401,-0.283704 -1.550401,-0.283704 -1.392353,-0.283088 -2.767305,-0.611715 -4.1291236,-1.014816 0,0 -1.724425,-0.544561 -1.724425,-0.544561 0,0 -1.2972716,-0.46854 -1.2972716,-0.46854 -0.6019672,-0.236603 -1.5366376,-0.660062 -2.1041146,-0.961651 0,0 -0.711919,-0.399361 -0.711919,-0.399361 0,0 -0.1898432,0.357547 -0.1898432,0.357547 0,0 -0.300589,0.528549 -0.300589,0.528549 0,0 -0.3796876,-0.195565 -0.3796876,-0.195565 0,0 -0.6169966,-0.337648 -0.6169966,-0.337648 0,0 -0.2213284,-0.123276 -0.2213284,-0.123276 0,0 -0.074672,-0.07571 -0.074672,-0.07571 0,0 0.1014094,-0.200532 0.1014094,-0.200532 0,0 0.2828686,-0.497461 0.2828686,-0.497461 0,0 1.037185,-1.81883 1.037185,-1.81883 0,0 2.6375794,-4.63257 2.6375794,-4.63257 0,0 0.8770824,-1.539009 0.8770824,-1.539009 0,0 0.3591232,-0.637365 0.3591232,-0.637365 0,0 0.4429714,0.226652 0.4429714,0.226652 0,0 0.8701222,0.472896 0.8701222,0.472896 0,0 -0.2325602,0.435271 -0.2325602,0.435271 0,0 -0.4635372,0.80837 -0.4635372,0.80837 0,0 0.6960974,0.36921 0.6960974,0.36921 0.4222462,0.207374 0.8599976,0.394857 1.2972732,0.569742 0.6919838,0.276709 1.4084898,0.506318 2.1199318,0.729706 1.487434,0.467143 2.989108,0.882366 4.508813,1.236493 1.360081,0.316974 2.729971,0.59866 4.113307,0.798886 0.620158,0.0897 1.537424,0.206446 2.151574,0.213436 0,0 0.237304,0.01557 0.237304,0.01557 0,0 1.154892,0 1.154892,0 0,0 0.268942,-0.01557 0.268942,-0.01557 0,0 0.569536,-0.01557 0.569536,-0.01557 0,0 0.158206,-0.01557 0.158206,-0.01557 0,0 0.158204,0 0.158204,0 0,0 0.110744,-0.01557 0.110744,-0.01557 0,0 0.14238,0 0.14238,0 0,0 0.680278,-0.05954 0.680278,-0.05954 1.131478,-0.107727 2.10348,-0.243907 3.195722,-0.577515 0.284766,-0.0869 0.56637,-0.185926 0.83848,-0.306556 0.595798,-0.263965 1.374004,-0.724737 1.656244,-1.326036 0.132254,-0.281686 0.150764,-0.489216 0.147282,-0.792817 -0.0023,-0.174736 -0.04745,-0.420666 -0.09302,-0.590732 -0.03908,-0.145199 -0.08812,-0.255258 -0.15615,-0.38864 -0.533304,-1.045436 -1.875032,-1.342517 -2.946552,-1.532482 0,0 -0.648632,-0.09561 -0.648632,-0.09561 -0.456422,-0.06405 -0.91711,-0.09903 -1.376376,-0.129956 0,0 -0.474612,-0.0297 -0.474612,-0.0297 0,0 -0.158206,-0.01493 -0.158206,-0.01493 0,0 -0.1582,0 -0.1582,0 0,0 -0.237306,-0.01677 -0.237306,-0.01677 0,0 -0.23731,0 -0.23731,0 0,0 -0.189846,-0.01493 -0.189846,-0.01493 0,0 -0.363868,0 -0.363868,0 0,0 -0.268944,-0.01557 -0.268944,-0.01557 0,0 -2.19904,0 -2.19904,0 0,0 -7.229919,0 -7.229919,0 0,0 0,1.849923 0,1.849923 0,0 -1.502938,0 -1.502938,0 0,0 0,-1.849923 0,-1.849923 0,0 -0.06328,0 -0.06328,0 0,0 0,-7.057672 0,-7.057672 0,0 0.06328,0 0.06328,0 0,0 0,-1.803283 0,-1.803283 0,0 1.502938,0 1.502938,0 0,0 0,1.803283 0,1.803283 0,0 5.869367,0 5.869367,0 0,0 2.942596,0 2.942596,0 0,0 0.237304,-0.01556 0.237304,-0.01556 0,0 0.648636,0 0.648636,0 0,0 0.237304,-0.01556 0.237304,-0.01556 0,0 0.18985,0 0.18985,0 0,0 0.316406,-0.01556 0.316406,-0.01556 0,0 0.30059,-0.01556 0.30059,-0.01556 0,0 0.395506,-0.02969 0.395506,-0.02969 0.503564,-0.03404 1.003492,-0.0897 1.502938,-0.165871 0.817602,-0.124677 1.741354,-0.322882 2.483806,-0.686648 0.225754,-0.110685 0.49312,-0.260699 0.680274,-0.426258 0.324322,-0.28666 0.502456,-0.578449 0.60703,-0.992271 0.025,-0.09855 0.05616,-0.27329 0.05743,-0.373095 0.0035,-0.293964 -0.0025,-0.466211 -0.117866,-0.746186 -0.228606,-0.554665 -0.846866,-0.961025 -1.385074,-1.194827 0,0 -0.696096,-0.270493 -0.696096,-0.270493 -0.72537,-0.230696 -1.58236,-0.374803 -2.34142,-0.449421 0,0 -0.854302,-0.07648 -0.854302,-0.07648 0,0 -0.427154,-0.02969 -0.427154,-0.02969 0,0 -0.1582,-0.01555 -0.1582,-0.01555 0,0 -0.174026,0 -0.174026,0 0,0 -0.189844,-0.01617 -0.189844,-0.01617 0,0 -0.18985,0 -0.18985,0 0,0 -0.1582,-0.01492 -0.1582,-0.01492 0,0 -0.253128,0 -0.253128,0 0,0 -0.268944,-0.01555 -0.268944,-0.01555 0,0 -1.977554,0 -1.977554,0 0,0 -0.237306,0.01555 -0.237306,0.01555 0,0 -0.45879,0.01555 -0.45879,0.01555 0,0 -0.284768,0.01555 -0.284768,0.01555 0,0 -0.158206,0.01415 -0.158206,0.01415 0,0 -0.427148,0.03109 -0.427148,0.03109 -0.60276,0.04073 -1.2052,0.112705 -1.803528,0.199295 -1.545334,0.223696 -3.069946,0.540664 -4.572093,0.961482 -1.352328,0.378848 -2.181159,0.652138 -3.480487,1.196852 0,0 -0.601178,0.251836 -0.601178,0.251836 0,0 -0.9175808,0.419266 -0.9175808,0.419266 0,0 -0.2373048,0.109127 -0.2373048,0.109127 -0.030534,0.0154 -0.076256,0.03561 -0.089389,0.06918 -0.01313,0.03342 0.00855,0.07493 0.021676,0.105553 0,0 0.094923,0.217639 0.094923,0.217639 0,0 0.3841174,0.886095 0.3841174,0.886095 0,0 -0.743557,0.315573 -0.743557,0.315573 0,0 -0.6486388,0.259613 -0.6486388,0.259613 0,0 -0.1605756,-0.388641 -0.1605756,-0.388641 0,0 -0.275751,-0.637369 -0.275751,-0.637369 0,0 -0.9017638,-2.083099 -0.9017638,-2.083099 0,0 -2.9175972,-6.746767 -2.9175972,-6.746767 0,0 0.806843,-0.342155 0.806843,-0.342155 0,0 0.5695342,-0.233026 0.5695342,-0.233026 0,0 0.2562886,0.575181 0.2562886,0.575181 z m 40.1838244,1.694462 c 0,0 0.474606,-0.253548 0.474606,-0.253548 0.581244,-0.308888 1.183528,-0.5856 1.78771,-0.848009 0,0 0.838478,-0.359568 0.838478,-0.359568 1.240796,-0.503052 2.517504,-0.917029 3.812716,-1.261676 2.217072,-0.589952 4.47686,-0.997712 6.755314,-1.276753 0.852878,-0.104467 1.706232,-0.188102 2.562906,-0.245774 0,0 0.569536,-0.04524 0.569536,-0.04524 0,0 0.14238,0 0.14238,0 0,0 0.158204,-0.01555 0.158204,-0.01555 0,0 0.36387,-0.01555 0.36387,-0.01555 0,0 0.174024,-0.01492 0.174024,-0.01492 0,0 0.17403,0 0.17403,0 0,0 0.237304,-0.0168 0.237304,-0.0168 0,0 0.205662,0 0.205662,0 0,0 0.189846,-0.01492 0.189846,-0.01492 0,0 0.221486,0 0.221486,0 0,0 0.237306,-0.01555 0.237306,-0.01555 0,0 0.316406,0 0.316406,0 0,0 0.26895,-0.01555 0.26895,-0.01555 0,0 0.775198,0 0.775198,0 0,0 0.268944,-0.01555 0.268944,-0.01555 0,0 0.6961,0 0.6961,0 0,0 0.253128,0.01555 0.253128,0.01555 0,0 0.411328,0 0.411328,0 0,0 0.158206,0.01492 0.158206,0.01492 0,0 0.205664,0 0.205664,0 0,0 0.205666,0.01617 0.205666,0.01617 0,0 0.458792,0.02969 0.458792,0.02969 0,0 0.711918,0.06094 0.711918,0.06094 1.105846,0.108664 2.20378,0.30967 3.274824,0.602388 0,0 0.585352,0.157635 0.585352,0.157635 0.768714,0.224163 1.533156,0.48844 2.262314,0.817539 1.99812,0.901643 3.72302,2.183215 4.831872,4.083656 0.316248,0.542074 0.525082,0.976728 0.726316,1.5701 0.20851,0.61467 0.330642,1.251105 0.375892,1.896557 0,0 0.01504,0.155454 0.01504,0.155454 0,0 0,0.186549 0,0.186549 0,0 0.01518,0.186542 0.01518,0.186542 0,0 -0.01582,0.792825 -0.01582,0.792825 0,0 -0.01582,0.264274 -0.01582,0.264274 0,0 -0.0144,0.171002 -0.0144,0.171002 0,0 -0.06028,0.637366 -0.06028,0.637366 -0.153936,1.225609 -0.482528,2.40272 -1.196342,3.435563 -0.800194,1.157519 -1.845766,1.935109 -3.079596,2.60077 -1.217222,0.656798 -2.52035,1.145861 -3.84436,1.550199 0,0 -2.736932,0.827955 -2.736932,0.827955 0,0 -2.926772,0.826089 -2.926772,0.826089 0,0 -4.366432,1.243646 -4.366432,1.243646 0,0 -1.756064,0.526373 -1.756064,0.526373 -1.161692,0.34387 -2.313578,0.734212 -3.44885,1.155031 0,0 -1.12325,0.443983 -1.12325,0.443983 -0.154246,0.067 -0.474292,0.20411 -0.60117,0.29319 0,0 24.078646,0 24.078646,0 0,0 0,-1.476827 0,-1.476827 0,0 1.502942,0 1.502942,0 0,0 0,10.710875 0,10.710875 0,0 -1.502942,0 -1.502942,0 0,0 0,-1.165918 0,-1.165918 0,0 -36.355278,0 -36.355278,0 0,0 0,-7.974859 0,-7.974859 4e-4,-0.183588 0.0954,-0.233651 0.221488,-0.357547 0,0 0.506252,-0.513 0.506252,-0.513 0.756528,-0.743392 1.55087,-1.452578 2.373058,-2.125853 1.839594,-1.506521 3.853376,-2.817943 5.995934,-3.87053 1.832156,-0.900243 4.093368,-1.73877 6.04339,-2.377535 1.40675,-0.46077 2.827108,-0.882989 4.255684,-1.273335 0,0 1.233996,-0.319771 1.233996,-0.319771 0.89528,-0.238002 1.788026,-0.488596 2.67365,-0.759091 0.648478,-0.197893 1.29284,-0.401073 1.93009,-0.632702 0,0 0.727736,-0.295676 0.727736,-0.295676 0.458952,-0.203335 0.973904,-0.452221 1.376376,-0.748828 0.32685,-0.240956 0.590892,-0.525595 0.705116,-0.919208 0.05379,-0.184837 0.05648,-0.29288 0.05426,-0.481911 -0.0033,-0.275777 -0.131146,-0.567258 -0.284762,-0.792824 -0.314984,-0.462324 -0.923592,-0.877392 -1.439654,-1.101559 -0.615098,-0.267226 -1.281928,-0.402628 -1.94591,-0.488438 0,0 -0.965044,-0.09032 -0.965044,-0.09032 0,0 -0.601176,-0.02969 -0.601176,-0.02969 0,0 -0.268946,-0.01555 -0.268946,-0.01555 0,0 -1.202348,0 -1.202348,0 0,0 -0.237308,0.01555 -0.237308,0.01555 0,0 -0.205668,0 -0.205668,0 0,0 -0.316408,0.01555 -0.316408,0.01555 0,0 -0.30059,0.01555 -0.30059,0.01555 0,0 -0.363864,0.02969 -0.363864,0.02969 0,0 -0.74356,0.06094 -0.74356,0.06094 -0.84307,0.08286 -1.681234,0.205821 -2.515444,0.353661 -1.043198,0.184835 -2.075006,0.39268 -3.100796,0.657576 -1.838966,0.475071 -3.872678,1.201358 -5.60043,1.980968 0,0 -0.253124,0.122965 -0.253124,0.122965 -0.55134,0.256035 -1.096348,0.52746 -1.6295,0.818317 0,0 -0.759378,0.428434 -0.759378,0.428434 0,0 -0.284766,0.164471 -0.284766,0.164471 0,0 0.411486,0.94828 0.411486,0.94828 0,0 0.189688,0.466365 0.189688,0.466365 0,0 -1.376378,0.559641 -1.376378,0.559641 0,0 -2.96506,-6.855582 -2.96506,-6.855582 0,0 -0.861102,-1.989829 -0.861102,-1.989829 0,0 -0.275746,-0.637366 -0.275746,-0.637366 0,0 -0.153776,-0.388641 -0.153776,-0.388641 0,0 1.376374,-0.559639 1.376374,-0.559639 z M 85.20582,46.435287 c 0,0 15.56727,0 15.56727,0 0,0 0,1.46128 0,1.46128 0,0 -1.75606,0 -1.75606,0 0,0 0.299326,0.357549 0.299326,0.357549 0,0 0.611616,0.715095 0.611616,0.715095 0,0 1.887998,2.207467 1.887998,2.207467 0,0 2.77901,3.249016 2.77901,3.249016 0,0 0.91759,1.072642 0.91759,1.072642 0,0 0.56036,0.652915 0.56036,0.652915 0,0 0.377,-0.419732 0.377,-0.419732 0,0 0.60117,-0.652913 0.60117,-0.652913 0,0 1.77189,-1.927647 1.77189,-1.927647 0,0 3.1008,-3.37338 3.1008,-3.37338 0,0 1.32891,-1.445735 1.32891,-1.445735 0,0 0.3982,-0.435277 0.3982,-0.435277 0,0 -1.66114,0 -1.66114,0 0,0 0,-1.46128 0,-1.46128 0,0 15.56727,0 15.56727,0 0,0 0,1.46128 0,1.46128 0,0 -2.18321,0 -2.18321,0 -0.19602,3.95e-4 -0.21738,0.103224 -0.34805,0.233185 0,0 -0.4898,0.497455 -0.4898,0.497455 0,0 -0.19048,0.202095 -0.19048,0.202095 0,0 -0.9024,0.932731 -0.9024,0.932731 0,0 -1.50167,1.539008 -1.50167,1.539008 0,0 -0.44423,0.466367 -0.44423,0.466367 0,0 -6.35854,6.54467 -6.35854,6.54467 0,0 -0.76064,0.792825 -0.76064,0.792825 0,0 -1.50168,1.539007 -1.50168,1.539007 0,0 -0.64863,0.668459 -0.64863,0.668459 0,0 -0.23794,0.248729 -0.23794,0.248729 0,0 0.41782,0.481912 0.41782,0.481912 0,0 0.82282,0.979367 0.82282,0.979367 0,0 2.34141,2.78265 2.34141,2.78265 0,0 1.95113,2.316287 1.95113,2.316287 0,0 5.06253,6.016119 5.06253,6.016119 0,0 2.74484,3.264567 2.74484,3.264567 0,0 0.65433,0.777277 0.65433,0.777277 0.0492,0.05938 0.17925,0.231006 0.24364,0.254948 0.0299,0.01106 0.0782,0.0093 0.11058,0.0093 0,0 1.66114,0 1.66114,0 0,0 0,1.461284 0,1.461284 0,0 -15.56727,0 -15.56727,0 0,0 0,-1.461284 0,-1.461284 0,0 1.32891,0 1.32891,0 0,0 -0.33618,-0.404179 -0.33618,-0.404179 0,0 -0.65386,-0.761732 -0.65386,-0.761732 0,0 -1.94591,-2.269652 -1.94591,-2.269652 0,0 -3.55959,-4.150652 -3.55959,-4.150652 0,0 -1.57286,-1.83438 -1.57286,-1.83438 0,0 -0.26231,0.310912 -0.26231,0.310912 0,0 -0.57174,0.63737 -0.57174,0.63737 0,0 -1.89845,2.114189 -1.89845,2.114189 0,0 -1.99527,2.223012 -1.99527,2.223012 0,0 -1.534572,1.710012 -1.534572,1.710012 0,0 -1.297278,1.445736 -1.297278,1.445736 0,0 -0.587888,0.65291 -0.587888,0.65291 0,0 2.388882,0 2.388882,0 0,0 0,1.476826 0,1.476826 0,0 -15.567276,0 -15.567276,0 0,0 0,-1.476826 0,-1.476826 0,0 1.376376,0 1.376376,0 0,0 0.110108,-0.0093 0.110108,-0.0093 0,0 0.242372,-0.239408 0.242372,-0.239408 0,0 0.648634,-0.699551 0.648634,-0.699551 0,0 1.258512,-1.352459 1.258512,-1.352459 0,0 1.380488,-1.492372 1.380488,-1.492372 0,0 1.282722,-1.383553 1.282722,-1.383553 0,0 2.11993,-2.285191 2.11993,-2.285191 0,0 4.503438,-4.850211 4.503438,-4.850211 0,0 1.629498,-1.756646 1.629498,-1.756646 0,0 0.64864,-0.699548 0.64864,-0.699548 0,0 0.42984,-0.466366 0.42984,-0.466366 0,0 -0.35058,-0.373094 -0.35058,-0.373094 0,0 -0.727584,-0.808368 -0.727584,-0.808368 0,0 -2.16755,-2.409557 -2.16755,-2.409557 0,0 -3.733616,-4.150661 -3.733616,-4.150661 0,0 -1.93009,-2.145282 -1.93009,-2.145282 0,0 -1.163748,-1.290283 -1.163748,-1.290283 0,0 -2.599766,-2.891468 -2.599766,-2.891468 0,0 -0.616206,-0.684005 -0.616206,-0.684005 0,0 -0.222908,-0.223856 -0.222908,-0.223856 0,0 -0.10932,-0.0093 -0.10932,-0.0093 0,0 -1.170708,0 -1.170708,0 z" />
</svg>
