<?xml version="1.0" encoding="UTF-8" standalone="no"?>
<svg
     id="32xlogo"
     width="640"
     height="180"
     version="1.1"
     xmlns="http://www.w3.org/2000/svg"
     xmlns:svg="http://www.w3.org/2000/svg">
    <path
         id="32xlogo02"
         class="color02"
         fill="#000000"
         d="m 20.069095,24.62244 c 0,0 3.322292,-1.24753 3.322292,-1.24753 0,0 7.43559,-2.383905 7.43559,-2.383905 3.544561,-1.049325 7.082782,-2.07378 10.678755,-2.946655 4.511992,-1.094415 9.055603,-1.979725 13.605558,-2.904695 6.642185,-1.35091 13.36824,-2.41654 20.091905,-3.286325 0,0 7.593785,-0.924175 7.593785,-0.924175 0,0 5.06254,-0.517665 5.06254,-0.517665 0,0 5.69536,-0.40885 5.69536,-0.40885 0,0 4.03418,-0.2262 4.03418,-0.2262 0,0 0.79104,-0.0746 0.79104,-0.0746 0,0 1.0283,0 1.0283,0 0,0 1.18653,-0.0839 1.18653,-0.0839 0,0 1.26564,0 1.26564,0 0,0 0.9492,-0.0746 0.9492,-0.0746 0,0 1.89847,0 1.89847,0 0,0 1.34473,-0.07775 1.34473,-0.07775 0,0 7.04008,0 7.04008,0 0,0 1.34474,0.07775 1.34474,0.07775 0,0 3.55959,0.07775 3.55959,0.07775 0,0 1.18653,0.07775 1.18653,0.07775 0,0 3.6387,0.2262 3.6387,0.2262 3.60151,0.24175 7.17375,0.61017 10.75785,1.073415 6.68809,0.86512 13.3295,2.170945 19.77552,4.139775 0,0 2.92679,0.938185 2.92679,0.938185 9.42736,3.38582 18.87055,8.00517 25.79435,15.308455 3.60073,3.79778 6.26882,7.57069 7.98219,12.514165 0.94843,2.73758 1.46656,5.59484 1.66826,8.47231 0,0 0.0721,0.93274 0.0721,0.93274 0,0 0,1.010463 0,1.010463 0,0 0.072,1.01047 0.072,1.01047 0,0 -0.072,0.93271 -0.072,0.93271 0,0 0,1.0882 0,1.0882 0,0 -0.0721,0.77726 -0.0721,0.77726 -0.1819,2.61323 -0.6059,5.18056 -1.37401,7.69506 -1.17544,3.84985 -3.08341,7.94765 -5.38368,11.27051 -2.78676,4.02397 -6.43969,7.27065 -10.57278,9.92272 0,0 -3.40136,2.02403 -3.40136,2.02403 0,0 -2.21487,1.18924 -2.21487,1.18924 0.85826,0.039 3.13323,0.61482 4.03422,0.86587 3.82378,1.06488 6.73629,2.40646 10.04593,4.57507 2.78834,1.82659 5.33463,3.99598 7.48068,6.529112 1.92138,2.2689 3.65767,4.77326 4.91383,7.46187 1.10583,2.36525 1.86443,4.86265 2.50593,7.38412 0.55055,2.16397 0.93025,4.30456 1.08528,6.52914 0,0 0.072,0.93274 0.072,0.93274 0,0 0,2.95365 0,2.95365 0,0 -0.0791,1.47682 -0.0791,1.47682 0,0 -0.0721,0.85498 -0.0721,0.85498 0,0 -0.4604,4.19732 -0.4604,4.19732 -0.66841,4.55484 -2.24647,9.63045 -4.47558,13.68008 -2.87694,5.22717 -6.51563,9.37239 -11.28706,13.02559 -7.57404,5.79848 -16.90647,9.15164 -26.10367,11.52701 -7.44507,1.92297 -16.14156,3.28478 -23.8097,4.03796 0,0 -3.00588,0.2596 -3.00588,0.2596 0,0 -6.09085,0.46015 -6.09085,0.46015 0,0 -2.37306,0.14845 -2.37306,0.14845 0,0 -0.87012,0.0779 -0.87012,0.0779 0,0 -0.94924,0 -0.94924,0 0,0 -0.94922,0.0778 -0.94922,0.0778 0,0 -2.53126,0.0779 -2.53126,0.0779 0,0 -1.34474,0.0778 -1.34474,0.0778 0,0 -1.2656,0 -1.2656,0 0,0 -1.26565,0.0779 -1.26565,0.0779 0,0 -2.13576,0 -2.13576,0 0,0 -1.34472,0.0778 -1.34472,0.0778 0,0 -9.65045,0 -9.65045,0 0,0 -1.34474,-0.0778 -1.34474,-0.0778 0,0 -1.50295,0 -1.50295,0 0,0 -0.94923,-0.0747 -0.94923,-0.0747 0,0 -1.0283,0 -1.0283,0 0,0 -0.94924,-0.0778 -0.94924,-0.0778 0,0 -0.87011,0 -0.87011,0 0,0 -1.10743,-0.0808 -1.10743,-0.0808 0,0 -1.66113,-0.0778 -1.66113,-0.0778 0,0 -0.79104,-0.0708 -0.79104,-0.0708 0,0 -2.21486,-0.15545 -2.21486,-0.15545 0,0 -7.43557,-0.6941 -7.43557,-0.6941 -4.18529,-0.43995 -8.35081,-1.07343 -12.49812,-1.78076 0,0 -7.752005,-1.41849 -7.752005,-1.41849 -6.961765,-1.41546 -13.836525,-3.05861 -20.645618,-5.07409 0,0 -8.622123,-2.72278 -8.622123,-2.72278 0,0 -6.486359,-2.34274 -6.486359,-2.34274 -3.009836,-1.18302 -7.683186,-3.3003 -10.520574,-4.80824 0,0 -3.559596,-1.99682 -3.559596,-1.99682 0,0 -0.949214,1.78774 -0.949214,1.78774 0,0 -1.502945,2.64272 -1.502945,2.64272 0,0 -1.898437,-0.97778 -1.898437,-0.97778 0,0 -3.084984,-1.68828 -3.084984,-1.68828 0,0 -1.106642,-0.61636 -1.106642,-0.61636 0,0 -0.373363,-0.37855 -0.373363,-0.37855 0,0 0.507048,-1.00269 0.507048,-1.00269 0,0 1.414341,-2.48729 1.414341,-2.48729 0,0 5.185925,-9.09414 5.185925,-9.09414 0,0 13.1879,-23.16284 13.1879,-23.16284 0,0 4.385413,-7.69503 4.385413,-7.69503 0,0 1.795614,-3.18686 1.795614,-3.18686 0,0 2.214856,1.13327 2.214856,1.13327 0,0 4.350611,2.36449 4.350611,2.36449 0,0 -1.1628,2.17638 -1.1628,2.17638 0,0 -2.317685,4.04184 -2.317685,4.04184 0,0 3.480485,1.84603 3.480485,1.84603 2.111232,1.03689 4.299989,1.97428 6.486365,2.8487 3.459922,1.38356 7.04245,2.53161 10.599667,3.64856 7.437165,2.3357 14.94554,4.41182 22.544065,6.18245 6.80041,1.58487 13.649845,2.9933 20.566525,3.99443 3.1008,0.44845 7.68713,1.03224 10.75789,1.0672 0,0 1.18652,0.0779 1.18652,0.0779 0,0 5.77443,0 5.77443,0 0,0 1.34475,-0.0779 1.34475,-0.0779 0,0 2.84766,-0.0779 2.84766,-0.0779 0,0 0.79103,-0.0778 0.79103,-0.0778 0,0 0.79102,0 0.79102,0 0,0 0.55372,-0.0779 0.55372,-0.0779 0,0 0.71191,0 0.71191,0 0,0 3.40139,-0.2977 3.40139,-0.2977 5.65736,-0.53865 10.51741,-1.21954 15.9786,-2.88759 1.42383,-0.43455 2.83184,-0.92963 4.19239,-1.53279 2.97901,-1.31982 6.87002,-3.62368 8.28122,-6.63016 0.66127,-1.40845 0.75384,-2.4461 0.73643,-3.96413 -0.0115,-0.87366 -0.2373,-2.10331 -0.4651,-2.95365 -0.1954,-0.72598 -0.4406,-1.27629 -0.78076,-1.94319 -2.66653,-5.2272 -9.37516,-6.71257 -14.73274,-7.66241 0,0 -3.24319,-0.47805 -3.24319,-0.47805 -2.2821,-0.3202 -4.58554,-0.49515 -6.88185,-0.6498 0,0 -2.37309,-0.14845 -2.37309,-0.14845 0,0 -0.79102,-0.0746 -0.79102,-0.0746 0,0 -0.79101,0 -0.79101,0 0,0 -1.18654,-0.0839 -1.18654,-0.0839 0,0 -1.18651,0 -1.18651,0 0,0 -0.94922,-0.0746 -0.94922,-0.0746 0,0 -1.81934,0 -1.81934,0 0,0 -1.34476,-0.0778 -1.34476,-0.0778 0,0 -10.99516,0 -10.99516,0 0,0 -36.149615,0 -36.149615,0 0,0 0,9.24959 0,9.24959 0,0 -7.5147,0 -7.5147,0 0,0 0,-9.24959 0,-9.24959 0,0 -0.3164,0 -0.3164,0 0,0 0,-35.288362 0,-35.288362 0,0 0.3164,0 0.3164,0 0,0 0,-9.01642 0,-9.01642 0,0 7.5147,0 7.5147,0 0,0 0,9.01642 0,9.01642 0,0 29.346815,0 29.346815,0 0,0 14.71298,0 14.71298,0 0,0 1.18654,-0.0778 1.18654,-0.0778 0,0 3.2432,0 3.2432,0 0,0 1.18651,-0.0778 1.18651,-0.0778 0,0 0.94923,0 0.94923,0 0,0 1.58204,-0.0778 1.58204,-0.0778 0,0 1.50295,-0.0778 1.50295,-0.0778 0,0 1.97754,-0.14845 1.97754,-0.14845 2.5178,-0.1702 5.01744,-0.44845 7.51468,-0.82936 4.088,-0.62336 8.70677,-1.61439 12.41903,-3.43323 1.12875,-0.55342 2.46559,-1.30348 3.40138,-2.13128 1.62158,-1.4333 2.51227,-2.89226 3.03514,-4.96136 0.125,-0.4928 0.2808,-1.36646 0.28715,-1.86548 0.0175,-1.46982 -0.0125,-2.33104 -0.58932,-3.73091 -1.14302,-2.77333 -4.23432,-4.805133 -6.92538,-5.974153 0,0 -3.48045,-1.35247 -3.48045,-1.35247 -3.62686,-1.15348 -7.91181,-1.87402 -11.70711,-2.247105 0,0 -4.27153,-0.3824 -4.27153,-0.3824 0,0 -2.13575,-0.14845 -2.13575,-0.14845 0,0 -0.79103,-0.07775 -0.79103,-0.07775 0,0 -0.87011,0 -0.87011,0 0,0 -0.94922,-0.08085 -0.94922,-0.08085 0,0 -0.94923,0 -0.94923,0 0,0 -0.79103,-0.0746 -0.79103,-0.0746 0,0 -1.26563,0 -1.26563,0 0,0 -1.34472,-0.07775 -1.34472,-0.07775 0,0 -9.88776,0 -9.88776,0 0,0 -1.1865,0.07775 -1.1865,0.07775 0,0 -2.29399,0.07775 -2.29399,0.07775 0,0 -1.42382,0.07775 -1.42382,0.07775 0,0 -0.79102,0.07075 -0.79102,0.07075 0,0 -2.13577,0.15545 -2.13577,0.15545 -3.01378,0.20365 -6.02597,0.563525 -9.01763,0.996475 -7.726665,1.1185 -15.349735,2.70335 -22.860465,4.807445 -6.761645,1.894228 -10.9058,3.260678 -17.402441,5.984268 0,0 -3.005884,1.25918 -3.005884,1.25918 0,0 -4.58791,2.09631 -4.58791,2.09631 0,0 -1.186524,0.54565 -1.186524,0.54565 -0.152675,0.077 -0.38128,0.178 -0.446945,0.3459 -0.06565,0.16715 0.04275,0.37465 0.10838,0.52777 0,0 0.474615,1.0882 0.474615,1.0882 0,0 1.920586,4.43048 1.920586,4.43048 0,0 -3.717785,1.57787 -3.717785,1.57787 0,0 -3.243194,1.29806 -3.243194,1.29806 0,0 -0.802878,-1.94321 -0.802878,-1.94321 0,0 -1.378753,-3.18684 -1.378753,-3.18684 0,0 -4.508818,-10.41551 -4.508818,-10.41551 0,0 -14.587989,-33.733813 -14.587989,-33.733813 0,0 4.034215,-1.71078 4.034215,-1.71078 0,0 2.847674,-1.165145 2.847674,-1.165145 0,0 1.281441,2.875925 1.281441,2.875925 z m 200.919115,8.472315 c 0,0 2.37305,-1.26774 2.37305,-1.26774 2.90619,-1.544445 5.91763,-2.928005 8.93853,-4.24005 0,0 4.19238,-1.797835 4.19238,-1.797835 6.204,-2.515275 12.58754,-4.585145 19.06359,-6.308385 11.08537,-2.94976 22.3843,-4.98856 33.77658,-6.38377 4.26439,-0.52233 8.53114,-0.940495 12.81452,-1.228875 0,0 2.84766,-0.2262 2.84766,-0.2262 0,0 0.71194,0 0.71194,0 0,0 0.79102,-0.07775 0.79102,-0.07775 0,0 1.81934,-0.07775 1.81934,-0.07775 0,0 0.87012,-0.0746 0.87012,-0.0746 0,0 0.87014,0 0.87014,0 0,0 1.18652,-0.0839 1.18652,-0.0839 0,0 1.02833,0 1.02833,0 0,0 0.94921,-0.0746 0.94921,-0.0746 0,0 1.10742,0 1.10742,0 0,0 1.18654,-0.0778 1.18654,-0.0778 0,0 1.58204,0 1.58204,0 0,0 1.34474,-0.07775 1.34474,-0.07775 0,0 3.87601,0 3.87601,0 0,0 1.3447,-0.07775 1.3447,-0.07775 0,0 3.48051,0 3.48051,0 0,0 1.26564,0.07775 1.26564,0.07775 0,0 2.05664,0 2.05664,0 0,0 0.79103,0.0746 0.79103,0.0746 0,0 1.02833,0 1.02833,0 0,0 1.02831,0.08085 1.02831,0.08085 0,0 2.29395,0.14845 2.29395,0.14845 0,0 3.5596,0.3047 3.5596,0.3047 5.52922,0.543315 11.01892,1.548335 16.37414,3.01194 0,0 2.92674,0.788165 2.92674,0.788165 3.84357,1.120825 7.66578,2.4422 11.3116,4.087695 9.99057,4.50821 18.6151,10.916075 24.15933,20.418285 1.58125,2.710365 2.62541,4.883635 3.63157,7.850485 1.04259,3.07336 1.65324,6.255538 1.87946,9.482778 0,0 0.0752,0.77728 0.0752,0.77728 0,0 0,0.93274 0,0.93274 0,0 0.0759,0.93273 0.0759,0.93273 0,0 -0.0791,3.96412 -0.0791,3.96412 0,0 -0.0791,1.32136 -0.0791,1.32136 0,0 -0.072,0.855 -0.072,0.855 0,0 -0.3014,3.18684 -0.3014,3.18684 -0.76965,6.12805 -2.41262,12.0136 -5.98169,17.17783 -4.00097,5.7876 -9.22883,9.67553 -15.398,13.00384 -6.08611,3.283992 -12.60173,5.729302 -19.22179,7.751022 0,0 -13.68465,4.13976 -13.68465,4.13976 0,0 -14.63387,4.13044 -14.63387,4.13044 0,0 -21.83215,6.21821 -21.83215,6.21821 0,0 -8.78032,2.63187 -8.78032,2.63187 -5.80846,1.71935 -11.56788,3.67109 -17.24423,5.77516 0,0 -5.61625,2.2199 -5.61625,2.2199 -0.77126,0.335 -2.3715,1.02059 -3.00588,1.46594 0,0 120.39326,0 120.39326,0 0,0 0,-7.38415 0,-7.38415 0,0 7.51469,0 7.51469,0 0,0 0,53.5544 0,53.5544 0,0 -7.51469,0 -7.51469,0 0,0 0,-5.82957 0,-5.82957 0,0 -181.77642,0 -181.77642,0 0,0 0,-39.87429 0,-39.87429 0.002,-0.91797 0.477,-1.16825 1.10743,-1.78774 0,0 2.53126,-2.56503 2.53126,-2.56503 3.78268,-3.71694 7.75438,-7.26286 11.86532,-10.62927 9.19795,-7.53257 19.26686,-14.08968 29.97966,-19.352632 9.16079,-4.50121 20.46685,-8.69383 30.21695,-11.88766 7.03375,-2.30386 14.13553,-4.41493 21.27843,-6.36667 0,0 6.16998,-1.59886 6.16998,-1.59886 4.47638,-1.19002 8.9401,-2.44298 13.36823,-3.79545 3.2424,-0.98947 6.46421,-2.00536 9.65044,-3.16352 0,0 3.63868,-1.47838 3.63868,-1.47838 2.29477,-1.01667 4.86953,-2.2611 6.88189,-3.74414 1.63426,-1.20478 2.95444,-2.62797 3.52558,-4.59605 0.26895,-0.92417 0.2824,-1.46438 0.2713,-2.40955 -0.0165,-1.37889 -0.65575,-2.83629 -1.42384,-3.9641 -1.57491,-2.31163 -4.61795,-4.386968 -7.19828,-5.507803 -3.07546,-1.33613 -6.40962,-2.01313 -9.72953,-2.44219 0,0 -4.82524,-0.4516 -4.82524,-0.4516 0,0 -3.00585,-0.14845 -3.00585,-0.14845 0,0 -1.34475,-0.07775 -1.34475,-0.07775 0,0 -6.01175,0 -6.01175,0 0,0 -1.18654,0.07775 -1.18654,0.07775 0,0 -1.02832,0 -1.02832,0 0,0 -1.58203,0.07775 -1.58203,0.07775 0,0 -1.50295,0.07775 -1.50295,0.07775 0,0 -1.81933,0.14845 -1.81933,0.14845 0,0 -3.7178,0.3047 -3.7178,0.3047 -4.21536,0.4143 -8.40618,1.02911 -12.57723,1.768295 -5.21598,0.924185 -10.37502,1.963415 -15.50398,3.287888 -9.19482,2.37536 -19.36339,6.00679 -28.00212,9.90485 0,0 -1.26563,0.61481 -1.26563,0.61481 -2.75671,1.28019 -5.48177,2.63731 -8.1475,4.09159 0,0 -3.7969,2.14217 -3.7969,2.14217 0,0 -1.42384,0.82237 -1.42384,0.82237 0,0 2.05744,4.74139 2.05744,4.74139 0,0 0.94842,2.33182 0.94842,2.33182 0,0 -6.88186,2.7982 -6.88186,2.7982 0,0 -14.8253,-34.277908 -14.8253,-34.277908 0,0 -4.30552,-9.949135 -4.30552,-9.949135 0,0 -1.37876,-3.186845 -1.37876,-3.186845 0,0 -0.76888,-1.943185 -0.76888,-1.943185 0,0 6.88192,-2.7982 6.88192,-2.7982 z m 197.75502,-21.45284 c 0,0 77.83638,0 77.83638,0 0,0 0,7.30641 0,7.30641 0,0 -8.78032,0 -8.78032,0 0,0 1.4966,1.787735 1.4966,1.787735 0,0 3.05808,3.57547 3.05808,3.57547 0,0 9.44003,11.03734 9.44003,11.03734 0,0 13.89505,16.24508 13.89505,16.24508 0,0 4.58795,5.363218 4.58795,5.363218 0,0 2.80175,3.26456 2.80175,3.26456 0,0 1.885,-2.09865 1.885,-2.09865 0,0 3.0059,-3.26457 3.0059,-3.26457 0,0 8.8594,-9.638233 8.8594,-9.638233 0,0 15.504,-16.8669 15.504,-16.8669 0,0 6.64455,-7.228685 6.64455,-7.228685 0,0 1.991,-2.176365 1.991,-2.176365 0,0 -8.30565,0 -8.30565,0 0,0 0,-7.30641 0,-7.30641 0,0 77.83635,0 77.83635,0 0,0 0,7.30641 0,7.30641 0,0 -10.9161,0 -10.9161,0 -0.98005,0.002 -1.08685,0.51611 -1.7402,1.16592 0,0 -2.44905,2.48727 -2.44905,2.48727 0,0 -0.9524,1.010475 -0.9524,1.010475 0,0 -4.51195,4.663655 -4.51195,4.663655 0,0 -7.50835,7.69504 -7.50835,7.69504 0,0 -2.2212,2.331835 -2.2212,2.331835 0,0 -31.79265,32.723348 -31.79265,32.723348 0,0 -3.80325,3.96413 -3.80325,3.96413 0,0 -7.50835,7.69503 -7.50835,7.69503 0,0 -3.2432,3.34229 -3.2432,3.34229 0,0 -1.18965,1.24364 -1.18965,1.24364 0,0 2.08905,2.40957 2.08905,2.40957 0,0 4.1141,4.89684 4.1141,4.89684 0,0 11.7071,13.913242 11.7071,13.913242 0,0 9.75565,11.58144 9.75565,11.58144 0,0 25.31265,30.08063 25.31265,30.08063 0,0 13.7242,16.32281 13.7242,16.32281 0,0 3.27165,3.88637 3.27165,3.88637 0.246,0.2969 0.8962,1.15502 1.21815,1.27473 0.1495,0.0553 0.3905,0.0465 0.55295,0.0465 0,0 8.3057,0 8.3057,0 0,0 0,7.30641 0,7.30641 0,0 -77.8364,0 -77.8364,0 0,0 0,-7.30641 0,-7.30641 0,0 6.6446,0 6.6446,0 0,0 -1.68095,-2.0209 -1.68095,-2.0209 0,0 -3.26925,-3.80868 -3.26925,-3.80868 0,0 -9.72955,-11.34823 -9.72955,-11.34823 0,0 -17.79795,-20.7533 -17.79795,-20.7533 0,0 -7.86435,-9.17186 -7.86435,-9.17186 0,0 -1.3115,1.55454 -1.3115,1.55454 0,0 -2.85875,3.18684 -2.85875,3.18684 0,0 -9.49225,10.57096 -9.49225,10.57096 0,0 -9.97633,11.11508 -9.97633,11.11508 0,0 -7.67289,8.55004 -7.67289,8.55004 0,0 -6.48637,7.22867 -6.48637,7.22867 0,0 -2.93943,3.26457 -2.93943,3.26457 0,0 11.94442,0 11.94442,0 0,0 0,7.38413 0,7.38413 0,0 -77.83638,0 -77.83638,0 0,0 0,-7.38413 0,-7.38413 0,0 6.88186,0 6.88186,0 0,0 0.55057,-0.0465 0.55057,-0.0465 0,0 1.21184,-1.197 1.21184,-1.197 0,0 3.24319,-3.49775 3.24319,-3.49775 0,0 6.29254,-6.76231 6.29254,-6.76231 0,0 6.90245,-7.46182 6.90245,-7.46182 0,0 6.4136,-6.9178 6.4136,-6.9178 0,0 10.59966,-11.42597 10.59966,-11.42597 0,0 22.51719,-24.25105 22.51719,-24.25105 0,0 8.14749,-8.783232 8.14749,-8.783232 0,0 3.24318,-3.49774 3.24318,-3.49774 0,0 2.14921,-2.33182 2.14921,-2.33182 0,0 -1.75289,-1.86548 -1.75289,-1.86548 0,0 -3.63792,-4.04183 -3.63792,-4.04183 0,0 -10.83775,-12.04779 -10.83775,-12.04779 0,0 -18.66808,-20.75331 -18.66808,-20.75331 0,0 -9.65044,-10.726403 -9.65044,-10.726403 0,0 -5.81874,-6.451405 -5.81874,-6.451405 0,0 -12.99884,-14.45735 -12.99884,-14.45735 0,0 -3.08103,-3.420015 -3.08103,-3.420015 0,0 -1.11453,-1.11929 -1.11453,-1.11929 0,0 -0.54661,-0.0465 -0.54661,-0.0465 0,0 -5.85354,0 -5.85354,0 z" />
    <path
         id="32xlogo01"
         class="color01"
         fill="#aa0000"
         d="m 27.354968,15.156905 c 0,0 3.32229,-1.247535 3.32229,-1.247535 0,0 7.435592,-2.3839 7.435592,-2.3839 C 41.657414,10.47614 45.195634,9.451685 48.791606,8.578815 53.3036,7.484405 57.84721,6.599085 62.397165,5.67413 69.03935,4.32321 75.7654,3.257575 82.48907,2.3878 c 0,0 7.59377,-0.924185 7.59377,-0.924185 0,0 5.06254,-0.517665 5.06254,-0.517665 0,0 5.69536,-0.40885 5.69536,-0.40885 0,0 4.03417,-0.22615 4.03417,-0.22615 0,0 0.79105,-0.0746 0.79105,-0.0746 0,0 1.02831,0 1.02831,0 0,0 1.18654,-0.084 1.18654,-0.084 0,0 1.26564,0 1.26564,0 0,0 0.9492,-0.0746 0.9492,-0.0746 0,0 1.89847,0 1.89847,0 0,0 1.34472,-0.07775 1.34472,-0.07775 0,0 7.04009,0 7.04009,0 0,0 1.34473,0.07775 1.34473,0.07775 0,0 3.55958,0.07775 3.55958,0.07775 0,0 1.18654,0.07775 1.18654,0.07775 0,0 3.6387,0.2262 3.6387,0.2262 3.60149,0.2417 7.17375,0.610155 10.75787,1.07341 6.68807,0.865105 13.32947,2.170935 19.77549,4.13978 0,0 2.92679,0.938175 2.92679,0.938175 9.42738,3.38581 18.87057,8.00518 25.79437,15.308455 3.60071,3.797785 6.26883,7.570675 7.98218,12.51417 0.94844,2.737565 1.46655,5.594835 1.66824,8.47231 0,0 0.0721,0.93274 0.0721,0.93274 0,0 0,1.010455 0,1.010455 0,0 0.072,1.01046 0.072,1.01046 0,0 -0.072,0.932735 -0.072,0.932735 0,0 0,1.088185 0,1.088185 0,0 -0.0721,0.777275 -0.0721,0.777275 -0.18195,2.613215 -0.60591,5.18056 -1.374,7.695048 -1.17543,3.84985 -3.08338,7.94766 -5.38368,11.27052 -2.78674,4.02395 -6.43968,7.27065 -10.57274,9.92272 0,0 -3.4014,2.02401 -3.4014,2.02401 0,0 -2.21485,1.18925 -2.21485,1.18925 0.85825,0.039 3.13322,0.61481 4.03419,0.86587 3.8238,1.06488 6.73632,2.40647 10.04596,4.57507 2.78834,1.82659 5.33465,3.99597 7.48067,6.52912 1.92138,2.26887 3.65769,4.77325 4.91382,7.461872 1.10585,2.36524 1.86446,4.86262 2.50596,7.3841 0.55055,2.16396 0.93025,4.30457 1.0853,6.52915 0,0 0.072,0.93272 0.072,0.93272 0,0 0,2.95367 0,2.95367 0,0 -0.0791,1.47681 -0.0791,1.47681 0,0 -0.0721,0.855 -0.0721,0.855 0,0 -0.4604,4.1973 -0.4604,4.1973 -0.66842,4.55486 -2.2465,9.63047 -4.47558,13.68007 -2.87697,5.2272 -6.51566,9.37241 -11.28709,13.02563 -7.57403,5.79847 -16.90648,9.15165 -26.10367,11.52699 -7.44508,1.92301 -16.14156,3.28478 -23.80969,4.03796 0,0 -3.00587,0.2596 -3.00587,0.2596 0,0 -6.09088,0.46015 -6.09088,0.46015 0,0 -2.37303,0.1484 -2.37303,0.1484 0,0 -0.87013,0.0779 -0.87013,0.0779 0,0 -0.94922,0 -0.94922,0 0,0 -0.94924,0.0778 -0.94924,0.0778 0,0 -2.53126,0.0779 -2.53126,0.0779 0,0 -1.34474,0.0779 -1.34474,0.0779 0,0 -1.26561,0 -1.26561,0 0,0 -1.26565,0.0778 -1.26565,0.0778 0,0 -2.13575,0 -2.13575,0 0,0 -1.34472,0.0779 -1.34472,0.0779 0,0 -9.65045,0 -9.65045,0 0,0 -1.34476,-0.0779 -1.34476,-0.0779 0,0 -1.50291,0 -1.50291,0 0,0 -0.94923,-0.0746 -0.94923,-0.0746 0,0 -1.02834,0 -1.02834,0 0,0 -0.94924,-0.0779 -0.94924,-0.0779 0,0 -0.87012,0 -0.87012,0 0,0 -1.10741,-0.0808 -1.10741,-0.0808 0,0 -1.66114,-0.0779 -1.66114,-0.0779 0,0 -0.79104,-0.0708 -0.79104,-0.0708 0,0 -2.21485,-0.1554 -2.21485,-0.1554 0,0 -7.43558,-0.69411 -7.43558,-0.69411 -4.185275,-0.4399 -8.350795,-1.07341 -12.498105,-1.78074 0,0 -7.752005,-1.41852 -7.752005,-1.41852 -6.961765,-1.41544 -13.836525,-3.05857 -20.645618,-5.07408 0,0 -8.622125,-2.7228 -8.622125,-2.7228 0,0 -6.486358,-2.3427 -6.486358,-2.3427 -3.009836,-1.18302 -7.683188,-3.30031 -10.520573,-4.80826 0,0 -3.559595,-1.9968 -3.559595,-1.9968 0,0 -0.949216,1.78773 -0.949216,1.78773 0,0 -1.502945,2.64275 -1.502945,2.64275 0,0 -1.898438,-0.97783 -1.898438,-0.97783 0,0 -3.084983,-1.68824 -3.084983,-1.68824 0,0 -1.106642,-0.61638 -1.106642,-0.61638 0,0 -0.37336,-0.37855 -0.37336,-0.37855 0,0 0.507047,-1.00266 0.507047,-1.00266 0,0 1.414343,-2.4873 1.414343,-2.4873 0,0 5.185925,-9.09415 5.185925,-9.09415 0,0 13.187897,-23.16285 13.187897,-23.16285 0,0 4.385412,-7.69505 4.385412,-7.69505 0,0 1.795616,-3.18682 1.795616,-3.18682 0,0 2.214857,1.13326 2.214857,1.13326 0,0 4.350611,2.36448 4.350611,2.36448 0,0 -1.162801,2.17635 -1.162801,2.17635 0,0 -2.317686,4.04185 -2.317686,4.04185 0,0 3.480487,1.84605 3.480487,1.84605 2.111231,1.03687 4.299988,1.97429 6.486366,2.84871 3.459919,1.38355 7.042449,2.53159 10.599659,3.64853 7.43717,2.33572 14.94554,4.41183 22.544065,6.18247 6.800405,1.58487 13.649855,2.9933 20.566535,3.99443 3.10079,0.4485 7.68712,1.03223 10.75787,1.06718 0,0 1.18652,0.0779 1.18652,0.0779 0,0 5.77446,0 5.77446,0 0,0 1.34471,-0.0779 1.34471,-0.0779 0,0 2.84768,-0.0779 2.84768,-0.0779 0,0 0.79103,-0.0778 0.79103,-0.0778 0,0 0.79102,0 0.79102,0 0,0 0.55372,-0.0779 0.55372,-0.0779 0,0 0.7119,0 0.7119,0 0,0 3.40139,-0.2977 3.40139,-0.2977 5.65739,-0.53864 10.5174,-1.21954 15.97861,-2.88758 1.42383,-0.4345 2.83185,-0.92963 4.1924,-1.53278 2.97899,-1.31982 6.87002,-3.62368 8.28122,-6.63018 0.66127,-1.40843 0.75382,-2.44608 0.73641,-3.96408 -0.0115,-0.87368 -0.23725,-2.10333 -0.4651,-2.95366 -0.1954,-0.726 -0.4406,-1.27629 -0.78075,-1.9432 -2.66652,-5.22718 -9.37516,-6.71259 -14.73276,-7.66241 0,0 -3.24316,-0.47805 -3.24316,-0.47805 -2.28211,-0.32025 -4.58555,-0.49515 -6.88188,-0.64978 0,0 -2.37306,-0.1485 -2.37306,-0.1485 0,0 -0.79103,-0.0746 -0.79103,-0.0746 0,0 -0.791,0 -0.791,0 0,0 -1.18653,-0.0839 -1.18653,-0.0839 0,0 -1.18655,0 -1.18655,0 0,0 -0.94923,-0.0746 -0.94923,-0.0746 0,0 -1.81934,0 -1.81934,0 0,0 -1.34472,-0.0778 -1.34472,-0.0778 0,0 -10.9952,0 -10.9952,0 0,0 -36.149595,0 -36.149595,0 0,0 0,9.24961 0,9.24961 0,0 -7.51469,0 -7.51469,0 0,0 0,-9.24961 0,-9.24961 0,0 -0.3164,0 -0.3164,0 0,0 0,-35.288362 0,-35.288362 0,0 0.3164,0 0.3164,0 0,0 0,-9.01642 0,-9.01642 0,0 7.51469,0 7.51469,0 0,0 0,9.01642 0,9.01642 0,0 29.346835,0 29.346835,0 0,0 14.71298,0 14.71298,0 0,0 1.18652,-0.0778 1.18652,-0.0778 0,0 3.24318,0 3.24318,0 0,0 1.18652,-0.0778 1.18652,-0.0778 0,0 0.94925,0 0.94925,0 0,0 1.58203,-0.0778 1.58203,-0.0778 0,0 1.50295,-0.0778 1.50295,-0.0778 0,0 1.97753,-0.14845 1.97753,-0.14845 2.51782,-0.1702 5.01746,-0.4485 7.51469,-0.82936 4.08801,-0.62338 8.70677,-1.61441 12.41903,-3.43324 1.12877,-0.55342 2.4656,-1.30349 3.40137,-2.13129 1.62161,-1.4333 2.51228,-2.89224 3.03515,-4.961353 0.125,-0.49275 0.2808,-1.36645 0.28715,-1.865475 0.0175,-1.46982 -0.0125,-2.331055 -0.58933,-3.73093 -1.14303,-2.773325 -4.23433,-4.805125 -6.92537,-5.974135 0,0 -3.48048,-1.352465 -3.48048,-1.352465 -3.62685,-1.15348 -7.9118,-1.874015 -11.7071,-2.247105 0,0 -4.27151,-0.3824 -4.27151,-0.3824 0,0 -2.13577,-0.14845 -2.13577,-0.14845 0,0 -0.791,-0.07775 -0.791,-0.07775 0,0 -0.87013,0 -0.87013,0 0,0 -0.94922,-0.08085 -0.94922,-0.08085 0,0 -0.94925,0 -0.94925,0 0,0 -0.791,-0.0746 -0.791,-0.0746 0,0 -1.26564,0 -1.26564,0 0,0 -1.34472,-0.07775 -1.34472,-0.07775 0,0 -9.88777,0 -9.88777,0 0,0 -1.18653,0.07775 -1.18653,0.07775 0,0 -2.29395,0.07775 -2.29395,0.07775 0,0 -1.42384,0.07775 -1.42384,0.07775 0,0 -0.79103,0.07075 -0.79103,0.07075 0,0 -2.13574,0.15545 -2.13574,0.15545 -3.0138,0.20365 -6.026,0.563525 -9.01764,0.996475 -7.72667,1.11848 -15.34973,2.70332 -22.860465,4.80741 -6.76164,1.89424 -10.905795,3.26069 -17.402435,5.98426 0,0 -3.00589,1.25918 -3.00589,1.25918 0,0 -4.587904,2.09633 -4.587904,2.09633 0,0 -1.186524,0.545635 -1.186524,0.545635 -0.15267,0.077 -0.38128,0.17805 -0.446945,0.3459 -0.06565,0.1671 0.04275,0.374653 0.10838,0.527763 0,0 0.474615,1.0882 0.474615,1.0882 0,0 1.920587,4.43047 1.920587,4.43047 0,0 -3.717785,1.57787 -3.717785,1.57787 0,0 -3.243194,1.29806 -3.243194,1.29806 0,0 -0.802878,-1.9432 -0.802878,-1.9432 0,0 -1.378755,-3.18685 -1.378755,-3.18685 0,0 -4.508819,-10.415493 -4.508819,-10.415493 0,0 -14.587986,-33.733835 -14.587986,-33.733835 0,0 4.034215,-1.710775 4.034215,-1.710775 0,0 2.847671,-1.16513 2.847671,-1.16513 0,0 1.281443,2.875905 1.281443,2.875905 z m 200.919122,8.47231 c 0,0 2.37303,-1.26774 2.37303,-1.26774 2.90622,-1.54444 5.91764,-2.928 8.93855,-4.240045 0,0 4.19239,-1.79784 4.19239,-1.79784 6.20398,-2.51526 12.58752,-4.585145 19.06358,-6.30838 11.08536,-2.94976 22.3843,-4.98856 33.77657,-6.383765 4.26439,-0.522335 8.53116,-0.94051 12.81453,-1.22887 0,0 2.84768,-0.2262 2.84768,-0.2262 0,0 0.7119,0 0.7119,0 0,0 0.79102,-0.07775 0.79102,-0.07775 0,0 1.81935,-0.07775 1.81935,-0.07775 0,0 0.87012,-0.0746 0.87012,-0.0746 0,0 0.87015,0 0.87015,0 0,0 1.18652,-0.084 1.18652,-0.084 0,0 1.02831,0 1.02831,0 0,0 0.94923,-0.0746 0.94923,-0.0746 0,0 1.10743,0 1.10743,0 0,0 1.18653,-0.07775 1.18653,-0.07775 0,0 1.58203,0 1.58203,0 0,0 1.34475,-0.07775 1.34475,-0.07775 0,0 3.87599,0 3.87599,0 0,0 1.34472,-0.07775 1.34472,-0.07775 0,0 3.4805,0 3.4805,0 0,0 1.26564,0.07775 1.26564,0.07775 0,0 2.05664,0 2.05664,0 0,0 0.79103,0.0746 0.79103,0.0746 0,0 1.02832,0 1.02832,0 0,0 1.02833,0.08085 1.02833,0.08085 0,0 2.29396,0.14845 2.29396,0.14845 0,0 3.55959,0.3047 3.55959,0.3047 5.52923,0.54332 11.0189,1.54835 16.37412,3.01194 0,0 2.92676,0.788175 2.92676,0.788175 3.84357,1.120815 7.66578,2.4422 11.31157,4.087695 9.9906,4.508215 18.6151,10.916075 24.15936,20.41828 1.58124,2.71037 2.62541,4.88364 3.63158,7.8505 1.04255,3.07335 1.65321,6.255525 1.87946,9.482785 0,0 0.0752,0.77727 0.0752,0.77727 0,0 0,0.932745 0,0.932745 0,0 0.0759,0.93271 0.0759,0.93271 0,0 -0.0791,3.964123 -0.0791,3.964123 0,0 -0.0791,1.32137 -0.0791,1.32137 0,0 -0.072,0.85501 -0.072,0.85501 0,0 -0.3014,3.18683 -0.3014,3.18683 -0.76968,6.12805 -2.41264,12.0136 -5.98171,17.17782 -4.00097,5.78759 -9.22883,9.67554 -15.39798,13.00385 -6.08611,3.28399 -12.60175,5.7293 -19.2218,7.75099 0,0 -13.68466,4.139782 -13.68466,4.139782 0,0 -14.63386,4.13044 -14.63386,4.13044 0,0 -21.83216,6.21823 -21.83216,6.21823 0,0 -8.78032,2.63187 -8.78032,2.63187 -5.80846,1.71935 -11.56789,3.67106 -17.24425,5.77515 0,0 -5.61625,2.21992 -5.61625,2.21992 -0.77123,0.335 -2.37146,1.02055 -3.00585,1.46595 0,0 120.39323,0 120.39323,0 0,0 0,-7.38414 0,-7.38414 0,0 7.51471,0 7.51471,0 0,0 0,53.55438 0,53.55438 0,0 -7.51471,0 -7.51471,0 0,0 0,-5.82959 0,-5.82959 0,0 -181.77639,0 -181.77639,0 0,0 0,-39.8743 0,-39.8743 0.002,-0.91794 0.477,-1.16825 1.10744,-1.78773 0,0 2.53126,-2.565 2.53126,-2.565 3.78264,-3.71696 7.75435,-7.26289 11.86529,-10.62927 9.19797,-7.5326 19.26688,-14.089712 29.97967,-19.352652 9.16078,-4.50121 20.46684,-8.69385 30.21695,-11.88767 7.03375,-2.30385 14.13554,-4.41495 21.27842,-6.36668 0,0 6.16998,-1.59885 6.16998,-1.59885 4.4764,-1.19001 8.94013,-2.44298 13.36825,-3.79546 3.24239,-0.98946 6.4642,-2.00536 9.65045,-3.16351 0,0 3.63868,-1.47838 3.63868,-1.47838 2.29476,-1.01667 4.86952,-2.2611 6.88188,-3.74414 1.63425,-1.20478 2.95446,-2.62797 3.52558,-4.596038 0.26895,-0.924185 0.2824,-1.4644 0.2713,-2.409555 -0.0165,-1.378885 -0.65573,-2.83629 -1.42381,-3.96412 -1.57492,-2.31162 -4.61796,-4.38696 -7.19827,-5.507795 -3.07549,-1.33613 -6.40964,-2.01314 -9.72955,-2.44219 0,0 -4.82522,-0.4516 -4.82522,-0.4516 0,0 -3.00588,-0.14845 -3.00588,-0.14845 0,0 -1.34473,-0.07775 -1.34473,-0.07775 0,0 -6.01174,0 -6.01174,0 0,0 -1.18654,0.07775 -1.18654,0.07775 0,0 -1.02834,0 -1.02834,0 0,0 -1.58204,0.07775 -1.58204,0.07775 0,0 -1.50295,0.07775 -1.50295,0.07775 0,0 -1.81932,0.14845 -1.81932,0.14845 0,0 -3.7178,0.3047 -3.7178,0.3047 -4.21535,0.4143 -8.40617,1.029105 -12.57722,1.768305 -5.21599,0.924175 -10.37503,1.9634 -15.50398,3.28788 -9.19483,2.375355 -19.36339,6.00679 -28.00215,9.904843 0,0 -1.26562,0.61482 -1.26562,0.61482 -2.7567,1.28018 -5.48174,2.6373 -8.1475,4.09159 0,0 -3.79689,2.14217 -3.79689,2.14217 0,0 -1.42383,0.82235 -1.42383,0.82235 0,0 2.05743,4.7414 2.05743,4.7414 0,0 0.94844,2.33183 0.94844,2.33183 0,0 -6.88189,2.7982 -6.88189,2.7982 0,0 -14.8253,-34.277908 -14.8253,-34.277908 0,0 -4.30551,-9.949145 -4.30551,-9.949145 0,0 -1.37873,-3.18683 -1.37873,-3.18683 0,0 -0.76888,-1.943205 -0.76888,-1.943205 0,0 6.88187,-2.798195 6.88187,-2.798195 z M 426.0291,2.176375 c 0,0 77.83635,0 77.83635,0 0,0 0,7.3064 0,7.3064 0,0 -8.7803,0 -8.7803,0 0,0 1.49663,1.787745 1.49663,1.787745 0,0 3.05808,3.575475 3.05808,3.575475 0,0 9.43999,11.037335 9.43999,11.037335 0,0 13.89505,16.24508 13.89505,16.24508 0,0 4.58795,5.36321 4.58795,5.36321 0,0 2.8018,3.264575 2.8018,3.264575 0,0 1.885,-2.09866 1.885,-2.09866 0,0 3.00585,-3.264565 3.00585,-3.264565 0,0 8.85945,-9.638235 8.85945,-9.638235 0,0 15.504,-16.8669 15.504,-16.8669 0,0 6.64455,-7.228675 6.64455,-7.228675 0,0 1.991,-2.176385 1.991,-2.176385 0,0 -8.3057,0 -8.3057,0 0,0 0,-7.3064 0,-7.3064 0,0 77.83635,0 77.83635,0 0,0 0,7.3064 0,7.3064 0,0 -10.91605,0 -10.91605,0 -0.9801,0.002 -1.0869,0.51612 -1.74025,1.165925 0,0 -2.449,2.487275 -2.449,2.487275 0,0 -0.9524,1.010475 -0.9524,1.010475 0,0 -4.512,4.663655 -4.512,4.663655 0,0 -7.50835,7.69504 -7.50835,7.69504 0,0 -2.22115,2.331835 -2.22115,2.331835 0,0 -31.7927,32.723348 -31.7927,32.723348 0,0 -3.8032,3.96413 -3.8032,3.96413 0,0 -7.5084,7.69503 -7.5084,7.69503 0,0 -3.24315,3.3423 -3.24315,3.3423 0,0 -1.1897,1.24364 -1.1897,1.24364 0,0 2.0891,2.40956 2.0891,2.40956 0,0 4.1141,4.89684 4.1141,4.89684 0,0 11.70705,13.91325 11.70705,13.91325 0,0 9.75565,11.581432 9.75565,11.581432 0,0 25.31265,30.0806 25.31265,30.0806 0,0 13.7242,16.32283 13.7242,16.32283 0,0 3.27165,3.88639 3.27165,3.88639 0.246,0.2969 0.89625,1.15503 1.2182,1.27474 0.1495,0.0553 0.391,0.0465 0.5529,0.0465 0,0 8.3057,0 8.3057,0 0,0 0,7.30642 0,7.30642 0,0 -77.83635,0 -77.83635,0 0,0 0,-7.30642 0,-7.30642 0,0 6.64455,0 6.64455,0 0,0 -1.6809,-2.0209 -1.6809,-2.0209 0,0 -3.2693,-3.80866 -3.2693,-3.80866 0,0 -9.72955,-11.34826 -9.72955,-11.34826 0,0 -17.79795,-20.75326 -17.79795,-20.75326 0,0 -7.8643,-9.1719 -7.8643,-9.1719 0,0 -1.31155,1.55456 -1.31155,1.55456 0,0 -2.8587,3.18685 -2.8587,3.18685 0,0 -9.49225,10.57095 -9.49225,10.57095 0,0 -9.97635,11.11506 -9.97635,11.11506 0,0 -7.67286,8.55006 -7.67286,8.55006 0,0 -6.48639,7.22868 -6.48639,7.22868 0,0 -2.93944,3.26455 -2.93944,3.26455 0,0 11.94441,0 11.94441,0 0,0 0,7.38413 0,7.38413 0,0 -77.83638,0 -77.83638,0 0,0 0,-7.38413 0,-7.38413 0,0 6.88188,0 6.88188,0 0,0 0.55054,-0.0465 0.55054,-0.0465 0,0 1.21186,-1.19704 1.21186,-1.19704 0,0 3.24317,-3.49776 3.24317,-3.49776 0,0 6.29256,-6.76229 6.29256,-6.76229 0,0 6.90244,-7.46186 6.90244,-7.46186 0,0 6.41361,-6.91777 6.41361,-6.91777 0,0 10.59965,-11.42595 10.59965,-11.42595 0,0 22.51719,-24.251062 22.51719,-24.251062 0,0 8.14749,-8.78323 8.14749,-8.78323 0,0 3.2432,-3.49774 3.2432,-3.49774 0,0 2.1492,-2.33183 2.1492,-2.33183 0,0 -1.7529,-1.86547 -1.7529,-1.86547 0,0 -3.63792,-4.04184 -3.63792,-4.04184 0,0 -10.83775,-12.04778 -10.83775,-12.04778 0,0 -18.66808,-20.753308 -18.66808,-20.753308 0,0 -9.65045,-10.72641 -9.65045,-10.72641 0,0 -5.81874,-6.451415 -5.81874,-6.451415 0,0 -12.99883,-14.45734 -12.99883,-14.45734 0,0 -3.08103,-3.420025 -3.08103,-3.420025 0,0 -1.11454,-1.11928 -1.11454,-1.11928 0,0 -0.5466,-0.0465 -0.5466,-0.0465 0,0 -5.85354,0 -5.85354,0 z" />
</svg>
