<?xml version="1.0" encoding="UTF-8" standalone="no"?>
<svg xmlns="http://www.w3.org/2000/svg" xmlns:svg="http://www.w3.org/2000/svg" id="svgdreamcasticon" version="1.1" viewBox="0 0 128 128" height="128" width="128">
  <path id="dreamcasticon" fill="#dd5630" d="m 69.321418,7.513636 c 0,0 4.588807,0.3175652 4.588807,0.3175652 5.233524,0.6535718 13.238685,2.5935748 18.125768,4.5174708 2.542193,1.001066 5.869077,2.733953 8.259837,4.096327 1.93189,1.102324 4.24006,2.471606 5.96544,3.850086 4.29054,3.424348 5.9861,6.142194 9.04454,10.482459 2.78999,3.955948 4.69435,7.424014 6.8442,11.736669 0,0 2.53761,5.293008 2.53761,5.293008 1.16096,3.198815 1.20685,4.692368 1.91353,7.824445 0,0 1.41565,6.903926 1.41565,6.903926 0.0987,1.35777 -0.33498,3.801762 -1.38353,4.736094 -1.82634,1.631625 -5.31842,0.575327 -6.78684,-1.063205 -1.54413,-1.723681 -2.06266,-5.520837 -2.65922,-7.815243 0,0 -1.74144,-4.832746 -1.74144,-4.832746 -0.97971,-3.090657 -1.43859,-5.587575 -3.08597,-8.514839 -4.09322,-7.26753 -10.91677,-16.5418 -17.799973,-21.229565 -4.343298,-2.959485 -12.685742,-5.755571 -17.89632,-6.706011 0,0 -3.67105,-0.46947 -3.67105,-0.46947 0,0 -4.818243,-0.757128 -4.818243,-0.757128 -3.558607,-0.428044 -7.197538,-0.56612 -10.783683,-0.5247 -1.548726,0.01821 -4.178108,0.46947 -5.736008,0.782447 0,0 -4.818243,1.063201 -4.818243,1.063201 -5.323009,1.654642 -12.974841,6.300985 -17.43745,9.690811 -4.568157,3.46807 -8.429634,7.115643 -11.61885,11.936883 0,0 -4.499325,8.514843 -4.499325,8.514843 0,0 -1.651967,3.682087 -1.651967,3.682087 -0.743387,2.089588 -1.7942229,8.29622 -1.9341804,10.586016 0,0 0,2.30131 0,2.30131 0,0 0,5.062882 0,5.062882 0.013631,3.396727 0.7663284,5.962684 1.4821804,9.20523 0.649316,2.950275 1.35829,5.932771 2.494015,8.744969 2.36094,5.843022 6.456446,11.626207 11.368763,15.545332 8.826562,7.04431 21.521488,9.6678 32.580501,9.53892 0,0 2.294402,-0.2094 2.294402,-0.2094 5.756658,-0.40502 7.759667,-1.01716 13.078088,-3.15048 5.068337,-2.03434 11.173739,-5.34594 15.133871,-9.10628 0.984302,-0.934331 2.122321,-2.517628 2.925367,-3.642966 3.462249,-4.848853 5.410197,-9.621766 5.343656,-15.648894 0,0 -0.649313,-5.293008 -0.649313,-5.293008 0,0 -0.332705,-4.142353 -0.332705,-4.142353 0,0 -2.198028,-9.205235 -2.198028,-9.205235 -0.773221,-2.74087 -1.45924,-5.329842 -2.884069,-7.82446 C 86.515647,47.10533 80.839301,42.314012 73.910214,39.133603 71.246403,37.911609 65.361267,36.549237 62.438203,36.549237 c 0,0 -1.835529,0.190987 -1.835529,0.190987 -3.260343,0.227825 -6.543627,0.665078 -9.636479,1.790417 -2.37012,0.862993 -4.054211,1.820335 -6.194887,3.109066 -1.649673,0.991866 -3.643512,2.126411 -5.047683,3.426651 -1.780457,1.652337 -2.202627,2.704033 -3.540262,4.581904 -4.338715,6.091562 -5.953974,9.971568 -5.866786,17.489937 0.05278,4.354079 1.553311,10.528486 3.774293,14.268112 3.953253,6.655385 11.231095,10.675765 18.940283,10.586016 4.70811,-0.05521 9.039946,-1.647735 13.307536,-3.48648 2.617905,-1.127644 5.956262,-3.159697 7.365026,-5.71875 1.234388,-2.243775 1.096721,-4.469141 1.124255,-6.903925 0,0 0.220251,-2.991703 0.220251,-2.991703 -0.06887,-2.174735 -0.825984,-4.655545 -1.610666,-6.673789 -1.103609,-2.839815 -2.103968,-4.255121 -4.575043,-6.066246 -3.661865,-2.683329 -10.687321,-5.127316 -14.913606,-2.568263 -2.207217,1.33476 -5.024742,5.000744 -5.006386,7.713984 0.0068,0.920525 0.722738,2.832911 1.135728,3.682096 0.550658,1.13454 1.372052,2.280589 2.494017,2.897345 1.661146,0.909018 6.674415,0.780142 8.718722,0.784743 0.68144,0.0023 1.413357,-0.05063 2.039729,0.301458 2.271449,1.323251 2.005304,5.205559 0,6.683 -1.768988,1.327853 -5.426267,1.320949 -7.546293,1.109228 -2.225569,-0.223216 -5.336777,-0.642065 -7.342084,-1.647736 -1.101311,-0.552316 -1.84699,-1.238104 -2.753282,-2.038957 -3.317706,-2.929567 -5.082097,-6.880911 -5.267945,-11.310933 -0.07342,-1.762801 0.479527,-3.594639 0.943,-5.293006 0.465764,-1.702966 1.252741,-3.387528 2.269162,-4.832749 1.773573,-2.515331 5.318424,-5.472509 8.250667,-6.512699 5.605224,-1.990634 14.700231,-0.287674 19.9613,2.213856 6.284359,2.987097 9.26479,7.711685 11.109489,14.19447 0.692906,2.437083 1.275693,5.523139 1.280279,8.05458 0,0 0,3.221829 0,3.221829 -0.03673,3.010112 -0.628667,6.538013 -2.039726,9.205231 -2.195741,4.15156 -5.228938,6.257259 -9.202849,8.482624 -6.867143,3.843183 -13.709046,5.647405 -21.567373,5.555355 -7.851441,-0.09207 -16.570169,-3.622248 -21.727983,-9.665486 -3.37277,-3.951345 -5.010974,-8.611491 -6.183411,-13.577716 0,0 -0.653905,-2.301309 -0.653905,-2.301309 -0.334976,-1.422207 -0.800746,-4.768312 -0.80304,-6.213532 -0.0068,-4.84195 0.238614,-9.624069 1.778161,-14.268109 0.743383,-2.246078 2.851939,-5.852229 4.214813,-7.824445 1.369761,-1.983733 3.788061,-5.267695 5.481329,-6.883212 3.001074,-2.858225 7.973045,-5.803901 11.699152,-7.672563 3.925722,-1.967616 7.429276,-3.617654 11.930887,-3.624559 0,0 4.588807,0 4.588807,0 2.895534,0.03458 6.098525,0.646668 8.948165,1.196679 3.384236,0.651271 6.880906,1.286435 10.095371,2.588975 4.361657,1.767405 11.655553,7.281333 14.53044,10.942716 5.297773,6.745133 6.740953,12.827489 8.413563,20.941902 1.24127,6.01332 2.13609,11.317834 2.06497,17.489942 0,0 -0.39465,3.912226 -0.39465,3.912226 0,0 -0.63325,3.912218 -0.63325,3.912218 -1.473,5.773979 -5.146339,11.888553 -9.299206,16.109153 -4.207936,4.27353 -9.351974,7.50917 -14.681867,10.18328 -3.831647,1.9216 -9.106488,4.09174 -13.307536,4.89949 -3.967016,0.76404 -10.116021,0.84458 -14.225289,0.79626 -3.235107,-0.0392 -7.358146,-0.8653 -10.554247,-1.50736 -5.697,-1.14604 -12.435656,-3.20573 -17.437452,-6.19052 -3.4439,-2.05506 -7.039225,-5.11581 -9.865927,-7.95102 -1.71392,-1.71907 -4.065682,-4.19759 -5.382666,-6.213532 -3.028612,-4.644039 -5.7635384,-11.234977 -7.3352053,-16.56941 0,0 -0.6745516,-2.991702 -0.6745516,-2.991702 0,0 -1.42023692,-5.983398 -1.42023692,-5.983398 0,0 -0.16519713,-2.301309 -0.16519713,-2.301309 0,0 -0.39463667,-4.602616 -0.39463667,-4.602616 0,0 0.22025016,-2.301309 0.22025016,-2.301309 0,0 0,-2.761572 0,-2.761572 0.0344556,-2.147118 0.54148146,-3.320788 1.00724416,-5.293004 0,0 0.5529502,-2.991702 0.5529502,-2.991702 0,0 2.1062611,-5.983398 2.1062611,-5.983398 2.8817673,-7.644948 6.600993,-14.461421 12.194745,-20.481643 1.993834,-2.147119 2.510076,-2.211555 4.568157,-3.836279 0,0 2.753278,-2.322022 2.753278,-2.322022 1.647382,-1.254211 4.577334,-2.975591 6.424327,-4.031891 0,0 2.753282,-1.700667 2.753282,-1.700667 1.945653,-1.109229 9.820036,-4.650941 11.930888,-5.3482396 0,0 2.753282,-0.6811886 2.753282,-0.6811886 0,0 4.588803,-1.1069277 4.588803,-1.1069277 0,0 4.818246,-0.6673806 4.818246,-0.6673806 3.629749,-0.4441501 8.927512,0.089741 12.619208,0.3428977 z"/>
</svg>
