<?xml version="1.0" encoding="UTF-8" standalone="no"?>
<svg
     width="640"
     height="112"
     id="svg6688"
     version="1.1"
     xml:space="preserve"
     xmlns="http://www.w3.org/2000/svg"
     xmlns:svg="http://www.w3.org/2000/svg">
    <path
         id="logo"
         style="fill:#ff0000;stroke:none"
         d="m 640,85.758184 h -28.62233 v -3.900839 c 0.91233,-0.07867 1.8347,-0.15734 2.76702,-0.236009 0.93221,-0.07866 1.75535,-0.236114 2.4695,-0.472761 1.11071,-0.354651 1.93386,-0.975289 2.46951,-1.861916 0.53545,-0.886415 0.80323,-2.038923 0.80332,-3.45742 V 45.745905 c -9e-5,-4.097726 -0.94226,-7.259815 -2.82654,-9.486056 -1.88442,-2.226136 -4.23492,-3.339203 -7.05145,-3.339309 -1.94391,1.06e-4 -3.76876,0.295648 -5.47452,0.886521 -1.70591,0.591084 -3.27289,1.418602 -4.70097,2.482342 -1.15052,0.866853 -2.11252,1.802701 -2.88605,2.807439 -0.77361,1.004737 -1.35876,1.842036 -1.75541,2.51179 v 33.629523 c -7e-5,1.379055 0.23795,2.511897 0.71408,3.398416 0.47595,0.886415 1.28921,1.566375 2.43974,2.03903 0.91234,0.354651 1.73552,0.620639 2.46947,0.797964 0.73385,0.178601 1.69585,0.305429 2.88606,0.384099 v 3.900838 h -28.02728 v -3.900838 c 0.91239,-0.07867 1.79505,-0.157445 2.648,-0.236115 0.85287,-0.07867 1.63639,-0.236008 2.35051,-0.472655 1.1107,-0.354651 1.93388,-0.97529 2.46947,-1.861917 0.53552,-0.88652 0.8033,-2.039028 0.80332,-3.457419 v -30.08344 c -2e-5,-4.097726 -0.94222,-7.259709 -2.82651,-9.485951 -1.88439,-2.226135 -4.23489,-3.339308 -7.05145,-3.339308 -1.94391,0 -3.76873,0.305429 -5.47455,0.916075 -1.70584,0.610752 -3.27286,1.448051 -4.70096,2.511897 -1.15047,0.866852 -2.1224,1.842035 -2.91579,2.925549 -0.79341,1.08362 -1.38849,1.901251 -1.78519,2.452788 v 33.393088 c 0,1.339721 0.27756,2.462675 0.83309,3.368864 0.55536,0.906188 1.38846,1.595821 2.49924,2.068477 0.83307,0.393985 1.68599,0.689633 2.55878,0.886627 0.87273,0.196779 1.84466,0.334983 2.91578,0.413652 v 3.900945 h -28.50331 v -3.900945 c 0.91242,-0.07867 1.85458,-0.157338 2.8265,-0.236008 0.97194,-0.07867 1.81493,-0.236008 2.52902,-0.472974 1.11076,-0.354332 1.93393,-0.974971 2.46951,-1.861598 0.53553,-0.88652 0.80331,-2.039029 0.80331,-3.457525 V 39.599796 c 0,-1.26084 -0.28761,-2.393681 -0.86283,-3.398418 -0.57524,-1.004738 -1.37856,-1.861703 -2.40999,-2.571005 -0.75376,-0.472762 -1.68601,-0.856966 -2.79679,-1.152509 -1.11076,-0.295329 -2.26123,-0.482648 -3.45133,-0.56153 v -3.841625 l 19.63693,-1.300279 0.8331,0.827412 v 8.333548 h 0.41653 c 0.99173,-0.984964 2.20171,-2.147359 3.62987,-3.48708 1.42812,-1.339615 2.75706,-2.423128 3.98689,-3.250646 1.38844,-0.945629 3.12403,-1.7336 5.20674,-2.364125 2.0827,-0.63042 4.33401,-0.945524 6.75394,-0.94563 3.80835,1.06e-4 7.08114,1.014625 9.81848,3.043767 2.73722,2.029249 4.7009,4.482037 5.89107,7.358364 1.42809,-1.379054 2.68762,-2.590672 3.77864,-3.634851 1.09087,-1.044072 2.52892,-2.157245 4.31416,-3.339308 1.50741,-1.024405 3.28267,-1.851817 5.32578,-2.482342 2.04298,-0.63042 4.3141,-0.945524 6.81344,-0.94563 4.95872,1.06e-4 8.88609,1.61549 11.78213,4.846469 2.89586,3.230978 4.34384,8.195557 4.34396,14.893842 v 29.610573 c -1.2e-4,1.379055 0.23795,2.511897 0.71406,3.398416 0.47595,0.886415 1.28918,1.566056 2.43974,2.03903 0.91234,0.354651 1.81482,0.620639 2.70751,0.797964 0.89249,0.178601 1.89417,0.305322 3.00505,0.383992 z m -94.76428,-13.71178 c -2.45964,4.649369 -5.75226,8.353215 -9.87795,11.11122 -4.12579,2.758218 -8.86642,4.137274 -14.22191,4.137274 -4.72084,0 -8.85649,-0.827413 -12.407,-2.482343 -3.55053,-1.654931 -6.47621,-3.900839 -8.77712,-6.737726 -2.30089,-2.836887 -4.01665,-6.146641 -5.14724,-9.929264 -1.13063,-3.782516 -1.69592,-7.781798 -1.69592,-11.997847 0,-3.782623 0.60499,-7.496249 1.81493,-11.140881 1.20996,-3.644632 2.98522,-6.924832 5.32577,-9.840601 2.26121,-2.797553 5.06792,-5.053348 8.42008,-6.76728 3.35214,-1.714039 7.11094,-2.571005 11.27636,-2.571005 4.2844,0 7.95393,0.66986 11.00859,2.009474 3.05459,1.339721 5.53399,3.171871 7.43825,5.496555 1.82478,2.206574 3.18349,4.807134 4.07614,7.801572 0.89253,2.994545 1.33884,6.245298 1.33887,9.751938 v 3.90084 h -38.85731 c -3e-5,3.821957 0.36694,7.289369 1.10086,10.402132 0.73389,3.112761 1.89422,5.851205 3.48107,8.215224 1.54714,2.28535 3.57034,4.087945 6.06961,5.407998 2.49921,1.319948 5.47453,1.979921 8.92588,1.979921 3.53064,0 6.57536,-0.817632 9.13417,-2.452788 2.55868,-1.635157 5.02818,-4.58048 7.40847,-8.835864 z m -13.15079,-22.22276 c -6e-5,-2.206467 -0.18859,-4.570486 -0.56531,-7.092269 -0.37691,-2.521678 -0.9819,-4.629702 -1.81492,-6.324074 -0.91246,-1.812376 -2.16209,-3.289981 -3.74888,-4.432709 -1.58687,-1.142622 -3.62989,-1.713933 -6.1291,-1.713933 -4.16545,0 -7.62669,1.72382 -10.38378,5.171459 -2.75714,3.447745 -4.25468,8.244885 -4.49268,14.391526 z m -32.22364,33.393301 c -2.57864,1.063634 -5.01838,1.959935 -7.31921,2.688904 -2.30094,0.729075 -5.11754,1.093612 -8.44985,1.093612 -4.91917,0 -8.38043,-1.231284 -10.3838,-3.693853 -2.00335,-2.462675 -3.00505,-5.939975 -3.00502,-10.431791 V 33.393088 h -10.59207 v -5.67388 h 10.83009 V 9.5746131 H 481.7715 V 27.719208 h 16.84016 v 5.67388 h -16.72115 v 32.565677 c -3e-5,2.442902 0.0892,4.481931 0.2678,6.117087 0.17854,1.635263 0.60495,3.063541 1.27937,4.285044 0.63472,1.142622 1.58681,2.009475 2.85629,2.600453 1.26944,0.590978 2.97528,0.886627 5.1175,0.886627 0.99175,0 2.44964,-0.08718 4.3737,-0.266307 1.92399,-0.178495 3.2827,-0.403978 4.07615,-0.67964 z M 462.40113,57.211564 c 1.62645,1.418497 2.87608,3.053653 3.74887,4.90547 0.8727,1.851923 1.30907,4.117606 1.30914,6.796835 -7e-5,5.398111 -2.03319,9.811153 -6.09938,13.239125 -4.06624,3.427864 -9.33253,5.141904 -15.79879,5.141904 -3.41169,0 -6.55558,-0.610753 -9.4317,-1.832362 -2.87612,-1.221292 -4.92907,-2.344246 -6.15884,-3.368545 l -1.19013,3.841518 h -4.46293 l -0.59506,-20.272287 h 4.10588 c 0.31739,1.536714 0.99177,3.329529 2.02323,5.378445 1.03139,2.04881 2.28104,3.900733 3.74888,5.555557 1.5471,1.733706 3.40173,3.191432 5.56379,4.373813 2.16203,1.181957 4.59183,1.772935 7.28948,1.772935 3.80834,0 6.74396,-0.856967 8.80685,-2.571005 2.06283,-1.713934 3.09425,-4.166721 3.09432,-7.35826 -7e-5,-1.65493 -0.32734,-3.083207 -0.98185,-4.284937 -0.65462,-1.20173 -1.61662,-2.255795 -2.88606,-3.161983 -1.30913,-0.906295 -2.91582,-1.723927 -4.81997,-2.452789 -1.90422,-0.728968 -4.02658,-1.448051 -6.36712,-2.157246 -1.86455,-0.551643 -3.93732,-1.310167 -6.21838,-2.275463 -2.28106,-0.965296 -4.23482,-2.098138 -5.8613,-3.398417 -1.74552,-1.379056 -3.17366,-3.073321 -4.28442,-5.082902 -1.1108,-2.009475 -1.66619,-4.373601 -1.66619,-7.092376 0,-4.76748 1.78519,-8.806204 5.35553,-12.116065 3.57033,-3.309648 8.35064,-4.964578 14.34091,-4.964578 2.30087,0 4.65137,0.295648 7.05147,0.88652 2.40004,0.591085 4.35379,1.300386 5.86133,2.127691 l 1.36862,-3.07332 h 4.28442 l 0.89259,18.735573 h -4.1059 c -0.83311,-4.176501 -2.62823,-7.574919 -5.38527,-10.195252 -2.75716,-2.62012 -6.11922,-3.930287 -10.08627,-3.930287 -3.25298,0 -5.81176,0.807745 -7.67625,2.423234 -1.86451,1.615489 -2.79678,3.565856 -2.79678,5.851099 0,1.773148 0.30745,3.250753 0.92235,4.432816 0.61487,1.182063 1.53722,2.1868 2.76702,3.014212 1.19011,0.788078 2.68766,1.526827 4.4927,2.216355 1.80499,0.689528 4.03645,1.467718 6.69439,2.334571 2.61825,0.827412 5.08772,1.792815 7.40851,2.895996 2.32068,1.103287 4.23479,2.32479 5.74231,3.664405 z m -90.53937,47.577846 c 0,-1.97026 0.54549,-3.57586 1.63641,-4.816815 1.09094,-1.241381 2.44968,-1.86202 4.07616,-1.86202 1.26946,0 2.3604,0.236115 3.27282,0.709302 0.91244,0.472974 1.72565,1.083728 2.43974,1.832353 0.59504,0.59099 1.22976,1.39862 1.90419,2.42324 0.67439,1.0243 1.20994,1.87138 1.60667,2.54134 1.98349,-1.06406 4.35383,-3.84162 7.11095,-8.33354 2.75707,-4.491818 4.75054,-8.432098 5.98033,-11.820734 -3.76873,-9.338073 -7.1804,-17.691289 -10.23498,-25.059435 -3.05467,-7.368145 -6.24815,-14.992391 -9.58049,-22.872846 -0.75371,-1.812376 -2.02319,-3.220986 -3.80837,-4.225829 -1.78515,-1.004632 -3.57034,-1.644937 -5.35552,-1.920813 v -3.900838 h 26.77764 v 4.137273 c -1.19014,0.03934 -2.61828,0.285655 -4.28442,0.738749 -1.66619,0.4532 -2.49924,0.975289 -2.49924,1.566267 0,0.236329 0.0892,0.63042 0.2678,1.182064 0.17853,0.551643 0.38678,1.122954 0.62482,1.713932 1.50748,3.90084 3.80834,9.525392 6.9027,16.87387 3.09425,7.348477 5.49432,13.229237 7.2002,17.642172 1.78512,-4.215942 3.63974,-8.579761 5.56379,-13.091246 1.92401,-4.511485 4.07613,-9.840601 6.4564,-15.987349 0.27755,-0.748531 0.67435,-1.782928 1.19009,-3.102875 0.51569,-1.319948 0.77356,-2.452682 0.77359,-3.398418 -3e-5,-1.024405 -0.90255,-1.979921 -2.70751,-2.866441 -1.80505,-0.88652 -3.5208,-1.428277 -5.14725,-1.625376 v -3.782622 h 21.77913 v 3.664405 c -1.19017,0.196992 -2.75715,0.87674 -4.70097,2.039029 -1.94388,1.162395 -3.39186,2.807439 -4.34392,4.935131 -4.72084,10.874893 -8.91598,20.784489 -12.5855,29.728683 -3.66953,8.9443 -6.45642,15.524262 -8.36057,19.740523 -2.49927,5.516222 -4.73074,9.820721 -6.6944,12.913704 -1.96371,3.09321 -3.87784,5.52622 -5.74234,7.29947 -1.82485,1.65461 -3.48109,2.7679 -4.96874,3.33921 -1.48764,0.57141 -3.02488,0.85707 -4.61169,0.85707 -3.09432,0 -5.52412,-0.72897 -7.28948,-2.18702 -1.76532,-1.45793 -2.64801,-3.13221 -2.64801,-5.02357 z m 2.88483,-57.50711 c 1.78513,1.970141 3.10416,4.127386 3.95715,6.471738 0.85286,2.344458 1.2793,5.073015 1.27937,8.185671 -7e-5,7.407693 -2.75718,13.514893 -8.27131,18.32192 -5.51425,4.806921 -12.35744,7.210594 -20.52952,7.210594 -3.76874,0 -7.53745,-0.581304 -11.30613,-1.7437 -3.76873,-1.162289 -7.0217,-2.570899 -9.75897,-4.225829 l -2.55875,4.314492 h -4.76046 l -0.8331,-28.723839 h 4.81997 c 0.99177,3.546189 2.15214,6.747613 3.48111,9.604167 1.32894,2.856661 3.08439,5.526215 5.26628,8.008452 2.06283,2.324791 4.47283,4.176714 7.22994,5.555663 2.75708,1.379056 5.96048,2.06869 9.61021,2.06869 2.73724,0 5.12738,-0.354651 7.17048,-1.063952 2.04296,-0.709089 3.6992,-1.71404 4.96874,-3.014213 1.2694,-1.30028 2.21157,-2.827107 2.82651,-4.58048 0.61486,-1.753373 0.9223,-3.772735 0.92236,-6.058085 -6e-5,-3.349089 -0.95215,-6.471739 -2.85628,-9.367733 -1.90426,-2.895996 -4.7407,-5.092683 -8.50935,-6.589956 -2.57864,-1.024404 -5.53409,-2.157245 -8.86638,-3.398417 -3.33237,-1.241171 -6.20848,-2.413347 -8.62834,-3.516634 -4.76051,-2.127692 -8.45978,-4.915357 -11.09786,-8.363102 -2.63812,-3.447532 -3.95715,-7.949237 -3.95715,-13.505006 0,-3.191432 0.65455,-6.166309 1.96368,-8.924527 1.30914,-2.758005 3.17366,-5.2206804 5.59357,-7.3878132 2.30086,-2.0488097 5.01831,-3.6544121 8.15231,-4.8169139 C 343.18862,0.58119771 346.46145,1.0631017e-4 349.87314,0 c 3.88769,1.0631017e-4 7.36878,0.59108456 10.44327,1.773041 3.07443,1.1821692 5.88114,2.5612247 8.42011,4.137273 l 2.43974,-4.019056 h 4.76047 l 0.47604,27.837425 h -4.81998 c -0.87281,-3.191431 -1.85466,-6.245085 -2.94554,-9.160854 -1.09099,-2.915768 -2.50923,-5.555663 -4.25468,-7.919788 -1.70588,-2.285244 -3.78858,-4.1076132 -6.24813,-5.4671077 -2.4596,-1.3592819 -5.47455,-2.0389229 -9.04489,-2.0390292 -3.76873,1.063e-4 -6.98203,1.2018365 -9.63994,3.605297 -2.65795,2.4035669 -3.98691,5.3390039 -3.98688,8.8063099 -3e-5,3.625071 0.85289,6.629396 2.55873,9.013189 1.70583,2.383899 4.18523,4.344153 7.43826,5.880759 2.89591,1.379162 5.74226,2.571006 8.53908,3.575744 2.79675,1.004736 5.50426,2.07847 8.12256,3.221091 2.38018,1.024511 4.67114,2.1868 6.87293,3.487081 2.20164,1.300279 4.11576,2.817219 5.7423,4.550925 z M 311.37046,34.988804 c -3e-5,2.009581 -0.49592,3.79251 -1.48765,5.34889 -0.99182,1.556381 -2.51913,2.334571 -4.58196,2.334571 -2.22159,0 -3.9175,-0.571311 -5.08774,-1.714038 -1.17031,-1.142622 -1.75546,-2.403461 -1.75542,-3.782516 -4e-5,-0.866853 0.0695,-1.654824 0.20839,-2.364126 0.13893,-0.709195 0.26781,-1.41839 0.38678,-2.127692 -1.86455,0 -4.04641,0.748636 -6.54563,2.245909 -2.4993,1.497272 -4.62166,3.624964 -6.36714,6.383076 v 33.925064 c -3e-5,1.379056 0.2678,2.50201 0.80331,3.368863 0.53556,0.866854 1.37856,1.516833 2.52901,1.95026 0.99174,0.394199 2.27111,0.689634 3.83816,0.886627 1.56693,0.196674 2.92565,0.334983 4.07614,0.413653 v 3.900839 h -30.94306 v -3.900839 c 0.91242,-0.07867 1.85459,-0.15734 2.82651,-0.236009 0.97194,-0.07866 1.81492,-0.236114 2.52902,-0.472761 1.11075,-0.354651 1.93392,-0.975289 2.4695,-1.861916 0.53553,-0.886415 0.80333,-2.038923 0.80333,-3.45742 V 39.835592 c 0,-1.221399 -0.28762,-2.423129 -0.86284,-3.605297 -0.57524,-1.181957 -1.37857,-2.127586 -2.40999,-2.836888 -0.75377,-0.472761 -1.64635,-0.817524 -2.67778,-1.034291 -1.03142,-0.21666 -2.14219,-0.364431 -3.33233,-0.443314 v -3.84173 l 19.51793,-1.300174 0.83309,0.827413 v 8.215331 h 0.29766 c 2.45955,-3.191538 5.19682,-5.614772 8.2118,-7.269702 3.01492,-1.654825 5.77204,-2.482237 8.27131,-2.482343 2.49921,1.06e-4 4.53232,0.807851 6.09938,2.423234 1.56692,1.61549 2.35043,3.782622 2.35047,6.501292 z m -39.18582,37.0576 c -2.4596,4.649369 -5.75226,8.353215 -9.87795,11.11122 -4.12578,2.758218 -8.86642,4.137274 -14.22192,4.137274 -4.72082,0 -8.85648,-0.827413 -12.40697,-2.482343 -3.55054,-1.654931 -6.47623,-3.900839 -8.77712,-6.737726 -2.30091,-2.836887 -4.01666,-6.146641 -5.14726,-9.929264 -1.13062,-3.782516 -1.69591,-7.781798 -1.69591,-11.997847 0,-3.782623 0.60497,-7.496249 1.81492,-11.140881 1.20996,-3.644632 2.98521,-6.924832 5.32578,-9.840601 2.2612,-2.797553 5.06792,-5.053348 8.42008,-6.76728 3.35213,-1.714039 7.11095,-2.571005 11.27635,-2.571005 4.2844,0 7.95394,0.66986 11.00858,2.009474 3.0546,1.339721 5.53405,3.171871 7.43826,5.496555 1.82479,2.206574 3.18352,4.807134 4.07614,7.801572 0.89254,2.994545 1.33886,6.245298 1.33888,9.751938 v 3.90084 h -38.85732 c -3e-5,3.821957 0.36695,7.289369 1.10087,10.402132 0.73388,3.112761 1.89422,5.851205 3.48106,8.215224 1.54715,2.28535 3.57034,4.087945 6.06961,5.407998 2.49921,1.319948 5.47452,1.979921 8.92589,1.979921 3.53064,0 6.57537,-0.817632 9.13417,-2.452788 2.55867,-1.635157 5.02818,-4.58048 7.40848,-8.835864 z m -13.15078,-22.22276 c -5e-5,-2.206467 -0.18858,-4.570486 -0.56532,-7.092269 -0.3769,-2.521678 -0.98188,-4.629702 -1.81492,-6.324074 -0.91245,-1.812376 -2.16209,-3.289981 -3.74887,-4.432709 -1.58687,-1.142622 -3.62989,-1.713933 -6.12911,-1.713933 -4.16544,0 -7.62668,1.72382 -10.38376,5.171459 -2.75714,3.447745 -4.25469,8.244885 -4.4927,14.391526 z m -32.22364,33.393301 c -2.5786,1.063634 -5.01834,1.959935 -7.31921,2.688904 -2.30093,0.729075 -5.11756,1.093612 -8.44984,1.093612 -4.91919,0 -8.38042,-1.231284 -10.38377,-3.693853 -2.00339,-2.462675 -3.00505,-5.939975 -3.00505,-10.431791 V 33.393088 h -10.59204 v -5.67388 h 10.83007 V 9.5746131 h 10.83005 V 27.719208 h 16.84019 v 5.67388 h -16.72115 v 32.565677 c -4e-5,2.442902 0.0892,4.481931 0.2678,6.117087 0.17853,1.635263 0.60496,3.063541 1.27937,4.285044 0.63469,1.142622 1.58678,2.009475 2.85628,2.600453 1.26943,0.590978 2.97526,0.886627 5.11752,0.886627 0.99172,0 2.44961,-0.08718 4.37365,-0.266307 1.92399,-0.178495 3.2827,-0.403978 4.07616,-0.67964 z M 189.35008,57.211564 c 1.62645,1.418497 2.87609,3.053653 3.74888,4.90547 0.8727,1.851923 1.30907,4.117606 1.30913,6.796835 -6e-5,5.398111 -2.03316,9.811153 -6.09934,13.239125 -4.06628,3.427864 -9.33256,5.141904 -15.79881,5.141904 -3.41171,0 -6.5556,-0.610753 -9.43168,-1.832362 -2.87615,-1.221292 -4.92911,-2.344246 -6.15888,-3.368545 l -1.19011,3.841518 h -4.46295 l -0.59505,-20.272287 h 4.10591 c 0.31734,1.536714 0.99174,3.329529 2.0232,5.378445 1.03143,2.04881 2.28103,3.900733 3.74887,5.555557 1.54712,1.733706 3.40173,3.191432 5.56379,4.373813 2.16203,1.181957 4.59184,1.772935 7.28948,1.772935 3.80835,0 6.74396,-0.856967 8.80686,-2.571005 2.06283,-1.713934 3.09426,-4.166721 3.09433,-7.35826 -7e-5,-1.65493 -0.32736,-3.083207 -0.98188,-4.284937 -0.65458,-1.20173 -1.6166,-2.255795 -2.88601,-3.161983 -1.30918,-0.906295 -2.91584,-1.723927 -4.81998,-2.452789 -1.9042,-0.728968 -4.0266,-1.448051 -6.36714,-2.157246 -1.86455,-0.551643 -3.93731,-1.310167 -6.21834,-2.275463 -2.28111,-0.965296 -4.23486,-2.098138 -5.86135,-3.398417 -1.7455,-1.379056 -3.17365,-3.073321 -4.28442,-5.082902 -1.11078,-2.009475 -1.66617,-4.373601 -1.66617,-7.092376 0,-4.76748 1.78519,-8.806204 5.35554,-12.116065 3.57034,-3.309648 8.35062,-4.964578 14.34093,-4.964578 2.30086,0 4.65133,0.295648 7.05143,0.88652 2.40003,0.591085 4.3538,1.300386 5.86133,2.127691 l 1.36863,-3.07332 h 4.28444 l 0.89259,18.735573 h -4.10592 c -0.83312,-4.176501 -2.62821,-7.574919 -5.38529,-10.195252 -2.75714,-2.62012 -6.11921,-3.930287 -10.08625,-3.930287 -3.25301,0 -5.81174,0.807745 -7.67626,2.423234 -1.86452,1.615489 -2.79677,3.565856 -2.79677,5.851099 0,1.773148 0.30743,3.250753 0.92235,4.432816 0.61488,1.182063 1.53722,2.1868 2.76702,3.014212 1.1901,0.788078 2.68767,1.526827 4.49269,2.216355 1.80498,0.689528 4.03646,1.467718 6.69443,2.334571 2.6182,0.827412 5.0877,1.792815 7.40847,2.895996 2.32067,1.103287 4.2348,2.32479 5.7423,3.664405 z m -31.92611,27.482668 c -1.86454,0.669967 -3.50096,1.211617 -4.90921,1.625376 -1.40836,0.413866 -3.0051,0.620639 -4.79024,0.620639 -3.09433,0 -5.56384,-0.719082 -7.40847,-2.157353 -1.84472,-1.437951 -3.02492,-3.536195 -3.54061,-6.294305 h -0.35703 c -2.57861,2.837099 -5.34566,5.004019 -8.30108,6.501291 -2.95547,1.497273 -6.51592,2.246015 -10.6813,2.246015 -4.40343,0 -8.02337,-1.339721 -10.85982,-4.01895 -2.83645,-2.679548 -4.25469,-6.186188 -4.25466,-10.520454 -3e-5,-2.245909 0.31735,-4.255384 0.9521,-6.028531 0.63472,-1.773041 1.58681,-3.368757 2.85628,-4.787253 0.99174,-1.182063 2.30087,-2.236022 3.92739,-3.16209 1.62647,-0.925856 3.15379,-1.664605 4.58196,-2.216355 1.78514,-0.669754 5.40508,-1.910925 10.85981,-3.723407 5.45466,-1.812482 9.1341,-3.230979 11.03835,-4.255384 v -5.851206 c -7e-5,-0.512201 -0.10907,-1.497271 -0.32731,-2.955209 -0.21814,-1.457832 -0.68434,-2.836888 -1.39837,-4.137167 -0.79346,-1.457831 -1.91416,-2.728557 -3.36209,-3.812177 -1.44801,-1.083407 -3.50097,-1.625269 -6.15884,-1.625269 -1.8249,0 -3.52081,0.305429 -5.08776,0.916075 -1.567,0.610857 -2.66787,1.251057 -3.30259,1.920811 0,0.788184 0.1886,1.950473 0.56531,3.48708 0.37685,1.536714 0.56529,2.95521 0.56532,4.255491 -3e-5,1.379054 -0.62485,2.639894 -1.87445,3.782515 -1.24964,1.142728 -2.98522,1.714039 -5.20676,1.714039 -1.98355,0 -3.44142,-0.699415 -4.37369,-2.098244 -0.93225,-1.398616 -1.39841,-2.964884 -1.39837,-4.698591 -4e-5,-1.812481 0.64461,-3.546188 1.93392,-5.201118 1.2893,-1.654824 2.96539,-3.132323 5.02824,-4.432709 1.78516,-1.103181 3.94722,-2.038923 6.48616,-2.807333 2.53888,-0.768304 5.01831,-1.152508 7.43824,-1.152508 3.33228,0 6.23815,0.226652 8.71759,0.679641 2.47938,0.4532 4.73067,1.428383 6.75393,2.925656 2.02316,1.457937 3.56037,3.437857 4.6117,5.939761 1.05123,2.502116 1.57685,5.723208 1.5769,9.663382 -5e-5,5.634439 -0.0597,10.628679 -0.17853,14.982505 -0.11912,4.353934 -0.17853,9.111739 -0.17853,14.273417 -3e-5,1.536607 0.2678,2.758111 0.80331,3.664299 0.53553,0.906401 1.35869,1.674704 2.46952,2.305017 0.59501,0.354651 1.53717,0.55175 2.82654,0.591084 1.28921,0.03934 2.60828,0.05741 3.95711,0.05741 z M 136.65644,53.488051 c -3.37202,0.98507 -6.32751,1.950472 -8.86638,2.8961 -2.53894,0.94563 -4.89935,2.127693 -7.08121,3.546083 -1.98355,1.339721 -3.55052,2.925656 -4.70096,4.757805 -1.15047,1.832256 -1.72569,4.009169 -1.72566,6.530847 -3e-5,3.27042 0.86283,5.67388 2.58851,7.210593 1.72565,1.536502 3.91745,2.304912 6.57539,2.304912 2.81659,0 5.296,-0.679748 7.43825,-2.039029 2.14217,-1.359283 3.94718,-2.964885 5.41503,-4.816809 z m -32.0451,32.270133 H 67.30115 v -4.196169 c 1.348729,-0.03934 3.084316,-0.178601 5.206764,-0.413653 2.122299,-0.236115 3.580189,-0.571417 4.373682,-1.005056 1.229707,-0.748636 2.132212,-1.605496 2.707519,-2.570792 0.57514,-0.965403 0.862751,-2.177021 0.862834,-3.634851 V 12.943476 h -0.89259 L 50.758513,84.398902 H 47.783222 L 20.351012,11.465977 h -0.773579 v 50.060079 c -2.1e-5,4.846468 0.307425,8.530541 0.922344,11.052218 0.614869,2.521784 1.557043,4.334266 2.826528,5.437446 0.872728,0.827306 2.677736,1.615596 5.415035,2.364232 2.737236,0.748743 4.522411,1.142729 5.355528,1.182063 v 4.196169 H 0 v -4.196169 c 1.7851719,-0.157445 3.6596059,-0.453307 5.6233052,-0.886626 1.9636839,-0.433427 3.4810812,-1.083727 4.5522018,-1.950367 1.388453,-1.103287 2.340547,-2.797552 2.856281,-5.082902 0.5157,-2.285243 0.773561,-6.107307 0.773576,-11.465978 V 19.26755 c -1.5e-5,-2.482343 -0.297541,-4.511485 -0.892589,-6.087639 -0.595072,-1.576049 -1.44799,-2.856555 -2.55875,-3.8417317 C 9.1242233,8.2744397 7.6167438,7.4864687 5.8315777,6.97416 4.0463936,6.4619576 2.2810529,6.1664153 0.53555216,6.0875331 V 1.891258 H 29.336398 L 53.495786,64.776702 74.144328,12.175173 C 74.897989,10.24458 75.542634,8.2252181 76.078266,6.1170874 76.61374,4.0091693 76.901351,2.6005595 76.9411,1.891258 h 27.55124 v 4.1962751 c -1.1109,0.039335 -2.5291,0.2166601 -4.2547,0.5319761 -1.72577,0.315316 -2.985307,0.610752 -3.778608,0.8865206 -1.348896,0.4728676 -2.261322,1.2609449 -2.737278,2.3641255 -0.476137,1.1032877 -0.714146,2.3051237 -0.714055,3.6052967 v 60.462211 c -9.1e-5,1.379054 0.237948,2.541451 0.714055,3.487079 0.475956,0.945629 1.388382,1.772935 2.737278,2.482236 0.713964,0.393986 1.983434,0.75863 3.808378,1.0934 1.82473,0.334984 3.27271,0.522303 4.34393,0.561637 z"/>
</svg>
