<?xml version="1.0" encoding="UTF-8" standalone="no"?>
<svg xmlns="http://www.w3.org/2000/svg" xmlns:svg="http://www.w3.org/2000/svg" id="svgmamelogo" width="640" height="178" version="1.1">
  <path id="mamelogo" fill="#1aa0e1" d="m 34.918902,40.538054 6.577369,-6.558021 v -5.154311 c 0,-2.83488 -0.05585,-5.153136 -0.124116,-5.151671 -0.06826,9.97e-4 -2.991194,2.858774 -6.495401,6.349565 l -6.371283,6.346892 -0.04303,-7.586773 c -0.02366,-4.172728 -0.06293,-7.586783 -0.08726,-7.586783 -0.02433,0 -3.241694,3.190507 -7.149699,7.090005 l -7.105461,7.089997 -7.0806641,0.04466 C 3.1449923,35.446133 -0.02266341,35.410946 1.2216031e-4,35.34347 0.03565412,35.238096 35.24224,0.08181439 35.312214,0.08181439 c 0.01397,0 0.01482,3.41467391 0.0019,7.58816601 -0.01296,4.1734876 -0.02167,7.5882096 -0.01934,7.5882786 0.0024,6.2e-5 3.42683,-3.414612 7.610012,-7.5881631 4.183185,-4.1735557 7.662255,-7.58828151 7.731271,-7.58828151 0.06902,0 0.144579,5.49710571 0.167917,12.21578361 l 0.04243,12.215789 12.32885,-12.192244 12.328849,-12.19225556 0.04234,13.75084356 c 0.02326,7.562958 0.09758,13.750837 0.165126,13.750837 0.06754,0 6.359795,-6.216867 13.982782,-13.815248 L 103.55429,0 v 7.7184101 7.7184149 l 7.69518,-7.6905009 7.69518,-7.69049892 0.0409,8.13736642 c 0.0225,4.4755524 0.0412,9.7519784 0.0414,11.7253824 2.4e-4,1.973404 0.043,3.587972 0.095,3.587932 0.052,-4e-5 5.26222,-5.159277 11.57823,-11.464973 L 142.18382,0.57663322 h 13.57475 13.57476 l -4.3579,4.34637318 -4.35788,4.3463742 -6.9589,0.092446 -6.95889,0.092446 -1.79697,1.7857064 c -0.98833,0.982139 -1.79697,1.842651 -1.79697,1.912241 0,0.0696 1.58196,0.126535 3.51549,0.126535 h 3.51551 l -4.54868,4.536481 -4.54865,4.536469 h -3.72213 -3.72212 l -1.94696,1.935734 c -1.07083,1.064658 -1.94696,1.992572 -1.94696,2.062042 0,0.06948 5.30963,0.126297 11.7992,0.126297 h 11.7992 l -4.43402,4.412734 -4.43405,4.412763 -18.41149,0.08244 c -10.12632,0.04536 -18.44872,0.05572 -18.49423,0.02293 -0.0455,-0.03271 0.45716,-0.553657 1.11705,-1.157622 l 1.19979,-1.098132 v -4.82227 c 0,-2.652241 -0.0558,-4.821323 -0.12411,-4.820176 -0.0683,9.96e-4 -2.98163,2.896254 -6.47411,6.433546 -3.492505,3.537304 -6.396818,6.431166 -6.454037,6.430807 -0.05723,-2.69e-4 -0.104034,-3.377731 -0.104034,-7.505254 0,-4.127511 -0.0031,-7.504844 -0.0074,-7.505143 -0.0038,-2.59e-4 -3.241873,3.228595 -7.195156,7.175324 l -7.187796,7.175872 h -7.988298 -7.988356 v -6.08059 -6.080602 l -11.873757,11.770726 -11.873758,11.770716 -7.115204,9.96e-4 -7.115203,9.97e-4 z"/>
</svg>
