<?xml version="1.0" encoding="UTF-8" standalone="no"?>
<svg
     id="svgmamelogo"
     width="640"
     height="178"
     version="1.1"
     xmlns="http://www.w3.org/2000/svg"
     xmlns:svg="http://www.w3.org/2000/svg">
    <path
         id="mamelogo"
         fill="#1aa0e1"
         d="m 131.97659,153.21427 24.85927,-24.78616 V 108.9473 c 0,-10.71447 -0.21108,-19.476358 -0.4691,-19.470821 -0.25799,0.0038 -11.30527,10.804791 -24.54947,23.998291 l -24.08037,23.98818 -0.16264,-28.67434 c -0.0894,-15.77089 -0.23784,-28.674369 -0.3298,-28.674369 -0.092,0 -12.252038,12.058575 -27.022409,26.796799 L 53.36686,133.7078 26.605369,133.87659 C 11.886552,133.96926 -0.08565674,133.83627 4.6170699e-4,133.58124 0.13475535,133.18299 133.19865,0.30921888 133.46312,0.30921888 c 0.0528,0 0.056,12.90581812 0.007,28.67960312 -0.049,15.773767 -0.0819,28.679767 -0.0731,28.680028 0.009,2.34e-4 12.95176,-12.905585 28.76216,-28.679592 15.81043,-15.774025 28.95963,-28.68003912 29.22048,-28.68003912 0.26086,0 0.54644,20.77640512 0.63464,46.16976112 l 0.16055,46.169784 46.5971,-46.080795 46.59709,-46.08083673 0.16003,51.97154773 c 0.0879,28.584328 0.36881,51.97153 0.6241,51.97153 0.25527,0 24.03695,-23.496762 52.84816,-52.214973 L 391.3852,0 V 29.171862 58.343743 L 420.46927,29.277364 449.55333,0.21099222 449.70791,30.966307 c 0.085,16.915427 0.15572,36.857768 0.15648,44.316283 9e-4,7.458514 0.16252,13.5608 0.35905,13.560649 0.19653,-1.51e-4 19.88865,-19.499575 43.76011,-43.33206 L 537.38617,2.1793951 h 51.306 51.30603 l -16.47075,16.4271919 -16.47069,16.427195 -26.30128,0.349401 -26.30124,0.349402 -6.79168,6.749107 c -3.73541,3.712011 -6.79168,6.964331 -6.79168,7.227347 0,0.263055 5.97904,0.478241 13.28685,0.478241 h 13.28694 L 550.25285,67.332988 533.06115,84.47865 H 518.9933 504.92548 l -7.35857,7.316139 c -4.04722,4.023893 -7.35857,7.53096 -7.35857,7.793523 0,0.262601 20.06785,0.477338 44.59529,0.477338 h 44.59527 l -16.75845,16.678 -16.75857,16.67812 -69.58654,0.31158 c -38.2726,0.17144 -69.72725,0.21059 -69.89926,0.0867 -0.17196,-0.12363 1.72784,-2.09255 4.22192,-4.37524 l 4.53461,-4.15041 v -18.22585 c 0,-10.024195 -0.21089,-18.222278 -0.46906,-18.217943 -0.25814,0.0038 -11.26913,10.946443 -24.46902,24.315693 -13.19998,13.3693 -24.17688,24.3067 -24.39314,24.30535 -0.2163,-0.001 -0.3932,-12.76619 -0.3932,-28.36624 0,-15.599995 -0.0117,-28.364682 -0.028,-28.365812 -0.0144,-9.79e-4 -12.25271,12.20253 -27.19421,27.119262 l -27.16639,27.12133 H 280.84767 250.65555 V 111.99846 89.016716 L 205.77848,133.50437 160.90141,177.992 134.00937,177.996 107.11735,178 Z" />
</svg>
