<?xml version="1.0" encoding="UTF-8" standalone="no"?>
<svg
     id="svgneslogo"
     width="640"
     height="240"
     version="1.1"
     xmlns="http://www.w3.org/2000/svg"
     xmlns:svg="http://www.w3.org/2000/svg">
    <path
         id="neslogo02"
         fill="#000000"
         d="m 215.26357,202.77724 v 16.75024 c 0,3.25699 5.05962,8.37512 8.27937,8.37512 h 8.27937 V 240 h 11.95909 v -12.0974 h 8.27937 c 3.21975,0 8.27936,-5.11813 8.27936,-8.37512 v -16.75024 h -11.49912 v 13.49325 c 0,1.39585 -1.83986,3.25699 -3.67972,3.25699 h -14.71887 c -1.83986,0 -3.67972,-1.86114 -3.67972,-3.25699 v -13.49325 z m 60.17715,0 c -3.21976,0 -10.11923,5.11812 -10.11923,8.37511 v 5.11813 c 0,3.257 6.89947,8.37513 10.11923,8.37513 h 20.23845 c 1.83987,0 3.67973,1.86113 3.67973,3.25699 0,1.86113 -1.83986,3.72227 -3.67973,3.72227 H 265.32149 V 240 h 34.03741 c 3.21975,0 9.65926,-5.11813 9.65926,-8.37512 v -5.11813 c 0,-3.72228 -6.43951,-8.84041 -9.65926,-8.84041 h -20.23846 c -1.83986,0 -3.67972,-1.39586 -3.67972,-3.25699 0,-1.86114 1.83986,-3.25699 3.67972,-3.25699 h 29.89772 v -8.37512 z m -97.4343,0 c -3.21976,0 -10.11923,5.11812 -10.11923,8.37511 v 5.11813 c 0,3.257 6.89947,8.37513 10.11923,8.37513 h 20.23845 c 1.83987,0 3.67972,1.86113 3.67972,3.25699 0,1.86113 -1.83985,3.72227 -3.67972,3.72227 H 167.88719 V 240 h 34.0374 c 3.21976,0 9.65927,-5.11813 9.65927,-8.37512 v -5.11813 c 0,-3.72228 -6.43951,-8.84041 -9.65927,-8.84041 h -20.23845 c -1.83986,0 -3.67972,-1.39586 -3.67972,-3.25699 0,-1.86114 1.83986,-3.25699 3.67972,-3.25699 h 29.89772 v -8.37512 z m 136.23337,-0.20005 v 8.37512 h 11.95909 c 3.21975,0 3.21975,0 3.21975,3.72227 v 25.12537 h 11.49912 v -25.12537 c 0,-3.72227 0,-3.72227 3.67972,-3.72227 h 11.49912 v -8.37512 z m 87.416,37.22276 H 371.2981 c -5.05961,0 -10.11922,-3.257 -10.11922,-8.37512 V 202.1119 h 40.47691 v 8.84041 h -27.13793 c -1.3799,0 -3.21976,1.39585 -3.21976,3.25699 0,1.86114 1.83986,3.25699 3.21976,3.25699 h 25.29807 v 7.44455 h -25.29807 c -1.3799,0 -3.21976,1.86114 -3.21976,3.257 0,1.86113 1.83986,3.72227 3.21976,3.72227 h 27.13793 z m 70.3279,0 v -26.9865 c 0,-5.11812 -5.05961,-10.23625 -10.11922,-10.23625 h -51.97602 v 37.22275 h 11.95909 v -25.12534 c 0,-1.86115 1.3799,-3.72228 3.21975,-3.72228 h 6.89948 c 1.3799,0 3.21976,1.86113 3.21976,3.72228 v 25.12536 h 11.95908 v -25.12536 c 0,-1.86115 1.3799,-3.72228 3.21974,-3.72228 h 6.89947 c 1.3799,0 3.21976,1.86113 3.21976,3.72228 v 25.12536 z M 361.07245,188.8187 v -37.22276 h -11.49912 v 37.22276 z m -57.03564,-37.22276 c -3.21976,0 -8.27938,6.97926 -8.27938,10.23626 v 26.9865 h 11.95909 v -10.23626 h 21.61836 v 10.23626 h 11.95908 v -26.9865 c 0,-3.257 -5.05961,-10.23626 -8.73933,-10.23626 z m 6.89947,8.37511 h 15.17884 c 1.3799,0 3.21975,1.86115 3.21975,3.72228 v 6.51399 h -21.61835 v -6.51399 c 0,-1.86114 1.37989,-3.72228 3.21976,-3.72228 z m -112.69141,-8.37511 v 37.22276 h 11.95909 v -6.51399 c 0,-1.86114 1.3799,-3.72227 3.21976,-3.72227 h 15.17884 c 1.83986,0 3.21976,1.86113 3.21976,3.72227 v 6.51399 h 10.11922 v -10.23626 c 0,-1.39585 -1.37989,-3.25699 -1.37989,-5.11813 0,-1.39586 3.21975,-4.65285 3.21975,-8.37512 v -3.25699 c 0,-3.257 -5.05961,-10.23626 -8.27937,-10.23626 z m 15.17884,8.37511 h 15.17885 c 1.83986,0 3.21975,1.86115 3.21975,3.72228 v 3.25699 c 0,1.86114 -1.37989,3.257 -3.21975,3.257 h -15.17885 c -1.83986,0 -3.21975,-1.39586 -3.21975,-3.257 v -3.25699 c 0,-1.86114 1.37989,-3.72228 3.21975,-3.72228 z m 384.71949,-8.37511 v 8.37511 h 11.9591 c 3.21975,0 3.21975,0 3.21975,3.72228 v 25.12537 h 11.4991 v -25.12537 c 0,-3.72228 0,-3.72228 3.67975,-3.72228 H 640 v -8.37511 z m -349.41957,0 v 8.37511 h 11.95909 c 3.21975,0 3.21975,0 3.21975,3.72228 v 25.12537 h 11.49912 v -25.12537 c 0,-3.72228 0,-3.72228 3.67972,-3.72228 h 11.49913 v -8.37511 z m -146.15145,0 v 8.37511 h 11.95908 c 3.21976,0 3.21976,0 3.21976,3.72228 v 25.12537 h 11.49912 v -25.12537 c 0,-3.72228 0,-3.72228 3.67972,-3.72228 h 11.49912 v -8.37511 z m 433.47577,37.22276 h -30.3577 c -5.0596,0 -10.11923,-3.25699 -10.11923,-8.37513 v -29.31292 h 40.47693 v 8.8404 H 508.91 c -1.3799,0 -3.21975,1.39586 -3.21975,3.257 0,1.86114 1.83985,3.25699 3.21975,3.25699 h 25.29805 v 7.44456 H 508.91 c -1.3799,0 -3.21975,1.86114 -3.21975,3.25699 0,1.86114 1.83985,3.72227 3.21975,3.72227 h 27.13795 z m -346.05978,0 h -30.35768 c -5.05962,0 -10.11923,-3.25699 -10.11923,-8.37513 v -29.31292 h 40.47691 v 8.8404 h -27.13793 c -1.37989,0 -3.21975,1.39586 -3.21975,3.257 0,1.86114 1.83986,3.25699 3.21975,3.25699 h 25.29807 v 7.44455 h -25.29807 c -1.37989,0 -3.21975,1.86114 -3.21975,3.257 0,1.86113 1.83986,3.72227 3.21975,3.72227 h 27.13793 z m -149.511258,0 H 10.119228 C 5.059614,188.8187 0,185.56171 0,180.44357 v -29.31291 h 40.476911 v 8.8404 H 13.338983 c -1.379895,0 -3.219755,1.39585 -3.219755,3.25699 0,1.86114 1.83986,3.25699 3.219755,3.25699 h 25.298069 v 7.44456 H 13.338983 c -1.379895,0 -3.219755,1.86114 -3.219755,3.25699 0,1.86114 1.83986,3.72227 3.219755,3.72227 h 27.137928 z m 446.625928,0 v -26.9865 c 0,-5.11814 -5.05962,-10.23626 -10.11923,-10.23626 h -51.97604 v 37.22276 h 11.95909 v -25.12537 c 0,-1.86114 1.3799,-3.72228 3.21975,-3.72228 h 6.89948 c 1.3799,0 3.21976,1.86115 3.21976,3.72228 v 25.12537 h 11.95908 v -25.12537 c 0,-1.86114 1.3799,-3.72228 3.21976,-3.72228 h 6.89947 c 1.3799,0 3.21976,1.86115 3.21976,3.72228 v 25.12537 z m 104.30086,0 v -26.9865 c 0,-5.11814 -5.0596,-10.23626 -10.11925,-10.23626 H 542.6474 v 37.22276 h 11.9591 v -25.12537 c 0,-1.86114 1.3799,-3.72228 3.21975,-3.72228 h 18.3986 c 1.83985,0 3.6797,1.86115 3.6797,3.72228 v 25.12537 z m -174.7098,0 v -26.9865 c 0,-5.11814 -5.05962,-10.23626 -10.11923,-10.23626 h -38.63705 v 37.22276 h 11.95909 v -25.12537 c 0,-1.86114 1.37989,-3.72228 3.21975,-3.72228 h 18.3986 c 1.83986,0 3.67972,1.86115 3.67972,3.72228 v 25.12537 z m -319.18134,0 v -26.9865 c 0,-5.11814 -5.059615,-10.23626 -10.11923,-10.23626 H 48.75628 v 37.22276 h 11.95909 v -25.12537 c 0,-1.86114 1.37989,-3.72228 3.21975,-3.72228 h 18.3986 c 1.83986,0 3.679715,1.86115 3.679715,3.72228 v 25.12537 z" />
    <path
         id="neslogo01"
         fill="#ff0000"
         d="m 114.79353,0 c 0,0 5.23674,0 5.23674,0 0,0 9.66781,0 9.66781,0 0,0 29.67483,0 29.67483,0 0,0 90.50154,0 90.50154,0 0,0 182.74867,0 182.74867,0 0,0 91.44153,0 91.44153,0 0,0 2.5512,0.12625 2.5512,0.12625 1.71605,0.0205 5.48245,0.563945 7.25085,0.88353 5.51205,0.99364 11.1986,2.68685 16.2473,5.12394 0,0 1.8799,0.87549 1.8799,0.87549 6.96485,3.59051 13.30665,8.3264 18.65215,14.06398 18.9006,20.28631 23.15445,50.73726 11.122,75.59698 -2.7875,5.75907 -6.76345,11.56917 -11.122,16.24732 0,0 -2.40485,2.41695 -2.40485,2.41695 -5.76315,5.7631 -12.7978,10.29355 -20.27555,13.48393 -4.52645,1.93088 -9.25965,3.28974 -14.09895,4.16253 -1.7684,0.31955 -5.5348,0.8634 -7.25085,0.88353 0,0 -2.5512,0.13425 -2.5512,0.13425 0,0 -204.09849,0 -204.09849,0 0,0 -204.09843,0 -204.09843,0 0,0 -2.55122,-0.13425 -2.55122,-0.13425 0,0 -2.68553,-0.24705 -2.68553,-0.24705 -4.25116,-0.45385 -8.12363,-1.2474 -12.219059,-2.47602 -6.439825,-1.93223 -12.279445,-4.81914 -17.8586,-8.55602 -4.29546,-2.87753 -8.534535,-6.62246 -11.971985,-10.47348 -4.14106,-4.63652 -7.70603,-9.84103 -10.41708,-15.44166 -9.000441,-18.59578 -9.000441,-40.753885 0,-59.349665 7.82423,-16.165405 22.198385,-28.725515 39.30777,-34.19455 3.710024,-1.185655 7.551634,-2.05038 11.413394,-2.55929 0,0 4.43109,-0.4404 4.43109,-0.4404 0.63912,-0.0065 0.81774,0.0165 1.47702,-0.12625 z m 2.0141,15.707515 c -0.83381,0.1531 -1.19636,0.1249 -2.0141,0.1289 0,0 -2.1484,0.1571 -2.1484,0.1571 -2.71372,0.2632 -6.10686,0.89831 -8.72791,1.64622 C 91.710256,21.11881 81.103851,29.25321 74.571376,40.14025 c -10.139145,16.8972 -9.841065,38.47523 0.837905,55.05285 2.896265,4.49689 6.62377,8.61914 10.78362,11.97736 4.057805,3.27363 8.816515,5.99808 13.696035,7.839 4.261934,1.60728 8.883674,2.69086 13.427574,3.02254 0,0 1.34273,0.12755 1.34273,0.12755 0,0 1.61131,0 1.61131,0 0,0 1.61132,0.12895 1.61132,0.12895 0,0 116.81947,0 116.81947,0 0,0 233.63902,0 233.63902,0 0,0 36.92569,0 36.92569,0 0,0 16.7844,0 16.7844,0 0,0 2.0142,-0.13425 2.0142,-0.13425 3.53005,-0.04 7.0467,-0.57067 10.4734,-1.42735 12.02035,-3.00507 22.24275,-10.26534 29.26935,-20.45952 2.6761,-3.88324 4.86885,-8.41638 6.35795,-12.89043 1.36425,-4.09674 2.5002,-9.92294 2.5069,-14.23318 0,0 0.1345,-2.01412 0.1345,-2.01412 0,0 -0.129,-1.61132 -0.129,-1.61132 0,0 0,-1.6113 0,-1.6113 0,0 -0.128,-1.34275 -0.128,-1.34275 -0.3705,-5.293135 -1.6704,-10.38887 -3.6375,-15.30738 -1.6288,-4.072575 -3.8349,-7.904785 -6.4627,-11.413395 -7.35825,-9.827615 -18.1567,-16.68639 -30.1945,-19.093945 -2.65995,-0.53173 -5.34545,-0.88219 -8.0565,-0.913075 0,0 -2.0141,-0.1289 -2.0141,-0.1289 0,0 -16.11305,0 -16.11305,0 0,0 -35.18013,0 -35.18013,0 0,0 -236.9959,0 -236.9959,0 0,0 -78.14821,0 -78.14821,0 0,0 -25.78084,0 -25.78084,0 0,0 -8.45936,0 -8.45936,0 z m -12.48758,20.53875 c 0,0 18.79855,0 18.79855,0 0.2565,0 0.68344,-0.0165 0.91576,0.0806 0.5156,0.2162 1.43272,1.92954 1.77645,2.47067 0,0 4.8836,7.78796 4.8836,7.78796 0,0 8.34655,13.293255 8.34655,13.293255 0,0 6.1404,9.8021 6.1404,9.8021 0,0 4.0296,6.44521 4.0296,6.44521 0,0 2.10546,3.2226 2.10546,3.2226 0,0 0,-43.10236 0,-43.10236 0,0 18.39571,0 18.39571,0 0,0 0,47.53345 0,47.53345 0,0 0,11.01057 0,11.01057 0,0 0,2.41695 0,2.41695 0,0 -0.21485,0.80298 -0.21485,0.80298 0,0 -0.99363,0.13695 -0.99363,0.13695 0,0 -16.11302,0 -16.11302,0 0,0 -1.05004,-0.13695 -1.05004,-0.13695 0,0 -1.79527,-2.54855 -1.79527,-2.54855 0,0 -5.21796,-8.19079 -5.21796,-8.19079 0,0 -14.40235,-22.55825 -14.40235,-22.55825 0,0 -4.19879,-6.57949 -4.19879,-6.57949 0,0 -3.01047,-4.56536 -3.01047,-4.56536 0,0 0,44.5794 0,44.5794 0,0 -14.09889,0 -14.09889,0 0,0 -3.22262,0 -3.22262,0 0,0 -0.85935,-0.13695 -0.85935,-0.13695 0,0 -0.21485,-1.07153 -0.21485,-1.07153 z m 76.80548,0 c 0,0 18.39571,0 18.39571,0 0,0 0,11.14485 0,11.14485 0,0 -18.39571,0 -18.39571,0 z m 276.33852,0 c 0,0 18.39572,0 18.39572,0 0,0 0,47.533455 0,47.533455 0,0 0,11.01057 0,11.01057 0,0 0,2.41695 0,2.41695 0,0 -0.21485,0.80298 -0.21485,0.80298 0,0 -0.99363,0.13695 -0.99363,0.13695 0,0 -17.18725,0 -17.18725,0 0,0 0,-1.34275 0,-1.34275 0,0 -2.81977,1.01645 -2.81977,1.01645 -2.64387,0.80968 -5.0219,1.3535 -7.78797,1.54686 0,0 -1.34275,0.12215 -1.34275,0.12215 -3.02388,0.035 -5.53751,-0.35985 -8.32506,-1.5925 -7.64429,-3.37837 -13.0462,-11.63629 -13.70682,-19.89153 0,0 -0.1236,-1.34276 -0.1236,-1.34276 -0.0981,-8.41772 4.87419,-16.04053 12.35333,-19.772035 2.48812,-1.2407 5.67045,-2.08127 8.45934,-2.114835 3.48177,-0.04 7.21729,0.930525 10.3392,2.451865 0,0 2.95405,1.71067 2.95405,1.71067 z M 274.98392,41.75155 c 0,0 18.79858,0 18.79858,0 0,0 0,8.862175 0,8.862175 0,0 9.66779,0 9.66779,0 0,0 0,5.639555 0,5.639555 0,0 -9.66779,0 -9.66779,0 0,0 0,32.09179 0,32.09179 0,0 0,7.38514 0,7.38514 0,0.4552 0.1208,2.01414 -0.21485,2.28001 -0.2135,0.16785 -0.72643,0.13695 -0.99364,0.13695 0,0 -17.59009,0 -17.59009,0 0,0 0,-41.893895 0,-41.893895 0,0 -9.66779,0 -9.66779,0 0,0 0,-5.63956 0,-5.63956 0,0 9.66779,0 9.66779,0 z m -46.99634,18.52999 c 1.04333,-0.298095 2.6479,-1.26353 3.62546,-1.82346 1.81539,-1.040625 4.08598,-2.336385 6.04239,-3.029245 2.5633,-0.907705 5.85707,-0.68346 8.59359,-0.65258 1.9779,0.024 4.28609,0.836535 6.04239,1.712005 3.28304,1.63816 5.8101,3.5395 8.32778,6.21023 1.67037,1.7711 3.21586,4.06586 3.2199,6.5795 0,0 0,28.86919 0,28.86919 0,0 -18.79853,0 -18.79853,0 0,0 0,-28.19782 0,-28.19782 0,-0.60826 0.004,-1.02318 -0.2081,-1.6113 -0.65393,-1.83152 -3.15281,-3.6496 -4.89436,-4.41095 -0.83787,-0.36525 -1.62471,-0.66869 -2.55121,-0.69016 -1.04331,-0.023 -1.4381,0.13295 -2.41696,0.4203 -1.78318,0.52502 -4.04571,1.77647 -5.37103,3.07088 -0.50618,0.49545 -0.99764,0.95469 -1.29575,1.60996 -0.3048,0.66868 -0.31415,1.16819 -0.31555,1.87985 0,0 0,27.92927 0,27.92927 0,0 -14.09888,0 -14.09888,0 0,0 -3.22262,0 -3.22262,0 0,0 -0.85936,-0.13695 -0.85936,-0.13695 0,0 -0.21485,-1.07152 -0.21485,-1.07152 0,0 0,-40.685415 0,-40.685415 0,0 18.39571,0 18.39571,0 z m 127.29298,23.3639 c -0.1342,1.48643 -1.43405,3.96112 -2.23969,5.23674 -2.72714,4.31829 -6.99174,7.71948 -11.72493,9.61411 -3.07222,1.22996 -7.1542,2.33102 -10.47349,2.33638 -2.88827,0.005 -4.615,0.0631 -7.5194,-0.48475 -7.54627,-1.42331 -14.71925,-5.77249 -18.5676,-12.53996 -1.3508,-2.37534 -2.61567,-5.97659 -2.6479,-8.7279 0,0 0,-2.68551 0,-2.68551 0,-1.21384 0.25915,-2.45186 0.55455,-3.62543 1.70665,-6.79836 7.16224,-12.2177 13.41008,-15.080455 4.29278,-1.96713 8.97228,-2.967485 13.6961,-2.91243 0,0 1.34273,0.1396 1.34273,0.1396 0,0 1.07421,0 1.07421,0 7.83764,0.764035 15.58532,4.343805 20.23663,10.870925 1.16282,1.63279 2.12961,3.46834 2.76875,5.37101 0.80968,2.4089 1.02991,3.91949 1.02991,6.44522 0,0 -33.97168,0 -33.97168,0 0,0 0,11.68195 0,11.68195 0.019,1.58847 0.43645,3.28034 1.62341,4.40692 1.05808,1.00437 2.46798,1.38034 3.88189,1.51059 2.33505,0.2162 5.10649,0.0726 6.98098,-1.5294 1.77108,-1.51596 1.74693,-3.48982 1.74693,-5.59659 0,0 0,-4.43108 0,-4.43108 z M 508.75725,54.83265 c 1.94025,-0.2363 5.69325,0.19605 7.6537,0.588125 8.9226,1.784525 17.48395,7.634895 20.17885,16.676985 0.71835,2.40891 0.79625,4.10615 0.76805,6.57949 -0.025,1.89732 -0.69015,4.68085 -1.39645,6.44522 -3.20785,8.02026 -10.96225,13.43962 -19.2819,15.11268 -3.1192,0.6284 -5.18975,0.63378 -8.3251,0.59752 -1.9752,-0.024 -4.9333,-0.60557 -6.84805,-1.15207 -9.59934,-2.73921 -17.51889,-10.13511 -18.27352,-20.46624 0,0 -0.12215,-1.34276 -0.12215,-1.34276 -0.039,-3.34614 0.94662,-7.16627 2.60897,-10.07064 3.57037,-6.23843 9.6141,-10.18075 16.4581,-11.98676 1.65965,-0.43775 3.3958,-0.718365 5.10245,-0.880845 z m -327.63172,1.42063 c 0,0 18.39571,0 18.39571,0 0,0 0,41.8939 0,41.8939 0,0 -14.09891,0 -14.09891,0 0,0 -3.22262,0 -3.22262,0 0,0 -0.85935,-0.13695 -0.85935,-0.13695 0,0 -0.21485,-1.07152 -0.21485,-1.07152 z m 200.74155,5.50529 c 3.65631,-1.57505 6.84401,-4.20147 10.74202,-5.21659 1.76571,-0.45925 5.79801,-0.3115 7.78796,-0.2887 1.94835,0.023 4.05243,0.85265 5.77384,1.712015 3.28437,1.64219 6.57143,4.036305 8.91454,6.881615 1.43674,1.74692 2.62911,3.71941 2.63314,6.04238 0,0 0,28.60063 0,28.60063 0,0 -18.79854,0 -18.79854,0 0,0 0,-27.92926 0,-27.92926 -10e-4,-0.73851 -0.035,-1.32126 -0.33975,-2.01413 -1.00439,-2.28133 -4.80706,-4.74797 -7.31399,-4.86748 -0.8352,-0.04 -1.89462,0.21755 -2.6855,0.48475 -2.11081,0.70898 -5.67045,2.65597 -6.51504,4.78558 -0.2162,0.54247 -0.19735,0.91172 -0.19875,1.47703 0,0 0,28.06353 0,28.06353 0,0 -18.3957,0 -18.3957,0 0,0 0,-41.89389 0,-41.89389 0,0 18.3957,0 18.3957,0 z m -45.38504,8.86217 c 0,-2.88423 0.4444,-6.25723 -1.28501,-8.72789 -2.77148,-3.95978 -9.6074,-3.916805 -12.00289,0.4028 -1.25948,2.27058 -0.94531,5.7604 -0.94531,8.32506 z M 510.23425,59.015325 c -3.35555,0.17055 -5.8074,1.166845 -6.93395,4.623105 -0.6056,1.85433 -0.451,6.45595 -0.451,8.59361 0,0 0,16.11303 0,16.11303 0.005,1.28636 0.169,3.1689 0.79225,4.29682 1.289,2.33236 4.45255,2.7137 6.8615,2.68551 2.5673,-0.031 5.2367,-0.72375 6.2478,-3.35689 0.306,-0.79491 0.4645,-2.61568 0.466,-3.49116 0,0 0,-21.34976 0,-21.34976 -0.005,-3.10982 -0.87555,-6.30826 -4.0283,-7.593265 -1.11445,-0.45385 -1.78585,-0.4619 -2.95405,-0.521 z m -60.28961,2.780835 c -1.11582,0.16115 -1.74692,0.17455 -2.81977,0.67675 -4.55329,2.13095 -4.02827,6.92592 -4.02827,11.10188 0,0 0,11.9505 0,11.9505 10e-4,1.04333 0.13825,2.6882 0.58142,3.62544 0.94396,2.00204 3.37836,2.79427 5.46098,2.81978 2.27596,0.0255 5.23941,0.1786 6.95813,-1.62339 1.12255,-1.1776 1.34814,-2.993 1.36692,-4.55327 0,0 0,-15.71021 0,-15.71021 -0.002,-1.54014 -0.2269,-3.31795 -0.93722,-4.69963 -1.25011,-2.43308 -3.86445,-3.83759 -6.58219,-3.58785 z" />
</svg>
