<?xml version="1.0" encoding="UTF-8" standalone="no"?>
<svg xmlns="http://www.w3.org/2000/svg" xmlns:svg="http://www.w3.org/2000/svg" id="svgjaguarlogo" width="640" height="227" version="1.1">
  <g id="jaguarlogo">
    <path id="jaguarlogo02" fill="#ffd100" d="m 479.08997,196.37705 c 0,12.11568 -9.81931,21.94505 -21.92257,21.94505 -12.10326,0 -21.93925,-9.82937 -21.93925,-21.94505 0,-12.11566 9.81932,-21.96174 21.93925,-21.96174 12.11994,0 21.92257,9.84608 21.92257,21.96174 m -65.28425,0 c 0,12.11568 -9.81932,21.94505 -21.93925,21.94505 -12.10325,0 -21.93925,-9.82937 -21.93925,-21.94505 0,-12.11566 9.81933,-21.96174 21.93925,-21.96174 12.10326,0.0167 21.93925,9.84608 21.93925,21.96174 m -65.30094,0 c 0,12.11568 -9.8193,21.94505 -21.93923,21.94505 -12.10327,0 -21.93925,-9.82937 -21.93925,-21.94505 0,-12.11566 9.81931,-21.96174 21.93925,-21.96174 12.11993,0.0167 21.93923,9.84608 21.93923,21.96174 m -65.28425,0 c 0,12.11568 -9.81931,21.94505 -21.92257,21.94505 -12.10326,0 -21.93924,-9.82937 -21.93924,-21.94505 0,-12.11566 9.8193,-21.96174 21.93924,-21.96174 12.10326,0.0167 21.92257,9.84608 21.92257,21.96174 m -65.28426,0 c 0,12.11568 -9.81931,21.94505 -21.93925,21.94505 -12.10326,0 -21.92256,-9.82937 -21.92256,-21.94505 0,-12.11566 9.8193,-21.96174 21.92256,-21.96174 12.11994,0.0167 21.93925,9.84608 21.93925,21.96174 m -65.30092,0 c 0,12.11568 -9.81932,21.94505 -21.93925,21.94505 -12.10326,0 -21.93924,-9.82937 -21.93924,-21.94505 0,-12.11566 9.81931,-21.96174 21.93924,-21.96174 12.11993,0.0167 21.93925,9.84608 21.93925,21.96174"/>
    <path id="jaguarlogo01" fill="#231f20" d="m 467.12009,183.24341 h -19.92204 v 5.19004 h 6.46842 v 21.07727 h 6.98521 v -21.07727 h 6.46841 z m -78.75455,0 h 7.0019 v 26.28399 h -7.0019 z m -65.4343,4.9731 h 2.03388 c 2.33395,0 4.58456,0.23363 4.58456,2.63674 0,2.21954 -2.36731,2.78694 -4.66793,2.78694 h -1.95051 z m 0,10.16314 h 2.15057 c 2.40065,0 5.15139,0.26701 5.15139,3.1207 0,2.67013 -2.66739,3.05396 -5.23475,3.05396 h -2.06721 z m -7.0019,11.13107 h 11.05298 c 4.70127,0 10.23609,-1.31838 10.23609,-7.60985 0,-3.20414 -1.80048,-5.08991 -5.30143,-5.79083 v -0.0834 c 2.93413,-0.98461 4.61791,-2.82031 4.61791,-6.14128 0,-4.52252 -3.65098,-6.65861 -8.53563,-6.65861 h -12.06992 z m -59.73275,-15.62021 h 10.18607 v 4.97309 h -10.18607 z m -60.19957,5.87426 h -7.2186 l 7.15192,-11.09768 h 0.0833 v 11.09768 z m -0.45012,9.74595 h 6.55178 v -5.00649 h 3.71766 v -4.73946 h -3.71766 v -16.52136 h -7.75209 l -10.53618,15.70364 v 5.57388 h 11.73649 z m -68.76852,-8.09381 c 0,-2.03597 1.13364,-3.87167 3.41758,-3.87167 2.45067,0 3.35091,2.00259 3.35091,4.17206 0,2.03597 -1.16699,3.72148 -3.35091,3.72148 -2.26727,0.0167 -3.41758,-1.86908 -3.41758,-4.02187 z m 11.76984,-17.42253 c -2.00054,-0.78435 -4.13445,-1.20155 -6.80184,-1.20155 -8.68567,0 -11.58646,6.65861 -11.58646,14.71903 0,6.59186 2.60071,12.46613 10.08606,12.46613 5.78488,0 9.85266,-4.02187 9.85266,-8.87815 0,-4.70609 -3.05084,-8.27737 -7.85213,-8.27737 -2.63403,0 -4.43452,0.90116 -5.68486,2.67012 h -0.0833 c 0.0333,-4.62266 1.46706,-7.70998 6.13499,-7.70998 2.55068,0 4.40118,0.63416 5.53482,1.38513 z"/>
    <path id="jaguarlogo00" fill="#ed1c24" d="m 447.83155,140.38798 c -0.61682,5.08992 -2.85077,9.67919 -5.70154,13.90131 -1.23366,-0.25032 -1.11696,-2.23622 -2.73406,-2.60336 0.13337,-0.61748 0.86689,-0.98461 1.23366,-1.48526 0.61683,0 1.11697,-0.1335 1.48373,-0.61746 1.86717,-3.35434 -0.36676,-9.06172 4.21781,-10.43016 0.50014,0.23364 1.00027,0.73428 1.5004,1.23493 m 37.69349,-29.78853 c 2.484,2.10272 4.58457,4.47245 4.46787,7.69328 4.3345,7.57647 11.65314,12.90002 17.85481,18.49059 1.98387,3.60466 4.3345,7.07582 6.9352,10.43016 5.20141,-2.23623 8.30224,3.72147 11.53645,6.82549 -0.61684,3.85499 4.3345,4.58927 6.56843,6.82549 1.86718,-0.75097 2.98414,1.11812 3.21755,2.72019 4.2178,1.73558 6.06829,7.19263 10.78623,7.69328 1.86717,3.72147 7.18527,2.1194 7.43533,6.57517 3.96774,3.10401 8.43561,5.45705 12.15328,8.31075 -0.36676,2.48655 3.60098,1.11811 3.3509,3.85499 1.86717,1.36843 3.71767,3.9718 6.45174,3.58797 0.50013,3.60466 4.46787,3.60466 6.56844,5.34024 11.28637,9.56237 24.05648,18.12344 34.84272,28.05295 -1.6171,0 -2.98414,-1.0013 -4.46787,-1.48525 -29.39126,-23.07985 -60.49964,-43.43952 -89.52413,-67.88781 -1.61709,-0.8678 -1.7338,-2.72019 -2.484,-4.22212 -10.03604,-1.36844 -15.37081,-12.28256 -23.80641,-17.87312 -3.10083,-8.44426 -14.75397,-10.29665 -15.73758,-19.6087 -3.10082,-2.85369 -8.55229,-1.73557 -10.03604,-6.57517 -0.8669,-0.36714 -0.8669,-1.61876 -1.23366,-2.35304 -1.7338,-1.73558 -6.8185,-1.23494 -5.33476,-4.83959 4.58456,-2.353048 8.30223,2.85369 12.7701,3.60465 2.10056,2.10272 5.20141,3.22084 7.6854,4.8396 m -4.71793,-16.137537 c 1.36703,0.867788 2.73406,1.985902 4.46786,2.102719 5.58485,8.561078 15.37082,14.268458 20.83895,23.213358 2.73407,2.48654 7.56871,3.22083 8.30224,7.44296 5.58484,4.58927 12.52004,9.17854 15.75424,15.52006 3.85104,1.98591 7.31864,4.47247 11.40308,5.59058 11.28637,8.92821 19.83868,18.49058 30.25815,28.28658 6.70182,7.69329 15.73757,9.42887 22.93952,15.52008 4.95133,4.72277 11.53644,9.42885 15.25411,14.90261 -0.25007,0.50064 -1.36704,0.50064 -1.86717,0 -15.50418,-13.40067 -32.47542,-23.71402 -47.86289,-37.48183 -2.23395,0.25033 -4.21781,-1.48524 -5.95161,-2.9705 -10.16941,-5.20673 -16.62115,-18.37376 -28.02422,-21.22745 -3.46759,-6.20803 -9.80264,-9.92951 -15.75424,-13.40067 -4.71795,-1.85239 -5.20141,-7.9436 -9.80265,-9.17854 -1.36704,-1.73558 -3.85104,-1.86908 -4.46786,-4.22213 -4.46788,-4.97309 -8.91908,-10.54697 -14.63729,-13.65098 -1.7338,-1.73558 -2.6007,-3.72148 -3.85103,-5.707385 -1.98386,-0.36714 -5.45147,1.118105 -6.81851,-1.735578 -1.98387,0 -4.2178,0.367142 -5.33477,-1.485253 0.25008,-2.102721 2.23394,-3.220833 0,-5.089917 2.35064,-6.208029 7.5687,0.500648 11.53644,0 1.63378,0.717595 2.86744,1.952526 3.61765,3.571286 m 29.75802,-75.330765 c 6.45173,-0.116817 12.15327,5.323553 17.85481,8.944903 6.8185,5.8242 10.1694,13.150342 9.80263,21.961738 -0.7502,16.755004 -17.97151,29.655022 -31.49181,36.363698 1.11696,1.852397 3.4676,3.471157 5.33477,4.839593 5.9516,5.840887 10.03603,13.90131 16.98791,19.35837 1.98386,4.22213 7.18527,4.47245 10.41947,7.94361 4.83464,8.56107 14.25384,11.04762 19.58861,18.85772 6.45174,5.59057 12.90348,12.41606 19.95538,17.25566 3.10085,5.70738 9.55257,4.47244 12.15327,10.68047 1.73381,0.61747 2.96747,2.48655 3.60098,3.85499 -3.96774,3.58798 -6.81851,-3.85499 -10.41948,-5.34024 -2.73407,-1.73558 -4.83464,-4.22213 -7.6854,-6.20803 -13.02018,-10.17983 -24.30654,-20.60999 -37.81018,-29.5382 -4.21782,-2.11941 -7.06858,-6.959 -10.16942,-10.68048 -7.43533,-2.10272 -9.66926,-10.17984 -15.73757,-14.26846 -0.9836,-1.86908 -2.6007,-3.721478 -4.10111,-5.089915 -0.1167,2.119395 -2.484,1.368437 -3.3509,0.250323 -2.23394,-2.853691 -6.06829,-3.971804 -8.55231,-6.208028 1.00027,-3.104015 -2.6007,-1.118114 -3.5843,-2.102721 -1.48372,-1.852395 -3.3509,-3.971803 -5.33477,-5.089916 -1.48373,0.750972 0,1.618761 0.25007,2.369731 4.71794,3.354339 6.0683,10.430157 11.90321,11.665087 5.58485,6.208029 11.78651,11.047629 17.85481,16.137539 -0.50013,0.61747 -1.86717,0.36714 -2.73406,0.86779 11.7865,5.70738 20.82227,17.98994 32.24201,24.69861 4.3345,4.08862 8.80237,7.94361 12.40334,11.91541 0.25007,0.36715 -0.50013,0.50065 -0.25006,0.86778 15.25412,10.29665 27.40738,26.80133 43.76179,35.49592 0.50013,1.23492 -0.8669,1.36843 -1.48373,0.86779 -17.60475,-11.16444 -32.72549,-26.56769 -50.58029,-37.23149 -14.88736,-11.04763 -24.79002,-26.93483 -41.41117,-35.12876 -0.50012,-2.85371 -3.4676,-2.72019 -5.33477,-3.85499 -1.86717,-2.73687 -5.83491,-5.08992 -5.9516,-8.69458 -2.60071,-2.8537 -7.43534,-4.08862 -8.68568,-8.310749 -2.35062,-1.234931 -4.46786,-3.604662 -7.43534,-2.736874 -2.10056,-1.368437 -3.10083,-4.722775 -5.9516,-5.089916 -0.50013,-1.118114 -2.11724,-1.001296 -1.98387,-2.353044 2.6007,-0.367141 1.7338,-3.721479 4.46787,-4.105309 2.23394,1.234931 4.71794,1.118112 7.06858,0.250324 1.98386,-3.854986 -3.60098,-4.839593 -5.08471,-7.693284 -1.11696,-1.61876 0.9836,-3.220832 1.23367,-3.971804 4.08443,-0.116817 6.45174,8.060426 11.0363,4.839592 1.11697,0 1.60044,1.368438 2.96747,0.86779 2.96747,-4.95641 6.9352,-9.562368 10.65288,-14.268454 1.23366,-2.987197 3.85103,-5.824199 2.35063,-9.562368 -5.33478,-6.825495 -14.87068,-8.077114 -23.42298,-6.575171 -2.23394,1.985902 -6.7018,0.734283 -7.18527,4.472451 -0.38344,3.220833 -2.48401,5.590564 -3.85104,8.310749 -0.7502,-0.116818 -0.8669,-0.734283 -0.8669,-1.485254 0.61683,-0.367142 -0.50013,-0.984606 -0.8669,-1.118113 -3.85103,4.722775 -4.3345,11.414764 -6.9352,17.005328 -0.8669,0 -0.50013,-1.234931 -1.48374,-1.234931 -6.70179,20.226159 -10.53616,41.453617 -15.1374,62.547557 -0.50014,1.48526 -1.48373,2.10273 -2.71741,2.97052 -1.86717,-1.36845 1.48374,-4.72278 -1.7338,-5.70738 -3.96773,9.06172 -7.5687,18.24025 -11.65314,27.18515 -1.23365,-1.86908 0.13337,-3.60466 -1.11696,-5.34023 -1.7338,-0.36715 -2.60071,0.36714 -2.96747,1.73557 -1.7338,3.85498 -1.23367,9.17853 -4.46787,11.91541 0.13338,-0.86778 1.00027,-3.47115 0,-4.72278 -1.61711,1.11812 -1.48374,4.95642 -3.60097,3.855 0,-2.60337 -2.71739,-5.59058 0,-7.8268 -3.5843,-4.97309 2.35063,-11.04762 4.2178,-16.38787 1.11698,-0.86777 3.4676,-1.48524 1.48373,-3.22082 1.23368,-1.36843 -0.75019,-5.34024 1.98387,-5.08992 1.60043,-1.11811 0.1167,-1.86908 -0.86689,-2.35304 2.11724,-4.58927 2.96746,-9.67919 5.08469,-14.26845 2.10057,-0.75097 3.71767,-2.48655 3.85104,-4.8396 -1.6171,-0.25032 -1.23366,-2.23622 -0.86689,-3.22083 3.96774,-11.047622 6.20167,-22.846216 11.28637,-33.393189 0.61684,-2.353044 0.9836,-5.573876 2.96747,-7.693285 0.75019,-4.105309 3.10083,-7.326141 3.85104,-11.297945 -5.20141,0.984607 -10.28611,7.82679 -16.35442,4.472451 0.1167,-6.208029 -7.93547,0.984607 -7.6854,-5.089916 -0.50014,-3.72148 -4.96801,-0.367142 -5.9516,-3.854986 0,-2.486549 1.36703,-3.72148 0.86691,-5.957706 2.23393,1.118113 3.58429,-1.61876 5.70153,-1.485254 2.35063,-1.852396 1.23366,-5.206733 3.21753,-7.192635 5.0847,-1.234931 9.4192,-4.956412 14.25385,-5.707382 0.61682,-0.86779 1.11695,-2.119408 2.484,-1.985903 2.48399,0.133506 4.95132,-1.485254 7.43534,-2.102719 0,0.116817 0.13337,0.116817 0.25006,0.250324 2.484,-1.602072 5.95161,-1.485254 8.05216,-3.587975 5.08471,-0.500647 9.91934,-3.471155 14.87068,-2.603366 3.3509,-0.617465 8.06884,0.250324 10.66954,-2.97051 2.6007,-1.852394 5.70155,1.234931 8.30224,-1.485254 2.81742,1.81902 7.28529,-1.284994 10.13607,1.451878 M 163.03814,48.302211 c -0.25006,0.500647 -0.86689,0.867789 -0.86689,1.485254 -0.7502,0.867789 -2.23394,4.222128 -3.3509,1.234931 -6.20167,9.929509 -11.40309,20.22616 -16.62115,30.656316 -0.36676,0.750972 -0.36676,1.61876 0,2.369732 2.96747,0.617466 2.60069,-1.735579 3.60097,-3.23752 1.7338,-0.984607 3.71767,-2.10272 5.95161,-1.234931 2.484,-3.72148 7.06857,-4.839593 10.90292,-6.575172 -0.23338,-8.444254 0.75022,-16.271044 0.38344,-24.69861 m 19.33855,-27.068342 c 1.36704,2.603367 -2.10056,8.928214 2.96747,8.561071 2.6007,4.58927 0.13337,10.046327 0.25007,15.26975 -2.73407,28.303274 -3.3509,58.70926 -2.96747,87.24617 -0.61683,1.23494 0.50013,5.22343 -2.35063,3.60467 -1.36705,-1.36845 -1.48373,-4.10531 -3.21753,-4.47245 -2.11725,3.60466 -1.00027,8.19393 -2.11725,11.54827 -2.35063,-0.86779 -2.48399,-3.22083 -2.73406,-5.34024 2.35062,-3.97181 -3.71767,-5.95771 -2.10057,-10.43016 -1.7338,0.98461 0,4.58927 -1.48373,6.20803 -1.7338,0.50065 -1.98387,-1.73558 -2.98414,-2.9872 0.25007,-2.72018 -2.96747,-5.70738 -0.50014,-7.69328 1.7338,-4.47245 -2.96746,-7.19264 -1.23366,-11.29796 -0.25007,-8.06042 -0.61684,-17.622781 -0.86691,-25.316064 l -0.61682,-0.617466 c -7.43534,3.104015 -15.50418,5.840888 -22.93953,8.077113 -1.61709,0.734284 -2.96745,2.48655 -5.08469,2.353044 -7.93547,14.769103 -13.88708,30.405993 -21.07235,45.542243 0.36676,4.08862 -5.0847,4.95641 -4.2178,9.31203 -0.98361,1.86908 -1.48373,4.22214 -2.96748,5.57388 -1.23365,-2.35304 2.73408,-5.45705 0,-7.69328 0.98361,-2.48656 1.98387,-5.34024 1.48375,-8.06042 -3.71767,5.20673 -5.83492,11.41476 -8.552308,17.25565 -1.233666,0.36714 -1.483734,-1.61876 -0.866901,-2.35305 0.733531,-1.48525 2.100569,-3.60466 1.116969,-5.08991 h -0.633504 c -2.350634,3.48784 -2.85077,8.44424 -6.818504,10.43015 0.983597,-3.23752 -0.500136,-4.72277 -0.250069,-7.69329 0,-3.60465 3.467601,-4.9564 3.217534,-8.06042 1.367036,-0.75097 -0.366765,-2.98719 1.867171,-2.98719 -0.133371,-1.61877 3.851042,-2.72019 1.7338,-4.22213 1.617092,-4.72277 4.601242,-9.06172 6.585112,-13.40067 1.7338,-1.48525 1.11695,-3.9718 3.21753,-5.32355 1.6171,-4.22212 3.71766,-8.69458 6.8185,-12.53287 -1.36704,-2.23624 2.6007,-2.35305 1.23367,-4.72278 0.50014,-1.36843 1.7338,-2.486548 2.11724,-3.854985 -1.11697,-0.86779 -4.96801,0.617464 -4.46788,-2.353044 0.61684,-0.867788 -1.00026,-0.867788 -1.48373,-1.234931 1.7338,-1.735578 4.71794,-2.736872 7.06858,-2.736872 0.50012,-1.368437 2.23393,-0.984607 3.3509,-1.485254 1.23366,-3.104015 5.08469,-5.707382 3.85104,-9.428863 1.98386,-1.368437 3.85102,-3.354338 3.85102,-5.457057 0,-4.839594 5.70154,-8.677891 6.31838,-13.033524 2.73407,-1.985902 3.21753,-5.707382 4.96801,-8.060425 2.48399,-0.500648 0.11669,-2.853691 2.73406,-2.970508 2.96747,-5.457059 3.60098,-12.165735 8.91908,-16.387864 1.98387,-2.853691 3.10083,-5.957705 3.85104,-9.178537 1.36702,-0.734283 2.10056,0 3.60097,-0.367142 1.11696,1.118113 0,4.222127 2.73407,3.604663 0.86689,-1.869084 0.11669,-6.208029 3.83436,-6.208029 2.98413,-0.133506 6.45174,1.61876 8.30224,-1.234931 1.70046,-1.034671 4.6846,-2.035967 6.53509,-0.300388 M 183.2436,2.1258212 c -0.50015,0.9846067 -1.85051,0.9846067 -2.73408,1.735578 -8.05216,1.2349306 -16.48777,1.7355781 -24.30654,3.6046622 -1.23368,3.2208326 2.23393,3.1040146 4.08442,2.9705086 0.61684,0.867789 1.73381,-0.250324 1.86718,0 0,3.72148 -5.9516,2.236226 -4.83464,6.575171 -3.10083,2.853691 -7.81877,1.735577 -11.0363,4.472451 0.25006,0.250324 0.50012,0.367141 0.61682,0.617465 -5.33476,2.119409 -10.90293,4.722775 -16.62114,5.340241 0.8669,2.102719 -2.35063,3.854985 -3.3509,5.089915 -3.5843,-0.250322 -6.20168,1.618761 -9.16914,2.970509 -3.56763,22.345568 -11.25303,43.072375 -17.57141,64.29983 C 93.502745,112.46854 89.901774,126.36985 79.115535,137.41747 68.079228,151.93625 52.341654,168.82476 32.119539,162.73355 20.216331,157.76045 4.9622207,153.4215 0.01088656,139.38669 c -0.13336927,-1.23493 0.98359837,-1.73558 1.98386794,-1.98591 0.8669001,-0.36714 0.6168329,0.50065 0.9835984,0.86778 1.483733,0.8678 3.2175335,1.48527 3.4676009,3.60468 7.5687062,4.47245 14.0037722,11.54826 23.8064152,10.41345 18.471643,-1.9692 30.258153,-20.96043 39.060525,-35.24557 C 81.332798,92.843153 87.784537,66.158639 93.73614,39.34062 93.486073,39.090297 93.236006,38.973479 93.119309,38.723155 77.7485,40.091591 62.861155,43.429242 47.623716,43.813072 c -0.8669,-1.234931 -1.116967,-2.603368 -1.86717,-3.854987 -1.617102,-0.617465 -3.851037,1.368437 -4.467871,-0.617465 0.866902,-0.250323 -0.133368,-0.617465 -0.250067,-0.867789 1.86717,0.133506 3.217534,-1.234931 4.101105,-2.736872 0.500135,-1.869084 -1.733801,-2.119408 -2.6007,-3.220834 -1.233667,-0.250324 -2.350634,-0.500647 -2.73407,-1.869084 0,-1.23493 0,-2.486548 1.233665,-3.220832 1.7338,-1.118113 6.568438,1.23493 5.568167,-2.119407 -1.116967,-0.116818 -3.967736,0.617465 -4.084434,-1.735578 0.133369,-1.869084 0.366766,-3.604663 2.600701,-3.354339 15.870943,1.368437 29.624649,-3.220833 45.245524,-4.088621 22.439384,-3.104015 43.761794,-9.5623682 65.834414,-12.5328768 7.452,-1.2182423 14.88733,-2.3363551 22.33935,-3.5879739 1.8505,0 4.33449,-0.2336355 4.70127,2.1194079 M 396.86782,47.050593 c -6.45174,8.060424 -13.5203,15.887214 -17.48804,25.065752 h 0.86689 c 1.11698,-1.735578 5.33478,-0.617465 5.9516,-3.854986 3.10085,-0.984607 5.83492,-4.722775 9.55259,-2.353044 -1.23368,-2.603367 2.35062,-3.354338 0.25007,-5.089916 -0.25007,-1.368437 0.13337,-3.354339 1.7338,-3.854985 -0.36677,-3.220833 1.98386,-5.957706 1.86717,-9.312044 -0.13337,0.500646 -0.98361,1.602071 -1.86717,1.485254 -0.61685,-0.467271 -0.98361,-1.101425 -0.86691,-2.086031 M 310.94467,16.761417 c -1.98386,3.220832 4.33449,4.839593 0.86689,7.943607 1.98387,1.368437 4.08445,0.617466 5.33477,3.354338 -2.11723,6.074524 -6.45172,11.297947 -8.91907,17.255652 -4.08443,2.736873 -2.23393,7.943608 -4.71793,11.297946 -4.3345,6.208029 -8.4356,12.532876 -10.16941,19.725512 -8.18553,10.797299 -12.15327,23.446992 -15.75425,36.246878 -0.61682,1.8524 -0.50013,4.47246 1.48374,5.45705 5.58485,0.7343 9.41921,-5.84088 13.63702,-8.06042 1.6171,-2.60336 5.0847,-3.35433 6.31835,-6.32484 6.06831,-5.590565 15.37081,-11.54827 15.98765,-20.226161 2.73408,-2.353044 0.25007,-6.825495 3.60097,-8.928214 0,-3.220833 0,-7.326142 2.98414,-8.561073 -0.75021,-2.353043 -1.36703,-4.956411 0.61684,-6.942312 -0.36677,-0.867789 0.61682,-1.368437 0.25006,-2.353044 0.86689,0.500648 1.86717,-0.734283 2.73406,-1.118113 3.21755,-2.236225 -2.73406,-3.854986 0.61685,-5.957705 2.10056,-2.736872 2.71739,-6.942312 5.58483,-8.444255 -0.98359,-1.735577 1.98386,-2.603367 1.86716,-4.472452 2.48401,-3.471155 3.71767,-7.826789 7.43534,-10.68048 1.48375,1.368436 4.3345,-0.250324 5.33478,2.353044 2.48401,-1.23493 4.58456,-1.368437 7.06856,0 0.86691,1.485254 2.23394,3.104015 1.48374,4.839592 -0.36676,0.86779 -1.36704,1.485254 -1.11697,2.603367 1.6171,0.86779 3.96774,1.485255 3.85104,3.854986 v 1.869084 c -12.52003,22.345568 -22.18932,45.79256 -30.37484,70.007216 -0.13338,2.23622 -1.11698,4.58927 -0.25007,6.82549 0.61682,1.48526 2.10055,3.35434 3.83436,3.60467 0.50013,0.50064 1.11696,1.36843 1.73381,0.61746 3.71766,-7.32615 10.41946,-12.66638 14.00376,-19.97584 -2.48399,0.36714 -5.33477,1.61876 -8.06884,2.35304 -0.36676,-1.9859 2.35063,-3.10401 2.484,-5.323546 0.50014,-1.735578 -2.60069,-1.485254 -0.98359,-2.987198 2.60069,-1.485253 6.20167,-2.102719 7.43533,-4.839591 2.48401,-1.985902 6.31838,-1.735579 7.43534,-5.340242 6.31838,-1.368435 5.8349,-8.19393 9.91934,-11.91541 0.61684,-3.854986 4.71794,-5.957706 6.20167,-9.195226 0.50014,0.383829 1.11697,0.250323 1.48373,-0.367142 -1.00026,-4.589269 7.06858,-4.472451 6.20167,-9.812691 3.60097,-1.118112 3.10085,-4.956411 5.9516,-6.825495 2.11724,-2.853691 4.21781,-5.957706 7.45202,-8.077113 -0.38343,-0.734284 0.73352,-0.86779 0.61683,-1.485254 4.2178,-4.222128 11.28638,-6.825496 10.78625,-13.400665 0.13337,-1.735579 0.25006,-4.472452 2.35063,-5.590566 2.10056,0 4.08442,0.984608 5.58484,1.73558 0.13336,0.984605 -0.36678,2.85369 1.23365,2.736872 4.33451,1.118114 7.31864,0 11.28638,1.985902 0.61683,0.500648 0,1.368436 0.61683,1.869084 -8.43561,34.744938 -6.56844,74.963621 -11.90321,111.077001 0.75022,5.08991 -1.23365,10.54696 -0.61683,15.13624 -0.8669,0.61747 -0.75019,2.10272 -1.7338,1.48526 0.25007,-0.75097 -0.50012,-1.23493 -0.86689,-1.73558 0,-1.73558 0.50013,-4.47245 -1.00028,-5.95771 -0.25007,0.50065 -0.86689,0.61747 -1.48373,0.61747 -0.8669,-0.61747 -0.50014,-1.73558 -1.48373,-2.35305 2.85076,-0.86779 2.11723,-3.9718 1.86716,-5.9577 -1.86716,-0.13351 -1.48372,-2.23623 -2.35063,-3.35435 0.50013,-0.75096 2.96748,-0.61745 1.98387,-2.60336 -0.61682,-1.61877 -1.23367,0.73429 -2.35064,0 -0.61682,-1.36844 -1.36703,-2.85369 -0.8669,-4.22212 -1.73379,-2.48655 0.25008,-6.70868 -2.10056,-8.69458 0,-1.48526 1.36703,-3.35435 0,-4.72278 -1.48373,0.75097 -0.7502,3.47115 -1.7338,4.22213 -0.50014,-5.08992 -3.10083,-10.9308 0,-15.52007 -0.50014,-2.48655 -2.73407,-5.20674 -1.48373,-8.310755 -0.50014,-5.457057 1.11696,-11.665086 0.61683,-17.005327 -2.98413,-0.500647 -5.33477,2.236226 -8.4356,2.353044 -0.75021,1.735578 -2.96748,1.61876 -4.46787,2.353043 -4.33451,0.984606 -6.31838,5.957705 -10.90294,6.324847 -0.7502,0.750971 -1.8505,0.750971 -2.73407,1.118113 0,-0.250325 0.1167,-0.750972 -0.25006,-0.867789 -1.11698,1.485254 -4.33452,0.250324 -3.35091,2.987197 -1.48374,0 -2.484,1.61876 -3.21754,2.720185 -5.95161,11.181132 -11.51977,22.462372 -18.47164,33.259682 -1.11697,3.10402 -3.60098,5.70737 -4.46787,8.92822 -0.50014,0.61745 -1.6171,0.25032 -1.7338,-0.25033 -1.11697,-1.48525 -2.484,0.98461 -2.73408,1.73558 -2.85077,5.70738 -5.83489,11.91541 -10.41947,16.38786 -0.50014,0.25033 -0.86689,-0.25032 -1.23366,-0.50064 0.13336,-1.36844 1.00027,-2.60338 1.00027,-3.60467 -2.23393,1.86909 -3.60098,4.10531 -5.08471,6.20803 -2.85076,0.73428 -0.7502,-2.48655 -1.86716,-3.60467 -2.73408,2.73688 -3.60097,8.07713 -8.30225,8.07713 -0.25007,-1.36845 0.36678,-3.10402 0.61684,-4.72278 -1.00027,-0.98462 -2.11723,1.23493 -2.98414,-0.36714 0.61684,-2.48656 3.60097,-4.58928 4.2178,-7.44296 2.60071,-0.98462 1.86717,-4.83959 4.46788,-6.20803 -0.50014,-2.23623 1.73379,-2.60337 1.73379,-4.47245 2.60071,-2.48655 2.48401,-6.20803 5.33477,-8.69458 -6.08497,0.86779 -15.62087,7.19263 -19.95536,-1.11811 0.86689,-1.73558 0.13336,-3.855 -1.48375,-4.8396 0.86691,-5.20673 -0.25006,-8.92821 1.86718,-13.65099 -0.25007,-2.48655 2.85076,-3.47116 1.48374,-5.70738 -6.31838,6.94231 -13.38695,14.01813 -20.5889,20.35967 -5.33476,2.60336 -11.40306,3.60466 -16.9879,0.50064 -2.10056,-1.23492 -1.98387,-3.47115 -3.46761,-4.97309 -2.23392,-9.92951 -1.85049,-20.10935 2.35064,-28.920743 2.35064,-4.956411 1.23366,-11.414764 4.71794,-15.75371 1.6171,-10.179832 7.06856,-18.740904 10.78623,-28.052948 2.23394,-5.34024 3.85105,-11.047622 7.68542,-15.770397 1.86717,-5.840889 4.1011,-12.282552 9.55257,-15.75371 0.86689,-0.500646 1.86717,-1.9859 2.96746,-0.984605 2.23393,0.617465 2.73408,-3.604664 5.33477,-1.985903 0.48346,0.383829 0.96694,0.884477 1.217,1.501943 m -60.99978,12.416059 c 3.35092,0.867789 2.96748,6.208028 7.06858,4.472451 1.11696,-0.250323 2.48401,1.118113 1.48374,2.486549 -0.61685,0.367142 -1.36704,0.750972 -2.11724,1.118113 0.61683,1.23493 1.98387,2.85369 0.61683,4.222128 -3.71768,1.985901 -8.05217,2.119407 -12.15327,3.220831 -14.75399,5.590566 -30.74163,16.88851 -36.9433,32.508712 -3.10083,10.430157 -3.60096,23.83082 2.73408,33.00936 5.20139,5.34024 11.28637,11.04763 18.72171,12.28256 6.56843,1.48525 12.26996,-0.98461 16.9879,-5.08992 0,-1.48526 -2.96745,-2.23623 -1.23365,-3.60466 -3.4676,-4.22213 0.36676,-8.8114 -0.61685,-13.40067 1.23367,-4.839592 1.7338,-8.811397 3.60097,-13.400665 -2.73406,-0.250324 -5.33476,1.61876 -8.30222,1.735577 1.23366,-0.617464 0,-2.236225 -0.86691,-1.118112 -5.58483,2.603366 -11.53644,4.222127 -16.73784,7.693284 -0.7502,-0.116819 -2.11723,-0.734283 -1.11698,-1.735579 5.46816,-1.602072 3.35092,-8.928215 9.55258,-9.312044 0.86691,-3.721479 5.33478,-4.222127 8.55231,-4.95641 -0.8669,-3.72148 3.3509,-1.368437 4.83464,-2.486549 4.33449,-2.236226 9.30251,-3.35434 13.02017,-7.44296 1.7338,-0.867789 3.3509,-0.500648 3.85103,1.485254 0.13337,0.734283 -0.13337,1.485254 0.61685,1.869084 1.98386,-0.250324 3.46759,-3.354338 5.33476,-1.869084 -0.13337,19.241552 -11.40307,36.363694 -6.8185,56.089214 -0.25007,1.85239 0.36676,4.08862 0.61683,6.20803 -0.38344,0.61745 -1.00026,0.61745 -1.48374,0.86779 -0.61682,-0.50066 0,-1.48526 -0.61682,-2.11941 -4.2178,2.23622 -2.11725,-4.47245 -5.58485,-3.85499 -1.7338,-1.73557 -2.60069,-4.33894 -5.45146,-4.08862 -3.4676,3.72148 -5.8349,9.17853 -11.28637,10.04633 -7.31865,1.9859 -15.87095,0.75097 -22.57275,-3.22083 -9.80264,-3.855 -16.73785,-12.90002 -20.83896,-22.09526 -4.21779,-17.005317 -3.35089,-36.981153 6.20167,-51.249608 1.7338,-5.707382 7.31865,-9.06172 9.78597,-14.518777 4.95134,-2.736874 7.06858,-9.428863 12.26998,-12.282554 0.8669,0.133506 2.11724,0 2.11724,-1.118112 6.31837,-3.604662 13.38693,-5.206735 20.82227,-6.324848 1.50041,3.988493 7.81878,0.76766 5.9516,5.974395 m 368.616,183.570754 c -1.98387,0.8678 -4.2178,-1.23492 -5.9516,-2.73688 1.6171,-3.104 3.71766,1.98591 5.9516,2.10272 v 0.63416 m 5.3181,-11.06431 c -0.7502,1.23494 -2.10057,0.25032 -2.96747,0 -4.58457,-2.10272 -8.80237,-5.20673 -13.02017,-8.31075 -0.8669,-0.86778 0.13337,-1.9859 1.11696,-1.48526 5.33478,2.48656 10.03604,6.82551 14.87068,9.79601 m -1.48373,-13.65098 c 5.8349,3.85497 12.26997,6.32484 17.60474,10.68048 -7.18527,-0.8678 -13.38694,-6.07453 -19.95538,-9.56238 -1.8505,-0.50064 -3.71767,-1.36843 -4.71794,-3.22082 0.13337,-0.86779 -0.50013,-1.9859 0.61684,-2.35306 2.61737,0.36716 4.1011,3.47117 6.45174,4.45578 m -22.32269,-15.50339 c 1.48374,0.61746 2.6007,2.23623 4.46787,2.11941 3.71767,1.86908 5.45147,6.32485 9.30251,7.94361 -2.484,2.98719 -5.0847,-2.11941 -8.05217,-2.35306 -2.73407,-3.97179 -8.43561,-4.58925 -9.55257,-9.17852 1.48373,-1.38513 2.96746,-0.15021 3.83436,1.46856"/>
  </g>
</svg>
