<?xml version="1.0" encoding="UTF-8" standalone="no"?>
<svg
   viewBox="0 0 23.999998 24.000001"
   version="1.1"
   id="svg4"
   width="23.999998"
   height="24"
   xmlns="http://www.w3.org/2000/svg"
   xmlns:svg="http://www.w3.org/2000/svg">
  <defs
     id="defs8" />
  <!-- Font Awesome Pro 5.15.3 by @fontawesome - https://fontawesome.com License - https://fontawesome.com/license (Commercial License) -->
  <path
     d="m 16.775,4.7979225 3.75833,3.75833 c 0.15834,0.15833 0.15834,0.41667 0,0.575 l -9.1,9.0999995 -3.8666597,0.42917 c -0.51667,0.0583 -0.95417,-0.37917 -0.89584,-0.89584 l 0.42917,-3.86666 L 16.2,4.7979225 c 0.15833,-0.15834 0.41667,-0.15834 0.575,0 z m 6.75,-0.95417 -2.03333,-2.03333 c -0.63334,-0.63334 -1.6625,-0.63334 -2.3,0 l -1.475,1.475 c -0.15834,0.15833 -0.15834,0.41666 0,0.575 l 3.75833,3.75833 c 0.15833,0.15833 0.41667,0.15833 0.575,0 l 1.475,-1.475 c 0.63333,-0.6375 0.63333,-1.66667 0,-2.3 z M 16,15.756253 v 4.24167 H 2.6666703 V 6.6645825 H 12.24167 c 0.13333,0 0.25833,-0.0542 0.35416,-0.14583 l 1.66667,-1.66667 c 0.31667,-0.31666 0.0917,-0.85416 -0.35417,-0.85416 H 2.0000003 c -1.10417,0 -2.00000000367432,0.89583 -2.00000000367432,2 V 20.664583 c 0,1.104169 0.89583000367432,2 2.00000000367432,2 H 16.66667 c 1.10416,0 2,-0.895831 2,-2 v -6.575 c 0,-0.44583 -0.5375,-0.66666 -0.85417,-0.35416 l -1.66667,1.66666 C 16.05417,15.497923 16,15.622923 16,15.756253 Z"
     id="path845"
     style="fill:#ffffff;fill-opacity:1;stroke:none;stroke-width:0.0416667" />
</svg>
