<?xml version="1.0" encoding="UTF-8" standalone="no"?>
<svg xmlns="http://www.w3.org/2000/svg" xmlns:svg="http://www.w3.org/2000/svg" id="svggenesisicon" width="128" height="128" version="1.1">
  <path id="genesisicon" fill="#000000" d="m 58.938958,56.841556 c 0,0.502048 0.390375,0.899564 0.858682,0.894222 h 3.506838 v -1.118542 h -3.293441 v -0.313589 h 2.594986 v -1.113202 h -3.661967 z m 0.0051,-3.688294 c 0,-0.462372 0.38018,-0.891935 0.853583,-0.889647 h 3.506839 v 1.113203 h -3.293429 v 0.31359 h 2.594986 v 1.128461 H 58.93897 Z m 7.286791,6.077978 c -1.190065,0 -2.155812,-1.010961 -2.155812,-2.257686 v -3.952289 c 0,-1.246726 0.965747,-2.257687 2.155812,-2.257687 h 3.783598 v 1.128461 h -3.692543 c -0.625623,0 -1.17987,0.605052 -1.17987,1.259696 v 3.692872 c 0,0.654647 0.553519,1.274957 1.17987,1.274957 h 2.616109 V 54.799795 H 66.90385 v -1.108626 h 3.115003 v 5.27989 l 2.219174,-7.193468 c 0.238889,-0.712631 0.886362,-1.223834 1.648908,-1.223834 0.777841,0 1.438423,0.533328 1.662743,1.27114 l 2.304366,7.407105 h -4.367012 v -1.1132 H 76.32382 L 74.40036,51.94087 c -0.11216,-0.339529 -0.313176,-0.379968 -0.513462,-0.379968 -0.209028,0 -0.40276,0.09003 -0.512006,0.40057 l -2.257798,7.27053 h -4.886269 z m 7.830843,-7.158372 c -0.04296,-0.106055 -0.05827,-0.131233 -0.174794,-0.131233 -0.116532,0 -0.144936,0.06333 -0.189364,0.169381 l -2.206066,7.11946 1.160934,0.0015 1.247603,-3.946947 0.41077,1.332942 h -0.823726 v 1.123123 H 75.8315 Z m -17.572039,1.274194 h -3.617538 v 0.373103 l 1.085186,0.0023 c 1.466828,0 2.655437,1.215442 2.655437,2.751342 0,1.536662 -1.188609,2.755157 -2.655437,2.755157 l -3.580397,-0.0076 v -1.107116 h 3.572388 c 0.871065,0 1.577529,-0.739338 1.577529,-1.651875 0,-0.912535 -0.706464,-1.642716 -1.577529,-1.642716 l -0.925705,-0.0038 c -0.671507,0 -1.216287,-0.570719 -1.216287,-1.274195 0,-0.703478 0.54478,-1.274193 1.216287,-1.274193 h 3.468235 z m 0,-2.594929 h -3.480615 c -1.4661,0 -2.655436,1.2452 -2.655436,2.781098 0,1.536662 1.189336,2.752104 2.655436,2.739133 h 1.060426 v 0.375391 H 50.37692 v 1.088788 h 3.572388 c 0.671505,0 1.216286,-0.570717 1.216286,-1.273432 0,-0.703476 -0.544781,-1.264274 -1.216286,-1.264274 l -0.92569,-0.0038 c -0.871063,0 -1.577528,-0.740098 -1.577528,-1.652634 0,-0.912536 0.705737,-1.652639 1.577528,-1.652639 h 3.468236 z m 10.06093,5.895622 v -3.270937 h 3.463867 v -1.113203 h -3.658335 c -0.473402,-0.0023 -0.853582,0.427275 -0.853582,0.889647 l -0.0044,3.688294 c 0,0.502048 0.38965,0.899564 0.857954,0.894222 h 2.231561 l -0.0058,-2.565172 H 66.90313 v 1.103284 h 0.620524 v 0.373104 h -0.973041 z m -6.878208,-5.884939 c -1.190066,0 -2.155812,1.01096 -2.155812,2.257685 v 3.952288 c 0,1.246725 0.965746,2.257687 2.155812,2.257687 h 3.632837 V 58.117275 H 59.76269 c -0.624894,0 -1.179141,-0.620311 -1.179141,-1.274956 v -3.692872 c 0,-0.654644 0.554247,-1.259697 1.179141,-1.259697 h 3.542505 V 50.761289 H 59.672337 Z M 14.175967,65.74107 v 6.33663 h 6.199418 v -1.741905 h -5.065431 l 4.045063,-2.851293 h 6.010784 v 4.752664 l -3.818556,2.692593 H 9.1862975 v -9.107812 0 L 13.325313,62.89054 h 13.533549 l -4.026125,2.85053 z m 41.015794,5.189095 -6.19942,-4.040033 v 8.039627 H 44.001942 V 62.89054 h 5.065432 l 6.124403,3.524249 v -3.524249 0 h 4.990414 V 74.929759 H 55.191777 Z M 31.640962,72.0777 v -1.741905 h 4.782117 L 40.48635,67.484502 H 31.640962 V 65.74107 h 7.200852 l 4.045063,-2.85053 H 30.997878 l -4.346585,2.792542 v 0 9.246677 H 38.747878 L 42.830814,72.0777 Z m 34.929993,0 v -1.741905 h 4.780658 l 4.063999,-2.851293 H 66.570955 V 65.74107 h 7.200123 l 4.04579,-2.85053 H 65.927869 l -4.347313,2.792542 v 0 9.246677 H 73.677868 L 77.760075,72.0777 Z m 40.372675,-4.593198 h 11.1141 v 4.633637 l -3.97006,2.81162 h -12.26626 l 4.06401,-2.852059 h 7.18265 v -1.741905 h -11.1141 v -4.535213 l 4.10115,-2.910042 v 0 h 12.2488 l -4.04579,2.85053 h -7.31448 z M 95.036421,62.89054 v 0 h 4.989679 v 12.039219 h -4.989679 z m -12.664672,4.593962 h 11.11409 v 4.633637 l -3.968589,2.81162 H 77.249526 L 81.313523,72.0777 h 7.181915 V 70.335795 H 77.381352 V 65.800582 L 81.48395,62.89054 v 0 h 12.248074 l -4.045789,2.85053 h -7.31447 z M 50.050783,48 43.625,57.583985 H 8.6562506 L 3.2101538e-6,62.810545 V 74.494139 L 9.1113266,80.000001 H 118.92774 L 128,74.494139 V 62.851564 l -8.69336,-5.267579 H 83.771492 L 77.380864,48 Z m 0.757816,1.583985 h 25.744137 l 6.46485,9.583984 h 35.875004 l 7.21875,4.396483 V 73.78125 l -7.63673,4.632813 H 9.5253909 L 1.8906265,73.78125 V 63.525395 L 9.0722668,59.167969 H 44.417974 Z"/>
</svg>
