<?xml version="1.0" encoding="UTF-8" standalone="no"?>
<!-- Created with Inkscape (http://www.inkscape.org/) -->

<svg
   width="640"
   height="100"
   viewBox="0 0 169.33334 26.458333"
   version="1.1"
   id="svg5"
   sodipodi:docname="system.svg"
   inkscape:version="1.2.1 (9c6d41e410, 2022-07-14, custom)"
   xmlns:inkscape="http://www.inkscape.org/namespaces/inkscape"
   xmlns:sodipodi="http://sodipodi.sourceforge.net/DTD/sodipodi-0.dtd"
   xmlns="http://www.w3.org/2000/svg"
   xmlns:svg="http://www.w3.org/2000/svg">
  <sodipodi:namedview
     id="namedview7"
     pagecolor="#686868"
     bordercolor="#666666"
     borderopacity="1.0"
     inkscape:showpageshadow="2"
     inkscape:pageopacity="0"
     inkscape:pagecheckerboard="true"
     inkscape:deskcolor="#d1d1d1"
     inkscape:document-units="px"
     showgrid="false"
     inkscape:zoom="1.0062496"
     inkscape:cx="70.559034"
     inkscape:cy="213.66468"
     inkscape:window-width="1920"
     inkscape:window-height="1023"
     inkscape:window-x="1366"
     inkscape:window-y="29"
     inkscape:window-maximized="1"
     inkscape:current-layer="layer1" />
  <defs
     id="defs2" />
  <g
     id="layer1"
     transform="matrix(0.74999967,0,0,0.74999967,-12.383788,-36.593381)">
    <g
       aria-label="COLLECTIONS"
       id="text236"
       style="font-size:37.5495px;line-height:1.25;fill:#ffffff;stroke-width:0.938739">
      <path
         d="m 39.075343,71.442954 -0.600792,6.308316 q -2.403168,0.976287 -6.083019,0.976287 -4.731237,0 -6.796459,-1.839926 -2.027673,-1.839925 -2.027673,-5.669974 0,-1.614629 0.525693,-4.768787 1.126485,-6.458513 3.867598,-9.387374 2.778663,-2.928861 8.749033,-2.928861 1.389332,0 3.154158,0.300396 1.802376,0.262846 2.628465,0.675891 l -2.102772,5.745073 q -2.21542,-0.525693 -4.167994,-0.525693 -1.915025,0 -2.741114,0.375495 -0.826089,0.375495 -1.013836,1.50198 l -1.727277,9.837969 q 1.351782,0.300396 2.778663,0.300396 3.041509,0 5.557326,-0.901188 z"
         style="font-weight:bold;font-family:'Changa One';-inkscape-font-specification:'Changa One Bold'"
         id="path11821" />
      <path
         d="m 51.053633,62.543722 -1.727277,9.76287 h 2.966411 q 1.46443,0 2.177871,-0.337945 0.71344,-0.375495 0.938737,-1.652178 l 1.727277,-9.76287 h -3.00396 q -1.426881,0 -2.140321,0.375495 -0.713441,0.337945 -0.938738,1.614628 z m 4.318193,-8.411087 q 4.768786,0 6.796459,1.877475 2.027673,1.839925 2.027673,5.707523 0,3.867599 -1.239133,8.110692 -1.201584,4.205544 -3.867599,6.571163 -2.628465,2.328069 -7.735197,2.328069 -5.069182,0 -7.096855,-1.839926 -2.027673,-1.877475 -2.027673,-5.745073 0,-1.839926 0.525693,-4.843886 0.525693,-3.041509 1.389331,-5.21938 0.863639,-2.21542 2.328069,-3.830049 2.816213,-3.116608 8.899232,-3.116608 z"
         style="font-weight:bold;font-family:'Changa One';-inkscape-font-specification:'Changa One Bold'"
         id="path11823" />
      <path
         d="M 79.628768,78.164314 H 65.359959 l 4.130445,-23.468437 h 7.134405 L 73.54575,72.156394 h 7.134404 z"
         style="font-weight:bold;font-family:'Changa One';-inkscape-font-specification:'Changa One Bold'"
         id="path11825" />
      <path
         d="m 95.624878,78.164314 h -14.26881 l 4.130445,-23.468437 h 7.134405 l -3.079059,17.460517 h 7.134404 z"
         style="font-weight:bold;font-family:'Changa One';-inkscape-font-specification:'Changa One Bold'"
         id="path11827" />
      <path
         d="m 113.16052,69.302632 h -7.13441 l -0.48814,2.853762 h 8.74903 l -1.05139,6.00792 H 97.352177 l 4.130443,-23.468437 h 15.69569 l -1.95257,6.00792 h -7.69765 l -0.52569,3.154158 h 7.1344 z"
         style="font-weight:bold;font-family:'Changa One';-inkscape-font-specification:'Changa One Bold'"
         id="path11829" />
      <path
         d="m 133.39972,71.442954 -0.60079,6.308316 q -2.40317,0.976287 -6.08302,0.976287 -4.73124,0 -6.79646,-1.839926 -2.02767,-1.839925 -2.02767,-5.669974 0,-1.614629 0.52569,-4.768787 1.12649,-6.458513 3.8676,-9.387374 2.77866,-2.928861 8.74903,-2.928861 1.38933,0 3.15416,0.300396 1.80238,0.262846 2.62847,0.675891 l -2.10278,5.745073 q -2.21542,-0.525693 -4.16799,-0.525693 -1.91502,0 -2.74111,0.375495 -0.82609,0.375495 -1.01384,1.50198 l -1.72728,9.837969 q 1.35178,0.300396 2.77867,0.300396 3.04151,0 5.55732,-0.901188 z"
         style="font-weight:bold;font-family:'Changa One';-inkscape-font-specification:'Changa One Bold'"
         id="path11831" />
      <path
         d="m 154.84049,60.703797 h -5.18183 l -3.04151,17.460517 h -7.13441 l 3.04151,-17.460517 h -5.14428 l 1.08893,-6.00792 h 17.46052 z"
         style="font-weight:bold;font-family:'Changa One';-inkscape-font-specification:'Changa One Bold'"
         id="path11833" />
      <path
         d="m 154.50255,78.164314 4.13044,-23.468437 h 7.13441 l -4.13045,23.468437 z"
         style="font-weight:bold;font-family:'Changa One';-inkscape-font-specification:'Changa One Bold'"
         id="path11835" />
      <path
         d="m 175.41759,62.543722 -1.72728,9.76287 h 2.96641 q 1.46443,0 2.17787,-0.337945 0.71344,-0.375495 0.93874,-1.652178 l 1.72727,-9.76287 h -3.00396 q -1.42688,0 -2.14032,0.375495 -0.71344,0.337945 -0.93873,1.614628 z m 4.31819,-8.411087 q 4.76878,0 6.79646,1.877475 2.02767,1.839925 2.02767,5.707523 0,3.867599 -1.23913,8.110692 -1.20159,4.205544 -3.8676,6.571163 -2.62847,2.328069 -7.7352,2.328069 -5.06918,0 -7.09685,-1.839926 -2.02768,-1.877475 -2.02768,-5.745073 0,-1.839926 0.5257,-4.843886 0.52569,-3.041509 1.38933,-5.21938 0.86364,-2.21542 2.32807,-3.830049 2.81621,-3.116608 8.89923,-3.116608 z"
         style="font-weight:bold;font-family:'Changa One';-inkscape-font-specification:'Changa One Bold'"
         id="path11837" />
      <path
         d="m 202.82869,78.164314 -3.83004,-8.335989 q -0.1502,-0.262846 -0.1502,-0.71344 0,-0.488144 0.0751,-1.088936 h -0.3004 l -1.76483,10.138365 h -7.1344 l 4.13044,-23.468437 h 6.72136 l 3.83005,8.335989 q 0.11265,0.262846 0.11265,0.75099 0,0.450594 -0.0751,1.051386 h 0.3004 l 1.80237,-10.138365 h 7.13441 l -4.13045,23.468437 z"
         style="font-weight:bold;font-family:'Changa One';-inkscape-font-specification:'Changa One Bold'"
         id="path11839" />
      <path
         d="m 213.64297,77.75127 2.10277,-6.195668 q 3.15416,0.863639 5.78262,0.863639 2.62847,0 4.2431,-0.225297 l 0.30039,-1.877475 -3.11661,-0.300396 q -3.5672,-0.337946 -5.06918,-1.614629 -1.46443,-1.276683 -1.46443,-3.604752 0,-1.013836 0.2253,-2.25297 0.86364,-4.806335 3.11661,-6.608711 2.29052,-1.802376 7.0593,-1.802376 4.76879,0 8.41109,0.938737 l -1.95257,6.00792 q -3.26681,-0.563243 -5.25693,-0.563243 -1.99013,0 -3.37946,0.187748 l -0.30039,1.839925 2.51581,0.262847 q 3.83005,0.413044 5.44468,1.839925 1.61463,1.389332 1.61463,3.75495 0,2.403168 -1.05139,4.956534 -0.52569,1.314233 -1.16403,2.215421 -0.60079,0.863638 -1.57708,1.50198 -0.93874,0.600792 -1.72728,0.938737 -0.78854,0.300396 -1.99012,0.450594 -1.76483,0.262847 -4.31819,0.262847 -4.65614,0 -8.44864,-0.976287 z"
         style="font-weight:bold;font-family:'Changa One';-inkscape-font-specification:'Changa One Bold'"
         id="path11841" />
    </g>
  </g>
</svg>
