<?xml version="1.0" encoding="UTF-8" standalone="no"?>
<svg
     id="svgwiilogo"
     width="640"
     height="306"
     version="1.1"
     xmlns="http://www.w3.org/2000/svg"
     xmlns:svg="http://www.w3.org/2000/svg">
    <path
         id="wiilogo"
         fill="#8b8b8b"
         d="M 349.40852,16.944218 295.57644,228.75296 c 0,0 -41.37043,-158.981019 -48.34866,-181.90678 -6.47979,-22.426341 -20.43626,-32.393835 -39.87562,-32.393835 -19.93728,0 -33.39531,9.967494 -40.37406,32.393835 -6.47927,22.925761 -47.85022,181.90678 -47.85022,181.90678 L 64.797878,16.944218 H 0 c 0,0 62.305651,225.762712 70.779218,252.176572 6.479267,20.43336 22.430038,36.8792 45.357992,36.8792 26.91552,0 39.37717,-19.43609 44.85955,-36.8792 5.98134,-17.94149 46.3554,-166.95502 46.3554,-166.95502 0,0 40.37354,149.01353 45.85696,166.95502 5.98134,17.44311 18.44195,36.8792 44.86007,36.8792 23.4264,0 38.8782,-16.44584 45.85644,-36.8792 8.47304,-26.41386 70.77921,-252.176572 70.77921,-252.176572 z M 634.51865,304.00649 V 104.15927 H 572.71253 V 304.00649 Z M 566.72909,34.885709 c 0,18.938239 16.44867,34.886232 36.38646,34.886232 C 623.5513,69.771941 640,54.3218 640,34.885709 640,15.449094 623.5513,0 603.11555,0 583.17776,0 566.72909,15.449094 566.72909,34.885709 Z M 509.41049,304.00649 V 104.15927 H 447.60172 V 304.00649 Z M 441.62037,34.885709 c 0,18.938239 15.95023,34.886232 35.88807,34.886232 20.93467,0 37.38337,-15.450141 37.38337,-34.886232 C 514.89181,15.449094 498.44311,0 477.50844,0 457.5706,0 441.62037,15.449094 441.62037,34.885709 Z"/>
</svg>
