<?xml version="1.0" encoding="UTF-8" standalone="no"?>
<svg
     id="neogeoicon"
     version="1.1"
     width="128"
     height="128"
     xmlns="http://www.w3.org/2000/svg"
     xmlns:svg="http://www.w3.org/2000/svg">
     <path
          id="neogeoicon03"
          fill="#231f20"
          d="M 0,64 C 0,28.657254 28.657253,0 64,0 99.342745,0 128,28.657254 128,64 128,99.34275 99.342745,128 64,128 28.657253,128 0,99.34464 0,64" />
     <path
          id="neogeoicon02"
          fill="#2394d8"
          d="m 80.641364,101.97034 1.278749,-2.13125 3.83606,-1.70477 2.992842,3.83606 h 2.5575 l 3.41,-1.27875 2.5575,5.54125 -6.39375,2.99246 h -2.992464 l -1.278977,-2.55731 h -4.262309 l -1.705,-4.69765 z M 102.8234,90.45307 c 0,0 1.55417,-0.69289 1.70523,-0.42648 0.15061,0.25742 2.13125,0.42648 2.13125,0.42648 v 2.13125 l -1.70523,1.27852 -2.13125,-1.27852 z m -8.959765,-2.13163 -1.70547,-2.566024 1.70547,-3.410189 4.27121,-0.426249 1.27898,2.557499 -1.27898,3.419092 -4.27121,0.426023 z m -19.200189,8.09894 -0.426023,15.3628 6.829092,5.54996 12.02366,-2.53078 19.971225,-17.52058 1.27874,-21.765265 H 91.305605 L 74.663862,96.41981 M 44.374128,92.15902 68.687422,58.87553 84.049847,71.254584 c 0,0 -1.918314,-0.488766 -2.13106,-0.426022 -0.213125,0.05304 3.40981,5.114809 3.40981,5.114809 l -4.688559,-1.705227 2.557309,3.40981 -15.788674,-5.54087 -1.27875,1.278522 10.238712,17.068184 -20.903295,-0.8525 11.51803,22.18204 -4.262878,-0.85269 2.007163,5.01763 -3.605316,-3.13512 2.876903,5.37265 L 44.374697,92.15803 M 47.784128,81.493296 40.733197,66.059261 c 0,0 -3.907291,-3.52556 -10.842661,-3.27663 -1.527642,0.05328 -14.146381,0.150845 -14.95455,19.562028 -0.719396,17.360871 10.851753,25.565521 10.851753,25.565521 0,0 5.603575,4.13822 9.750513,6.65139 4.146938,2.5217 11.819626,6.18063 11.819626,6.18063 L 41.39019,82.769962 28.584885,86.6064 l 2.566593,0.426478 -4.271214,3.419092 3.83606,0.42578 -2.55731,2.55769 6.828713,0.42624 2.55731,9.81247 c 0,0 -5.203659,-1.63396 -9.581908,-5.98493 -3.58713,-3.56989 -6.472936,-9.38697 -6.633017,-14.066436 -0.150964,-4.679466 2.042211,-10.585206 8.533712,-10.664962 6.500595,-0.0798 17.920493,8.534091 17.920493,8.534091" />
    <path
         id="neogeoicon01"
         fill="#f0b21a"
         d="m 49.915377,17.067046 28.878904,-8.10822 c 0,0 -5.834509,3.418524 -5.40788,3.418524 0.426023,0 3.83606,0.42625 3.83606,0.42625 l -6.820188,4.262688 7.672687,-0.426023 -20.477044,11.943333 v 0.852973 L 79.789432,28.157594 57.597916,43.946837 v 4.68856 L 74.3107,46.575189 c 0,0 -5.514726,3.134547 -5.186608,2.921612 0.320161,-0.221878 4.049563,-0.150846 4.049563,-0.150846 l -2.344374,1.429586 h 4.049374 L 50.351289,68.26088 49.91604,17.065426 m -37.110868,51.197073 1.27875,-34.126513 4.262878,-5.123713 16.641363,12.379244 4.262688,-25.281355 0.8525,7.36162 2.139774,-3.845343 0.42625,3.419282 2.983939,-3.845342 0.497291,44.8718 -23.959031,-18.417784 c 0,0 -9.386213,22.396116 -9.386213,22.608294 M 88.749585,44.373561 c -1.127915,-0.249119 -2.140344,-1.27875 -2.140344,-1.27875 l 0.426477,-1.278749 1.287502,-0.8525 c 0,0 1.278745,0.106326 1.704775,0.42625 0.42647,0.319687 0.85272,1.704999 0.85272,1.704999 l -0.95906,0.8525 c 0,0 -0.21312,0.639148 -1.17218,0.42625 z m 7.24625,-7.255342 1.71375,-2.557688 h 2.13163 c 0,0 1.811315,2.663967 1.811315,3.090785 0,0.42625 -1.38531,2.459367 -1.38531,2.459367 l -2.779915,-0.106325 -1.49164,-2.886186 z m 0,21.329545 c 1.44758,0.923769 2.98375,0.905772 4.475805,0.888021 2.49537,-0.02676 4.89259,-0.808208 6.61522,-2.806051 1.39454,-2.024403 1.4303,-3.285913 2.247,-5.576485 0.47951,-1.341266 1.06561,-2.104727 1.06561,-2.104727 0,0 0.47953,1.811562 0.42625,3.951431 -0.0355,1.430078 -0.29292,2.939419 -1.17218,4.369535 -1.705,2.779339 -3.31225,3.844774 -4.48415,4.057899 -1.17243,0.212898 -4.47582,0.639375 -6.607625,-0.319441 -1.66901,-0.754936 -2.56603,-2.459936 -2.56603,-2.459936 z m -9.386594,-36.684013 -10.238712,14.927461 7.254963,15.788675 12.796213,16.215682 9.812835,3.40981 12.37906,-14.936175 -1.70501,-12.79659 -12.80492,-17.920493 -17.49424,-4.688559" />
</svg>
