<?xml version="1.0" encoding="UTF-8" standalone="no"?>
<svg xmlns="http://www.w3.org/2000/svg" xmlns:svg="http://www.w3.org/2000/svg" id="svgmameicon" width="128" height="128" version="1.1">
  <path id="mameicon" fill="#2b87d8" d="m 103.68636,103.44611 c 0.0697,-0.13508 0.1062,-0.30073 0.10673,-0.5459 v -1.67055 l -0.059,-1.01427 v -3.102474 l -0.059,-1.014268 v -3.281454 l -0.059,-1.014265 v -3.281443 l -0.059,-1.014272 v -3.281436 l -0.059,-1.014268 v -5.250313 c 0,-0.137902 0.0267,-0.584712 -0.18503,-0.584712 -0.12657,0 -0.42483,0.365628 -0.52192,0.46534 l -1.35484,1.372244 -5.772608,5.84694 -17.259016,17.481171 -5.124734,5.19065 -1.472588,1.49158 c -0.272489,0.27621 -0.531569,0.60676 -0.883558,0.7756 v -1.55121 l -0.05899,-1.13362 v -3.99737 l -0.05903,-0.89495 v -5.787256 l -0.05907,-0.894935 v -5.846944 l -0.06061,-0.894946 V 83.15185 l -0.05899,-0.894949 V 76.46962 l -0.05899,-0.894935 v -0.65629 l 0.05899,-0.77562 v -1.014257 l -0.05899,-0.835291 c -0.352414,0.16881 -0.610854,0.499355 -0.883562,0.77562 l -1.413742,1.431914 -4.947935,5.011653 -20.557676,20.822286 -5.124733,5.19064 -1.11679,1.07931 c -0.433413,0.42536 -0.367435,0.59007 -1.00377,0.59122 h -4.65342 l -0.883562,-0.0597 h -6.30335 l -0.883578,-0.0597 h -6.302782 l -0.883561,-0.0597 H 9.3068729 l -0.883562,-0.0597 H 2.1205243 L 1.5315331,106.8996 H 0.88357515 C 0.61612509,106.898 0.24333067,106.93499 2.4796911e-6,106.8376 L 2.5917967,104.27213 7.3630636,99.439441 13.665845,93.115193 21.676859,85.001059 34.22352,72.352578 l 6.243849,-6.324245 3.180869,-3.221189 0.70682,-0.656832 14.49053,-14.677023 0.824663,-0.775608 4.594558,-4.653694 10.072669,-10.202315 0.706816,-0.65683 5.831558,-5.906009 4.947984,-5.011666 1.472588,-1.491567 c 0.272489,-0.276216 0.531038,-0.606759 0.883614,-0.775613 v 5.309979 l 0.05899,0.894935 v 4.594037 l 0.05899,0.894935 v 4.4747 l 0.05899,0.894935 v 4.534361 l 0.05899,0.894946 v 4.713357 l 0.05899,0.894931 v 5.30998 l 0.05899,0.894942 0.05899,3.758747 1.65931,-1.662799 2.937552,-2.926454 1.17574,-1.138364 0.535326,-0.596578 1.349539,-1.369853 6.067145,-6.087388 0.82466,-0.776806 5.36032,-5.428707 1.11921,-1.073927 4.83019,-4.89234 1.23689,-1.193248 4.8891,-4.952 2.3562,-2.326846 2.23835,-2.267181 c 0.34545,-0.349564 0.8229,-0.908669 1.23695,-1.133593 l -0.0606,1.193254 v 38.184119 14.080392 7.099846 l 0.0606,0.89495 V 80.04916 L 128,78.438268"/>
</svg>
