<?xml version="1.0" encoding="UTF-8" standalone="no"?>
<!-- Created with Inkscape (http://www.inkscape.org/) -->

<svg
   width="120.06575mm"
   height="16.636999mm"
   viewBox="0 0 120.06575 16.636999"
   version="1.1"
   id="svg5"
   xmlns="http://www.w3.org/2000/svg"
   xmlns:svg="http://www.w3.org/2000/svg">
  <defs
     id="defs2" />
  <g
     id="layer1"
     transform="translate(-27.44685,-51.165318)">
    <g
       aria-label="FAVORITES"
       id="text236"
       style="font-size:25.4px;line-height:1.25;fill:#ffffff;stroke-width:0.264583">
      <path
         d="m 37.40365,61.528518 h -4.1148 l -1.016,5.8928 h -4.826 l 2.794,-15.875 h 9.906 l -1.3462,4.064 h -4.4704 l -0.3556,2.1336 h 4.1148 z"
         style="font-style:italic;font-family:'Changa One';-inkscape-font-specification:'Changa One Italic'"
         id="path4552" />
      <path
         d="m 42.229616,67.421318 h -5.08 l 6.6802,-15.875 h 7.4676 l 1.1176,15.875 h -5.1054 l -0.1016,-2.5146 h -3.9878 z m 4.3434,-10.9982 -1.778,4.445 h 2.032 v -4.445 z"
         style="font-style:italic;font-family:'Changa One';-inkscape-font-specification:'Changa One Italic'"
         id="path4554" />
      <path
         d="m 64.327586,51.546318 h 5.1054 l -6.5278,15.875 h -7.0612 l -0.9398,-15.875 h 5.3594 v 10.0838 h 0.2286 z"
         style="font-style:italic;font-family:'Changa One';-inkscape-font-specification:'Changa One Italic'"
         id="path4556" />
      <path
         d="m 74.690804,56.854918 -1.1684,6.604 h 2.0066 q 0.9906,0 1.4732,-0.2286 0.4826,-0.254 0.635,-1.1176 l 1.1684,-6.604 h -2.032 q -0.9652,0 -1.4478,0.254 -0.4826,0.2286 -0.635,1.0922 z m 2.921,-5.6896 q 3.2258,0 4.5974,1.27 1.3716,1.2446 1.3716,3.8608 0,2.6162 -0.8382,5.4864 -0.8128,2.8448 -2.6162,4.445 -1.778,1.5748 -5.2324,1.5748 -3.429,0 -4.8006,-1.2446 -1.3716,-1.27 -1.3716,-3.8862 0,-1.2446 0.3556,-3.2766 0.3556,-2.0574 0.9398,-3.5306 0.5842,-1.4986 1.5748,-2.5908 1.905,-2.1082 6.0198,-2.1082 z"
         style="font-style:italic;font-family:'Changa One';-inkscape-font-specification:'Changa One Italic'"
         id="path4558" />
      <path
         d="m 97.525384,67.421318 h -5.3086 l -1.1684,-4.7244 h -1.0414 l -0.8128,4.7244 h -4.826 l 2.794,-15.875 h 7.62 q 4.3434,0 4.3434,3.8862 0,1.6002 -0.4826,3.048 -0.889,2.7432 -2.794,3.6576 z m -6.2738,-11.811 -0.5588,3.175 h 1.1176 q 0.8636,0 1.2954,-0.1778 0.4572,-0.2032 0.6096,-1.0922 0.1778,-0.9144 0.1778,-1.1176 0,-0.508 -0.4064,-0.635 -0.381,-0.1524 -1.27,-0.1524 z"
         style="font-style:italic;font-family:'Changa One';-inkscape-font-specification:'Changa One Italic'"
         id="path4560" />
      <path
         d="m 99.379606,67.421318 2.794004,-15.875 h 4.826 l -2.794,15.875 z"
         style="font-style:italic;font-family:'Changa One';-inkscape-font-specification:'Changa One Italic'"
         id="path4562" />
      <path
         d="m 119.92819,55.610318 h -3.5052 l -2.0574,11.811 h -4.826 l 2.0574,-11.811 h -3.4798 l 0.7366,-4.064 h 11.811 z"
         style="font-style:italic;font-family:'Changa One';-inkscape-font-specification:'Changa One Italic'"
         id="path4564" />
      <path
         d="m 130.59618,61.426918 h -4.826 l -0.3302,1.9304 h 5.9182 l -0.7112,4.064 h -10.7442 l 2.794,-15.875 h 10.6172 l -1.3208,4.064 h -5.207 l -0.3556,2.1336 h 4.826 z"
         style="font-style:italic;font-family:'Changa One';-inkscape-font-specification:'Changa One Italic'"
         id="path4566" />
      <path
         d="m 132.9076,67.141918 1.4224,-4.191 q 2.1336,0.5842 3.9116,0.5842 1.778,0 2.8702,-0.1524 l 0.2032,-1.27 -2.1082,-0.2032 q -2.413,-0.2286 -3.429,-1.0922 -0.9906,-0.8636 -0.9906,-2.4384 0,-0.6858 0.1524,-1.524 0.5842,-3.2512 2.1082,-4.4704 1.5494,-1.2192 4.7752,-1.2192 3.2258,0 5.6896,0.635 l -1.3208,4.064 q -2.2098,-0.381 -3.556,-0.381 -1.3462,0 -2.286,0.127 l -0.2032,1.2446 1.7018,0.1778 q 2.5908,0.2794 3.683,1.2446 1.0922,0.9398 1.0922,2.54 0,1.6256 -0.7112,3.3528 -0.3556,0.889 -0.7874,1.4986 -0.4064,0.5842 -1.0668,1.016 -0.635,0.4064 -1.1684,0.635 -0.5334,0.2032 -1.3462,0.3048 -1.1938,0.1778 -2.921,0.1778 -3.1496,0 -5.715,-0.6604 z"
         style="font-style:italic;font-family:'Changa One';-inkscape-font-specification:'Changa One Italic'"
         id="path4568" />
    </g>
  </g>
</svg>
