<?xml version="1.0" encoding="UTF-8" standalone="no"?>
<svg xmlns="http://www.w3.org/2000/svg" xmlns:svg="http://www.w3.org/2000/svg" version="1.1" id="svgscdicon" width="128" height="128">
  <g id="scdicon">
    <path id="scdicon01" fill="#b0ac83" d="M 0,64 V 44 H 65.226054 128 V 64 84 H 65.226054 0 Z"/>
    <path id="scdicon00" fill="#030302" d="M 30.079325,80.420565 C 22.499713,80.267107 16.274533,79.094775 12.384799,77.088317 9.9455503,75.830067 8.5249342,74.324814 8.1547381,72.606233 8.0444762,72.09436 8.0614273,71.286751 8.1934763,70.760594 c 0.3517476,-1.401558 1.2150881,-2.714917 2.6732597,-4.066697 6.546713,-6.069056 22.93783,-11.385629 45.304866,-14.694948 2.622422,-0.388 2.740189,-0.372267 0.635365,0.08488 -5.816173,1.263228 -10.617673,2.700266 -14.803693,4.430587 -4.647495,1.921075 -8.050716,4.002896 -10.287755,6.293234 -1.47436,1.509488 -2.342505,3.006379 -2.587208,4.460973 -0.08323,0.494747 -0.08427,1.366886 -0.0022,1.811743 0.720473,3.903386 5.92189,6.850947 14.084029,7.981195 4.681891,0.648323 10.419667,0.672164 16.37121,0.06802 0.465934,-0.0473 0.932926,-0.0844 1.037761,-0.08245 0.181329,0.0034 0.18442,0.0055 0.06354,0.04365 -0.19404,0.06124 -2.303902,0.492547 -3.727468,0.761987 -9.938154,1.881008 -18.831081,2.730657 -26.875893,2.567782 z m 38.024589,-4.683678 c -0.02472,-0.04642 0.140204,-16.99192 0.167173,-17.177637 0.01771,-0.121901 0.02999,-0.137851 0.06137,-0.07972 0.02158,0.03997 0.878064,3.269909 1.903296,7.177638 1.025227,3.90773 1.883481,7.152074 1.907222,7.209654 0.04184,0.101469 0.05321,0.103758 0.369757,0.07441 0.179621,-0.01665 0.755456,-0.08923 1.279631,-0.16127 9.721492,-1.336135 18.475645,-4.407537 23.614359,-8.285113 1.338351,-1.009893 2.564052,-2.259805 3.244058,-3.308129 2.00405,-3.089535 0.98762,-5.887965 -2.878496,-7.925074 -3.456168,-1.821098 -9.189758,-2.992264 -16.630878,-3.397088 -2.928998,-0.159348 -6.967257,-0.214646 -10.017571,-0.137177 -4.436149,0.112666 -4.37822,0.116255 -2.352752,-0.145796 7.056283,-0.912928 13.852842,-1.540152 19.994689,-1.845219 2.98849,-0.148439 4.209392,-0.175797 7.878513,-0.176541 3.732385,-7.57e-4 4.814095,0.02585 7.200785,0.177145 8.7851,0.556882 14.8194,2.177543 17.28921,4.643442 1.53655,1.534132 1.63879,3.155055 0.3147,4.989483 -1.75786,2.435388 -6.02995,5.17433 -12.25045,7.854058 -10.066703,4.336631 -24.539398,8.115351 -39.712579,10.368673 -1.258109,0.186838 -1.354036,0.196852 -1.382035,0.144258 z"/>
  </g>
</svg>
