<?xml version="1.0" encoding="UTF-8" standalone="no"?>
<svg xmlns="http://www.w3.org/2000/svg" xmlns:svg="http://www.w3.org/2000/svg" version="1.1" id="svg_scd_icon" width="128" height="128" viewBox="0 0 128 128">
  <g id="scd_icon">
    <path id="scd_icon01" style="fill:#b0ac83;stroke:none" d="M -2.5e-6,64 V 44.000001 H 64.000004 128 V 64 83.999999 H 64.000004 -2.5e-6 Z"/>
    <path id="scd_icon00" style="fill:#030302;stroke:none" d="M 28.166812,80.420565 C 20.439161,80.267107 14.092395,79.094775 10.12669,77.088317 7.6397993,75.830067 6.1914368,74.324814 5.8140103,72.606233 5.7015949,72.09436 5.7188771,71.286751 5.8535051,70.760594 6.2121228,69.359036 7.0923254,68.045677 8.5789765,66.693897 15.253555,60.624841 31.964811,55.308268 54.768704,51.998949 c 2.673641,-0.388 2.793708,-0.372267 0.647774,0.08488 -5.92977,1.263228 -10.825049,2.700266 -15.092828,4.430587 -4.738266,1.921075 -8.207956,4.002896 -10.488687,6.293234 -1.503156,1.509488 -2.388257,3.006379 -2.63774,4.460973 -0.08486,0.494747 -0.08592,1.366886 -0.0022,1.811743 0.734545,3.903386 6.037552,6.850947 14.359108,7.981195 4.773334,0.648323 10.623176,0.672164 16.69096,0.06802 0.475034,-0.0473 0.951147,-0.0844 1.05803,-0.08245 0.18487,0.0034 0.188022,0.0055 0.06478,0.04365 -0.19783,0.06124 -2.3489,0.492547 -3.80027,0.761987 -10.132259,1.881008 -19.198876,2.730657 -27.400813,2.567782 z m 38.767257,-4.683678 c -0.0252,-0.04642 0.142942,-16.99192 0.170438,-17.177637 0.01805,-0.121901 0.03057,-0.137851 0.06257,-0.07972 0.022,0.03997 0.895214,3.269909 1.94047,7.177638 1.045251,3.90773 1.920268,7.152074 1.944473,7.209654 0.04266,0.101469 0.05425,0.103758 0.376978,0.07441 0.18313,-0.01665 0.770211,-0.08923 1.304624,-0.16127 9.911365,-1.336135 18.836498,-4.407537 24.075577,-8.285113 1.364491,-1.009893 2.614132,-2.259805 3.307421,-3.308129 2.04319,-3.089535 1.00691,-5.887965 -2.934719,-7.925074 -3.523671,-1.821098 -9.369246,-2.992264 -16.9557,-3.397088 -2.986205,-0.159348 -7.103336,-0.214646 -10.213227,-0.137177 -4.522792,0.112666 -4.463732,0.116255 -2.398704,-0.145796 7.194101,-0.912928 14.123406,-1.540152 20.385211,-1.845219 3.046858,-0.148439 4.291606,-0.175797 8.03239,-0.176541 3.805275,-7.57e-4 4.908119,0.02585 7.341419,0.177145 8.95669,0.556882 15.10885,2.177543 17.62689,4.643442 1.56656,1.534132 1.6708,3.155055 0.32085,4.989483 -1.79219,2.435388 -6.14772,5.17433 -12.48972,7.854058 -10.263312,4.336631 -25.018677,8.115351 -40.488209,10.368673 -1.282682,0.186838 -1.380483,0.196852 -1.409028,0.144258 z"/>
  </g>
</svg>
