<?xml version="1.0" encoding="UTF-8" standalone="no"?>
<svg xmlns="http://www.w3.org/2000/svg" xmlns:svg="http://www.w3.org/2000/svg" id="svggglogo" width="640" height="106" version="1.1">
  <path id="gglogo" fill="#000000" d="M 33.604531,105.79795 C 28.937964,105.36038 24.31361,104.0604 20.252575,102.04452 17.05027,100.45492 14.570545,98.692962 12.062154,96.224821 5.3222417,89.59305 1.525035,80.648234 0.24100704,68.378593 -0.08146229,65.29714 -0.08006258,56.067061 0.24321716,52.854564 1.3573763,41.788015 3.9488815,32.887752 8.4521955,24.661683 14.526792,13.565409 22.498309,6.1196559 32.19329,2.4864573 39.249241,-0.1577643 48.962408,-0.74418244 57.251061,0.97363082 64.216009,2.4171089 70.267298,5.5663039 74.924519,10.171204 c 5.612811,5.549748 8.691119,13.735675 9.100423,24.200063 l 0.123326,3.153312 H 73.690337 63.232247 v -1.217901 c 0,-0.669846 -0.08961,-1.929499 -0.199181,-2.799232 -0.879527,-6.98307 -3.914488,-10.568314 -10.329677,-12.202569 -1.192331,-0.303745 -2.152728,-0.371595 -5.259606,-0.371595 -4.423042,0 -6.01617,0.30514 -9.087645,1.740608 -2.525182,1.18016 -4.00739,2.229675 -6.036696,4.274446 -5.567451,5.609861 -9.78846,15.75242 -11.111327,26.699108 -0.392029,3.244007 -0.444954,10.029809 -0.09901,12.693617 0.310534,2.391107 1.137903,5.695155 1.947466,7.777089 1.603882,4.124679 4.673779,7.798346 7.819093,9.356917 2.090975,1.036131 4.212316,1.571365 6.822165,1.721314 5.034095,0.289248 10.004983,-1.00193 13.548234,-3.519073 2.667875,-1.895267 5.669058,-5.698931 7.493621,-9.497303 0.859828,-1.789989 2.153526,-5.132082 2.153526,-5.563326 0,-0.106356 -3.928022,-0.178582 -9.712476,-0.178582 h -9.712483 l 1.572166,-9.411445 1.572159,-9.411436 h 18.958328 c 13.426992,0 18.958339,0.06104 18.958339,0.209234 0,0.115087 -0.744314,4.421077 -1.654031,9.568877 -2.07775,11.757359 -3.016876,15.174355 -5.966919,21.710482 -4.058366,8.99172 -10.071323,16.058787 -17.181972,20.194074 -2.972013,1.728407 -10.068039,5.108187 -11.845233,5.641787 -3.370538,1.01199 -7.533529,1.30304 -12.276561,0.85828 z m 35.865131,-2.40118 c 0,-0.0577 8.763452,-21.779216 19.474347,-48.270018 C 99.6549,28.635955 108.83009,5.9356133 109.33333,4.6815625 l 0.91499,-2.2800916 h 10.89519 c 5.99236,0 10.90349,0.021827 10.91364,0.048516 0.0102,0.02668 2.62065,22.7524021 5.80111,50.5016021 l 5.78267,50.453091 -9.53521,0.0504 c -5.24436,0.028 -9.57764,0.008 -9.6295,-0.0435 -0.0519,-0.0516 -0.47373,-4.440423 -0.93748,-9.752875 -0.46376,-5.312451 -0.84611,-9.681454 -0.84967,-9.708889 -0.004,-0.02759 -5.89946,-0.02759 -13.102,0 l -13.095495,0.04989 -3.607064,9.751034 -3.607057,9.75103 H 79.37356 c -5.44715,0 -9.903898,-0.0472 -9.903898,-0.10496 z M 121.12323,66.050476 c 0,-0.319899 -0.74557,-9.278386 -1.65681,-19.907708 -0.91125,-10.629326 -1.66397,-19.427299 -1.67272,-19.551056 -0.009,-0.123765 -0.14264,0.06381 -0.29755,0.416897 -0.44973,1.025011 -14.5004,39.245829 -14.5004,39.444194 0,0.107149 3.64719,0.179338 9.06374,0.179338 h 9.06374 z m 25.19825,36.917594 c 0.0563,-0.29352 3.86068,-22.9974 8.45415,-50.453093 l 8.35174,-49.919456 h 13.01133 c 7.15622,0 13.00666,0.065494 13.00098,0.1455383 -0.0467,0.6580049 5.77894,70.8342637 5.87136,70.7265627 0.0664,-0.0774 6.64717,-16.097804 14.62387,-35.600875 l 14.5031,-35.46012 6.7247,0.024333 c 3.6986,0.013391 9.57669,0.077717 13.06244,0.142961 l 6.33771,0.1186231 -8.48183,50.4038339 -8.48183,50.403832 -9.11247,7.3e-4 c -5.01185,4.1e-4 -9.11247,-0.0543 -9.11247,-0.1217 0,-0.0673 3.20754,-17.540456 7.12786,-38.829157 3.92033,-21.28871 7.0984,-38.736073 7.06239,-38.771915 -0.0359,-0.03587 -7.16872,17.435806 -15.85049,38.825898 l -15.78502,38.891074 -7.55312,0.003 -7.55311,0.003 v -0.45011 c 0,-0.51512 -6.54879,-74.784961 -6.73324,-76.361658 -0.0666,-0.569301 -0.14782,-1.005912 -0.18051,-0.970246 -0.0329,0.03564 -2.50096,17.55121 -5.48505,38.923436 l -5.42561,38.858578 h -9.23964 -9.23963 z m 93.70257,0.38809 c 1.1e-4,-0.12348 16.34842,-98.519305 16.66868,-100.3240253 l 0.11191,-0.6306638 h 26.20794 26.20779 v 0.435218 c 0,0.4134362 -2.82965,19.1672681 -3.0306,20.0856041 l -0.0956,0.436619 h -16.5644 c -9.11043,0 -16.56446,0.06674 -16.56446,0.148313 0,0.189297 -3.07494,17.071897 -3.21577,17.6558 l -0.10529,0.436619 h 14.91509 14.91503 v 0.407988 c 0,0.224391 -0.65785,4.552328 -1.46189,9.617633 -0.80405,5.065297 -1.4619,9.291497 -1.4619,9.391545 0,0.111647 -5.80038,0.181908 -15.00877,0.181908 -8.25487,0 -15.00886,0.05541 -15.00886,0.123137 0,0.06769 -0.83328,4.764594 -1.85174,10.437492 -1.01846,5.67289 -1.85174,10.463888 -1.85174,10.646654 0,0.311131 1.06823,0.332296 16.76314,0.332296 15.83284,0 16.76335,0.0189 16.76837,0.339591 0.003,0.186784 -0.71552,4.858538 -1.59656,10.381694 l -1.60183,10.042108 h -26.56934 c -14.61317,0 -26.56927,-0.0655 -26.56919,-0.14555 z m 143.62244,1.86203 c -8.58578,-1.76817 -15.21908,-5.874741 -20.49531,-12.688319 -3.16204,-4.083368 -5.85312,-10.080987 -7.18042,-16.003043 -2.22958,-9.947815 -2.1556,-22.372692 0.19934,-33.479799 3.43833,-16.21689 12.58308,-30.502105 23.89877,-37.3327955 7.97155,-4.81200832 18.12166,-6.67796188 28.51638,-5.24232557 11.86663,1.63892747 21.33007,7.81119697 25.90387,16.89503807 2.35529,4.677812 3.72128,10.534314 3.96431,16.996334 l 0.12208,3.250343 h -10.45788 -10.45792 l -0.004,-1.115786 c -0.002,-0.613689 -0.12813,-2.032678 -0.27969,-3.153319 -0.74445,-5.494817 -2.81325,-8.79215 -6.76808,-10.787284 -2.64839,-1.336069 -7.17891,-2.017664 -10.9649,-1.649627 -7.27608,0.707309 -12.85353,4.48308 -17.14156,11.60437 -3.11973,5.181031 -5.72733,12.806556 -6.6423,19.424498 -2.27153,16.429993 1.78867,28.643942 10.68459,32.141427 2.17912,0.856743 3.84691,1.133556 6.8485,1.136693 9.21725,0.0098 15.17299,-3.862655 19.63911,-12.768931 0.84,-1.675155 2.2893,-5.293788 2.2893,-5.716018 0,-0.137991 -3.11078,-0.202508 -9.75912,-0.202508 -9.20058,0 -9.75364,-0.01965 -9.66414,-0.33959 0.0521,-0.186784 0.77866,-4.421927 1.61435,-9.411452 l 1.51937,-9.071853 h 18.9628 c 11.95604,0 18.96276,0.06864 18.96276,0.185877 0,0.712131 -3.4207,19.300462 -3.82243,20.771556 -3.11939,11.421907 -8.99259,21.384445 -16.07082,27.260507 -2.53152,2.101591 -4.58403,3.378656 -9.06213,5.638417 -8.06158,4.06813 -8.45484,4.16891 -16.20087,4.15199 -5.40533,-0.0117 -5.97994,-0.0467 -8.15415,-0.4944 z m 49.68503,-2.16109 c 0.14778,-0.72252 16.68496,-100.2682681 16.68496,-100.4348202 0,-0.072477 11.83582,-0.131771 26.30181,-0.131771 h 26.30185 l -0.10243,0.6306631 c -0.0563,0.3468651 -0.77926,5.0404579 -1.60649,10.4302061 l -1.50402,9.799547 -16.56427,0.04958 -16.56428,0.04958 -1.66269,9.119285 -1.66273,9.119282 h 14.87528 14.87532 l -2.7e-4,0.436611 c -1.1e-4,0.240152 -0.65798,4.609294 -1.46188,9.709241 -0.80391,5.099936 -1.46162,9.31326 -1.46162,9.362927 0,0.04966 -6.75398,0.09029 -15.00881,0.09029 -11.8749,0 -15.0096,0.05068 -15.01281,0.242571 -0.002,0.133379 -0.86287,4.979815 -1.91256,10.769791 l -1.90858,10.527233 h 16.9251 16.92507 l -0.099,0.436611 c -0.11036,0.486123 -3.22212,19.992953 -3.22212,20.197463 0,0.0711 -11.97986,0.12934 -26.62194,0.12934 h -26.62196 z m 60.7391,-13.874598 C 497.27226,81.257973 506.459,58.53225 514.48559,38.680899 l 14.59374,-36.0933656 10.95262,-0.050129 c 6.02396,-0.027568 10.95261,-0.012283 10.95261,0.033974 0,0.046257 2.58758,22.7241136 5.75014,50.3952296 3.16256,27.671118 5.7501,50.382372 5.7501,50.469452 0,0.0871 -4.31989,0.13569 -9.59978,0.10798 l -9.59973,-0.0503 -0.81419,-9.314415 c -0.44776,-5.122927 -0.82053,-9.510894 -0.8284,-9.751027 l -0.0151,-0.436615 h -13.12706 -13.12709 l -3.58723,9.796072 -3.58726,9.796075 -9.9752,0.004 -9.97523,0.004 z M 540.0609,66.187544 c -0.0265,-1.690878 -3.43922,-39.694785 -3.54921,-39.51823 -0.24642,0.39568 -14.57008,39.499964 -14.57008,39.777347 0,0.232706 1.37998,0.274507 9.06376,0.274507 h 9.06373 z m 24.65,36.869556 c 0.16101,-0.76069 16.68106,-100.1857058 16.68106,-100.3940384 0,-0.2399396 35.27815,-0.2163236 37.61938,0.025187 9.72737,1.0034056 16.15866,5.5355732 18.99481,13.3857874 2.57572,7.129319 2.66476,17.268517 0.21582,24.5549 -2.45881,7.31536 -8.71783,14.777527 -16.22605,19.34523 -0.89098,0.542034 -1.61998,1.058654 -1.61998,1.148043 0,0.163087 16.32919,42.046571 16.5001,42.321871 0.0499,0.0807 -4.93573,0.14555 -11.07957,0.14415 l -11.17063,-0.002 -7.50565,-19.256967 -7.50565,-19.25696 -4.43656,-0.05216 -4.4366,-0.05216 -0.1629,0.440266 c -0.0896,0.242155 -1.59583,8.932393 -3.34696,19.311661 l -3.18391,18.8714 h -9.72465 -9.72469 z m 42.92089,-56.425193 c 5.51391,-0.943272 9.6785,-3.640566 11.39475,-7.380084 1.02104,-2.224781 1.24021,-3.408189 1.23775,-6.683512 -0.004,-6.290664 -1.55032,-8.67082 -6.51575,-10.033886 -1.11379,-0.305757 -2.1504,-0.347804 -8.57424,-0.347804 h -7.3073 l -2.0835,11.643022 c -1.14592,6.40366 -2.14137,11.970477 -2.21216,12.370703 l -0.1285,0.727691 h 6.229 c 4.69803,0 6.6545,-0.07276 7.9601,-0.296126 z"/>
</svg>
