<?xml version="1.0" encoding="UTF-8" standalone="no"?>
<svg xmlns="http://www.w3.org/2000/svg" xmlns:svg="http://www.w3.org/2000/svg" width="128" height="128" version="1.1" viewBox="0 0 128 128" xml:space="preserve" id="svgatari2600icon">
     <path id="atari2600icon" fill="#e4202f" d="m 89.572974,112.7947 c 0,-9.53738 7.367208,-15.695797 15.692976,-15.695797 9.06522,0 15.73405,7.003157 15.73405,15.450557 C 121,120.99684 114.37224,128 105.22486,128 96.050088,128 89.572974,120.79247 89.572974,112.83557 Z m 6.025222,-0.24524 c 0,5.43629 3.916397,10.17772 9.749914,10.17772 6.0663,0 9.62667,-5.23192 9.62667,-10.13686 0,-4.98668 -3.56037,-10.2186 -9.66776,-10.2186 -5.984141,0 -9.708824,4.90493 -9.708824,10.13685 z M 55.16072,112.7947 c 0,-9.53738 7.367207,-15.695797 15.692974,-15.695797 9.065225,0 15.734055,7.003157 15.734055,15.450557 0,8.44738 -6.641443,15.45054 -15.775135,15.45054 -9.174775,0 -15.651894,-7.20753 -15.651894,-15.16443 z m 6.025226,-0.24524 c 0,5.43629 3.916394,10.17772 9.74991,10.17772 6.066306,0 9.626666,-5.23192 9.626666,-10.13686 0,-4.98668 -3.56036,-10.2186 -9.667748,-10.2186 -5.984147,0 -9.708828,4.90493 -9.708828,10.13685 z m -13.39243,-14.891936 -5.614414,7.847896 c -0.410813,0.5995 -0.849015,1.17173 -1.300902,1.81211 0.328645,-0.16351 1.451532,-0.436 2.382702,-0.436 4.573696,0 9.503426,3.50157 9.503426,10.05511 0,6.43092 -5.011899,11.06336 -11.160361,11.06336 -3.683607,0 -6.915316,-1.40336 -8.81874,-3.86945 -1.821264,-2.05735 -2.505948,-4.94581 -2.505948,-7.20754 0,-3.1337 1.3009,-5.66792 2.711351,-7.84789 l 7.84649,-11.431224 h 6.956396 z m -11.55748,19.796856 c 0,3.1746 2.423787,5.2728 5.176219,5.2728 2.998916,0 5.340536,-2.28896 5.340536,-5.2728 0,-2.98383 -2.259459,-5.31367 -5.299456,-5.31367 -2.67027,0 -5.217299,2.01648 -5.217299,5.2728 z m -29.1264855,5.2728 c 2.9167545,-2.61596 5.8198185,-5.19104 8.7365785,-7.807 2.998916,-2.61598 5.381618,-4.67333 5.422703,-8.09315 0,-2.94296 -1.862344,-4.46894 -4.327211,-4.46894 -2.916755,0 -4.121802,2.61596 -4.162884,5.66792 H 7 c 0.08216,-2.28897 0.438201,-4.75506 2.1088278,-6.96228 2.3416262,-3.338079 6.2306292,-3.978447 8.3668462,-3.978447 6.271712,0 9.832077,4.305447 9.832077,9.210377 -0.04107,3.4607 -1.300906,5.91316 -4.820185,9.25125 -2.341621,2.2481 -4.724321,4.50981 -7.120718,6.79878 h 12.091528 v 5.06843 H 7.1095505 Z M 7.4985346,90.381467 c 0,0 14.8503174,-1.661873 26.4236694,-11.16018 11.012927,-9.034872 14.996249,-16.815156 17.750674,-25.634685 2.749743,-8.824213 3.159371,-30.049129 3.159371,-36.345456 V 0 H 47.981505 V 6.3899466 C 47.868507,15.944435 47.039797,34.093752 42.637484,45.918664 31.996402,74.413612 7.4985346,76.908729 7.4985346,76.908729 Z m 113.0020554,0 c 0,0 -14.85036,-1.661873 -26.41426,-11.16018 C 83.059185,70.186415 79.080634,62.406131 76.326209,53.586602 73.581139,44.762389 73.166833,23.537473 73.166833,17.241146 V 0 h 6.841296 l 0.0088,6.3899466 C 80.129923,15.944435 80.967988,34.093752 85.375071,45.918664 96.0067,74.413612 120.49988,76.908729 120.49988,76.908729 Z M 57.685554,0.00935674 h 12.6421 V 90.386137 H 57.690231 Z"/>
</svg>
