<?xml version="1.0" encoding="UTF-8" standalone="no"?>
<svg xmlns="http://www.w3.org/2000/svg" xmlns:svg="http://www.w3.org/2000/svg" width="640" height="200" version="1.1" viewBox="0 0 640 200" xml:space="preserve" id="svgatari2600logo">
     <path id="atari2600logo" fill="#e4202f" d="m 526.82049,0.98465001 h 31.40546 c 0,66.33044199 0.024,132.63687999 -0.024,198.96730999 -10.4525,-0.0241 -20.92898,0 -31.38148,0 z M 402.90081,2.2334491 c 2.85286,-0.98463 5.89751,-1.32084519 8.89421,-1.24879909 11.81901,0.0480308 23.61403,0 35.43303,0.0240154 19.87414,0.3602304 38.86125,12.7281436 47.46778,30.6676236 5.96943,11.647452 6.56878,25.192119 5.05844,37.968295 -1.03087,13.376559 -6.6407,26.753117 -16.90141,35.614786 -5.41804,4.82708 -12.15463,7.78099 -17.98023,12.07974 -3.18848,2.42554 -3.3563,7.15657 -1.70212,10.51873 15.67875,24.23149 31.95685,48.10277 47.97123,72.11814 -11.69913,0.024 -23.39826,-0.024 -35.12136,0.024 -15.31915,-23.05475 -30.47048,-46.22957 -45.74169,-69.30834 -4.48307,-6.58021 -5.70572,-15.27378 -3.02068,-22.76657 2.08571,-5.76369 7.12018,-9.96638 12.70603,-12.127762 10.66827,-4.082613 21.19269,-10.470701 27.0902,-20.557153 4.50704,-7.564842 4.26731,-16.930834 2.22954,-25.216137 -2.37338,-10.758884 -12.84986,-19.236308 -23.9017,-18.876077 -7.64759,0.04803 -15.29518,-0.02401 -22.94277,0.02401 -3.45219,-0.07204 -6.71261,2.929875 -6.66466,6.436118 -0.048,54.130636 0.024,108.261271 -0.024,162.367901 -9.94906,-0.024 -19.89811,0 -29.84717,0 -0.024,-58.26129 0.024,-116.522566 -0.024,-174.783845 0.11987,-10.254561 7.35991,-19.8607086 17.02128,-22.9586909 z M 127.85136,0.98465001 H 240.19178 V 31.340073 c -13.78483,0 -27.56967,-0.02401 -41.35451,0 V 199.92794 h -29.6314 V 31.340073 c -13.78484,-0.02401 -27.56968,0 -41.35451,0 z M 275.28918,10.51875 c 5.39407,-7.8530243 15.82259,-11.6474523 25.0045,-9.2219002 8.41473,1.9452447 14.83967,9.1978852 17.06922,17.3631102 17.52472,60.422663 35.12137,120.82131 52.64609,181.24396 -10.35661,0.072 -20.73719,0 -31.0938,0.0481 -4.8187,-16.69068 -9.58945,-33.38136 -14.4561,-50.07204 -19.994,0 -39.96404,-0.024 -59.95804,0.024 -4.77076,16.69067 -9.70932,33.35733 -14.48008,50.04801 h -30.85406 c 16.66167,-57.99711 33.51514,-115.946188 50.29668,-173.919282 1.75007,-5.211335 2.4453,-10.999038 5.82559,-15.513928 m -2.5412,110.99902 c 14.48006,0.024 28.98411,0 43.46419,0 C 308.9961,96.373717 301.68414,71.277658 294.49206,46.157586 287.27599,71.277658 279.96404,96.373717 272.74798,121.5178 Z M 57.201071,9.2219208 c 7.719515,-9.89433108 23.709926,-11.5994221 33.179504,-3.2901052 3.883727,3.2660899 6.592753,7.7809784 7.983225,12.6320834 17.54869,60.470693 35.16931,120.893361 52.69403,181.364041 -10.35661,0 -20.71321,-0.024 -31.06982,0 -4.89062,-16.66666 -9.66138,-33.38135 -14.48008,-50.04802 -20.017974,-0.0481 -40.035953,0 -60.053931,-0.024 -4.89062,16.69068 -9.733299,33.38136 -14.551999,50.09605 -10.284679,-0.024 -20.593339,0 -30.9019989561367,-0.024 C 16.661673,142.24297 33.347315,84.558067 50.104877,26.897171 52.094691,20.893329 52.837873,14.14501 57.201071,9.2218607 M 75.468976,46.277571 C 68.133052,71.325599 60.940958,96.421657 53.629004,121.4937 c 14.551998,0.072 29.103986,0.024 43.632004,0.024 C 89.997004,96.421687 82.75696,71.349644 75.468976,46.277601 Z m 537.776454,8.837716 c -16.78154,0 -27.61762,-12.920268 -27.61762,-27.521611 C 585.62781,11.695503 597.95025,1.9985e-5 612.8139,1.9985e-5 627.67756,1.9985e-5 640,11.623457 640,27.665723 640,43.756018 627.31795,55.115287 613.31735,55.115287 Z M 612.8139,44.548525 c 9.56548,0 17.9083,-6.868395 17.9083,-17.098941 0,-10.638808 -9.20587,-16.882802 -17.83638,-16.882802 -8.77435,0 -17.98021,6.243994 -17.98021,16.954848 0,10.494715 8.6305,17.026895 17.83637,17.026895 z m 0.43153,70.917375 c -16.78154,0 -27.61762,-12.92026 -27.61762,-27.521607 0,-15.898173 12.32244,-27.593657 27.18609,-27.593657 14.86366,0 27.1861,11.647453 27.1861,27.665703 0,16.090291 -12.68205,27.449561 -26.68265,27.449561 z m -0.43153,-10.56676 c 9.56548,0 17.9083,-6.868393 17.9083,-17.09894 0,-10.638807 -9.20587,-16.882802 -17.83638,-16.882802 -8.77435,0 -17.98021,6.243995 -17.98021,16.954849 0,10.494715 8.6305,17.026893 17.83637,17.026893 z m -26.20317,23.48703 13.80881,9.8463 c 1.05484,0.72046 2.06173,1.48896 3.18849,2.28146 -0.28768,-0.57637 -0.76716,-2.54563 -0.76716,-4.17868 0,-8.02113 6.16122,-16.66666 17.69254,-16.66666 11.31556,0 19.46659,8.78963 19.46659,19.57252 0,6.46014 -2.46928,12.12776 -6.80851,15.4659 -3.62002,3.19404 -8.70243,4.39482 -12.68206,4.39482 -5.51393,0 -9.97302,-2.28146 -13.8088,-4.75504 l -20.11388,-13.76082 v -12.1998 z m 34.83368,20.26898 c 5.58586,0 9.27779,-4.25073 9.27779,-9.07782 0,-5.25936 -4.02756,-9.36599 -9.27779,-9.36599 -5.25022,0 -9.34971,3.96254 -9.34971,9.29394 0,4.683 3.5481,9.14987 9.27779,9.14987 z m 9.27779,51.08067 c -4.60293,-5.11527 -9.13394,-10.20653 -13.73688,-15.32181 -4.60294,-5.25936 -8.22296,-9.43802 -14.24034,-9.51008 -5.1783,0 -7.86335,3.26609 -7.86335,7.58886 0,5.11527 4.60293,7.22863 9.97302,7.30067 v 10.13448 c -4.02756,-0.14409 -8.36679,-0.76849 -12.25052,-3.69835 -5.87353,-4.10664 -7.00029,-10.92699 -7.00029,-14.67339 0,-10.99904 7.57566,-17.24304 16.20617,-17.24304 6.0893,0.072 10.40455,2.28146 16.27809,8.45341 3.95565,4.10663 7.93528,8.2853 11.96284,12.48799 V 164.049 h 8.91819 v 35.68682 z"/>
</svg>
