<?xml version="1.0" encoding="UTF-8" standalone="no"?>
<svg
     width="128"
     height="128"
     version="1.1"
     id="svgsteamicon"
     xmlns="http://www.w3.org/2000/svg"
     xmlns:svg="http://www.w3.org/2000/svg">
     <path
          id="steamicon"
          fill="#000000"
          d="m 101.15248,47.504662 c 0,-8.867248 -7.226007,-16.082285 -16.109965,-16.082285 -8.882508,0 -16.109962,7.215037 -16.109962,16.082285 0,8.868694 7.227454,16.080837 16.109962,16.080837 8.883958,0 16.109965,-7.21359 16.109965,-16.080837 m -28.18519,-0.02749 c 0,-6.672498 5.418779,-12.080521 12.102761,-12.080521 6.683983,0 12.102762,5.408023 12.102762,12.080521 0,6.672499 -5.418779,12.080521 -12.102762,12.080521 -6.683982,0 -12.102761,-5.409469 -12.102761,-12.080521 M 40.174907,97.110031 32.299634,93.862035 c 1.395637,2.900772 3.810102,5.329897 7.015863,6.663815 6.930356,2.88196 14.920121,-0.40075 17.808494,-7.324988 1.398535,-3.347823 1.40723,-7.044319 0.02029,-10.400823 -1.384043,-3.357951 -3.995607,-5.976603 -7.35354,-7.374182 -3.331847,-1.384558 -6.901372,-1.33392 -10.037568,-0.151911 l 8.134691,3.357951 c 5.111536,2.126751 7.5289,7.986166 5.398489,13.08892 -2.126063,5.104201 -7.999909,7.517411 -13.111446,5.389214 M 63.889132,0 C 30.211252,0 2.6217094,25.923208 0,58.867586 l 34.36193,14.182676 c 2.911561,-1.987861 6.428912,-3.152509 10.212928,-3.152509 0.339126,0 0.676804,0.01447 1.011582,0.03038 L 60.867427,47.817164 c 0,-0.105614 0,-0.208336 0,-0.312502 0,-13.308829 10.844805,-24.136448 24.177987,-24.136448 13.331733,0 24.176536,10.827619 24.176536,24.136448 0,13.308828 -10.844803,24.137894 -24.176536,24.137894 -0.184056,0 -0.366663,0 -0.549269,-0.01447 L 62.702189,87.15192 c 0.01449,0.282121 0.02174,0.570027 0.02174,0.856487 0,9.991388 -8.140487,18.116443 -18.14762,18.116443 -8.783959,0 -16.128803,-6.258721 -17.792552,-14.547263 L 2.2086706,81.441523 C 9.8172801,108.30514 34.540189,128 63.889132,128 99.297426,128 128,99.34529 128,64.002169 128,28.653261 99.295977,0 63.889132,0" />
</svg>
