<?xml version="1.0" encoding="UTF-8" standalone="no"?>
<svg
     width="640"
     height="132"
     version="1.1"
     id="svgsteamlogo"
     xmlns="http://www.w3.org/2000/svg"
     xmlns:svg="http://www.w3.org/2000/svg">
     <path
          id="steamlogo"
          fill="#000000"
          d="M 564.89142,126.09452 530.75565,52.184175 V 129.81321 H 505.32884 V 2.1867873 h 25.36974 L 573.31122,94.315255 614.40959,2.1867873 H 640 V 129.81321 H 614.577 V 51.517798 l -34.69887,74.576722 z m -173.51335,-21.0598 -8.39316,24.78232 H 355.14972 L 402.68945,2.190617 h 26.72801 L 478.30025,129.81321 H 449.5253 L 440.94951,105.0309 H 391.37807 Z M 415.90317,32.6333 398.58798,83.733655 H 433.576 Z m -91.93296,21.167029 v 22.924884 h -50.81558 v 29.952477 h 58.95764 v 23.13552 H 246.60924 V 2.1867873 h 85.50303 V 25.042735 H 273.15463 V 53.800329 Z M 152.19942,129.81321 V 25.111671 H 113.6578 V 2.1867873 H 217.17989 V 25.111671 H 178.75242 V 129.81321 Z M 90.597517,12.500304 79.320386,32.453302 C 70.634256,26.34485 58.862514,22.66829 48.58602,22.66829 c -11.74511,0 -19.012087,4.894421 -19.012087,13.660719 0,10.650535 12.909348,13.128383 32.09645,20.060231 20.625279,7.341631 32.480724,15.970058 32.480724,34.984767 C 94.151107,117.3895 73.8264,132 44.613913,132 30.376725,132 13.202309,128.30046 0,120.21585 L 8.2257614,98.095218 c 10.7254496,5.702492 23.5548976,9.084162 34.9918266,9.084162 15.416644,0 22.744497,-5.72547 22.744497,-14.189219 0,-9.685437 -11.174404,-12.596047 -29.212488,-18.608755 C 16.192803,67.472537 1.9480064,58.407518 1.9480064,37.363041 1.9480064,13.63008 20.830732,0 48.000096,0 66.936088,0 82.154888,6.0395159 90.597517,12.500304" />
</svg>
