<?xml version="1.0" encoding="UTF-8" standalone="no"?>
<svg
   xmlns:dc="http://purl.org/dc/elements/1.1/"
   xmlns:cc="http://creativecommons.org/ns#"
   xmlns:rdf="http://www.w3.org/1999/02/22-rdf-syntax-ns#"
   xmlns:svg="http://www.w3.org/2000/svg"
   xmlns="http://www.w3.org/2000/svg"
   id="svg8"
   version="1.1"
   viewBox="0 0 135.46694 51.018282"
   height="51.01828mm"
   width="135.46693mm">
  <defs
     id="defs2" />
  <metadata
     id="metadata5">
    <rdf:RDF>
      <cc:Work
         rdf:about="">
        <dc:format>image/svg+xml</dc:format>
        <dc:type
           rdf:resource="http://purl.org/dc/dcmitype/StillImage" />
        <dc:title></dc:title>
      </cc:Work>
    </rdf:RDF>
  </metadata>
  <g
     transform="translate(110.06669,-123.32478)"
     id="layer1">
    <path
       style="fill:#414143;fill-opacity:1;stroke:none;stroke-width:0.1028782"
       id="Selection"
       d="m -102.06586,125.09446 c 0,0 2.983473,-0.88886 2.983473,-0.88886 0,0 2.983469,-0.87961 2.983469,-0.87961 0.660477,-0.037 1.264374,0.78187 1.217049,1.39605 0,0 -0.188268,1.95469 -0.188268,1.95469 0,0 0,0.9259 0,0.9259 0,0 -0.102877,1.02879 -0.102877,1.02879 0,0 -0.112139,2.3662 -0.112139,2.3662 0,0 -0.09362,1.02878 -0.09362,1.02878 -0.01233,1.04832 -0.268512,2.96598 0,3.90937 0.335382,-0.87755 0.914588,-1.50305 1.416631,-2.26229 0,0 3.448481,-4.83631 3.448481,-4.83631 0,0 1.372394,-1.85181 1.372394,-1.85181 0.197526,-0.26336 0.467068,-0.66459 0.758213,-0.81788 0.196496,-0.10288 0.351841,-0.0689 0.543197,-0.12139 0,0 0.588461,-0.23971 0.588461,-0.23971 0,0 1.440296,-0.33538 1.440296,-0.33538 0.817883,-0.2644 0.442377,-0.49896 1.234538,-0.49176 0,0 3.909373,-1.05965 3.909373,-1.05965 0.820967,-0.0648 0.848745,0.54011 0.514389,1.11109 0.617269,0.17592 1.167671,0.52468 1.748931,0.79113 0,0 4.115127,1.96086 4.115127,1.96086 0.572005,0.286 1.655312,0.6862 1.620332,1.46396 -0.02162,0.48044 -0.550398,0.6862 -0.900182,0.91356 -0.839486,0.54731 -1.568895,1.24688 -2.259206,1.96908 -1.038042,1.08434 -2.228344,2.86105 -3.133671,4.11513 0,0 -4.033853,5.45255 -4.033853,5.45255 0,0 -1.671771,2.26332 -1.671771,2.26332 -0.207815,0.28188 -0.575089,0.65122 -0.468098,1.02878 0.07099,0.24691 0.879609,1.26849 1.086393,1.54317 1.103884,1.47219 2.390891,2.81578 3.690244,4.11513 4.007106,4.00711 5.849656,5.68814 9.053281,10.49358 0,0 1.229394,1.85181 1.229394,1.85181 0,0 1.229394,1.94851 1.229394,1.94851 0.48147,0.62756 0.865208,0.26543 1.138863,0.74175 0.281887,0.48867 -0.05761,0.8076 -0.511305,0.91047 -0.05761,0.73661 -0.532908,1.17385 -0.96397,1.74894 0,0 -2.314758,3.08634 -2.314758,3.08634 -0.242794,0.32304 -0.985574,1.35491 -1.278776,1.52568 -0.365217,0.21193 -1.006151,0.10494 -1.045244,-0.39608 -0.01956,-0.24279 0.129629,-0.42591 0.253083,-0.61521 0,0 -7.715866,0.63476 -7.715866,0.63476 0,0 -2.3662,0.20987 -2.3662,0.20987 -0.315836,0.0257 -0.710888,0.13683 -1.015409,0 -0.728377,-0.31069 -0.20781,-1.14812 0.08951,-1.56478 0,0 -3.271527,-3.90937 -3.271527,-3.90937 0,0 -4.709762,-5.76118 -4.709762,-5.76118 0,0 -2.820922,-3.39498 -2.820922,-3.39498 0,0 0,8.5389 0,8.5389 0.01851,0.9866 0.575088,0.7438 0.486614,1.43617 -0.04115,0.3251 -0.936193,1.21808 -1.206761,1.44441 0.129625,0.15432 0.314806,0.34053 0.17695,0.55966 -0.14197,0.22633 -0.430032,0.0813 -0.828168,0.49279 -0.415629,0.42797 -1.10697,1.59152 -1.518482,1.8693 -0.550402,0.37138 -0.927965,0.003 -1.019527,-0.55555 0,0 -4.320888,0.4969 -4.320888,0.4969 0,0 -3.49786,0.23251 -3.49786,0.23251 -0.50513,0.0339 -2.07093,0.30452 -2.40735,-0.0617 -0.19752,-0.21501 -0.16357,-0.59978 -0.1646,-0.87343 0,0 0,-4.62952 0,-4.62952 0,0 -0.10288,-1.54318 -0.10288,-1.54318 0,0 0,-14.71158 0,-14.71158 -10e-4,-0.8971 -0.13477,-0.94957 -0.14094,-1.23454 -0.005,-0.21707 0.13991,-0.52056 0.14094,-1.23454 0,0 0,-4.11513 0,-4.11513 0,0 -0.10288,-1.74893 -0.10288,-1.74893 0,0 0,-13.88855 0,-13.88855 -0.002,-0.93105 -0.17489,-0.95883 -0.18209,-1.33742 0,0 0.17798,-1.02878 0.17798,-1.02878 0.0134,-0.24897 -0.0237,-0.69957 0.0658,-0.91459 0.16975,-0.40946 0.70163,-0.51336 0.9938,-0.17284 0.18107,0.21091 0.1749,0.51748 0.17901,0.77879 0,0 0,0.41152 0,0.41152 0,0 2.3662,-0.61727 2.3662,-0.61727 0,0 1.42692,-0.29629 1.42692,-0.29629 0.56789,-0.2644 0.25102,-0.84566 0.84257,-0.99484 0.58846,-0.14814 0.77776,0.29527 0.81686,0.77674 0,0 1.13165,-0.14198 1.13165,-0.14198 z m 36.187414,5.08013 c 0.164604,-0.27777 0.787017,-0.85492 1.045244,-1.13166 0,0 2.12649,-2.3662 2.12649,-2.3662 0.217077,-0.25822 0.843604,-0.97734 0.968084,-1.23454 0.145061,-0.29835 0.07099,-0.55451 0.268515,-0.74689 0.204728,-0.20062 0.596693,-0.17593 0.864177,-0.17901 0.556569,-0.005 0.997916,-0.0813 1.543173,-0.16255 0,0 6.172693,-0.86109 6.172693,-0.86109 0.496898,-0.0535 1.431034,-0.0185 1.74687,0.45061 0.127567,0.19032 0.104937,0.55348 0.104937,0.77878 0,0 0,5.65831 0,5.65831 0,0 -0.10288,1.74892 -0.10288,1.74892 0,0 0,5.24679 0,5.24679 0,0 -0.102877,1.74893 -0.102877,1.74893 0,0 0,5.34967 0,5.34967 0,0 -0.102877,1.54317 -0.102877,1.54317 0,0 0,5.45255 0,5.45255 0,0 -0.102881,1.54317 -0.102881,1.54317 0,0 0,5.14391 0,5.14391 0,0 -0.102877,1.74893 -0.102877,1.74893 0,0 0,5.24679 0,5.24679 0,0 -0.102877,2.57196 -0.102877,2.57196 0.01544,0.88681 0.468094,1.09256 0.187238,1.64399 -0.365217,0.71912 -0.844631,0.286 -1.314786,0.84052 0,0 -1.704689,2.45364 -1.704689,2.45364 0,0 -0.364191,0.67694 -0.364191,0.67694 -0.459867,0.68517 -1.158409,0.96705 -1.947484,0.96911 0,0 -6.789961,0 -6.789961,0 -0.737636,0 -2.02053,0.24279 -2.308588,-0.61933 -0.0679,-0.20369 -0.05761,-0.50101 -0.05761,-0.71809 0,0 0,-14.19719 0,-14.19719 -0.0019,-0.82714 -0.153288,-0.97117 -0.153288,-1.23454 0,-0.26337 0.151231,-0.40739 0.153288,-1.23453 0,0 0,-1.74894 0,-1.74894 0,0 0.102881,-1.54317 0.102881,-1.54317 -0.70163,-0.24691 -0.198556,-0.66871 -0.05761,-1.13166 0.06893,-0.22324 0.05761,-0.48764 0.05761,-0.72015 0,0 0,-2.26332 0,-2.26332 0,0 0.102877,-1.95468 0.102877,-1.95468 -0.0012,-0.73353 -0.07304,-0.57509 -0.153289,-1.13166 -0.05247,-0.3539 0.09979,-0.58024 0.139913,-0.92591 0,0 0.116253,-2.3662 0.116253,-2.3662 0,0 0,-1.54317 0,-1.54317 0,0 0.102881,-1.64605 0.102881,-1.64605 0,0 0.102877,-5.76118 0.102877,-5.76118 0,0 0.102877,-2.3662 0.102877,-2.3662 -0.549368,-0.12037 -0.869322,-0.47221 -0.54011,-1.02878 z m 16.897745,16.35763 c 0,0 0.10185,-2.77771 0.10185,-2.77771 0,0 -0.06276,-0.9259 -0.06276,-0.9259 0.03395,-0.55143 0.165634,-0.54217 0.166665,-1.54317 0.0012,-0.88476 -0.153289,-1.25718 -0.153289,-1.4403 0,-0.11214 0.252052,-1.09257 0.256166,-1.95469 0,0 0.10288,-5.34966 0.10288,-5.34966 0,0 0.102877,-1.54317 0.102877,-1.54317 0.0051,-0.43621 -0.05041,-1.7263 0.07613,-2.05757 0.148145,-0.38991 0.747925,-0.92693 1.055533,-1.23454 0,0 2.160442,-2.16044 2.160442,-2.16044 0.211929,-0.21193 0.606981,-0.58846 0.763353,-0.82303 0.175923,-0.26542 0.202671,-0.62755 0.494846,-0.80553 0.234562,-0.143 0.631672,-0.12037 0.902244,-0.12037 0,0 1.543173,0 1.543173,0 0,0 1.440292,0.10288 1.440292,0.10288 0,0 2.674835,0 2.674835,0 0,0 3.292104,0.20576 3.292104,0.20576 0,0 1.131657,0.0936 1.131657,0.0936 0,0 2.777712,0.19753 2.777712,0.19753 3.191284,0.30966 6.0585,0.4825 9.053285,1.81169 1.044213,0.46295 2.568866,1.53391 3.497857,2.23142 3.712874,2.78389 6.69943,6.70869 7.9802631,11.20036 0.3929954,1.3765 0.5781762,2.80342 0.7705581,4.218 0.1028769,0.75204 0.1975262,0.43723 0.1995831,1.4403 0,0 0,1.74893 0,1.74893 0,0 -0.1028769,1.8518 -0.1028769,1.8518 -0.02263,1.92588 -0.5997796,3.80341 -1.0411301,5.6583 -1.3312443,5.60584 -3.4916873,10.9483 -8.2179083,14.55727 -1.774652,1.35491 -3.879538,2.26024 -5.966939,3.00302 0,0 -2.263319,0.77879 -2.263319,0.77879 -2.926887,0.8117 -6.017347,1.30552 -9.053281,1.31066 0,0 -1.954689,0.10288 -1.954689,0.10288 0,0 -1.337415,-0.10288 -1.337415,-0.10288 0,0 -2.469077,-0.12036 -2.469077,-0.12036 0,0 -3.497858,-0.47119 -3.497858,-0.47119 0,0 -1.440296,-0.26542 -1.440296,-0.26542 -0.627557,-0.0648 -0.809651,0.31892 -1.337415,0.40122 -0.369335,0.0576 -1.671771,-0.60904 -1.912508,-0.89298 -0.881667,-1.04318 -0.454723,-3.24889 -0.453692,-4.51532 -0.238676,-0.0844 -0.450609,-0.17078 -0.302464,-0.47839 0.07099,-0.14712 0.255139,-0.25205 0.344644,-0.46912 0.205758,-0.50102 0.164604,-2.71393 0.163577,-3.37338 -0.0012,-0.29217 0.01956,-0.54834 -0.100823,-0.82303 -0.09465,-0.21707 -0.327151,-0.46603 -0.325094,-0.70677 0.0019,-0.30966 0.305547,-0.30452 0.528794,-0.32201 0,0 0.102877,-5.14391 0.102877,-5.14391 0,0 0.102881,-1.96188 0.102881,-1.96188 0,0 -0.302464,0 -0.302464,0 -0.911501,-0.16358 0.141974,-0.79834 0.240737,-1.03496 0.08642,-0.20576 0.06173,-0.77056 0.06173,-1.01541 -0.592578,-0.20678 -0.45884,-0.59052 0.102877,-0.72015 0,0 0.102877,-5.76118 0.102877,-5.76118 z m -9.464793,-21.01596 c -0.437232,0.0576 -1.714981,0.11111 -1.952631,0.47221 -0.126537,0.19342 -0.104934,0.56378 -0.104934,0.79114 0,0 0,4.83528 0,4.83528 0,0 -0.102877,1.54317 -0.102877,1.54317 0,0 0,4.93815 0,4.93815 0,0 -0.102881,1.74893 -0.102881,1.74893 0,0 0,4.93815 0,4.93815 0,0 -0.102877,1.64606 -0.102877,1.64606 0,0 0,1.95468 0,1.95468 0.0019,1.03598 0.252052,0.87652 0.221187,1.2294 -0.02982,0.33538 -0.21913,0.12654 -0.221187,1.1368 0,0 0,0.92591 0,0.92591 0,0 -0.10082,1.44029 -0.10082,1.44029 0,0 0,2.67483 0,2.67483 0,0 0,0.92179 0,0.92179 0.02162,0.28806 0.158434,0.54217 0.11728,0.83126 -0.110078,0.77879 -0.221187,1.56889 -0.222217,2.36208 0,0 0,4.93816 0,4.93816 0,0 -0.09876,1.23454 -0.09876,1.23454 0,0 0,1.64605 0,1.64605 -0.0041,0.2541 -0.04218,0.64504 0.157406,0.83331 0.233532,0.2181 0.583317,0.11934 0.867261,0.0967 0,0 1.954688,0 1.954688,0 0,0 1.543173,-0.10699 1.543173,-0.10699 0,0 3.703616,-0.10288 3.703616,-0.10288 0,0 0,-1.44029 0,-1.44029 0,0 0.102877,-1.54317 0.102877,-1.54317 0,0 0,-5.2468 0,-5.2468 0,0 0.102876,-1.74892 0.102876,-1.74892 0,0 0,-5.14391 0,-5.14391 0,0 0.102881,-1.74894 0.102881,-1.74894 0,0 0,-5.1439 0,-5.1439 0,0 0.102877,-1.74893 0.102877,-1.74893 0,0 0,-5.24679 0,-5.24679 0,0 0.102877,-1.74893 0.102877,-1.74893 0,0 0,-5.34967 0,-5.34967 0,0 0.102881,-1.54317 0.102881,-1.54317 0,0 0,-6.17269 0,-6.17269 0,0 -6.172693,0.89709 -6.172693,0.89709 z m -44.854896,1.26335 c 0,0 -0.10288,1.95468 -0.10288,1.95468 0,0 -0.20576,5.24679 -0.20576,5.24679 0,0 -0.10288,1.74893 -0.10288,1.74893 0,0 -0.10287,2.3662 -0.10287,2.3662 0,0 -0.10288,3.08635 -0.10288,3.08635 0,0 -0.10288,1.44029 -0.10288,1.44029 0,0 -0.10288,3.18923 -0.10288,3.18923 0,0 -0.10288,1.54317 -0.10288,1.54317 0,0 -0.10288,2.3662 -0.10288,2.3662 0,0 -0.10287,2.26332 -0.10287,2.26332 0,0 -0.10288,3.18922 -0.10288,3.18922 0,0 -0.10288,1.54318 -0.10288,1.54318 0,0 -0.10288,2.26332 -0.10288,2.26332 0,0 -0.20575,5.34967 -0.20575,5.34967 0,0 -0.10082,1.23453 -0.10082,1.23453 0,0 0,1.85181 0,1.85181 0,0 8.43395,0 8.43395,0 0,0 0,-8.43601 0,-8.43601 0,0 0,-1.33742 0,-1.33742 -0.01338,-0.76438 -0.224274,-0.7901 -0.238676,-1.13166 -0.0051,-0.12757 0.233532,-0.88887 0.296289,-1.02261 0.206784,-0.44237 0.514389,-0.35184 0.868291,-0.58126 0.240737,-0.1574 0.70163,-0.64196 0.925904,-0.86521 0,0 2.057565,-2.05756 2.057565,-2.05756 0.255136,-0.24999 0.621383,-0.67179 1.023637,-0.54937 0.337443,0.10185 0.72529,0.85903 0.931048,1.16664 0,0 2.12238,2.88059 2.12238,2.88059 0,0 4.639803,5.76118 4.639803,5.76118 1.085368,1.2726 2.389861,2.84973 3.731394,3.83118 1.793168,1.31273 3.339428,1.33536 5.452546,1.12446 0,0 2.571954,-0.25205 2.571954,-0.25205 0,0 2.160442,-0.27983 2.160442,-0.27983 -0.17901,-0.61315 -0.448547,-0.91253 -0.779816,-1.44029 0,0 -1.923823,-2.88059 -1.923823,-2.88059 -3.321935,-4.75401 -4.799267,-6.06262 -8.818718,-10.08207 -1.350792,-1.35079 -2.62134,-2.79108 -3.76843,-4.32088 -0.325094,-0.43415 -1.151208,-1.44956 -1.223224,-1.95469 -0.07716,-0.54423 0.379624,-1.13474 0.684141,-1.54317 0,0 2.057565,-2.77771 2.057565,-2.77771 0,0 3.674811,-4.93816 3.674811,-4.93816 0,0 3.13161,-4.11512 3.13161,-4.11512 0,0 1.719096,-1.73968 1.719096,-1.73968 0,0 0.823027,-0.7294 0.823027,-0.7294 0,0 -1.954689,-0.95266 -1.954689,-0.95266 0,0 -2.880588,-1.39091 -2.880588,-1.39091 -0.390939,-0.18415 -1.477333,-0.83125 -1.851808,-0.76644 -0.385794,0.0669 -0.957796,0.67385 -1.234538,0.94956 0,0 -2.383686,2.3662 -2.383686,2.3662 0,0 -3.656295,4.01225 -3.656295,4.01225 -1.656338,1.9588 -3.163502,4.07295 -4.630546,6.17269 0,0 -1.463956,2.16045 -1.463956,2.16045 -0.19547,0.30966 -0.630645,1.09874 -0.86212,1.30449 -0.431062,0.38477 -1.13989,0.0761 -1.388858,-0.38373 -0.14197,-0.26337 -0.120367,-0.62756 -0.120367,-0.92076 0,0 0,-1.4403 0,-1.4403 0,0 0.102877,-1.54317 0.102877,-1.54317 0,0 0,-2.16044 0,-2.16044 0,0 0.09876,-1.23454 0.09876,-1.23454 0,0 0,-1.74893 0,-1.74893 0,0 0.106995,-1.54317 0.106995,-1.54317 0,0 0.112139,-2.3662 0.112139,-2.3662 0,0 0.09362,-1.13166 0.09362,-1.13166 0,0 0.102877,-1.33742 0.102877,-1.33742 0,0 0,-0.9259 0,-0.9259 0,0 0.102877,-1.54318 0.102877,-1.54318 0,0 -7.09859,2.05757 -7.09859,2.05757 z m 61.932678,42.4887 c 0,0 2.674834,0 2.674834,0 0,0 1.543173,-0.10288 1.543173,-0.10288 0,0 4.423762,-0.3827 4.423762,-0.3827 6.178863,-0.76234 12.370075,-2.7304 16.872027,-7.23029 0,0 1.290091,-1.33742 1.290091,-1.33742 1.598729,-1.95057 2.816805,-4.19537 3.612053,-6.5842 0.4218,-1.26643 0.945451,-5.40934 0.9619139,-6.78996 0,0 0,-1.4403 0,-1.4403 0,0 -0.1769529,-1.85181 -0.1769529,-1.85181 0,0 -0.179006,-1.54317 -0.179006,-1.54317 -0.327155,-1.83432 -1.229395,-4.71902 -2.225257,-6.27557 -1.329188,-2.07814 -2.96598,-3.76225 -4.826015,-5.36304 -1.509224,-1.29832 -3.081202,-2.48039 -4.938154,-3.23243 -2.61002,-1.05656 -5.363041,-1.23968 -8.127381,-1.50408 0,0 -2.469077,-0.18827 -2.469077,-0.18827 0,0 -1.337415,-0.10288 -1.337415,-0.10288 0,0 -2.263319,-0.10287 -2.263319,-0.10287 0,0 -1.543174,-0.10288 -1.543174,-0.10288 0,0 -2.571957,0 -2.571957,0 0,0 -2.057562,-0.10288 -2.057562,-0.10288 0,0 0,1.33742 0,1.33742 0,0 0.102877,1.8518 0.102877,1.8518 0.0031,1.30656 0.762327,1.2294 0,1.64605 0,0 0,2.16045 0,2.16045 0,0 0.102877,1.64605 0.102877,1.64605 0,0 0,5.14391 0,5.14391 0,0 0.102881,1.74893 0.102881,1.74893 0,0 0,14.81446 0,14.81446 0,0 0.132712,1.23454 0.132712,1.23454 0,0 -0.132712,1.13166 -0.132712,1.13166 0,0 0,2.16044 0,2.16044 0,0 -0.102881,1.54318 -0.102881,1.54318 0,0 0,7.5101 0,7.5101 0.504104,0.19753 0.561717,0.29835 1.131662,0.30864 z m -41.048405,-44.13475 c 0,0 0.102877,0.10288 0.102877,0.10288 0,0 0,-0.10288 0,-0.10288 0,0 -0.102877,0 -0.102877,0 z m 80.2450013,27.86559 c -1.5565489,-0.8683 -3.0894335,-1.90942 -4.1377608,-3.38058 -1.3919412,-1.95366 -1.737612,-4.34661 -1.726297,-6.68708 0.00618,-1.34565 0.3981397,-3.88366 0.8477178,-5.14391 0.8065638,-2.26641 1.8497469,-4.31574 3.4032084,-6.17269 0,0 0.8837235,-0.92591 0.8837235,-0.92591 0.7355789,-0.78908 1.483507,-1.53597 2.37545813,-2.15633 0.9619135,-0.66871 0.8291977,-0.0905 1.44955426,-0.47221 0,0 0.91664581,-0.68722 0.91664581,-0.68722 0,0 1.7489308,-0.97838 1.7489308,-0.97838 1.3795958,-0.67282 3.4001251,-1.25305 4.9381539,-1.26128 0,0 1.8518079,-0.10185 1.8518079,-0.10185 0,0 1.543173,0.17592 1.543173,0.17592 3.617197,0.47118 6.494698,1.77465 9.567673,3.68921 0,0 1.70572,1.108 1.70572,1.108 0.310691,0.10905 0.954708,-0.2325 1.200589,0.38682 0.166661,0.4218 -0.18004,0.95163 -0.356989,1.3261 0,0 -1.495849,3.18923 -1.495849,3.18923 0,0 -1.541116,3.18922 -1.541116,3.18922 -0.196496,0.40534 -0.471181,1.19956 -0.787017,1.4763 -0.341557,0.30041 -2.286984,0.66871 -2.840469,0.78702 -0.904297,0.19341 -2.399119,0.51028 -3.2921,0.51439 -1.741729,0.008 -3.957724,-0.73969 -5.5554229,-1.44029 0.6491612,2.40529 2.5750409,3.54929 4.7323959,4.43816 0,0 1.028781,0.37448 1.028781,0.37448 0,0 0.925904,0.49176 0.925904,0.49176 1.357992,0.61212 2.244803,0.86006 3.600738,1.68412 1.651194,1.00203 2.789027,2.40837 3.811637,4.01945 1.437209,2.26435 2.768453,5.51427 2.772567,8.23025 0,0 0,1.13166 0,1.13166 -0.01131,0.9043 -0.52262,3.98756 -0.828167,4.83528 -0.459867,1.27363 -1.01644,2.51126 -1.836379,3.60074 -4.757087,6.32289 -12.8309684,7.17164 -19.9686578,5.08424 -1.6553119,-0.48353 -3.25918155,-1.07611 -4.835277,-1.77774 0,0 -0.7201461,-0.32715 -0.7201461,-0.32715 -0.3518454,-0.12345 -0.6481347,-0.0648 -0.9361924,-0.3395 -0.3971092,-0.38065 -0.3641869,-0.71089 -0.4701511,-1.19956 0,0 -0.4300315,-1.54317 -0.4300315,-1.54317 0,0 -0.5720055,-2.88059 -0.5720055,-2.88059 -0.080243,-0.47838 -0.2273611,-1.17487 -0.1357992,-1.64605 0.072015,-0.37139 0.7880477,-1.54626 1.0154089,-1.95469 0,0 2.0431631,-3.70361 2.0431631,-3.70361 0,0 1.2036731,-2.16045 1.2036731,-2.16045 0.19238191,-0.35081 0.47838267,-0.93619 0.77261499,-1.1903 0.20061348,-0.17489 0.45575273,-0.25616 0.6985427,-0.35287 -0.62343999,-0.14814 -1.96291619,-0.90945 -2.57195389,-1.24894 z m -81.4795403,-27.3512 c 0,0 0.514392,0.30863 0.514392,0.30863 0,0 0.720147,-0.72014 0.720147,-0.72014 -0.482497,0.0432 -0.835373,0.12654 -1.234539,0.41151 z m -0.720146,1.31375 c 0.346697,-0.0298 0.854919,-0.5504 0.10082,-0.94545 -0.442377,-0.23147 -0.987631,0.0144 -1.438239,0.14609 0,0 0,0.20576 0,0.20576 0.267484,0.15226 1.056562,0.61726 1.337419,0.5936 z m 39.402351,0.3323 c 0,0 0.925904,0.61727 0.925904,0.61727 0,0 0.102881,-1.64605 0.102881,-1.64605 0,0 -1.028785,1.02878 -1.028785,1.02878 z m 57.714674,-0.59669 c -0.881667,-0.17593 -1.773618,-0.32819 -2.674831,-0.32921 0,0 -1.1316613,0 -1.1316613,0 -1.6182759,0.002 -3.4937439,0.48867 -4.938154,1.20881 -1.1614965,0.58024 -2.4865666,1.44956 -3.37749118,2.39604 -2.13060732,2.26435 -3.02153192,5.49061 -2.54417972,8.53477 0.2839439,1.81478 1.10902777,3.89497 2.25406123,5.3363 0.25308234,0.31995 0.3785931,0.31378 0.52570732,0.48147 0,0 0.39608275,0.66356 0.39608275,0.66356 0.1882681,0.24485 1.1470903,1.18413 1.4084042,1.41046 0.8713781,0.75718 1.1069669,0.69649 1.5339112,1.02055 0,0 0.4495781,0.41152 0.4495781,0.41152 0.23868,0.18826 0.3631604,0.17798 0.570975,0.3148 0.6501916,0.429 0.4876446,0.52571 1.4577858,0.9578 0.5462804,-0.61624 0.7036869,-0.18621 0.6172692,0.41151 0.4218,0.18107 0.8415431,0.3683 1.2345385,0.60698 0.2006096,0.1214 0.5977227,0.40328 0.8219966,0.42077 0.4300315,0.035 0.6707643,-0.59051 0.9649973,-0.33435 0.230448,0.20164 -0.05761,0.71912 -0.140944,0.95265 2.04419,1.27981 4.929922,3.87542 3.903198,6.58421 -0.206784,0.54422 -0.436202,0.88681 -0.797306,1.33742 -0.605953,0.75615 -1.403259,1.38885 -2.282865,1.80139 0,0 -0.813769,0.33744 -0.813769,0.33744 -0.5771456,0.29424 -0.999976,1.22323 -1.552431,0.12449 -2.3600254,-0.007 -4.6089423,-1.54318 -6.2755693,-3.09561 -0.5267377,-0.49073 -1.63165159,-1.77671 -2.16044233,-2.04831 0,0 -3.01433467,5.45255 -3.01433467,5.45255 -0.2139854,0.38888 -1.0380389,1.69852 -1.0082039,2.05757 0.040123,0.50101 1.1831001,1.58535 1.5534616,1.95468 1.96188579,1.9588 4.5420712,3.10281 7.2014732,3.76843 4.1871424,1.04627 8.3650264,0.88167 12.3453844,-0.84463 2.005097,-0.86932 3.658348,-2.07402 4.953587,-3.8497 0.170778,-0.23354 0.44546,-0.57818 0.573032,-0.82303 0,0 0.239706,-0.61727 0.239706,-0.61727 0.244847,-0.55554 0.598749,-1.04524 0.755126,-1.64605 0.05658,-0.21502 0.155345,-1.01643 0.119336,-1.23454 0,0 0,-0.51439 0,-0.51439 -0.0031,-0.53497 0.273659,-0.39711 0.251025,-1.44029 -0.02368,-1.03701 -0.390938,-2.30962 -0.71912,-3.29211 -0.875491,-2.62442 -2.71187,-5.94121 -5.04103,-7.50085 -2.094602,-1.40326 -4.262245,-1.74995 -5.555423,-2.56269 0,0 -1.543173,-0.82817 -1.543173,-0.82817 -1.5256838,-0.87035 -3.3209088,-2.25406 -3.9906469,-3.92275 -0.1532889,-0.38167 -0.5308516,-1.58741 -0.4434073,-1.95468 0.073046,-0.30555 0.6440208,-1.54935 0.82097,-1.85181 2.2005658,-3.77049 7.3444732,-1.43618 9.9915302,0.45575 0,0 1.74893,1.39606 1.74893,1.39606 0,0 2.084313,-4.42377 2.084313,-4.42377 0,0 1.207791,-2.67483 1.207791,-2.67483 -3.093547,-2.18925 -6.231336,-3.85896 -9.979188,-4.60894 z m -100.203371,-0.0206 c 0,0 0.102877,0.10288 0.102877,0.10288 0,0 0,-0.10288 0,-0.10288 0,0 -0.102877,0 -0.102877,0 z m -0.514393,0.82302 c 0,0 0.514393,-0.72014 0.514393,-0.72014 -0.485588,0.071 -1.043187,0.16563 -0.514393,0.72014 z m -17.283539,1.02879 c 0.74587,-0.30247 0.6862,-0.91048 0.72015,-1.64605 -0.8971,0.51027 -0.72015,0.69237 -0.72015,1.64605 z m -0.9259,-1.54318 c 0,0 0.10287,0.10288 0.10287,0.10288 0,0 0,-0.10288 0,-0.10288 0,0 -0.10287,0 -0.10287,0 z m 19.95837,0 c 0,0 -0.72015,1.23454 -0.72015,1.23454 0.222217,0.107 0.704718,0.40123 0.925904,0.38682 0.439294,-0.0309 0.958826,-0.74072 1.131662,-1.10697 0,0 -1.337416,-0.51439 -1.337416,-0.51439 z m -20.98715,0.82303 c 0,0 1.02878,-0.72015 1.02878,-0.72015 -0.61007,0.0514 -0.97426,0.0381 -1.02878,0.72015 z m -1.4403,1.23454 c 0.78496,-0.54731 0.8827,-0.6327 0.72015,-1.54318 -0.83332,0.18004 -0.72015,0.30247 -0.72015,1.54318 z m 46.192316,1.02878 c 0,0 0.618296,-0.45987 0.618296,-0.45987 0,0 0.101851,-2.00921 0.101851,-2.00921 -1.152235,0.89813 -0.731465,1.26232 -0.720147,2.46908 z m -26.4397,-2.26332 c 0,0 -0.308635,0.72015 -0.308635,0.72015 0,0 0.411511,0.10287 0.411511,0.10287 0,0 0.411516,-0.61726 0.411516,-0.61726 0,0 -0.514392,-0.20576 -0.514392,-0.20576 z m 43.517481,0.12757 c -0.483526,-0.0823 -1.056558,0.73043 -1.234538,1.10697 0.711918,0.22016 1.135775,-0.27469 1.748931,-0.61727 0,0 0,-0.20576 0,-0.20576 -0.134773,-0.0895 -0.355959,-0.25616 -0.514393,-0.28394 z m -61.726927,1.82712 c 0.88064,-0.49382 1.4475,-0.7397 1.13166,-1.85181 -1.11108,0.572 -1.13166,0.69237 -1.13166,1.85181 z m 20.061253,0.20575 c 0,0 0.61727,-0.72015 0.61727,-0.72015 0,0 -0.823027,-0.51439 -0.823027,-0.51439 -0.625497,0.59052 -0.441347,0.81686 0.205757,1.23454 z m -18.106563,0.30864 c 0.55143,-0.30349 0.50925,-0.66151 0.51439,-1.23454 -0.60287,0.3827 -0.51336,0.56789 -0.51439,1.23454 z m 15.328852,-1.23454 c 0,0 -0.61727,1.13166 -0.61727,1.13166 0,0 0.308635,0.10288 0.308635,0.10288 0,0 0.720146,-1.13166 0.720146,-1.13166 0,0 -0.411511,-0.10288 -0.411511,-0.10288 z m 26.542577,1.64605 c 0,0 0.205758,0 0.205758,0 0,0 -0.102881,-1.4403 -0.102881,-1.4403 -0.281887,0.39917 -0.103907,0.96809 -0.102877,1.4403 z m 16.049001,-0.82303 c 0,0 0.205757,-0.61727 0.205757,-0.61727 0,0 -0.205757,0.61727 -0.205757,0.61727 z m 1.954684,0.20576 c 0,0 0.925904,0.82303 0.925904,0.82303 0.664594,-0.59361 0.514393,-0.8004 0.514393,-1.64606 0,0 -1.440297,0.82303 -1.440297,0.82303 z m -63.372974,-0.51439 c 0,0 0,1.33742 0,1.33742 0.87858,-0.39711 0.92488,-0.65637 0.9259,-1.54318 0,0 -0.9259,0.20576 -0.9259,0.20576 z m 1.64605,2.26332 c 1.03187,-0.71603 1.23454,-0.74484 1.23454,-1.95469 -1.2366,0.30555 -1.23454,0.88064 -1.23454,1.95469 z m 17.900808,-1.85181 c 0,0 0.102881,0.10288 0.102881,0.10288 0,0 0,-0.10288 0,-0.10288 0,0 -0.102881,0 -0.102881,0 z m 0.823027,0.10288 c -0.363161,0.64711 -0.877549,1.00718 -0.617269,1.74893 0,0 0.205757,0 0.205757,0 0,0 1.131658,-1.33742 1.131658,-1.33742 0,0 -0.720146,-0.41151 -0.720146,-0.41151 z m -1.028781,0.20576 c 0,0 0.102877,0.10288 0.102877,0.10288 0,0 0,-0.10288 0,-0.10288 0,0 -0.102877,0 -0.102877,0 z m 25.308039,1.13166 c 0,0 0,-1.13166 0,-1.13166 -0.143,0.36007 -0.143,0.77158 0,1.13166 z m -25.41092,-1.02878 c 0,0 0.102881,0.10287 0.102881,0.10287 0,0 0,-0.10287 0,-0.10287 0,0 -0.102881,0 -0.102881,0 z m 27.05697,1.44029 c 0.751012,-0.22839 0.61727,-0.48455 0.61727,-1.33742 -0.681054,0.44753 -0.616239,0.56892 -0.61727,1.33742 z m -29.526047,0.19444 c 0.08745,0.0103 0.125515,0.0545 0.278804,0 0.241763,-0.11625 0.80759,-0.85697 0.82611,-1.12034 0.01131,-0.17284 -0.04835,-0.22119 -0.07613,-0.30864 0,0 -1.028785,1.42898 -1.028785,1.42898 z m 45.986559,-1.32713 c -0.423857,-0.0566 -1.082276,0.52262 -1.337415,0.82405 0.20164,0.11317 0.618299,0.39197 0.823027,0.4146 0.401223,0.0463 1.054502,-0.45986 1.337415,-0.72323 -0.205758,-0.15329 -0.581263,-0.48353 -0.823027,-0.51542 z m -43.723236,0.001 c 0,0 0.102877,0.10287 0.102877,0.10287 0,0 0,-0.10287 0,-0.10287 0,0 -0.102877,0 -0.102877,0 z m -0.10288,0.10287 c 0,0 0.10288,0.10289 0.10288,0.10289 0,0 0,-0.10289 0,-0.10289 0,0 -0.10288,0 -0.10288,0 z m -15.247579,0.4537 c 0,0 0,2.32402 0,2.32402 0,0 0.12448,0.82302 0.12448,0.82302 0,0 0,-1.54317 0,-1.54317 0,0 0.10288,-1.85181 0.10288,-1.85181 0,0 -0.22736,0.24794 -0.22736,0.24794 z m -3.58016,0.61933 c 0,0 -0.10185,0.67591 -0.10185,0.67591 0,0 0,2.57195 0,2.57195 0.70986,-0.33538 1.24791,-0.93722 0.9259,-1.74893 -0.0751,0.16358 -0.16254,0.4146 -0.33744,0.4969 -0.19958,0.0936 -0.40637,-0.0422 -0.38168,-0.29731 0.0329,-0.33436 0.48765,-0.74073 0.65945,-1.02261 0.24177,-0.4002 0.18107,-0.90842 0.0597,-1.33742 0,0 -0.82405,0.66151 -0.82405,0.66151 z m 17.490323,1.08744 c 0.404311,-0.43415 0.783934,-0.96294 0.925904,-1.54318 -0.442377,0.38991 -0.950595,0.92488 -0.925904,1.54318 z m 27.879993,-1.4403 c 0,0 0,0.82303 0,0.82303 0,0 0.205758,0 0.205758,0 0,0 0,-0.82303 0,-0.82303 0,0 -0.205758,0 -0.205758,0 z m -43.206786,0.69237 c -0.57612,0.50719 -0.51542,0.64196 -0.51645,1.3652 1.05142,-0.55452 1.23454,-0.71912 1.23454,-1.85181 -0.31789,0.14917 -0.45369,0.25411 -0.71809,0.48661 z m 60.593206,0.23353 c 0,0 0,0.20576 0,0.20576 0.698543,0.30144 1.232478,-0.16152 1.851808,-0.51439 -0.663568,-0.61521 -0.803481,-0.15843 -1.851808,0.30863 z m -44.546267,1.23454 c 0.429005,-0.41768 0.923847,-0.91664 0.925904,-1.54317 -0.532908,0.27674 -1.015405,0.92796 -0.925904,1.54317 z m 26.131067,-0.72014 c 0.360073,-0.24074 0.30349,-0.41666 0.308634,-0.82303 0,0 -0.308634,0.82303 -0.308634,0.82303 z m 61.8298006,-0.82303 c 0,0 0.1028808,0.10288 0.1028808,0.10288 0,0 0,-0.10288 0,-0.10288 0,0 -0.1028808,0 -0.1028808,0 z m -0.6172692,1.33742 c 0,0 0.6172692,-1.23454 0.6172692,-1.23454 -0.4022535,0.31481 -0.8075942,0.68825 -0.6172692,1.23454 z m -59.1549664,0.82302 c 0,0 0.247934,-0.23559 0.247934,-0.23559 0,0 0.163578,-1.61622 0.163578,-1.61622 -0.787018,0.29218 -0.414599,0.78908 -0.411512,1.85181 z m -30.246193,-1.64605 c -0.235593,0.35699 -0.530852,0.6183 -0.308635,1.02878 0,0 0.617269,-0.9259 0.617269,-0.9259 0,0 -0.308634,-0.10288 -0.308634,-0.10288 z m 47.632609,0.72015 c 0.07922,0.10082 0.12551,0.18621 0.228387,0.27468 0.713976,0.61007 0.697517,-0.37756 0.697517,-0.78907 0,0 -0.925904,0.51439 -0.925904,0.51439 z m -2.571954,0.51439 c 0,0 1.234538,-0.61727 1.234538,-0.61727 -0.635789,-0.51954 -1.208821,-0.16666 -1.234538,0.61727 z m -15.740366,-0.82303 c -0.175923,0.61727 -0.112139,1.22837 0,1.85181 0,0 0.227361,-0.24793 0.227361,-0.24793 0,0 0,-1.60388 0,-1.60388 0,0 -0.227361,0 -0.227361,0 z m -29.320289,1.33742 c 0.576115,-0.006 0.863146,-0.4897 0.823023,-1.02878 0,0 -0.823023,1.02878 -0.823023,1.02878 z m 60.286628,-1.02878 c 1.235569,0.0813 2.489654,0.2716 3.703616,0.51439 2.391917,0.47838 5.208722,1.48453 6.995719,3.19334 1.878555,1.79625 2.961862,3.98344 3.587363,6.47721 0.300403,1.19545 0.54114,2.57402 0.527764,3.8065 -0.03601,3.12441 -1.436179,6.18092 -4.01225,8.02038 -2.982439,2.13061 -5.960764,2.58739 -9.464796,3.10795 -0.485584,0.072 -2.968037,1.11829 -3.534894,-0.84051 -0.07716,-0.26337 -0.06584,-0.5504 -0.06584,-0.82303 0,0 0,-3.70362 0,-3.70362 0,0 0.102877,-1.64605 0.102877,-1.64605 0,0 0.102877,-3.2921 0.102877,-3.2921 0,0 0.102881,-1.64605 0.102881,-1.64605 0,0 0,-1.33742 0,-1.33742 0,0 0.102876,-1.64605 0.102876,-1.64605 0,0 0,-7.51011 0,-7.51011 -0.01233,-0.68619 -0.176949,-0.73661 -0.196495,-1.02878 0,0 0.272625,-1.33124 0.272625,-1.33124 0.08436,-0.20267 0.115222,-0.18313 0.256165,-0.31481 0.555543,-0.20061 0.954713,-0.0411 1.519513,0 z m -74.730726,1.2438 c -0.0926,0.2325 -0.0617,1.03598 -0.0617,1.32816 0,0 0.41151,-0.22737 0.41151,-0.22737 0.51336,-0.24176 0.65636,0.0401 0.51851,0.30246 -0.14917,0.28189 -0.61418,0.47839 -0.76542,0.86007 -0.0967,0.24279 -0.0617,1.21499 -0.0617,1.53391 0,0 1.13269,-0.77364 1.13269,-0.77364 0,0 0.10185,-0.76953 0.10185,-0.76953 0,0 0,-1.33742 0,-1.33742 0,0 -0.10288,-1.95468 -0.10288,-1.95468 -0.34053,0.21604 -1.02467,0.66459 -1.17281,1.03804 z m 42.737659,-0.69957 c 0,0 -0.104933,1.71909 -0.104933,1.71909 0,0 0.306577,-0.23559 0.306577,-0.23559 0,0 0.104934,-1.7191 0.104934,-1.7191 0,0 -0.306578,0.2356 -0.306578,0.2356 z m 18.614784,-0.0309 c -0.301434,-0.0483 -1.470127,0.58538 -1.686174,0.81377 -0.122423,0.12963 -0.109051,0.16872 -0.161516,0.31892 0,0 2.263319,-0.82303 2.263319,-0.82303 -0.129628,-0.14711 -0.198556,-0.27571 -0.415629,-0.30966 z m -46.188199,1.5442 c 0,0 1.028781,-1.33741 1.028781,-1.33741 -0.555543,0.1718 -1.001003,0.75718 -1.028781,1.33741 z m -2.3662,-0.30863 c 0,0 0.102881,0.10287 0.102881,0.10287 0,0 0.720146,-0.9259 0.720146,-0.9259 0,0 -0.102877,-0.10288 -0.102877,-0.10288 0,0 -0.72015,0.92591 -0.72015,0.92591 z m 49.42372,1.94851 c 0.165634,0.19753 0.54114,0.51439 0.781877,0.23662 0.127568,-0.14711 0.101846,-0.55349 0.101846,-0.74484 0.0012,-0.61933 0.147119,-1.65634 -0.720146,-1.76539 -0.32098,-0.0411 -1.222193,0.38168 -1.543173,0.53085 0.145058,0.22737 0.352872,0.59361 0.626528,0.67797 0.311721,0.0957 0.620356,-0.21604 0.901213,-0.1646 0.08745,0.0154 0.16152,0.0576 0.2037,0.13888 0.180037,0.34567 -0.375505,0.58126 -0.599779,0.68517 0.07819,0.14506 0.139913,0.27674 0.247934,0.40534 z m -49.012205,-0.71397 c 0.513362,-0.26543 0.909441,-0.73764 0.823023,-1.33742 -0.402253,0.40637 -0.685166,0.77467 -0.823023,1.33742 z m 31.686486,0.61726 c 0,0 0.102881,-1.95468 0.102881,-1.95468 -0.303491,0.41151 -0.290119,1.48145 -0.102881,1.95468 z m 32.303758,-1.8518 c 0,0 0.411512,0.10287 0.411512,0.10287 -0.167692,-0.18826 -0.170779,-0.18106 -0.411512,-0.10287 z m -78.952853,1.06684 c -0.0885,0.2109 -0.0576,1.02673 -0.0576,1.29936 0,0 1.07302,-1.05759 1.07302,-1.05759 0,0 0.0586,-1.20574 0.0586,-1.20574 -0.29938,0.17696 -0.93825,0.64094 -1.07405,0.96397 z m 80.084515,-0.96397 c 0.312748,0.49896 1.140919,0.73147 1.64605,0.41152 0,0 -1.64605,-0.41152 -1.64605,-0.41152 z m 24.7936462,1.74893 c 0,0 0.3065777,-0.16357 0.3065777,-0.16357 0,0 0.1049338,-1.48248 0.1049338,-1.48248 -0.350815,0.46193 -0.3662438,1.08228 -0.4115115,1.64605 z M -62.993739,135.875 c -0.168722,0.31687 -0.0751,1.3652 0,1.70675 0.511305,-0.49587 0.340526,-1.32301 0.227361,-1.95468 -0.115226,0.0864 -0.181067,0.0988 -0.227361,0.24793 z m 15.877191,-0.143 c -0.120367,0.0535 -0.204727,0.12346 -0.262336,0.24382 -0.08333,0.17696 -0.05864,0.76748 -0.05864,0.98866 0,0 1.337419,-0.51439 1.337419,-0.51439 -0.199587,-0.37653 -0.496902,-0.9475 -1.016439,-0.71809 z m 14.904997,-0.10493 c 0.01851,0.5432 0.03293,0.64402 0.514389,0.9259 -0.02469,-0.49176 -0.0062,-0.75204 -0.514389,-0.9259 z m 5.555423,0 c 0,0 0.102877,0.10288 0.102877,0.10288 0,0 0,-0.10288 0,-0.10288 0,0 -0.102877,0 -0.102877,0 z m 2.981409,1.4619 c -0.135799,-0.23045 -0.487641,-0.40534 -0.718089,-0.536 -0.564801,-0.31892 -1.524657,-0.7078 -2.160443,-0.82302 0.185181,0.54731 0.466038,0.7222 1.028781,0.87652 0.488671,0.13477 1.004094,-0.33847 0.925904,0.56377 0,0 1.028785,0.51439 1.028785,0.51439 -0.0072,-0.2037 0.0019,-0.41254 -0.104938,-0.59566 z m -71.806929,0.28703 c 0.440316,-0.37345 0.877548,-0.98352 1.02878,-1.54318 -0.410485,0.38065 -0.829197,1.02056 -1.02878,1.54318 z m 66.047809,-1.54318 c 0,0 0.102877,0.10288 0.102877,0.10288 0,0 0,-0.10288 0,-0.10288 0,0 -0.102877,0 -0.102877,0 z m 39.813866,0.5144 c 0,0 0.720146,0.10287 0.720146,0.10287 0,0 0.205758,-0.61727 0.205758,-0.61727 -0.586408,0.14506 -0.730439,0.0288 -0.925904,0.5144 z m -103.083964,0.30863 c 0,0 0.514389,-0.72015 0.514389,-0.72015 0,0 -0.514389,0.72015 -0.514389,0.72015 z m 61.624044,-0.72015 c 0.07201,0.54114 0.02982,0.82097 0.514392,1.13166 -0.0051,-0.55245 0.0607,-0.90636 -0.514392,-1.13166 z m 42.900212,0.72015 c 0,0 0.72015,0.20576 0.72015,0.20576 0,0 0.308635,-0.82303 0.308635,-0.82303 -0.674883,-0.11214 -0.821997,-0.0751 -1.028785,0.61727 z m -40.236692,-0.32304 c 0,0 1.245853,0.94031 1.245853,0.94031 -0.02982,-0.85492 -0.308635,-0.72323 -1.245853,-1.13166 0,0 0,0.19135 0,0.19135 z m -35.791332,0.27469 c 0,0 -0.101846,1.90016 -0.101846,1.90016 0,0 0.512331,-0.43003 0.512331,-0.43003 0,0 0.104938,-1.83329 0.104938,-1.83329 0,0 -0.515423,0.36316 -0.515423,0.36316 z m 34.259473,-0.15741 c 0.110079,0.81789 0.08024,1.02879 0.823027,1.4403 0,-0.88372 0.149172,-1.1615 -0.823027,-1.4403 z m 43.311724,0.10288 c 0,0 -0.205754,0.61727 -0.205754,0.61727 0,0 1.234539,0.41151 1.234539,0.41151 0,0 0.205753,-0.61727 0.205753,-0.61727 0,0 -1.234538,-0.41151 -1.234538,-0.41151 z m -106.376063,0.51439 c 0,0 0.308634,-0.41151 0.308634,-0.41151 0,0 -0.308634,0.41151 -0.308634,0.41151 z m 87.6522322,-0.30863 c 0,0 0.1028769,0.10288 0.1028769,0.10288 0,0 0,-0.10288 0,-0.10288 0,0 -0.1028769,0 -0.1028769,0 z m -90.2241902,1.13166 c 0,0 0.102881,1.33741 0.102881,1.33741 0,0 1.336389,-1.95468 1.336389,-1.95468 0,0 0,-0.41151 0,-0.41151 -0.65945,0.70883 -0.621387,1.28186 -1.43927,1.02878 z m 104.0098673,0.20576 c 0,0 0.3086346,0.10287 0.3086346,0.10287 0,0 0.7201501,-1.33741 0.7201501,-1.33741 -0.8497747,0.0278 -0.9207596,0.47529 -1.0287847,1.23454 z m -34.8757123,-1.13167 c 0.0012,1.06994 0.235593,1.31273 1.131662,1.95469 0,0 0.102877,-1.44029 0.102877,-1.44029 0,0 -1.234539,-0.5144 -1.234539,-0.5144 z m 20.2670083,2.26332 c 0.4300315,-0.40945 0.7294081,-1.65839 0.8230269,-2.26332 -0.3683046,0.50822 -0.7664443,1.63577 -0.8230269,2.26332 z m -39.4116123,-2.08842 c -0.301434,-0.0874 -1.560663,0.44134 -1.737612,0.69854 -0.141974,0.20781 -0.104938,0.72221 -0.104938,0.97837 0,0 2.571958,-0.9259 2.571958,-0.9259 -0.169752,-0.25205 -0.421804,-0.66151 -0.729408,-0.75101 z m 55.66637,-0.072 c 0,0 -0.617269,1.34874 -0.617269,1.34874 0.1460838,0.0103 0.3487542,0.0576 0.4917546,0 0.3292114,-0.0926 0.6512224,-1.02673 0.7427834,-1.34874 0,0 -0.617269,0 -0.617269,0 z m -37.241912,2.16044 c 0,-0.23558 0.02469,-0.80245 -0.05864,-0.99792 -0.143,-0.33435 -0.856975,-0.77364 -1.175898,-0.95676 -0.405341,1.02158 0.436202,1.53391 1.234538,1.95468 z m 38.579328,-1.95468 c 0,0 -0.61727,1.54317 -0.61727,1.54317 0,0 0.720147,0.20576 0.720147,0.20576 0,0 0.617269,-1.54317 0.617269,-1.54317 0,0 -0.720146,-0.20576 -0.720146,-0.20576 z m 3.806492,0.10288 c 0,0 -0.205754,0.61727 -0.205754,0.61727 0.646074,0.27983 1.273631,0.46295 1.337415,1.23453 0,0 0.617269,-0.10287 0.617269,-0.10287 -0.397109,-0.679 -1.039069,-1.39709 -1.74893,-1.74893 z m -123.77894,1.23453 c 0,0 0,1.23454 0,1.23454 0,0 0.9403,-0.83228 0.9403,-0.83228 0,0 0.10494,-1.53391 0.10494,-1.53391 -0.33847,0.24176 -0.93928,0.72631 -1.04524,1.13165 z m 104.8493512,0.5144 c 0.712945,-0.36728 0.4176862,-0.86109 0.4115115,-1.54318 -0.550398,0.47016 -0.4115115,0.87241 -0.4115115,1.54318 z m -58.1261852,-0.41151 c 0,0 0,-1.02879 0,-1.02879 -0.138887,0.35082 -0.138887,0.67797 0,1.02879 z m 30.966339,-1.02879 c 0,0 0.102877,0.10288 0.102877,0.10288 0,0 0,-0.10288 0,-0.10288 0,0 -0.102877,0 -0.102877,0 z m 8.031701,0.4074 c 0,0 1.227337,1.34153 1.227337,1.34153 -0.01233,-0.93619 -0.408428,-1.20161 -1.131661,-1.74893 0,0 -0.09568,0.4074 -0.09568,0.4074 z m -3.259182,16.77326 c 0.729408,-1.26657 1.187214,-2.68012 1.440296,-4.11527 0,0 0.161517,-1.85181 0.161517,-1.85181 0,0 -0.0895,-0.82302 -0.0895,-0.82302 -0.270572,-3.70465 -2.183076,-7.03996 -5.358928,-9.01728 -0.781873,-0.48764 -1.868266,-1.10594 -2.777711,-1.27054 0,0 0,6.27557 0,6.27557 0,0 -0.106995,1.74893 -0.106995,1.74893 0,0 0,1.64605 0,1.64605 0,0 -0.102877,1.23454 -0.102877,1.23454 0,0 0,1.54317 0,1.54317 0,0 -0.09876,1.23454 -0.09876,1.23454 0,0 -0.102877,4.42376 -0.102877,4.42376 0.0012,0.43826 -0.01337,1.18824 0.434146,1.43412 0.260279,0.14301 1.285977,-0.0432 1.623416,-0.0802 0.92076,-0.0977 3.700532,-0.47016 4.423765,-0.83949 -0.310695,-0.49484 0.30246,-1.10697 0.554512,-1.54317 z m -4.566762,-17.07792 c 0,0 0.102877,0.10287 0.102877,0.10287 0,0 0,-0.10287 0,-0.10287 0,0 -0.102877,0 -0.102877,0 z m 43.517482,0 c 0,0 -0.617269,1.44029 -0.617269,1.44029 0.239706,0.0453 0.889893,0.21399 1.091537,0.13786 0.312749,-0.11728 0.570971,-0.86315 0.657389,-1.16664 0,0 -1.131657,-0.41151 -1.131657,-0.41151 z m -43.311728,0.10287 c 0,0 0.102881,0.10288 0.102881,0.10288 0,0 0,-0.10288 0,-0.10288 0,0 -0.102881,0 -0.102881,0 z m 5.835253,0.82303 c -0.133742,1.11006 0.0751,1.33639 0.851832,2.16044 0,0 0.205758,-2.3662 0.205758,-2.3662 0,0 -0.925904,-0.61727 -0.925904,-0.61727 -0.120371,0.3035 -0.09465,0.5072 -0.131686,0.82303 z m -70.636178,1.33742 c -0.262337,0.36521 -0.479409,0.57406 -0.32098,1.02878 0,0 1.851808,-2.98347 1.851808,-2.98347 -0.542167,0.45266 -1.101823,1.35799 -1.530828,1.95469 z m 32.39429,-1.74893 c 0,0 -0.102877,1.13166 -0.102877,1.13166 0.511305,-0.32716 0.441347,-0.58538 0.308635,-1.13166 0,0 -0.205758,0 -0.205758,0 z m 80.142124,0 c 0,0 0.102877,0.10288 0.102877,0.10288 0,0 0,-0.10288 0,-0.10288 0,0 -0.102877,0 -0.102877,0 z m -61.628161,0.18621 c 0,0 -2.053447,0.73969 -2.053447,0.73969 0,0 0.323037,0.32818 0.323037,0.32818 0,0 2.14604,-0.73969 2.14604,-0.73969 0,0 -0.41563,-0.32818 -0.41563,-0.32818 z m 61.731038,-0.0833 c 0,0 0.102881,0.10287 0.102881,0.10287 0,0 0,-0.10287 0,-0.10287 0,0 -0.102881,0 -0.102881,0 z m -124.072142,0.87652 c 0,0 -0.10185,1.90119 -0.10185,1.90119 0,0 1.1296,-0.84155 1.1296,-0.84155 0,0 0.10494,-1.83329 0.10494,-1.83329 0,0 -1.13269,0.77365 -1.13269,0.77365 z m 77.262561,-0.77365 c 0,0 0.102877,0.10288 0.102877,0.10288 0,0 0,-0.10288 0,-0.10288 0,0 -0.102877,0 -0.102877,0 z m 47.42685,0.41152 c 0,0 -0.411511,-0.41152 -0.411511,-0.41152 0.0051,0.3179 0.130655,0.32407 0.411511,0.41152 z M 14.59803,138.6106 c 0,0 -0.308634,0.82303 -0.308634,0.82303 0,0 1.646054,-0.20576 1.646054,-0.20576 0,0 -1.33742,-0.61727 -1.33742,-0.61727 z m -40.019619,2.3662 c 0,-1.25717 0.01439,-1.11726 -0.925904,-2.05756 -0.352872,0.88886 0.279826,1.52465 0.925904,2.05756 z m -38.990843,-0.41151 c 0.884754,-0.51028 0.823027,-0.59052 0.823027,-1.54317 -0.839486,0.21089 -0.763357,0.80245 -0.823027,1.54317 z m 41.357039,0.10288 c 0,0 -0.06173,1.23453 -0.06173,1.23453 0,0 0.598753,1.33742 0.598753,1.33742 0,0 0.594636,1.33742 0.594636,1.33742 0,0 0.205757,-2.67484 0.205757,-2.67484 0,0 -0.08745,-1.54317 -0.08745,-1.54317 0,0 -1.044213,-1.23454 -1.044213,-1.23454 0,0 -0.205758,1.54318 -0.205758,1.54318 z m 18.5180773,-1.54318 c 0,0 0,1.02878 0,1.02878 0.3189231,-0.36521 0.2139892,-0.57097 0.2057577,-1.02878 0,0 -0.2057577,0 -0.2057577,0 z m -23.8677423,0.10288 c 0,0 0.102876,0.10288 0.102876,0.10288 0,0 0,-0.10288 0,-0.10288 0,0 -0.102876,0 -0.102876,0 z m 22.1188153,0 c 0,0 0.102877,0.10288 0.102877,0.10288 0,0 0,-0.10288 0,-0.10288 0,0 -0.102877,0 -0.102877,0 z m -22.0159393,0.10288 c 0,0 0.102881,0.10288 0.102881,0.10288 0,0 0,-0.10288 0,-0.10288 0,0 -0.102881,0 -0.102881,0 z m 23.0447201,1.64605 c 0,0 0.1028769,-1.64605 0.1028769,-1.64605 -0.433115,0.47015 -0.4711815,1.12446 -0.1028769,1.64605 z m -22.5303271,-1.23454 c 0,0 -0.308635,-0.30863 -0.308635,-0.30863 0,0 0.308635,0.30863 0.308635,0.30863 z m -17.797931,0.41151 c 0.162547,0.22325 0.342587,0.49588 0.617269,0.59361 0.306578,0.10802 1.039069,-0.2253 1.172812,-0.5185 0.0751,-0.16461 0.0607,-0.50616 0.06173,-0.69238 0,0 -1.851807,0.61727 -1.851807,0.61727 z m -1.954685,0.10288 c 0,0 0.617269,-0.20575 0.617269,-0.20575 -0.32201,-0.5576 -0.574062,-0.3323 -0.617269,0.20575 z m 27.132069,1.02879 c 0,0 0.549371,1.33741 0.549371,1.33741 0.343614,-0.38579 0.204728,-0.57818 0,-1.02878 0,0 -1.035986,-1.95468 -1.035986,-1.95468 -0.258222,0.65945 0.202671,1.07713 0.486615,1.64605 z m 14.0192125,-1.64605 c 0,0 0.1028808,0.10287 0.1028808,0.10287 0,0 0,-0.10287 0,-0.10287 0,0 -0.1028808,0 -0.1028808,0 z m 3.292104,1.64605 c 0.6429904,-0.5504 0.2664542,-0.929 0.1028769,-1.64605 -0.6481308,0.59051 -0.2736554,0.9187 -0.1028769,1.64605 z m -24.6907695,-1.54318 c 0,0 0.102877,0.10288 0.102877,0.10288 0,0 0,-0.10288 0,-0.10288 0,0 -0.102877,0 -0.102877,0 z m 0.102877,0.10288 c 0,0 0.102881,0.10288 0.102881,0.10288 0,0 0,-0.10288 0,-0.10288 0,0 -0.102881,0 -0.102881,0 z m -80.757338,0.93517 c 0,0 -0.10493,1.63679 -0.10493,1.63679 1.34462,-0.56995 1.02878,-1.22837 1.02878,-2.46908 0,0 -0.92385,0.83229 -0.92385,0.83229 z m 80.860219,-0.83229 c 0,0 0.102876,0.10288 0.102876,0.10288 0,0 0,-0.10288 0,-0.10288 0,0 -0.102876,0 -0.102876,0 z m 20.8842729,2.77771 c 0,0 0.4536958,-0.82303 0.4536958,-0.82303 0.1964958,-0.56068 -0.019558,-1.39811 -0.1450612,-1.95468 -0.2767427,0.54217 -0.5380527,2.20056 -0.3086346,2.77771 z m -56.2743779,-1.54317 c 0.550398,-0.22119 0.411512,-0.60184 0.411512,-1.13166 -0.461924,0.39402 -0.409455,0.55965 -0.411512,1.13166 z m 35.801616,-0.72015 c 0,0 -0.205758,-0.41151 -0.205758,-0.41151 0,0 0.205758,0.41151 0.205758,0.41151 z m -20.164127,0.41151 c 0.492785,1.03804 0.930018,0.69443 1.748927,0.30864 -0.681053,-0.93517 -0.833312,-0.55554 -1.748927,-0.30864 z m 23.456231,2.05757 c -0.0012,-1.15327 -0.162551,-1.21911 -0.823027,-2.16045 -0.330238,0.83229 0.21913,1.61931 0.823027,2.16045 z m 19.7526157,-0.51439 c 0.6707646,-0.66768 0.4351719,-0.86212 0.1028769,-1.64606 -0.5658308,0.48867 -0.3333254,1.01541 -0.1028769,1.64606 z m -60.2866317,0 c 0.817883,-0.5216 0.821996,-0.62345 0.823027,-1.54318 -0.817883,0.52159 -0.821997,0.62344 -0.823027,1.54318 z m 37.97132,-1.21191 c 0,0 0.916642,1.41766 0.916642,1.41766 -0.01131,-0.86726 -0.233532,-1.02775 -0.823023,-1.64605 0,0 -0.09362,0.22839 -0.09362,0.22839 z m -17.807189,0.0803 c 0,0 0.617269,0.72014 0.617269,0.72014 0,0 0,-0.9259 0,-0.9259 0,0 -0.617269,0.20576 -0.617269,0.20576 z m -62.549949,2.3662 c 0.34876,-0.18004 1.02055,-0.57407 1.17281,-0.9434 0.0947,-0.22942 0.0617,-1.12446 0.0617,-1.4228 -1.40429,0.59463 -1.23454,1.05552 -1.23454,2.3662 z m 85.594665,0.61726 c 0.270572,-0.22324 0.655336,-0.56788 0.731465,-0.9259 0.08025,-0.37962 -0.370362,-1.36211 -0.525708,-1.74893 0,0 -0.205757,2.67483 -0.205757,2.67483 z m -23.97062,-2.47422 c -0.140943,0.003 -0.740723,0.24897 -0.925904,0.31378 0.189295,0.40123 0.64196,1.01849 1.131658,1.0473 0.207815,0.0123 0.792162,-0.24485 1.028785,-0.32715 -0.242794,-0.33847 -0.781877,-1.04627 -1.234539,-1.03393 z m 43.4146009,1.34256 c 0,0 -0.5143885,-1.44029 -0.5143885,-1.44029 -0.6573927,0.39814 0.1183096,1.12857 0.5143885,1.44029 z m -61.1096549,-0.10287 c 0.532908,-0.30041 0.411515,-0.68209 0.411515,-1.23454 -0.491758,0.41974 -0.410485,0.62755 -0.411515,1.23454 z m 15.328854,-1.13167 c 0,0 0.102877,0.10288 0.102877,0.10288 0,0 0,-0.10288 0,-0.10288 0,0 -0.102877,0 -0.102877,0 z m 42.0771854,1.74894 c 0.5565727,-0.33642 0.1481446,-0.7932 -0.1028769,-1.23454 0,0 0.1028769,1.23454 0.1028769,1.23454 z m -41.5627934,-1.03393 c -0.157406,0.004 -0.462953,0.14711 -0.617269,0.2109 0.168718,0.36419 0.578172,1.03392 1.029811,1.04524 0.151228,0.004 0.631672,-0.17078 0.821997,-0.22221 -0.186211,-0.36316 -0.796279,-1.04628 -1.234539,-1.03393 z m 43.3333277,0.51953 c -0.1080212,0.44444 0.4855877,1.17281 0.8014235,1.4403 0,0 0.6172692,-0.9259 0.6172692,-0.9259 0,0 -0.9259039,-1.13167 -0.9259039,-1.13167 -0.1985565,0.16666 -0.429005,0.35082 -0.4927888,0.61727 z m -104.7495647,0.22428 c 0,0 -0.10493,1.73041 -0.10493,1.73041 1.25306,-0.67282 1.02878,-1.24997 1.02878,-2.46908 0,0 -0.92385,0.73867 -0.92385,0.73867 z m 43.926941,0.90738 c 0,0 1.028781,-0.61726 1.028781,-0.61726 0,0 -0.102877,-0.92591 -0.102877,-0.92591 -0.906357,0.47941 -0.763357,0.63887 -0.925904,1.54317 z m 57.9204317,1.02879 c 0,0 0.6347589,-0.92591 0.6347589,-0.92591 0,0 -0.1203704,-1.33741 -0.1203704,-1.33741 0,0 -0.7201462,-0.30864 -0.7201462,-0.30864 -0.1779796,0.44958 -0.034995,2.15736 0.2057577,2.57196 z M -25.112955,143.5488 c 0,0 1.028781,2.67484 1.028781,2.67484 0,0 0.06276,-1.85181 0.06276,-1.85181 0,0 -0.782904,-1.54317 -0.782904,-1.54317 0,0 -0.308635,0.72014 -0.308635,0.72014 z m 5.658301,0.82303 c 0,0 0.102876,-1.13166 0.102876,-1.13166 -0.332295,0.40534 -0.317892,0.66459 -0.102876,1.13166 z m -3.430987,0.82303 c 0.116249,0.34875 0.153285,0.60286 0.34464,0.9259 0.383738,-0.92282 -0.368304,-1.89913 -0.617269,-2.77771 -0.265428,0.66768 0.06378,1.22528 0.272629,1.85181 z m -21.568418,-1.4403 c 0,0 0.823027,0.82303 0.823027,0.82303 0,0 0,-1.13166 0,-1.13166 0,0 -0.823027,0.30863 -0.823027,0.30863 z m -62.239251,0.84052 c -0.16976,0.30246 -0.10494,1.43515 -0.10494,1.83432 0,0 1.1296,-0.93517 1.1296,-0.93517 0,0 0.10494,-1.73967 0.10494,-1.73967 -0.35802,0.15226 -0.93517,0.49382 -1.1296,0.84052 z m 43.824051,0.39402 c 0.491758,-0.41974 0.410485,-0.62756 0.411515,-1.23454 -0.532912,0.30041 -0.411515,0.68209 -0.411515,1.23454 z m 17.592173,-0.79936 c 0,0 -1.02878,0.28497 -1.02878,0.28497 0,0 0.617269,0.9259 0.617269,0.9259 0,0 1.337415,-0.41151 1.337415,-0.41151 -0.203697,-0.28497 -0.547311,-0.76438 -0.925904,-0.79936 z m -2.366196,-0.0236 c 0,0 0.102877,0.10287 0.102877,0.10287 0,0 0,-0.10287 0,-0.10287 0,0 -0.102877,0 -0.102877,0 z m 42.7973316,0 c -0.2839438,0.715 0.058644,1.21499 0.4115155,1.85181 0.6573888,-0.3395 0.4526615,-0.60081 0.1491711,-1.13167 0,0 -0.3549288,-0.72014 -0.3549288,-0.72014 0,0 -0.2057578,0 -0.2057578,0 z m -16.4090736,1.44029 c -0.340526,0.82611 0.01233,1.72527 0.05144,2.57196 0,0 0.925904,-0.20576 0.925904,-0.20576 0,0 0.201644,-1.95468 0.201644,-1.95468 0,0 -0.09876,-1.74894 -0.09876,-1.74894 -0.347731,0.30453 -0.906357,0.91459 -1.080223,1.33742 z m 18.7752737,-0.41151 c 0,0 0.9259039,0.82302 0.9259039,0.82302 0,0 0.82302691,-0.9259 0.82302691,-0.9259 0,0 -0.92590391,-0.82303 -0.92590391,-0.82303 0,0 -0.8230269,0.92591 -0.8230269,0.92591 z m -62.0355587,1.13166 c 1.044213,-0.66254 1.028781,-0.68826 1.028781,-1.85181 -0.988658,0.57715 -1.028781,0.79833 -1.028781,1.85181 z m 17.481065,-1.41869 c -0.689285,-0.27469 -0.609038,0.64504 -0.506161,1.00717 0,0 1.131662,-0.30863 1.131662,-0.30863 -0.150206,-0.23559 -0.354933,-0.59052 -0.625501,-0.69854 z m 27.991101,2.65322 c 0,0 0.407398,-0.10287 0.407398,-0.10287 0,0 0,-1.23454 0,-1.23454 0,0 -0.09876,-1.13166 -0.09876,-1.13166 -0.203697,0.44135 -0.303491,1.9372 -0.308635,2.46907 z m 12.6499057,-1.33741 c -0.04115,0.28394 0.3929954,1.22939 0.5185062,1.54317 0.2829134,-0.22016 0.8724085,-0.76232 0.9022435,-1.13166 0.018508,-0.23971 -0.4650108,-1.16767 -0.5936089,-1.44029 -0.2973196,0.22324 -0.7715885,0.6399 -0.8271408,1.02878 z m -102.1539427,1.74893 c 0,0 0.92384,-0.84052 0.92384,-0.84052 0,0 0.10494,-1.83431 0.10494,-1.83431 -1.3045,0.70059 -1.02878,1.41148 -1.02878,2.67483 z m 63.372975,-2.05757 c 0,0 0.617269,0.65122 0.617269,0.65122 0,0 0.650188,0.31584 0.650188,0.31584 0,0 0.275716,0.78188 0.275716,0.78188 0,0 0,-2.16045 0,-2.16045 0,0 -1.543173,0.41151 -1.543173,0.41151 z m -17.592173,0.92591 c 0.489697,-0.429 0.32098,-0.62447 0.308634,-1.23454 -0.459866,0.41563 -0.313778,0.64916 -0.308634,1.23454 z m 62.96146237,-0.98455 c -0.38682465,-0.18106 -1.00820772,0.0905 -1.00820772,0.56377 0,0.2284 0.65636231,0.97529 1.31272462,0.40432 0.16666464,-0.14609 0.28806157,-0.31995 0.41562925,-0.49793 0,0 -0.72014615,-0.47016 -0.72014615,-0.47016 z m -47.22109737,0.67591 c 0.423857,0.85184 0.58229,0.74998 1.748927,0.41152 -0.557599,-0.86624 -0.850801,-0.79319 -1.748927,-0.41152 z m 23.559109,0.10288 c 0,0 -0.61727,-0.10288 -0.61727,-0.10288 0,0 0.205758,1.23454 0.205758,1.23454 0.611095,-0.51747 0.708831,-0.7757 0.617269,-1.54317 0,0 -0.205757,0.41151 -0.205757,0.41151 z m 20.3698845,1.02879 c 0.3456707,-0.66357 0.2006134,-0.68209 -0.3086347,-1.4403 -0.7057438,0.55554 -0.3868207,1.08125 0.3086347,1.4403 z m -61.5211665,1.02878 c 1.110054,-0.79422 1.131658,-1.00204 1.131658,-2.26332 -1.058616,0.70883 -1.120343,1.03083 -1.131658,2.26332 z m 62.3441934,-2.26332 c 0,0 0.1028769,0.10287 0.1028769,0.10287 0,0 0,-0.10287 0,-0.10287 0,0 -0.1028769,0 -0.1028769,0 z M -106.79825,148.5899 c 0,0 1.06993,-0.94339 1.06993,-0.94339 0,0 0.0617,-1.11418 0.0617,-1.11418 -1.16767,0.67797 -1.13166,0.81171 -1.13166,2.05757 z m 84.565884,-0.51441 c 0,0 0.102877,-1.33742 0.102877,-1.33742 -0.3611,0.43415 -0.414599,0.85492 -0.102877,1.33742 z m -25.513797,-0.5144 c 0,0 0.411516,-0.10287 0.411516,-0.10287 0,0 -0.308635,-0.51439 -0.308635,-0.51439 0,0 -0.102881,0.61726 -0.102881,0.61726 z m 46.90114773,0.37757 c 0.15740268,-0.0432 0.22427384,-0.16666 0.3199496,-0.27468 0,0 -1.02878073,-0.72015 -1.02878073,-0.72015 -0.3168662,0.55039 0.4125419,1.07404 0.70883113,0.99483 z m 2.89190737,-0.52571 c -0.6080112,-0.47015 -0.8641769,-0.52159 -1.23453849,0.25103 1.20264659,0.63578 1.40634349,0.99277 1.95468459,0.30863 0,0 -0.7201461,-0.55966 -0.7201461,-0.55966 z m -7.5101117,1.07405 c 0,0 0.9259039,1.02878 0.9259039,1.02878 0.229418,-0.29732 0.7921615,-0.94956 0.6933984,-1.33742 -0.059666,-0.23353 -0.4269442,-0.63372 -0.5905176,-0.82302 0,0 -1.0287847,1.13166 -1.0287847,1.13166 z m -57.3031584,0.51439 c 0.534965,-0.45678 0.411511,-0.78907 0.411511,-1.4403 -0.534965,0.45678 -0.411511,0.78908 -0.411511,1.4403 z m 16.666269,-1.13166 c 0.696486,1.09359 0.98557,0.72426 2.057562,0.41151 -0.692368,-0.95471 -1.065817,-0.69854 -2.057562,-0.41151 z m 44.2376279,1.33742 c 0.3960828,-0.70575 0.094649,-0.88681 -0.4115115,-1.4403 -0.6265312,0.57921 -0.1265412,1.02056 0.4115115,1.4403 z m -106.6846989,0.82302 c 1.09565,-0.6399 1.13166,-0.89812 1.13166,-2.05756 -0.97837,0.7006 -1.13166,0.91664 -1.13166,2.05756 z m 84.668764,-0.9259 c 0,0 0.720146,-0.20576 0.720146,-0.20576 0,0 0.102877,-0.9259 0.102877,-0.9259 0,0 -0.823023,1.13166 -0.823023,1.13166 z m -22.696992,-0.69237 c -0.258223,-0.27983 -0.922816,-0.43723 -1.106971,0 -0.12448,0.31789 0.311722,0.80759 0.86212,0.71089 0.206788,-0.036 0.425918,-0.14095 0.61727,-0.22428 -0.115223,-0.1718 -0.227362,-0.34875 -0.372419,-0.48661 z m 24.240165,0.17798 c 0,0 0,-0.51439 0,-0.51439 0,0 0,0.51439 0,0.51439 z m 21.91305813,0.10288 c 0.55965615,0.61521 1.17795579,1.52568 1.92484967,0.61521 0.1255107,-0.15329 0.1553457,-0.23868 0.2355927,-0.40946 -1.33947622,-0.57715 -1.48350701,-1.11005 -2.16044237,-0.20575 z m -18.69400013,-0.2644 c 0,0 -0.175923,0.77879 -0.175923,0.77879 0,0 -0.162546,1.95468 -0.162546,1.95468 0.591548,-1.39503 0.5648,-1.54626 0.823027,-2.98347 0,0 -0.484558,0.25 -0.484558,0.25 z m 22.088981,0.47015 c 0,0 0.823023,0.41152 0.823023,0.41152 0,0 0.2057577,-0.41152 0.2057577,-0.41152 -0.470155,-0.29526 -0.6172692,-0.44855 -1.0287807,0 z m -67.590982,1.85181 c 0.290115,-0.21707 0.396079,-0.33744 0.646074,-0.58846 0.666651,-0.66974 0.588465,-0.65019 0.588465,-1.57198 -1.152239,0.77158 -1.234539,0.87549 -1.234539,2.16044 z m -42.077194,-0.30863 c 0,0 0.92591,-0.5144 0.92591,-0.5144 0,0 0,-1.23453 0,-1.23453 -0.86932,0.58229 -1.11006,0.71603 -0.92591,1.74893 z m 85.553522,-1.30861 c 0,0 -0.192382,1.41148 -0.192382,1.41148 -0.09362,0.60081 -0.360073,1.40943 -0.627558,1.95469 -0.231475,0.47118 -0.569945,0.79319 -0.373445,1.33742 0.713972,-1.65737 1.514365,-3.2489 1.851808,-5.04104 -0.259253,0.0442 -0.531882,0.0659 -0.658423,0.33745 z m -23.723712,0.0741 c 0,0 0.617269,1.02878 0.617269,1.02878 0.7006,-0.25925 0.617269,-0.30864 0.617269,-1.33742 0,0 -1.234538,0.30864 -1.234538,0.30864 z m 41.5627927,-0.30864 c -0.32098,0.55863 -0.9598526,1.03496 -0.3024599,1.5905 0.1244803,0.10597 0.2654238,0.17901 0.4053407,0.26131 0.543197,-0.76953 1.0812497,-1.24174 -0.1028808,-1.85181 z m 3.18716625,1.8014 c 0.25925308,0.0669 0.62035656,-0.14814 0.19135541,-0.61007 0,0 -0.39505232,-0.36727 -0.39505232,-0.36727 -0.26131,-0.23354 -0.2757123,-0.2716 -0.60595426,-0.37757 -0.85080118,0.3035 0.56377387,1.29113 0.80965117,1.35491 z m 1.64811085,-0.3611 c 0.9166458,0.66562 1.1810431,0.45781 1.7489308,-0.51439 -0.8734389,-0.61521 -1.1645839,-0.30144 -1.7489308,0.51439 z m 4.1737704,-0.18415 c -0.07716,-0.2428 -0.7232373,-0.64608 -0.9732284,-0.62859 -0.1748924,0.0124 -0.2119285,0.0998 -0.3199535,0.19547 0,0 1.2345384,0.82302 1.2345384,0.82302 0.043211,-0.13888 0.1090516,-0.22839 0.058643,-0.3899 z m -52.4236482,-0.33024 c 0.186207,0.29423 0.570971,0.93516 0.943394,0.97734 0.196495,0.0216 0.699569,-0.18518 0.908414,-0.2572 -0.646078,-0.96397 -0.7613,-1.12857 -1.851808,-0.72014 z m -16.049,0.82302 c 0.485584,-0.27365 0.409454,-0.51542 0.411511,-1.02878 -0.427974,0.36625 -0.40431,0.48867 -0.411511,1.02878 z m 38.887962,-0.9259 c 0,0 -0.172835,1.54317 -0.172835,1.54317 0,0 0.05247,0.72015 0.05247,0.72015 0,0 0,0.72015 0,0.72015 0,0 0.737639,-3.08635 0.737639,-3.08635 0,0 -0.617269,0.10288 -0.617269,0.10288 z m -84.668764,2.46907 c 0.29526,-0.21604 0.41563,-0.33744 0.65945,-0.60903 0.58537,-0.65122 0.47221,-0.69135 0.47221,-1.55141 -1.0473,0.74999 -1.13166,0.95471 -1.13166,2.16044 z m 60.69814,-2.05756 c 0,0 0,1.54318 0,1.54318 0,0 1.234539,-0.41152 1.234539,-0.41152 0,0 -0.823027,-1.23454 -0.823027,-1.23454 0,0 -0.411512,0.10288 -0.411512,0.10288 z m 27.674239,0.10288 c 0,0 0.102877,0.10288 0.102877,0.10288 0,0 0,-0.10288 0,-0.10288 0,0 -0.102877,0 -0.102877,0 z m 18.209443,0 c 0,0 -0.72015,0.9259 -0.72015,0.9259 0,0 1.6460539,0.92591 1.6460539,0.92591 0,0 0.51438843,-0.72015 0.51438843,-0.72015 0,0 -1.44029233,-1.13166 -1.44029233,-1.13166 z m 5.761177,1.4691 c 0.1265412,0.071 0.3755058,0.21913 0.5133619,0.24073 0.3611035,0.0566 0.7643874,-0.42797 0.7201501,-0.77467 -0.052469,-0.39916 -0.9197331,-0.96911 -1.3065539,-0.6862 -0.2067842,0.15021 -0.4969027,0.56275 -0.6471042,0.77982 0,0 0.7201461,0.44032 0.7201461,0.44032 z m -110.491199,1.10285 c 1.36417,-0.64401 0.85698,-1.13474 1.13167,-2.26332 -1.26643,0.57098 -1.13167,1.07405 -1.13167,2.26332 z m 42.077194,-0.41151 c 0.736605,-0.52776 1.222193,-0.91767 1.234539,-1.85181 -0.73661,0.52777 -1.222194,0.91768 -1.234539,1.85181 z m 43.105966,1.33742 c 0,0 0.953682,-0.92591 0.953682,-0.92591 0,0 0.383737,-2.26332 0.383737,-2.26332 0,0 -1.337419,3.18923 -1.337419,3.18923 z m 28.0970695,-3.08738 c -0.3734489,0.0658 -0.4886712,0.54937 0.2973157,0.92693 0,0 0.4115154,-0.72014 0.4115154,-0.72014 -0.1831238,-0.0761 -0.5143923,-0.24176 -0.7088311,-0.20679 z m -51.9648125,0.82406 c 0.298347,0.43003 0.713976,1.14503 1.331245,0.90944 0.162547,-0.0627 0.283944,-0.15329 0.355959,-0.31481 0.09259,-0.20884 0.06173,-1.04112 0.06173,-1.31478 -0.535996,0.8148 -0.284974,0.0401 -1.748931,0.72015 z m 46.22626545,-0.30144 c -0.0884746,0.31378 0.39505235,0.64814 0.67076465,0.60904 0.2355927,-0.0339 0.2654277,-0.22839 0.3240673,-0.41048 0,0 -0.7201462,-0.51439 -0.7201462,-0.51439 -0.1069946,0.0947 -0.23044845,0.16152 -0.27468575,0.31583 z m -24.24530945,1.84461 c 0,0 -0.890924,2.57196 -0.890924,2.57196 0,0 1.337419,-0.72015 1.337419,-0.72015 -0.327155,-0.35082 -0.363161,-0.86521 -0.29835,-1.33742 0,0 0.244851,-0.72015 0.244851,-0.72015 0.139917,-0.46912 0.248964,-1.25717 0.259253,-1.74892 0,0 -0.652249,1.95468 -0.652249,1.95468 z M 8.6496122,151.8923 c 0.017497,-0.35699 -0.5185062,-0.60801 -0.8086208,-0.44135 -0.2160462,0.12448 -0.4259177,0.52262 -0.5473108,0.73969 0,0 0.7201462,0.72015 0.7201462,0.72015 0.1759227,-0.22016 0.6213831,-0.74278 0.6357854,-1.01849 z m -71.4159902,0.5041 c 0.528791,-0.21296 0.411511,-0.51645 0.411511,-1.02878 -0.4825,0.30864 -0.409454,0.4897 -0.411511,1.02878 z m 68.4140047,-0.72014 c 0,0 -0.5143884,0.82302 -0.5143884,0.82302 0,0 0.7201462,0.41151 0.7201462,0.41151 0.5061607,-0.61006 0.6378461,-0.89915 -0.2057578,-1.23453 z m -52.7765197,0.51438 c 0,0 0.823027,1.13167 0.823027,1.13167 0,0 1.131661,-0.41152 1.131661,-0.41152 -0.574062,-1.0689 -0.909444,-1.20573 -1.954688,-0.72015 z m 46.70670813,0.30864 c 0,0 1.44029227,0.61727 1.44029227,0.61727 0,0 0,-0.61727 0,-0.61727 -0.59463535,-0.42077 -1.00512037,-0.88578 -1.44029227,0 z m 2.88058847,-0.61727 c 0,0 -0.3086346,0.51439 -0.3086346,0.51439 0.3004031,0.19547 1.2674608,0.88578 1.6028431,0.70678 0.1625469,-0.0864 0.1923819,-0.24485 0.2489646,-0.39814 0,0 -1.5431731,-0.82303 -1.5431731,-0.82303 z M -108.54718,154.7626 c 0.34979,-0.26234 1.11623,-1.01335 1.19339,-1.44029 0,0 -0.0617,-1.23454 -0.0617,-1.23454 -1.17487,1.02466 -1.13166,1.23351 -1.13166,2.67483 z m 43.826113,-0.61727 c 0.758213,-0.54011 1.325074,-0.88166 1.33742,-1.85181 -0.665625,0.47633 -1.307585,0.99175 -1.33742,1.85181 z M 9.2483653,152.2934 c 0,0 -0.7047174,1.33742 -0.7047174,1.33742 0,0 0.3960828,0.9259 0.3960828,0.9259 0.3909384,-0.20164 0.9732284,-0.74998 0.9351619,-1.23453 -0.015437,-0.19547 -0.3240673,-0.80348 -0.4207696,-1.02879 0,0 -0.2057577,0 -0.2057577,0 z m -57.2002813,1.54318 c 0,0 0.925903,-0.30864 0.925903,-0.30864 0,0 -0.72015,-1.02878 -0.72015,-1.02878 0,0 -0.205753,1.33742 -0.205753,1.33742 z m 54.7312043,-1.02879 c 0,0 -0.3086346,0.61727 -0.3086346,0.61727 0,0 0.9259039,0.61727 0.9259039,0.61727 0.190325,-0.6399 -0.034995,-0.94545 -0.6172693,-1.23454 z m -5.7611809,0.41152 c 0,0 2.1604424,0.9259 2.1604424,0.9259 -0.1841504,-0.55966 -0.9721981,-0.87344 -1.4402923,-1.23454 0,0 -0.7201501,0.30864 -0.7201501,0.30864 z m -44.9577734,-0.10288 c 0,0 0.308634,0.30863 0.308634,0.30863 0,0 0,-0.41151 0,-0.41151 0,0 -0.308634,0.10288 -0.308634,0.10288 z m -62.652824,2.3662 c 1.08742,-0.73147 0.82302,-1.08434 0.82302,-2.3662 -1.08948,0.58743 -0.82302,1.29832 -0.82302,2.3662 z m 14.608699,-1.02878 c 0,0 0.102877,-1.33742 0.102877,-1.33742 -0.785987,0.38579 -0.612125,0.78805 -0.102877,1.33742 z m 29.32029,-0.30864 c 0.36213,-0.36728 0.306577,-0.53908 0.308634,-1.02878 -0.36213,0.36728 -0.306577,0.53908 -0.308634,1.02878 z m 68.0024931,-0.72015 c 0,0 -0.6172692,-0.30863 -0.6172692,-0.30863 -0.5864039,0.71809 0.2901185,1.22528 0.6172692,0.30863 z m 5.6840209,1.13166 c 0.09876,0.60699 0.07716,0.94237 0.07716,1.54318 0.306578,-0.25411 1.186187,-1.13269 1.08125,-1.54318 -0.07304,-0.28908 -0.839487,-0.99277 -1.08125,-1.23453 -0.358016,0.41151 -0.16049,0.72632 -0.07716,1.23453 z m -55.692087,-1.04832 c 0,0 -1.1224,0.32818 -1.1224,0.32818 0.216042,0.31069 0.653275,0.95265 1.029811,1.03907 0.245877,0.0566 0.851832,-0.15329 1.130631,-0.21605 0,0 0,-0.41151 0,-0.41151 0,0 -1.038042,-0.73969 -1.038042,-0.73969 z m -20.051993,2.38574 c 0.316866,-0.22633 1.142977,-0.89401 1.275693,-1.23865 0.07407,-0.19136 0.0607,-0.50719 0.06173,-0.71603 -0.848749,0.59977 -1.327131,0.88269 -1.33742,1.95468 z m 70.4715745,-1.44029 c 0,0 1.1316577,0.41151 1.1316577,0.41151 0,0 -0.823023,-0.9259 -0.823023,-0.9259 0,0 -0.3086347,0.51439 -0.3086347,0.51439 z m -96.1705485,1.95468 c 0,0 0,-1.02878 0,-1.02878 0,0 -0.740723,-1.23454 -0.740723,-1.23454 -0.538052,0.82611 -0.08025,1.80346 0.740723,2.26332 z m 43.801426,-2.19748 c 0,0 -1.333301,0.34567 -1.333301,0.34567 0,0 0,1.33742 0,1.33742 0,0 0.514388,-0.10288 0.514388,-0.10288 0,0 -0.197526,-0.41151 -0.197526,-0.41151 -0.127568,-0.28394 -0.117279,-0.69854 0.293206,-0.52365 0.233532,0.0998 0.408424,0.45884 0.731461,0.55554 0.233536,0.07 0.751011,-0.0926 1.024667,-0.13477 -0.166661,-0.35493 -0.602867,-1.02878 -1.032895,-1.06582 z m 20.579757,1.99172 c 0.221186,-0.035 0.485583,-0.0617 0.662533,-0.21501 0.245881,-0.2109 0.419743,-1.48042 0.469124,-1.84255 0,0 -1.131657,2.05756 -1.131657,2.05756 z m -67.084822,-1.02878 c -0.149175,0.90225 -0.04115,1.18516 0.728378,1.74893 0,0 0.129624,-1.54317 0.129624,-1.54317 0,0 -0.644016,-1.02878 -0.644016,-1.02878 -0.128599,0.27983 -0.164604,0.52159 -0.213986,0.82302 z M 7.9109499,154.35097 c 0.00117,0.51336 0.1923819,0.74895 0.5143884,1.13166 0.094649,-0.53085 -0.068928,-0.67488 -0.3086346,-1.13166 0,0 -0.2057538,0 -0.2057538,0 z m -5.6408144,2.16044 c 1.4063474,1.55552 3.5143209,3.22317 5.6408144,3.5781 0.4073977,0.0412 0.823023,0.0226 1.2345385,0 0.034995,-0.24073 0.09979,-0.53805 0.06481,-0.80039 -0.1203665,-0.91356 -1.0617031,-1.6656 -1.8137411,-2.08534 -1.2767189,-0.71192 -2.6491135,-1.12343 -4.0122501,-1.62342 0,0 -2.67483469,-1.12651 -2.67483469,-1.12651 0.0987631,0.49278 1.18104309,1.63782 1.56066299,2.05756 z m 1.9371989,-2.05756 c 0,0 0.1028769,0.10287 0.1028769,0.10287 0,0 0,-0.10287 0,-0.10287 0,0 -0.1028769,0 -0.1028769,0 z m 5.531759,1.85181 c 0,0 0.3322986,1.02878 0.3322986,1.02878 0.161517,-0.15844 0.21913,-0.19033 0.305548,-0.41563 0.187237,-0.48662 -0.04527,-1.94954 -0.202671,-2.46496 -0.850801,0.70471 -0.7736453,0.9331 -0.4351756,1.85181 z M -108.49471,155.99702 c -0.0792,0.26542 -0.0525,1.11623 -0.0525,1.44029 0.40637,-0.29114 1.18515,-0.94956 1.30552,-1.44029 0.0761,-0.31172 -0.0628,-1.04627 -0.071,-1.4403 -0.37448,0.29218 -1.04628,0.9866 -1.18207,1.4403 z m 85.850832,-1.4403 c 0,0 0.102877,0.10288 0.102877,0.10288 0,0 0,-0.10288 0,-0.10288 0,0 -0.102877,0 -0.102877,0 z m -71.294597,0.72015 c 0,0 0.205754,-0.41151 0.205754,-0.41151 0,0 -0.205754,0.41151 -0.205754,0.41151 z m 31.274974,0.9259 c 0.621383,-0.36316 0.568918,-0.69134 0.411511,-1.33741 -0.58229,0.23456 -0.411511,0.7829 -0.411511,1.33741 z m 18.4152,-0.72014 c 0,0 0.617269,0.61727 0.617269,0.61727 0,0 0,-0.72015 0,-0.72015 0,0 -0.617269,0.10288 -0.617269,0.10288 z m 55.408144,1.85181 c 0,0 -0.162547,1.13166 -0.162547,1.13166 0,0 1.440292,-1.17487 1.440292,-1.17487 0.22016,-0.18416 0.514393,-0.40123 0.585377,-0.69443 0.08745,-0.3611 -0.133742,-0.88887 -0.276742,-1.21705 -0.390935,0.32304 -1.424863,1.50202 -1.58638,1.95469 z m -105.283499,-1.12961 c -0.144031,-0.43929 -0.484557,-0.5113 -0.82097,-0.19135 0,0 -0.228388,0.29218 -0.228388,0.29218 0,0 1.049358,1.13165 1.049358,1.13165 -0.0051,-0.33538 0.12448,-0.95471 0,-1.23248 z m 29.464316,0.71809 c -0.09259,0.25 -0.06173,1.03187 -0.06173,1.33742 0,0 1.440296,-1.33742 1.440296,-1.33742 0,0 -0.102876,-1.23453 -0.102876,-1.23453 -0.408429,0.27365 -1.102857,0.76644 -1.275693,1.23453 z m 18.662108,-0.82302 c 0.554512,1.02878 0.806564,0.74998 1.748931,0.61727 -0.447521,-0.94545 -0.867264,-1.00307 -1.748931,-0.61727 z m -60.389508,1.74893 c 0.67797,-0.6718 0.51439,-1.05965 0.51439,-1.95469 -0.71603,0.53085 -0.74792,1.13063 -0.51439,1.95469 z M 7.9109499,155.89414 c 0,0 0.1028769,0.10288 0.1028769,0.10288 0,0 0,-0.10288 0,-0.10288 0,0 -0.1028769,0 -0.1028769,0 z m 1.2345385,0.9259 c 0,0 -0.2057577,-0.82302 -0.2057577,-0.82302 -0.3878512,0.41254 -0.2294181,0.56789 0.2057577,0.82302 z m -35.2872274,-0.61727 c 0,0 0.102881,0.10289 0.102881,0.10289 0,0 0,-0.10289 0,-0.10289 0,0 -0.102881,0 -0.102881,0 z m -64.71039,2.57196 c 0.297316,-1.20573 0.170778,-1.56786 -0.72015,-2.46907 -0.443404,1.0833 -0.152259,1.74995 0.72015,2.46907 z m 1.543173,-0.72015 c 0,-0.71191 0.138887,-1.21602 -0.411515,-1.74892 -0.307605,0.75203 -0.14094,1.18927 0.411515,1.74892 z m 41.562793,-1.44029 c 0.53497,0.9115 0.664594,0.74072 1.543174,0.61727 -0.310692,-0.91048 -0.735579,-0.95986 -1.543174,-0.61727 z m -14.917338,1.64605 c 0.658419,-0.45164 0.514392,-0.68825 0.514392,-1.4403 -0.658423,0.41872 -0.514392,0.71912 -0.514392,1.4403 z m 71.8089894,-1.4403 c 0,0 0.1028769,0.10288 0.1028769,0.10288 0,0 0,-0.10288 0,-0.10288 0,0 -0.1028769,0 -0.1028769,0 z m -101.8494254,2.3662 c 0.02675,-1.22322 0.360073,-1.09256 -0.617269,-2.16044 -0.538053,0.92385 -0.156376,1.55758 0.617269,2.16044 z m -15.299023,-1.23453 c -0.72734,0.83742 -0.54422,1.21601 -0.54422,2.26331 0.41871,-0.30657 1.23968,-1.15223 1.38782,-1.64605 0.0782,-0.25925 0.0525,-1.02672 0.0525,-1.33741 -0.41254,0.19546 -0.59669,0.3755 -0.89607,0.72015 z m 63.343144,-0.5144 c 0.243824,0.49176 0.503077,0.68003 1.028784,0.82303 0,0 0,-1.02878 0,-1.02878 0,0 -1.028784,0.20575 -1.028784,0.20575 z m -3.394981,0.10288 c 0,0 0.102881,0.10288 0.102881,0.10288 0,0 0,-0.10288 0,-0.10288 0,0 -0.102881,0 -0.102881,0 z m -40.225378,1.74893 c 0,0 0.308634,-0.82302 0.308634,-0.82302 0,0 -0.514392,-0.72015 -0.514392,-0.72015 -0.275712,0.59772 -0.322006,1.09257 0.205758,1.54317 z m 43.103909,-1.23659 c -0.566857,-0.44032 -0.812734,-0.19753 -1.438235,-0.10082 0.238676,0.33332 0.685167,0.93104 1.131662,0.94236 0.153288,0.004 0.630641,-0.17078 0.823023,-0.22222 -0.152259,-0.29629 -0.246908,-0.41048 -0.51645,-0.61932 z m -19.492332,1.44235 c -0.06173,0.20678 -0.05144,0.50101 -0.05247,0.72014 0.418717,-0.29937 1.28392,-1.04421 1.423837,-1.54317 0.02776,-0.17283 0.01645,-0.62447 0,-0.82302 -0.362134,0.29423 -1.237626,1.20161 -1.371367,1.64605 z m 16.613801,0.30863 c 0,0 1.646054,-0.51439 1.646054,-0.51439 0,0 -0.925904,-1.13166 -0.925904,-1.13166 -0.832285,0.25411 -0.72015,0.21502 -0.72015,1.64605 z m 60.286632,-1.54317 c 0,0 0.102876,0.10288 0.102876,0.10288 0,0 0,-0.10288 0,-0.10288 0,0 -0.102876,0 -0.102876,0 z m -101.746549,2.05757 c 0.05144,-1.12343 0.302464,-0.93208 -0.411511,-1.95469 -0.533939,0.72015 -0.246908,1.45881 0.411511,1.95469 z m 101.643668,-1.95469 c 0,0 0.102881,0.10288 0.102881,0.10288 0,0 0,-0.10288 0,-0.10288 0,0 -0.102881,0 -0.102881,0 z m -0.102877,0.10288 c 0,0 0.102877,0.10287 0.102877,0.10287 0,0 0,-0.10287 0,-0.10287 0,0 -0.102877,0 -0.102877,0 z m -118.309937,1.02878 c 0.3395,-0.34464 0.30246,-0.45987 0.30863,-0.92591 -0.3395,0.34464 -0.30246,0.45987 -0.30863,0.92591 z M 11.9232,158.56897 c 0,0 0.102877,0.10288 0.102877,0.10288 0,0 0,-0.10288 0,-0.10288 0,0 -0.102877,0 -0.102877,0 z m -103.083964,2.57196 c 0,0 0.144027,-1.23454 0.144027,-1.23454 0,0 -0.864177,-1.23454 -0.864177,-1.23454 -0.669734,1.14298 -0.128594,1.65634 0.72015,2.46908 z m 102.981083,-2.46908 c 0,0 0.102881,0.10288 0.102881,0.10288 0,0 0,-0.10288 0,-0.10288 0,0 -0.102881,0 -0.102881,0 z m -0.102877,0.10288 c 0,0 0.102877,0.10288 0.102877,0.10288 0,0 0,-0.10288 0,-0.10288 0,0 -0.102877,0 -0.102877,0 z m -74.380943,1.02878 c 0.461923,-0.28085 0.483527,-0.39916 0.514392,-0.9259 -0.487645,0.25102 -0.495876,0.40328 -0.514392,0.9259 z m -24.382136,1.02878 c 0.1358,-1.02775 0.144031,-0.85594 -0.411511,-1.74892 -0.435176,0.67282 -0.185181,1.29523 0.411511,1.74892 z m 42.987661,-0.59566 c 0.416656,-0.14609 0.40328,-0.84772 0,-0.97837 -0.235593,-0.0761 -0.837429,0.1718 -1.116229,0.23662 0.228388,0.31789 0.650188,0.9043 1.116229,0.74175 z m -63.694984,0.15432 c -0.679,0.67796 -0.99072,0.72632 -0.69134,1.77876 0.31172,-0.26439 1.36108,-1.59873 1.4835,-1.95469 0.072,-0.20987 0.0586,-0.49689 0.0597,-0.72014 0,0 -0.85183,0.89607 -0.85183,0.89607 z m 60.418313,-0.073 c 0.594635,1.22836 1.302436,0.67076 2.263319,0.41151 -0.614182,-1.2973 -1.236595,-0.7541 -2.263319,-0.41151 z m -17.38642,0.72014 c 0,0 0,0.61727 0,0.61727 0.566861,-0.40534 1.380626,-1.01952 1.440296,-1.74893 0,0 -1.440296,1.13166 -1.440296,1.13166 z m -23.764866,0.51439 c 0.0019,-0.68208 0.189299,-0.96602 -0.205754,-1.54317 -0.327154,0.56377 -0.280856,1.1008 0.205754,1.54317 z m 25.822432,0.20576 c 0.532908,-0.34156 0.411511,-0.65225 0.411511,-1.23454 -0.532908,0.30041 -0.411511,0.68208 -0.411511,1.23454 z m -27.159847,0.82302 c 0.04218,-0.92898 0.360073,-1.28906 -0.514393,-1.95468 -0.311718,0.76233 -0.294228,1.55243 0.514393,1.95468 z m 4.218007,-0.10287 c 0.04938,-1.08023 0.24279,-0.79937 -0.617269,-1.85181 -0.432088,0.84772 -0.09259,1.33845 0.617269,1.85181 z m 37.447667,-0.72015 c 0,0 0.823027,-0.30863 0.823027,-0.30863 0,0 -0.72015,-0.72015 -0.72015,-0.72015 0,0 -0.102877,1.02878 -0.102877,1.02878 z m 34.875712,-1.02878 c 0,0 0.102877,0.10287 0.102877,0.10287 0,0 0,-0.10287 0,-0.10287 0,0 -0.102877,0 -0.102877,0 z m -32.509512,0.9259 c 0.595662,1.2438 1.872381,0.36007 1.952628,0.25103 0.14197,-0.19342 0.104933,-0.7253 0.104933,-0.97118 0,0 -2.057561,0.72015 -2.057561,0.72015 z m 32.406635,-0.72015 c 0,0 0.102877,0.10288 0.102877,0.10288 0,0 0,-0.10288 0,-0.10288 0,0 -0.102877,0 -0.102877,0 z m -1.131661,1.74894 c 0.635785,-0.20782 0.959852,-1.04422 1.131661,-1.64606 -0.492789,0.38374 -1.152238,0.98866 -1.131661,1.64606 z m -72.734894,0.30863 c 0.02162,-0.97529 0.259253,-0.89607 -0.411512,-1.74893 -0.471181,0.6399 -0.111108,1.28598 0.411512,1.74893 z m -20.341076,-0.72015 c -0.49176,0.70266 -1.11314,1.34565 -0.74896,2.26332 0,0 1.55861,-2.16044 1.55861,-2.16044 0,0 0.0874,-1.02878 0.0874,-1.02878 -0.50204,0.24999 -0.58743,0.48455 -0.89709,0.9259 z m 42.974284,1.4403 c 0,0 1.275689,-1.44956 1.275689,-1.44956 0,0 0.06173,-0.91664 0.06173,-0.91664 -0.748954,0.53599 -1.742756,1.34564 -1.337415,2.3662 z m 17.077781,-1.47425 c -0.183124,0.0648 -0.392995,0.12757 -0.513362,0.29218 -0.127567,0.1718 -0.177979,0.65224 -0.206784,0.87343 0,0 2.263319,-0.72014 2.263319,-0.72014 -0.52262,-0.69341 -0.755125,-0.72427 -1.543173,-0.44547 z m -41.357039,1.78288 c 0.193412,-0.29835 0.324067,-1.09359 0.229418,-1.4403 -0.0607,-0.2253 -0.190325,-0.34361 -0.332295,-0.51438 -0.377563,0.74072 -0.351846,1.28083 0.102877,1.95468 z m 5.04103,0.51439 c 0.09671,-1.19544 0.08128,-1.36622 -1.02878,-2.16044 -0.388878,0.94956 0.297319,1.62547 1.02878,2.16044 z m 21.29579,0 c 0,0 0.249995,-0.24794 0.249995,-0.24794 0,0 0.05864,-1.9125 0.05864,-1.9125 -0.485584,0.49176 -0.308634,1.49791 -0.308635,2.16044 z m -23.353351,-0.10288 c 0.0823,-1.02261 0.200613,-0.86314 -0.514392,-1.74892 -0.474269,0.73352 -0.116253,1.29112 0.514392,1.74892 z m 41.459916,-1.54317 c 0.209872,0.39299 0.290115,0.4218 0.720146,0.51439 0,0 0,-0.72014 0,-0.72014 0,0 -0.720146,0.20575 -0.720146,0.20575 z m 29.320289,0.10288 c 0,0 -1.131661,1.54317 -1.131661,1.54317 0,0 0.205757,0.20576 0.205757,0.20576 0,0 0.102877,0 0.102877,0 0,0 1.131662,-1.74893 1.131662,-1.74893 0,0 -0.308635,0 -0.308635,0 z m -30.149486,0.32921 c 0,0 -0.816853,0.11625 -0.816853,0.11625 0,0 -1.543173,0.48044 -1.543173,0.48044 0.739693,0.99381 0.923843,0.31995 2.777712,-0.10288 0,0 -0.417686,-0.49381 -0.417686,-0.49381 z m -62.507774,1.5226 c 0,0 -0.6008,0.9259 -0.6008,0.9259 0,0 -0.0525,1.33742 -0.0525,1.33742 0,0 1.27774,-1.54318 1.27774,-1.54318 0,0 0.61933,-0.9259 0.61933,-0.9259 0,0 0.0576,-1.33742 0.0576,-1.33742 0,0 -1.30141,1.54318 -1.30141,1.54318 z m 19.675459,-0.10288 c 0.05864,0.34052 0.319953,0.59155 0.555542,0.82302 0.05659,-1.22836 0.421804,-1.18721 -0.308635,-2.26332 -0.196495,0.30349 -0.308634,1.08228 -0.246907,1.4403 z m 23.454174,0.10288 c -0.08744,0.25513 -0.05967,0.93413 -0.05967,1.23454 0.0012,0.32509 -0.01851,0.51644 0.102881,0.82302 0,0 1.275689,-1.64605 1.275689,-1.64605 0,0 0.06173,-1.95469 0.06173,-1.95469 -0.44649,0.31995 -1.199559,1.01747 -1.380626,1.54318 z m -19.503651,1.64605 c 0.237649,-1.32507 -0.113166,-1.27363 -0.925904,-2.26332 -0.585373,0.90429 0.304521,1.67485 0.925904,2.26332 z m 1.646054,-0.51439 c 0.04732,-1.02158 0.28497,-0.92076 -0.514393,-1.74893 -0.444433,0.76541 -0.143,1.27157 0.514393,1.74893 z m 38.683235,-1.47528 c -0.182097,-0.2397 -0.475299,-0.17695 -0.721177,-0.10596 0,0 -1.851807,0.65533 -1.851807,0.65533 0.244847,0.34156 0.682079,0.90636 1.131657,0.9506 0,0 1.543173,-0.43621 1.543173,-0.43621 0,-0.24999 0.04218,-0.87343 -0.101846,-1.06376 z m -4.424792,0.44649 c 0,0 0.411511,-0.10287 0.411511,-0.10287 0,0 -0.308634,-0.41152 -0.308634,-0.41152 0,0 -0.102877,0.51439 -0.102877,0.51439 z m -38.622539,0.5144 c -0.103907,0.75512 -0.06995,1.04729 0.557599,1.54317 0.170779,-0.94854 0.452666,-1.58021 -0.411511,-2.26332 -0.10082,0.25102 -0.110078,0.45472 -0.146088,0.72015 z m 68.868732,1.13165 c 0.576115,-0.30451 1.42692,-0.80965 1.337415,-1.54317 -0.620356,0.29321 -1.192358,0.85903 -1.337415,1.54317 z m -44.443386,0.5144 c 0,0 0.205754,-1.74893 0.205754,-1.74893 -0.408424,0.41357 -0.415625,1.22116 -0.205754,1.74893 z m 14.402947,-1.54318 c 0.445464,0.94237 0.905331,1.2366 1.851808,0.82303 -0.605951,-0.84669 -0.853889,-1.14606 -1.851808,-0.82303 z m 28.394385,0.92591 c 0.547315,-0.24691 0.973228,-0.58332 1.234538,-1.13166 -0.54114,0.28908 -1.12343,0.48455 -1.234538,1.13166 z m -62.138436,0.20576 c 0.248964,-0.52469 0.417686,-0.60185 0.102877,-1.13167 -0.194439,0.38065 -0.262337,0.72632 -0.102877,1.13167 z m -25.557002,0.20575 c -0.92282,1.18516 -1.09668,1.08742 -1.08845,2.57196 0.002,0.30143 -0.009,0.4362 0.10287,0.72014 0,0 1.88268,-3.18922 1.88268,-3.18922 0,0 0.072,-1.23454 0.072,-1.23454 -0.43415,0.36213 -0.62859,0.6934 -0.96911,1.13166 z m 103.7444381,0.20576 c 0,0 1.0287847,0.10287 1.0287847,0.10287 0,0 -1.0287847,-1.13165 -1.0287847,-1.13165 0,0 0,1.02878 0,1.02878 z m -82.0361091,0.72014 c 0.135799,0.41049 1.427951,1.91559 1.791107,2.26333 0.548342,-1.02467 1.015409,-1.2757 0.102881,-1.95469 -0.09259,0.15843 -0.226334,0.41768 -0.454722,0.2325 -0.247938,-0.20267 -0.06276,-0.6327 -0.17798,-0.95265 -0.129624,-0.35801 -0.735579,-0.95368 -1.013352,-1.23454 -0.18518,0.36316 -0.377562,1.2582 -0.247934,1.64605 z m 2.819892,0.10288 c 0.218099,-0.8971 0.116253,-1.09565 -0.514392,-1.74893 -0.370362,0.80348 -0.175923,1.24174 0.514392,1.74893 z m 38.064936,-1.23453 c 0,0 0.925904,0.72014 0.925904,0.72014 0,0 0.102876,-1.13166 0.102876,-1.13166 0,0 -1.02878,0.41152 -1.02878,0.41152 z m -19.898704,1.33741 c -0.09568,0.27777 -0.05967,1.29215 -0.05967,1.64605 0.375506,-0.31069 1.236596,-1.29935 1.382683,-1.74893 0.0895,-0.27571 0.05761,-1.20162 0.05761,-1.54317 -0.401226,0.3004 -1.219105,1.17898 -1.380626,1.64605 z m 16.297965,-0.9259 c 0,0 0.514392,-0.10288 0.514392,-0.10288 0,0 -0.411511,-0.51439 -0.411511,-0.51439 0,0 -0.102881,0.61727 -0.102881,0.61727 z m 27.674239,-0.5144 c 0,0 0.102877,0.10289 0.102877,0.10289 0,0 0,-0.10289 0,-0.10289 0,0 -0.102877,0 -0.102877,0 z m 2.571954,0 c 0,0 0.102881,0.10289 0.102881,0.10289 0,0 0,-0.10289 0,-0.10289 0,0 -0.102881,0 -0.102881,0 z m -62.344194,0.10289 c 0,0 -0.925904,1.73349 -0.925904,1.73349 0,0 1.543173,0 1.543173,0 0,0 1.234539,-1.11623 1.234539,-1.11623 0,0 -1.851808,-0.61726 -1.851808,-0.61726 z m 58.12619,0.72014 c 0.307604,0.35082 0.20267,0.43415 0,0.82303 0.84257,-0.24588 1.333302,-0.72632 1.64605,-1.54317 0,0 -1.64605,0.72014 -1.64605,0.72014 z m -49.625364,-0.0185 c 0,0 -0.78496,1.47939 -0.78496,1.47939 0.375506,0.0288 0.980429,0.15535 1.336389,0 0.476325,-0.15946 1.375482,-1.50305 1.64708,-1.97526 0,0 -2.198509,0.49587 -2.198509,0.49587 z m 25.448983,-0.18723 c 0.801423,1.09462 1.048331,0.8436 1.851808,0.61726 -0.478383,-0.98968 -0.96191,-0.91355 -1.851808,-0.61726 z m 25.719554,1.13166 c 0.721177,-0.20576 1.547287,-0.62242 1.851808,-1.33742 -0.578176,0.24485 -1.450585,0.85595 -1.851808,1.33742 z m 18.2094428,-1.13166 c 0,0 0.1028769,0.10288 0.1028769,0.10288 0,0 0,-0.10288 0,-0.10288 0,0 -0.1028769,0 -0.1028769,0 z m 0.2057538,0.10288 c 0,0 0.1028808,0.10287 0.1028808,0.10287 0,0 0,-0.10287 0,-0.10287 0,0 -0.1028808,0 -0.1028808,0 z m -72.0147436,1.44028 c 1.057589,0.25308 1.159436,-0.44649 1.543173,-1.33742 -0.938249,0.18004 -1.045244,0.54217 -1.543173,1.33742 z m -3.086346,-1.20265 c -0.524677,0.0288 -1.047301,0.60081 -1.337416,0.99689 1.153265,0.0103 1.229394,0.0782 2.057562,-0.9259 0,0 -0.720146,-0.071 -0.720146,-0.071 z m 29.63098,0.14094 c -0.272625,0.0895 -0.34567,0.11831 -0.516449,0.34156 0.585377,0.0967 0.709862,0.34876 1.028785,0.82303 0,0 1.028781,-0.30864 1.028781,-0.30864 0,0 0,-0.20575 0,-0.20575 -0.566858,-0.42901 -0.788048,-0.89916 -1.541117,-0.6502 z m 24.997348,-0.17283 c 0,0 0.102877,0.10288 0.102877,0.10288 0,0 0,-0.10288 0,-0.10288 0,0 -0.102877,0 -0.102877,0 z m 44.340508,0 c 0,0 0.102877,0.10288 0.102877,0.10288 0,0 0,-0.10288 0,-0.10288 0,0 -0.102877,0 -0.102877,0 z m -98.24869,1.13166 c 0,0 1.131661,0.0864 1.131661,0.0864 0.565831,-0.0741 0.894012,-0.65328 1.131662,-1.1152 -1.285977,0 -1.387827,-0.034 -2.263323,1.02878 z m 50.101689,0.10288 c 0.282914,0.82919 -0.318923,0.86006 -1.028784,1.8518 0.613155,-0.0946 0.977342,-0.27159 1.543173,-0.49381 1.399146,-0.54937 1.360049,-0.45369 2.469077,-1.56375 0.334356,-0.33538 0.544227,-0.53599 0.823027,-0.9259 0,0 -3.806493,1.13166 -3.806493,1.13166 z m 24.5878892,0.10288 c -0.1841503,-0.85286 -0.3569857,-0.60699 -1.2345385,-1.23454 -0.1409434,0.72323 0.6944289,0.9938 1.2345385,1.23454 z m 23.4562308,-1.23454 c 0,0 0.102881,0.10288 0.102881,0.10288 0,0 0,-0.10288 0,-0.10288 0,0 -0.102881,0 -0.102881,0 z m -2.160442,1.54317 c 0,0 0.10288,0.61727 0.10288,0.61727 0.618296,-0.3323 1.656339,-1.32404 1.954685,-1.95469 0,0 -2.057565,1.33742 -2.057565,1.33742 z m -82.405444,0.20576 c 0,0 -0.102877,-0.41152 -0.102877,-0.41152 -0.740723,1.10594 -1.42692,1.55861 -1.440296,2.98347 0.485588,-0.35596 2.299329,-2.35591 2.674835,-2.88059 -0.290119,-0.44031 -0.295259,-0.5113 -0.308635,-1.02878 -0.48147,0.65431 0.153289,1.17384 -0.823027,1.33742 z m 18.312324,-0.72015 c 0.568914,0.71089 1.071987,0.30349 0.925904,-0.41151 0,0 -0.925904,0.41151 -0.925904,0.41151 z m 22.427446,-0.41151 c 0,0 0.102881,0.10288 0.102881,0.10288 0,0 0,-0.10288 0,-0.10288 0,0 -0.102881,0 -0.102881,0 z m -0.102877,0.10288 c 0,0 0.102877,0.10287 0.102877,0.10287 0,0 0,-0.10287 0,-0.10287 0,0 -0.102877,0 -0.102877,0 z m 1.64605,0 c 0,0 0.102881,0.10287 0.102881,0.10287 0,0 0,-0.10287 0,-0.10287 0,0 -0.102881,0 -0.102881,0 z m -84.565889,1.33741 c 1.19751,0 1.39709,0.037 2.16045,-1.02878 -1.19751,0 -1.39709,-0.037 -2.16045,1.02878 z m 2.77771,-1.02878 c 0,0 -0.51438,1.02878 -0.51438,1.02878 1.03907,-0.001 1.16972,-0.11625 1.74892,-1.02878 0,0 -1.23454,0 -1.23454,0 z m 1.33742,1.02878 c 1.02055,-0.001 1.28907,-0.22119 1.954688,-1.02878 -1.149148,0 -1.239678,0.0298 -1.954688,1.02878 z m 1.954688,0 c 0.23765,0 0.605955,0.0164 0.823027,-0.0617 0.59978,-0.21604 0.474269,-0.61006 1.234539,-0.34978 0,0 0.411511,-0.61727 0.411511,-0.61727 -1.241739,0 -1.637822,-0.0782 -2.469077,1.02878 z m 51.02759,-0.30863 c 0,0 0.411516,-0.10288 0.411516,-0.10288 0,0 -0.308635,-0.61727 -0.308635,-0.61727 0,0 -0.102881,0.72015 -0.102881,0.72015 z m 47.52973171,0 c 0,0 0.1028808,-0.41152 0.1028808,-0.41152 0,0 -0.61726921,-0.30863 -0.61726921,-0.30863 -0.074072,0.4434 0.1265372,0.57818 0.51438841,0.72015 z m -45.88367771,0.10288 c 0.593605,0.81582 1.00409,0.73455 1.64605,0 -0.697516,-0.6255 -0.875492,-0.43724 -1.64605,0 z m 17.506782,-0.036 c 0,0 -1.869297,1.78494 -1.869297,1.78494 0.411515,-0.009 1.619302,-0.13374 1.954688,-0.30966 0.422827,-0.22119 1.652221,-1.53186 1.954685,-1.95366 0,0 -2.040076,0.47838 -2.040076,0.47838 z m 7.389742,0.34465 c 0.531881,-0.15124 1.150177,-0.43107 1.543173,-0.82303 -0.531878,0.15123 -1.150178,0.43106 -1.543173,0.82303 z m -59.977994,-0.72016 c 0.350815,0.56172 0.691341,0.61316 1.131661,0.10288 0,0 -1.131661,-0.10288 -1.131661,-0.10288 z m 1.748931,0.61727 c 0.721176,0.002 1.026724,0.18312 1.543173,-0.41151 -0.773646,-0.0165 -0.958826,-0.22942 -1.543173,0.41151 z m 77.0557744,-0.51439 c 0,0 0.1028808,0.10288 0.1028808,0.10288 0,0 0,-0.10288 0,-0.10288 0,0 -0.1028808,0 -0.1028808,0 z m -74.5825844,0.28497 c 0,0 -0.415629,0.43518 -0.415629,0.43518 0.965001,0.001 1.496879,0.37962 2.160443,-0.51439 0,0 -1.744814,0.0792 -1.744814,0.0792 z m 75.3027344,0.56275 c 0.4711815,0.24176 1.2417396,0.59978 1.74892693,0.69546 -0.37344497,-0.84464 -0.76232653,-0.49794 -1.20779083,-0.72838 -0.2890842,-0.14918 -0.1111084,-0.26234 -1.0555284,-0.71192 -0.130655,0.44546 0.1532888,0.55863 0.5143923,0.74484 z m 2.16044235,-0.74484 c 0.12345385,0.72118 0.92693038,0.82303 1.54317315,1.02878 -0.1882681,-0.7006 -0.8816666,-0.90533 -1.54317315,-1.02878 z M -106.38674,169.37119 c 0,0 0.10288,0.10288 0.10288,0.10288 0,0 0,-0.10288 0,-0.10288 0,0 -0.10288,0 -0.10288,0 z m -0.10288,0.10288 c 0,0 0.10288,0.10287 0.10288,0.10287 0,0 0,-0.10287 0,-0.10287 0,0 -0.10288,0 -0.10288,0 z m 31.069222,0.61727 c 1.056559,0.0483 1.119312,0.34875 1.543173,-0.61727 -0.77879,0 -1.121373,-0.14095 -1.543173,0.61727 z m 1.954685,0.20575 c 0.964997,0.008 1.126517,0.28394 1.64605,-0.72015 -1.002033,0 -1.378566,-0.17386 -1.64605,0.72015 z m 18.106566,0.61727 c 0.774672,-0.0627 0.983513,-0.60492 1.337415,-1.23454 -0.948538,0.0247 -0.982486,0.40946 -1.337415,1.23454 z m 22.969617,-0.95265 c 0,0 -0.556573,0.64401 -0.556573,0.64401 0,0 -0.911502,0.92591 -0.911502,0.92591 0.337443,-0.003 1.033929,-0.0453 1.33742,-0.16255 0.442373,-0.1718 1.645019,-1.29112 1.954684,-1.68926 0,0 -1.824029,0.28189 -1.824029,0.28189 z m -28.627921,-0.0658 c -0.389908,0.16769 -0.721177,0.66665 -0.925904,1.01849 1.241739,0 1.46293,0.0895 2.263323,-1.01849 -0.275716,-0.0103 -1.146064,-0.0689 -1.337419,0 z m 3.703615,-0.10905 c 0,0 -0.925904,0.0988 -0.925904,0.0988 0.159464,0.50307 0.09156,0.55348 -0.102877,1.02878 0.226331,-0.001 0.567888,0.0268 0.76027,-0.10185 0.205758,-0.13683 0.359047,-0.51028 0.593609,-0.64504 0.383733,-0.21913 0.425914,0.16357 0.370361,0.43825 0,0 -0.07819,0.30864 -0.07819,0.30864 0.726321,-0.0597 0.856976,-0.51645 1.131662,-1.12754 0,0 -1.748931,0 -1.748931,0 z m 9.053285,1.43617 c 0,0 1.440292,-0.61727 1.440292,-0.61727 0,0 -0.514388,-0.82302 -0.514388,-0.82302 -0.966028,0.22736 -1.163554,0.46089 -0.925904,1.44029 z m 26.33682,-1.44029 c 0,0 0.102877,0.10288 0.102877,0.10288 0,0 0,-0.10288 0,-0.10288 0,0 -0.102877,0 -0.102877,0 z m 41.151281,0 c 0,0 0.10288,0.10288 0.10288,0.10288 0,0 0,-0.10288 0,-0.10288 0,0 -0.10288,0 -0.10288,0 z m -101.773292,1.32404 c 0.08539,0.14815 0.185181,0.24691 0.356986,0.28292 0.145057,0.0298 0.521593,-0.0422 0.698542,-0.0545 1.02261,-0.071 1.086394,-10e-4 1.748931,-0.93516 0,0 -1.028784,-0.10288 -1.028784,-0.10288 -0.04115,0.51439 -0.167692,0.49176 -0.621383,0.63785 -0.172836,0.0555 -0.479414,0.18415 -0.580234,-0.0576 -0.06996,-0.16563 0.110082,-0.51747 0.172836,-0.68311 0,0 -0.411512,-0.30863 -0.411512,-0.30863 -0.331268,0.33229 -0.605954,0.75512 -0.335382,1.22116 z m 23.482979,-1.22116 c 0,0 -0.514392,1.02878 -0.514392,1.02878 0.608011,-0.10391 0.744837,-0.52159 1.028781,-1.02878 0,0 -0.514389,0 -0.514389,0 z m 61.1096551,0.10288 c 0,0 0.1028769,0.10288 0.1028769,0.10288 0,0 0,-0.10288 0,-0.10288 0,0 -0.1028769,0 -0.1028769,0 z m 14.8144609,0.82302 c 0,0 0.102877,0.51439 0.102877,0.51439 0.726321,-0.26645 1.560663,-0.74175 2.057566,-1.33741 0,0 -2.160443,0.82302 -2.160443,0.82302 z m -62.447073,-0.10287 c 0.504104,0.41665 1.001006,-0.16461 1.234538,-0.61727 0,0 -1.234538,0.61727 -1.234538,0.61727 z m 9.464796,0.82302 c 0.942363,0.16049 1.144007,0.0237 1.851808,-0.58846 0.38065,-0.32921 0.52262,-0.43621 0.823027,-0.85183 -1.227338,0.0267 -1.847694,0.57611 -2.674835,1.44029 z m 11.11496,-0.73661 c 0,0 -0.415625,0.42797 -0.415625,0.42797 0.650188,-0.14814 2.292124,-0.61829 2.674831,-1.13165 0,0 -2.259206,0.70368 -2.259206,0.70368 z m 27.155733,-0.70368 c 0,0 0.1646038,0.42694 0.1646038,0.42694 0,0 1.8929616,0.49896 1.8929616,0.49896 0,0 0,-0.41152 0,-0.41152 0,0 -2.0575654,-0.51438 -2.0575654,-0.51438 z m -108.227879,0.26748 c 0,0 -1.23453,1.06993 -1.23453,1.06993 1.13577,-0.003 1.7767,-0.0339 2.3662,-1.13166 0,0 -1.13167,0.0617 -1.13167,0.0617 z m 1.33742,0.86417 c 1.03084,0 1.20882,-0.0288 1.85181,-0.9259 -1.03084,0 -1.20882,0.0288 -1.85181,0.9259 z m 66.562201,0.10288 c 0.871378,0.56377 1.813745,-0.39814 2.3662,-1.02878 -1.238653,0.0566 -1.393998,0.34053 -2.3662,1.02878 z m -64.298881,-0.30863 c 0,0 1.54318,-0.10288 1.54318,-0.10288 0,0 -0.10288,-0.51439 -0.10288,-0.51439 -0.75204,0 -1.03599,-0.11008 -1.4403,0.61727 z m 1.95469,-0.20576 c 0.46706,-0.0216 1.153262,0 1.440293,-0.41151 -0.651218,0 -0.983513,-0.12345 -1.440293,0.41151 z m 62.344191,-0.41151 c 0,0 0.10288,0.10288 0.10288,0.10288 0,0 0,-0.10288 0,-0.10288 0,0 -0.10288,0 -0.10288,0 z m -41.151282,0.72015 c 0,0 2.130607,-0.17901 2.130607,-0.17901 0,0 0.235593,-0.33539 0.235593,-0.33539 -1.033925,-0.0226 -1.648111,-0.45369 -2.3662,0.5144 z m 37.241912,-0.41151 c 0.740723,0.16666 0.895039,0.32818 1.543173,-0.20576 0,0 -1.543173,0.20576 -1.543173,0.20576 z m 1.954685,0.51438 c 0.956765,0.0772 1.144007,0.07 1.851808,-0.72014 -0.808625,0.002 -1.273632,0.10185 -1.851808,0.72014 z m 12.345385,-0.61727 c 0,0 0.102877,0.10289 0.102877,0.10289 0,0 0,-0.10289 0,-0.10289 0,0 -0.102877,0 -0.102877,0 z m 27.98287337,0.5144 c 0,0 1.54317313,0.51439 1.54317313,0.51439 -0.2078147,-0.77365 -0.731465,-0.7469 -1.44029622,-1.02879 0,0 -0.10287691,0.5144 -0.10287691,0.5144 z M -76.037667,170.81148 c 0,0 0.514388,-0.10287 0.514388,-0.10287 0,0 -0.514388,0.10287 -0.514388,0.10287 z m -0.102881,0 c 0,0 0.102881,0.10288 0.102881,0.10288 0,0 0,-0.10288 0,-0.10288 0,0 -0.102881,0 -0.102881,0 z m 81.0680286,0 c 0,0 0,0.41151 0,0.41151 0,0 2.5719539,0.20576 2.5719539,0.20576 0,0 0,-0.20576 0,-0.20576 0,0 -2.5719539,-0.41151 -2.5719539,-0.41151 z m -52.4678856,0.92591 c 0.883724,0.12345 0.718089,0.2397 1.543173,-0.20576 0,0 -0.205757,-0.51439 -0.205757,-0.51439 0,0 -1.337416,0.72015 -1.337416,0.72015 z m 4.115127,-0.5144 c 0.446491,0.16769 0.988661,0.44135 1.440296,0.20576 -0.454722,-0.15226 -1.003063,-0.49484 -1.440296,-0.20576 z m 13.991439,1.02879 c 0.879606,-0.072 2.237598,-0.43723 3.086346,-0.72015 0,0 0,-0.41151 0,-0.41151 -0.956769,0.13477 -2.447473,0.37962 -3.086346,1.13166 z m -1.851808,-1.02879 c 0,0 0.102877,0.10288 0.102877,0.10288 0,0 0,-0.10288 0,-0.10288 0,0 -0.102877,0 -0.102877,0 z m 45.369289,0.30864 c 0,0 0.308635,0.9259 0.308635,0.9259 0,0 1.954684,-0.72014 1.954684,-0.72014 0,0 -0.102877,-0.5144 -0.102877,-0.5144 0,0 -2.160442,0.30864 -2.160442,0.30864 z m -121.704922,-0.20576 c 0,0 0.10288,0.10288 0.10288,0.10288 0,0 0,-0.10288 0,-0.10288 0,0 -0.10288,0 -0.10288,0 z m 43.72324,1.74893 c 0.574059,0 1.007178,0.11831 1.440296,-0.30863 -0.570975,-0.64711 0.276743,-0.5504 0.615209,-0.72324 0.246908,-0.12654 0.359046,-0.29834 0.516449,-0.5113 -0.488671,0.0597 -0.64093,0.14609 -1.028781,-0.20576 -0.484557,0.39917 -1.227337,1.20882 -1.543173,1.74893 z m 68.134179,-1.25305 c 0,0 -1.8806123,-0.49588 -1.8806123,-0.49588 0,0 -0.2057577,0.51439 -0.2057577,0.51439 0,0 2.3662001,0.61727 2.3662001,0.61727 0,0 -0.2798301,-0.63578 -0.2798301,-0.63578 z m -65.047833,0.32715 c 0.71809,0.2037 1.013352,0.12242 1.234539,-0.61727 -0.678996,0.009 -0.817883,0.0555 -1.234539,0.61727 z m 1.64605,0.20576 c 0.729409,-0.002 0.858007,0.0103 1.131662,-0.72015 -0.717063,0.009 -0.805537,0.0648 -1.131662,0.72015 z m 1.543174,0.10287 c 0.634758,0.13992 0.768501,-0.28394 0.925903,-0.82302 -0.646073,0.0535 -0.680022,0.25925 -0.925903,0.82302 z m 1.234538,0.20576 c 0.584351,-0.0977 0.756156,-0.54423 1.028785,-1.02878 -0.672826,0.0535 -0.773646,0.4578 -1.028785,1.02878 z m 15.123096,-0.82303 c 0,0 1.234539,0 1.234539,0 -0.459863,-0.0617 -0.811708,-0.2253 -1.234539,0 z m -1.801395,0.29321 c -0.224274,-0.19136 -0.900187,-0.38785 -1.180013,-0.28395 -0.208845,0.0772 -0.364191,0.24897 -0.516449,0.40226 0,0 1.954684,0.30863 1.954684,0.30863 -0.07407,-0.16872 -0.109051,-0.3004 -0.258222,-0.42694 z m 54.680796,-0.19033 c 0.06481,0.23868 0.172836,0.6718 0.380646,0.82406 0.277774,0.20472 1.287007,-0.072 1.676915,-0.10391 0,0 -0.308634,-0.9259 -0.308634,-0.9259 0,0 -1.748927,0.20575 -1.748927,0.20575 z m -3.9813882,0.30761 c 0,0 -0.6481308,-0.16152 -0.6481308,-0.16152 0,0 -1.8518077,-0.14609 -1.8518077,-0.14609 0.039093,0.23354 0.05864,0.46193 0.2582227,0.62447 0.3271546,0.26543 2.0483035,0.40328 2.5194889,0.40431 0,0 -0.2777731,-0.72117 -0.2777731,-0.72117 z M -39.104393,172.1489 c 0,0 0.617269,-0.10288 0.617269,-0.10288 0,0 -0.617269,0.10288 -0.617269,0.10288 z m 49.932968,0.10185 c 0,0 -0.757183,-0.10185 -0.757183,-0.10185 0,0 -1.6460537,0 -1.6460537,0 0,0 0.38065,0.82405 0.38065,0.82405 0,0 0.7510116,0.10185 0.7510116,0.10185 0,0 1.6460501,-0.10288 1.6460501,-0.10288 0,0 -0.374475,-0.72117 -0.374475,-0.72117 z m -43.760276,0.51542 c 0.699573,-0.002 1.755102,0.003 2.263323,-0.51439 -0.575089,0.0267 -1.801399,0.20164 -2.263323,0.51439 z m -8.0245,-0.20576 c -0.575089,-0.11317 -0.967054,-0.32612 -1.440292,0.10288 0,0 1.543173,0.20576 1.543173,0.20576 0,0 1.131658,0 1.131658,0 0.484557,0.0638 0.86212,0.18826 1.337419,0 -0.740723,-0.007 -1.836379,-0.16358 -2.571958,-0.30864 z m -20.781396,0.51439 c 0,0 1.440296,0 1.440296,0 0,0 0,-0.20575 0,-0.20575 -0.497933,0 -1.051419,-0.13374 -1.440296,0.20575 z m 26.336819,-0.10288 c 0.509248,0 1.116229,0.10803 1.543173,-0.20575 0,0 -1.543173,0.20575 -1.543173,0.20575 z m -2.469077,-0.10287 c 0,0 0.102881,0.10287 0.102881,0.10287 0,0 0,-0.10287 0,-0.10287 0,0 -0.102881,0 -0.102881,0 z m -21.7073,0.20575 c 0,0 0.720146,-0.10288 0.720146,-0.10288 0,0 -0.720146,0.10288 -0.720146,0.10288 z" />
  </g>
</svg>
