<?xml version="1.0" encoding="UTF-8" standalone="no"?>
<svg xmlns="http://www.w3.org/2000/svg" xmlns:svg="http://www.w3.org/2000/svg" id="svggbaicon" width="128" height="128" viewBox="0 0 128 128" version="1.1">
  <g id="gbaicon">
    <path id="gbaicon01" fill="#1f00cc" d="m 13.256213,67.813784 c 0,0 -0.672139,0 -0.672139,0 0,0 -0.416085,-0.03099 -0.416085,-0.03099 C 10.486358,67.708207 8.8079292,67.278437 7.2709702,66.583918 4.8355855,65.483347 2.6680944,63.577157 1.3916698,61.18695 0.76722031,60.017837 0.33929142,58.73437 0.14725157,57.418755 -0.011501,56.333444 -0.00702029,55.233526 0.00546262,54.137827 c 0,0 0.0320062,-0.324851 0.0320062,-0.324851 0,0 0,-0.25988 0,-0.25988 0,0 0.18403772,-1.429315 0.18403772,-1.429315 0.26917636,-1.573225 0.73935405,-3.106488 1.49022936,-4.515341 1.4876696,-2.792042 3.6631616,-4.778467 6.3914075,-6.279574 1.0840655,-0.596413 2.0628286,-1.034302 3.2326716,-1.429965 1.075103,-0.363855 2.17293,-0.627923 3.296684,-0.778005 0,0 1.216253,-0.120831 1.216253,-0.120831 0,0 2.208459,0 2.208459,0 0.506985,6.54e-4 1.529916,0.151068 2.048424,0.246236 0.998288,0.182551 1.887752,0.423919 2.848592,0.750062 0,0 0.864179,0.303081 0.864179,0.303081 0,0 0.23365,-0.552235 0.23365,-0.552235 0,0 0.134109,-0.226733 0.134109,-0.226733 0,0 0.24037,-0.03288 0.24037,-0.03288 0,0 2.304479,0 2.304479,0 0,0 8.289721,0 8.289721,0 0,0 0.402963,2.468817 0.402963,2.468817 0,0 0.237169,1.26689 0.237169,1.26689 0,0 0.28806,-0.942047 0.28806,-0.942047 0,0 0.543473,-1.689192 0.543473,-1.689192 0,0 0.235249,-0.747144 0.235249,-0.747144 0.02305,-0.06951 0.07745,-0.258595 0.120023,-0.306331 0.05569,-0.06172 0.14691,-0.04906 0.221484,-0.05133 0,0 0.448093,-0.03213 0.448093,-0.03213 0,0 13.282759,0 13.282759,0 0,0 19.620076,0 19.620076,0 0,0 6.529348,0 6.529348,0 0,0 3.296689,0 3.296689,0 0,0 0.480098,0.0325 0.480098,0.0325 0,0 2.880601,0 2.880601,0 0,0 0.512099,0.0325 0.512099,0.0325 0,0 0.864185,0 0.864185,0 0,0 0.32005,0.02948 0.32005,0.02948 1.303949,0.09683 2.55637,0.58862 3.680765,1.246428 0.643971,0.376819 1.20153,0.844271 1.760363,1.336414 0.141771,0.125065 0.281651,0.266381 0.407124,0.40865 0.04864,0.05556 0.120982,0.160139 0.201335,0.161121 0.06527,6.54e-4 0.143698,-0.07502 0.191698,-0.115011 0,0 0.416084,-0.34953 0.416084,-0.34953 0.526832,-0.420673 1.080544,-0.809186 1.664349,-1.144751 1.569282,-0.902094 3.256349,-1.450106 5.057048,-1.575821 0,0 0.38408,-0.02948 0.38408,-0.02948 0,0 12.96269,0 12.96269,0 0.0855,3.25e-4 0.19941,-0.01134 0.26567,0.05197 0.063,0.05976 0.16293,0.368353 0.20164,0.467774 0.0992,0.254022 0.39432,0.977461 0.42888,1.201931 0.17125,-0.161122 0.64046,-0.978437 0.79857,-1.234413 0.29031,-0.469727 0.2391,-0.486618 0.54571,-0.487271 0,0 13.73084,0 13.73084,0 -0.056,0.178696 -0.22628,0.417426 -0.33029,0.584723 0,0 -0.65101,1.039502 -0.65101,1.039502 0,0 -1.86566,2.98857 -1.86566,2.98857 0,0 -5.45618,8.738323 -5.45618,8.738323 0,0 -1.66434,2.663728 -1.66434,2.663728 0,0 -0.64206,1.039502 -0.64206,1.039502 -0.0931,0.189392 -0.15077,0.768257 -0.18531,1.007017 0,0 -0.28358,1.916583 -0.28358,1.916583 0,0 -0.72336,4.872668 -0.72336,4.872668 0,0 -0.22855,1.559255 -0.22855,1.559255 0,0 -0.16418,1.007018 -0.16418,1.007018 0,0 1.24826,0.0325 1.24826,0.0325 0,0 2.4005,0 2.4005,0 0,0 7.6816,0 7.6816,0 0,0 0,6.107076 0,6.107076 0,0 -0.0321,0.487265 -0.0321,0.487265 0,0 0,15.462604 0,15.462604 0,0 -16.99552,0 -16.99552,0 0,0 -4.22488,0 -4.22488,0 0,0 -1.02421,0 -1.02421,0 -0.12386,0 -0.29541,0.03515 -0.38408,-0.06497 -0.21445,0.05295 -0.25607,0.01965 -0.44809,0.03798 0,0 -1.66436,0.02683 -1.66436,0.02683 0,0 -3.936817,0 -3.936817,0 0,0 -3.872802,0 -3.872802,0 0,0 -0.512107,-0.03213 -0.512107,-0.03213 0,0 -0.448089,0.03213 -0.448089,0.03213 0,0 -7.745608,0 -7.745608,0 -0.351118,-6.13e-4 -0.398483,-0.144529 -0.640139,-0.389813 0,0 -0.768158,-0.770207 -0.768158,-0.770207 0,0 -0.832169,-0.672102 -0.832169,-0.672102 0,0 -1.824381,-1.474473 -1.824381,-1.474473 0,0 -1.248257,-1.013835 -1.248257,-1.013835 0,0 0,4.32043 0,4.32043 0,0 -21.828537,0 -21.828537,0 0,0 -7.265502,0 -7.265502,0 0,0 -3.648756,0 -3.648756,0 0,0 -0.321335,-0.06077 -0.321335,-0.06077 0,0 -0.638846,-0.03666 -0.638846,-0.03666 0,0 -9.569989,0 -9.569989,0 0,0 0,-0.09747 0,-0.09747 -1.017171,0.1361 -2.047466,0.12994 -3.072638,0.12994 0,0 -3.360697,0 -3.360697,0 0,0 -6.177282,0 -6.177282,0 0,0 -3.104646,0 -3.104646,0 -0.258931,0.0045 -0.14499,0.06433 -0.480099,0.06497 0,0 -20.32421978,0 -20.32421978,0 0,0 1.24825918,-2.143979 1.24825918,-2.143979 0,0 2.4197026,-4.093042 2.4197026,-4.093042 0,0 4.1928708,-7.146579 4.1928708,-7.146579 0,0 2.4776352,-4.222979 2.4776352,-4.222979 0,0 1.453421,-2.468821 1.453421,-2.468821 z"/>
    <path id="gbaicon00" fill="#ffffff" d="m 18.867038,62.372819 c 0,0 -0.416072,0.21925 -0.416072,0.21925 0,0 -1.088244,0.51326 -1.088244,0.51326 -1.105504,0.448932 -2.2683,0.71043 -3.456687,0.763052 0,0 -0.351934,0.03099 -0.351934,0.03099 0,0 -0.320164,0 -0.320164,0 0,0 -0.416074,-0.03099 -0.416074,-0.03099 C 11.171749,63.795622 9.5131746,63.29666 8.1128855,62.406918 6.7737337,61.556154 5.6189526,60.366899 4.9541595,58.896988 4.2794837,57.405632 4.221522,56.054281 4.2400897,54.446633 c 0,0 0.031786,-0.357317 0.031786,-0.357317 0.084011,-1.948414 0.7015743,-3.945546 1.7942647,-5.554816 0.3578304,-0.5269 0.7726679,-1.039173 1.2184972,-1.491356 1.5603372,-1.58361 3.8721604,-2.859594 5.9823554,-3.502136 0.994099,-0.302778 2.292938,-0.581794 3.328656,-0.593817 0,0 0.416108,-0.0325 0.416108,-0.0325 0,0 0.608102,0 0.608102,0 0,0 0.416073,0.03099 0.416073,0.03099 0.950928,0.04191 1.892256,0.193285 2.816605,0.427819 0,0 0.992193,0.288151 0.992193,0.288151 0.07872,0.02646 0.308163,0.08901 0.344874,0.152731 0.04836,0.06236 0.0071,0.228057 0,0.302098 0,0 -0.123549,0.779622 -0.123549,0.779622 0,0 -0.298632,1.884094 -0.298632,1.884094 0,0 -0.178968,1.136946 -0.178968,1.136946 0,0 -0.70415,-0.269934 -0.70415,-0.269934 0,0 -0.864164,-0.236183 -0.864164,-0.236183 -0.342757,-0.07669 -1.168231,-0.207004 -1.504316,-0.208554 0,0 -0.896179,-0.0325 -0.896179,-0.0325 0,0 -0.576121,0.0325 -0.576121,0.0325 -0.536408,0.0064 -1.579504,0.194003 -2.112418,0.329046 -1.964866,0.498311 -3.485526,1.329584 -4.867566,2.854401 -0.6599559,0.727645 -1.2427831,1.648255 -1.533084,2.598742 -0.2361524,0.773775 -0.2580397,1.220761 -0.2566261,2.01403 6.047e-4,0.403128 0.1013102,0.943019 0.210735,1.331857 0.3712781,1.320487 1.0856665,2.354463 2.3178951,2.979786 0.798896,0.405404 1.677142,0.538915 2.560543,0.528522 0.356239,-0.0042 0.96819,-0.114369 1.312253,-0.218306 0.10484,-0.03175 0.391752,-0.122797 0.462174,-0.194267 0.08754,-0.08833 0.120722,-0.428792 0.146139,-0.561978 0,0 0.25592,-1.429315 0.25592,-1.429315 0,0 -3.168645,0 -3.168645,0 0,0 0.461186,-2.8911 0.461186,-2.8911 0,0 0.10131,-0.617205 0.10131,-0.617205 0,0 0.06919,-0.227716 0.06919,-0.227716 0,0 0.232267,-0.03213 0.232267,-0.03213 0,0 4.99302,0 4.99302,0 0,0 1.536298,0 1.536298,0 0,0 0.800166,0.0325 0.800166,0.0325 0,0 -0.365526,2.338869 -0.365526,2.338869 0,0 -0.438805,2.826138 -0.438805,2.826138 0,0 -0.211801,1.364345 -0.211801,1.364345 -0.03179,0.189052 -0.107308,0.53924 -0.07201,0.714652 0,0 0.214265,-0.552231 0.214265,-0.552231 0,0 0.380245,-0.877081 0.380245,-0.877081 0,0 1.3161,-3.021044 1.3161,-3.021044 0,0 3.923979,-9.030639 3.923979,-9.030639 0,0 1.342046,-3.08601 1.342046,-3.08601 0,0 0.285218,-0.649686 0.285218,-0.649686 0,0 0.144022,-0.260182 0.144022,-0.260182 0,0 0.235446,-0.03213 0.235446,-0.03213 0,0 4.768975,0 4.768975,0 0,0 0.65325,3.963087 0.65325,3.963087 0,0 1.200565,7.30897 1.200565,7.30897 0,0 0.565566,3.443338 0.565566,3.443338 0,0 0.165199,1.007021 0.165199,1.007021 0,0 0.135905,0.617197 0.135905,0.617197 0,0 0.437218,-1.429315 0.437218,-1.429315 0,0 0.907052,-2.826134 0.907052,-2.826134 0,0 2.66711,-8.315983 2.66711,-8.315983 0,0 0.928195,-2.891104 0.928195,-2.891104 0,0 0.190602,-0.58472 0.190602,-0.58472 0,0 0.109417,-0.260182 0.109417,-0.260182 0,0 0.233688,-0.03213 0.233688,-0.03213 0,0 3.552703,0 3.552703,0 0,0 0.23263,0.03213 0.23263,0.03213 0,0 0.143319,0.58504 0.143319,0.58504 0,0 0.340687,1.916576 0.340687,1.916576 0,0 0.961164,5.424883 0.961164,5.424883 0,0 0.351949,1.981546 0.351949,1.981546 0,0 0.178583,1.104461 0.178583,1.104461 0.129902,-0.138066 0.294765,-0.612329 0.379291,-0.8121 0,0 0.722362,-1.721676 0.722362,-1.721676 0,0 2.469618,-5.879659 2.469618,-5.879659 0,0 0.845628,-2.014031 0.845628,-2.014031 0.04588,-0.108774 0.20262,-0.531118 0.276737,-0.58504 0.05579,-0.04029 0.168038,-0.03213 0.235087,-0.03213 0,0 3.584752,0 3.584752,0 0,0 0.800164,0 0.800164,0 0.06213,0 0.183194,-0.0079 0.23229,0.03213 0.06777,0.0556 0.05579,0.211464 0.05579,0.292686 0,0 0,0.357317 0,0.357317 0,0 0.03175,0.487268 0.03175,0.487268 0,0 0.03175,1.169435 0.03175,1.169435 0,0 0.03175,0.487264 0.03175,0.487264 0,0 0.06387,1.981545 0.06387,1.981545 0,0 0.03175,0.552235 0.03175,0.552235 0,0 0,0.454779 0,0.454779 0,0 0.03175,0.389813 0.03175,0.389813 0,0 0.03175,1.169438 0.03175,1.169438 0,0 0.03175,0.487261 0.03175,0.487261 0,0 0.03175,1.169431 0.03175,1.169431 0,0 0.03175,0.454782 0.03175,0.454782 0,0 0,0.487268 0,0.487268 0,0 0.03175,0.389809 0.03175,0.389809 0,0 0,0.45478 0,0.45478 0,0 0.03175,0.389812 0.03175,0.389812 0,0 0.03175,1.201924 0.03175,1.201924 0,0 0.03175,0.422294 0.03175,0.422294 0,0 0,0.487264 0,0.487264 0,0 0.03175,0.357317 0.03175,0.357317 0,0 0,0.487268 0,0.487268 0,0 0.03175,0.389813 0.03175,0.389813 0,0 0,0.454779 0,0.454779 0,0 0.03175,0.389809 0.03175,0.389809 0,0 0,0.454779 0,0.454779 0,0 0.03175,0.389817 0.03175,0.389817 0,0 0.03175,1.169434 0.03175,1.169434 0,0 0.03175,0.422295 0.03175,0.422295 0,0 0,0.422297 0,0.422297 0,0 0.03175,0.487265 0.03175,0.487265 0,0 0,0.454779 0,0.454779 0,0 0.03175,0.357316 0.03175,0.357316 0,0 0.03175,0.747145 0.03175,0.747145 0,0 -4.064824,0 -4.064824,0 0,0 -0.03175,-0.389809 -0.03175,-0.389809 0,0 -0.03175,-1.007014 -0.03175,-1.007014 0,0 -0.03175,-0.552238 -0.03175,-0.552238 0,0 -0.03175,-0.974528 -0.03175,-0.974528 0,0 -0.03175,-0.487264 -0.03175,-0.487264 0,0 0,-0.389813 0,-0.389813 0,0 -0.03175,-0.389813 -0.03175,-0.389813 0,0 -0.03175,-0.974532 -0.03175,-0.974532 0,0 -0.03175,-0.487261 -0.03175,-0.487261 0,0 -0.03175,-0.747144 -0.03175,-0.747144 0,0 -0.03175,-1.007013 -0.03175,-1.007013 0,0 -0.03175,-0.487261 -0.03175,-0.487261 0,0 -0.03175,-0.747144 -0.03175,-0.747144 0,0 -0.03175,-1.007014 -0.03175,-1.007014 0,0 -0.03175,-0.42229 -0.03175,-0.42229 0,0 -0.03175,-1.007017 -0.03175,-1.007017 0,0 -0.03175,-0.552238 -0.03175,-0.552238 0,0 -0.06387,-0.812103 -0.06387,-0.812103 0,0 -0.534504,1.299375 -0.534504,1.299375 0,0 -0.732321,1.721665 -0.732321,1.721665 0,0 -2.779434,6.529352 -2.779434,6.529352 0,0 -0.937796,2.208933 -0.937796,2.208933 0,0 -0.312793,0.649032 -0.312793,0.649032 0,0 -0.176504,0.03288 -0.176504,0.03288 0,0 -2.304487,0 -2.304487,0 0,0 -0.23263,-0.03213 -0.23263,-0.03213 0,0 -0.151446,-0.585048 -0.151446,-0.585048 0,0 -0.396865,-1.981542 -0.396865,-1.981542 0,0 -1.184228,-5.879667 -1.184228,-5.879667 0,0 -0.358488,-1.786635 -0.358488,-1.786635 0,0 -0.172951,-0.942043 -0.172951,-0.942043 -0.136252,0.160441 -0.207572,0.535014 -0.277456,0.747144 0,0 -0.555325,1.786635 -0.555325,1.786635 0,0 -1.878777,6.009596 -1.878777,6.009596 0,0 -0.630512,2.01403 -0.630512,2.01403 -0.03175,0.107188 -0.159912,0.565225 -0.228397,0.616547 -0.05473,0.04059 -0.17119,0.03288 -0.238257,0.03288 0,0 -6.689365,0 -6.689365,0 0,0 -0.221325,-1.396823 -0.221325,-1.396823 0,0 -0.52776,-3.15098 -0.52776,-3.15098 0,0 -0.242861,-1.494277 -0.242861,-1.494277 0,0 -4.448917,0 -4.448917,0 0,0 -0.247446,0.03288 -0.247446,0.03288 0,0 -0.17579,0.291704 -0.17579,0.291704 0,0 -0.344874,0.779622 -0.344874,0.779622 0,0 -0.822261,1.851609 -0.822261,1.851609 0,0 -0.787988,1.786636 -0.787988,1.786636 0,0 -0.392741,0.877081 -0.392741,0.877081 0,0 -0.195912,0.390137 -0.195912,0.390137 0,0 -0.23368,0.03213 -0.23368,0.03213 0,0 -4.064824,0 -4.064824,0 z m 37.959739,1.299375 c 0,0 0.247446,-1.624218 0.247446,-1.624218 0,0 0.635323,-4.060546 0.635323,-4.060546 0,0 1.056223,-6.756733 1.056223,-6.756733 0,0 0.480393,-3.08601 0.480393,-3.08601 0,0 0.565247,-3.605759 0.565247,-3.605759 0,0 0.120038,-0.779626 0.120038,-0.779626 0,0 0.08296,-0.291704 0.08296,-0.291704 0,0 0.237204,-0.03288 0.237204,-0.03288 0,0 11.010253,0 11.010253,0 0,0 -0.210746,1.494278 -0.210746,1.494278 0,0 -0.429525,2.858619 -0.429525,2.858619 0,0 -7.169468,0 -7.169468,0 0,0 -0.283804,1.884094 -0.283804,1.884094 0,0 -0.260145,1.68918 -0.260145,1.68918 0,0 6.273255,0 6.273255,0 0,0 -0.151446,1.039502 -0.151446,1.039502 0,0 -0.310299,2.078997 -0.310299,2.078997 0,0 -0.17862,1.266886 -0.17862,1.266886 0,0 -6.241277,0 -6.241277,0 0,0 -0.157455,1.039495 -0.157455,1.039495 0,0 -0.418647,2.53378 -0.418647,2.53378 0,0 7.169472,0 7.169472,0 0,0 -0.509548,3.345886 -0.509548,3.345886 0,0 -0.107301,0.714656 -0.107301,0.714656 0,0 -0.07449,0.259238 -0.07449,0.259238 0,0 -0.236863,0.03288 -0.236863,0.03288 z m 42.60064,-20.224091 c 0.286261,-0.03515 0.579013,-0.01436 0.864203,0.0189 0,0 0.25591,0 0.25591,0 0.48011,0.05197 0.95157,0.159496 1.40831,0.314117 2.90682,0.983296 4.75647,3.684369 5.38381,6.637518 0.11792,0.555163 0.2485,1.354597 0.24922,1.916575 0,0 0,1.201924 0,1.201924 0,0 -0.0283,0.389809 -0.0283,0.389809 -0.0731,1.011889 -0.29405,2.094584 -0.62191,3.053521 -1.30487,3.815939 -4.54107,7.131284 -8.726877,7.081591 0,0 -0.320163,-0.02986 -0.320163,-0.02986 -0.52811,-0.03704 -1.027102,-0.134173 -1.536329,-0.28165 -0.598821,-0.17348 -1.168864,-0.446336 -1.696346,-0.779626 -2.177718,-1.375706 -3.475891,-3.76623 -3.923342,-6.283116 -0.162368,-0.913783 -0.183912,-1.708346 -0.173367,-2.631231 0,0 0.02835,-0.324812 0.02835,-0.324812 0.05083,-0.751359 0.163086,-1.477387 0.343143,-2.208937 0.745735,-3.028513 2.668697,-5.883885 5.484952,-7.268038 0.576755,-0.283578 1.291143,-0.539241 1.920389,-0.66463 0,0 0.768147,-0.117921 0.768147,-0.117921 z m 5.857183,-0.01361 c 0,0 4.44892,0 4.44892,0 0,0 0.25625,0.05099 0.25625,0.05099 0,0 0.18569,0.436259 0.18569,0.436259 0,0 0.39623,1.039503 0.39623,1.039503 0,0 1.25564,3.313401 1.25564,3.313401 0,0 0.65868,1.754154 0.65868,1.754154 0,0 1.10166,-1.786639 1.10166,-1.786639 0,0 1.99688,-3.248431 1.99688,-3.248431 0,0 0.67983,-1.104469 0.67983,-1.104469 0.27817,-0.449907 0.24215,-0.454129 0.54252,-0.454779 0,0 4.51291,0 4.51291,0 0,0 -0.60655,1.007013 -0.60655,1.007013 0,0 -1.28023,2.046516 -1.28023,2.046516 0,0 -3.81198,6.107047 -3.81198,6.107047 0,0 -1.07638,1.721676 -1.07638,1.721676 0,0 -0.5374,0.87707 -0.5374,0.87707 0,0 -0.18104,1.104468 -0.18104,1.104468 0,0 -0.28803,1.949061 -0.28803,1.949061 0,0 -0.52141,3.540793 -0.52141,3.540793 0,0 -0.18709,1.26689 -0.18709,1.26689 0,0 -0.0872,0.617204 -0.0872,0.617204 0,0 -4.12886,0 -4.12886,0 0,0 0.30675,-1.981553 0.30675,-1.981553 0,0 0.73105,-4.710224 0.73105,-4.710224 0,0 0.30924,-1.981546 0.30924,-1.981546 0,0 0.12427,-0.890717 0.12427,-0.890717 0,0 -0.43849,-0.993373 -0.43849,-0.993373 0,0 -0.76655,-1.689184 -0.76655,-1.689184 0,0 -2.48437,-5.48985 -2.48437,-5.48985 0,0 -0.73613,-1.624218 -0.73613,-1.624218 z M 74.398323,63.542291 c 0,0 0.285581,-1.916568 0.285581,-1.916568 0,0 0.533231,-3.378368 0.533231,-3.378368 0,0 1.595214,-10.135115 1.595214,-10.135115 0,0 0.565247,-3.573274 0.565247,-3.573274 0,0 0.117543,-0.747137 0.117543,-0.747137 0.01398,-0.07831 0.02835,-0.242003 0.09071,-0.291704 0.05295,-0.04093 0.172271,-0.03288 0.237581,-0.03288 0,0 7.169468,0 7.169468,0 0.703483,9.79e-4 1.392597,0.227716 2.016404,0.544112 1.654412,0.83972 2.85914,2.335948 3.046049,4.231078 0,0 0.02835,0.292347 0.02835,0.292347 0.01398,1.188926 -0.437533,2.334644 -1.077653,3.313394 -0.224164,0.34269 -0.474353,0.662358 -0.738077,0.974532 -0.06391,0.07536 -0.29367,0.312529 -0.303912,0.389813 -0.01398,0.110135 0.189921,0.282595 0.26332,0.357316 0.281688,0.285846 0.516287,0.578873 0.745133,0.909562 0.574813,0.831273 0.930735,1.870451 0.919193,2.891108 0,0 -0.02835,0.324813 -0.02835,0.324813 -0.15462,2.147867 -1.745306,4.000444 -3.523577,5.030199 -0.730061,0.422619 -1.776688,0.815678 -2.624542,0.816982 z M 99.587465,47.36965 c -0.266495,0.04448 -0.510497,0.0822 -0.768151,0.169247 -2.088128,0.70588 -3.39431,2.999278 -3.900646,5.056183 -0.111534,0.452837 -0.254854,1.26364 -0.260145,1.721673 0,0 -0.02116,0.48726 -0.02116,0.48726 0,0 0.02116,0.292347 0.02116,0.292347 0,0 0,0.292346 0,0.292346 3.59e-4,0.29726 0.07623,0.806585 0.134476,1.104473 0.267552,1.365637 0.97906,2.821912 2.330071,3.358552 0.327231,0.12994 0.675632,0.183533 1.024176,0.208856 0.108019,0.0079 0.182853,-0.0155 0.288038,-0.02419 0.94066,-0.07635 1.696666,-0.51812 2.400496,-1.130778 1.18998,-1.035601 1.95717,-2.676056 2.3323,-4.199251 0.12495,-0.50773 0.25946,-1.268182 0.26014,-1.786635 0,0 0,-0.844596 0,-0.844596 -6.1e-4,-0.322582 -0.0579,-0.688664 -0.11471,-1.007013 -0.27568,-1.549175 -1.12728,-3.179565 -2.734,-3.609656 -0.31204,-0.08341 -0.51276,-0.09713 -0.832183,-0.08901 z m -19.23591,4.120958 c 0,0 2.272463,0 2.272463,0 0.656428,0 1.254009,0.02343 1.856356,-0.302778 0.993184,-0.537615 1.561927,-1.994211 0.701257,-2.91287 -0.116485,-0.124082 -0.262261,-0.23554 -0.413178,-0.313172 -0.518195,-0.266683 -1.010758,-0.239433 -1.568314,-0.239433 0,0 -1.920389,0 -1.920389,0 -0.06531,0 -0.18463,-0.0079 -0.237581,0.03288 -0.0607,0.04743 -0.07306,0.185764 -0.08508,0.259238 0,0 -0.101292,0.584719 -0.101292,0.584719 0,0 -0.38409,2.208933 -0.38409,2.208933 z M 28.629033,49.768931 c 0,0 -0.269336,0.552227 -0.269336,0.552227 0,0 -0.398141,0.909566 -0.398141,0.909566 0,0 -1.060709,2.436325 -1.060709,2.436325 0,0 2.49651,0 2.49651,0 0,0 -0.134491,-0.71466 -0.134491,-0.71466 0,0 -0.236859,-1.201912 -0.236859,-1.201912 0,0 -0.243213,-1.234405 -0.243213,-1.234405 z m 50.538264,9.907713 c 0,0 2.848587,0 2.848587,0 0.914109,0 1.702095,0.02948 2.528527,-0.450554 1.048531,-0.608753 1.410519,-2.01598 0.512084,-2.927806 -0.157417,-0.159497 -0.28029,-0.256933 -0.48011,-0.358375 -0.643642,-0.326816 -1.198302,-0.258936 -1.888368,-0.258936 0,0 -2.880567,0 -2.880567,0 0,0 -0.450667,2.761172 -0.450667,2.761172 z M 26.772641,70.883739 c 0,0 7.937619,0 7.937619,0 0,0 1.792359,0 1.792359,0 0,0 0.832183,0.05941 0.832183,0.05941 1.863097,0.183194 3.610981,0.66853 5.025,1.987068 0,0 -1.18422,-1.981538 -1.18422,-1.981538 0,0 4.352866,0 4.352866,0 0.06108,0 0.163087,-0.0038 0.218154,0.01928 0.122495,0.05231 0.289814,0.406379 0.364271,0.532743 0,0 0.954108,1.656699 0.954108,1.656699 0,0 2.674767,4.645258 2.674767,4.645258 0,0 0.877296,1.526767 0.877296,1.526767 0,0 0.480427,0.812103 0.480427,0.812103 0,0 1.20632,-2.2739 1.20632,-2.2739 0,0 2.592559,-4.840168 2.592559,-4.840168 0,0 0.849754,-1.591725 0.849754,-1.591725 0,0 0.300397,-0.520078 0.300397,-0.520078 0,0 0.235805,-0.03213 0.235805,-0.03213 0,0 4.032842,0 4.032842,0 0,0 -0.626698,1.13695 -0.626698,1.13695 0,0 -1.312252,2.306392 -1.312252,2.306392 0,0 -4.211107,7.406425 -4.211107,7.406425 0,0 -1.422032,2.501291 -1.422032,2.501291 -0.08013,0.141619 -0.364574,0.681196 -0.47178,0.746491 -0.05541,0.03326 -0.11966,0.03175 -0.181795,0.03288 0,0 -2.240481,0 -2.240481,0 -0.06319,0 -0.163805,0.0038 -0.221329,-0.01928 -0.12601,-0.05133 -0.31098,-0.404753 -0.386956,-0.532743 0,0 -0.985802,-1.656695 -0.985802,-1.656695 0,0 -4.26328,-7.146553 -4.26328,-7.146553 0.135911,0.685414 0.210746,0.970957 0.259086,1.689188 0,0 0.02835,0.324812 0.02835,0.324812 0.01058,0.816333 -0.07873,1.645656 -0.284145,2.436321 -0.129562,0.497654 -0.373833,1.088224 -0.637894,1.526759 -0.231911,0.384945 -0.501531,0.745194 -0.811672,1.069062 -0.777785,0.813078 -1.851908,1.360119 -2.907148,1.692759 -2.142846,0.675999 -4.039231,0.616551 -6.241274,0.616551 0,0 -2.17645,0 -2.17645,0 0,0 -3.168644,0 -3.168644,0 0,0 -4.192855,0 -4.192855,0 -0.06319,0 -0.16379,0.0038 -0.221325,-0.01928 -0.134136,-0.05454 -0.304279,-0.426848 -0.382186,-0.565232 0,0 -1.024527,-1.851605 -1.024527,-1.851605 0,0 -3.040616,-5.48985 -3.040616,-5.48985 0,0 -1.348751,-2.46881 -1.348751,-2.46881 0,0 -0.06389,0 -0.06389,0 0,0 -0.548587,1.039502 -0.548587,1.039502 0,0 -0.960213,1.754155 -0.960213,1.754155 0,0 -2.46001,4.515317 -2.46001,4.515317 0,0 4.000791,0 4.000791,0 0,0 0,3.150981 0,3.150981 0,0 -9.8579733,0 -9.8579733,0 0,0 0.748945,-1.299372 0.748945,-1.299372 0,0 1.2610335,-2.14397 1.2610335,-2.14397 0,0 2.7781628,-4.742706 2.7781628,-4.742706 0,0 1.508164,-2.566261 1.508164,-2.566261 0,0 1.506859,-2.566261 1.506859,-2.566261 0.08648,-0.146192 0.38921,-0.713363 0.496731,-0.778975 0.06636,-0.04029 0.170143,-0.03288 0.245685,-0.03288 0,0 3.040613,0 3.040613,0 0.06107,0 0.163083,-0.0038 0.218151,0.01928 0.128844,0.05454 0.370643,0.5217 0.453843,0.66268 0,0 1.261069,2.111478 1.261069,2.111478 0,0 3.4695,5.8147 3.4695,5.8147 0,0 1.139427,1.916568 1.139427,1.916568 0,0 0.691338,1.136957 0.691338,1.136957 z m 27.717636,14.19565 c 0,0 0.8642,-1.559248 0.8642,-1.559248 0,0 1.363472,-2.306388 1.363472,-2.306388 0,0 4.135241,-7.016616 4.135241,-7.016616 0,0 1.491507,-2.533776 1.491507,-2.533776 0,0 0.307125,-0.519749 0.307125,-0.519749 0,0 0.148611,-0.227717 0.148611,-0.227717 0,0 0.235805,-0.03213 0.235805,-0.03213 0,0 3.040618,0 3.040618,0 0,0 0.235804,0.03213 0.235804,0.03213 0,0 0.144038,0.227717 0.144038,0.227717 0,0 0.253795,0.422301 0.253795,0.422301 0,0 1.273845,2.143963 1.273845,2.143963 0,0 3.392688,5.684753 3.392688,5.684753 0,0 1.222662,2.046512 1.222662,2.046512 0,0 0.71054,1.169438 0.71054,1.169438 0,0 0,-11.72684 0,-11.72684 0,0 2.496513,0 2.496513,0 0,0 0.224202,0.01928 0.224202,0.01928 0,0 0.704152,0.533068 0.704152,0.533068 0,0 1.984388,1.578088 1.984388,1.578088 0,0 5.313078,4.22296 5.313078,4.22296 0,0 2.592525,2.060156 2.592525,2.060156 0,0 0,-8.413438 0,-8.413438 0,0 3.712784,0 3.712784,0 0,0 0,10.882248 0,10.882248 0,0 0,2.533776 0,2.533776 0,0 0,0.55223 0,0.55223 0,0 -0.05118,0.194268 -0.05118,0.194268 0,0 -0.236863,0.03288 -0.236863,0.03288 0,0 -2.272463,0 -2.272463,0 0,0 -0.192038,-0.03288 -0.192038,-0.03288 0,0 -0.672136,-0.530793 -0.672136,-0.530793 0,0 -2.016404,-1.625843 -2.016404,-1.625843 0,0 -5.56914,-4.489329 -5.56914,-4.489329 0,0 -1.504316,-1.214914 -1.504316,-1.214914 0,0 -0.800168,-0.649682 -0.800168,-0.649682 0,0 0,6.561829 0,6.561829 0,0 0,1.689181 0,1.689181 -6.05e-4,0.280667 -0.01058,0.291741 -0.288038,0.292384 0,0 -6.273285,0 -6.273285,0 -0.07272,0 -0.181077,0.0072 -0.243553,-0.03288 -0.07026,-0.04547 -0.276056,-0.451207 -0.332523,-0.55158 0,0 -1.024206,-1.85161 -1.024206,-1.85161 0,0 -2.876084,-5.197495 -2.876084,-5.197495 0,0 -1.134312,-2.046505 -1.134312,-2.046505 0,0 -0.438489,-0.812114 -0.438489,-0.812114 0,0 -2.396008,4.385385 -2.396008,4.385385 0,0 -0.992194,1.819124 -0.992194,1.819124 0,0 -0.612624,1.13695 -0.612624,1.13695 0,0 4.000826,0 4.000826,0 0,0 0,2.403843 0,2.403843 0,0 0,0.519746 0,0.519746 0,0 -0.05118,0.194267 -0.05118,0.194267 0,0 -0.236863,0.03288 -0.236863,0.03288 z m 52.938763,-5.587305 c 0,0 0,1.81912 0,1.81912 0,0 -0.0318,0.389813 -0.0318,0.389813 0,0 0,0.357317 0,0.357317 -0.007,0.610053 -0.19767,1.415996 -0.54668,1.916575 -0.49384,0.708159 -1.39676,0.965756 -2.20716,1.04177 0,0 -0.32017,0.02986 -0.32017,0.02986 0,0 -0.64011,0.0325 -0.64011,0.0325 0,0 -5.057062,0 -5.057062,0 0,0 -1.4723,0 -1.4723,0 -1.02068,0 -2.383195,0.05 -3.360672,-0.149442 -0.671497,-0.137046 -1.304273,-0.419373 -1.693133,-1.020011 -0.177563,-0.274205 -0.282029,-0.562299 -0.363931,-0.877074 -0.08474,-0.326815 -0.150728,-0.896568 -0.151446,-1.234408 0,0 0,-6.431897 0,-6.431897 0,-1.076527 -0.09109,-2.414559 0.528745,-3.345879 0.556603,-0.836803 1.587556,-1.04177 2.511904,-1.107394 0,0 0.384056,-0.02986 0.384056,-0.02986 0,0 5.825199,0 5.825199,0 0,0 3.23264,0 3.23264,0 0,0 0.32013,0.02986 0.32013,0.02986 0.89395,0.06236 1.77668,0.213732 2.39089,0.944972 0.42635,0.507731 0.61679,1.422157 0.61774,2.078997 0,0 0.0317,0.649682 0.0317,0.649682 0,0 0,1.559248 0,1.559248 0,0 -4.06482,0 -4.06482,0 0,0 0,-1.916576 0,-1.916576 0,0 -7.841577,0 -7.841577,0 0,0 0,7.43891 0,7.43891 0,0 7.841577,0 7.841577,0 0,0 0,-2.176452 0,-2.176452 z m 1.31228,-8.608345 c 0,0 14.85103,0 14.85103,0 0,0 0,3.215954 0,3.215954 0,0 -10.8502,0 -10.8502,0 0,0 0,2.046504 0,2.046504 0,0 6.36927,0 6.36927,0 0,0 0,3.118499 0,3.118499 0,0 -6.36927,0 -6.36927,0 0,0 0,2.468806 0,2.468806 0,0 11.04223,0 11.04223,0 0,0 0,3.345887 0,3.345887 0,0 -15.04306,0 -15.04306,0 z m -66.349501,2.046512 c 0,0 -0.03175,0 -0.03175,0 0,0 0.03175,0.0325 0.03175,0.0325 z m -11.618351,8.803251 c 0,0 4.416898,0 4.416898,0 0,0 0.448091,-0.0325 0.448091,-0.0325 0,0 0.128137,0 0.128137,0 0,0 0.32016,-0.02986 0.32016,-0.02986 0.871222,-0.06172 1.931581,-0.228661 2.688537,-0.691589 1.01941,-0.623701 1.332129,-1.543978 1.411162,-2.689704 0,0 0.02835,-0.389809 0.02835,-0.389809 0.0019,-1.324388 -0.270388,-2.552946 -1.504282,-3.252982 -0.615799,-0.349191 -1.60033,-0.546713 -2.304482,-0.547684 0,0 -1.024209,0 -1.024209,0 0,0 -4.608929,0 -4.608929,0 z"/>
  </g>
</svg>
