<?xml version="1.0" encoding="UTF-8" standalone="no"?>
<svg xmlns="http://www.w3.org/2000/svg" xmlns:svg="http://www.w3.org/2000/svg" id="svggbalogo" width="640" height="75" version="1.1" viewBox="0 0 640 75">
  <path id="gbalogo01" fill="#1f00cc" d="m 224.7791,1.4464517 c 8.12596,0 13.06528,3.5286715 17.84526,9.3028603 1.75266,-1.6039408 3.50531,-3.0474882 5.57664,-4.3306415 4.93931,-3.207883 10.51596,-4.8118246 16.09259,-4.8118246 h 74.88635 l -4.93932,7.8593137 94.00628,-0.1603942 8.60395,14.9166566 7.64798,-14.7562624 h 62.45839 L 522.41248,21.656116 V 9.4661596 H 639.99997 V 66.085297 H 531.49445 l -15.77394,-12.35035 v 12.35035 h -87.95162 v 0 l -5.89531,-9.784045 c -4.77997,5.453403 -13.38394,9.784045 -27.56454,9.784045 h -86.51765 l -0.79664,7.859314 h -30.11387 l 0.63732,-4.330642 c -0.31866,0.160394 -0.63732,0.481181 -0.95599,0.641575 -7.01064,4.330643 -14.97727,5.77419 -22.4659,4.009855 -5.73597,-1.283153 -10.83462,-4.491036 -14.65861,-8.661285 -5.09865,4.97222 -11.94994,8.340497 -18.48258,8.340497 L 72.935088,74.105005 70.545097,60.471502 64.490456,74.105005 H 39.793897 c -7.8073,1.283153 -15.6146,0.160394 -22.625236,-3.368277 C 7.6087019,65.604114 1.235396,56.622042 0.27940012,46.51721 -1.4732589,29.675824 5.0593796,16.202714 18.761988,7.7018238 31.986597,-0.47827818 46.00787,-2.2426139 60.507141,2.8899991 l 2.708655,0.9623649 0.955996,-2.2455181 h 27.72388 L 93.966997,14.117589 98.109645,1.4464517 H 224.7791"/>
  <path id="gbalogo00" fill="#ffffff" d="m 149.57408,64.32096 h 30.43255 l 1.75266,-11.548378 h -19.11993 l 1.59334,-9.463256 h 16.57059 l 1.75266,-11.548379 h -16.72993 l 1.43399,-9.463255 h 19.11993 l 1.75264,-11.54838 h -30.11386 l -8.44464,53.571648 m 70.42503,-32.07883 c -6.05463,0 -7.64795,0 -7.64795,0 l 1.75265,-9.944438 c 0,0 0.15933,0 7.01064,0 7.8073,0 6.37331,9.944438 -1.11534,9.944438 m -1.27466,21.653211 c -6.05463,0 -9.55995,0 -9.55995,0 l 1.75265,-10.586015 c 0,0 2.23067,0 9.08196,0 8.60397,-0.160394 8.44463,10.586015 -1.27466,10.586015 m 6.37331,-42.82524 c -5.8953,-0.160395 -20.39457,0 -20.39457,0 h 0.15933 l -8.44463,53.090466 c 0,0 17.36726,0 24.53723,0 10.03795,0 24.85589,-14.916657 11.47194,-27.267007 13.70261,-14.435474 0,-25.663064 -7.3293,-25.823459 M 272.5789,42.66775 c -2.86799,8.821679 -10.03796,13.954292 -15.77393,11.387985 -5.73598,-2.566306 -7.96665,-11.869168 -5.09865,-20.85124 2.86798,-8.821679 10.03795,-13.954292 15.77392,-11.387985 5.89531,2.7267 8.12598,12.029561 5.09866,20.85124 m -4.14265,-31.437254 c -12.10928,-2.7267014 -24.69656,6.896948 -28.04255,21.65321 -3.34599,14.756263 3.66464,29.031343 15.77394,31.918438 12.10927,2.887094 24.69656,-6.896949 28.04254,-21.653212 3.34599,-14.756261 -3.82398,-29.031343 -15.77393,-31.918436 m 29.63586,17.001779 -6.69196,-17.482963 h -12.58729 l 12.90595,28.229373 -3.98332,25.342275 h 10.99395 l 3.34599,-22.455181 19.59792,-31.116467 h -12.74661 l -10.83463,17.482963 m -228.323675,9.623651 4.620646,-10.42562 2.071325,10.42562 H 69.748435 M 133.32215,10.749312 120.89422,40.101444 115.63624,10.749312 H 104.80162 L 90.780344,54.055735 83.610375,10.749312 H 70.226431 L 49.831853,57.263618 52.859174,37.855926 H 32.623928 l -1.593327,9.944437 h 8.444631 l -0.955997,5.293007 c -4.779978,2.085124 -13.065276,1.443548 -16.570594,-4.972219 -2.230658,-4.009854 -4.301982,-12.991927 5.098643,-21.172029 7.647968,-6.736555 20.872577,-7.859313 28.520545,-4.330641 0,0 0.955996,-5.613796 1.752658,-10.906803 C 42.661885,6.5790648 31.189934,10.909706 23.541966,15.561137 13.185344,21.976904 8.2460324,31.921342 9.5206936,45.394451 11.11402,60.952683 31.030601,70.736728 48.079194,60.952683 48.238527,60.79229 48.397859,60.79229 48.397859,60.79229 l -1.593326,3.689065 H 58.276484 L 65.446453,48.44194 h 12.587278 l 2.708656,16.039415 h 18.482587 l 9.400616,-29.833313 6.05465,29.833313 h 7.3293 l 14.18061,-33.041196 1.43399,33.041196 h 10.83462 l -2.07133,-53.732043 h -13.06528 m 496.32121,36.730263 h -28.36121 v -6.576161 h 17.04859 v -8.180102 h -17.04859 v -5.453401 h 28.99854 V 18.76902 h -39.67383 v 37.532232 h 40.15183 v -8.821677 h -1.11533 M 576.90425,18.76902 h -21.82857 c -7.64798,0 -10.19729,2.405912 -10.19729,9.463255 v 18.605723 c 0,7.057343 2.54931,9.463254 10.19729,9.463254 h 21.82857 c 7.64796,0 10.19729,-2.405911 10.19729,-9.463254 v -5.293007 h -1.11533 -8.60397 -1.11532 V 47.31918 H 555.39434 V 27.5907 h 20.87258 v 5.132612 h 1.11532 9.7193 v -4.491037 c 0,-7.217737 -2.54933,-9.463255 -10.19729,-9.463255 m -44.13514,0 h -1.11533 V 41.063808 L 503.77057,19.089809 503.4519,18.76902 h -7.3293 V 49.885487 L 477.79934,19.410598 477.48068,18.76902 h -9.40063 l -0.31866,0.641578 -20.87258,35.12632 -0.956,1.764334 h 11.15329 v 0 h 15.29593 v -8.340495 h -10.67529 l 10.67529,-19.407692 15.1366,27.106612 0.31867,0.641575 h 12.10928 v 0 h 6.05464 V 33.685677 l 27.88321,22.294788 0.31867,0.320787 h 7.3293 V 18.76902 h -8.76329 M 392.55637,47.479575 h -9.87862 V 27.269911 h 14.02127 c 7.48864,0 11.15329,3.047489 11.15329,9.623649 0,8.019708 -3.98332,10.586015 -15.29594,10.586015 M 461.54741,18.76902 h -11.47195 l -0.31866,0.641578 -12.90595,23.898729 -13.86193,-23.898729 -0.31867,-0.481184 h -12.26862 l 0.956,1.603943 2.38999,3.849459 c -3.82398,-3.689065 -9.55996,-5.613796 -17.0486,-5.613796 h -24.69656 v 31.116467 l -18.32325,-30.474889 -0.31866,-0.481184 h -9.40063 l -0.31867,0.481184 -20.87258,35.286714 -0.95599,1.60394 h 8.12596 v 0 h 18.16394 v -8.340495 h -10.6753 l 10.6753,-19.407692 15.13659,27.106612 0.31866,0.481182 h 12.10928 v 0 h 18.64193 c 16.09259,0 24.37789,-6.415766 24.37789,-18.926511 0,-2.245518 -0.31866,-4.170248 -0.79666,-5.934584 l 14.6586,24.379913 0.31866,0.481182 h 7.16997 l 0.31867,-0.481182 20.23525,-35.286714 0.95599,-1.603943"/>
</svg>
