<?xml version="1.0" encoding="UTF-8" standalone="no"?>
<svg
     id="svgvbicon"
     width="128"
     height="128"
     version="1.1"
     xmlns="http://www.w3.org/2000/svg"
     xmlns:svg="http://www.w3.org/2000/svg">
     <path
          id="vbicon"
          fill="#fe0016"
          d="M 71.979715,0 V 128 H 100.79434 C 114.16882,124.5096 115,114.97085 115,114.97085 c 0,0 -0.0211,-34.189152 -0.0211,-43.026879 -1.00425,-5.578553 -5.58052,-5.764966 -5.58052,-5.764966 0,0 -0.0171,-1.558017 0,-2.785538 5.05671,-0.387157 5.6016,-5.885573 5.6016,-5.885573 0,0 -0.0211,-34.154861 0,-42.996136 C 112.81461,4.0700494 100.79434,0 100.79434,0 Z M 86.364621,14.601613 H 100.79434 V 57.507894 H 86.364621 Z m -0.04474,55.890486 H 100.79441 V 114.97085 H 86.31988 Z M 12.999999,0 39.622785,127.98115 66.109038,0 H 51.773699 L 39.622785,71.929508 27.335345,0 Z" />
</svg>
