<?xml version="1.0" encoding="UTF-8" standalone="no"?>
<!-- Created with Inkscape (http://www.inkscape.org/) -->

<svg
   width="833.59265mm"
   height="367.48544mm"
   viewBox="0 0 833.59266 367.48544"
   version="1.1"
   id="svg5"
   xml:space="preserve"
   xmlns="http://www.w3.org/2000/svg"
   xmlns:svg="http://www.w3.org/2000/svg"><defs
     id="defs2" /><g
     id="layer4"
     style="display:inline"
     transform="translate(-0.50007373,-0.74041747)" /><g
     id="layer2"
     style="display:inline"
     transform="translate(-0.50007373,-0.74041747)" /><g
     id="g8535"
     transform="translate(-1.3046882e-5)"
     style="stroke:none;fill:#ffffff;fill-opacity:1"><path
       id="Selection"
       fill="none"
       stroke="#000000"
       stroke-width="1"
       d="m -26.468273,158.97527 -2.53735,15.34583 -2.19604,11.90625 c -3.67242,14.69232 -11.295065,30.0064 -23.31244,39.56844 -4.196292,3.33904 -7.744354,4.9821 -12.435417,7.32896 -5.844646,2.921 -10.982854,5.47952 -17.727083,5.4901 h -4.497917 l -3.175,-0.24077 c -10.83469,-0.7911 -21.45242,-4.89744 -29.36875,-12.46981 -2.81781,-2.69346 -5.3975,-5.95842 -7.49035,-9.24983 -8.17034,-12.85611 -9.61496,-28.81313 -9.44298,-43.65625 l 0.254,-2.91042 c 0.75935,-17.45456 5.61181,-34.59163 15.35641,-49.2125 3.02684,-4.54025 6.31561,-8.68363 10.31875,-12.4116 8.18092,-7.62265 18.534066,-12.554481 29.633337,-13.972651 l 4.7625,-0.36248 2.645833,-0.24077 c 5.487459,-0.0635 11.604625,0.55298 16.933334,1.88648 8.538104,2.13254 17.962562,6.926791 23.696083,13.723941 6.51404,7.72054 9.1731,16.32479 10.36108,26.19375 l 0.33867,4.23333 c 0.0185,1.76477 -0.1561,3.56658 0.26458,5.29167 H -52.66202 c 0,-5.73352 -0.875771,-12.49098 -4.878916,-16.90952 -3.484563,-3.84969 -9.87425,-5.83671 -14.964834,-5.84465 h -2.910416 c -5.749396,0.008 -11.953875,2.27277 -16.404167,5.88962 -5.490104,4.45823 -8.855607,9.97744 -11.721047,16.33538 -4.11691,9.12812 -6.51933,19.61092 -6.57754,29.63333 v 3.175 2.38125 c 0.0529,7.60148 2.62467,17.52865 7.76023,23.28334 1.82563,2.04523 4.077232,3.88408 6.569607,5.05618 7.903104,3.71475 19.666479,2.18811 26.722917,-2.79135 6.371166,-4.49527 11.075458,-13.41173 13.229166,-20.78567 h -26.458333 l 2.711979,-16.13958 1.521354,-9.525 z m -17.72708,76.2 4.28625,-11.1125 9.15458,-22.75417 29.0512497,-72.23125 9.78959,-24.34166 2.0637503,-5.027091 1.12448,-2.11931 1.94468,-0.26194 h 27.78125 l 0.98425,9.525001 1.32292,11.64167 2.23308,20.10833 1.76742,15.08125 6.08542,53.44584 1.85208,16.40416 1.36525,11.64167 h -24.07708 l -1.92088,-0.26194 -0.46831,-1.85473 -0.36777,-4.23333 -0.72761,-8.73125 -0.77258,-8.99583 -0.24077,-2.64584 H -5.0370233 c -0.60325,0 -1.524,-0.0556 -2.04523,0.26988 -0.80433,0.50535 -1.80445,3.74385 -2.17487,4.75721 l -5.7229397,15.61041 -1.44727,3.96875 c -0.18785,0.51065 -0.52917,1.53194 -0.96573,1.85473 -0.4445,0.33073 -1.38642,0.26194 -1.93146,0.26194 z m 170.391673,-41.01042 30.21541,-74.08333 7.09348,-17.4625 2.29923,-5.029731 1.93146,-0.26194 h 21.43125 l 4.23333,0.26459 h 7.9375 l -5.66473,33.602081 -9.26041,55.29792 -5.46894,32.54375 -2.62467,16.13958 H 153.4484 l 2.11667,-12.17083 2.96333,-16.13959 9.05404,-49.47708 3.48986,-19.05 c 0.36247,-1.9341 1.66158,-7.6835 1.4261,-9.26042 l -3.28083,8.73125 -6.985,17.19792 -22.5425,55.82708 -7.51417,18.52084 -1.5875,3.96875 -0.87313,1.59014 -1.93145,0.26194 h -18.52084 l -0.74877,-8.73125 -1.32291,-15.08125 -3.70417,-42.06875 -2.38125,-26.9875 -1.367903,-13.22917 -1.02393,8.46667 -2.34157,16.66875 -7.51681,54.23958 -2.68552,19.31459 -0.98425,7.40833 h -25.13542 l 1.83092,-11.64167 3.61685,-21.69583 11.50673,-69.05625 3.79148,-22.75417 2.00819,-12.435411 h 35.454173 l 0.24077,2.910411 0.508,6.35 1.05833,12.96459 0.35454,5.29166 2.82046,33.86667 0.88371,11.64167 0.98954,11.1125 0.52917,6.61458 z m 83.87291,-96.837501 h 71.4375 l -3.36814,21.695841 -0.70909,4.7625 -0.57943,1.84679 -1.95792,0.26987 h -42.8625 l -2.27013,13.22917 -2.22779,11.64167 h 27.51667 8.46667 l 4.7625,0.26458 -1.60867,9.78958 -2.62467,16.66875 h -38.1 l -2.03729,0.26988 -0.87312,1.84679 -0.79375,4.49792 -2.49238,14.02291 -1.47637,8.73125 h 45.77291 l -2.75696,17.19792 -1.74095,11.1125 h -72.23125 l 2.80193,-17.72708 5.29167,-31.75 10.31875,-62.44167 z m -188.647913,32.808341 -2.7358,6.87916 -4.1566,11.37709 -8.7312503,23.8125 -4.48469,12.7 H 25.919227 l -1.01335,-12.7 -2.20663,-26.72292 z"
       style="display:inline;fill:#ffffff;fill-opacity:1;stroke:none"
       transform="translate(138.66464,128.87059)" /><path
       d="m 557.89668,287.95266 c -0.0423,1.98702 -0.58738,4.36563 -0.94721,6.35 l -1.85208,10.58334 -2.6035,12.96458 c -4.04813,14.55208 -12.18142,29.8741 -24.75971,38.70325 -4.05077,2.84162 -7.54592,4.42648 -11.90625,6.60665 -4.04019,2.01877 -8.3476,4.15925 -12.96458,4.16718 h -12.43542 c -3.63008,-0.005 -8.7286,-1.39171 -12.17083,-2.60879 -2.7305,-0.96837 -6.85007,-2.97392 -9.26042,-4.55612 -15.8459,-10.39284 -22.23823,-28.91632 -23.02933,-47.07467 l -0.254,-2.91042 c -0.25665,-22.07948 3.57187,-42.93657 16.47825,-61.38332 4.93448,-7.05115 10.33727,-12.81642 17.653,-17.44927 3.69623,-2.34156 7.97454,-4.37886 12.17083,-5.64356 19.72469,-5.94255 45.96606,-2.12725 59.02854,15.15533 5.41073,7.15962 8.08038,16.80898 8.72861,25.66458 l 0.24077,3.175 v 4.7625 h -28.31042 c 0,-4.75721 -0.8255,-11.40618 -3.6486,-15.34583 -3.63538,-5.08 -9.66788,-7.14904 -15.66598,-7.41892 l -2.38125,-0.16933 c -6.88711,0.51594 -10.87438,1.21444 -16.66875,5.40279 -4.51644,3.26496 -7.44273,7.48242 -10.1653,12.23963 -5.99545,10.47749 -8.74712,22.93936 -8.92968,34.92499 v 1.85208 2.64583 c 0.14023,8.34496 2.30187,17.72444 8.02746,24.07709 3.73591,4.14337 9.18368,6.60664 14.77168,6.61458 h 4.23334 c 5.69648,-0.0688 11.60727,-2.44475 15.875,-6.16215 5.66737,-4.93712 9.04875,-12.2502 11.37708,-19.23785 H 502.0696 l 3.3311,-19.84375 0.70379,-4.23333 0.61648,-1.58221 1.96321,-0.26988 z m 17.72708,-61.38332 h 71.4375 l -2.98185,19.57917 -1.25148,8.99583 h -45.24375 l -1.16152,7.40833 -3.07181,17.46249 h 40.48125 l -4.23334,26.72292 h -40.74583 l -1.4261,8.73125 -3.60098,20.6375 h 45.77291 l -2.27012,14.2875 -2.22779,14.02292 H 552.8696 l 2.27012,-14.02292 6.17538,-37.30625 10.05416,-60.85416 z m 107.15625,0 h 29.89792 l 1.62983,14.2875 2.64584,23.28333 6.08541,53.44583 3.70417,32.54375 1.54517,14.2875 H 702.0946 l -0.48419,-6.35 -0.35454,-5.02709 -1.27794,-15.34583 h -35.71875 l -2.6326,7.67292 -6.8924,19.05 H 627.4821 l 5.92666,-14.81667 8.73125,-21.69583 24.65917,-61.38333 10.68917,-26.45833 z m 71.17292,0 h 17.72708 13.49375 10.84792 5.82083 c 7.83167,0.0132 16.83279,2.61144 22.48959,8.20208 1.49754,1.47902 2.23308,2.21192 3.43164,3.96875 1.29117,1.88913 2.74373,4.95565 3.43959,7.14375 1.8997,5.97165 2.39977,12.29254 2.38918,18.52084 l -0.24077,3.175 c -0.75671,10.34519 -5.00591,19.98926 -12.20523,27.51665 -2.98714,3.12473 -6.14098,6.17802 -9.779,8.54869 -0.91016,0.59002 -4.05077,2.10608 -4.18041,3.11944 -0.09,0.70908 1.30439,3.88937 1.64041,4.73604 l 4.21217,10.84792 11.50673,29.63333 4.81277,12.43542 h -28.31042 l -1.93146,-0.26194 -1.7727,-3.9714 -5.02709,-12.96458 -10.4775,-26.9875 -2.16958,-5.55625 -1.22238,-2.37596 -2.00554,-0.26987 h -10.05416 l -2.36009,14.2875 -4.36298,25.92916 -2.00818,12.17084 h -26.45834 l 2.27277,-14.02292 4.05607,-24.60625 10.71298,-64.55832 3.61685,-21.96042 z m 16.40417,60.58957 h 9.78958 c 7.09877,0 13.1154,0.0503 19.31458,-4.10633 5.73882,-3.84704 7.44009,-9.38741 7.40834,-16.00199 -0.0185,-4.14602 -0.93663,-9.20221 -4.7625,-11.51467 -3.55336,-2.15106 -7.89517,-2.24366 -11.90625,-2.24366 h -11.64167 c -0.53181,0 -1.53194,-0.0635 -1.96056,0.26987 -0.47096,0.36777 -0.56886,1.53723 -0.66411,2.11138 l -0.97631,5.55625 -2.59556,14.55207 z m -77.25834,-27.51665 -2.59556,6.61458 -5.61975,15.34582 -7.9375,21.69584 -3.69094,10.58333 h 24.60625 l -0.48418,-5.55625 -0.52917,-6.08542 -1.85208,-21.69583 -1.0795,-12.43541 z"
       style="display:inline;fill:#ffffff;fill-opacity:1;stroke:none;stroke-width:1"
       id="path8513" /></g><g
     id="g6048"
     transform="translate(139.49431,-0.49989747)"
     style="display:inline;stroke:none;fill:#ffffff;fill-opacity:1"><path
       style="display:inline;fill:#ffffff;fill-opacity:1;stroke:none"
       d="m 362.73382,-128.57125 c 0,0 3.175,0 3.175,0 3.02948,-0.0503 6.64633,0.49742 9.525,1.44462 1.98702,0.65352 3.82058,1.48696 5.55625,2.667 6.2177,4.2254 9.51441,12.27402 9.525,19.64532 0,0 0,6.085412 0,6.085412 -0.0238,2.002896 -0.7038,6.416146 -1.11125,8.466667 0,0 -1.61132,6.614583 -1.61132,6.614583 0,0 -2.65112,8.202084 -2.65112,8.202084 0,0 -3.99786,9.789583 -3.99786,9.789583 -6.64368,15.234708 -18.24037,32.530521 -28.62262,45.50833 -17.0524,21.3174802 -38.48629,41.88619 -61.48917,56.70286 0,0 -14.81666,8.56721 -14.81666,8.56721 0,0 -8.99584,4.1566 -8.99584,4.1566 0,0 -7.14375,2.66965 -7.14375,2.66965 -12.62856,4.20687 -31.17585,6.92943 -39.85683,-5.95048 -1.38113,-2.04788 -2.27013,-3.99786 -3.00038,-6.35 -1.52135,-4.91596 -1.38641,-8.97732 -1.3282,-14.02292 0.0529,-4.52173 1.89706,-12.23169 3.175,-16.6687498 3.7756,-13.09688 10.36373,-25.6989802 17.40958,-37.3062502 15.98612,-26.336625 39.99442,-52.318708 64.34667,-71.080313 14.20812,-10.948456 32.58608,-22.328186 50.00625,-27.040416 3.02948,-0.82021 6.14362,-1.44198 9.26041,-1.81769 0,0 2.64584,-0.2831 2.64584,-0.2831 z"
       transform="translate(139.16471,129.61101)"
       id="path5745" /><path
       style="display:inline;fill:#ffffff;fill-opacity:1;stroke:none"
       d="m 199.4859,-128.57125 c 0,0 3.43958,0 3.43958,0 2.90777,-0.0503 6.49552,0.53446 9.26042,1.44462 2.20662,0.72496 3.6195,1.34673 5.55625,2.667 12.80319,8.71538 10.48544,27.950586 6.84212,40.811982 0,0 -2.55852,7.9375 -2.55852,7.9375 0,0 -3.98198,9.789584 -3.98198,9.789584 -10.10972,22.693312 -27.36585,45.873453 -44.47645,63.7645832 0,0 -9.00642,9.24983 -9.00642,9.24983 -15.35377,14.6843798 -32.23948,27.8209398 -51.06458,37.7666298 0,0 -9.26042,4.31006 -9.26042,4.31006 0,0 -7.143753,2.70404 -7.143753,2.70404 -12.68677,4.47146 -30.87423,6.79979 -39.90975,-5.61181 -1.21444,-1.66952 -2.49502,-4.36827 -3.10356,-6.35 -1.53194,-5.00856 -1.4949,-8.62542 -1.43669,-13.75833 0.0714,-6.11982 2.29129,-14.54415 4.23333,-20.3729198 4.20952,-12.63121 10.32404,-24.4369202 17.35138,-35.7187502 16.5391,-26.556229 40.735253,-52.527729 65.727793,-71.270809 13.6869,-10.26584 31.01446,-20.76979 47.625,-25.26242 3.02948,-0.82021 6.14362,-1.44198 9.26042,-1.81769 0,0 2.64583,-0.2831 2.64583,-0.2831 z"
       transform="translate(139.16471,129.61101)"
       id="path5743" /><path
       style="display:inline;fill:#ffffff;fill-opacity:1;stroke:none"
       d="m 28.300477,-129.10042 c 0,0 2.11667,0 2.11667,0 3.78883,-0.0608 6.91885,0.10848 10.58333,1.27529 1.81504,0.5768 3.7174,1.50019 5.29167,2.57175 12.81112,8.71802 10.55423,27.305003 7.31044,40.282816 0,0 -2.37067,7.9375 -2.37067,7.9375 0,0 -3.88144,10.054166 -3.88144,10.054166 -11.65489,27.413479 -31.89552,53.739517 -52.9166603,74.6124972 0,0 -5.8208397,5.7970198 -5.8208397,5.7970198 -11.84539,11.03577 -27.286476,23.19073 -41.53958,30.89805 0,0 -8.995833,4.49791 -8.995833,4.49791 0,0 -7.14375,2.94217 -7.14375,2.94217 -12.784667,4.86039 -31.477484,8.06714 -40.629414,-4.97681 -1.19327,-1.69863 -2.50032,-4.61434 -3.10092,-6.61459 -0.45244,-1.51077 -1.11919,-5.05089 -1.24883,-6.61458 0,0 0,-2.38125 0,-2.38125 -0.0794,-0.83344 -0.24607,-1.2409 -0.17992,-2.11667 0,0 0.17992,-3.43958 0.17992,-3.43958 0.0635,-5.24933 2.25425,-13.96735 3.87879,-19.0499998 3.92377,-12.2899 9.54616,-23.8733502 16.176624,-34.9250002 17.388416,-28.982458 43.034479,-57.589208 70.432083,-77.369459 12.49362,-9.02229 27.0589397,-17.67152 42.06875,-21.61646 0,0 9.78958,-1.76477 9.78958,-1.76477 z"
       transform="translate(139.16471,129.61101)"
       id="Selection-3" /></g></svg>
