<?xml version="1.0" encoding="UTF-8" standalone="no"?>
<svg
     version="1.1"
     id="svgwsicon"
     width="128"
     height="128"
     xmlns="http://www.w3.org/2000/svg"
     xmlns:svg="http://www.w3.org/2000/svg">
     <path
          id="wsicon"
          fill="#ff0000"
          d="M 85.346972,64.811815 A 20.205296,13.693593 42.090171 0 1 91.168805,88.51821 20.205296,13.693593 42.090171 0 1 66.997388,85.14284 20.205296,13.693593 42.090171 0 1 61.175561,61.436454 20.205296,13.693593 42.090171 0 1 85.346972,64.811815 Z M 128,59.786402 C 97.710708,2.2159534 39.224155,0.43703725 19.027275,22.821192 14.107673,28.278538 -2.6949278,59.569319 43.926712,88.93646 19.666338,96.100354 3.4216001e-8,68.210615 3.4216001e-8,68.210615 30.277237,125.78107 88.775842,127.55998 108.97273,105.18789 113.89234,99.730555 130.69493,68.439762 84.073291,39.072618 108.32764,31.902693 128,59.786402 128,59.786402 Z M 91.157272,88.520381 C 81.981255,98.687316 62.375208,95.949593 47.375255,82.405738 32.375302,68.861876 27.654657,49.637554 36.830674,39.464583 46.00669,29.291612 65.612738,32.035359 80.612691,45.57922 95.612644,59.123082 100.33932,78.353434 91.157272,88.520381 Z" />
</svg>
