<?xml version="1.0" encoding="UTF-8" standalone="no"?>
<svg xmlns="http://www.w3.org/2000/svg" xmlns:svg="http://www.w3.org/2000/svg" id="svggamecubeicon" version="1.1" viewBox="0 0 128 128" width="128" height="128">
  <path id="gamecubeicon" fill="#463f6f" d="m 10.299803,30.919845 c 0,0 1.209461,-0.901545 1.209461,-0.901545 0,0 2.297985,-1.319513 2.297985,-1.319513 0,0 8.224351,-4.73858 8.224351,-4.73858 0,0 29.51092,-16.9580427 29.51092,-16.9580427 0,0 9.070979,-5.224589 9.070979,-5.224589 0,0 2.29798,-1.3207277 2.29798,-1.3207277 0,0 1.209463,-0.4568476 1.209463,-0.4568476 0,0 1.330412,0.665831 1.330412,0.665831 0,0 2.660818,1.5284963 2.660818,1.5284963 0,0 9.312872,5.363101 9.312872,5.363101 0,0 23.463596,13.5025247 23.463596,13.5025247 0,0 6.89395,3.957322 6.89395,3.957322 0,0 4.23312,2.379011 4.23312,2.379011 0,0 0,0.243003 0,0.243003 0,0 -13.062211,7.567149 -13.062211,7.567149 0,0 -3.386497,1.958614 -3.386497,1.958614 -0.358003,0.212628 -1.180432,0.752097 -1.5723,0.742378 -0.432986,-0.01093 -1.516673,-0.738733 -1.935145,-0.982952 0,0 -4.475015,-2.6208 -4.475015,-2.6208 0,0 -16.811547,-9.872043 -16.811547,-9.872043 0,0 -4.837857,-2.833429 -4.837857,-2.833429 -0.422102,-0.241788 -1.510617,-0.97323 -1.93514,-0.97323 -0.428154,0 -1.84806,0.906405 -2.297981,1.163989 0,0 -5.321642,3.074002 -5.321642,3.074002 0,0 -19.956153,11.542697 -19.956153,11.542697 0,0 -6.168266,3.556365 -6.168266,3.556365 -0.528537,0.308616 -1.845641,1.266052 -2.418929,1.13969 -0.272129,-0.06075 -1.146572,-0.617231 -1.451357,-0.792194 0,0 -3.023658,-1.78365 -3.023658,-1.78365 0,0 -8.345301,-4.932984 -8.345301,-4.932984 -0.897424,-0.540684 -3.945272,-2.427611 -4.716908,-2.673046 z m 28.422398,16.402778 c 0.328976,-0.550403 1.139317,-0.878457 1.693251,-1.196791 0,0 3.749336,-2.134791 3.749336,-2.134791 0,0 14.029783,-8.01914 14.029783,-8.01914 0,0 4.112175,-2.360785 4.112175,-2.360785 0.439037,-0.251509 1.323154,-0.8736 1.814196,-0.805558 0.325347,0.04495 1.129639,0.550404 1.451355,0.736302 0,0 2.781768,1.596537 2.781768,1.596537 0,0 10.40139,5.951172 10.40139,5.951172 0,0 7.256787,4.139572 7.256787,4.139572 0,0 2.177034,1.242971 2.177034,1.242971 0.454755,0.262441 0.811546,0.386371 1.088519,0.850511 0,0 -2.297987,1.215024 -2.297987,1.215024 0,0 -3.749337,2.153012 -3.749337,2.153012 0,0 -12.457476,7.115162 -12.457476,7.115162 0,0 -4.716907,2.69006 -4.716907,2.69006 0,0 -2.05609,1.043702 -2.05609,1.043702 0,0 -2.056089,-1.043702 -2.056089,-1.043702 0,0 -4.716912,-2.69006 -4.716912,-2.69006 0,0 -12.457475,-7.115162 -12.457475,-7.115162 0,0 -3.749336,-2.153012 -3.749336,-2.153012 z M 8.0018234,35.172417 c 0.830897,0.238144 3.8823756,2.071612 4.8378526,2.622015 0,0 8.829085,5.01439 8.829085,5.01439 0,0 2.660823,1.512698 2.660823,1.512698 0.252779,0.140947 1.070375,0.56742 1.210674,0.769114 0.149972,0.217484 0.119733,0.635454 0.119733,0.895469 0,0 0,39.731181 0,39.731181 0.0023,1.160342 0.04717,1.021826 1.814196,2.031512 0,0 4.958803,2.862582 4.958803,2.862582 0,0 21.528456,12.446672 21.528456,12.446672 0,0 5.805426,3.36318 5.805426,3.36318 1.932722,1.14941 1.932722,0.8335 1.935145,2.01693 0,0 0,19.56184 0,19.56184 -0.857512,-0.20534 -3.310304,-1.74721 -4.233125,-2.27452 0,0 -9.070979,-5.20759 -9.070979,-5.20759 0,0 -28.180509,-16.2108 -28.180509,-16.2108 0,0 -9.312869,-5.346087 -9.312869,-5.346087 0,0 -1.9351446,-1.11175 -1.9351446,-1.11175 -0.272129,-0.15673 -0.678508,-0.35599 -0.844205,-0.62937 -0.149971,-0.24787 -0.123362,-0.64639 -0.123362,-0.93192 z M 66.297975,95.194443 c 0,0 0,-27.945481 0,-27.945481 0,0 0.119742,-0.8979 0.119742,-0.8979 0,0 0.968777,-0.663404 0.968777,-0.663404 0,0 1.814197,-1.060709 1.814197,-1.060709 0,0 9.433816,-5.494324 9.433816,-5.494324 0,0 7.861516,-4.570905 7.861516,-4.570905 0,0 20.439937,-11.907208 20.439937,-11.907208 0,0 8.46625,-4.931765 8.46625,-4.931765 0,0 4.59597,-2.55033 4.59597,-2.55033 0,0 0,60.751036 0,60.751036 0,0.27703 0.0266,0.68648 -0.12337,0.92463 -0.14755,0.23329 -0.60111,0.46292 -0.84421,0.60386 0,0 -1.93514,1.12633 -1.93514,1.12633 0,0 -9.43382,5.504047 -9.43382,5.504047 0,0 -28.664292,16.67859 -28.664292,16.67859 0,0 -8.345301,4.86007 -8.345301,4.86007 -0.921611,0.53826 -3.505027,2.1761 -4.354072,2.37902 0,0 0,-19.56184 0,-19.56184 0.0023,-1.181 0.239479,-1.06071 1.935145,-2.03151 0,0 5.805428,-3.3486 5.805428,-3.3486 0,0 21.528454,-12.446672 21.528454,-12.446672 0,0 4.958808,-2.862582 4.958808,-2.862582 1.76702,-1.009686 1.81177,-0.87117 1.81419,-2.031512 0,0 0,-20.047846 0,-20.047846 0,0 -7.982461,4.772599 -7.982461,4.772599 -0.510396,0.292821 -2.297982,1.267264 -2.537455,1.68888 -0.147555,0.261229 -0.123368,0.654896 -0.123368,0.950144 0,0 0,6.804118 0,6.804118 -0.0023,1.097158 0.0023,0.941641 -1.693243,1.910014 0,0 -3.991231,2.291526 -3.991231,2.291526 0,0 -13.545999,7.739684 -13.545999,7.739684 0,0 -3.870281,2.20405 -3.870281,2.20405 -0.684562,0.39367 -1.546906,0.98416 -2.297987,1.16399 z M 36.303276,51.939703 c 0.668831,0.160383 1.776702,0.865093 2.418925,1.233244 0,0 4.11218,2.360784 4.11218,2.360784 0,0 13.183154,7.533132 13.183154,7.533132 0,0 4.112175,2.359571 4.112175,2.359571 1.563842,0.8979 1.569884,0.691345 1.572307,1.822528 0,0 0,28.066981 0,28.066981 0,0 -2.418929,-1.35475 -2.418929,-1.35475 0,0 -3.628392,-2.06553 -3.628392,-2.06553 0,0 -13.304104,-7.608466 -13.304104,-7.608466 0,0 -4.354069,-2.492004 -4.354069,-2.492004 -1.69567,-0.968373 -1.690829,-0.812856 -1.693247,-1.910014 z"/>
</svg>
