<?xml version="1.0" encoding="UTF-8" standalone="no"?>
<svg
     id="wiiulogo"
     width="640"
     height="190"
     version="1.1"
     xmlns="http://www.w3.org/2000/svg"
     xmlns:svg="http://www.w3.org/2000/svg">
    <path
         id="wiiulogo02"
         fill="#009ac7"
         d="m 446.10754,111.38388 c 0,21.54156 14.90209,34.365 36.71338,34.365 H 606.72838 C 625.1314,145.74888 640,133.06182 640,114.82028 V 24.325629 C 640,13.331932 631.79381,1.4157344 621.64347,1.4157344 H 592.961 V 75.873296 c 0,56.551774 -98.6671,56.116334 -98.6671,1.145576 V 0.27015849 h -21.79861 c -14.19179,0 -26.38775,8.97789891 -26.38775,22.90989451 z M 517.2389,65.563764 c 0,43.599426 51.62811,37.363696 51.62811,6.87313 V 0.27015849 H 517.2389 Z" />
    <path
         id="wiiulogo01"
         fill="#8b8b8b"
         d="m 217.26086,10.52092 -33.47258,131.51523 c 0,0 -25.72397,-98.713703 -30.06301,-112.948654 -4.02911,-13.924851 -12.70718,-20.1138181 -24.7945,-20.1138181 -12.39693,0 -20.76508,6.1889671 -25.10444,20.1138181 C 99.79755,43.322447 74.073254,142.03615 74.073254,142.03615 L 40.291069,10.52092 H 1.0479999e-8 c 0,0 38.741410989519998,140.17946 44.010240989519999,156.58022 4.028783,12.68738 13.946911,22.89885 28.203425,22.89885 16.735964,0 24.484571,-12.06816 27.893494,-22.89885 3.71917,-11.14014 28.82361,-103.664877 28.82361,-103.664877 0,0 25.1041,92.524737 28.51368,103.664877 3.71917,10.83069 11.46713,22.89885 27.89381,22.89885 14.56645,0 24.17432,-10.21147 28.51335,-22.89885 5.26851,-16.40076 44.01025,-156.58022 44.01025,-156.58022 z M 394.54123,188.7622 V 64.674057 H 356.11041 V 188.7622 Z M 352.38993,21.661061 c 0,11.759037 10.22773,21.661386 22.62498,21.661386 12.70687,0 22.93459,-9.593225 22.93459,-21.661386 C 397.9495,9.5925746 387.72178,1.4625003e-8 375.01491,1.4625003e-8 362.61766,1.4625003e-8 352.38993,9.5925746 352.38993,21.661061 Z M 316.74945,188.7622 V 64.674057 H 278.317 V 188.7622 Z M 274.59782,21.661061 c 0,11.759037 9.91781,21.661386 22.31505,21.661386 13.01712,0 23.24485,-9.593225 23.24485,-21.661386 C 320.15772,9.5925746 309.92999,1.4625003e-8 296.91287,1.4625003e-8 284.51563,1.4625003e-8 274.59782,9.5925746 274.59782,21.661061 Z" />
</svg>
