<?xml version="1.0" encoding="UTF-8" standalone="no"?>
<svg xmlns="http://www.w3.org/2000/svg" xmlns:svg="http://www.w3.org/2000/svg" width="128.00024" height="128" viewBox="0 0 33.866731 33.866667" version="1.1" id="svg_saturn_icon">
  <path id="saturn_icon" style="fill:#000000;stroke:none" d="m 16.92204,6.35 c 0,0 0.35982,0 0.35982,0 0,0 0.0635,0.004 0.0635,0.004 0,0 0.0889,0 0.0889,0 0,0 0.0508,0.004 0.0508,0.004 0,0 0.0593,0 0.0593,0 0,0 0.0889,0.004 0.0889,0.004 0,0 0.0466,0.004 0.0466,0.004 0,0 0.0339,0 0.0339,0 0,0 0.072,0.004 0.072,0.004 0,0 0.0423,0.004 0.0423,0.004 0,0 0.25822,0.0204 0.25822,0.0204 0,0 0.12699,0.0121 0.12699,0.0121 0.0129,0.002 0.0312,10e-4 0.0422,0.007 0.0114,0.006 0.0285,0.0271 0.0376,0.0374 0,0 0.0701,0.0804 0.0701,0.0804 0,0 0.2148,0.24555 0.2148,0.24555 0,0 0.77038,0.87635 0.77038,0.87635 0.57968,0.65843 1.16012,1.31654 1.74691,1.96859 0.50937,0.56603 1.01802,1.13208 1.53696,1.68919 0,0 0.39423,0.41912 0.39423,0.41912 0,0 0.0928,0.0931 0.0928,0.0931 0,0 0.22876,0.2328 0.22876,0.2328 0,0 0.0423,0.0383 0.0423,0.0383 0,0 0.4233,0.39427 0.4233,0.39427 0,0 0.31326,0.28365 0.31326,0.28365 0,0 0.0889,0.0801 0.0889,0.0801 0.0115,0.0106 0.0317,0.0317 0.0466,0.0358 0.0159,0.004 0.0743,-0.0148 0.0931,-0.0198 0,0 0.23281,-0.0612 0.23281,-0.0612 0,0 0.51221,-0.13034 0.51221,-0.13034 0,0 0.30901,-0.0746 0.30901,-0.0746 0,0 -0.21165,-0.20338 -0.21165,-0.20338 0,0 -0.0847,-0.0843 -0.0847,-0.0843 0,0 -0.28362,-0.2713 -0.28362,-0.2713 0,0 -0.20742,-0.20287 -0.20742,-0.20287 0,0 -0.90589,-0.87245 -0.90589,-0.87245 0,0 -0.0847,-0.0843 -0.0847,-0.0843 0,0 -0.28785,-0.27552 -0.28785,-0.27552 0,0 -0.0847,-0.0843 -0.0847,-0.0843 0,0 -1.76943,-1.70646 -1.76943,-1.70646 0,0 -0.0847,-0.0843 -0.0847,-0.0843 0,0 -0.28362,-0.27128 -0.28362,-0.27128 0,0 -0.0889,-0.0886 -0.0889,-0.0886 0,0 -1.02442,-0.98675 -1.02442,-0.98675 0,0 -0.20742,-0.20287 -0.20742,-0.20287 0,0 -0.16508,-0.15698 -0.16508,-0.15698 0,0 -0.0847,-0.0843 -0.0847,-0.0843 0,0 -0.22435,-0.21608 -0.22435,-0.21608 0,0 -0.13123,-0.12701 -0.13123,-0.12701 0,0 -0.055,-0.055 -0.055,-0.055 0,0 0.38945,0.0819 0.38945,0.0819 0.20855,0.0479 0.41767,0.10058 0.62227,0.16353 0,0 0.27514,0.0847 0.27514,0.0847 0.0217,0.007 0.1,0.0311 0.11392,0.0411 0.0113,0.008 0.041,0.0439 0.0517,0.0563 0,0 0.0848,0.0974 0.0848,0.0974 0,0 0.28418,0.32597 0.28418,0.32597 0,0 0.56486,0.64351 0.56486,0.64351 0,0 0.32358,0.36831 0.32358,0.36831 0,0 0.80433,0.90598 0.80433,0.90598 0,0 0.68433,0.75781 0.68433,0.75781 0,0 0.5591,0.60539 0.5591,0.60539 0.17547,0.18835 0.35364,0.37462 0.53799,0.55455 0,0 0.0381,0.0343 0.0381,0.0343 0,0 0.11007,0.10508 0.11007,0.10508 0,0 0.13545,0.12353 0.13545,0.12353 0,0 0.74926,0.67344 0.74926,0.67344 0,0 0.24976,0.22065 0.24976,0.22065 0,0 0.11852,0.10246 0.11852,0.10246 0.017,0.009 0.0332,0.002 0.0508,-0.003 0,0 0.0931,-0.0212 0.0931,-0.0212 0,0 0.38943,-0.0866 0.38943,-0.0866 0,0 0.49528,-0.10083 0.49528,-0.10083 0.3345,-0.0669 0.67035,-0.13044 1.00748,-0.18282 0,0 0.65189,-0.0919 0.65189,-0.0919 0,0 0.1905,-0.0235 0.1905,-0.0235 0,0 0.28785,-0.0296 0.28785,-0.0296 0,0 0.12276,-0.01 0.12276,-0.01 0,0 0.24975,-0.0204 0.24975,-0.0204 0,0 0.0381,0 0.0381,0 0,0 0.0296,-0.004 0.0296,-0.004 0,0 0.0423,0 0.0423,0 0,0 0.0423,-0.004 0.0423,-0.004 0,0 0.0931,-0.004 0.0931,-0.004 0,0 0.0974,-0.004 0.0974,-0.004 0,0 0.0635,0 0.0635,0 0,0 0.0677,-0.004 0.0677,-0.004 0,0 0.43602,0 0.43602,0 0,0 0.072,0.004 0.072,0.004 0,0 0.14394,0.004 0.14394,0.004 0,0 0.0423,0.004 0.0423,0.004 0,0 0.0423,0 0.0423,0 0,0 0.0296,0.004 0.0296,0.004 0,0 0.29209,0.0251 0.29209,0.0251 0.57776,0.0618 1.14086,0.20405 1.64666,0.49778 0.18072,0.10496 0.34687,0.23242 0.49952,0.37462 0,0 0.0843,0.0808 0.0843,0.0808 0.16793,0.18022 0.29243,0.34622 0.40968,0.56306 0.14786,0.2734 0.23761,0.57805 0.28185,0.88481 0.0169,0.11736 0.0314,0.23716 0.0327,0.35562 0,0 0.004,0.0635 0.004,0.0635 0,0 0,0.17357 0,0.17357 0,0 -0.004,0.0593 -0.004,0.0593 0,0 -0.004,0.0677 -0.004,0.0677 0,0 -0.0227,0.24132 -0.0227,0.24132 -0.0648,0.4921 -0.25251,1.0047 -0.49715,1.43517 0,0 -0.18613,0.30905 -0.18613,0.30905 -0.43016,0.66789 -1.02704,1.2651 -1.63528,1.77135 -0.89594,0.74574 -1.88636,1.36783 -2.90391,1.93241 -0.4388,0.24347 -0.8859,0.47309 -1.33765,0.69175 0,0 -0.46988,0.22459 -0.46988,0.22459 0,0 -0.18203,0.0834 -0.18203,0.0834 0.007,-0.0258 0.0325,-0.0713 0.0455,-0.0974 0,0 0.0846,-0.16934 0.0846,-0.16934 0,0 0.2067,-0.45722 0.2067,-0.45722 0.2205,-0.51687 0.42368,-1.12455 0.54937,-1.67225 0.0623,-0.27138 0.12009,-0.54541 0.15883,-0.82131 0,0 0.0332,-0.23708 0.0332,-0.23708 0.002,-0.0183 0.007,-0.0835 0.0164,-0.0948 0.008,-0.01 0.0708,-0.0438 0.0864,-0.0527 0,0 0.16933,-0.10055 0.16933,-0.10055 0,0 0.56722,-0.35176 0.56722,-0.35176 0.38523,-0.24817 0.77597,-0.5262 1.13024,-0.81662 0.33057,-0.27095 0.64711,-0.56077 0.9246,-0.88659 0.15239,-0.17891 0.32172,-0.40793 0.42682,-0.61808 0.0413,-0.0826 0.10008,-0.2055 0.11202,-0.29636 0.0265,-0.20084 -0.0971,-0.38394 -0.28663,-0.45007 -0.0719,-0.0251 -0.20078,-0.0341 -0.27939,-0.0417 -0.1112,-0.0108 -0.22258,-0.016 -0.33441,-0.0162 0,0 -0.072,-0.004 -0.072,-0.004 0,0 -0.0889,0 -0.0889,0 0,0 -0.0677,0.004 -0.0677,0.004 0,0 -0.10584,0 -0.10584,0 0,0 -0.0508,0.004 -0.0508,0.004 0,0 -0.0508,0 -0.0508,0 0,0 -0.0508,0.004 -0.0508,0.004 0,0 -0.0381,0 -0.0381,0 0,0 -0.072,0.004 -0.072,0.004 0,0 -0.0423,0.004 -0.0423,0.004 0,0 -0.0931,0.005 -0.0931,0.005 0,0 -0.0804,0.008 -0.0804,0.008 -0.24061,0.0165 -0.48036,0.0481 -0.71962,0.0796 -0.22656,0.0298 -0.45213,0.0669 -0.67729,0.10597 0,0 -0.41486,0.0763 -0.41486,0.0763 -0.0247,0.005 -0.0219,0.011 -0.0425,0.016 0,0 -0.13107,0.025 -0.13107,0.025 0,0 -0.22858,0.0466 -0.22858,0.0466 0,0 -0.49951,0.10817 -0.49951,0.10817 0,0 0.0974,0.0858 0.0974,0.0858 0,0 0.13969,0.12276 0.13969,0.12276 0,0 0.49103,0.43001 0.49103,0.43001 0,0 0.20743,0.18149 0.20743,0.18149 0,0 0.093,0.0859 0.093,0.0859 0,0 0.009,0.0677 0.009,0.0677 0,0 0.0121,0.13124 0.0121,0.13124 0,0 0,0.0339 0,0.0339 0,0 0.008,0.11431 0.008,0.11431 0,0 0.004,0.0677 0.004,0.0677 0,0 0.004,0.0804 0.004,0.0804 0,0 0.004,0.0847 0.004,0.0847 0,0 0,0.0635 0,0.0635 0,0 0.004,0.072 0.004,0.072 0,0 0,0.19051 0,0.19051 0,0 -0.0677,-0.0628 -0.0677,-0.0628 0,0 -0.12275,-0.11923 -0.12275,-0.11923 0,0 -0.0508,-0.0466 -0.0508,-0.0466 0,0 -0.0889,-0.0885 -0.0889,-0.0885 0,0 -0.12699,-0.12298 -0.12699,-0.12298 0,0 -0.0423,-0.0383 -0.0423,-0.0383 0,0 -0.0931,-0.0929 -0.0931,-0.0929 0,0 -0.43178,-0.41522 -0.43178,-0.41522 0,0 -0.26246,-0.25457 -0.26246,-0.25457 0,0 -0.10159,-0.10071 -0.10159,-0.10071 0,0 -0.0381,-0.0342 -0.0381,-0.0342 0,0 -0.0974,-0.097 -0.0974,-0.097 0,0 -0.0677,-0.0637 -0.0677,-0.0637 0,0 -0.0931,-0.0896 -0.0931,-0.0896 0,0 -0.0381,-0.0299 -0.0381,-0.0299 0,0 -0.0762,0.0142 -0.0762,0.0142 0,0 -0.18627,0.0466 -0.18627,0.0466 0,0 -0.4487,0.11325 -0.4487,0.11325 0,0 -0.16932,0.0444 -0.16932,0.0444 0,0 -0.0847,0.0196 -0.0847,0.0196 0,0 0.20742,0.18694 0.20742,0.18694 0,0 0.44871,0.39846 0.44871,0.39846 0,0 0.61802,0.5485 0.61802,0.5485 0,0 0.66037,0.58423 0.66037,0.58423 0,0 0.50797,0.44877 0.50797,0.44877 0,0 0.14393,0.127 0.14393,0.127 0,0 0.0632,0.06 0.0632,0.06 0,0 -0.003,0.0762 -0.003,0.0762 0,0 -0.017,0.17358 -0.017,0.17358 0,0 -0.0569,0.44451 -0.0569,0.44451 0,0 -0.0327,0.21167 -0.0327,0.21167 -0.0322,-0.0126 -0.0641,-0.0514 -0.0889,-0.0762 0,0 -0.14817,-0.14394 -0.14817,-0.14394 0,0 -0.10581,-0.10164 -0.10581,-0.10164 0,0 -0.10583,-0.10563 -0.10583,-0.10563 0,0 -0.29208,-0.28382 -0.29208,-0.28382 0,0 -0.0466,-0.0425 -0.0466,-0.0425 0,0 -0.10583,-0.10562 -0.10583,-0.10562 0,0 -0.0466,-0.0424 -0.0466,-0.0424 0,0 -0.59686,-0.58011 -0.59686,-0.58011 0,0 -0.26246,-0.25792 -0.26246,-0.25792 0,0 -0.63919,-0.61843 -0.63919,-0.61843 0,0 -0.26246,-0.25791 -0.26246,-0.25791 0,0 -0.27091,-0.26265 -0.27091,-0.26265 0,0 -0.14817,-0.14394 -0.14817,-0.14394 -0.0141,-0.0141 -0.0493,-0.0519 -0.0677,-0.056 -0.012,-0.003 -0.0572,0.0125 -0.072,0.0163 0,0 -0.18202,0.0506 -0.18202,0.0506 0,0 -0.43178,0.1221 -0.43178,0.1221 0,0 -0.14817,0.0423 -0.14817,0.0423 0,0 -0.0677,0.0194 -0.0677,0.0194 0,0 0.0974,0.0896 0.0974,0.0896 0,0 0.16932,0.15242 0.16932,0.15242 0,0 0.46141,0.41488 0.46141,0.41488 0,0 1.51122,1.35474 1.51122,1.35474 0,0 1.15563,1.03297 1.15563,1.03297 0,0 0.35559,0.31753 0.35559,0.31753 0,0 0.19048,0.16862 0.19048,0.16862 0,0 -0.0323,0.13123 -0.0323,0.13123 -0.0402,0.15898 -0.0842,0.31757 -0.13287,0.47416 0,0 -0.093,0.29212 -0.093,0.29212 -0.0285,-0.0135 -0.077,-0.0686 -0.10159,-0.0931 0,0 -0.072,-0.0678 -0.072,-0.0678 0,0 -0.12276,-0.12269 -0.12276,-0.12269 0,0 -0.0423,-0.0383 -0.0423,-0.0383 0,0 -0.12276,-0.12255 -0.12276,-0.12255 0,0 -0.0466,-0.0424 -0.0466,-0.0424 0,0 -0.12699,-0.12679 -0.12699,-0.12679 0,0 -0.0423,-0.0383 -0.0423,-0.0383 0,0 -0.12276,-0.1227 -0.12276,-0.1227 0,0 -0.0508,-0.0466 -0.0508,-0.0466 0,0 -0.11852,-0.11838 -0.11852,-0.11838 0,0 -0.0423,-0.0383 -0.0423,-0.0383 0,0 -0.127,-0.12679 -0.127,-0.12679 0,0 -0.0423,-0.0383 -0.0423,-0.0383 0,0 -0.12276,-0.12255 -0.12276,-0.12255 0,0 -0.0423,-0.0383 -0.0423,-0.0383 0,0 -0.11852,-0.11845 -0.11852,-0.11845 0,0 -0.0423,-0.0383 -0.0423,-0.0383 0,0 -0.127,-0.1268 -0.127,-0.1268 0,0 -0.0423,-0.0383 -0.0423,-0.0383 0,0 -0.127,-0.12678 -0.127,-0.12678 0,0 -0.0423,-0.0383 -0.0423,-0.0383 0,0 -0.12699,-0.12678 -0.12699,-0.12678 0,0 -0.0423,-0.0383 -0.0423,-0.0383 0,0 -0.12275,-0.12242 -0.12275,-0.12242 0,0 -0.0381,-0.0342 -0.0381,-0.0342 0,0 -0.13124,-0.13102 -0.13124,-0.13102 0,0 -0.0423,-0.0383 -0.0423,-0.0383 0,0 -0.12277,-0.12257 -0.12277,-0.12257 0,0 -0.0466,-0.0424 -0.0466,-0.0424 0,0 -0.12699,-0.12679 -0.12699,-0.12679 0,0 -0.0423,-0.0383 -0.0423,-0.0383 0,0 -0.11851,-0.11845 -0.11851,-0.11845 0,0 -0.0508,-0.0466 -0.0508,-0.0466 0,0 -0.12277,-0.1226 -0.12277,-0.1226 0,0 -0.0423,-0.0383 -0.0423,-0.0383 0,0 -0.12277,-0.12256 -0.12277,-0.12256 0,0 -0.0974,-0.0933 -0.0974,-0.0933 0,0 -0.1143,-0.11011 -0.1143,-0.11011 0,0 -0.12699,-0.1268 -0.12699,-0.1268 0,0 -0.0423,-0.0383 -0.0423,-0.0383 0,0 -0.11853,-0.11845 -0.11853,-0.11845 0,0 -0.0508,-0.0466 -0.0508,-0.0466 0,0 -0.12276,-0.12259 -0.12276,-0.12259 0,0 -0.0423,-0.0383 -0.0423,-0.0383 0,0 -0.12699,-0.12679 -0.12699,-0.12679 0,0 -0.055,-0.051 -0.055,-0.051 0,0 -0.21589,-0.21168 -0.21589,-0.21168 0,0 -0.0593,-0.0592 -0.0593,-0.0592 -0.009,-0.009 -0.021,-0.0213 -0.0339,-0.0239 -0.0131,-0.003 -0.0528,0.0117 -0.0677,0.016 0,0 -0.1651,0.0496 -0.1651,0.0496 0,0 -0.4106,0.12346 -0.4106,0.12346 0,0 -0.0889,0.0267 -0.0889,0.0267 0,0 -0.12277,0.0367 -0.12277,0.0367 0,0 0.13547,0.12349 0.13547,0.12349 0,0 0.23705,0.21591 0.23705,0.21591 0,0 0.84662,0.77052 0.84662,0.77052 0,0 0.53336,0.48542 0.53336,0.48542 0,0 1.83717,1.66377 1.83717,1.66377 0,0 1.01171,0.91445 1.01171,0.91445 0,0 0.26669,0.24084 0.26669,0.24084 0,0 0.0847,0.0762 0.0847,0.0762 0.0109,0.01 0.0322,0.026 0.0376,0.0393 0.006,0.0151 -0.0112,0.0486 -0.0176,0.0635 0,0 -0.0659,0.15665 -0.0659,0.15665 0,0 -0.19003,0.41489 -0.19003,0.41489 0,0 -0.11115,0.22438 -0.11115,0.22438 -0.0304,-0.0218 -0.12942,-0.12096 -0.16086,-0.15242 0,0 -0.1143,-0.11011 -0.1143,-0.11011 0,0 -0.14391,-0.14372 -0.14391,-0.14372 0,0 -0.0381,-0.0342 -0.0381,-0.0342 0,0 -0.1397,-0.13955 -0.1397,-0.13955 0,0 -0.0508,-0.0466 -0.0508,-0.0466 0,0 -0.13547,-0.1354 -0.13547,-0.1354 0,0 -0.0423,-0.0383 -0.0423,-0.0383 0,0 -0.14393,-0.14371 -0.14393,-0.14371 0,0 -0.0466,-0.0424 -0.0466,-0.0424 0,0 -0.14393,-0.14372 -0.14393,-0.14372 0,0 -0.0423,-0.0383 -0.0423,-0.0383 0,0 -0.13968,-0.13961 -0.13968,-0.13961 0,0 -0.0423,-0.0383 -0.0423,-0.0383 0,0 -0.14393,-0.14374 -0.14393,-0.14374 0,0 -0.0423,-0.0383 -0.0423,-0.0383 0,0 -0.14393,-0.14374 -0.14393,-0.14374 0,0 -0.0466,-0.0424 -0.0466,-0.0424 0,0 -0.1397,-0.13961 -0.1397,-0.13961 0,0 -0.0423,-0.0383 -0.0423,-0.0383 0,0 -0.13969,-0.13949 -0.13969,-0.13949 0,0 -0.0423,-0.0383 -0.0423,-0.0383 0,0 -0.13968,-0.1395 -0.13968,-0.1395 0,0 -0.0423,-0.0383 -0.0423,-0.0383 0,0 -0.15239,-0.15208 -0.15239,-0.15208 0,0 -0.0423,-0.0383 -0.0423,-0.0383 0,0 -0.13969,-0.13962 -0.13969,-0.13962 0,0 -0.0508,-0.0466 -0.0508,-0.0466 0,0 -0.13547,-0.1353 -0.13547,-0.1353 0,0 -0.0423,-0.0383 -0.0423,-0.0383 0,0 -0.14394,-0.14385 -0.14394,-0.14385 0,0 -0.0423,-0.0383 -0.0423,-0.0383 0,0 -0.13968,-0.1395 -0.13968,-0.1395 0,0 -0.0423,-0.0383 -0.0423,-0.0383 0,0 -0.14393,-0.14374 -0.14393,-0.14374 0,0 -0.0423,-0.0383 -0.0423,-0.0383 0,0 -0.14816,-0.14783 -0.14816,-0.14783 0,0 -0.0423,-0.0383 -0.0423,-0.0383 0,0 -0.14393,-0.14372 -0.14393,-0.14372 0,0 -0.0635,-0.0594 -0.0635,-0.0594 0,0 -0.34712,-0.33885 -0.34712,-0.33885 0,0 -0.14392,-0.1436 -0.14392,-0.1436 0,0 -0.0423,-0.0383 -0.0423,-0.0383 0,0 -0.13969,-0.13963 -0.13969,-0.13963 0,0 -0.0466,-0.0424 -0.0466,-0.0424 0,0 -0.14392,-0.14372 -0.14392,-0.14372 0,0 -0.0423,-0.0383 -0.0423,-0.0383 0,0 -0.17779,-0.17391 -0.17779,-0.17391 0,0 -0.14393,-0.14357 -0.14393,-0.14357 0,0 -0.0466,-0.0425 -0.0466,-0.0425 0,0 -0.0804,-0.0803 -0.0804,-0.0803 0,0 -0.0889,-0.0865 -0.0889,-0.0865 -0.008,-0.007 -0.0242,-0.0231 -0.0339,-0.0264 -0.0135,-0.005 -0.0493,0.009 -0.0635,0.014 0,0 -0.1524,0.0479 -0.1524,0.0479 0,0 -0.40214,0.12591 -0.40214,0.12591 0,0 -0.18625,0.0562 -0.18625,0.0562 0,0 0.0974,0.0893 0.0974,0.0893 0,0 0.27515,0.25402 0.27515,0.25402 0,0 0.86779,0.80015 0.86779,0.80015 0,0 0.68153,0.62689 0.68153,0.62689 0,0 0.67306,0.6181 0.67306,0.6181 0,0 0.90165,0.82833 0.90165,0.82833 0,0 0.40216,0.36833 0.40216,0.36833 0,0 0.35134,0.32208 0.35134,0.32208 0,0 0.17355,0.15775 0.17355,0.15775 0,0 0.30056,0.27517 0.30056,0.27517 0,0 0.67729,0.6209 0.67729,0.6209 0,0 0.19896,0.18204 0.19896,0.18204 0,0 0.13546,0.12344 0.13546,0.12344 0,0 0.0762,0.0696 0.0762,0.0696 0.01,0.009 0.0331,0.0287 0.0371,0.0406 0.005,0.0148 -0.0179,0.0458 -0.0256,0.0593 0,0 -0.0906,0.15241 -0.0906,0.15241 0,0 -0.13974,0.22439 -0.13974,0.22439 0,0 -0.25106,0.37254 -0.25106,0.37254 0,0 -0.15239,-0.14779 -0.15239,-0.14779 0,0 -0.21166,-0.20778 -0.21166,-0.20778 0,0 -0.0423,-0.0383 -0.0423,-0.0383 0,0 -0.11429,-0.11414 -0.11429,-0.11414 0,0 -0.072,-0.0716 -0.072,-0.0716 0,0 -0.0423,-0.0385 -0.0423,-0.0385 0,0 -0.17356,-0.1734 -0.17356,-0.1734 0,0 -0.0423,-0.0383 -0.0423,-0.0383 0,0 -0.16933,-0.16926 -0.16933,-0.16926 0,0 -0.0423,-0.0383 -0.0423,-0.0383 0,0 -0.17779,-0.1776 -0.17779,-0.1776 0,0 -0.0466,-0.0424 -0.0466,-0.0424 0,0 -0.17354,-0.1735 -0.17354,-0.1735 0,0 -0.0466,-0.0424 -0.0466,-0.0424 0,0 -0.17356,-0.1735 -0.17356,-0.1735 0,0 -0.0423,-0.0383 -0.0423,-0.0383 0,0 -0.17779,-0.1776 -0.17779,-0.1776 0,0 -0.0466,-0.0424 -0.0466,-0.0424 0,0 -0.16932,-0.16927 -0.16932,-0.16927 0,0 -0.0466,-0.0424 -0.0466,-0.0424 0,0 -0.39367,-0.3894 -0.39367,-0.3894 0,0 -0.0466,-0.0424 -0.0466,-0.0424 0,0 -0.38946,-0.38517 -0.38946,-0.38517 0,0 -0.0466,-0.0424 -0.0466,-0.0424 0,0 -0.17356,-0.17349 -0.17356,-0.17349 0,0 -0.0466,-0.0424 -0.0466,-0.0424 0,0 -0.16932,-0.16925 -0.16932,-0.16925 0,0 -0.0423,-0.0383 -0.0423,-0.0383 0,0 -0.18203,-0.18183 -0.18203,-0.18183 0,0 -0.0423,-0.0383 -0.0423,-0.0383 0,0 -0.17357,-0.17336 -0.17357,-0.17336 0,0 -0.0466,-0.0424 -0.0466,-0.0424 0,0 -0.17356,-0.17349 -0.17356,-0.17349 0,0 -0.0466,-0.0424 -0.0466,-0.0424 0,0 -0.17356,-0.17348 -0.17356,-0.17348 0,0 -0.0466,-0.0424 -0.0466,-0.0424 0,0 -0.17357,-0.17348 -0.17357,-0.17348 0,0 -0.0466,-0.0424 -0.0466,-0.0424 0,0 -0.17779,-0.17759 -0.17779,-0.17759 0,0 -0.0423,-0.0383 -0.0423,-0.0383 0,0 -0.16932,-0.16925 -0.16932,-0.16925 0,0 -0.0423,-0.0383 -0.0423,-0.0383 0,0 -0.17779,-0.1776 -0.17779,-0.1776 0,0 -0.0423,-0.0383 -0.0423,-0.0383 0,0 -0.17355,-0.17341 -0.17355,-0.17341 0,0 -0.0466,-0.0425 -0.0466,-0.0425 0,0 -0.14393,-0.14379 -0.14393,-0.14379 0,0 -0.0762,-0.0721 -0.0762,-0.0721 0,0 -0.17355,-0.17341 -0.17355,-0.17341 0,0 -0.0931,-0.0889 -0.0931,-0.0889 0,0 -0.0931,-0.0931 -0.0931,-0.0931 0,0 -0.0423,-0.0348 -0.0423,-0.0348 0,0 -0.0593,0.015 -0.0593,0.015 0,0 -0.13968,0.0444 -0.13968,0.0444 0,0 -0.34711,0.11229 -0.34711,0.11229 0,0 -0.19897,0.0621 -0.19897,0.0621 0,0 0.072,0.0724 0.072,0.0724 0,0 0.13123,0.12312 0.13123,0.12312 0,0 0.10582,0.1005 0.10582,0.1005 0,0 0.22859,0.21243 0.22859,0.21243 0,0 1.0752,1.00335 1.0752,1.00335 0,0 2.16312,2.01442 2.16312,2.01442 0,0 1.36307,1.26581 1.36307,1.26581 0,0 0.93974,0.87212 0.93974,0.87212 0,0 0.2032,0.18705 0.2032,0.18705 0,0 0.0931,0.0878 0.0931,0.0878 0,0 0.10583,0.0979 0.10583,0.0979 0,0 0.055,0.0552 0.055,0.0552 0,0 -0.15921,0.19898 -0.15921,0.19898 0,0 -0.27985,0.33021 -0.27985,0.33021 0,0 -0.14083,0.15664 -0.14083,0.15664 0,0 -0.0551,0.055 -0.0551,0.055 0,0 -0.21166,-0.21163 -0.21166,-0.21163 0,0 -0.0508,-0.0466 -0.0508,-0.0466 0,0 -0.21589,-0.21587 -0.21589,-0.21587 0,0 -0.0466,-0.0424 -0.0466,-0.0424 0,0 -0.22012,-0.22005 -0.22012,-0.22005 0,0 -0.0466,-0.0424 -0.0466,-0.0424 0,0 -0.22435,-0.2243 -0.22435,-0.2243 0,0 -0.0466,-0.0424 -0.0466,-0.0424 0,0 -0.22012,-0.22006 -0.22012,-0.22006 0,0 -0.0466,-0.0424 -0.0466,-0.0424 0,0 -0.22858,-0.2284 -0.22858,-0.2284 0,0 -0.0423,-0.0383 -0.0423,-0.0383 0,0 -0.22013,-0.22006 -0.22013,-0.22006 0,0 -0.0466,-0.0424 -0.0466,-0.0424 0,0 -0.22014,-0.22006 -0.22014,-0.22006 0,0 -0.0423,-0.0383 -0.0423,-0.0383 0,0 -0.22859,-0.22841 -0.22859,-0.22841 0,0 -0.0466,-0.0424 -0.0466,-0.0424 0,0 -0.22011,-0.22006 -0.22011,-0.22006 0,0 -0.0466,-0.0424 -0.0466,-0.0424 0,0 -0.22435,-0.22429 -0.22435,-0.22429 0,0 -0.0466,-0.0424 -0.0466,-0.0424 0,0 -0.22012,-0.22006 -0.22012,-0.22006 0,0 -0.0466,-0.0424 -0.0466,-0.0424 0,0 -0.22011,-0.22004 -0.22011,-0.22004 0,0 -0.0466,-0.0424 -0.0466,-0.0424 0,0 -0.22436,-0.2243 -0.22436,-0.2243 0,0 -0.0466,-0.0424 -0.0466,-0.0424 0,0 -0.22013,-0.22006 -0.22013,-0.22006 0,0 -0.0466,-0.0424 -0.0466,-0.0424 0,0 -0.22859,-0.2284 -0.22859,-0.2284 0,0 -0.0423,-0.0383 -0.0423,-0.0383 0,0 -0.22011,-0.22006 -0.22011,-0.22006 0,0 -0.0423,-0.0383 -0.0423,-0.0383 0,0 -0.22013,-0.21997 -0.22013,-0.21997 0,0 -0.0508,-0.0467 -0.0508,-0.0467 0,0 -0.0762,-0.076 -0.0762,-0.076 0,0 -0.15239,-0.15225 -0.15239,-0.15225 0,0 -0.0466,-0.0425 -0.0466,-0.0425 0,0 -0.22012,-0.21998 -0.22012,-0.21998 0,0 -0.0423,-0.0383 -0.0423,-0.0383 0,0 -0.48681,-0.48254 -0.48681,-0.48254 0,0 -0.0466,-0.0424 -0.0466,-0.0424 0,0 -0.22859,-0.22852 -0.22859,-0.22852 0,0 -0.0635,-0.0593 -0.0635,-0.0593 0,0 -0.20318,-0.20316 -0.20318,-0.20316 0,0 -0.0423,-0.0383 -0.0423,-0.0383 0,0 -0.11007,-0.10989 -0.11007,-0.10989 0,0 -0.0974,-0.0974 -0.0974,-0.0974 0,0 -0.0466,-0.0384 -0.0466,-0.0384 0,0 -0.055,0.013 -0.055,0.013 0,0 -0.13122,0.0423 -0.13122,0.0423 0,0 -0.31749,0.10445 -0.31749,0.10445 0,0 -0.17778,0.0564 -0.17778,0.0564 0.0259,0.0361 0.13858,0.13624 0.17778,0.17376 0,0 0.38945,0.3683 0.38945,0.3683 0,0 0.67729,0.63947 0.67729,0.63947 0,0 0.12277,0.11779 0.12277,0.11779 0,0 0.46564,0.43682 0.46564,0.43682 0,0 0.19473,0.18551 0.19473,0.18551 0,0 0.60956,0.57228 0.60956,0.57228 0,0 0.19049,0.18128 0.19049,0.18128 0,0 2.23083,2.09638 2.23083,2.09638 0,0 0.46565,0.43952 0.46565,0.43952 0,0 0.86779,0.8136 0.86779,0.8136 0,0 0.17779,0.16858 0.17779,0.16858 0,0 0.34711,0.32619 0.34711,0.32619 0.0365,0.0349 0.12264,0.10847 0.14816,0.14412 -0.17674,0.17675 -0.36036,0.3466 -0.5503,0.50917 0,0 -0.13969,0.11773 -0.13969,0.11773 -0.0111,0.009 -0.0413,0.0382 -0.055,0.0373 -0.0124,-8.5e-4 -0.0293,-0.0205 -0.0381,-0.0291 0,0 -0.0889,-0.0847 -0.0889,-0.0847 0,0 -0.24975,-0.24975 -0.24975,-0.24975 0,0 -0.0804,-0.0762 -0.0804,-0.0762 0,0 -0.25823,-0.2582 -0.25823,-0.2582 0,0 -0.0508,-0.0466 -0.0508,-0.0466 0,0 -0.29208,-0.29206 -0.29208,-0.29206 0,0 -0.0466,-0.0424 -0.0466,-0.0424 0,0 -0.29632,-0.29615 -0.29632,-0.29615 0,0 -0.0381,-0.0342 -0.0381,-0.0342 0,0 -0.22012,-0.21996 -0.22012,-0.21996 0,0 -0.0847,-0.0839 -0.0847,-0.0839 0,0 -0.33865,-0.33499 -0.33865,-0.33499 0,0 -0.0381,-0.0342 -0.0381,-0.0342 0,0 -0.29207,-0.29195 -0.29207,-0.29195 0,0 -0.0508,-0.0466 -0.0508,-0.0466 0,0 -0.29209,-0.29203 -0.29209,-0.29203 0,0 -0.0466,-0.0424 -0.0466,-0.0424 0,0 -0.29631,-0.29627 -0.29631,-0.29627 0,0 -0.0466,-0.0424 -0.0466,-0.0424 0,0 -0.28785,-0.28783 -0.28785,-0.28783 0,0 -0.0508,-0.0466 -0.0508,-0.0466 0,0 -0.28784,-0.28785 -0.28784,-0.28785 0,0 -0.0508,-0.0466 -0.0508,-0.0466 0,0 -0.29209,-0.29203 -0.29209,-0.29203 0,0 -0.0466,-0.0424 -0.0466,-0.0424 0,0 -0.2963,-0.29626 -0.2963,-0.29626 0,0 -0.0466,-0.0424 -0.0466,-0.0424 0,0 -0.29209,-0.29203 -0.29209,-0.29203 0,0 -0.0508,-0.0466 -0.0508,-0.0466 0,0 -0.29208,-0.29208 -0.29208,-0.29208 0,0 -0.0466,-0.0424 -0.0466,-0.0424 0,0 -0.28361,-0.28361 -0.28361,-0.28361 0,0 -0.0508,-0.0466 -0.0508,-0.0466 0,0 -0.19472,-0.19469 -0.19472,-0.19469 0,0 -0.10159,-0.10144 -0.10159,-0.10144 0,0 -0.0466,-0.0425 -0.0466,-0.0425 0,0 -0.29632,-0.2963 -0.29632,-0.2963 0,0 -0.0466,-0.0424 -0.0466,-0.0424 0,0 -0.28785,-0.28784 -0.28785,-0.28784 0,0 -0.0508,-0.0466 -0.0508,-0.0466 0,0 -0.19895,-0.19893 -0.19895,-0.19893 0,0 -0.28786,-0.28363 -0.28786,-0.28363 0,0 -0.0804,-0.0804 -0.0804,-0.0804 -0.009,-0.009 -0.026,-0.028 -0.0381,-0.0316 -0.0131,-0.004 -0.0378,0.007 -0.0508,0.0115 0,0 -0.12277,0.0398 -0.12277,0.0398 0,0 -0.32595,0.10731 -0.32595,0.10731 0,0 -0.13123,0.0422 -0.13123,0.0422 0,0 0.055,0.051 0.055,0.051 0,0 0.19896,0.19051 0.19896,0.19051 0,0 0.35136,0.33835 0.35136,0.33835 0,0 0.22011,0.20778 0.22011,0.20778 0,0 1.07521,1.02841 1.07521,1.02841 0,0 0.48681,0.4618 0.48681,0.4618 0,0 1.40962,1.34592 1.40962,1.34592 0,0 0.4868,0.46181 0.4868,0.46181 0,0 0.7154,0.6818 0.7154,0.6818 0,0 0.23705,0.22786 0.23705,0.22786 0,0 0.53337,0.50823 0.53337,0.50823 0,0 0.66036,0.6269 0.66036,0.6269 0,0 0.26246,0.24999 0.26246,0.24999 0,0 0.0593,0.0585 0.0593,0.0585 0,0 0.35135,0.33465 0.35135,0.33465 0,0 0.15239,0.14413 0.15239,0.14413 0,0 0.0635,0.0594 0.0635,0.0594 0,0 0.0593,0.0584 0.0593,0.0584 0.0142,0.0128 0.0574,0.0494 0.0646,0.0642 0.01,0.0197 -0.0217,0.0352 -0.035,0.045 0,0 -0.14392,0.10617 -0.14392,0.10617 -0.16509,0.1177 -0.33183,0.23407 -0.50375,0.34169 0,0 -0.11852,0.0746 -0.11852,0.0746 -0.0116,0.007 -0.0371,0.0268 -0.0508,0.0233 -0.01,-0.002 -0.0257,-0.0194 -0.0339,-0.0266 0,0 -0.0889,-0.0859 -0.0889,-0.0859 0,0 -0.29631,-0.29636 -0.29631,-0.29636 0,0 -0.0974,-0.0972 -0.0974,-0.0972 0,0 -0.055,-0.051 -0.055,-0.051 0,0 -0.43178,-0.4318 -0.43178,-0.4318 0,0 -0.0508,-0.0466 -0.0508,-0.0466 0,0 -0.31325,-0.31329 -0.31325,-0.31329 0,0 -0.13545,-0.1353 -0.13545,-0.1353 0,0 -0.0381,-0.0342 -0.0381,-0.0342 0,0 -0.13123,-0.13107 -0.13123,-0.13107 0,0 -0.31325,-0.31328 -0.31325,-0.31328 0,0 -0.0508,-0.0466 -0.0508,-0.0466 0,0 -0.44447,-0.44447 -0.44447,-0.44447 0,0 -0.055,-0.0508 -0.055,-0.0508 0,0 -0.44024,-0.44025 -0.44024,-0.44025 0,0 -0.0466,-0.0424 -0.0466,-0.0424 0,0 -0.44024,-0.44025 -0.44024,-0.44025 0,0 -0.0508,-0.0466 -0.0508,-0.0466 0,0 -0.44448,-0.44449 -0.44448,-0.44449 0,0 -0.055,-0.0508 -0.055,-0.0508 0,0 -0.44024,-0.44029 -0.44024,-0.44029 0,0 -0.0508,-0.0466 -0.0508,-0.0466 0,0 -0.44024,-0.44024 -0.44024,-0.44024 0,0 -0.0508,-0.0466 -0.0508,-0.0466 0,0 -0.43178,-0.43178 -0.43178,-0.43178 0,0 -0.0593,-0.0551 -0.0593,-0.0551 0,0 -0.23281,-0.2328 -0.23281,-0.2328 0,0 -0.22013,-0.22011 -0.22013,-0.22011 0,0 -0.0593,-0.0551 -0.0593,-0.0551 0,0 -0.43178,-0.43178 -0.43178,-0.43178 0,0 -0.0508,-0.0466 -0.0508,-0.0466 0,0 -0.44447,-0.44447 -0.44447,-0.44447 0,0 -0.0508,-0.0466 -0.0508,-0.0466 0,0 -0.34712,-0.34716 -0.34712,-0.34716 0,0 -0.0974,-0.0972 -0.0974,-0.0972 -0.009,-0.009 -0.0405,-0.0376 -0.0508,-0.041 -0.012,-0.004 -0.0345,0.006 -0.0466,0.01 0,0 -0.1016,0.0335 -0.1016,0.0335 0,0 -0.19472,0.0639 -0.19472,0.0639 0,0 -0.22435,0.0734 -0.22435,0.0734 0,0 0.4487,0.43623 0.4487,0.43623 0,0 0.0762,0.0759 0.0762,0.0759 0,0 0.37676,0.36019 0.37676,0.36019 0,0 0.0762,0.0759 0.0762,0.0759 0,0 0.15662,0.14851 0.15662,0.14851 0,0 0.0804,0.0801 0.0804,0.0801 0,0 0.98631,0.94866 0.98631,0.94866 0,0 0.0847,0.0843 0.0847,0.0843 0,0 0.40215,0.3856 0.40215,0.3856 0,0 0.0847,0.0843 0.0847,0.0843 0,0 2.10385,2.02821 2.10385,2.02821 0,0 0.0847,0.0843 0.0847,0.0843 0,0 0.40638,0.38982 0.40638,0.38982 0,0 0.0847,0.0843 0.0847,0.0843 0,0 0.77889,0.74967 0.77889,0.74967 0,0 0.20742,0.20287 0.20742,0.20287 0,0 0.28362,0.27129 0.28362,0.27129 0,0 0.0847,0.0843 0.0847,0.0843 0,0 0.24128,0.23302 0.24128,0.23302 0,0 0.0466,0.0425 0.0466,0.0425 0,0 0.20742,0.20287 0.20742,0.20287 0,0 0.2032,0.1949 0.2032,0.1949 0,0 0.12276,0.11855 0.12276,0.11855 0.0196,0.0196 0.043,0.0382 0.055,0.0635 0,0 -0.1143,0.0622 -0.1143,0.0622 0,0 -0.19472,0.10385 -0.19472,0.10385 0,0 -0.40638,0.19915 -0.40638,0.19915 0,0 -0.18625,0.0846 -0.18625,0.0846 -0.0152,0.007 -0.066,0.0326 -0.0804,0.0294 -0.0131,-0.003 -0.0326,-0.0249 -0.0423,-0.0347 0,0 -0.0847,-0.0847 -0.0847,-0.0847 0,0 -0.31326,-0.30905 -0.31326,-0.30905 0,0 -1.16834,-1.16423 -1.16834,-1.16423 0,0 -0.0847,-0.0804 -0.0847,-0.0804 0,0 -0.65612,-0.65621 -0.65612,-0.65621 0,0 -0.055,-0.0508 -0.055,-0.0508 0,0 -0.65189,-0.65198 -0.65189,-0.65198 0,0 -0.0508,-0.0466 -0.0508,-0.0466 0,0 -0.64766,-0.64769 -0.64766,-0.64769 0,0 -0.0635,-0.0593 -0.0635,-0.0593 0,0 -0.65614,-0.6562 -0.65614,-0.6562 0,0 -0.055,-0.0508 -0.055,-0.0508 0,0 -0.65189,-0.65198 -0.65189,-0.65198 0,0 -0.055,-0.0508 -0.055,-0.0508 0,0 -0.15662,-0.1566 -0.15662,-0.1566 0,0 -0.33864,-0.33869 -0.33864,-0.33869 0,0 -0.17356,-0.17339 -0.17356,-0.17339 0,0 -0.0381,-0.0342 -0.0381,-0.0342 0,0 -0.16509,-0.16494 -0.16509,-0.16494 0,0 -0.31748,-0.31752 -0.31748,-0.31752 0,0 -0.18203,-0.18199 -0.18203,-0.18199 0,0 -0.0508,-0.0466 -0.0508,-0.0466 0,0 -0.49951,-0.49955 -0.49951,-0.49955 0,0 -0.34711,-0.34292 -0.34711,-0.34292 0,0 -0.10159,-0.1016 -0.10159,-0.1016 -0.008,-0.008 -0.0348,-0.037 -0.0441,-0.0404 -0.0102,-0.004 -0.0303,0.005 -0.0405,0.008 0,0 -0.0931,0.031 -0.0931,0.031 0,0 -0.22436,0.072 -0.22436,0.072 0,0 -0.14393,0.0437 -0.14393,0.0437 0,0 0.33019,0.33017 0.33019,0.33017 0,0 0.0423,0.0383 0.0423,0.0383 0,0 0.16086,0.16053 0.16086,0.16053 0,0 0.55029,0.52953 0.55029,0.52953 0,0 0.10583,0.1055 0.10583,0.1055 0,0 0.0381,0.0342 0.0381,0.0342 0,0 0.10583,0.10549 0.10583,0.10549 0,0 0.0423,0.0383 0.0423,0.0383 0,0 0.1143,0.11409 0.1143,0.11409 0,0 0.0423,0.0383 0.0423,0.0383 0,0 0.11853,0.11833 0.11853,0.11833 0,0 0.0381,0.0342 0.0381,0.0342 0,0 0.11852,0.11819 0.11852,0.11819 0,0 0.0423,0.0383 0.0423,0.0383 0,0 0.11854,0.11832 0.11854,0.11832 0,0 0.0423,0.0383 0.0423,0.0383 0,0 0.127,0.1268 0.127,0.1268 0,0 0.0423,0.0383 0.0423,0.0383 0,0 0.12276,0.12256 0.12276,0.12256 0,0 0.0423,0.0383 0.0423,0.0383 0,0 0.12699,0.1268 0.12699,0.1268 0,0 0.0423,0.0383 0.0423,0.0383 0,0 0.13122,0.13116 0.13122,0.13116 0,0 0.0466,0.0424 0.0466,0.0424 0,0 0.13123,0.13116 0.13123,0.13116 0,0 0.0423,0.0383 0.0423,0.0383 0,0 0.31748,0.31293 0.31748,0.31293 0,0 0.0423,0.0383 0.0423,0.0383 0,0 0.13969,0.13949 0.13969,0.13949 0,0 0.0423,0.0383 0.0423,0.0383 0,0 0.13546,0.13527 0.13546,0.13527 0,0 0.0423,0.0383 0.0423,0.0383 0,0 0.13547,0.13528 0.13547,0.13528 0,0 0.0423,0.0383 0.0423,0.0383 0,0 0.13546,0.13525 0.13546,0.13525 0,0 0.0423,0.0383 0.0423,0.0383 0,0 0.13969,0.13961 0.13969,0.13961 0,0 0.0466,0.0424 0.0466,0.0424 0,0 0.14815,0.14796 0.14815,0.14796 0,0 0.0423,0.0383 0.0423,0.0383 0,0 0.14392,0.14374 0.14392,0.14374 0,0 0.0423,0.0383 0.0423,0.0383 0,0 0.14394,0.14385 0.14394,0.14385 0,0 0.0423,0.0383 0.0423,0.0383 0,0 0.14393,0.14372 0.14393,0.14372 0,0 0.0466,0.0424 0.0466,0.0424 0,0 0.14392,0.14385 0.14392,0.14385 0,0 0.0423,0.0383 0.0423,0.0383 0,0 0.14392,0.14373 0.14392,0.14373 0,0 0.0423,0.0383 0.0423,0.0383 0,0 0.15239,0.15208 0.15239,0.15208 0,0 0.0423,0.0383 0.0423,0.0383 0,0 0.15238,0.1522 0.15238,0.1522 0,0 0.0423,0.0383 0.0423,0.0383 0,0 0.14817,0.14809 0.14817,0.14809 0,0 0.0423,0.0383 0.0423,0.0383 0,0 0.15663,0.15642 0.15663,0.15642 0,0 0.0466,0.0424 0.0466,0.0424 0,0 0.1524,0.15219 0.1524,0.15219 0,0 0.0423,0.0383 0.0423,0.0383 0,0 0.15239,0.15231 0.15239,0.15231 0,0 0.0466,0.0424 0.0466,0.0424 0,0 0.15239,0.15219 0.15239,0.15219 0,0 0.0423,0.0383 0.0423,0.0383 0,0 0.15663,0.15644 0.15663,0.15644 0,0 0.0423,0.0383 0.0423,0.0383 0,0 0.14816,0.1481 0.14816,0.1481 0,0 0.0423,0.0383 0.0423,0.0383 0,0 0.0804,0.0803 0.0804,0.0803 0,0 0.0804,0.0803 0.0804,0.0803 0,0 0.0423,0.0383 0.0423,0.0383 0,0 0.1524,0.1522 0.1524,0.1522 0,0 0.0423,0.0383 0.0423,0.0383 0,0 0.1524,0.15231 0.1524,0.15231 0,0 0.0423,0.0383 0.0423,0.0383 0,0 0.0974,0.0972 0.0974,0.0972 0.0214,0.0214 0.0552,0.0496 0.0677,0.0762 0,0 -0.12277,0.0448 -0.12277,0.0448 0,0 -0.17779,0.0651 -0.17779,0.0651 -0.17621,0.0644 -0.35722,0.12268 -0.5376,0.17437 0,0 -0.21166,0.0605 -0.21166,0.0605 -0.0177,0.005 -0.069,0.0217 -0.0847,0.0167 -0.014,-0.004 -0.0356,-0.0287 -0.0466,-0.0396 0,0 -0.0847,-0.0847 -0.0847,-0.0847 0,0 -0.31324,-0.31328 -0.31324,-0.31328 0,0 -0.81699,-0.81707 -0.81699,-0.81707 0,0 -0.0508,-0.0466 -0.0508,-0.0466 0,0 -0.25822,-0.25819 -0.25822,-0.25819 0,0 -4.02992,-4.02189 -4.02992,-4.02189 0,0 -0.19472,-0.1947 -0.19472,-0.1947 0,0 -0.055,-0.0508 -0.055,-0.0508 0,0 -1.2276,-1.22773 -1.2276,-1.22773 0,0 -0.41485,-0.41065 -0.41485,-0.41065 0,0 -0.11429,-0.11431 -0.11429,-0.11431 -0.0111,-0.0111 -0.0422,-0.045 -0.055,-0.0493 -0.0111,-0.004 -0.0274,0.003 -0.0381,0.007 0,0 -0.0804,0.0254 -0.0804,0.0254 0,0 -0.30901,0.0974 -0.30901,0.0974 0,0 0.28784,0.28784 0.28784,0.28784 0,0 0.055,0.0508 0.055,0.0508 0,0 0.38099,0.38099 0.38099,0.38099 0,0 0.0423,0.0383 0.0423,0.0383 0,0 0.13123,0.13089 0.13123,0.13089 0,0 0.27937,0.26706 0.27937,0.26706 0,0 0.1143,0.11395 0.1143,0.11395 0,0 0.0423,0.0383 0.0423,0.0383 0,0 0.14393,0.14386 0.14393,0.14386 0,0 0.0466,0.0424 0.0466,0.0424 0,0 0.15239,0.15234 0.15239,0.15234 0,0 0.0466,0.0424 0.0466,0.0424 0,0 0.18626,0.1862 0.18626,0.1862 0,0 0.0466,0.0424 0.0466,0.0424 0,0 0.20318,0.20313 0.20318,0.20313 0,0 0.0466,0.0424 0.0466,0.0424 0,0 0.24129,0.2411 0.24129,0.2411 0,0 0.0423,0.0383 0.0423,0.0383 0,0 0.25823,0.25817 0.25823,0.25817 0,0 0.0466,0.0424 0.0466,0.0424 0,0 0.28785,0.28779 0.28785,0.28779 0,0 0.0466,0.0424 0.0466,0.0424 0,0 0.30478,0.30477 0.30478,0.30477 0,0 0.0508,0.0466 0.0508,0.0466 0,0 0.33442,0.3344 0.33442,0.3344 0,0 0.0508,0.0466 0.0508,0.0466 0,0 0.3598,0.35975 0.3598,0.35975 0,0 0.0466,0.0424 0.0466,0.0424 0,0 0.41061,0.41057 0.41061,0.41057 0,0 0.0466,0.0424 0.0466,0.0424 0,0 0.4233,0.42327 0.4233,0.42327 0,0 0.0466,0.0424 0.0466,0.0424 0,0 0.41908,0.41908 0.41908,0.41908 0,0 0.0635,0.0593 0.0635,0.0593 0,0 0.4614,0.46142 0.4614,0.46142 0,0 0.0508,0.0466 0.0508,0.0466 0,0 0.35559,0.35562 0.35559,0.35562 0,0 0.15239,0.15223 0.15239,0.15223 0,0 0.0381,0.0342 0.0381,0.0342 0,0 0.35134,0.35122 0.35134,0.35122 0,0 0.16932,0.16896 0.16932,0.16896 0,0 0.27516,0.27134 0.27516,0.27134 0,0 0.1524,0.15663 0.1524,0.15663 0,0 -0.33442,0.0694 -0.33442,0.0694 -0.20954,0.0393 -0.41942,0.0733 -0.63073,0.10114 0,0 -0.24552,0.0296 -0.24552,0.0296 0,0 -0.0804,0.008 -0.0804,0.008 -0.011,6.4e-4 -0.0231,0.004 -0.0339,0 -0.0142,-0.004 -0.0354,-0.0281 -0.0466,-0.0393 0,0 -0.0847,-0.0847 -0.0847,-0.0847 0,0 -0.31748,-0.31752 -0.31748,-0.31752 0,0 -0.71962,-0.71971 -0.71962,-0.71971 0,0 -0.36401,-0.36408 -0.36401,-0.36408 0,0 -0.0424,-0.0466 -0.0424,-0.0466 0,0 -0.47406,-0.47417 -0.47406,-0.47417 0,0 -0.93975,-0.93984 -0.93975,-0.93984 0,0 -1.46042,-1.46057 -1.46042,-1.46057 0,0 -0.055,-0.0593 -0.055,-0.0593 0,0 -0.93127,-0.93139 -0.93127,-0.93139 0,0 -1.47313,-1.47327 -1.47313,-1.47327 0,0 -0.40214,-0.40218 -0.40214,-0.40218 0,0 -0.10621,-0.11008 -0.10621,-0.11008 -0.0101,-0.0109 -0.0373,-0.0404 -0.0504,-0.0443 -0.0142,-0.004 -0.0832,0.0201 -0.1016,0.0256 0,0 -0.18203,0.0543 -0.18203,0.0543 0,0 -0.0804,0.0236 -0.0804,0.0236 0,0 0.49528,0.49533 0.49528,0.49533 0,0 0.24975,0.24973 0.24975,0.24973 0,0 0.0508,0.0466 0.0508,0.0466 0,0 0.27514,0.27513 0.27514,0.27513 0,0 0.0423,0.0383 0.0423,0.0383 0,0 0.14816,0.14795 0.14816,0.14795 0,0 0.0423,0.0383 0.0423,0.0383 0,0 0.0847,0.0843 0.0847,0.0843 0,0 0.16509,0.15698 0.16509,0.15698 0,0 0.12699,0.12684 0.12699,0.12684 0,0 0.0508,0.0466 0.0508,0.0466 0,0 0.19896,0.1989 0.19896,0.1989 0,0 0.0508,0.0466 0.0508,0.0466 0,0 0.38522,0.38527 0.38522,0.38527 0,0 0.0508,0.0466 0.0508,0.0466 0,0 0.27938,0.27938 0.27938,0.27938 0,0 0.57995,0.58001 0.57995,0.58001 0,0 0.0677,0.0635 0.0677,0.0635 0,0 0.52491,0.52495 0.52491,0.52495 0,0 0.30898,0.30907 0.30898,0.30907 0,0 0.0466,0.0508 0.0466,0.0508 0,0 0.83392,0.83401 0.83392,0.83401 0,0 0.63073,0.6308 0.63073,0.6308 0,0 0.055,0.0593 0.055,0.0593 0,0 0.81275,0.81283 0.81275,0.81283 0,0 0.0635,0.0677 0.0635,0.0677 0,0 0.52491,0.52495 0.52491,0.52495 0,0 0.20391,0.20745 0.20391,0.20745 0,0 0.067,0.072 0.067,0.072 0,0 -0.11851,0.004 -0.11851,0.004 0,0 -0.0677,0.004 -0.0677,0.004 0,0 -0.0635,0 -0.0635,0 0,0 -0.0466,0.004 -0.0466,0.004 0,0 -0.0931,0 -0.0931,0 0,0 -0.072,0.004 -0.072,0.004 0,0 -0.33865,0 -0.33865,0 0,0 -0.0635,-0.004 -0.0635,-0.004 0,0 -0.0974,0 -0.0974,0 0,0 -0.0635,-0.004 -0.0635,-0.004 0,0 -0.0635,0 -0.0635,0 0,0 -0.0508,-0.004 -0.0508,-0.004 0,0 -0.0974,-0.004 -0.0974,-0.004 0,0 -0.0508,-0.004 -0.0508,-0.004 0,0 -0.12699,-0.008 -0.12699,-0.008 0,0 -0.1143,-0.009 -0.1143,-0.009 0,0 -0.0677,-0.009 -0.0677,-0.009 0,0 -0.0423,-0.038 -0.0423,-0.038 0,0 -0.0762,-0.0762 -0.0762,-0.0762 0,0 -0.25398,-0.25401 -0.25398,-0.25401 0,0 -0.24972,-0.24979 -0.24972,-0.24979 0,0 -0.0466,-0.0508 -0.0466,-0.0508 0,0 -0.55454,-0.55459 -0.55454,-0.55459 0,0 -0.48257,-0.48262 -0.48257,-0.48262 0,0 -0.055,-0.0593 -0.055,-0.0593 0,0 -1.03711,-1.03722 -1.03711,-1.03722 0,0 -0.0466,-0.0508 -0.0466,-0.0508 0,0 -0.27088,-0.27094 -0.27088,-0.27094 0,0 -0.54183,-0.5419 -0.54183,-0.5419 0,0 -0.23701,-0.23707 -0.23701,-0.23707 0,0 -0.0466,-0.0508 -0.0466,-0.0508 0,0 -0.91435,-0.91445 -0.91435,-0.91445 0,0 -0.13529,-0.13548 -0.13529,-0.13548 0,0 -0.0425,-0.0466 -0.0425,-0.0466 0,0 -0.96515,-0.96526 -0.96515,-0.96526 0,0 -0.0845,-0.0847 -0.0845,-0.0847 0,0 -0.0383,-0.0423 -0.0383,-0.0423 0,0 -0.30475,-0.30482 -0.30475,-0.30482 0,0 -0.41908,-0.41911 -0.41908,-0.41911 0,0 -0.11006,-0.11007 -0.11006,-0.11007 0,0 -0.0508,-0.0428 -0.0508,-0.0428 0,0 -0.0889,0.021 -0.0889,0.021 0,0 -0.21589,0.0599 -0.21589,0.0599 0,0 0.0677,0.0677 0.0677,0.0677 0,0 0.13969,0.1397 0.13969,0.1397 0,0 0.38097,0.38084 0.38097,0.38084 0,0 0.0381,0.0342 0.0381,0.0342 0,0 0.32596,0.32581 0.32596,0.32581 0,0 0.0508,0.0466 0.0508,0.0466 0,0 0.25398,0.25397 0.25398,0.25397 0,0 0.0508,0.0466 0.0508,0.0466 0,0 0.17355,0.1735 0.17355,0.1735 0,0 0.0423,0.0383 0.0423,0.0383 0,0 0.127,0.1268 0.127,0.1268 0,0 0.0423,0.0383 0.0423,0.0383 0,0 0.0889,0.0886 0.0889,0.0886 0,0 0.78735,0.77492 0.78735,0.77492 0,0 0.5884,0.58846 0.5884,0.58846 0,0 0.29628,0.29635 0.29628,0.29635 0,0 0.0466,0.0508 0.0466,0.0508 0,0 0.41062,0.41065 0.41062,0.41065 0,0 0.0466,0.0508 0.0466,0.0508 0,0 0.33013,0.33021 0.33013,0.33021 0,0 0.0466,0.0508 0.0466,0.0508 0,0 0.28353,0.28366 0.28353,0.28366 0,0 0.0424,0.0466 0.0424,0.0466 0,0 0.25818,0.25825 0.25818,0.25825 0,0 0.0466,0.0508 0.0466,0.0508 0,0 0.24953,0.24977 0.24953,0.24977 0,0 0.0342,0.0381 0.0342,0.0381 0,0 0.19879,0.19898 0.19879,0.19898 0,0 0.0762,0.0804 0.0762,0.0804 0,0 0.22431,0.22437 0.22431,0.22437 0,0 0.0424,0.0466 0.0424,0.0466 0,0 0.20315,0.20321 0.20315,0.20321 0,0 0.0466,0.0508 0.0466,0.0508 0,0 0.19469,0.19474 0.19469,0.19474 0,0 0.0804,0.0847 0.0804,0.0847 0,0 0.34711,0.35138 0.34711,0.35138 0,0 0.11854,0.12278 0.11854,0.12278 0,0 0.0889,0.0931 0.0889,0.0931 0,0 -0.32172,-0.0462 -0.32172,-0.0462 -0.1915,-0.0317 -0.38188,-0.067 -0.57147,-0.10863 -0.70871,-0.15566 -1.40251,-0.37919 -2.06575,-0.67432 -0.19621,-0.0873 -0.38915,-0.18043 -0.57994,-0.27891 0,0 -0.18625,-0.0979 -0.18625,-0.0979 0,0 -0.25399,-0.14207 -0.25399,-0.14207 -0.0218,-0.0127 -0.1,-0.0616 -0.11852,-0.0647 -0.0128,-0.002 -0.0724,0.007 -0.0889,0.01 0,0 -0.16086,0.0223 -0.16086,0.0223 0,0 -0.31325,0.0418 -0.31325,0.0418 0,0 -0.26668,0.0339 -0.26668,0.0339 0,0 -0.41062,0.0484 -0.41062,0.0484 0,0 -0.63496,0.0706 -0.63496,0.0706 0,0 -0.71116,0.0677 -0.71116,0.0677 0,0 -0.13122,0.01 -0.13122,0.01 0,0 -0.42332,0.0335 -0.42332,0.0335 0,0 -0.0804,0.008 -0.0804,0.008 0,0 -0.21589,0.0135 -0.21589,0.0135 0,0 -0.10159,0.008 -0.10159,0.008 0,0 -0.12275,0.008 -0.12275,0.008 0,0 -0.10584,0.005 -0.10584,0.005 0,0 -0.0423,0.004 -0.0423,0.004 0,0 -0.0974,0.004 -0.0974,0.004 0,0 -0.0593,0.004 -0.0593,0.004 0,0 -0.0804,0.004 -0.0804,0.004 0,0 -0.0762,0.004 -0.0762,0.004 0,0 -0.0762,0.004 -0.0762,0.004 0,0 -0.12275,0.004 -0.12275,0.004 0,0 -0.0423,0.004 -0.0423,0.004 0,0 -0.055,0 -0.055,0 0,0 -0.0635,0.004 -0.0635,0.004 0,0 -0.0974,0.004 -0.0974,0.004 0,0 -0.0593,0 -0.0593,0 0,0 -0.0466,0.004 -0.0466,0.004 0,0 -0.0593,0 -0.0593,0 0,0 -0.055,0.004 -0.055,0.004 0,0 -0.0677,0 -0.0677,0 0,0 -0.0677,0.004 -0.0677,0.004 0,0 -0.0804,0 -0.0804,0 0,0 -0.0677,0.004 -0.0677,0.004 0,0 -0.10583,0 -0.10583,0 0,0 -0.0635,0.004 -0.0635,0.004 0,0 -0.14392,0 -0.14392,0 0,0 -0.072,0.004 -0.072,0.004 0,0 -0.31749,0 -0.31749,0 0,0 -0.0635,0.004 -0.0635,0.004 0,0 -0.29631,0 -0.29631,0 0,0 -0.0635,-0.004 -0.0635,-0.004 0,0 -0.30055,0 -0.30055,0 0,0 -0.0635,-0.004 -0.0635,-0.004 0,0 -0.13546,0 -0.13546,0 0,0 -0.0635,-0.004 -0.0635,-0.004 0,0 -0.0974,0 -0.0974,0 0,0 -0.0635,-0.004 -0.0635,-0.004 0,0 -0.0804,0 -0.0804,0 0,0 -0.0677,-0.004 -0.0677,-0.004 0,0 -0.0593,0 -0.0593,0 0,0 -0.0677,-0.004 -0.0677,-0.004 0,0 -0.14392,-0.004 -0.14392,-0.004 0,0 -0.0466,-0.004 -0.0466,-0.004 0,0 -0.0593,0 -0.0593,0 0,0 -0.055,-0.004 -0.055,-0.004 -0.0543,-6.4e-4 -0.10714,-0.008 -0.16085,-0.0158 C 3.54079,26.35245 3.18894,26.12041 2.98444,25.79748 2.84618,25.57916 2.7738,25.32332 2.77681,25.06508 c 0,0 0.004,-0.0466 0.004,-0.0466 0.0245,-0.56229 0.41476,-1.04742 0.95261,-1.20776 0.0844,-0.0251 0.22618,-0.0537 0.31326,-0.0543 0,0 0.0423,0 0.0423,0 0,0 0.0423,0 0.0423,0 0,0 0.0381,0 0.0381,0 0,0 0.22435,0.009 0.22435,0.009 0,0 0.0635,0.004 0.0635,0.004 0,0 0.0508,0 0.0508,0 0,0 0.0423,0.004 0.0423,0.004 0,0 0.055,0 0.055,0 0,0 0.0593,0.004 0.0593,0.004 0,0 0.0677,0 0.0677,0 0,0 0.0677,0.004 0.0677,0.004 0,0 0.0931,0 0.0931,0 0,0 0.0677,0.004 0.0677,0.004 0,0 0.13969,0 0.13969,0 0,0 0.072,0.004 0.072,0.004 0,0 0.80005,0 0.80005,0 0,0 0.0635,-0.004 0.0635,-0.004 0,0 0.16086,0 0.16086,0 0,0 0.072,-0.004 0.072,-0.004 0,0 0.1016,0 0.1016,0 0,0 0.0635,-0.004 0.0635,-0.004 0,0 0.0804,0 0.0804,0 0,0 0.0635,-0.004 0.0635,-0.004 0,0 0.0635,0 0.0635,0 0,0 0.0677,-0.004 0.0677,-0.004 0,0 0.0635,0 0.0635,0 0,0 0.0508,-0.004 0.0508,-0.004 0,0 0.055,0 0.055,0 0,0 0.0508,-0.004 0.0508,-0.004 0,0 0.22012,-0.008 0.22012,-0.008 0,0 0.0635,-0.004 0.0635,-0.004 0,0 0.18202,-0.008 0.18202,-0.008 0,0 0.0593,-0.004 0.0593,-0.004 0,0 0.16086,-0.008 0.16086,-0.008 0,0 0.10583,-0.008 0.10583,-0.008 0,0 0.0381,0 0.0381,0 0,0 0.0974,-0.008 0.0974,-0.008 0,0 0.33441,-0.0219 0.33441,-0.0219 0,0 0.27091,-0.0212 0.27091,-0.0212 0,0 0.25399,-0.0212 0.25399,-0.0212 0,0 0.1143,-0.008 0.1143,-0.008 0,0 -0.14393,-0.1778 -0.14393,-0.1778 C 8.56019,23.30465 8.4393,23.14237 8.32318,22.97646 8.05345,22.59104 7.80649,22.18805 7.59077,21.7699 7.45201,21.50099 7.32818,21.22644 7.20869,20.94858 c 0,0 -0.15662,0.0366 -0.15662,0.0366 0,0 -0.27939,0.0645 -0.27939,0.0645 -0.42746,0.10139 -0.85876,0.19102 -1.29109,0.26901 -0.29822,0.0538 -0.59696,0.10143 -0.89742,0.14097 0,0 -0.49527,0.0527 -0.49527,0.0527 0,0 -0.127,0.0122 -0.127,0.0122 0,0 -0.0339,0 -0.0339,0 0,0 -0.0931,0.008 -0.0931,0.008 0,0 -0.0931,0.004 -0.0931,0.004 0,0 -0.0593,0.004 -0.0593,0.004 0,0 -0.0974,0.004 -0.0974,0.004 0,0 -0.0593,0 -0.0593,0 0,0 -0.0635,0.004 -0.0635,0.004 0,0 -0.36828,0 -0.36828,0 0,0 -0.0635,-0.004 -0.0635,-0.004 0,0 -0.055,0 -0.055,0 0,0 -0.0804,-0.004 -0.0804,-0.004 0,0 -0.0508,-0.004 -0.0508,-0.004 0,0 -0.32595,-0.0292 -0.32595,-0.0292 C 2.23146,21.47306 1.94923,21.41386 1.67599,21.31901 1.40101,21.22351 1.15219,21.09154 0.9225,20.91224 0.8582,20.86194 0.79812,20.80658 0.74047,20.74892 0.4806,20.48902 0.31802,20.19932 0.19572,19.85563 0.10162,19.59125 0.0316,19.2977 0.012,19.01739 c 0,0 -0.008,-0.12701 -0.008,-0.12701 0,0 -0.004,-0.0677 -0.004,-0.0677 0,0 0,-0.16934 0,-0.16934 0,0 0.004,-0.0889 0.004,-0.0889 0,0 0.004,-0.0466 0.004,-0.0466 0.008,-0.17382 0.0401,-0.36775 0.0791,-0.53765 0.16941,-0.73824 0.58132,-1.41007 1.07364,-1.97707 0.58623,-0.67516 1.33253,-1.26485 2.07304,-1.76399 0.56976,-0.38406 1.16108,-0.73012 1.7652,-1.05686 0,0 0.45293,-0.23893 0.45293,-0.23893 0.34932,-0.17591 0.69864,-0.3514 1.05404,-0.51464 0,0 0.44872,-0.20672 0.44872,-0.20672 0,0 0.50797,-0.22443 0.50797,-0.22443 0,0 0.16085,-0.0696 0.16085,-0.0696 0.0136,-0.006 0.0665,-0.0267 0.0745,-0.0338 0.009,-0.008 0.0374,-0.0632 0.0458,-0.0781 0,0 0.0998,-0.17357 0.0998,-0.17357 0,0 0.1143,0.1143 0.1143,0.1143 0,0 0.25415,0.26672 0.25415,0.26672 0,0 0.53337,0.55882 0.53337,0.55882 0,0 0.26266,0.27518 0.26266,0.27518 0,0 0.1476,0.15239 0.1476,0.15239 0,0 0.21623,0.22862 0.21623,0.22862 0,0 0.24518,0.25401 0.24518,0.25401 0,0 1.29568,1.35474 1.29568,1.35474 0,0 0.0674,0.0677 0.0674,0.0677 0,0 0.24162,0.25402 0.24162,0.25402 0,0 0.0716,0.072 0.0716,0.072 0,0 0.57181,0.59692 0.57181,0.59692 0,0 0.0843,0.0847 0.0843,0.0847 0,0 0.14849,0.15663 0.14849,0.15663 0,0 0.0922,0.0931 0.0922,0.0931 0,0 0.10637,0.11008 0.10637,0.11008 0,0 0.0342,0.0381 0.0342,0.0381 0,0 0.0843,0.0847 0.0843,0.0847 0,0 0.0467,0.0508 0.0467,0.0508 0,0 0.072,0.072 0.072,0.072 0,0 0.0346,0.0306 0.0346,0.0306 0,0 0.0458,-0.009 0.0458,-0.009 0,0 0.0931,-0.0308 0.0931,-0.0308 0,0 0.24128,-0.0779 0.24128,-0.0779 0,0 0.14392,-0.0437 0.14392,-0.0437 -0.02,-0.0279 -0.10177,-0.106 -0.13123,-0.13548 0,0 -0.28361,-0.27941 -0.28361,-0.27941 0,0 -0.33442,-0.33441 -0.33442,-0.33441 0,0 -0.0508,-0.0466 -0.0508,-0.0466 0,0 -0.44447,-0.44447 -0.44447,-0.44447 0,0 -0.0466,-0.0424 -0.0466,-0.0424 0,0 -0.44448,-0.44444 -0.44448,-0.44444 0,0 -0.0466,-0.0424 -0.0466,-0.0424 0,0 -0.44871,-0.44866 -0.44871,-0.44866 0,0 -0.0466,-0.0424 -0.0466,-0.0424 0,0 -0.44025,-0.44025 -0.44025,-0.44025 0,0 -0.0593,-0.055 -0.0593,-0.055 0,0 -0.44023,-0.44025 -0.44023,-0.44025 0,0 -0.0508,-0.0466 -0.0508,-0.0466 0,0 -0.44025,-0.44025 -0.44025,-0.44025 0,0 -0.0466,-0.0424 -0.0466,-0.0424 0,0 -0.44447,-0.44447 -0.44447,-0.44447 0,0 -0.0593,-0.055 -0.0593,-0.055 0,0 -0.43602,-0.43601 -0.43602,-0.43601 0,0 -0.0466,-0.0424 -0.0466,-0.0424 0,0 -0.22435,-0.22433 -0.22435,-0.22433 0,0 -0.072,-0.072 -0.072,-0.072 -0.009,-0.009 -0.0291,-0.0271 -0.0321,-0.0381 -0.004,-0.0147 0.0223,-0.0503 0.0308,-0.0635 0,0 0.10714,-0.16511 0.10714,-0.16511 0.10705,-0.16063 0.21703,-0.31972 0.33284,-0.47416 0,0 0.10562,-0.1397 0.10562,-0.1397 0.0168,-0.0216 0.0364,-0.0507 0.0568,-0.0677 0,0 0.13507,0.14394 0.13507,0.14394 0,0 0.34711,0.36832 0.34711,0.36832 0,0 0.89818,0.95255 0.89818,0.95255 0,0 0.18973,0.19898 0.18973,0.19898 0,0 0.4791,0.50803 0.4791,0.50803 0,0 0.12624,0.13124 0.12624,0.13124 0,0 0.33516,0.3556 0.33516,0.3556 0,0 0.0543,0.055 0.0543,0.055 0,0 0.55052,0.58 0.55052,0.58 0,0 0.19506,0.20744 0.19506,0.20744 0,0 0.46953,0.49109 0.46953,0.49109 0,0 0.33035,0.34716 0.33035,0.34716 0,0 0.0467,0.0508 0.0467,0.0508 0,0 0.17778,0.18628 0.17778,0.18628 0,0 0.42721,0.44453 0.42721,0.44453 0,0 0.27532,0.28787 0.27532,0.28787 0,0 0.0552,0.0593 0.0552,0.0593 0,0 0.0976,0.10161 0.0976,0.10161 0,0 0.0754,0.0762 0.0754,0.0762 0,0 0.0639,0.0677 0.0639,0.0677 0,0 0.0339,0.0257 0.0339,0.0257 0,0 0.0466,-0.0113 0.0466,-0.0113 0,0 0.11852,-0.0385 0.11852,-0.0385 0,0 0.41485,-0.13686 0.41485,-0.13686 0,0 -0.24976,-0.24974 -0.24976,-0.24974 0,0 -0.0508,-0.0466 -0.0508,-0.0466 0,0 -0.28786,-0.28784 -0.28786,-0.28784 0,0 -0.0466,-0.0424 -0.0466,-0.0424 0,0 -0.29208,-0.29202 -0.29208,-0.29202 0,0 -0.0466,-0.0424 -0.0466,-0.0424 0,0 -0.63498,-0.63071 -0.63498,-0.63071 0,0 -0.0466,-0.0424 -0.0466,-0.0424 0,0 -0.29208,-0.29203 -0.29208,-0.29203 0,0 -0.0508,-0.0466 -0.0508,-0.0466 0,0 -0.29209,-0.29207 -0.29209,-0.29207 0,0 -0.0466,-0.0424 -0.0466,-0.0424 0,0 -0.29208,-0.29203 -0.29208,-0.29203 0,0 -0.0508,-0.0466 -0.0508,-0.0466 0,0 -0.28363,-0.28365 -0.28363,-0.28365 0,0 -0.0593,-0.055 -0.0593,-0.055 0,0 -0.28786,-0.28783 -0.28786,-0.28783 0,0 -0.0466,-0.0424 -0.0466,-0.0424 0,0 -0.29208,-0.29203 -0.29208,-0.29203 0,0 -0.055,-0.0508 -0.055,-0.0508 0,0 -0.28362,-0.28361 -0.28362,-0.28361 0,0 -0.11007,-0.10588 -0.11007,-0.10588 0,0 -0.16086,-0.16088 -0.16086,-0.16088 0,0 -0.0847,-0.084 -0.0847,-0.084 0,0 -0.32594,-0.32231 -0.32594,-0.32231 0,0 -0.0381,-0.0342 -0.0381,-0.0342 0,0 -0.30056,-0.30036 -0.30056,-0.30036 0,0 -0.0466,-0.0424 -0.0466,-0.0424 0,0 -0.29633,-0.29627 -0.29633,-0.29627 0,0 -0.0677,-0.0635 -0.0677,-0.0635 0,0 -0.25398,-0.254 -0.25398,-0.254 0,0 -0.0633,-0.0593 -0.0633,-0.0593 -0.008,-0.009 -0.0161,-0.017 -0.0126,-0.0296 0.003,-0.011 0.0328,-0.0444 0.0417,-0.055 0,0 0.10498,-0.12276 0.10498,-0.12276 0,0 0.30211,-0.33446 0.30211,-0.33446 0,0 0.0587,-0.0593 0.0587,-0.0593 0,0 0.0552,-0.0593 0.0552,-0.0593 0,0 0.13547,-0.13549 0.13547,-0.13549 0.0104,-0.0104 0.035,-0.0407 0.0508,-0.0367 0.0102,0.003 0.0232,0.0202 0.0304,0.0282 0,0 0.0713,0.0762 0.0713,0.0762 0,0 0.27956,0.30058 0.27956,0.30058 0,0 0.34308,0.36832 0.34308,0.36832 0,0 0.71963,0.7705 0.71963,0.7705 0,0 1.56625,1.67226 1.56625,1.67226 0,0 0.66883,0.71123 0.66883,0.71123 0,0 0.18549,0.19473 0.18549,0.19473 0,0 0.67382,0.71547 0.67382,0.71547 0,0 0.12624,0.13125 0.12624,0.13125 0,0 0.38119,0.40219 0.38119,0.40219 0,0 0.33018,0.34715 0.33018,0.34715 0,0 0.0383,0.0423 0.0383,0.0423 0,0 0.22838,0.23709 0.22838,0.23709 0,0 0.051,0.055 0.051,0.055 0,0 0.0931,0.0974 0.0931,0.0974 0.0202,0.0202 0.0471,0.042 0.0593,0.0677 0,0 0.1524,-0.0494 0.1524,-0.0494 0,0 0.32171,-0.10584 0.32171,-0.10584 0,0 0.18625,-0.0607 0.18625,-0.0607 0,0 -0.22435,-0.22433 -0.22435,-0.22433 0,0 -0.0508,-0.0466 -0.0508,-0.0466 0,0 -0.21588,-0.21587 -0.21588,-0.21587 0,0 -0.0466,-0.0424 -0.0466,-0.0424 0,0 -0.22436,-0.2243 -0.22436,-0.2243 0,0 -0.0466,-0.0424 -0.0466,-0.0424 0,0 -0.22013,-0.22006 -0.22013,-0.22006 0,0 -0.0466,-0.0424 -0.0466,-0.0424 0,0 -0.22858,-0.22838 -0.22858,-0.22838 0,0 -0.0423,-0.0383 -0.0423,-0.0383 0,0 -0.22012,-0.22005 -0.22012,-0.22005 0,0 -0.0466,-0.0424 -0.0466,-0.0424 0,0 -0.22012,-0.22006 -0.22012,-0.22006 0,0 -0.0423,-0.0383 -0.0423,-0.0383 0,0 -0.22859,-0.2284 -0.22859,-0.2284 0,0 -0.0466,-0.0424 -0.0466,-0.0424 0,0 -0.22011,-0.22006 -0.22011,-0.22006 0,0 -0.0466,-0.0424 -0.0466,-0.0424 0,0 -0.22436,-0.22429 -0.22436,-0.22429 0,0 -0.0466,-0.0424 -0.0466,-0.0424 0,0 -0.22013,-0.22005 -0.22013,-0.22005 0,0 -0.0466,-0.0424 -0.0466,-0.0424 0,0 -0.22012,-0.22006 -0.22012,-0.22006 0,0 -0.0466,-0.0424 -0.0466,-0.0424 0,0 -0.22436,-0.22429 -0.22436,-0.22429 0,0 -0.0466,-0.0424 -0.0466,-0.0424 0,0 -0.22012,-0.22006 -0.22012,-0.22006 0,0 -0.0423,-0.0383 -0.0423,-0.0383 0,0 -0.22859,-0.22841 -0.22859,-0.22841 0,0 -0.0466,-0.0424 -0.0466,-0.0424 0,0 -0.21588,-0.21586 -0.21588,-0.21586 0,0 -0.0974,-0.0931 -0.0974,-0.0931 0,0 -0.18625,-0.18589 -0.18625,-0.18589 0,0 -0.24976,-0.24593 -0.24976,-0.24593 0,0 -0.0593,-0.055 -0.0593,-0.055 0,0 -0.21589,-0.21587 -0.21589,-0.21587 0,0 -0.0466,-0.0424 -0.0466,-0.0424 0,0 -0.22436,-0.22429 -0.22436,-0.22429 0,0 -0.0423,-0.0383 -0.0423,-0.0383 0,0 -0.22013,-0.21997 -0.22013,-0.21997 0,0 -0.0508,-0.0466 -0.0508,-0.0466 0,0 -0.18626,-0.18623 -0.18626,-0.18623 0,0 -0.17356,-0.16934 -0.17356,-0.16934 0,0 -0.14815,-0.14699 -0.14815,-0.14699 0,0 -0.10583,-0.1028 -0.10583,-0.1028 -0.009,-0.009 -0.0382,-0.0358 -0.0409,-0.0466 -0.004,-0.0179 0.0291,-0.0409 0.0409,-0.0515 0,0 0.1524,-0.13723 0.1524,-0.13723 0.14311,-0.12378 0.28729,-0.24541 0.436,-0.36251 0,0 0.22859,-0.17268 0.22859,-0.17268 0,0 0.18588,0.20321 0.18588,0.20321 0,0 0.21698,0.23707 0.21698,0.23707 0,0 0.12978,0.13971 0.12978,0.13971 0,0 0.44482,0.48262 0.44482,0.48262 0,0 0.60957,0.66044 0.60957,0.66044 0,0 0.80928,0.87633 0.80928,0.87633 0,0 1.4258,1.53255 1.4258,1.53255 0,0 0.8553,0.91444 0.8553,0.91444 0,0 0.0937,0.10161 0.0937,0.10161 0,0 0.25399,0.27094 0.25399,0.27094 0,0 0.18126,0.19052 0.18126,0.19052 0,0 0.58862,0.62233 0.58862,0.62233 0,0 0.10637,0.1143 0.10637,0.1143 0,0 0.14338,0.14819 0.14338,0.14819 0,0 0.0552,0.0593 0.0552,0.0593 0,0 0.0762,0.0804 0.0762,0.0804 0,0 0.0356,0.0317 0.0356,0.0317 0,0 0.0533,-0.0123 0.0533,-0.0123 0,0 0.14815,-0.049 0.14815,-0.049 0,0 0.31749,-0.103 0.31749,-0.103 0,0 0.22013,-0.0706 0.22013,-0.0706 0,0 -0.055,-0.0552 -0.055,-0.0552 0,0 -0.0974,-0.0972 -0.0974,-0.0972 0,0 -0.0847,-0.0845 -0.0847,-0.0845 0,0 -0.0423,-0.0383 -0.0423,-0.0383 0,0 -0.17779,-0.17759 -0.17779,-0.17759 0,0 -0.0381,-0.0342 -0.0381,-0.0342 0,0 -0.18203,-0.18171 -0.18203,-0.18171 0,0 -0.0423,-0.0383 -0.0423,-0.0383 0,0 -0.17355,-0.17336 -0.17355,-0.17336 0,0 -0.0423,-0.0383 -0.0423,-0.0383 0,0 -0.17356,-0.17349 -0.17356,-0.17349 0,0 -0.0466,-0.0424 -0.0466,-0.0424 0,0 -0.17779,-0.17759 -0.17779,-0.17759 0,0 -0.0423,-0.0383 -0.0423,-0.0383 0,0 -0.38944,-0.38516 -0.38944,-0.38516 0,0 -0.0423,-0.0383 -0.0423,-0.0383 0,0 -0.17778,-0.17759 -0.17778,-0.17759 0,0 -0.0466,-0.0424 -0.0466,-0.0424 0,0 -0.17779,-0.17759 -0.17779,-0.17759 0,0 -0.0423,-0.0383 -0.0423,-0.0383 0,0 -0.17355,-0.17348 -0.17355,-0.17348 0,0 -0.0466,-0.0424 -0.0466,-0.0424 0,0 -0.17356,-0.17349 -0.17356,-0.17349 0,0 -0.0466,-0.0424 -0.0466,-0.0424 0,0 -0.16933,-0.16927 -0.16933,-0.16927 0,0 -0.0466,-0.0424 -0.0466,-0.0424 0,0 -0.17357,-0.1735 -0.17357,-0.1735 0,0 -0.0423,-0.0383 -0.0423,-0.0383 0,0 -0.1778,-0.17761 -0.1778,-0.17761 0,0 -0.0423,-0.0383 -0.0423,-0.0383 0,0 -0.1778,-0.17761 -0.1778,-0.17761 0,0 -0.0466,-0.0424 -0.0466,-0.0424 0,0 -0.16933,-0.16927 -0.16933,-0.16927 0,0 -0.0466,-0.0424 -0.0466,-0.0424 0,0 -0.17357,-0.17349 -0.17357,-0.17349 0,0 -0.0466,-0.0424 -0.0466,-0.0424 0,0 -0.17356,-0.17348 -0.17356,-0.17348 0,0 -0.0466,-0.0424 -0.0466,-0.0424 0,0 -0.17357,-0.17348 -0.17357,-0.17348 0,0 -0.0466,-0.0424 -0.0466,-0.0424 0,0 -0.17357,-0.17348 -0.17357,-0.17348 0,0 -0.0466,-0.0424 -0.0466,-0.0424 0,0 -0.16508,-0.16505 -0.16508,-0.16505 0,0 -0.0508,-0.0466 -0.0508,-0.0466 0,0 -0.16932,-0.1693 -0.16932,-0.1693 0,0 -0.0508,-0.0466 -0.0508,-0.0466 0,0 -0.17356,-0.17349 -0.17356,-0.17349 0,0 -0.0423,-0.0383 -0.0423,-0.0383 0,0 -0.17779,-0.17759 -0.17779,-0.17759 0,0 -0.0466,-0.0424 -0.0466,-0.0424 0,0 -0.17778,-0.1776 -0.17778,-0.1776 0,0 -0.0423,-0.0383 -0.0423,-0.0383 0,0 -0.16932,-0.16926 -0.16932,-0.16926 0,0 -0.055,-0.0508 -0.055,-0.0508 0,0 -0.16932,-0.16917 -0.16932,-0.16917 0,0 -0.0381,-0.0342 -0.0381,-0.0342 0,0 -0.17779,-0.17759 -0.17779,-0.17759 0,0 -0.0423,-0.0383 -0.0423,-0.0383 0,0 -0.13123,-0.13107 -0.13123,-0.13107 0,0 -0.17778,-0.17782 -0.17778,-0.17782 0,0 0.18625,-0.127 0.18625,-0.127 0.1761,-0.1174 0.35367,-0.23504 0.5376,-0.33987 0,0 0.1778,-0.10287 0.1778,-0.10287 0.0132,-0.008 0.0588,-0.0358 0.0716,-0.0347 0.0111,10e-4 0.0227,0.0166 0.0301,0.0244 0,0 0.073,0.0804 0.073,0.0804 0,0 0.11661,0.12701 0.11661,0.12701 0,0 0.14927,0.1651 0.14927,0.1651 0,0 0.47022,0.5165 0.47022,0.5165 0,0 0.62226,0.6816 0.62226,0.6816 0,0 0.91435,0.99912 0.91435,0.99912 0,0 0.21868,0.23707 0.21868,0.23707 0,0 0.76652,0.83401 0.76652,0.83401 0,0 0.47488,0.51649 0.47488,0.51649 0,0 0.73233,0.79168 0.73233,0.79168 0,0 0.48604,0.52072 0.48604,0.52072 0,0 0.71193,0.76204 0.71193,0.76204 0,0 0.21588,0.22861 0.21588,0.22861 0,0 0.0455,0.0466 0.0455,0.0466 0,0 0.15696,0.16511 0.15696,0.16511 0,0 0.14854,0.15665 0.14854,0.15665 0,0 0.0804,0.0847 0.0804,0.0847 0.009,0.009 0.0267,0.0286 0.0381,0.0324 0.0131,0.004 0.0494,-0.0107 0.0635,-0.0154 0,0 0.15663,-0.0508 0.15663,-0.0508 0,0 0.38521,-0.12285 0.38521,-0.12285 0,0 0.21165,-0.0676 0.21165,-0.0676 0,0 0,-0.008 0,-0.008 -0.0253,-0.012 -0.0439,-0.0354 -0.0635,-0.055 0,0 -0.10582,-0.10579 -0.10582,-0.10579 0,0 -0.0466,-0.0424 -0.0466,-0.0424 0,0 -0.13969,-0.13948 -0.13969,-0.13948 0,0 -0.0423,-0.0383 -0.0423,-0.0383 0,0 -0.14816,-0.14774 -0.14816,-0.14774 0,0 -0.17779,-0.17392 -0.17779,-0.17392 0,0 -0.0508,-0.0466 -0.0508,-0.0466 0,0 -0.13969,-0.13955 -0.13969,-0.13955 0,0 -0.0423,-0.0383 -0.0423,-0.0383 0,0 -0.14392,-0.14372 -0.14392,-0.14372 0,0 -0.0423,-0.0383 -0.0423,-0.0383 0,0 -0.13969,-0.13961 -0.13969,-0.13961 0,0 -0.0423,-0.0383 -0.0423,-0.0383 0,0 -0.14391,-0.14372 -0.14391,-0.14372 0,0 -0.0466,-0.0424 -0.0466,-0.0424 0,0 -0.1397,-0.1395 -0.1397,-0.1395 0,0 -0.0423,-0.0383 -0.0423,-0.0383 0,0 -0.1397,-0.13962 -0.1397,-0.13962 0,0 -0.0508,-0.0466 -0.0508,-0.0466 0,0 -0.13969,-0.13953 -0.13969,-0.13953 0,0 -0.0423,-0.0383 -0.0423,-0.0383 0,0 -0.14392,-0.14372 -0.14392,-0.14372 0,0 -0.0423,-0.0383 -0.0423,-0.0383 0,0 -0.13968,-0.13962 -0.13968,-0.13962 0,0 -0.0423,-0.0383 -0.0423,-0.0383 0,0 -0.1397,-0.13951 -0.1397,-0.13951 0,0 -0.0423,-0.0383 -0.0423,-0.0383 0,0 -0.14393,-0.14373 -0.14393,-0.14373 0,0 -0.0423,-0.0383 -0.0423,-0.0383 0,0 -0.14815,-0.14782 -0.14815,-0.14782 0,0 -0.0423,-0.0383 -0.0423,-0.0383 0,0 -0.13969,-0.13961 -0.13969,-0.13961 0,0 -0.0423,-0.0383 -0.0423,-0.0383 0,0 -0.13969,-0.13954 -0.13969,-0.13954 0,0 -0.0508,-0.0466 -0.0508,-0.0466 0,0 -0.13969,-0.13963 -0.13969,-0.13963 0,0 -0.0423,-0.0383 -0.0423,-0.0383 0,0 -0.1397,-0.13954 -0.1397,-0.13954 0,0 -0.0508,-0.0466 -0.0508,-0.0466 0,0 -0.13547,-0.13538 -0.13547,-0.13538 0,0 -0.0423,-0.0383 -0.0423,-0.0383 0,0 -0.14393,-0.14373 -0.14393,-0.14373 0,0 -0.0466,-0.0424 -0.0466,-0.0424 0,0 -0.13969,-0.13949 -0.13969,-0.13949 0,0 -0.0423,-0.0383 -0.0423,-0.0383 0,0 -0.14392,-0.14386 -0.14392,-0.14386 0,0 -0.0423,-0.0383 -0.0423,-0.0383 0,0 -0.14393,-0.14373 -0.14393,-0.14373 0,0 -0.0466,-0.0424 -0.0466,-0.0424 0,0 -0.14394,-0.14372 -0.14394,-0.14372 0,0 -0.0423,-0.0383 -0.0423,-0.0383 0,0 -0.1397,-0.13962 -0.1397,-0.13962 0,0 -0.0466,-0.0424 -0.0466,-0.0424 0,0 -0.13969,-0.1395 -0.13969,-0.1395 0,0 -0.0423,-0.0383 -0.0423,-0.0383 0,0 -0.13968,-0.13962 -0.13968,-0.13962 0,0 -0.0423,-0.0383 -0.0423,-0.0383 0,0 -0.13969,-0.13954 -0.13969,-0.13954 0,0 -0.0508,-0.0466 -0.0508,-0.0466 0,0 -0.1397,-0.13962 -0.1397,-0.13962 0,0 -0.0423,-0.0383 -0.0423,-0.0383 0,0 -0.14816,-0.14784 -0.14816,-0.14784 0,0 -0.0423,-0.0383 -0.0423,-0.0383 0,0 -0.14393,-0.14372 -0.14393,-0.14372 0,0 -0.0423,-0.0383 -0.0423,-0.0383 0,0 -0.13968,-0.13949 -0.13968,-0.13949 0,0 -0.0423,-0.0383 -0.0423,-0.0383 0,0 -0.13969,-0.13962 -0.13969,-0.13962 0,0 -0.0423,-0.0383 -0.0423,-0.0383 0,0 -0.13969,-0.13954 -0.13969,-0.13954 0,0 -0.0508,-0.0466 -0.0508,-0.0466 0,0 -0.13547,-0.13543 -0.13547,-0.13543 -0.0432,-0.0427 -0.13245,-0.11951 -0.16509,-0.1651 0,0 0.072,-0.037 0.072,-0.037 0,0 0.16086,-0.0804 0.16086,-0.0804 0.18397,-0.0891 0.37027,-0.17358 0.55878,-0.25266 0,0 0.20318,-0.0835 0.20318,-0.0835 0.0141,-0.006 0.0731,-0.0304 0.0845,-0.0286 0.0125,0.002 0.0256,0.02 0.0341,0.0292 0,0 0.0722,0.0804 0.0722,0.0804 0,0 0.29717,0.33022 0.29717,0.33022 0,0 0.2944,0.32598 0.2944,0.32598 0,0 0.80575,0.89327 0.80575,0.89327 0,0 1.27415,1.40555 1.27415,1.40555 0,0 0.32875,0.35985 0.32875,0.35985 0,0 0.71115,0.77896 0.71115,0.77896 0,0 0.60569,0.66044 0.60569,0.66044 0,0 0.17007,0.18628 0.17007,0.18628 0,0 0.54532,0.58846 0.54532,0.58846 0,0 0.61032,0.6562 0.61032,0.6562 0,0 0.35135,0.37255 0.35135,0.37255 0,0 0.0543,0.055 0.0543,0.055 0,0 0.21221,0.22437 0.21221,0.22437 0,0 0.0714,0.072 0.0714,0.072 0,0 0.0808,0.0847 0.0808,0.0847 0.009,0.009 0.0267,0.0286 0.0381,0.0324 0.0118,0.004 0.0579,-0.0124 0.072,-0.0169 0,0 0.17779,-0.0564 0.17779,-0.0564 0,0 0.44025,-0.13699 0.44025,-0.13699 0,0 0.127,-0.0394 0.127,-0.0394 0,0 0.0931,-0.0282 0.0931,-0.0282 0,0 -0.3217,-0.31344 -0.3217,-0.31344 0,0 -0.127,-0.12667 -0.127,-0.12667 0,0 -0.0423,-0.0383 -0.0423,-0.0383 0,0 -0.12699,-0.12691 -0.12699,-0.12691 0,0 -0.0423,-0.0383 -0.0423,-0.0383 0,0 -0.12275,-0.12256 -0.12275,-0.12256 0,0 -0.0423,-0.0383 -0.0423,-0.0383 0,0 -0.127,-0.12681 -0.127,-0.12681 0,0 -0.0423,-0.0383 -0.0423,-0.0383 0,0 -0.12276,-0.12255 -0.12276,-0.12255 0,0 -0.0423,-0.0383 -0.0423,-0.0383 0,0 -0.12276,-0.12259 -0.12276,-0.12259 0,0 -0.0508,-0.0466 -0.0508,-0.0466 0,0 -0.11852,-0.11845 -0.11852,-0.11845 0,0 -0.0423,-0.0383 -0.0423,-0.0383 0,0 -0.127,-0.1268 -0.127,-0.1268 0,0 -0.0423,-0.0383 -0.0423,-0.0383 0,0 -0.127,-0.12681 -0.127,-0.12681 0,0 -0.0423,-0.0383 -0.0423,-0.0383 0,0 -0.12276,-0.12256 -0.12276,-0.12256 0,0 -0.0423,-0.0383 -0.0423,-0.0383 0,0 -0.12699,-0.12679 -0.12699,-0.12679 0,0 -0.0423,-0.0383 -0.0423,-0.0383 0,0 -0.12277,-0.12256 -0.12277,-0.12256 0,0 -0.0423,-0.0383 -0.0423,-0.0383 0,0 -0.127,-0.12678 -0.127,-0.12678 0,0 -0.0423,-0.0383 -0.0423,-0.0383 0,0 -0.12699,-0.12679 -0.12699,-0.12679 0,0 -0.0423,-0.0383 -0.0423,-0.0383 0,0 -0.12276,-0.12243 -0.12276,-0.12243 0,0 -0.0423,-0.0383 -0.0423,-0.0383 0,0 -0.13122,-0.13103 -0.13122,-0.13103 0,0 -0.0423,-0.0383 -0.0423,-0.0383 0,0 -0.12276,-0.12256 -0.12276,-0.12256 0,0 -0.0423,-0.0383 -0.0423,-0.0383 0,0 -0.12275,-0.12268 -0.12275,-0.12268 0,0 -0.0423,-0.0383 -0.0423,-0.0383 0,0 -0.12275,-0.12257 -0.12275,-0.12257 0,0 -0.0423,-0.0383 -0.0423,-0.0383 0,0 -0.12276,-0.12255 -0.12276,-0.12255 0,0 -0.0423,-0.0383 -0.0423,-0.0383 0,0 -0.13122,-0.13101 -0.13122,-0.13101 0,0 -0.0423,-0.0383 -0.0423,-0.0383 0,0 -0.12275,-0.12257 -0.12275,-0.12257 0,0 -0.0423,-0.0383 -0.0423,-0.0383 0,0 -0.12699,-0.1268 -0.12699,-0.1268 0,0 -0.0423,-0.0383 -0.0423,-0.0383 0,0 -0.12276,-0.12257 -0.12276,-0.12257 0,0 -0.0423,-0.0383 -0.0423,-0.0383 0,0 -0.12699,-0.12679 -0.12699,-0.12679 0,0 -0.0423,-0.0383 -0.0423,-0.0383 0,0 -0.12699,-0.12667 -0.12699,-0.12667 0,0 -0.0423,-0.0383 -0.0423,-0.0383 0,0 -0.12699,-0.12681 -0.12699,-0.12681 0,0 -0.0423,-0.0383 -0.0423,-0.0383 0,0 -0.12699,-0.12679 -0.12699,-0.12679 0,0 -0.0423,-0.0383 -0.0423,-0.0383 0,0 -0.12276,-0.12256 -0.12276,-0.12256 0,0 -0.0423,-0.0383 -0.0423,-0.0383 0,0 -0.12699,-0.1268 -0.12699,-0.1268 0,0 -0.87625,-0.85129 -0.87625,-0.85129 0,0 -0.29632,-0.29177 -0.29632,-0.29177 0,0 -0.0381,-0.0342 -0.0381,-0.0342 0,0 -0.11853,-0.11838 -0.11853,-0.11838 0,0 -0.0508,-0.0466 -0.0508,-0.0466 0,0 -0.11852,-0.11844 -0.11852,-0.11844 0,0 -0.0423,-0.0383 -0.0423,-0.0383 0,0 -0.1016,-0.10144 -0.1016,-0.10144 0,0 -0.13546,-0.13123 -0.13546,-0.13123 -0.0202,-0.0202 -0.0471,-0.042 -0.0593,-0.0677 0,0 0.11006,-0.0367 0.11006,-0.0367 0,0 0.20743,-0.0677 0.20743,-0.0677 0.18121,-0.0579 0.36569,-0.11139 0.5503,-0.15754 0,0 0.22012,-0.0547 0.22012,-0.0547 0.0173,-0.004 0.0661,-0.0186 0.0804,-0.0128 0.0125,0.005 0.0254,0.0229 0.0345,0.0331 0,0 0.0758,0.0847 0.0758,0.0847 0,0 0.27129,0.30482 0.27129,0.30482 0,0 0.63078,0.707 0.63078,0.707 0,0 0.35604,0.39795 0.35604,0.39795 0,0 0.23939,0.26671 0.23939,0.26671 0,0 0.52066,0.58 0.52066,0.58 0,0 1.75818,1.94743 1.75818,1.94743 0,0 0.62227,0.68161 0.62227,0.68161 0,0 0.26949,0.29211 0.26949,0.29211 0,0 0.77075,0.82978 0.77075,0.82978 0,0 0.36425,0.38524 0.36425,0.38524 0,0 0.16104,0.16934 0.16104,0.16934 0,0 0.0848,0.0889 0.0848,0.0889 0,0 0.13102,0.13123 0.13102,0.13123 0,0 0.0383,0.0423 0.0383,0.0423 0,0 0.076,0.0762 0.076,0.0762 0,0 0.0889,0.0847 0.0889,0.0847 0.0102,0.0102 0.0281,0.0312 0.0423,0.0334 0.01,0.002 0.0704,-0.019 0.0847,-0.0232 0,0 0.22012,-0.0667 0.22012,-0.0667 0,0 0.24551,-0.0736 0.24551,-0.0736 0,0 0.44448,-0.13243 0.44448,-0.13243 0,0 -0.14392,-0.13954 -0.14392,-0.13954 0,0 -0.0381,-0.0342 -0.0381,-0.0342 0,0 -0.11429,-0.11396 -0.11429,-0.11396 0,0 -0.0423,-0.0383 -0.0423,-0.0383 0,0 -0.10584,-0.10563 -0.10584,-0.10563 0,0 -0.78735,-0.76237 -0.78735,-0.76237 0,0 -0.1143,-0.11397 -0.1143,-0.11397 0,0 -0.93551,-0.90632 -0.93551,-0.90632 0,0 -0.11429,-0.11396 -0.11429,-0.11396 0,0 -0.33865,-0.32633 -0.33865,-0.32633 0,0 -0.11006,-0.10972 -0.11006,-0.10972 0,0 -0.33865,-0.32633 -0.33865,-0.32633 0,0 -0.11429,-0.11396 -0.11429,-0.11396 0,0 -0.48681,-0.47026 -0.48681,-0.47026 0,0 -0.11429,-0.11397 -0.11429,-0.11397 0,0 -0.48681,-0.47027 -0.48681,-0.47027 0,0 -0.11007,-0.10973 -0.11007,-0.10973 0,0 -0.63919,-0.61843 -0.63919,-0.61843 0,0 -0.11429,-0.11397 -0.11429,-0.11397 0,0 -0.33441,-0.3221 -0.33441,-0.3221 0,0 -0.11429,-0.11396 -0.11429,-0.11396 0,0 -0.59688,-0.58011 -0.59688,-0.58011 0,0 -0.0423,-0.0383 -0.0423,-0.0383 0,0 -0.10581,-0.10563 -0.10581,-0.10563 0,0 -0.0423,-0.0383 -0.0423,-0.0383 0,0 -0.11006,-0.10985 -0.11006,-0.10985 0,0 -0.0423,-0.0383 -0.0423,-0.0383 0,0 -0.10584,-0.10563 -0.10584,-0.10563 0,0 -0.0423,-0.0383 -0.0423,-0.0383 0,0 -0.10159,-0.10144 -0.10159,-0.10144 0,0 -0.055,-0.0508 -0.055,-0.0508 0,0 -0.10583,-0.10562 -0.10583,-0.10562 0,0 -0.0804,-0.0806 -0.0804,-0.0806 0.22203,-0.0404 0.44486,-0.0767 0.66884,-0.10465 0,0 0.21588,-0.0235 0.21588,-0.0235 0,0 0.27092,-0.0246 0.27092,-0.0246 0.0169,-0.001 0.086,-0.01 0.0974,-0.006 0.0142,0.005 0.0247,0.0203 0.0345,0.0313 0,0 0.0673,0.0762 0.0673,0.0762 0,0 0.25014,0.28365 0.25014,0.28365 0,0 0.91435,1.03298 0.91435,1.03298 0,0 2.20548,2.46817 2.20548,2.46817 0,0 0.82968,0.91444 0.82968,0.91444 0,0 0.31182,0.33868 0.31182,0.33868 0,0 0.54641,0.58847 0.54641,0.58847 0.23061,0.24757 0.46377,0.49307 0.70307,0.7324 0,0 0.1905,0.18221 0.1905,0.18221 0,0 0.18202,0.17095 0.18202,0.17095 0,0 0.0847,0.0787 0.0847,0.0787 0.0115,0.0111 0.036,0.0367 0.0508,0.041 0.015,0.004 0.0713,-0.0157 0.0889,-0.021 0,0 0.20743,-0.0593 0.20743,-0.0593 0,0 0.55876,-0.15788 0.55876,-0.15788 0,0 0.22012,-0.061 0.22012,-0.061 0,0 -0.10159,-0.0975 -0.10159,-0.0975 0,0 -0.0974,-0.097 -0.0974,-0.097 0,0 -0.16508,-0.15699 -0.16508,-0.15699 0,0 -0.0974,-0.097 -0.0974,-0.097 0,0 -0.30478,-0.29245 -0.30478,-0.29245 0,0 -0.22859,-0.22404 -0.22859,-0.22404 0,0 -0.96939,-0.93596 -0.96939,-0.93596 0,0 -0.0931,-0.0928 -0.0931,-0.0928 0,0 -0.30477,-0.29245 -0.30477,-0.29245 0,0 -0.0931,-0.0928 -0.0931,-0.0928 0,0 -1.7652,-1.70646 -1.7652,-1.70646 0,0 -0.0974,-0.097 -0.0974,-0.097 0,0 -0.43602,-0.41946 -0.43602,-0.41946 0,0 -0.0931,-0.0928 -0.0931,-0.0928 0,0 -0.70269,-0.67769 -0.70269,-0.67769 0,0 -0.0974,-0.097 -0.0974,-0.097 0,0 -0.30478,-0.29246 -0.30478,-0.29246 0,0 -0.0931,-0.0928 -0.0931,-0.0928 0,0 -0.25821,-0.24995 -0.25821,-0.24995 0,0 -0.0466,-0.0425 -0.0466,-0.0425 0,0 -0.0889,-0.0886 -0.0889,-0.0886 0,0 -0.0381,-0.0342 -0.0381,-0.0342 0,0 -0.22859,-0.22416 -0.22859,-0.22416 0,0 -0.0423,-0.0383 -0.0423,-0.0383 0,0 -0.0804,-0.0803 -0.0804,-0.0803 z m 5.4988,1.40554 c 0.0195,0.001 0.067,-0.009 0.0889,-0.0124 0,0 0.18202,-0.0296 0.18202,-0.0296 0,0 0.53338,-0.0832 0.53338,-0.0832 0.54318,-0.0843 1.08862,-0.15338 1.63397,-0.22074 0,0 0.80429,-0.0866 0.80429,-0.0866 0.28616,-0.0286 0.57253,-0.0562 0.85931,-0.0759 0,0 0.19473,-0.0162 0.19473,-0.0162 0,0 0.31749,-0.0215 0.31749,-0.0215 0,0 0.0381,0 0.0381,0 0,0 0.12699,-0.008 0.12699,-0.008 0,0 0.0635,-0.004 0.0635,-0.004 0,0 0.0889,-0.004 0.0889,-0.004 0,0 0.072,-0.004 0.072,-0.004 0,0 0.0847,-0.004 0.0847,-0.004 0,0 0.0762,-0.004 0.0762,-0.004 0,0 0.0466,0 0.0466,0 0,0 0.0635,-0.004 0.0635,-0.004 0,0 0.0466,0 0.0466,0 0,0 0.0423,-0.004 0.0423,-0.004 0,0 0.0593,0 0.0593,0 0,0 0.0635,-0.004 0.0635,-0.004 0,0 0.0635,0 0.0635,0 0,0 0.0677,-0.004 0.0677,-0.004 0,0 0.0804,0 0.0804,0 0,0 0.0677,-0.004 0.0677,-0.004 0,0 0.12698,0 0.12698,0 0,0 0.072,-0.004 0.072,-0.004 0,0 0.7281,0 0.7281,0 0,0 0.0635,0.004 0.0635,0.004 0,0 0.11006,0 0.11006,0 0,0 0.0635,0.004 0.0635,0.004 0,0 0.072,0 0.072,0 0,0 0.0847,0.004 0.0847,0.004 0.0961,10e-4 0.24679,0.0357 0.33866,0.0663 0.39574,0.13191 0.71276,0.44248 0.84513,0.83963 0.0512,0.15376 0.0711,0.30846 0.0692,0.46993 0,0 -0.004,0.0423 -0.004,0.0423 0,0 -0.0198,0.16511 -0.0198,0.16511 -0.0851,0.47098 -0.42591,0.84964 -0.87381,1.0089 -0.11568,0.0411 -0.23777,0.0627 -0.35981,0.071 0,0 -0.0508,0.004 -0.0508,0.004 0,0 -0.10159,0 -0.10159,0 0,0 -0.072,-0.004 -0.072,-0.004 0,0 -0.0847,0 -0.0847,0 0,0 -0.0677,-0.004 -0.0677,-0.004 0,0 -0.19895,0 -0.19895,0 0,0 -0.072,-0.004 -0.072,-0.004 0,0 -0.25399,0 -0.25399,0 0,0 -0.072,0.004 -0.072,0.004 0,0 -0.21165,0 -0.21165,0 0,0 -0.072,0.004 -0.072,0.004 0,0 -0.0931,0 -0.0931,0 0,0 -0.072,0.004 -0.072,0.004 0,0 -0.072,0 -0.072,0 0,0 -0.0508,0.004 -0.0508,0.004 0,0 -0.055,0 -0.055,0 0,0 -0.0508,0.004 -0.0508,0.004 0,0 -0.0635,0 -0.0635,0 0,0 -0.0508,0.004 -0.0508,0.004 0,0 -0.0508,0 -0.0508,0 0,0 -0.0593,0.004 -0.0593,0.004 0,0 -0.11852,0.004 -0.11852,0.004 0,0 -0.0593,0.004 -0.0593,0.004 0,0 -0.16508,0.008 -0.16508,0.008 0,0 -0.055,0.004 -0.055,0.004 0,0 -0.12276,0.008 -0.12276,0.008 0,0 -0.1651,0.009 -0.1651,0.009 0,0 -0.28784,0.0212 -0.28784,0.0212 0,0 -0.072,0.007 -0.072,0.007 0,0 -0.15239,0.0127 -0.15239,0.0127 0,0 -0.31748,0.0268 -0.31748,0.0268 0,0 -0.46141,0.0466 -0.46141,0.0466 0,0 -0.23706,0.0259 -0.23706,0.0259 0,0 -0.19471,0.02 -0.19471,0.02 0.26126,0.30104 0.50534,0.61872 0.72953,0.94831 0.0598,0.0879 0.21644,0.31887 0.26102,0.4022 0,0 -0.12277,-0.11432 -0.12277,-0.11432 0,0 -0.14392,-0.13966 -0.14392,-0.13966 0,0 -0.15239,-0.14416 -0.15239,-0.14416 0,0 -0.30056,-0.29177 -0.30056,-0.29177 0,0 -1.04558,-1.00369 -1.04558,-1.00369 0,0 -0.0762,-0.0759 -0.0762,-0.0759 0,0 -0.25823,-0.24587 -0.25823,-0.24587 0,0 -0.0762,-0.0759 -0.0762,-0.0759 0,0 -0.81698,-0.78356 -0.81698,-0.78356 0,0 -0.30056,-0.29177 -0.30056,-0.29177 0,0 -0.26245,-0.25011 -0.26245,-0.25011 0,0 -0.0762,-0.0759 -0.0762,-0.0759 0,0 -0.10583,-0.10173 -0.10583,-0.10173 z m 2.00227,1.4648 c 0,0 -0.004,0 -0.004,0 0,0 0.004,0.004 0.004,0.004 z m 0.004,0.004 c 0,0 -0.004,0 -0.004,0 0,0 0.004,0.004 0.004,0.004 z m 0.004,0.004 c 0,0 -0.004,0 -0.004,0 0,0 0.004,0.004 0.004,0.004 z m 0.004,0.004 c 0,0 -0.004,0 -0.004,0 0,0 0.004,0.004 0.004,0.004 z m 0.004,0.004 c 0,0 -0.004,0 -0.004,0 0,0 0.004,0.004 0.004,0.004 z m 0.0593,0.055 c 0,0 -0.004,0 -0.004,0 0,0 0.004,0.004 0.004,0.004 z m 0.004,0.004 c 0,0 -0.004,0 -0.004,0 0,0 0.004,0.004 0.004,0.004 z m 0.004,0.004 c 0,0 -0.004,0 -0.004,0 0,0 0.004,0.004 0.004,0.004 z m 0.004,0.004 c 0,0 -0.004,0 -0.004,0 0,0 0.004,0.004 0.004,0.004 z m 0.004,0.004 c 0,0 -0.004,0 -0.004,0 0,0 0.004,0.004 0.004,0.004 z m 0.072,0.0677 c 0,0 -0.004,0 -0.004,0 0,0 0.004,0.004 0.004,0.004 z m 0.004,0.004 c 0,0 -0.004,0 -0.004,0 0,0 0.004,0.004 0.004,0.004 z m 0.004,0.004 c 0,0 -0.004,0 -0.004,0 0,0 0.004,0.004 0.004,0.004 z m 0.004,0.004 c 0,0 -0.004,0 -0.004,0 0,0 0.004,0.004 0.004,0.004 z m 0.004,0.004 c 0,0 -0.004,0 -0.004,0 0,0 0.004,0.004 0.004,0.004 z m 0.004,0.004 c 0,0 -0.004,0 -0.004,0 0,0 0.004,0.004 0.004,0.004 z m 0.004,0.004 c 0,0 -0.004,0 -0.004,0 0,0 0.004,0.004 0.004,0.004 z m 0.004,0.004 c 0,0 -0.004,0 -0.004,0 0,0 0.004,0.004 0.004,0.004 z m 0.004,0.004 c 0,0 -0.004,0 -0.004,0 0,0 0.004,0.004 0.004,0.004 z m 0.004,0.004 c 0,0 -0.004,0 -0.004,0 0,0 0.004,0.004 0.004,0.004 z m 0.004,0.004 c 0,0 -0.004,0 -0.004,0 0,0 0.004,0.004 0.004,0.004 z m 0.004,0.004 c 0,0 -0.004,0 -0.004,0 0,0 0.004,0.004 0.004,0.004 z m 0.004,0.004 c 0,0 -0.004,0 -0.004,0 0,0 0.004,0.004 0.004,0.004 z m 0.004,0.004 c 0,0 -0.004,0 -0.004,0 0,0 0.004,0.004 0.004,0.004 z m 0.004,0.004 c 0,0 -0.004,0 -0.004,0 0,0 0.004,0.004 0.004,0.004 z m 0.004,0.004 c 0,0 -0.004,0 -0.004,0 0,0 0.004,0.004 0.004,0.004 z m 0.004,0.004 c 0,0 -0.004,0 -0.004,0 0,0 0.004,0.004 0.004,0.004 z m 0.004,0.004 c 0,0 -0.004,0 -0.004,0 0,0 0.004,0.004 0.004,0.004 z m 0.008,0.008 c 0,0 -0.004,0 -0.004,0 0,0 0.004,0.004 0.004,0.004 z m 0.004,0.004 c 0,0 -0.004,0 -0.004,0 0,0 0.004,0.004 0.004,0.004 z m 0.004,0.004 c 0,0 -0.004,0 -0.004,0 0,0 0.004,0.004 0.004,0.004 z m 0.004,0.004 c 0,0 -0.004,0 -0.004,0 0,0 0.004,0.004 0.004,0.004 z m 0.004,0.004 c 0,0 -0.004,0 -0.004,0 0,0 0.004,0.004 0.004,0.004 z m 0.004,0.004 c 0,0 -0.004,0 -0.004,0 0,0 0.004,0.004 0.004,0.004 z m 0.004,0.004 c 0,0 -0.004,0 -0.004,0 0,0 0.004,0.004 0.004,0.004 z m 0.004,0.004 c 0,0 -0.004,0 -0.004,0 0,0 0.004,0.004 0.004,0.004 z m 0.004,0.004 c 0,0 -0.004,0 -0.004,0 0,0 0.004,0.004 0.004,0.004 z m 0.004,0.004 c 0,0 -0.004,0 -0.004,0 0,0 0.004,0.004 0.004,0.004 z m 0.004,0.004 c 0,0 -0.004,0 -0.004,0 0,0 0.004,0.004 0.004,0.004 z m 0.004,0.004 c 0,0 -0.004,0 -0.004,0 0,0 0.004,0.004 0.004,0.004 z m 0.004,0.004 c 0,0 -0.004,0 -0.004,0 0,0 0.004,0.004 0.004,0.004 z m 0.004,0.004 c 0,0 -0.004,0 -0.004,0 0,0 0.004,0.004 0.004,0.004 z m 0.004,0.004 c 0,0 -0.004,0 -0.004,0 0,0 0.004,0.004 0.004,0.004 z m 0.004,0.004 c 0,0 -0.004,0 -0.004,0 0,0 0.004,0.004 0.004,0.004 z m 0.004,0.004 c 0,0 -0.004,0 -0.004,0 0,0 0.004,0.004 0.004,0.004 z m 0.004,0.004 c 0,0 -0.004,0 -0.004,0 0,0 0.004,0.004 0.004,0.004 z m 0.004,0.004 c 0,0 -0.004,0 -0.004,0 0,0 0.004,0.004 0.004,0.004 z m 0.004,0.004 c 0,0 -0.004,0 -0.004,0 0,0 0.004,0.004 0.004,0.004 z m 0.004,0.004 c 0,0 -0.004,0 -0.004,0 0,0 0.004,0.004 0.004,0.004 z m 0.004,0.004 c 0,0 -0.004,0 -0.004,0 0,0 0.004,0.004 0.004,0.004 z m 0.004,0.004 c 0,0 -0.004,0 -0.004,0 0,0 0.004,0.004 0.004,0.004 z m 0.004,0.004 c 0,0 -0.004,0 -0.004,0 0,0 0.004,0.004 0.004,0.004 z m 0.004,0.004 c 0,0 -0.004,0 -0.004,0 0,0 0.004,0.004 0.004,0.004 z m 0.004,0.004 c 0,0 -0.004,0 -0.004,0 0,0 0.004,0.004 0.004,0.004 z m 0.004,0.004 c 0,0 -0.004,0 -0.004,0 0,0 0.004,0.004 0.004,0.004 z m 0.004,0.004 c 0,0 -0.004,0 -0.004,0 0,0 0.004,0.004 0.004,0.004 z m 0.004,0.004 c 0,0 -0.004,0 -0.004,0 0,0 0.004,0.004 0.004,0.004 z m 0.004,0.004 c 0,0 -0.004,0 -0.004,0 0,0 0.004,0.004 0.004,0.004 z m 0.004,0.004 c 0,0 -0.004,0 -0.004,0 0,0 0.004,0.004 0.004,0.004 z m 0.004,0.004 c 0,0 -0.004,0 -0.004,0 0,0 0.004,0.004 0.004,0.004 z m 0.004,0.004 c 0,0 -0.004,0 -0.004,0 0,0 0.004,0.004 0.004,0.004 z m 0.004,0.004 c 0,0 -0.004,0 -0.004,0 0,0 0.004,0.004 0.004,0.004 z m 0.004,0.004 c 0,0 -0.004,0 -0.004,0 0,0 0.004,0.004 0.004,0.004 z m 0.004,0.004 c 0,0 -0.004,0 -0.004,0 0,0 0.004,0.004 0.004,0.004 z m 0.004,0.004 c 0,0 -0.004,0 -0.004,0 0,0 0.004,0.004 0.004,0.004 z m 0.0423,0.0466 c 0,0 -0.004,0 -0.004,0 0,0 0.004,0.004 0.004,0.004 z m 0.004,0.004 c 0,0 -0.004,0 -0.004,0 0,0 0.004,0.004 0.004,0.004 z m 0.004,0.004 c 0,0 -0.004,0 -0.004,0 0,0 0.004,0.004 0.004,0.004 z m 0.004,0.004 c 0,0 -0.004,0 -0.004,0 0,0 0.004,0.004 0.004,0.004 z m 0.004,0.004 c 0,0 -0.004,0 -0.004,0 0,0 0.004,0.004 0.004,0.004 z m 0.004,0.004 c 0,0 -0.004,0 -0.004,0 0,0 0.004,0.004 0.004,0.004 z m 0.004,0.004 c 0,0 -0.004,0 -0.004,0 0,0 0.004,0.004 0.004,0.004 z m 0.004,0.004 c 0,0 -0.004,0 -0.004,0 0,0 0.004,0.004 0.004,0.004 z m 0.004,0.004 c 0,0 -0.004,0 -0.004,0 0,0 0.004,0.004 0.004,0.004 z m 0.004,0.004 c 0,0 -0.004,0 -0.004,0 0,0 0.004,0.004 0.004,0.004 z m 0.004,0.004 c 0,0 -0.004,0 -0.004,0 0,0 0.004,0.004 0.004,0.004 z m 0.004,0.004 c 0,0 -0.004,0 -0.004,0 0,0 0.004,0.004 0.004,0.004 z m 0.004,0.004 c 0,0 -0.004,0 -0.004,0 0,0 0.004,0.004 0.004,0.004 z m 0.004,0.004 c 0,0 -0.004,0 -0.004,0 0,0 0.004,0.004 0.004,0.004 z m 0.0212,0.0254 c 0,0 -0.004,0 -0.004,0 0,0 0.004,0.004 0.004,0.004 z m 0.004,0.004 c 0,0 -0.004,0 -0.004,0 0,0 0.004,0.004 0.004,0.004 z m 0.004,0.004 c 0,0 -0.004,0 -0.004,0 0,0 0.004,0.004 0.004,0.004 z m 0.004,0.004 c 0,0 -0.004,0 -0.004,0 0,0 0.004,0.004 0.004,0.004 z m 0.004,0.004 c 0,0 -0.004,0 -0.004,0 0,0 0.004,0.004 0.004,0.004 z m 0.004,0.004 c 0,0 -0.004,0 -0.004,0 0,0 0.004,0.004 0.004,0.004 z m 0.004,0.004 c 0,0 -0.004,0 -0.004,0 0,0 0.004,0.004 0.004,0.004 z m 0.004,0.004 c 0,0 -0.004,0 -0.004,0 0,0 0.004,0.004 0.004,0.004 z m 0.004,0.004 c 0,0 -0.004,0 -0.004,0 0,0 0.004,0.004 0.004,0.004 z m 0.004,0.004 c 0,0 -0.004,0 -0.004,0 0,0 0.004,0.004 0.004,0.004 z m 0.004,0.004 c 0,0 -0.004,0 -0.004,0 0,0 0.004,0.004 0.004,0.004 z m 0.0127,0.0169 c 0,0 -0.004,0 -0.004,0 0,0 0.004,0.004 0.004,0.004 z m 0.004,0.004 c 0,0 -0.004,0 -0.004,0 0,0 0.004,0.004 0.004,0.004 z m 0.004,0.004 c 0,0 -0.004,0 -0.004,0 0,0 0.004,0.004 0.004,0.004 z m 0.004,0.004 c 0,0 -0.004,0 -0.004,0 0,0 0.004,0.004 0.004,0.004 z m 0.004,0.004 c 0,0 -0.004,0 -0.004,0 0,0 0.004,0.004 0.004,0.004 z m 0.004,0.004 c 0,0 -0.004,0 -0.004,0 0,0 0.004,0.004 0.004,0.004 z m 0.004,0.004 c 0,0 -0.004,0 -0.004,0 0,0 0.004,0.004 0.004,0.004 z m 0.004,0.004 c 0,0 -0.004,0 -0.004,0 0,0 0.004,0.004 0.004,0.004 z m 0.004,0.004 c 0,0 -0.004,0 -0.004,0 0,0 0.004,0.004 0.004,0.004 z m 0.0127,0.0169 c 0,0 -0.004,0 -0.004,0 0,0 0.004,0.004 0.004,0.004 z m 0.004,0.004 c 0,0 -0.004,0 -0.004,0 0,0 0.004,0.004 0.004,0.004 z m 0.004,0.004 c 0,0 -0.004,0 -0.004,0 0,0 0.004,0.004 0.004,0.004 z m 0.004,0.004 c 0,0 -0.004,0 -0.004,0 0,0 0.004,0.004 0.004,0.004 z m 0.004,0.004 c 0,0 -0.004,0 -0.004,0 0,0 0.004,0.004 0.004,0.004 z m 0.004,0.004 c 0,0 -0.004,0 -0.004,0 0,0 0.004,0.004 0.004,0.004 z m 0.004,0.004 c 0,0 -0.004,0 -0.004,0 0,0 0.004,0.004 0.004,0.004 z m 0.004,0.004 c 0,0 -0.004,0 -0.004,0 0,0 0.004,0.004 0.004,0.004 z m 0.004,0.004 c 0,0 -0.004,0 -0.004,0 0,0 0.004,0.004 0.004,0.004 z m 0.004,0.008 c 0,0 -0.004,0 -0.004,0 0,0 0.004,0.004 0.004,0.004 z m 0.004,0.004 c 0,0 -0.004,0 -0.004,0 0,0 0.004,0.004 0.004,0.004 z m 0.004,0.004 c 0,0 -0.004,0 -0.004,0 0,0 0.004,0.004 0.004,0.004 z m 0.004,0.004 c 0,0 -0.004,0 -0.004,0 0,0 0.004,0.004 0.004,0.004 z m 0.004,0.004 c 0,0 -0.004,0 -0.004,0 0,0 0.004,0.004 0.004,0.004 z m 0.004,0.004 c 0,0 -0.004,0 -0.004,0 0,0 0.004,0.004 0.004,0.004 z m 0.004,0.004 c 0,0 -0.004,0 -0.004,0 0,0 0.004,0.004 0.004,0.004 z m 0.004,0.004 c 0,0 -0.004,0 -0.004,0 0,0 0.004,0.004 0.004,0.004 z m 0.008,0.0127 c 0,0 -0.004,0 -0.004,0 0,0 0.004,0.004 0.004,0.004 z m 0.004,0.004 c 0,0 -0.004,0 -0.004,0 0,0 0.004,0.004 0.004,0.004 z m 0.004,0.004 c 0,0 -0.004,0 -0.004,0 0,0 0.004,0.004 0.004,0.004 z m 0.004,0.004 c 0,0 -0.004,0 -0.004,0 0,0 0.004,0.004 0.004,0.004 z m 0.004,0.004 c 0,0 -0.004,0 -0.004,0 0,0 0.004,0.004 0.004,0.004 z m 0.004,0.004 c 0,0 -0.004,0 -0.004,0 0,0 0.004,0.004 0.004,0.004 z m 0.004,0.004 c 0,0 -0.004,0 -0.004,0 0,0 0.004,0.004 0.004,0.004 z m 0.004,0.004 c 0,0 -0.004,0 -0.004,0 0,0 0.004,0.004 0.004,0.004 z m 0.004,0.008 c 0,0 -0.004,0 -0.004,0 0,0 0.004,0.004 0.004,0.004 z m 0.004,0.004 c 0,0 -0.004,0 -0.004,0 0,0 0.004,0.004 0.004,0.004 z m 0.004,0.004 c 0,0 -0.004,0 -0.004,0 0,0 0.004,0.004 0.004,0.004 z m 0.004,0.004 c 0,0 -0.004,0 -0.004,0 0,0 0.004,0.004 0.004,0.004 z m 0.004,0.004 c 0,0 -0.004,0 -0.004,0 0,0 0.004,0.004 0.004,0.004 z m 0.004,0.004 c 0,0 -0.004,0 -0.004,0 0,0 0.004,0.004 0.004,0.004 z m 0.004,0.004 c 0,0 -0.004,0 -0.004,0 0,0 0.004,0.004 0.004,0.004 z m 0.004,0.008 c 0,0 -0.004,0 -0.004,0 0,0 0.004,0.004 0.004,0.004 z m 0.004,0.004 c 0,0 -0.004,0 -0.004,0 0,0 0.004,0.004 0.004,0.004 z m 0.004,0.004 c 0,0 -0.004,0 -0.004,0 0,0 0.004,0.004 0.004,0.004 z m 0.004,0.004 c 0,0 -0.004,0 -0.004,0 0,0 0.004,0.004 0.004,0.004 z m 0.004,0.004 c 0,0 -0.004,0 -0.004,0 0,0 0.004,0.004 0.004,0.004 z m 0.004,0.004 c 0,0 -0.004,0 -0.004,0 0,0 0.004,0.004 0.004,0.004 z m 0.004,0.004 c 0,0 -0.004,0 -0.004,0 0,0 0.004,0.004 0.004,0.004 z m 0.004,0.008 c 0,0 -0.004,0 -0.004,0 0,0 0.004,0.004 0.004,0.004 z m 0.004,0.004 c 0,0 -0.004,0 -0.004,0 0,0 0.004,0.004 0.004,0.004 z m 0.004,0.004 c 0,0 -0.004,0 -0.004,0 0,0 0.004,0.004 0.004,0.004 z M 7.6665,11.87205 c 0,0 -0.004,0 -0.004,0 0,0 0.004,0.004 0.004,0.004 z m -0.004,0.008 c 0,0 -0.004,0 -0.004,0 0,0 0.004,0.004 0.004,0.004 z m -0.004,0.008 c 0,0 -0.004,0 -0.004,0 0,0 0.004,0.004 0.004,0.004 z M 7.29869,12.6247 c -0.0172,0.018 -0.0304,0.0567 -0.0406,0.0804 0,0 -0.0665,0.15664 -0.0665,0.15664 -0.007,0.0154 -0.0323,0.071 -0.0292,0.0847 0.003,0.0146 0.0496,0.0571 0.0625,0.072 0,0 0.0991,0.10161 0.0991,0.10161 0,0 0.0932,0.0974 0.0932,0.0974 0,0 0.0594,0.0635 0.0594,0.0635 0,0 0.0843,0.0847 0.0843,0.0847 0,0 0.0342,0.0381 0.0342,0.0381 0,0 0.0801,0.0804 0.0801,0.0804 0,0 0.38978,0.40643 0.38978,0.40643 0,0 0.20708,0.21168 0.20708,0.21168 0,0 0.66071,0.68584 0.66071,0.68584 0,0 0.21977,0.22438 0.21977,0.22438 0,0 0.43212,0.44875 0.43212,0.44875 0,0 0.097,0.0974 0.097,0.0974 0,0 0.55047,0.56729 0.55047,0.56729 0,0 0.0425,0.0466 0.0425,0.0466 0,0 0.10973,0.11008 0.10973,0.11008 0,0 0.0342,0.0381 0.0342,0.0381 0,0 0.10561,0.10583 0.10561,0.10583 0,0 0.0383,0.0423 0.0383,0.0423 0,0 0.10985,0.11008 0.10985,0.11008 0,0 0.0383,0.0423 0.0383,0.0423 0,0 0.11832,0.11855 0.11832,0.11855 0,0 0.0424,0.0466 0.0424,0.0466 0,0 0.12254,0.12278 0.12254,0.12278 0.0167,0.0174 0.0618,0.072 0.0806,0.08 0.0123,0.005 0.0261,-10e-4 0.0381,-0.005 0,0 0.0847,-0.026 0.0847,-0.026 0,0 0.23706,-0.0745 0.23706,-0.0745 0,0 0.11006,-0.0338 0.11006,-0.0338 0,0 -0.13546,-0.1397 -0.13546,-0.1397 0,0 -0.20743,-0.2074 -0.20743,-0.2074 0,0 -0.0804,-0.0762 -0.0804,-0.0762 0,0 -0.6265,-0.62656 -0.6265,-0.62656 0,0 -0.0508,-0.0466 -0.0508,-0.0466 0,0 -0.23283,-0.23279 -0.23283,-0.23279 0,0 -0.4233,-0.42336 -0.4233,-0.42336 0,0 -0.0466,-0.0425 -0.0466,-0.0425 0,0 -0.11853,-0.11836 -0.11853,-0.11836 0,0 -0.54606,-0.54609 -0.54606,-0.54609 0,0 -0.0508,-0.0466 -0.0508,-0.0466 0,0 -0.66037,-0.6604 -0.66037,-0.6604 0,0 -0.0508,-0.0466 -0.0508,-0.0466 0,0 -0.65613,-0.65619 -0.65613,-0.65619 0,0 -0.0508,-0.0466 -0.0508,-0.0466 z m -0.5249,1.4648 c -0.0152,0.0177 -0.0225,0.0608 -0.029,0.0847 0,0 -0.0488,0.19051 -0.0488,0.19051 -0.004,0.0179 -0.0217,0.074 -0.0169,0.0889 0.005,0.0157 0.0392,0.0456 0.0519,0.0593 0,0 0.13162,0.13547 0.13162,0.13547 0,0 0.0679,0.072 0.0679,0.072 0,0 0.13525,0.13546 0.13525,0.13546 0,0 0.0383,0.0423 0.0383,0.0423 0,0 0.13947,0.1397 0.13947,0.1397 0,0 0.0635,0.0677 0.0635,0.0677 0,0 0.33035,0.33869 0.33035,0.33869 0,0 0.15205,0.15241 0.15205,0.15241 0,0 0.0383,0.0423 0.0383,0.0423 0,0 0.14795,0.14818 0.14795,0.14818 0,0 0.0383,0.0423 0.0383,0.0423 0,0 0.14383,0.14393 0.14383,0.14393 0,0 0.0424,0.0466 0.0424,0.0466 0,0 0.15654,0.15663 0.15654,0.15663 0,0 0.0424,0.0466 0.0424,0.0466 0,0 0.16064,0.16087 0.16064,0.16087 0,0 0.0383,0.0423 0.0383,0.0423 0,0 0.16064,0.16088 0.16064,0.16088 0,0 0.0383,0.0423 0.0383,0.0423 0,0 0.16911,0.16935 0.16911,0.16935 0,0 0.0342,0.0381 0.0342,0.0381 0,0 0.1818,0.18206 0.1818,0.18206 0,0 0.0508,0.055 0.0508,0.055 0,0 0.18131,0.18205 0.18131,0.18205 0,0 0.13195,0.13547 0.13195,0.13547 0.0122,0.0122 0.0443,0.048 0.0593,0.0517 0.009,0.002 0.0246,-0.003 0.0339,-0.006 0,0 0.0762,-0.023 0.0762,-0.023 0,0 0.29633,-0.0907 0.29633,-0.0907 0,0 -0.1143,-0.11855 -0.1143,-0.11855 0,0 -0.22013,-0.22014 -0.22013,-0.22014 0,0 -0.15662,-0.1566 -0.15662,-0.1566 0,0 -0.0508,-0.0466 -0.0508,-0.0466 0,0 -0.49527,-0.49533 -0.49527,-0.49533 z m -0.27516,1.27006 c -0.0288,0.008 -0.0863,0.0401 -0.11429,0.0556 0,0 -0.15662,0.083 -0.15662,0.083 -0.23088,0.11917 -0.4568,0.24989 -0.68154,0.38033 -0.40976,0.23781 -0.80958,0.49313 -1.19373,0.77051 -0.35291,0.25482 -0.69473,0.53245 -0.99896,0.84426 0,0 -0.17382,0.19051 -0.17382,0.19051 -0.11743,0.13225 -0.22964,0.28436 -0.32066,0.43605 -0.0555,0.0926 -0.1065,0.1806 -0.10667,0.2921 -2.5e-4,0.17338 0.0841,0.32473 0.24976,0.39183 0.0859,0.0348 0.1595,0.0384 0.24975,0.0446 0,0 0.0508,0.004 0.0508,0.004 0,0 0.15239,0.004 0.15239,0.004 0,0 0.072,-0.004 0.072,-0.004 0,0 0.0762,0 0.0762,0 0,0 0.0847,-0.004 0.0847,-0.004 0,0 0.0423,-0.004 0.0423,-0.004 0,0 0.1651,-0.0124 0.1651,-0.0124 0,0 0.4614,-0.0546 0.4614,-0.0546 0.4535,-0.0654 0.90395,-0.15613 1.35037,-0.25889 0,0 0.56722,-0.13542 0.56722,-0.13542 0,0 0.1397,-0.035 0.1397,-0.035 0.0221,-0.006 0.0456,-0.0177 0.0677,-0.008 0,0 -0.0212,-0.16088 -0.0212,-0.16088 0,0 0.0804,0.0804 0.0804,0.0804 0,0 0.0423,0.0352 0.0423,0.0352 0,0 0.0889,-0.0188 0.0889,-0.0188 0,0 0.23705,-0.063 0.23705,-0.063 0,0 -0.13545,-0.1397 -0.13545,-0.1397 0,0 -0.0635,-0.0677 -0.0635,-0.0677 0,0 -0.15658,-0.15663 -0.15658,-0.15663 0,0 -0.0889,-0.0889 -0.0889,-0.0889 0,0 -0.0465,-0.0508 -0.0465,-0.0508 0,0 -0.009,-0.0847 -0.009,-0.0847 0,0 -0.008,-0.11432 -0.008,-0.11432 0,0 -0.004,-0.1016 -0.004,-0.1016 0,0 -0.004,-0.0677 -0.004,-0.0677 0,0 0,-0.0508 0,-0.0508 0,0 -0.004,-0.0466 -0.004,-0.0466 0,0 0,-0.0847 0,-0.0847 0,0 -0.004,-0.072 -0.004,-0.072 0,0 0,-0.38101 0,-0.38101 0,0 0.004,-0.0635 0.004,-0.0635 0,0 0,-0.0804 0,-0.0804 0,0 0.004,-0.0508 0.004,-0.0508 0,0 0,-0.0508 0,-0.0508 0,0 0.004,-0.0931 0.004,-0.0931 0,0 0.004,-0.055 0.004,-0.055 0,0 0.008,-0.14395 0.008,-0.14395 0,0 0.18198,0.18205 0.18198,0.18205 0,0 0.0466,0.0508 0.0466,0.0508 0,0 0.3005,0.30059 0.3005,0.30059 0,0 0.0424,0.0466 0.0424,0.0466 0,0 0.32591,0.32598 0.32591,0.32598 0,0 0.0466,0.0508 0.0466,0.0508 0,0 0.28781,0.28789 0.28781,0.28789 0,0 0.11011,0.1143 0.11011,0.1143 0,0 0.22431,0.22437 0.22431,0.22437 0,0 0.0889,0.0889 0.0889,0.0889 0,0 0.0466,0.0394 0.0466,0.0394 0,0 0.0339,-0.005 0.0339,-0.005 0,0 0.0677,-0.0193 0.0677,-0.0193 0,0 0.25821,-0.0744 0.25821,-0.0744 0,0 -0.16509,-0.16935 -0.16509,-0.16935 0,0 -0.3217,-0.32175 -0.3217,-0.32175 0,0 -0.17352,-0.17357 -0.17352,-0.17357 0,0 -0.0466,-0.0508 -0.0466,-0.0508 0,0 -0.74926,-0.74933 -0.74926,-0.74933 0,0 -0.40638,-0.40642 -0.40638,-0.40642 0,0 -0.11007,-0.11007 -0.11007,-0.11007 0,0 -0.0481,-0.055 -0.0481,-0.055 0,0 0.01,-0.1016 0.01,-0.1016 0,0 0.0161,-0.127 0.0161,-0.127 z m -0.0127,2.98888 c 0,0 0,0.0212 0,0.0212 z m 0.004,0.0296 c 0,0 0,0.0212 0,0.0212 z m 0.004,0.0296 c 0,0 0,0.0212 0,0.0212 z m 0.004,0.0296 c 0,0 0,0.0212 0,0.0212 z m 0.004,0.0296 c 0,0 0,0.0212 0,0.0212 z m 0.008,0.055 c 0,0 0,0.0212 0,0.0212 z m 0.004,0.0254 c 0,0 0,0.0212 0,0.0212 z m 0.22013,1.04568 c 0,0 -0.004,0 -0.004,0 0,0 0.004,0.004 0.004,0.004 z m 0.004,0.0169 c 0,0 -0.004,0 -0.004,0 0,0 0.004,0.004 0.004,0.004 z m 0.004,0.0169 c 0,0 -0.004,0 -0.004,0 0,0 0.004,0.004 0.004,0.004 z m 0.008,0.0296 c 0,0 -0.004,0 -0.004,0 0,0 0.004,0.004 0.004,0.004 z m 0.008,0.0296 c 0,0 -0.004,0 -0.004,0 0,0 0.004,0.004 0.004,0.004 z m 0.004,0.0169 c 0,0 -0.004,0 -0.004,0 0,0 0.004,0.004 0.004,0.004 z m 0.008,0.0296 c 0,0 -0.004,0 -0.004,0 0,0 0.004,0.004 0.004,0.004 z m 0.0254,0.0889 c 0,0 -0.004,0 -0.004,0 0,0 0.004,0.004 0.004,0.004 z"/>
</svg>
