<?xml version="1.0" encoding="UTF-8" standalone="no"?>
<svg xmlns="http://www.w3.org/2000/svg" xmlns:svg="http://www.w3.org/2000/svg" width="640" height="68" viewBox="0 0 640 68" version="1.1" id="svg_saturn_logo">
  <path id="saturn_logo" style="fill:#000000;stroke:none" d="m 633.85732,2.9042267 c -3.39579,0 -6.14271,2.7321447 -6.14271,6.1096438 V 43.800036 L 592.56712,4.926425 c -1.70872,-1.8930897 -4.39071,-2.5384818 -6.76997,-1.6134425 -2.37921,0.9035339 -3.93649,3.1839117 -3.93649,5.700888 V 59.762492 c 0,3.377537 2.74689,6.109644 6.14268,6.109644 3.39579,0 6.14272,-2.732107 6.14272,-6.109644 V 24.976364 l 35.14748,38.873574 c 1.18961,1.312289 2.85506,2.022198 4.56378,2.022198 0.73539,0 1.49243,-0.128882 2.20619,-0.408718 C 638.44272,64.559846 640,62.279506 640,59.762492 V 9.0138705 c 0,-3.3774991 -2.74688,-6.1096438 -6.14268,-6.1096438 z M 559.66909,41.756332 c -0.41098,-0.38725 -0.1731,-1.097159 0.41095,-1.140208 11.3986,-0.709908 14.79436,-9.207458 15.37837,-16.435766 0,-0.02268 0,-0.04271 0,-0.06463 0.36775,-5.120012 -1.64383,-10.562758 -5.36406,-14.5426386 -2.89833,-3.0978141 -8.19749,-6.7765037 -17.06543,-6.7765037 -6.57532,0 -13.9725,0.1073386 -20.26659,0.3012284 -10.33878,0.3223936 -11.07416,0.5808755 -12.0475,0.9465826 -2.46573,0.8820283 -4.10956,3.2054172 -4.10956,5.8084533 v 49.565478 c 0,3.528038 2.96323,6.367748 6.53204,6.195628 3.35252,-0.150803 5.94804,-3.033259 5.94804,-6.367785 V 15.661303 c 5.47218,-0.215055 14.53485,-0.451767 23.94357,-0.451767 3.50392,0 6.16429,0.946545 7.91629,2.818167 1.77358,1.893128 2.11964,4.130457 2.05478,5.184605 -0.15156,1.914633 -0.67053,7.572472 -10.87952,7.572472 h -5.3424 c -2.74692,0 -5.29916,1.548926 -6.40226,4.044397 -1.16798,2.646085 -0.54073,5.700925 1.57894,7.658532 l 23.48931,21.900055 c 1.21126,1.118665 2.74692,1.677997 4.26096,1.677997 1.66545,0 3.3309,-0.666897 4.56378,-1.957682 2.3576,-2.495508 2.22781,-6.43234 -0.28119,-8.777196 z M 503.93055,0.12910866 c -3.39579,0 -6.14268,2.73210694 -6.14268,6.10960604 V 43.972156 c 0,5.829959 -8.3489,10.950009 -17.88737,10.950009 -9.51688,0 -17.88737,-5.12005 -17.88737,-10.950009 V 6.2387147 c 0,-3.3774991 -2.74692,-6.10960604 -6.14271,-6.10960604 -3.39579,0 -6.14271,2.73210694 -6.14271,6.10960604 V 43.972156 c 0,6.475313 3.50396,12.692522 9.6034,17.016604 5.5587,3.958337 12.86936,6.131149 20.54774,6.131149 7.67837,0 14.96742,-2.172812 20.54778,-6.131149 6.09944,-4.324082 9.60336,-10.541291 9.60336,-17.016604 V 6.2387147 c 0.0431,-3.3774991 -2.70365,-6.10960604 -6.09944,-6.10960604 z M 58.563184,45.370468 C 57.741273,35.280943 49.543795,27.600906 39.702499,27.600906 c -0.216302,0 -0.410955,0 -0.627246,0 h -5.688484 c -0.04324,0 -0.08651,0 -0.10817,0 h -13.82107 -0.25954 c -3.460671,0.128882 -6.380621,-2.624542 -6.683425,-6.303231 -0.194684,-2.861216 1.211232,-5.722432 3.028085,-6.13115 l 0.346054,-0.08617 c 8.132587,-2.301883 25.479222,-1.699502 31.557031,0.494778 3.244384,1.161713 6.813211,-0.516283 7.98119,-3.743168 C 56.5949,8.605039 54.907821,5.0553825 51.663437,3.8937069 42.708939,0.68828974 22.723536,0.30107715 12.601058,3.119244 4.792906,4.9693226 -0.61439594,13.144214 0.05611112,22.222563 v 0.06463 C 0.87801471,32.376679 9.0754923,40.056717 18.916788,40.056717 c 0.216303,0 0.41096,0 0.627247,0 h 5.688495 c 0.04324,0 0.08651,0 0.108132,0 h 13.82107 0.25954 c 3.460671,-0.128882 6.380621,2.624617 6.683433,6.303269 0.194646,2.861215 -1.211237,5.722393 -3.028093,6.131149 l -0.346054,0.08617 c -8.132594,2.301884 -25.47923,1.699502 -31.557039,-0.494816 -3.2443838,-1.161675 -6.8132101,0.516322 -7.9811901,3.743244 -1.167976,3.226923 0.519103,6.776542 3.7634873,7.938217 4.9098408,1.764057 13.1505708,2.667591 21.2615278,2.667591 6.661802,0 13.237083,-0.623887 17.800851,-1.893165 C 53.826347,62.6883 59.233649,54.513447 58.56315,45.43506 Z m 276.724316,0 c -0.82194,-10.089525 -9.01939,-17.769562 -18.86071,-17.769562 -0.21619,0 -0.41095,0 -0.62725,0 h -5.68846 c -0.0435,0 -0.0865,0 -0.10809,0 h -13.82107 -0.25954 c -3.46067,0.128882 -6.38062,-2.624542 -6.68343,-6.303231 -0.19468,-2.861216 1.21124,-5.722432 3.02809,-6.13115 l 0.34605,-0.08617 c 8.13259,-2.301883 25.47922,-1.699502 31.55704,0.494778 3.24438,1.161713 6.8132,-0.516283 7.98119,-3.743168 1.16799,-3.226923 -0.51912,-6.7765795 -3.7635,-7.9382551 C 319.43332,0.68828974 299.44793,0.30107715 289.32545,3.119244 281.5173,4.9693226 276.11,13.144214 276.7805,22.222563 v 0.06463 c 0.82191,10.089486 9.01939,17.769524 18.86068,17.769524 0.21631,0 0.41096,0 0.62725,0 h 5.68843 c 0.0431,0 0.0866,0 0.1081,0 h 13.82109 0.25965 c 3.46069,-0.128882 6.3806,2.624617 6.68342,6.303269 0.19464,2.861215 -1.21123,5.722393 -3.02809,6.131149 l -0.3462,0.08617 c -8.1326,2.301884 -25.47924,1.699502 -31.55705,-0.494816 -3.24439,-1.161675 -6.81321,0.516322 -7.98119,3.743244 -1.16798,3.226923 0.5191,6.776542 3.76349,7.938217 4.90983,1.764057 13.15057,2.667591 21.26152,2.667591 6.66179,0 13.23711,-0.623887 17.80085,-1.893165 7.80817,-1.850079 13.21546,-10.024932 12.54497,-19.103319 z M 105.73652,53.545321 H 76.428923 V 39.518965 h 20.504503 c 3.439044,0 6.250854,-2.775118 6.250854,-6.217171 0,-3.42051 -2.79018,-6.217209 -6.250854,-6.217209 H 76.428923 V 15.188031 h 29.307597 c 3.43905,0 6.25085,-2.775156 6.25085,-6.2172093 0,-3.4205101 -2.79017,-6.2171714 -6.25085,-6.2171714 H 70.178076 c -3.439045,0 -6.250847,2.775118 -6.250847,6.2171714 V 59.719519 c 0,3.42051 2.790172,6.217171 6.250847,6.217171 h 35.558444 c 3.43905,0 6.25085,-2.775118 6.25085,-6.217171 -0.0216,-3.399042 -2.8118,-6.174198 -6.25085,-6.174198 z m 72.11184,-17.683502 c 0,-0.171968 0,-0.344315 -0.0216,-0.494816 0,-0.04271 0,-0.08617 -0.0215,-0.128882 -0.0215,-0.172346 -0.0433,-0.322393 -0.0649,-0.494853 0,-0.04271 -0.0215,-0.08617 -0.0215,-0.128882 -0.0433,-0.150803 -0.0649,-0.322394 -0.12979,-0.473272 -0.0215,-0.04271 -0.0215,-0.08617 -0.0433,-0.128882 -0.0433,-0.150803 -0.10813,-0.301229 -0.17303,-0.451767 -0.0215,-0.04271 -0.0433,-0.08617 -0.0433,-0.128882 -0.0649,-0.150803 -0.12979,-0.279685 -0.19465,-0.430261 -0.0215,-0.04271 -0.0433,-0.08617 -0.0649,-0.128882 -0.0865,-0.128882 -0.15141,-0.258142 -0.23793,-0.387213 -0.0215,-0.04271 -0.0433,-0.08617 -0.0865,-0.107339 -0.0865,-0.128881 -0.17303,-0.236976 -0.2812,-0.365858 -0.0215,-0.04271 -0.0649,-0.06463 -0.0865,-0.107716 -0.10813,-0.107339 -0.19464,-0.236977 -0.30281,-0.344315 -0.0433,-0.04271 -0.0649,-0.06463 -0.10814,-0.107339 -0.10813,-0.107716 -0.2163,-0.215055 -0.32443,-0.301228 -0.0433,-0.02268 -0.0865,-0.06463 -0.10813,-0.08617 -0.10814,-0.08617 -0.23793,-0.172347 -0.36771,-0.258142 -0.0433,-0.02268 -0.0865,-0.06463 -0.12979,-0.08617 -0.12979,-0.08617 -0.23792,-0.150803 -0.36771,-0.236977 -0.0433,-0.02268 -0.10814,-0.04271 -0.15141,-0.08617 -0.12979,-0.06463 -0.25954,-0.128882 -0.38933,-0.193512 -0.0649,-0.02268 -0.12979,-0.04271 -0.17302,-0.06463 -0.12979,-0.04271 -0.25954,-0.107338 -0.38933,-0.128882 -0.0649,-0.02268 -0.12979,-0.04271 -0.2163,-0.06463 -0.12979,-0.04271 -0.25954,-0.06463 -0.36771,-0.08617 -0.0865,-0.02268 -0.15141,-0.02268 -0.23792,-0.04271 -0.12979,-0.02268 -0.23792,-0.04271 -0.36771,-0.06463 -0.0865,0 -0.17303,-0.02268 -0.25954,-0.02268 -0.0865,0 -0.15141,-0.02268 -0.23792,-0.02268 -0.0433,0 -0.0865,0 -0.12979,0 -0.0215,0 -0.0649,0 -0.0865,0 h -23.61928 c -3.43905,0 -6.25084,2.775118 -6.25084,6.217172 0,3.42051 2.79017,6.217209 6.25084,6.217209 h 16.52473 c -2.85506,11.530847 -12.09073,13.445442 -18.51462,13.445442 -12.73961,0 -21.65085,-9.594708 -21.65085,-23.319835 0,-10.024932 10.31715,-19.146368 21.65085,-19.146368 6.94299,0 12.09074,1.570431 17.7576,5.399697 2.85506,1.936139 6.72669,1.183219 8.67332,-1.634948 1.94663,-2.83971 1.1896,-6.690481 -1.64382,-8.6266575 -7.72164,-5.2275777 -15.35675,-7.55096663 -24.76547,-7.55096663 -8.84635,0 -17.30337,3.31294473 -23.85703,9.35803413 -6.53203,6.002079 -10.27388,14.112378 -10.27388,22.201209 0,10.412182 3.4823,19.426053 10.07922,26.030474 6.25084,6.260221 14.79438,9.702274 24.05169,9.702274 8.69495,0 16.33007,-2.495509 22.10507,-7.206803 4.80169,-3.915326 9.25731,-11.358765 9.73315,-24.653668 0,-0.06463 0,-0.107339 0,-0.171969 0,-0.02268 0,-0.04271 0,-0.04271 -0.0649,0 -0.0649,-0.02268 -0.0649,-0.06463 z m 50.61238,-23.59952 C 225.23799,5.7009258 218.96551,0 212.10905,0 c -6.85647,0 -13.12894,5.7009258 -16.3517,12.262299 -5.62359,11.401776 -10.94438,26.181051 -16.26517,45.198348 -0.93006,3.355993 1.0382,6.819552 4.39073,7.744591 0.56236,0.150804 1.14635,0.236977 1.70871,0.236977 2.76854,0 5.32079,-1.828573 6.09944,-4.603729 1.16798,-4.194973 2.35759,-8.153348 3.52556,-11.91806 h 33.78485 c 1.16798,3.764712 2.33596,7.723087 3.52557,11.91806 0.93005,3.356031 4.43399,5.313675 7.78652,4.367093 3.37416,-0.92504 5.34242,-4.410142 4.39073,-7.744592 C 239.3835,38.443652 234.06271,23.664415 228.46074,12.262639 Z m -29.13456,24.223407 c 2.57387,-7.142249 5.14775,-13.359458 7.78652,-18.694639 1.12472,-2.28034 2.94157,-5.206072 4.97472,-5.206072 2.05478,0 3.87163,2.925732 4.99635,5.206072 2.63876,5.356686 5.21264,11.55239 7.78652,18.694639 z M 384.96981,12.262299 C 381.74708,5.7009258 375.47457,0 368.61813,0 c -6.85648,0 -13.12895,5.7009258 -16.35171,12.262299 -5.6236,11.401776 -10.94438,26.181051 -16.26516,45.198348 -0.93007,3.355993 1.0382,6.819552 4.39072,7.744591 0.56235,0.150804 1.14636,0.236977 1.70872,0.236977 2.76854,0 5.32078,-1.828573 6.09944,-4.603729 1.16795,-4.194973 2.35759,-8.153348 3.52554,-11.91806 h 33.80649 c 1.16798,3.764712 2.33597,7.723087 3.52558,11.91806 0.93006,3.356031 4.43399,5.313675 7.78651,4.367093 3.37417,-0.92504 5.34243,-4.410142 4.39075,-7.744592 -5.34244,-19.017335 -10.66322,-33.796572 -16.2652,-45.198348 z m -29.11295,24.244912 c 2.57389,-7.142248 5.14779,-13.359458 7.78654,-18.694638 1.12471,-2.280303 2.94157,-5.206073 4.97473,-5.206073 2.05478,0 3.87163,2.92577 4.99634,5.206073 2.63876,5.356724 5.21266,11.55239 7.78652,18.694638 z M 439.30245,2.7966613 h -41.50651 c -3.43903,0 -6.25085,2.7751558 -6.25085,6.2172092 0,3.4205105 2.7902,6.2172095 6.25085,6.2172095 h 14.51323 v 44.531412 c 0,3.420586 2.79016,6.217209 6.25085,6.217209 3.46065,0 6.25085,-2.775155 6.25085,-6.217209 V 15.23108 h 14.51319 c 3.43907,0 6.25085,-2.775194 6.25085,-6.2172095 -0.0227,-3.4205479 -2.81178,-6.2172092 -6.27246,-6.2172092 z"/>
</svg>
