<?xml version="1.0" encoding="UTF-8" standalone="no"?>
<svg
     width="128"
     height="128"
     version="1.1"
     id="svgps3icon"
     xmlns="http://www.w3.org/2000/svg"
     xmlns:svg="http://www.w3.org/2000/svg">
    <path
         id="ps3icon03"
         fill="#000000"
         d="m 125.59278,63.65049 c -0.0722,-0.08311 -0.0722,-0.225789 0,-0.306822 1.60944,-1.365777 2.40593,-3.423915 2.40593,-5.80595 0,-4.252501 -2.52854,-7.537693 -7.71246,-7.537693 H 87.985089 c -0.110363,0 -0.191244,0.09165 -0.191244,0.20247 v 2.596992 c 0,0.106658 0.08088,0.196044 0.191244,0.196044 h 30.361391 c 2.55961,0 3.7948,1.896291 3.7948,4.540149 0,2.633443 -1.22683,4.525368 -3.7948,4.525368 h -0.0378 l -30.323753,0.0064 c -0.110362,0 -0.191244,0.08103 -0.191244,0.200164 v 2.595118 c 0,0.104352 0.08088,0.187464 0.191244,0.187464 h 30.361393 c 3.34779,0.0404 3.78849,3.38101 3.78849,5.08984 l 0.008,0.3216 c 0,2.648232 -1.23519,4.553068 -3.7948,4.553068 H 87.986185 c -0.110363,0 -0.191244,0.08081 -0.191244,0.187275 v 2.601577 c 0,0.106659 0.08088,0.196007 0.191244,0.196007 h 32.301385 c 5.18816,0 7.71243,-3.528268 7.71243,-7.5379 v -0.3216 c -1.9e-4,-2.556582 -0.79669,-4.998191 -2.40612,-6.489562 z" />
    <path
         id="ps3icon02"
         fill="#000000"
         d="M 81.936182,50.000033 H 65.146238 c -5.17867,0 -7.716547,3.278736 -7.716547,7.535817 v 12.932265 c 0,2.64198 -1.217461,4.538274 -3.787502,4.538274 H 38.956496 c -0.102803,0 -0.18822,0.08727 -0.18822,0.187465 v 2.609907 c 0,0.106658 0.08504,0.195968 0.18822,0.195968 h 16.622663 c 5.176591,0 7.72078,-3.263946 7.72078,-7.52311 V 57.535816 c 0,-2.644066 1.208126,-4.544526 3.792793,-4.544526 h 14.843639 c 0.11641,0 0.207874,-0.08519 0.207874,-0.191848 v -2.605519 c 0,-0.102274 -0.09184,-0.193928 -0.208252,-0.193928 z" />
    <path
         id="ps3icon01"
         fill="#000000"
         d="M 32.512403,50.000033 H 0.20288501 C 0.08537952,50.000033 0,50.091686 0,50.19396 v 2.605534 c 0,0.106659 0.08519054,0.196007 0.20288501,0.196007 H 30.569159 c 2.566941,0 3.785499,1.896291 3.785499,4.540149 0,2.633442 -1.218558,4.525368 -3.785499,4.525368 H 6.546156 c -3.7305784,0 -6.54594812601,3.210829 -6.54594812601,7.469789 v 8.266502 c 0,0.113121 0.085190536,0.202696 0.20288501601,0.202696 H 5.6770916 c 0.1071495,0 0.1965732,-0.08958 0.1965732,-0.202696 v -8.266502 c 0,-2.626987 1.4732445,-4.480588 3.610843,-4.480588 H 32.512403 c 5.168276,0 7.702109,-3.253526 7.702109,-7.512486 0,-4.25229 -2.533833,-7.537693 -7.702109,-7.537693 z" />
</svg>
