<?xml version="1.0" encoding="UTF-8" standalone="no"?>
<svg xmlns="http://www.w3.org/2000/svg" xmlns:svg="http://www.w3.org/2000/svg" id="svggbicon" version="1.1" viewBox="0 0 128 128" width="128" height="128">
  <path id="gbicon" fill="#393c9f" d="m 36.028421,82.150955 h -5.318466 l 1.170857,-6.943489 h 5.000945 c 5.437539,0 4.326217,6.943489 -0.853336,6.943489 m -0.932716,15.116967 h -6.787 l 1.190704,-7.459291 h 6.429785 c 6.132117,0 5.953514,7.459291 -0.833489,7.459291 z m 4.504824,-29.976033 c -4.147611,-0.05952 -14.407496,0 -14.407496,0 h 0.07938 l -5.953507,37.157601 h 17.324711 c 7.144215,0 17.56286,-10.494602 8.057083,-19.064851 9.724068,-10.097819 0.07938,-17.973722 -5.100171,-18.09275 z m 34.351757,21.901749 c -2.063885,6.189625 -7.064836,9.800239 -11.133067,7.955255 -4.048384,-1.805309 -5.695528,-8.332189 -3.611796,-14.561489 2.083729,-6.249142 7.064832,-9.780402 11.11322,-7.975093 4.068231,1.825146 5.715368,8.352026 3.631643,14.581327 M 70.955685,67.192695 c -8.53337,-1.964015 -17.404098,4.820766 -19.805348,15.156645 -2.361556,10.35572 2.5997,20.33452 11.113223,22.31837 8.533363,1.94417 17.384247,-4.840613 19.805341,-15.176496 C 84.430463,79.135497 79.449357,69.15671 70.955685,67.192695 Z M 92.090646,78.798243 87.288149,66.597539 h -8.8112 l 9.089026,19.739348 -2.817994,17.676143 h 7.719721 L 94.809414,88.380256 108.68109,66.597539 h -9.00964 l -7.580804,12.200704 m 8.642274,-17.219237 h 21.45249 l 1.28992,-8.014773 h -13.41524 l 1.05179,-6.685588 h 11.68872 l 1.27008,-8.034609 h -11.78795 l 1.0121,-6.645911 h 13.43508 L 128,24.163517 h -21.29372 l -5.97336,37.415489 m -58.10626,-18.608554 3.254586,-7.260906 1.428843,7.260906 H 42.62666 m 46.060327,-18.985483 -8.83104,20.53289 -3.909473,-20.53289 H 68.345827 L 57.530281,54.238743 52.469798,23.984969 H 42.983872 L 28.616065,56.599531 30.759329,42.970452 h -14.26858 l -1.131167,7.022843 h 5.993201 L 20.658207,53.74278 C 17.24486,55.151316 11.45011,54.615675 8.9694811,50.171843 7.4017236,47.35477 5.9331909,41.08579 12.541587,35.312775 c 5.397849,-4.701733 14.725016,-5.55479 20.10302,-3.094811 0,0 0.674732,-3.94787 1.190702,-7.598161 C 23.496047,21.048865 15.458807,24.024646 10.080803,27.357521 2.7182953,31.86087 -0.81412083,38.784519 0.15828581,48.187988 1.2497627,59.079347 15.359582,65.963323 27.326138,59.019831 c 0.138915,-0.05951 0.19845,-0.119029 0.317521,-0.138869 l -1.151012,2.539333 h 8.037238 L 39.590367,50.21152 h 8.890576 l 1.944814,11.208775 h 13.097726 l 6.667931,-20.929661 5.477231,20.929661 h 5.120017 l 8.791349,-23.171416 3.472881,23.310286 h 7.680028 L 97.934772,23.984969 Z"/>
</svg>
