<?xml version="1.0" encoding="UTF-8" standalone="no"?>
<svg xmlns="http://www.w3.org/2000/svg" xmlns:svg="http://www.w3.org/2000/svg" id="svggblogo" version="1.1" viewBox="0 0 640 112" width="640" height="112">
  <path id="gblogo" fill="#393c9f" d="m 432.90622,46.423589 c -12.10117,0 -15.22589,0 -15.22589,0 l 3.35197,-19.884563 c 0,0 0.45451,0 14.31688,0 15.56677,0 12.38524,19.884563 -2.44296,19.884563 m -2.67021,43.291533 c -12.15799,0 -19.43006,0 -19.43006,0 l 3.40879,-21.361702 c 0,0 4.60185,0 18.40741,0 17.55523,0 17.04392,21.361702 -2.38614,21.361702 z M 443.13257,3.8706252 c -11.87392,-0.1704391 -41.24627,0 -41.24627,0 h 0.22725 L 385.06965,110.28144 c 0,0 35.28089,0 49.59777,0 20.4527,0 50.27955,-30.054095 23.06609,-54.597327 C 485.5719,26.766278 457.96077,4.2115034 443.13257,3.8706252 Z m 98.34337,62.7215898 c -5.90856,17.725668 -20.22545,28.06564 -31.87212,22.782028 -11.58985,-5.169986 -16.30535,-23.861474 -10.33997,-41.700768 5.96537,-17.896106 20.22544,-28.008826 31.8153,-22.83884 11.64667,5.226799 16.36215,23.918288 10.39679,41.75758 M 532.89717,3.58656 c -24.42962,-5.6244905 -49.82504,13.805568 -56.69942,43.405159 -6.76074,29.656404 7.44251,58.233361 31.81531,63.914651 24.4296,5.56768 49.76821,-13.862367 56.6994,-43.461959 C 571.47322,37.788007 557.21314,9.2110505 532.89717,3.58656 Z M 593.40305,36.822185 579.6543,1.8821689 h -25.225 l 26.02037,56.5289701 -8.06745,50.620411 H 594.4825 L 601.18643,64.262882 640.89874,1.8821689 H 615.10563 L 593.40305,36.822185 M 289.28287,110.28144 h 61.4149 l 3.69284,-22.952466 h -38.40562 l 3.0111,-19.145993 h 33.46288 L 356.095,45.173702 h -33.74694 l 2.89747,-19.032368 h 38.46241 L 367.34398,3.1320557 H 306.38359 L 289.28287,110.28144 M 122.9343,56.990813 l 9.31734,-20.793571 4.09054,20.793571 H 122.9343 M 254.79736,2.6207384 229.51556,61.42223 218.32339,2.6207384 H 196.564 L 165.60089,89.260617 151.11357,2.6207384 H 123.95694 L 82.824298,96.021368 88.960106,56.990813 H 48.111533 L 44.873191,77.102627 H 62.030728 L 60.042272,87.840291 C 50.270429,91.874017 33.681023,90.340065 26.579393,77.613945 22.091164,69.546494 17.886999,51.593574 36.80574,35.060981 52.258885,21.596292 78.961012,19.153332 94.357345,26.198148 c 0,0 1.931643,-11.305794 3.408781,-21.7593924 C 68.166536,-5.7875908 45.157256,2.7343645 29.760924,12.278954 8.6832875,25.175513 -1.4294327,45.003262 1.354406,71.932641 c 3.1247169,31.190349 43.518785,50.904479 77.777045,31.019909 0.397691,-0.17043 0.56813,-0.34087 0.909009,-0.39769 l -3.295156,7.27207 H 99.754582 L 114.2419,77.727571 h 25.45224 l 5.56768,32.099359 h 37.49661 l 19.08918,-59.937747 15.6804,59.937747 h 14.65776 l 25.16817,-66.35762 9.94228,66.75531 h 21.98665 L 281.27223,2.6207384 Z"/>
</svg>
