<?xml version="1.0" encoding="UTF-8" standalone="no"?>
<svg
     version="1.1"
     id="svgxboxlogo"
     width="640"
     height="106"
     xmlns="http://www.w3.org/2000/svg"
     xmlns:svg="http://www.w3.org/2000/svg">
     <path
          id="xboxlogo"
          fill="#86bf2a"
          d="M 94.348856,53.000172 159.99917,3.5447101e-6 H 131.05079 L 79.872187,41.420726 28.435159,3.5447101e-6 H 0 L 65.396178,53.000172 0,105.99574 H 28.435159 L 79.872187,64.317486 131.05079,105.99574 h 28.94838 z M 611.31037,3.5447101e-6 559.87334,41.420726 508.69078,3.5447101e-6 H 479.74239 L 545.65576,53.000172 479.74239,105.99574 h 28.94839 l 51.18256,-41.678254 51.43703,41.678254 h 28.68962 L 574.34539,53.000172 639.99999,3.5447101e-6 Z M 471.21257,53.000172 c 0,-23.669688 -6.20099,-41.15892 -18.09006,-53.0001684552899 H 347.91995 C 335.50906,11.841252 329.30775,29.330484 329.30775,53.000172 c 0,23.665088 6.20131,41.158589 18.6122,52.999828 h 105.20256 c 11.88907,-11.845509 18.09006,-29.592601 18.09006,-52.999828 z m -17.57683,0 c 0,7.973988 -1.80274,16.201567 -5.17057,24.69949 l -4.91181,11.059782 h -86.33589 l -4.91181,-11.059782 c -3.61802,-8.493652 -5.17024,-16.720903 -5.17024,-24.69949 0,-12.605307 3.36354,-24.441958 10.08205,-35.502069 h 86.33622 c 6.72279,11.055512 10.08205,22.896762 10.08205,35.502069 z m -151.20597,4.373129 v -8.746915 l 7.75354,-4.120195 C 308.37232,24.699493 302.42977,9.7809912 292.34772,3.5447101e-6 H 187.14086 C 177.05849,9.5234584 170.8575,24.44196 169.30527,44.248986 h -17.05535 v 17.497772 h 17.05535 C 170.8575,81.549513 177.05849,96.218696 187.14086,106 H 292.34772 C 302.42977,95.961491 308.36803,81.30085 310.18331,61.746758 Z M 282.78286,17.493505 c 4.86098,8.234148 8.10669,17.311848 9.56453,26.751211 H 187.14053 c 1.55223,-10.02998 4.65305,-18.776567 9.56453,-26.751211 z m 9.56486,44.253253 c -1.45552,9.522141 -4.70025,18.686561 -9.56453,27.012686 h -86.0778 c -4.91181,-7.973989 -8.0123,-16.978437 -9.56453,-27.012686 z" />
</svg>
