<?xml version="1.0" encoding="UTF-8" standalone="no"?>
<svg
     version="1.1"
     id="Capa_1"
     x="0px"
     y="0px"
     width="1939.098"
     height="322.69312"
     viewBox="0 0 1939.098 322.69312"
     enable-background="new 0 0 2500 2500"
     xml:space="preserve"
     xmlns="http://www.w3.org/2000/svg"
     xmlns:svg="http://www.w3.org/2000/svg"><defs
     id="defs74" />



<linearGradient
     id="SVGID_1_"
     gradientUnits="userSpaceOnUse"
     x1="919.90332"
     y1="1619.2422"
     x2="962.10461"
     y2="1661.4445"
     gradientTransform="matrix(13.0655,0,0,-13.0655,-11395.758,22366.914)">
	<stop
     offset="0.17"
     style="stop-color:#C9CA08"
     id="stop3" />
	<stop
     offset="0.418"
     style="stop-color:#C8C909"
     id="stop4" />
	<stop
     offset="0.578"
     style="stop-color:#BFC70B"
     id="stop5" />
	<stop
     offset="0.713"
     style="stop-color:#B4C313"
     id="stop6" />
	<stop
     offset="0.834"
     style="stop-color:#A1BD18"
     id="stop7" />
	<stop
     offset="0.944"
     style="stop-color:#8BB623"
     id="stop8" />
	<stop
     offset="1"
     style="stop-color:#7EB227"
     id="stop9" />
</linearGradient>

<linearGradient
     id="SVGID_2_"
     gradientUnits="userSpaceOnUse"
     x1="972.27441"
     y1="1661.3311"
     x2="1014.2954"
     y2="1619.3101"
     gradientTransform="matrix(13.0655,0,0,-13.0655,-11395.758,22366.914)">
	<stop
     offset="0"
     style="stop-color:#547E1C"
     id="stop10" />
	<stop
     offset="0.077"
     style="stop-color:#679721"
     id="stop11" />
	<stop
     offset="0.151"
     style="stop-color:#77AB25"
     id="stop12" />
	<stop
     offset="0.192"
     style="stop-color:#7EB227"
     id="stop13" />
	<stop
     offset="0.197"
     style="stop-color:#82B326"
     id="stop14" />
	<stop
     offset="0.229"
     style="stop-color:#97BA1E"
     id="stop15" />
	<stop
     offset="0.266"
     style="stop-color:#ABC016"
     id="stop16" />
	<stop
     offset="0.309"
     style="stop-color:#B8C510"
     id="stop17" />
	<stop
     offset="0.362"
     style="stop-color:#C2C80B"
     id="stop18" />
	<stop
     offset="0.437"
     style="stop-color:#C7CA08"
     id="stop19" />
	<stop
     offset="0.644"
     style="stop-color:#C9CA08"
     id="stop20" />
</linearGradient>

<linearGradient
     id="SVGID_3_"
     gradientUnits="userSpaceOnUse"
     x1="968.70117"
     y1="1630.3203"
     x2="1012.2142"
     y2="1586.8073"
     gradientTransform="matrix(13.0655,0,0,-13.0655,-11395.758,22366.914)">
	<stop
     offset="0"
     style="stop-color:#57811B"
     id="stop21" />
	<stop
     offset="0.226"
     style="stop-color:#7EB227"
     id="stop22" />
	<stop
     offset="0.259"
     style="stop-color:#85B426"
     id="stop23" />
	<stop
     offset="0.379"
     style="stop-color:#9EBC1B"
     id="stop24" />
	<stop
     offset="0.507"
     style="stop-color:#B2C213"
     id="stop25" />
	<stop
     offset="0.644"
     style="stop-color:#BEC70D"
     id="stop26" />
	<stop
     offset="0.798"
     style="stop-color:#C8C909"
     id="stop27" />
	<stop
     offset="1"
     style="stop-color:#C9CA08"
     id="stop28" />
</linearGradient>

<linearGradient
     id="SVGID_4_"
     gradientUnits="userSpaceOnUse"
     x1="966.03662"
     y1="1630.0391"
     x2="922.52362"
     y2="1586.5271"
     gradientTransform="matrix(13.0655,0,0,-13.0655,-11395.758,22366.914)">
	<stop
     offset="0"
     style="stop-color:#4A7017"
     id="stop29" />
	<stop
     offset="0.271"
     style="stop-color:#7EB227"
     id="stop30" />
	<stop
     offset="0.316"
     style="stop-color:#8BB623"
     id="stop31" />
	<stop
     offset="0.409"
     style="stop-color:#A1BD1A"
     id="stop32" />
	<stop
     offset="0.511"
     style="stop-color:#B4C313"
     id="stop33" />
	<stop
     offset="0.623"
     style="stop-color:#BFC70B"
     id="stop34" />
	<stop
     offset="0.756"
     style="stop-color:#C8C909"
     id="stop35" />
	<stop
     offset="0.961"
     style="stop-color:#C9CA08"
     id="stop36" />
</linearGradient>

<linearGradient
     id="SVGID_5_"
     gradientUnits="userSpaceOnUse"
     x1="917.82568"
     y1="1669.2324"
     x2="950.89569"
     y2="1669.2324"
     gradientTransform="matrix(13.0655,0,0,-13.0655,-11395.758,22366.914)">
	<stop
     offset="0"
     style="stop-color:#000000"
     id="stop37" />
	<stop
     offset="0"
     style="stop-color:#7A9349"
     id="stop38" />
	<stop
     offset="0.045"
     style="stop-color:#819851"
     id="stop39" />
	<stop
     offset="0.373"
     style="stop-color:#B0BF8E"
     id="stop40" />
	<stop
     offset="0.653"
     style="stop-color:#D5DEC2"
     id="stop41" />
	<stop
     offset="0.871"
     style="stop-color:#EEF3E8"
     id="stop42" />
	<stop
     offset="1"
     style="stop-color:#FFFFFF"
     id="stop43" />
</linearGradient>
<g
     id="logo"
     transform="translate(0,-1372.1689)"><path
         id="path73"
         style="fill:#86bf2a;fill-opacity:1"
         d="m 285.862,1533.516 198.91,-161.347 H 397.063 L 242,1498.265 86.154,1372.169 H 0 L 198.14,1533.516 0,1694.849 H 86.154 L 242,1567.969 l 155.063,126.88 h 87.709 z m 1566.311,-161.347 -155.846,126.096 -155.075,-126.096 h -87.709 l 199.707,161.347 -199.707,161.333 h 87.709 l 155.075,-126.88 155.846,126.88 h 86.925 l -198.923,-161.333 198.923,-161.347 z m -424.474,161.347 c 0,-72.057 -18.788,-125.299 -54.81,-161.347 h -318.747 c -37.603,36.048 -56.392,89.29 -56.392,161.347 0,72.043 18.789,125.298 56.392,161.346 h 318.747 c 36.022,-36.061 54.81,-90.088 54.81,-161.346 z m -53.255,0 c 0,24.275 -5.462,49.322 -15.666,75.192 l -14.882,33.669 h -261.584 l -14.882,-33.669 c -10.962,-25.857 -15.665,-50.903 -15.665,-75.192 0,-38.374 10.191,-74.408 30.547,-108.078 h 261.585 c 20.369,33.656 30.547,69.704 30.547,108.078 z m -458.13,13.313 v -26.628 l 23.492,-12.543 c -5.487,-60.297 -23.492,-105.713 -54.039,-135.489 h -318.76 c -30.548,28.992 -49.336,74.408 -54.039,134.706 h -51.675 v 53.268 h 51.675 c 4.703,60.285 23.491,104.942 54.039,134.719 h 318.76 c 30.547,-30.56 48.539,-75.191 54.039,-134.719 z m -59.527,-121.405 c 14.728,25.067 24.562,52.702 28.979,81.438 h -318.76 c 4.703,-30.534 14.098,-57.161 28.979,-81.438 z m 28.98,134.719 c -4.41,28.988 -14.241,56.887 -28.979,82.234 H 595.986 c -14.882,-24.275 -24.276,-51.687 -28.979,-82.234 z" /></g>
<linearGradient
     id="SVGID_6_"
     gradientUnits="userSpaceOnUse"
     x1="967.3584"
     y1="1668.2314"
     x2="1009.5174"
     y2="1668.2314"
     gradientTransform="matrix(13.0655,0,0,-13.0655,-11395.758,22366.914)">
	<stop
     offset="0"
     style="stop-color:#D9E6DE"
     id="stop44" />
	<stop
     offset="1"
     style="stop-color:#708743"
     id="stop45" />
</linearGradient>

<linearGradient
     id="SVGID_7_"
     gradientUnits="userSpaceOnUse"
     x1="981.54102"
     y1="1618.2041"
     x2="1029.8447"
     y2="1618.2041"
     gradientTransform="matrix(13.0655,0,0,-13.0655,-11395.758,22366.914)">
	<stop
     offset="0"
     style="stop-color:#FFFFFF"
     id="stop46" />
	<stop
     offset="0.134"
     style="stop-color:#EEF1E6"
     id="stop47" />
	<stop
     offset="0.372"
     style="stop-color:#CFDABC"
     id="stop48" />
	<stop
     offset="0.686"
     style="stop-color:#A4B780"
     id="stop49" />
	<stop
     offset="1"
     style="stop-color:#7A9349"
     id="stop50" />
</linearGradient>








</svg>
