<?xml version="1.0" encoding="UTF-8" standalone="no"?>
<svg
     id="svgneogeologo"
     width="640"
     height="110"
     version="1.1"
     xmlns="http://www.w3.org/2000/svg"
     xmlns:svg="http://www.w3.org/2000/svg">
     <path
          id="neogeologo"
          fill="#231f20"
          d="m 337.88136,54.998637 c 0,6.913962 -5.57022,12.515076 -12.43721,12.515076 -6.87095,0 -12.43721,-5.605097 -12.43721,-12.515076 0,-6.913961 5.57022,-12.515075 12.43721,-12.515075 6.87094,0 12.43721,5.605097 12.43721,12.515075 z M 35.461044,101.07416 h -2.359032 c -3.384471,0 -6.390278,-1.045 -9.018292,-3.135871 C 21.460059,95.846541 20.146487,91.818964 20.146487,85.8503 V 23.027794 l 67.628485,84.834906 4.384666,0.005 V 21.342483 c 0,-4.919286 0.405997,-6.34707 1.212595,-8.37137 0.806858,-2.0243 1.935102,-3.4853703 3.375766,-4.3823341 1.441534,-0.8960879 4.270631,-1.6257469 8.476851,-2.190729 V 1.9955692 H 71.676102 v 4.4024807 c 5.531103,-0.1016092 9.479653,1.3323066 11.821275,4.3052511 1.714868,2.202992 2.571432,4.386714 2.571432,10.642686 v 45.31244 L 33.421482,1.9964451 H 1.3873949 V 5.4896988 C 4.4323742,5.591308 4.5403152,6.6187871 6.1620408,7.484217 l 8.5813052,8.690213 -0.01201,69.672366 c 0,5.508795 -1.08115,9.407609 -3.24084,11.702575 C 9.3290631,99.845213 5.4971594,101.01722 5.5444319e-6,101.0689 v 4.21153 H 35.44642 V 101.0689 Z M 203.20476,72.956445 h -4.87911 c -2.54444,9.206142 -6.73412,16.056003 -12.56119,20.540822 -5.82707,4.490075 -13.57967,6.733363 -23.24212,6.733363 h -5.5137 c -2.9527,0 -5.08541,-0.40749 -6.41291,-1.222817 -1.3214,-0.817954 -2.22671,-1.864003 -2.71071,-3.141125 -0.4819,-1.277122 -0.7259,-4.771252 -0.7259,-10.485017 V 56.133993 c 4.96615,0 10.78539,0.649949 13.39686,1.958605 2.60887,1.299897 4.9,3.845382 6.86731,7.629448 1.97341,3.784066 3.26696,7.96143 3.88152,13.892428 h 4.19229 V 25.787885 h -4.19229 c -0.82191,8.084062 -2.71506,13.515773 -5.68518,17.658976 -2.96402,4.144078 -7.75434,6.214803 -14.3544,6.214803 h -4.10872 V 13.555366 c -0.034,-6.2761193 5.52936,-5.5482121 5.52936,-5.5482121 h 6.49039 c 7.85792,0 13.21406,0.4608327 16.06927,1.3822353 4.89738,1.5302698 8.68315,3.9338518 11.35991,7.2011128 2.6785,3.271641 4.7555,8.662183 6.23533,16.169875 h 3.51331 V 1.9885617 h -87.39735 v 4.2386796 h 2.75423 c 3.35836,0 6.00553,0.7153812 7.93976,2.1408004 1.37363,0.969667 2.31463,2.3519023 2.82126,4.1379463 0.25697,1.068648 0.38598,3.953123 0.38598,8.64992 v 65.047396 c 0,5.204843 -0.279,8.422175 -0.8409,9.644113 -0.71093,1.733488 -1.73315,2.962434 -3.0502,3.674574 -1.835,1.074779 -4.25148,1.608229 -7.25642,1.608229 h -2.75423 v 4.89388 h 88.87718 l 5.34308,-33.075538 z M 255.6954,109.3956 c 18.11492,0 32.14725,-6.70708 42.07956,-20.12037 7.49493,-10.108362 11.24675,-21.810937 11.24675,-35.125243 0,-15.574236 -5.0297,-28.546925 -15.07692,-38.91807 C 283.89062,4.860773 270.82454,-0.00946031 254.73786,0.61245797 239.84375,-0.00525579 227.29126,4.8791677 217.0978,15.275714 c -10.21086,10.388663 -15.30324,23.378872 -15.30324,38.953107 0,13.87491 3.91983,25.866545 11.76905,35.974907 9.9236,12.788742 23.97333,19.191872 42.1492,19.191872 M 234.38576,20.312376 c 4.81469,-9.793023 11.83869,-14.6895341 21.0746,-14.6895341 5.01403,0 9.44484,1.4172729 13.29241,4.2535706 3.84757,2.8354215 7.01181,7.6960195 9.49706,14.5756625 2.48177,6.885774 3.72396,17.256042 3.72396,31.122192 0,11.650019 -1.2152,21.101424 -3.65084,28.345459 -2.43041,7.24491 -5.83229,12.5172 -10.20216,15.819498 -3.42451,2.578776 -7.69601,3.866406 -12.81363,3.866406 -7.59765,0 -13.50133,-2.99134 -17.73192,-8.969639 -6.05513,-8.55707 -9.08793,-21.7759 -9.08793,-39.671379 0,-15.05743 1.95948,-26.602336 5.88279,-34.643476 M 585.69874,1.2168574 c -14.89411,-0.61876487 -27.4466,4.2667098 -37.64006,14.6632566 -10.21086,10.388663 -15.30324,23.378871 -15.30324,38.953107 0,13.874909 3.91983,25.866545 11.76905,35.974906 C 554.44809,103.59687 568.49783,110 586.67369,110 c 18.11493,0 32.14725,-6.70621 42.07956,-20.12037 C 636.24818,79.780027 640,68.068693 640,54.754386 640,39.180151 634.9703,26.207461 624.92309,15.836317 614.86891,5.4651724 601.80283,0.59493914 585.71615,1.2168574 m 23.75571,83.2494556 c -2.43041,7.244034 -5.83229,12.5172 -10.20216,15.810737 -3.42451,2.58053 -7.69602,3.86728 -12.81363,3.86728 -7.59765,0 -13.50133,-2.99134 -17.73192,-8.969635 -6.05514,-8.55707 -9.08793,-21.7759 -9.08793,-39.671379 0,-15.05743 1.95948,-26.602336 5.88278,-34.643476 4.81469,-9.793023 11.83869,-14.6895349 21.0746,-14.6895349 5.01403,0 9.44484,1.4199008 13.29241,4.2553229 3.84757,2.834546 7.01181,7.695143 9.49706,14.575662 2.48177,6.885774 3.72396,17.256042 3.72396,31.130952 0,11.650018 -1.2152,21.101424 -3.65084,28.345458 m -92.52628,9.851711 c -5.82707,4.490951 -13.57967,6.733359 -23.25083,6.733359 h -5.51369 c -2.95358,0 -5.08716,-0.40547 -6.41291,-1.222812 -1.32054,-0.817954 -2.22759,-1.863127 -2.70897,-3.14025 -0.48295,-1.27537 -0.72695,-4.771252 -0.72695,-10.485016 V 56.967014 c 4.96702,0 10.78539,0.649948 13.39686,1.957728 2.60625,1.300773 4.89826,3.846258 6.8647,7.630324 1.97601,3.784067 3.26782,7.96143 3.88152,13.892428 h 4.19229 V 26.620905 h -4.19229 c -0.81887,8.087566 -2.71158,13.515774 -5.68344,17.658976 -2.96663,4.144078 -7.75521,6.215679 -14.3544,6.215679 h -4.10611 V 14.389262 C 478.28087,8.1140187 483.8407,8.84105 483.8407,8.84105 h 6.49561 c 7.85618,0 13.20535,0.4617962 16.06056,1.383111 4.89391,1.531145 8.67967,3.934728 11.35992,7.201113 2.67937,3.272517 4.75375,8.659555 6.23446,16.169875 h 3.51417 V 2.8496119 h -87.39735 v 4.2115255 h 2.75685 c 3.35662,0 6.00639,0.7143301 7.93627,2.1408004 1.37538,0.9705432 2.31899,2.3536542 2.82562,4.1388222 0.25497,1.067772 0.38397,3.953999 0.38397,8.650796 v 65.047396 c 0,5.206595 -0.27899,8.422175 -0.84089,9.652873 -0.71294,1.733487 -1.73141,2.959805 -3.05282,3.673695 -1.83499,1.07478 -4.25148,1.60823 -7.25206,1.60823 h -2.75685 v 4.89301 h 88.87719 l 5.34046,-33.075543 h -4.87823 c -2.54532,9.206142 -6.73326,16.056003 -12.5612,20.540822 M 399.41355,66.124103 h 2.53401 c 2.36338,0 6.41204,0.490002 8.07816,1.474209 1.66786,0.975799 2.76555,2.070726 3.29568,3.282152 0.53195,1.213179 0.80094,3.885676 0.80094,8.013111 v 16.204913 c 0,4.89038 -5.13503,7.381552 -7.61071,7.922012 -2.48177,0.54028 -4.89565,0.81095 -7.25032,0.81095 -6.78026,0 -12.63084,-1.77466 -17.56652,-5.326602 -4.92873,-3.55457 -8.49948,-9.109789 -10.71575,-16.686681 -2.21192,-7.565504 -3.31309,-16.362582 -3.31309,-26.409628 0,-8.288156 1.01064,-16.371342 3.03366,-24.246054 2.02389,-7.878215 5.4693,-14.015059 10.33273,-18.421044 4.86344,-4.3998527 10.95949,-6.601969 18.28032,-6.601969 7.66381,0 12.14336,1.9515971 17.78415,7.850185 5.76613,6.027352 11.29898,12.876337 14.5285,22.932142 h 4.71545 V 8.7579463e-4 h -2.68198 C 432.69079,2.9580534 431.63401,4.9648348 430.47887,6.0264756 c -1.15862,1.0642686 -2.413,1.5933371 -3.75878,1.5933371 -0.86788,0 -3.67957,-0.9609075 -8.42201,-2.8827226 C 413.55304,2.8126472 410.11895,1.6441416 408.00017,1.2324492 404.09776,0.41344412 401.06583,-1.4660787e-7 396.20501,-1.4660787e-7 380.50134,-1.4660787e-7 367.46138,5.4308355 357.10253,16.292507 c -10.35885,10.870431 -15.53827,24.175978 -15.53827,39.925402 0,8.803209 1.68353,16.756756 5.05668,23.860639 2.65065,5.507919 6.32586,10.458738 11.02043,14.864723 4.69804,4.400729 10.12381,7.955299 16.26078,10.660209 6.14306,2.69877 13.86693,4.05035 23.16378,4.05035 7.2773,0 14.29347,-0.75664 21.06589,-2.26869 6.77242,-1.51713 13.2837,-3.76304 19.55994,-6.73686 V 78.872377 c 0,-3.817352 0.21293,-6.217431 0.64687,-7.194981 0.7689,-1.858748 1.86198,-3.184047 3.28262,-3.986409 1.41803,-0.802888 5.28737,-1.326175 8.89642,-1.588081 v -3.565081 h -51.12396 v 3.565081 z" />
</svg>
