<?xml version="1.0" encoding="UTF-8" standalone="no"?>
<svg xmlns="http://www.w3.org/2000/svg" xmlns:svg="http://www.w3.org/2000/svg" width="128" height="128" viewBox="0 0 33.866666 33.866667" version="1.1" id="svgc64icon">
  <g id="c64icon">
    <path id="c64icon01" fill="#e60c34" d="m 21.064875,17.268472 c 0.149936,-0.04288 0.548508,-0.02307 0.725681,-0.02307 h 1.42925 4.638319 c 0.437675,8.21e-4 0.41691,0.11696 0.701142,0.407053 l 0.703569,0.75983 3.366017,3.609187 0.546352,0.597008 c 0.08575,0.09552 0.225713,0.21818 0.284501,0.325641 0.08387,0.152509 0.04261,0.346809 -0.127823,0.414107 -0.05933,0.02361 -0.150746,0.02008 -0.215197,0.02008 h -4.125948 l -0.404504,0.02714 H 23.89398 21.655722 c -0.20468,0 -0.617544,0.06811 -0.708153,-0.163363 -0.02346,-0.0597 -0.01996,-0.151694 -0.01996,-0.216551 V 22.64562 l -0.02697,-0.407052 V 18.520833 17.62532 c 0.0022,-0.16472 0.01672,-0.264855 0.164229,-0.356849 z"/>
    <path id="c64icon00" fill="#0070e8" d="m 21.332118,32.550533 -1.078679,0.274625 c -0.70276,0.167705 -1.413339,0.294434 -2.130391,0.380728 l -0.809009,0.07978 -0.26967,0.02469 -0.53934,0.02714 h -1.024745 l -0.35057,-0.02714 -0.943845,-0.07707 C 11.912014,32.988521 9.8258487,32.198299 7.8755969,31.014594 7.2054675,30.607814 6.569047,30.136177 5.9609417,29.641474 L 4.7743947,28.591011 4.450791,28.290064 4.2056611,28.018697 C 3.062531,26.783974 2.1666881,25.484123 1.4658164,23.948184 -1.2556909,17.984068 -0.10474039,10.679126 4.2307404,5.7936966 L 4.8822625,5.0884124 C 6.0777086,3.9144765 7.4519457,2.9280557 8.954276,2.1915642 10.673151,1.3486966 12.60938,0.82441458 14.509473,0.63310054 l 0.943844,-0.076797 0.485406,-0.0271367 H 16.8556 l 0.323603,0.0271367 h 0.242703 l 0.997779,0.12455764 c 0.757772,0.12781415 1.49397,0.31478635 2.238258,0.50311532 l 0.458439,0.1221154 c 0.05636,0.014654 0.152364,0.034464 0.189039,0.08331 0.03371,0.045047 0.0267,0.1430107 0.0267,0.1980984 V 9.891346 L 20.118604,9.3336858 C 19.302044,9.0050597 18.430201,8.7711409 17.556741,8.6661217 l -0.512372,-0.050203 -0.620241,-0.027137 -0.431471,0.027137 -0.296637,0.024695 c -0.938451,0.068927 -1.980725,0.3519636 -2.831532,0.7563013 -1.152569,0.5478909 -1.801125,1.085199 -2.696698,1.986952 -0.605139,0.609221 -1.2035363,1.471897 -1.5700174,2.252351 -0.4740795,1.009487 -0.7081528,2.114225 -0.6952087,3.229274 l 0.028046,0.271367 v 0.244231 c 0.1539815,1.588856 0.7628959,3.191824 1.7426061,4.450427 0.942765,1.211114 2.56348,2.401061 4.000281,2.946509 0.697635,0.264583 1.736673,0.525911 2.480962,0.526996 h 0.88991 l 0.512372,-0.04993 c 0.859977,-0.09254 1.701347,-0.331069 2.507929,-0.639886 l 0.701142,-0.295519 c 0.177712,-0.08195 0.348412,-0.188329 0.539339,-0.235818 v 4.504701 l 0.02697,0.407052 z M 30.50089,10.384964 h 1.024745 1.914655 c 0.05447,-0.0052 0.136993,-0.0065 0.18877,0 0.04989,0.01438 0.09142,0.03094 0.131868,0.06296 0.284501,0.225506 -0.0774,0.551147 -0.240006,0.718853 l -2.023333,2.143803 -1.537118,1.628205 -0.512372,0.542735 -0.392101,0.407052 -0.44037,0.461324 c -0.246209,0.26594 -0.315244,0.460782 -0.703569,0.461325 h -2.750631 l -0.404505,-0.02714 h -2.858499 -0.620241 c -0.115958,-0.0016 -0.229489,-0.0071 -0.303648,-0.112075 -0.05447,-0.07707 -0.04665,-0.178018 -0.04692,-0.26784 V 13.12062 l 0.02697,-0.407051 v -0.895513 -0.976923 c 3.06e-4,-0.109633 -0.0073,-0.23012 0.06769,-0.319671 0.09789,-0.116688 0.252951,-0.114246 0.390752,-0.114518 h 6.06757 1.968589 z"/>
  </g>
</svg>
