<?xml version="1.0" encoding="UTF-8" standalone="no"?>
<!-- Created with Inkscape (http://www.inkscape.org/) -->

<svg
     width="639.99835"
     height="162.21201"
     viewBox="0 0 169.33291 42.918593"
     version="1.1"
     id="svg1"
     xml:space="preserve"
     xmlns="http://www.w3.org/2000/svg"
     xmlns:svg="http://www.w3.org/2000/svg">
     
     <defs id="defs1"></defs>
     
     <path
         id="logo"
         class="st1"
         d="m 54.103282,38.314572 h 1.872834 L 55.872199,33.736607 Z M 39.406966,33.658594 c -0.181981,-0.02535 -0.390322,-0.05221 -0.624261,-0.05221 h -0.754334 l -0.494239,2.783195 h 0.754284 c 0.520243,0 0.910412,-0.103917 1.170508,-0.286404 0.312257,-0.234194 0.520243,-0.624262 0.598257,-1.144504 0.07807,-0.494239 0.02535,-0.832348 -0.156129,-1.040435 C 39.770776,33.78796 39.615155,33.709895 39.406814,33.65819 Z M 0,31.213559 V 42.918593 H 169.3329 V 31.213559 Z m 7.3871649,2.471039 H 4.786052 L 4.2918136,36.38978 h 2.4450351 l -0.1819811,0.988427 h -2.445035 l -0.4942384,2.861208 h 2.757191 L 6.1908041,41.227841 H 2.2631554 l 1.5086182,-8.583678 h 3.797626 z m 7.8814031,7.569247 h -1.74276 l -0.936367,-5.95656 c 0,-0.103917 -0.05221,-0.416174 -0.103917,-0.962422 -0.02534,-0.312257 -0.05221,-0.572251 -0.07806,-0.754334 l -0.05221,0.285899 -0.05221,0.234192 -0.05221,0.363962 -0.103917,0.546248 -1.092444,6.242661 H 9.9880245 l 1.5086185,-8.583678 h 1.846829 l 0.806343,5.098207 c 0.156129,1.196513 0.260045,2.028862 0.312257,2.52305 0.02535,-0.181982 0.05221,-0.442027 0.07807,-0.806344 0.07806,-0.520193 0.103917,-0.806344 0.12977,-0.884357 l 1.040434,-5.930556 h 1.06649 z m 10.092347,-7.569247 h -2.002856 l -1.326586,7.569247 h -1.170509 l 1.326586,-7.569247 h -1.976852 l 0.181981,-1.01443 H 25.5689 Z m 7.465229,0 h -2.601113 l -0.468386,2.705182 h 2.445086 l -0.181981,0.988427 h -2.445085 l -0.494239,2.861208 h 2.757191 l -0.181982,0.988426 h -3.953703 l 1.508669,-8.583678 h 3.797626 z m 8.4276,1.196513 c -0.129769,0.702325 -0.390322,1.222518 -0.832347,1.534674 -0.234194,0.181981 -0.572253,0.312257 -0.988427,0.416174 0.260045,0.07806 0.468386,0.130276 0.598257,0.20834 0.285898,0.156129 0.416174,0.494238 0.416174,0.988426 0,0.33811 -0.05221,0.910412 -0.156129,1.6907 -0.05221,0.520244 -0.07806,0.910413 -0.02535,1.144504 0.02535,0.130277 0.05221,0.234194 0.07806,0.363962 h -1.326587 c -0.02535,-0.156128 -0.05221,-0.312257 -0.05221,-0.494237 0,-0.103917 0.05221,-0.494239 0.103917,-1.144504 0.07807,-0.858404 0.103918,-1.430605 0.103918,-1.664747 -0.02535,-0.20834 -0.130277,-0.363962 -0.286405,-0.442027 -0.12977,-0.07806 -0.285899,-0.130275 -0.442027,-0.156128 -0.129769,-0.02534 -0.312257,-0.02534 -0.520192,-0.02534 h -0.572252 l -0.676321,3.901695 h -1.170509 l 1.508669,-8.583679 h 2.158935 c 0.572252,0 1.01443,0.05221 1.274527,0.130277 0.72833,0.312257 1.01443,1.01443 0.806343,2.132929 z m 9.103922,-1.196513 h -2.002857 l -1.326536,7.569247 H 45.857764 L 47.1843,33.684598 h -1.976852 l 0.181982,-1.01443 h 5.176221 z m 5.748473,7.569247 -0.05221,-1.950847 H 53.76497 l -0.754334,1.950847 h -1.144504 l 3.485521,-8.583677 h 1.560627 l 0.468385,8.583677 z m 6.216706,0 h -1.170507 l 1.508618,-8.583677 h 1.170509 z m 9.233944,0 H 69.81408 l -0.936418,-5.95656 c 0,-0.103917 -0.05221,-0.416174 -0.103916,-0.962422 -0.02535,-0.312257 -0.05221,-0.572251 -0.07806,-0.754334 l -0.05221,0.285899 -0.05221,0.234192 -0.05221,0.363962 -0.103916,0.546248 -1.092496,6.242661 h -1.066439 l 1.508618,-8.583678 h 1.846829 l 0.806344,5.098207 c 0.156129,1.196513 0.260046,2.028862 0.312257,2.52305 0.02535,-0.181982 0.05221,-0.442027 0.07806,-0.806344 0.07807,-0.520193 0.103917,-0.806344 0.130277,-0.884357 l 1.040485,-5.930556 h 1.06644 z m 10.898691,0 h -1.01443 l 1.300581,-7.361159 -3.121356,7.361159 h -1.170509 l -0.520191,-7.361159 -1.300582,7.361159 h -1.014431 l 1.508618,-8.583677 h 1.950848 l 0.416174,6.580822 2.523099,-6.580822 h 1.950848 z m 9.207989,-7.569247 h -2.601112 l -0.468386,2.705182 h 2.445086 l -0.181982,0.988427 h -2.445086 l -0.494238,2.861208 h 2.731187 l -0.181982,0.988426 h -3.953704 l 1.508618,-8.583678 h 3.797678 z m 7.881403,7.569247 h -1.74276 l -0.936417,-5.95656 c 0,-0.103917 -0.05221,-0.416174 -0.103916,-0.962422 -0.02535,-0.312257 -0.05221,-0.572251 -0.07807,-0.754334 l -0.05221,0.285899 -0.05221,0.234192 -0.05221,0.363962 -0.103916,0.546248 -1.092496,6.242661 h -1.06644 l 1.508669,-8.583678 h 1.846779 l 0.806343,5.098207 c 0.156129,1.196513 0.260046,2.028862 0.312257,2.52305 0.02535,-0.181982 0.05221,-0.442027 0.07806,-0.806344 0.07806,-0.520193 0.103917,-0.806344 0.130276,-0.884357 l 1.040435,-5.930556 h 1.066434 z m 10.092348,-7.569247 h -2.00291 l -1.32654,7.569247 h -1.1705 l 1.32658,-7.569247 h -1.97684 l 0.18198,-1.01443 h 5.17621 z m 13.42174,1.196513 c 0,0.02535 -0.0254,0.130277 -0.0522,0.260045 h -1.19652 c 0.0254,-0.129768 0.0254,-0.207833 0.0522,-0.234192 0.0522,-0.285898 0.0522,-0.494239 0.0522,-0.624261 -0.0781,-0.520243 -0.39033,-0.780339 -0.98843,-0.780339 -0.39032,0 -0.70232,0.130276 -0.93641,0.363962 -0.20834,0.20834 -0.33811,0.468385 -0.39033,0.806344 -0.0522,0.312257 -0.0253,0.546247 0.0781,0.754334 0.13028,0.285898 0.36396,0.520192 0.72833,0.728279 l 0.70232,0.416175 c 0.62426,0.390321 1.04044,0.780339 1.22252,1.170457 0.15613,0.33811 0.18198,0.780339 0.0781,1.326586 -0.13027,0.780339 -0.49424,1.378596 -1.04043,1.794769 -0.49424,0.363962 -1.09249,0.520244 -1.84683,0.520244 -0.85835,0 -1.48262,-0.20834 -1.82078,-0.624261 -0.33811,-0.390322 -0.41617,-1.014431 -0.2859,-1.846829 0.0254,-0.07806 0.0522,-0.234194 0.10392,-0.494239 h 1.19652 c -0.0254,0.156128 -0.0522,0.285898 -0.0781,0.33811 -0.0781,0.468386 -0.0781,0.832348 0,1.092444 0.13028,0.390321 0.46839,0.572252 1.01444,0.572252 0.49424,0 0.85835,-0.156129 1.1185,-0.442026 0.20782,-0.234194 0.36395,-0.520244 0.41616,-0.884409 0.0781,-0.416174 0,-0.754283 -0.23419,-1.040434 -0.18197,-0.207834 -0.49423,-0.468386 -0.98842,-0.754335 -0.49424,-0.285898 -0.88441,-0.572252 -1.14451,-0.832348 -0.41617,-0.416174 -0.57225,-0.988426 -0.41617,-1.768765 0.13028,-0.72833 0.44203,-1.274526 0.93642,-1.664696 0.46839,-0.363962 1.06644,-0.520243 1.76876,-0.520243 0.80634,0 1.37855,0.208341 1.71671,0.624262 0.2859,0.390321 0.36396,0.96242 0.23419,1.742759 z m 6.03462,2.809201 -0.62426,3.563533 h -1.1705 l 0.62426,-3.563533 -1.06644,-5.020144 h 1.35254 l 0.59825,3.771621 1.97686,-3.771621 h 1.17051 z m 10.66461,-2.809201 c 0,0.02535 -0.0254,0.130277 -0.0522,0.260045 h -1.19651 c 0.0253,-0.129768 0.0253,-0.207833 0.0522,-0.234192 0.0522,-0.285898 0.0522,-0.494239 0.0522,-0.624261 -0.0781,-0.520243 -0.39032,-0.780339 -0.98843,-0.780339 -0.39032,0 -0.70232,0.130276 -0.93642,0.363962 -0.20783,0.20834 -0.33811,0.468385 -0.39032,0.806344 -0.0522,0.312257 -0.0253,0.546247 0.0781,0.754334 0.12977,0.285898 0.36396,0.520192 0.72828,0.728279 l 0.70232,0.416175 c 0.62427,0.390321 1.04044,0.780339 1.22253,1.170457 0.15612,0.33811 0.18198,0.780339 0.0781,1.326586 -0.13028,0.780339 -0.49424,1.378596 -1.04044,1.794769 -0.49424,0.363962 -1.09244,0.520244 -1.84678,0.520244 -0.8584,0 -1.48266,-0.20834 -1.82077,-0.624261 -0.33811,-0.390322 -0.41618,-1.014431 -0.2859,-1.846829 0.0254,-0.07806 0.0522,-0.234194 0.10392,-0.494239 h 1.19651 c -0.0253,0.156128 -0.0522,0.285898 -0.0781,0.33811 -0.0781,0.468386 -0.0781,0.832348 0,1.092444 0.13028,0.390321 0.46839,0.572252 1.01442,0.572252 0.49424,0 0.85841,-0.156129 1.11851,-0.442026 0.20834,-0.234194 0.36396,-0.520244 0.41617,-0.884409 0.0781,-0.416174 0,-0.754283 -0.23419,-1.040434 -0.18198,-0.207834 -0.49424,-0.468386 -0.98843,-0.754335 -0.49424,-0.285898 -0.88435,-0.572252 -1.1445,-0.832348 -0.41617,-0.416174 -0.57225,-0.988426 -0.41617,-1.768765 0.13027,-0.72833 0.44202,-1.274526 0.93642,-1.664696 0.46837,-0.363962 1.06643,-0.520243 1.76876,-0.520243 0.80634,0 1.37859,0.208341 1.71671,0.624262 0.28589,0.390321 0.39032,0.96242 0.23419,1.742759 z m 8.97384,-1.196513 h -2.00285 l -1.32659,7.569247 h -1.17052 l 1.32659,-7.569247 h -1.97684 l 0.18198,-1.01443 h 5.15021 z m 7.49123,0 h -2.60111 l -0.46839,2.705182 h 2.44509 l -0.18199,0.988427 h -2.44508 l -0.49424,2.861208 h 2.7572 l -0.18198,0.988426 h -3.9537 l 1.50866,-8.583678 h 3.79762 z m 9.59811,7.569247 h -1.01443 l 1.30059,-7.361159 -3.12137,7.361159 h -1.1705 l -0.52024,-7.361159 -1.30054,7.361159 h -1.01442 l 1.50861,-8.583677 h 1.95085 l 0.41618,6.580822 2.52309,-6.580822 h 1.95085 z M 158.27813,4.1618923 c 0.18198,-0.7803389 0.49424,-1.4826136 0.91041,-2.0809208 0.18198,-0.2600453 0.39032,-0.5201922 0.65026,-0.7542838 0.26005,-0.2600454 0.54625,-0.4683858 0.91042,-0.67632074 0.33811,-0.18198109 0.72828,-0.36396218 1.17051,-0.46838587 C 162.36176,0.05170494 162.8561,0 163.40234,0 h 2.18494 c 0.54625,0 1.01444,0.05221184 1.4046,0.18198109 0.39032,0.13027616 0.72833,0.28589787 1.01443,0.46838587 0.2864,0.20783355 0.49424,0.41617404 0.67632,0.67632074 0.15613,0.2600455 0.2859,0.4942385 0.39032,0.7542838 0.20784,0.5983072 0.26005,1.3005819 0.18199,2.0809208 l -3.69361,20.9390287 c -0.18198,0.780338 -0.49424,1.482613 -0.91042,2.080869 -0.18198,0.260045 -0.39032,0.520244 -0.65026,0.754335 -0.26005,0.260045 -0.54625,0.468386 -0.91042,0.67627 -0.3381,0.208341 -0.72827,0.363962 -1.17045,0.468386 -0.44203,0.129769 -0.93642,0.181981 -1.48267,0.181981 h -2.18493 c -0.54625,0 -1.01444,-0.05221 -1.40461,-0.181981 -0.39032,-0.130277 -0.72833,-0.286405 -1.01443,-0.468386 -0.2864,-0.181981 -0.49424,-0.416174 -0.67631,-0.67627 -0.18198,-0.260045 -0.2859,-0.494239 -0.39032,-0.754335 -0.20784,-0.598256 -0.26005,-1.300531 -0.18199,-2.080869 z m -0.18198,20.9390287 c -0.0254,0.156128 0,0.312257 0.0254,0.442025 0.0522,0.103918 0.10391,0.208342 0.20783,0.312259 0.10392,0.103916 0.26005,0.130275 0.46839,0.130275 h 2.18493 c 0.20784,0 0.39032,-0.05221 0.5202,-0.130275 0.13027,-0.103917 0.23419,-0.181982 0.31225,-0.312259 0.0781,-0.130275 0.15613,-0.285897 0.18198,-0.442025 l 3.69361,-20.9130241 c 0.0254,-0.1561287 0,-0.3122573 -0.0253,-0.4420266 -0.0522,-0.1039167 -0.10392,-0.2078335 -0.20834,-0.3122572 -0.10392,-0.1039168 -0.26005,-0.1297692 -0.46839,-0.1297692 h -2.18494 c -0.20783,0 -0.39032,0.052212 -0.52024,0.1297692 -0.13028,0.1039168 -0.23419,0.1819811 -0.31226,0.3122572 -0.0781,0.1302762 -0.15613,0.2858979 -0.18198,0.4420266 z M 145.40269,1.0138222e-4 h 6.89297 c 0.54625,0 1.01444,0.0522118378 1.40461,0.18198109778 0.39032,0.13027615 0.72833,0.28589786 1.01443,0.46838586 0.2859,0.20783356 0.49424,0.41617396 0.67631,0.67632076 0.15613,0.2600455 0.2859,0.4942384 0.39032,0.7542838 0.20835,0.5983072 0.26005,1.3005819 0.18199,2.0809208 l -3.71957,20.9390283 c -0.18198,0.780338 -0.49423,1.482614 -0.9104,2.08087 -0.18198,0.260045 -0.39032,0.520243 -0.65027,0.754334 -0.26004,0.260045 -0.54625,0.468386 -0.91041,0.67627 -0.33811,0.208341 -0.72828,0.363962 -1.17051,0.468386 -0.44203,0.12977 -0.93637,0.181982 -1.48261,0.181982 h -6.86698 z M 144.33624,25.959273 h 3.35545 c 0.20784,0 0.39032,-0.05221 0.52019,-0.130276 0.13028,-0.103917 0.2342,-0.181981 0.31226,-0.312258 0.0781,-0.130275 0.15613,-0.286404 0.18198,-0.442026 l 3.69356,-20.9130235 c 0.0254,-0.1561285 0,-0.3122572 -0.0253,-0.4420264 -0.0522,-0.1039168 -0.10392,-0.2083405 -0.20784,-0.3122573 -0.10392,-0.1039167 -0.26004,-0.1297692 -0.46839,-0.1297692 h -3.35544 z m -18.41592,3.303439 5.15022,-29.26261061778 h 3.51152 L 129.43184,29.262712 Z M 132.52714,11.705135 134.58206,1.0138222e-4 136.45484,17.557677 134.39998,29.262712 Z m 1.87284,17.557577 5.15022,-29.26261061778 h 3.51147 L 137.91145,29.262712 Z M 121.99262,13.239808 h 4.39588 l -0.57225,3.303388 h -4.39588 l -1.6647,9.442081 h 4.39589 l -0.57225,3.303439 H 115.6719 L 120.82211,1.0138222e-4 h 7.90741 L 128.15727,3.3035397 h -4.39588 z M 109.8454,1.0138222e-4 h 8.63569 L 117.90884,3.3035397 h -2.34096 l -4.57802,25.9591723 h -3.9537 l 4.57801,-25.9591723 h -2.34102 z M 90.362989,29.262712 95.513206,1.0138222e-4 h 3.511526 L 93.874514,29.262712 Z M 96.969866,11.705135 99.024732,1.0138222e-4 100.89752,17.557677 98.842649,29.262712 Z M 98.842649,29.262712 103.99287,1.0138222e-4 h 3.51152 L 102.35417,29.262712 Z M 89.660714,1.0138222e-4 h 3.511475 L 88.021972,29.262712 H 84.510498 Z M 70.152291,29.262712 75.302508,1.0138222e-4 h 3.511525 L 73.663816,29.262712 Z M 76.759168,11.705135 78.814033,1.0138222e-4 80.686817,17.557677 78.631951,29.262712 Z M 78.657955,29.262712 83.808172,1.0138222e-4 h 3.511525 L 82.169481,29.262712 Z M 54.70164,1.0138222e-4 h 6.580872 c 0.546197,0 1.014431,0.0522118378 1.404601,0.18198109778 0.39032,0.13027615 0.728279,0.28589786 1.01443,0.46838586 0.285897,0.20783356 0.494238,0.41617396 0.67627,0.67632076 0.156129,0.2600455 0.286404,0.4942384 0.390321,0.7542838 0.207834,0.5983072 0.260045,1.3005819 0.181982,2.0809208 l -1.45661,8.1935083 c -0.103916,0.546247 -0.312257,1.014431 -0.676321,1.430655 -0.363962,0.416174 -0.780339,0.780339 -1.248522,1.092444 0.363962,0.312257 0.650266,0.67627 0.858353,1.092495 0.208341,0.416174 0.260046,0.884357 0.181981,1.430605 l -2.08087,11.861112 h -3.511526 l 2.080871,-11.861112 c 0.02535,-0.156129 0,-0.312258 -0.02535,-0.442026 -0.05221,-0.103917 -0.103917,-0.208341 -0.208341,-0.312257 -0.103916,-0.103917 -0.260045,-0.130277 -0.468385,-0.130277 H 55.326053 L 53.089106,29.236656 H 49.57758 Z M 55.872148,13.239808 h 2.341017 0.72833 c 0.208341,0 0.390322,-0.05221 0.520193,-0.130275 0.130276,-0.103917 0.234192,-0.181982 0.312257,-0.312257 0.07806,-0.130277 0.156129,-0.286406 0.181981,-0.442027 l 1.456609,-8.1935088 c 0.02535,-0.1561285 0,-0.3122572 -0.02535,-0.4420264 C 61.334977,3.615797 61.283272,3.5113732 61.178848,3.4074565 61.074932,3.3035397 60.918803,3.2776873 60.710463,3.2776873 h -3.095351 z m -10.248424,0 h 4.395933 l -0.572252,3.303388 h -4.395883 l -1.664746,9.442081 h 4.395882 l -0.572252,3.303439 H 39.303049 L 44.453266,0.02610592 h 7.907357 L 51.788422,3.3295443 H 47.392488 Z M 31.135495,1.0138222e-4 h 6.580872 c 0.546196,0 1.01443,0.0522118378 1.4046,0.18198109778 0.390321,0.13027615 0.728279,0.28589786 1.01443,0.46838586 0.285898,0.20783356 0.494238,0.41617396 0.676271,0.67632076 0.156128,0.2600455 0.285897,0.4942384 0.390321,0.7542838 0.207833,0.5983072 0.260045,1.3005819 0.181981,2.0809208 l -1.456609,8.1935083 c -0.181982,0.780339 -0.494239,1.482665 -0.910413,2.080921 -0.18198,0.260046 -0.390321,0.520192 -0.650265,0.754334 -0.260045,0.260046 -0.546248,0.468386 -0.910413,0.676271 -0.338109,0.207833 -0.728279,0.363962 -1.170508,0.468385 -0.442026,0.130277 -0.936366,0.181982 -1.482614,0.181982 h -3.069347 l 0.572253,-3.303388 h 3.069347 c 0.207833,0 0.390321,-0.05221 0.520191,-0.130276 0.130277,-0.103917 0.234194,-0.181982 0.312258,-0.312257 0.07806,-0.12977 0.156128,-0.285899 0.181981,-0.442027 L 37.84644,4.1359385 c 0.02535,-0.1561287 0,-0.3122573 -0.02535,-0.4420265 C 37.76888,3.5899952 37.717174,3.4855715 37.613257,3.3816548 37.509344,3.277738 37.353216,3.2513786 37.144875,3.2513786 H 34.075528 L 29.497563,29.26261 h -3.511525 z m -13.317721,0 h 3.511525 L 16.907412,25.100921 c -0.02535,0.156128 0,0.312257 0.02535,0.442025 0.05221,0.103918 0.103917,0.208342 0.207833,0.312259 0.103917,0.103916 0.260046,0.130275 0.468386,0.130275 h 2.184938 c 0.207835,0 0.390322,-0.05221 0.520244,-0.130275 0.129769,-0.103917 0.234192,-0.181982 0.312257,-0.312259 0.07806,-0.130275 0.156129,-0.285897 0.181981,-0.442025 L 25.230335,1.0138222e-4 h 3.511474 L 24.319923,25.100921 c -0.181982,0.780338 -0.494239,1.482613 -0.910413,2.080869 -0.181981,0.260045 -0.390321,0.520244 -0.650265,0.754335 -0.260046,0.260045 -0.546248,0.468386 -0.910413,0.67627 -0.338109,0.208341 -0.728279,0.363962 -1.170458,0.468386 -0.442026,0.129769 -0.936416,0.181981 -1.482664,0.181981 h -2.184939 c -0.546247,0 -1.014431,-0.05221 -1.4046,-0.181981 -0.390322,-0.130277 -0.72833,-0.286405 -1.01443,-0.468386 C 14.305843,28.430414 14.097502,28.196221 13.91542,27.936125 13.733438,27.67608 13.629521,27.441886 13.525098,27.18179 13.317264,26.583534 13.265052,25.881259 13.343117,25.100921 Z M 6.7370007,7.3092527 c -0.078064,0.4683859 -0.052212,0.9624214 0.052212,1.4826137 0.1302762,0.5202428 0.2858978,0.9884259 0.4420265,1.4045996 0.2078336,0.494239 0.4683859,0.988427 0.7542838,1.482665 l 3.069346,5.878546 c 0.181982,0.363962 0.33811,0.754284 0.442027,1.170509 0.103917,0.363962 0.181982,0.806343 0.234193,1.300531 0.05221,0.494238 0.02535,1.040435 -0.07806,1.638691 l -0.598257,3.433513 C 10.872792,25.881259 10.560533,26.583534 10.14436,27.18179 9.9623739,27.441835 9.7540335,27.702034 9.4940894,27.936125 9.234044,28.19617 8.947842,28.404511 8.5836771,28.612395 8.2455674,28.820736 7.8553979,28.976357 7.4132193,29.080781 6.9711928,29.21055 6.4768024,29.262762 5.930555,29.262762 H 3.745616 c -0.5462474,0 -1.0144305,-0.05221 -1.4046,-0.181981 C 1.9506953,28.950504 1.612687,28.794376 1.3265863,28.612395 1.0406885,28.430414 0.83234805,28.196221 0.65026557,27.936125 0.46828449,27.67608 0.36436771,27.441886 0.25994402,27.18179 0.05211046,26.583534 -1.0138223e-4,25.881259 0.07796293,25.100921 L 1.1964116,18.728186 h 3.5115253 l -1.1184993,6.372735 c -0.025346,0.156128 0,0.312257 0.025346,0.442025 0.052212,0.103918 0.1039167,0.208342 0.2078335,0.312259 0.1039168,0.103916 0.2600455,0.130275 0.4683859,0.130275 h 2.1849389 c 0.2078336,0 0.3903216,-0.05221 0.5201923,-0.130275 0.1302757,-0.103917 0.2341924,-0.181982 0.3122567,-0.312259 0.078064,-0.130275 0.1561287,-0.285897 0.1819812,-0.442025 L 8.0366194,21.95356 C 8.1146838,21.485174 8.0888313,20.991138 7.9844077,20.470896 7.8546384,19.950704 7.6985098,19.482469 7.5423811,19.066295 7.3345476,18.572058 7.0739952,18.07787 6.7880467,17.583682 L 3.7707597,11.705135 C 3.5887786,11.341173 3.4326499,10.9508 3.3287332,10.534627 3.2248164,10.170664 3.1467521,9.7282832 3.0945402,9.2340956 3.0423285,8.7398573 3.0691947,8.1936098 3.1726046,7.5953534 L 3.7708611,4.1618923 C 3.9528422,3.3815534 4.2650994,2.6792787 4.6812735,2.0809715 4.8632545,1.8209262 5.071595,1.5607793 5.331539,1.3266877 5.5915844,1.0666423 5.8777865,0.8583019 6.2419514,0.65036696 6.5800611,0.46838587 6.9702306,0.28640478 7.4124599,0.18198109 7.8544863,0.05170494 8.348826,0 8.8950735,0 h 2.1849385 c 0.546248,0 1.01443,0.05221184 1.4046,0.18198109 0.390322,0.13027616 0.728331,0.28589787 1.014431,0.46838587 0.285898,0.20783355 0.494239,0.41617404 0.676321,0.67632074 0.156129,0.2600455 0.285897,0.4942385 0.390321,0.7542838 0.207833,0.5983072 0.260045,1.3005819 0.181982,2.0809208 l -1.1185,6.3727347 h -3.511525 l 1.118499,-6.3727347 c 0.02535,-0.1561286 0,-0.3122572 -0.02534,-0.4420265 C 11.158591,3.6159491 11.106884,3.5115253 11.002967,3.4076086 10.899046,3.3036918 10.742917,3.2778394 10.534577,3.2778394 H 8.3496371 c -0.2078335,0 -0.3903216,0.052212 -0.5201922,0.1297692 C 7.6991687,3.5115253 7.595252,3.5895896 7.5171877,3.7198658 7.4391234,3.8496351 7.361059,4.0057637 7.3352066,4.1618923 Z M 158.27823,4.1618923 c 0.18198,-0.7803389 0.49424,-1.4826136 0.91041,-2.0809208 0.18198,-0.2600453 0.39032,-0.5201922 0.65027,-0.7542838 0.26004,-0.2600454 0.54624,-0.4683858 0.91041,-0.67632074 0.33811,-0.18198109 0.72828,-0.36396218 1.17051,-0.46838587 C 162.36186,0.05170494 162.8562,0 163.40244,0 h 2.18494 c 0.54625,0 1.01444,0.05221184 1.4046,0.18198109 0.39032,0.13027616 0.72833,0.28589787 1.01443,0.46838587 0.28641,0.20783355 0.49424,0.41617404 0.67632,0.67632074 0.15613,0.2600455 0.2859,0.4942385 0.39033,0.7542838 0.20783,0.5983072 0.26004,1.3005819 0.18198,2.0809208 l -3.69361,20.9390287 c -0.18198,0.780338 -0.49424,1.482613 -0.91042,2.080869 -0.18198,0.260045 -0.39032,0.520244 -0.65026,0.754335 -0.26005,0.260045 -0.54625,0.468386 -0.91042,0.67627 -0.3381,0.208341 -0.72827,0.363962 -1.17045,0.468386 -0.44203,0.129769 -0.93642,0.181981 -1.48267,0.181981 h -2.18493 c -0.54625,0 -1.01443,-0.05221 -1.4046,-0.181981 -0.39033,-0.130277 -0.72834,-0.286405 -1.01444,-0.468386 -0.2864,-0.181981 -0.49424,-0.416174 -0.67631,-0.67627 -0.18198,-0.260045 -0.2859,-0.494239 -0.39032,-0.754335 -0.20784,-0.598256 -0.26005,-1.300531 -0.18198,-2.080869 z m -0.18198,20.9390287 c -0.0253,0.156128 0,0.312257 0.0254,0.442025 0.0522,0.103918 0.10391,0.208342 0.20783,0.312259 0.10392,0.103916 0.26005,0.130275 0.46839,0.130275 h 2.18493 c 0.20784,0 0.39033,-0.05221 0.5202,-0.130275 0.13027,-0.103917 0.23419,-0.181982 0.31225,-0.312259 0.0781,-0.130275 0.15613,-0.285897 0.18199,-0.442025 l 3.6936,-20.9130241 c 0.0253,-0.1561287 0,-0.3122573 -0.0253,-0.4420266 -0.0522,-0.1039167 -0.10392,-0.2078335 -0.20834,-0.3122572 -0.10392,-0.1039168 -0.26005,-0.1297692 -0.46839,-0.1297692 h -2.18493 c -0.20784,0 -0.39033,0.052212 -0.52025,0.1297692 -0.13028,0.1039168 -0.23419,0.1819811 -0.31226,0.3122572 -0.0781,0.1302762 -0.15613,0.2858979 -0.18198,0.4420266 z M 145.40279,1.0138222e-4 h 6.89297 c 0.54625,0 1.01444,0.0522118378 1.40461,0.18198109778 0.39032,0.13027615 0.72833,0.28589786 1.01443,0.46838586 0.2859,0.20783356 0.49424,0.41617396 0.67631,0.67632076 0.15613,0.2600455 0.2859,0.4942384 0.39033,0.7542838 0.20834,0.5983072 0.26004,1.3005819 0.18198,2.0809208 l -3.71956,20.9390283 c -0.18199,0.780338 -0.49424,1.482614 -0.91041,2.08087 -0.18198,0.260045 -0.39032,0.520243 -0.65027,0.754334 -0.26004,0.260045 -0.54624,0.468386 -0.91041,0.67627 -0.33811,0.208341 -0.72828,0.363962 -1.17051,0.468386 -0.44203,0.12977 -0.93637,0.181982 -1.48261,0.181982 h -6.86698 z M 144.33635,25.959273 h 3.35544 c 0.20784,0 0.39033,-0.05221 0.5202,-0.130276 0.13027,-0.103917 0.23419,-0.181981 0.31225,-0.312258 0.0781,-0.130275 0.15613,-0.286404 0.18199,-0.442026 l 3.69355,-20.9130235 c 0.0254,-0.1561285 0,-0.3122572 -0.0253,-0.4420264 -0.0522,-0.1039168 -0.10392,-0.2083405 -0.20784,-0.3122573 -0.10391,-0.1039167 -0.26004,-0.1297692 -0.46838,-0.1297692 h -3.35545 z m -18.41593,3.303439 5.15022,-29.26261061778 h 3.51152 L 129.43194,29.262712 Z M 132.52724,11.705135 134.58216,1.0138222e-4 136.45494,17.557677 134.40008,29.262712 Z m 1.87284,17.557577 5.15022,-29.26261061778 h 3.51148 L 137.91156,29.262712 Z M 121.99272,13.239808 h 4.39588 l -0.57225,3.303388 h -4.39588 l -1.66469,9.442081 h 4.39588 l -0.57225,3.303439 H 115.672 L 120.82221,1.0138222e-4 h 7.90741 L 128.15737,3.3035397 h -4.39588 z M 109.84551,1.0138222e-4 h 8.63569 L 117.90894,3.3035397 h -2.34096 l -4.57802,25.9591723 h -3.9537 l 4.57802,-25.9591723 h -2.34103 z M 90.36309,29.262712 95.513307,1.0138222e-4 h 3.511526 L 93.874616,29.262712 Z M 96.969967,11.705135 99.024833,1.0138222e-4 100.89762,17.557677 98.84275,29.262712 Z M 98.84275,29.262712 103.99297,1.0138222e-4 h 3.51152 L 102.35427,29.262712 Z M 89.660816,1.0138222e-4 H 93.17229 L 88.022073,29.262712 H 84.510599 Z M 70.152392,29.262712 75.302609,1.0138222e-4 h 3.511525 L 73.663918,29.262712 Z M 76.759269,11.705135 78.814134,1.0138222e-4 80.686918,17.557677 78.632052,29.262712 Z M 78.658057,29.262712 83.808273,1.0138222e-4 h 3.511526 L 82.169582,29.262712 Z M 54.701741,1.0138222e-4 h 6.580872 c 0.546198,0 1.014432,0.0522118378 1.404601,0.18198109778 0.390321,0.13027615 0.728279,0.28589786 1.01443,0.46838586 0.285898,0.20783356 0.494239,0.41617396 0.67627,0.67632076 0.156129,0.2600455 0.286405,0.4942384 0.390322,0.7542838 0.207834,0.5983072 0.260045,1.3005819 0.181981,2.0809208 l -1.45661,8.1935083 c -0.103916,0.546247 -0.312257,1.014431 -0.67632,1.430655 -0.363962,0.416174 -0.780339,0.780339 -1.248523,1.092444 0.363963,0.312257 0.650267,0.67627 0.858353,1.092495 0.208341,0.416174 0.260046,0.884357 0.181982,1.430605 l -2.080871,11.861112 h -3.511525 l 2.08087,-11.861112 c 0.02535,-0.156129 0,-0.312258 -0.02535,-0.442026 -0.05221,-0.103917 -0.103917,-0.208341 -0.208341,-0.312257 -0.103916,-0.103917 -0.260045,-0.130277 -0.468385,-0.130277 H 55.326155 L 53.089207,29.236656 H 49.577681 Z M 55.87225,13.239808 h 2.341017 0.728329 c 0.208341,0 0.390322,-0.05221 0.520193,-0.130275 0.130276,-0.103917 0.234192,-0.181982 0.312257,-0.312257 0.07807,-0.130277 0.156129,-0.286406 0.181982,-0.442027 l 1.456608,-8.1935088 c 0.02535,-0.1561285 0,-0.3122572 -0.02534,-0.4420264 C 61.335079,3.615797 61.283374,3.5113732 61.17895,3.4074565 61.075034,3.3035397 60.918905,3.2776873 60.710565,3.2776873 h -3.095352 z m -10.248425,0 h 4.395934 l -0.572253,3.303388 h -4.395883 l -1.664746,9.442081 h 4.395882 l -0.572251,3.303439 H 39.30315 L 44.453367,0.02610592 h 7.907357 L 51.788523,3.3295443 H 47.39259 Z M 31.135596,1.0138222e-4 h 6.580872 c 0.546196,0 1.014431,0.0522118378 1.4046,0.18198109778 0.390322,0.13027615 0.728279,0.28589786 1.01443,0.46838586 0.285899,0.20783356 0.494239,0.41617396 0.676271,0.67632076 0.156128,0.2600455 0.285898,0.4942384 0.390322,0.7542838 0.207833,0.5983072 0.260045,1.3005819 0.18198,2.0809208 l -1.456609,8.1935083 c -0.181981,0.780339 -0.494238,1.482665 -0.910412,2.080921 -0.181981,0.260046 -0.390322,0.520192 -0.650266,0.754334 -0.260045,0.260046 -0.546248,0.468386 -0.910412,0.676271 -0.33811,0.207833 -0.72828,0.363962 -1.170509,0.468385 -0.442026,0.130277 -0.936366,0.181982 -1.482613,0.181982 h -3.069347 l 0.572252,-3.303388 h 3.069347 c 0.207833,0 0.390322,-0.05221 0.520192,-0.130276 0.130276,-0.103917 0.234193,-0.181982 0.312258,-0.312257 0.07806,-0.12977 0.156128,-0.285899 0.18198,-0.442027 l 1.456609,-8.1935085 c 0.02535,-0.1561287 0,-0.3122573 -0.02535,-0.4420265 C 37.768981,3.5899952 37.717279,3.4855715 37.613362,3.3816548 37.509445,3.277738 37.353317,3.2513786 37.144976,3.2513786 H 34.075629 L 29.497665,29.26261 h -3.511526 z m -13.317721,0 H 21.3294 L 16.907513,25.100921 c -0.02535,0.156128 0,0.312257 0.02535,0.442025 0.05221,0.103918 0.103917,0.208342 0.207833,0.312259 0.103917,0.103916 0.260046,0.130275 0.468386,0.130275 h 2.184939 c 0.207834,0 0.390321,-0.05221 0.520243,-0.130275 0.12977,-0.103917 0.234193,-0.181982 0.312257,-0.312259 0.07807,-0.130275 0.156129,-0.285897 0.181982,-0.442025 L 25.230436,1.0138222e-4 h 3.511475 L 24.320024,25.100921 c -0.181981,0.780338 -0.494238,1.482613 -0.910412,2.080869 -0.181982,0.260045 -0.390322,0.520244 -0.650266,0.754335 -0.260046,0.260045 -0.546248,0.468386 -0.910412,0.67627 -0.33811,0.208341 -0.72828,0.363962 -1.170458,0.468386 -0.442027,0.129769 -0.936417,0.181981 -1.482664,0.181981 h -2.184939 c -0.546248,0 -1.014431,-0.05221 -1.404601,-0.181981 -0.390321,-0.130277 -0.72833,-0.286405 -1.01443,-0.468386 -0.285898,-0.181981 -0.494239,-0.416174 -0.676321,-0.67627 C 13.73354,27.67608 13.629623,27.441886 13.5252,27.18179 13.317366,26.583534 13.265154,25.881259 13.343218,25.100921 Z M 6.7371021,7.3092527 c -0.078064,0.4683859 -0.052212,0.9624214 0.052212,1.4826137 0.1302762,0.5202428 0.2858978,0.9884259 0.4420265,1.4045996 0.2078336,0.494239 0.4683858,0.988427 0.7542838,1.482665 l 3.0693466,5.878546 c 0.181981,0.363962 0.338109,0.754284 0.442027,1.170509 0.103917,0.363962 0.181981,0.806343 0.234192,1.300531 0.05221,0.494238 0.02535,1.040435 -0.07806,1.638691 l -0.598258,3.433513 c -0.18198,0.780338 -0.494238,1.482613 -0.910411,2.080869 -0.1819817,0.260045 -0.3903221,0.520244 -0.6502662,0.754335 -0.2600454,0.260045 -0.5462474,0.468386 -0.9104124,0.67627 -0.3381097,0.208341 -0.7282792,0.363962 -1.1704577,0.468386 -0.4420265,0.129769 -0.9364169,0.181981 -1.4826644,0.181981 h -2.184942 c -0.5462474,0 -1.0144305,-0.05221 -1.4046,-0.181981 C 1.9507967,28.950504 1.6127884,28.794376 1.3266877,28.612395 1.0407899,28.430414 0.83244943,28.196221 0.65036696,27.936125 0.46838587,27.67608 0.36446909,27.441886 0.2600454,27.18179 0.05221184,26.583534 0,25.881259 0.07806432,25.100921 L 1.196513,18.728186 h 3.5115253 l -1.1184994,6.372735 c -0.025346,0.156128 0,0.312257 0.025346,0.442025 0.052212,0.103918 0.1039167,0.208342 0.2078335,0.312259 0.1039168,0.103916 0.2600454,0.130275 0.4683859,0.130275 h 2.1849389 c 0.2078336,0 0.3903216,-0.05221 0.5201923,-0.130275 0.1302761,-0.103917 0.2341928,-0.181982 0.3122571,-0.312259 0.078064,-0.130275 0.1561287,-0.285897 0.1819812,-0.442025 L 8.0367208,21.95356 C 8.1147851,21.485174 8.0889327,20.991138 7.9845091,20.470896 7.8547398,19.950704 7.6986111,19.482469 7.5424825,19.066295 7.334649,18.572058 7.0740966,18.07787 6.7881481,17.583682 L 3.7708611,11.705135 C 3.58888,11.341173 3.4327513,10.9508 3.3288346,10.534627 3.2249178,10.170664 3.1468535,9.7282832 3.0946416,9.2340956 3.0424298,8.7398573 3.0692961,8.1936098 3.1727059,7.5953534 L 3.7709625,4.1618923 C 3.9529436,3.3815534 4.2652008,2.6792787 4.6813748,2.0809715 4.8633559,1.8209262 5.0716964,1.5607793 5.3316404,1.3266877 5.5916858,1.0666423 5.8778879,0.8583019 6.2420527,0.65036696 6.5801624,0.46838587 6.9703319,0.28640478 7.4125612,0.18198109 7.8545877,0.05170494 8.3489274,0 8.8951748,0 h 2.1849392 c 0.546248,0 1.01443,0.05221184 1.404599,0.18198109 0.390322,0.13027616 0.728331,0.28589787 1.014432,0.46838587 0.285897,0.20783355 0.494238,0.41617404 0.67632,0.67632074 0.156129,0.2600455 0.285898,0.4942385 0.390322,0.7542838 0.207833,0.5983072 0.260045,1.3005819 0.181981,2.0809208 l -1.1185,6.3727347 h -3.511525 l 1.1185,-6.3727347 c 0.02534,-0.1561286 0,-0.3122572 -0.02535,-0.4420265 C 11.158683,3.6159491 11.106976,3.5115253 11.003059,3.4076086 10.899147,3.3036918 10.743018,3.2778394 10.534678,3.2778394 H 8.3497385 c -0.2078335,0 -0.3903216,0.052212 -0.5201922,0.1297692 C 7.6992701,3.5115253 7.5953534,3.5895896 7.5172891,3.7198658 7.4392247,3.8496351 7.3611604,4.0057637 7.335308,4.1618923 Z"
         style="fill:#fc0c18;stroke-width:0" /></svg>
