<?xml version="1.0" encoding="UTF-8" standalone="no"?>
<svg xmlns="http://www.w3.org/2000/svg" xmlns:svg="http://www.w3.org/2000/svg" id="svggbcicon" width="128" height="128" version="1.1">
  <g id="gbcicon">
    <path id="gbcicon05" fill="#4e4ba8" d="m 45.650253,77.635122 c 0,0 -2.105849,3.65651 -6.729405,3.224584 -5.428424,-0.553893 -6.068108,-5.298796 -6.068108,-5.298796 0,0 -0.742782,-3.491737 2.600579,-6.532076 3.385213,-2.834856 6.914825,-2.403674 6.914825,-2.403674 0,0 2.373584,0.226141 3.59225,4.128926 1.568162,4.971238 -0.310141,6.881036 -0.310141,6.881036 z m 8.194466,-9.838935 c -0.680979,-2.053636 -2.477242,-4.005249 -2.477242,-4.005249 0,0 -2.703126,-3.492482 -8.008215,-4.682901 -4.54124,-0.945494 -8.112426,1.04727 -8.112426,1.04727 0,0 -3.239704,1.293851 -5.676203,3.964237 -3.880273,3.717465 -4.995393,9.140571 -4.995393,9.140571 0,0 -1.485401,4.72441 0.867201,8.463113 l 2.559475,3.080828 c 3.612205,2.999501 7.472467,3.307099 7.472467,3.307099 0,0 3.116923,0.698587 6.749638,-0.24608 3.178176,-0.636852 5.490785,-2.198545 5.490785,-2.198545 0,0 5.263238,-2.895536 6.708065,-8.811441 l -0.578152,-9.058902"/>
    <path id="gbcicon04" fill="#daac06" d="m 90.544371,78.703907 c -5.841392,3.491766 -9.515402,-0.329352 -9.515402,-0.329352 0,0 -1.630523,-1.067708 -1.981683,-4.313169 -0.247502,-3.759168 3.508826,-5.71023 3.508826,-5.71023 0,0 1.982236,-1.21218 4.458924,-1.027411 2.477518,0.184768 3.260768,0.02035 5.263237,1.499634 1.898259,1.70509 1.775478,2.957566 1.775478,2.957566 0,0 0.680423,4.232054 -3.50938,6.922962 z m 9.886239,-11.996003 c -3.610542,-5.874367 -9.968001,-6.757803 -9.968001,-6.757803 0,0 -2.023534,-0.67823 -6.357736,-0.103431 -8.132382,1.540704 -10.960784,7.76475 -10.960784,7.76475 0,0 -2.910717,4.560107 -1.754413,10.085457 l 3.550401,6.983945 c 2.621086,2.443971 3.693966,2.443971 3.859707,2.588774 3.467806,1.560832 7.492423,0.656677 7.492423,0.656677 0,0 5.077819,-0.492805 9.722162,-4.08757 3.715308,-2.711264 5.326151,-6.695937 5.326151,-6.695937 l -0.90991,-10.434862"/>
    <path id="gbcicon03" fill="#00938a" d="m 109.18438,68.022329 -0.39302,-5.361047 c 0,0 3.77685,-0.08241 5.34612,0.184768 3.09696,0.472444 2.93012,1.335442 2.93012,1.335442 0,0 -0.10228,1.088174 -2.45535,2.157068 -2.55983,1.231791 -5.42787,1.683769 -5.42787,1.683769 z m -7.84386,9.120767 c 0,0 0.12277,3.285731 -0.393,4.087222 -0.70204,1.499111 -0.59867,2.957899 -0.59867,2.957899 0,0 -0.474773,4.436751 4.68619,5.176496 3.55013,-0.02101 3.98359,-2.958666 4.04485,-4.211144 0.20676,-0.985819 0.1239,-5.566832 0.1239,-5.566832 l 4.60304,3.738701 c 0,0 3.34475,2.793484 5.30481,4.416599 2.0457,1.601667 2.55901,1.889334 2.55901,1.889334 0,0 0.43514,0.513275 2.00162,0.3285 1.26136,0.02155 2.41657,-1.109079 2.41657,-1.109079 0,0 1.46477,-1.067598 1.83505,-2.937104 0.45482,-2.218381 -1.27743,-3.306997 -1.27743,-3.306997 0,0 -6.39847,-5.13543 -10.73349,-8.668871 2.90903,-1.581 4.3134,-2.670249 4.3134,-2.670249 0,0 4.04679,-2.669808 4.91291,-6.757473 1.19871,-4.498766 -2.2084,-6.265087 -2.2084,-6.265087 0,0 -2.12635,-1.520293 -3.92317,-2.321811 -4.5199,-2.19742 -8.72995,-1.745911 -8.72995,-1.745911 0,0 -5.98633,-0.410413 -9.88789,4.375808 -1.794879,2.320709 -0.680426,5.361213 -0.680426,5.361213 0,0 0.222558,0.487503 0.721166,2.793594 1.00471,4.638328 0.90991,10.435192 0.90991,10.435192"/>
    <path id="gbcicon02" fill="#6eb122" d="m 71.389676,77.697401 c -1.739445,-0.38032 -4.52073,0.328304 -4.52073,0.328304 0,0 -3.879663,1.417084 -4.479434,1.396617 -0.226161,-0.327833 -0.72172,-6.634652 -0.577045,-9.161146 0.08288,-4.457228 -0.289076,-8.093245 -0.289076,-8.093245 0,0 -0.185695,-4.293064 -2.498304,-6.839941 -2.724469,-2.731673 -4.623279,-1.561114 -5.716947,-0.904122 -2.622195,2.341946 -1.404084,5.196358 -1.404084,5.196358 l 1.362511,3.842106 c 0,0 0.661022,1.643031 0.578152,4.333855 l 0.578152,9.058902 c 0,1.211988 0.990564,9.366409 0.990564,9.366409 0,0 0.102826,2.650303 2.662937,3.122206 2.621088,0.430854 5.200879,-0.862461 6.295378,-1.375198 1.093665,-0.514135 2.539324,-0.9659 2.539324,-0.9659 0,0 1.196492,-0.266768 2.393263,-0.370199 2.807892,-0.267182 3.819243,-0.759567 3.819243,-0.759567 0,0 1.087291,-0.162676 1.816497,-1.192018 0.729203,-1.029149 1.612784,-5.854177 -3.550401,-6.983421"/>
    <path id="gbcicon01" fill="#b80a41" d="m 25.442441,81.722152 c -1.843768,-0.548403 -3.962506,-0.184878 -3.962506,-0.184878 0,0 -5.986511,0.574908 -9.102934,-0.08189 -4.830234,-0.842091 -4.6656573,-6.018261 -4.6656573,-6.018261 0,0 -0.1645767,-3.430561 2.7461413,-8.072558 3.591142,-5.731164 7.554173,-6.758299 7.554173,-6.758299 0,0 0.991173,-0.369041 1.920098,0.123289 0.57757,3.327489 3.817941,3.307024 3.817941,3.307024 0,0 4.665739,0.308692 4.437915,-5.319096 -0.536579,-4.622662 -5.01604,-5.259519 -6.894427,-5.690344 -5.634657,-1.006725 -9.288076,1.992215 -9.288076,1.992215 0,0 -3.7773637,2.034136 -8.2974292,9.120132 -3.07633899,4.395694 -3.44714533,7.846611 -3.44714533,7.846611 0,0 -0.37134902,0.822259 -0.22735663,4.47877 -0.08174011,2.854687 0.99116536,4.928789 0.99116536,4.928789 0,0 1.6310134,4.910586 6.7909349,6.923177 3.1369619,1.294174 7.7198309,1.273488 7.7198309,1.273488 0,0 4.437778,-0.0613 7.84325,-0.246617 1.857821,0.143727 2.745586,-0.821626 2.745586,-0.821626 0,0 2.084177,-1.355362 1.877971,-3.718022 0,0 -0.403931,-2.439888 -2.559475,-3.081904"/>
    <path id="gbcicon00" fill="#2e3192" d="m 53.003543,38.436516 -2.100861,13.084949 c 0,0 4.352774,0 6.123262,0 2.521587,0 6.209179,-3.698682 2.852235,-6.72134 3.451732,-3.554982 0.02938,-6.332993 -1.801528,-6.363609 -1.470602,-0.02427 -5.102487,0 -5.102487,0 z m 1.50109,7.916724 c 0,0 0.570393,0 2.281013,0 2.162113,0 2.101969,2.628794 -0.299885,2.628794 -1.499981,0 -2.401299,0 -2.401299,0 z M 55.3447,41.215079 c 0,0 0.06014,0 1.771875,0 1.920983,0 1.531298,2.449513 -0.299332,2.449513 -1.501645,0 -1.892161,0 -1.892161,0 L 55.3447,41.215079 M 7.7833217,39.537571 c -2.5940362,1.597244 -3.8417756,4.032694 -3.5094072,7.34413 0.3859708,3.841003 5.3845502,6.261281 9.6193365,3.823074 0.370284,-0.213205 0.225746,-0.179278 0.363243,-0.30119 l 0.847164,-5.358261 h -5.052183 l -0.3870514,2.46827 H 11.775594 L 11.533081,48.83861 C 10.323755,49.319908 8.2667415,49.139249 7.3897846,47.573998 6.834387,46.582717 6.3195928,44.370129 8.6608053,42.335991 10.565188,40.680549 13.862957,40.37991 15.768948,41.252865 c 0,0 0.241987,-1.384592 0.422778,-2.679544 -3.659904,-1.263786 -6.5034668,-0.210171 -8.4084043,0.96425 m 58.2161773,9.499351 c 1.440116,0.640994 3.203674,-0.616723 3.938146,-2.809178 0.733636,-2.193282 0.162414,-4.491375 -1.277424,-5.132369 -1.440392,-0.641546 -3.202566,0.616447 -3.937588,2.810005 -0.734472,2.193558 -0.162416,4.489995 1.276866,5.131542 z m -4.119958,-5.215665 c 0.845609,-3.64545 3.976115,-6.037871 6.992428,-5.34392 3.017147,0.69395 4.777657,4.210595 3.932601,7.855768 -0.845055,3.644898 -3.976115,6.037318 -6.992153,5.343643 -3.017421,-0.69395 -4.777932,-4.211145 -3.932876,-7.855491 M 82.16421,38.36315 h -3.176514 l -2.692038,4.304095 -1.693439,-4.304095 h -3.115814 l 3.206446,6.953025 -0.98807,6.231217 h 2.722803 l 0.83591,-5.508305 4.900716,-7.675937 M 46.803787,51.547392 47.257772,48.71808 h -4.749386 l 0.376658,-2.348291 h 4.130214 l 0.454264,-2.829312 h -4.174838 l 0.363356,-2.348015 h 4.748 L 48.860302,38.36315 H 41.3288 l -2.117767,13.184242 h 7.592754 m -25.848929,-6.502068 -0.498026,-2.55791 -1.149237,2.55791 z m 18.044426,6.502068 h -2.721695 l -0.363633,-8.15751 -3.538758,8.15751 h -1.815111 l -1.511898,-7.375023 -2.359616,7.375023 h -4.627797 l -0.696139,-3.942779 h -3.145635 l -1.784764,3.942779 H 13.59065 L 19.428852,38.36315 h 3.357304 l 1.784732,10.65612 3.478699,-10.65612 h 2.691485 l 1.330914,7.224426 3.086159,-7.224426 h 3.266866 l 0.574273,13.184242"/>
  </g>
</svg>
