<?xml version="1.0" encoding="UTF-8" standalone="no"?>
<svg xmlns="http://www.w3.org/2000/svg" xmlns:svg="http://www.w3.org/2000/svg" id="svggbclogo" width="640" height="260" version="1.1">
  <g id="gbclogo">
    <path id="gbcicon05" fill="#4e4ba8" d="m 228.25126,198.17561 c 0,0 -10.52925,18.28255 -33.64702,16.12292 -27.14212,-2.76946 -30.34054,-26.49398 -30.34054,-26.49398 0,0 -3.71392,-17.45868 13.00288,-32.66039 16.92607,-14.17427 34.57414,-12.01836 34.57414,-12.01836 0,0 11.86791,1.1307 17.96125,20.64463 7.8408,24.85619 -1.55071,34.40518 -1.55071,34.40518 z m 40.97233,-49.19468 c -3.4049,-10.26818 -12.38621,-20.02624 -12.38621,-20.02624 0,0 -13.51563,-17.46242 -40.04108,-23.41451 -22.7062,-4.72747 -40.56213,5.23636 -40.56213,5.23636 0,0 -16.19852,6.46924 -28.38101,19.82118 -19.40137,18.58733 -24.97696,45.70286 -24.97696,45.70286 0,0 -7.42702,23.62204 4.336,42.31556 l 12.79738,15.40414 c 18.06102,14.99751 37.36232,16.53549 37.36232,16.53549 0,0 15.58462,3.49294 33.7482,-1.2304 15.89088,-3.18426 27.45392,-10.99271 27.45392,-10.99271 0,0 26.31619,-14.47769 33.54033,-44.05722 l -2.89076,-45.29451"/>
    <path id="gbcicon04" fill="#daac06" d="m 452.72185,203.51954 c -29.20697,17.45882 -47.57702,-1.64677 -47.57702,-1.64677 0,0 -8.1526,-5.33854 -9.90841,-21.56585 -1.2375,-18.79584 17.54413,-28.55114 17.54413,-28.55114 0,0 9.91118,-6.0609 22.29463,-5.13706 12.38758,0.92385 16.30384,0.10175 26.31619,7.49818 9.49128,8.52544 8.87738,14.78782 8.87738,14.78782 0,0 3.40211,21.16027 -17.5469,34.61482 z m 49.4312,-59.98002 c -18.05272,-29.37183 -49.84,-33.78902 -49.84,-33.78902 0,0 -10.11768,-3.39114 -31.78869,-0.51716 -40.66191,7.70353 -54.80392,38.82375 -54.80392,38.82375 0,0 -14.55359,22.80054 -8.77206,50.42729 l 17.752,34.91973 c 13.10543,12.21985 18.46983,12.21985 19.29854,12.94387 17.33903,7.80416 37.46212,3.28338 37.46212,3.28338 0,0 25.38908,-2.46402 48.6108,-20.43785 18.57654,-13.55631 26.63075,-33.47968 26.63075,-33.47968 l -4.54954,-52.17431"/>
    <path id="gbcicon03" fill="#00938a" d="m 545.92189,150.11165 -1.9651,-26.80524 c 0,0 18.88426,-0.41205 26.7306,0.92383 15.48481,2.36223 14.65061,6.67722 14.65061,6.67722 0,0 -0.5114,5.44086 -12.27675,10.78534 -12.79916,6.15896 -27.13936,8.41885 -27.13936,8.41885 z m -39.2193,45.60383 c 0,0 0.61385,16.42865 -1.965,20.43611 -3.5102,7.49555 -2.99335,14.78949 -2.99335,14.78949 0,0 -2.37386,22.18377 23.43095,25.88248 17.75065,-0.10505 19.91795,-14.79333 20.22425,-21.05572 1.0338,-4.92909 0.6195,-27.83416 0.6195,-27.83416 l 23.01521,18.69351 c 0,0 16.72375,13.96743 26.52405,22.08299 10.22849,8.00834 12.79505,9.44667 12.79505,9.44667 0,0 2.1757,2.56638 10.0081,1.6425 6.3068,0.10775 12.08285,-5.54539 12.08285,-5.54539 0,0 7.32384,-5.33799 9.17525,-14.68552 2.2741,-11.0919 -6.38715,-16.53499 -6.38715,-16.53499 0,0 -31.99235,-25.67714 -53.66745,-43.34436 14.54515,-7.905 21.56699,-13.35123 21.56699,-13.35123 0,0 20.23396,-13.34905 24.56456,-33.78738 5.99355,-22.49382 -11.04201,-31.32543 -11.04201,-31.32543 0,0 -10.63174,-7.601462 -19.61584,-11.609052 -22.5995,-10.9871 -43.64976,-8.729555 -43.64976,-8.729555 0,0 -29.93165,-2.052065 -49.43945,21.879047 -8.97438,11.60354 -3.40213,26.80606 -3.40213,26.80606 0,0 1.1128,2.43751 3.60584,13.96797 5.02354,23.19164 4.54954,52.17596 4.54954,52.17596"/>
    <path id="gbcicon02" fill="#6eb122" d="m 356.94838,198.487 c -8.69724,-1.9016 -22.60366,1.64152 -22.60366,1.64152 0,0 -19.39831,7.08543 -22.39716,6.98309 -1.13082,-1.63917 -3.6086,-33.17327 -2.88523,-45.80574 0.4144,-22.28613 -1.44539,-40.46621 -1.44539,-40.46621 0,0 -0.92846,-21.465326 -12.49151,-34.199712 -13.62235,-13.658364 -23.1164,-7.80557 -28.58474,-4.52061 -13.11097,11.70973 -7.02041,25.981792 -7.02041,25.981792 l 6.81255,19.21053 c 0,0 3.30511,8.21516 2.89076,21.66927 l 2.89076,45.29451 c 0,6.05994 4.95282,46.83205 4.95282,46.83205 0,0 0.51413,13.25151 13.31467,15.61103 13.10545,2.15427 26.00441,-4.31231 31.47691,-6.87599 5.46831,-2.57068 12.69661,-4.82949 12.69661,-4.82949 0,0 5.98247,-1.33385 11.96632,-1.85101 14.03946,-1.33591 19.09621,-3.79783 19.09621,-3.79783 0,0 5.43645,-0.81338 9.08249,-5.96009 3.64602,-5.14575 8.06392,-29.27089 -17.752,-34.91711"/>
    <path id="gbcicon01" fill="#b80a41" d="m 127.2122,218.61076 c -9.21885,-2.74201 -19.81253,-0.92438 -19.81253,-0.92438 0,0 -29.932557,2.87453 -45.514672,-0.40946 -24.15117,-4.21046 -23.328287,-30.09131 -23.328287,-30.09131 0,0 -0.822883,-17.1528 13.730707,-40.36279 17.95571,-28.65581 37.770865,-33.7915 37.770865,-33.7915 0,0 4.955866,-1.8452 9.60049,0.61646 2.887857,16.63744 19.089697,16.53512 19.089697,16.53512 0,0 23.3287,1.54345 22.18959,-26.59548 -2.68291,-23.113317 -25.0802,-26.297602 -34.47214,-28.451727 -28.173287,-5.033626 -46.440382,9.961074 -46.440382,9.961074 0,0 -18.886818,10.17068 -41.487146,45.600663 -15.3816951,21.97846 -17.2357269,39.23306 -17.2357269,39.23306 0,0 -1.85674504,4.11128 -1.13678309,22.39384 -0.40870054,14.27344 4.95582679,24.64395 4.95582679,24.64395 0,0 8.1550662,24.55293 33.9546742,34.61588 15.68481,6.47087 38.599155,6.36744 38.599155,6.36744 0,0 22.18889,-0.3065 39.216252,-1.23308 9.2891,0.71863 13.72793,-4.10813 13.72793,-4.10813 0,0 10.42089,-6.77681 9.38986,-18.59011 0,0 -2.01967,-12.19943 -12.79738,-15.40952"/>
    <path id="gbcicon00" fill="#2e3192" d="M 265.01716,2.1825727 254.51287,67.607169 c 0,0 21.76382,0 30.61623,0 12.60792,0 31.04584,-18.493368 14.26116,-33.606623 17.25862,-17.77487 0.1469,-31.6648937 -9.00762,-31.8179733 -7.35299,-0.1213498 -25.51238,0 -25.51238,0 z m 7.50543,39.5835303 c 0,0 2.85195,0 11.40503,0 10.81055,0 10.50983,13.14394 -1.49941,13.14394 -7.4999,0 -12.00648,0 -12.00648,0 z m 4.20032,-25.690747 c 0,0 0.3007,0 8.85936,0 9.60489,0 7.65647,12.247538 -1.49666,12.247538 -7.50821,0 -9.46079,0 -9.46079,0 l 2.09809,-12.247538 M 38.916562,7.6878352 C 25.946409,15.674036 19.707726,27.85126 21.369564,44.408401 c 1.92985,19.204973 26.92269,31.306335 48.096575,19.115328 1.851416,-1.066023 1.128728,-0.896389 1.81621,-1.505947 l 4.23581,-26.791244 H 50.257302 L 48.322049,47.56786 h 10.555828 l -1.212562,6.625065 c -6.046616,2.406484 -16.33166,1.503192 -20.716435,-6.323046 -2.776982,-4.956394 -5.350947,-16.019308 6.355089,-26.189976 9.521892,-8.27719 26.0107,-9.780382 35.540633,-5.415618 0,0 1.209932,-6.9229436 2.113885,-13.3976889 C 62.659009,-3.4523196 48.441227,1.8157436 38.916562,7.6878352 M 329.99679,55.184483 c 7.20056,3.204961 16.01832,-3.083608 19.69068,-14.045858 3.66818,-10.966386 0.81207,-22.456825 -6.3871,-25.661787 -7.20195,-3.207723 -16.0128,3.082227 -19.6879,14.049992 -3.67236,10.967766 -0.81209,22.449925 6.38432,25.657653 z M 309.39705,29.106217 c 4.22803,-18.22721 19.88053,-30.1892869 34.96206,-26.7195397 15.0857,3.469742 23.88822,21.0529277 19.66296,39.2787497 -4.22528,18.22445 -19.88053,30.186522 -34.96069,26.718155 C 313.97431,64.913841 305.17177,47.327905 309.39705,29.106217 M 410.82016,1.8157436 H 394.93763 L 381.47746,23.33617 373.01029,1.8157436 h -15.57904 l 16.0322,34.7650464 -4.94034,31.156014 H 382.1371 L 386.31663,40.195342 410.82016,1.8157436 M 234.01845,67.736804 236.28836,53.590276 H 212.5415 l 1.88327,-11.741428 h 20.65102 l 2.27132,-14.146528 h -20.87414 l 1.81677,-11.740049 h 23.73995 l 2.2713,-14.1465274 h -37.65742 l -10.5888,65.9210604 h 37.96368 M 104.7741,35.226538 102.28398,22.437017 96.537798,35.226538 Z m 90.22192,32.510266 h -13.60844 l -1.81816,-40.787457 -17.69376,40.787457 h -9.07553 l -7.55948,-36.875031 -11.79806,36.875031 h -23.13892 l -3.48068,-19.71385 H 91.094843 l -8.923799,19.71385 H 67.953138 L 97.14408,1.8157436 h 16.78649 L 122.8542,55.096223 140.24765,1.8157436 h 13.45741 l 6.65455,36.1220474 15.43075,-36.1220474 h 16.3343 l 2.87136,65.9210604"/>
  </g>
</svg>
