<?xml version="1.0" encoding="UTF-8" standalone="no"?>
<svg xmlns="http://www.w3.org/2000/svg" xmlns:svg="http://www.w3.org/2000/svg" id="svglynxlogo" width="640" height="72" version="1.1">
  <g id="lynxlogo">
    <path id="lynxlogo01" fill="#ff0000" d="m 516.20001,0 86.33834,37.83711 -19.22334,7.059249 -31.8,-13.929606 L 536.70834,36.40286 453.64334,0 h 61.955 z m 17.8,61.279903 -25.64,-11.236627 -60.15833,21.955052 h 56.6 z"/>
    <path id="lynxlogo00" fill="#ffcc00" d="m 554.20168,10.718425 25.64,11.236627 L 640.00001,0 h -56.6 z m 17.79833,61.279903 -86.33833,-37.83711 19.22333,-7.059249 31.8,13.929606 14.80667,-5.436107 83.06333,36.401188 h -62.555 z M 293.40001,0.89765973 337.69334,29.440564 M 241.12667,0.00668648 162.02334,50.982726 V 71.999999 H 203.265 V 49.145616 L 273.99834,0.0083581 h -32.87167 z m 50.39,7.70282312 44.29334,28.5429044 V 71.999999 H 291.32667 Z M 292.02334,0.00668648 403.74167,71.998328 h 23.11167 V 0.00668648 h -20.435 V 50.232169 L 331.02501,0.00668648 Z m -200.250005,0 h 57.333335 l 36.60167,27.66196152 -28.12,18.120356 z M 0,56.580982 H 103.44333 V 71.998329 H 0 Z M 0.18166667,0.00668648 H 41.051667 V 50.777117 H 0.18166667 Z"/>
  </g>
</svg>
