<?xml version="1.0" encoding="UTF-8" standalone="no"?>
<!-- Created with Inkscape (http://www.inkscape.org/) -->
<svg xmlns:dc="http://purl.org/dc/elements/1.1/" xmlns:cc="http://creativecommons.org/ns#" xmlns:rdf="http://www.w3.org/1999/02/22-rdf-syntax-ns#" xmlns:svg="http://www.w3.org/2000/svg" xmlns="http://www.w3.org/2000/svg" xmlns:xlink="http://www.w3.org/1999/xlink" xmlns:sodipodi="http://sodipodi.sourceforge.net/DTD/sodipodi-0.dtd" xmlns:inkscape="http://www.inkscape.org/namespaces/inkscape" width="400" height="280.39215" id="svg2538" sodipodi:version="0.32" inkscape:version="0.46" version="1.0" sodipodi:docname="Activision Blizzard.svg" inkscape:output_extension="org.inkscape.output.svg.inkscape">
  <sodipodi:namedview id="base" pagecolor="#ffffff" bordercolor="#666666" borderopacity="1.0" inkscape:pageopacity="0.0" inkscape:pageshadow="2" inkscape:zoom="0.9646074" inkscape:cx="200" inkscape:cy="67.276928" inkscape:document-units="px" inkscape:current-layer="layer1" showgrid="false" inkscape:window-width="1680" inkscape:window-height="978" inkscape:window-x="-4" inkscape:window-y="-4"/>
  <defs id="defs2540">
    <linearGradient inkscape:collect="always" id="linearGradient5571">
      <stop style="stop-color:#0566b0;stop-opacity:1;" offset="0" id="stop5573"/>
      <stop style="stop-color:#0566b0;stop-opacity:0;" offset="1" id="stop5575"/>
    </linearGradient>
    <linearGradient id="linearGradient5561">
      <stop style="stop-color:#000000;stop-opacity:1;" offset="0" id="stop5563"/>
      <stop id="stop5569" offset="0.5" style="stop-color:#cae8fe;stop-opacity:1;"/>
      <stop style="stop-color:#0566b0;stop-opacity:1" offset="1" id="stop5565"/>
    </linearGradient>
    <linearGradient id="linearGradient3756">
      <stop id="stop3758" offset="0" style="stop-color:#0566b0;stop-opacity:1"/>
      <stop style="stop-color:#ffffff;stop-opacity:0.49803922;" offset="1" id="stop4012"/>
      <stop id="stop3760" offset="1" style="stop-color:#000000;stop-opacity:0;"/>
    </linearGradient>
    <linearGradient id="linearGradient3682" inkscape:collect="always">
      <stop id="stop3684" offset="0" style="stop-color:#000000;stop-opacity:1;"/>
      <stop id="stop3686" offset="1" style="stop-color:#000000;stop-opacity:0;"/>
    </linearGradient>
    <linearGradient id="linearGradient2556">
      <stop id="stop2558" offset="0" style="stop-color:#0566b0;stop-opacity:1;"/>
      <stop style="stop-color:#b7dffd;stop-opacity:0.49803922;" offset="0.5" id="stop5539"/>
      <stop id="stop2560" offset="1" style="stop-color:#0566b0;stop-opacity:0;"/>
    </linearGradient>
    <inkscape:perspective id="perspective2546" inkscape:persp3d-origin="372.04724 : 350.78739 : 1" inkscape:vp_z="744.09448 : 526.18109 : 1" inkscape:vp_y="0 : 1000 : 0" inkscape:vp_x="0 : 526.18109 : 1" sodipodi:type="inkscape:persp3d"/>
    <radialGradient gradientUnits="userSpaceOnUse" gradientTransform="matrix(12.291982,-7.9270209,1.5139248,2.3475573,-420.48648,-84.188994)" r="26.862612" fy="184.1456" fx="12.549164" cy="184.14565" cx="12.549161" id="radialGradient2562" xlink:href="#linearGradient2556" inkscape:collect="always"/>
    <radialGradient gradientUnits="userSpaceOnUse" gradientTransform="matrix(6.7511115,-4.3537493,0.8346419,1.2942317,-250.97359,26.003819)" r="48.909683" fy="214.22627" fx="12.549276" cy="214.22636" cx="12.549271" id="radialGradient2564" xlink:href="#linearGradient2556" inkscape:collect="always"/>
    <radialGradient gradientUnits="userSpaceOnUse" gradientTransform="matrix(11.344656,-7.3160981,1.3681759,2.1215524,-388.39341,-60.52466)" r="29.105749" fy="188.9944" fx="12.549173" cy="188.99445" cx="12.54917" id="radialGradient2566" xlink:href="#linearGradient2556" inkscape:collect="always"/>
    <radialGradient gradientUnits="userSpaceOnUse" gradientTransform="matrix(12.023145,-7.7536497,1.4808137,2.2962139,-415.62395,-84.055981)" r="27.463259" fy="187.25768" fx="12.549166" cy="187.25772" cx="12.549162" id="radialGradient2568" xlink:href="#linearGradient2556" inkscape:collect="always"/>
    <radialGradient gradientUnits="userSpaceOnUse" gradientTransform="matrix(11.799196,-7.6092284,1.4179769,2.1987759,-402.93162,-70.544795)" r="27.984509" fy="188.58682" fx="12.549167" cy="188.58687" cx="12.549164" id="radialGradient2570" xlink:href="#linearGradient2556" inkscape:collect="always"/>
    <radialGradient gradientUnits="userSpaceOnUse" gradientTransform="matrix(13.77721,-8.8848358,1.5618805,2.4219194,-444.76763,-80.91968)" r="23.966734" fy="182.1046" fx="12.549147" cy="182.10464" cx="12.549144" id="radialGradient2572" xlink:href="#linearGradient2556" inkscape:collect="always"/>
    <radialGradient gradientUnits="userSpaceOnUse" gradientTransform="matrix(24.773474,-15.976257,2.5022678,3.8801243,-709.54724,-188.53109)" r="13.32856" fy="164.33611" fx="12.54909" cy="164.33612" cx="12.549088" id="radialGradient2574" xlink:href="#linearGradient2556" inkscape:collect="always"/>
    <radialGradient gradientUnits="userSpaceOnUse" gradientTransform="matrix(15.87993,-10.240866,1.5668934,2.4296925,-463.96154,-52.748797)" r="20.793211" fy="176.93127" fx="12.549129" cy="176.93132" cx="12.549127" id="radialGradient2576" xlink:href="#linearGradient2556" inkscape:collect="always"/>
    <linearGradient gradientUnits="userSpaceOnUse" y2="-6.3683047" x2="187.28578" y1="121.43066" x1="187.28578" id="linearGradient3690" xlink:href="#linearGradient3682" inkscape:collect="always"/>
    <linearGradient gradientUnits="userSpaceOnUse" y2="-49.525463" x2="185.56773" y1="280.39215" x1="189.71449" id="linearGradient3764" xlink:href="#linearGradient3756" inkscape:collect="always"/>
    <linearGradient y2="-49.525463" x2="185.56773" y1="429.02005" x1="185.56773" gradientUnits="userSpaceOnUse" id="linearGradient3768" xlink:href="#linearGradient3756" inkscape:collect="always"/>
    <linearGradient y2="-49.525463" x2="185.56773" y1="280.39215" x1="189.71449" gradientUnits="userSpaceOnUse" id="linearGradient3896" xlink:href="#linearGradient3756" inkscape:collect="always"/>
    <linearGradient y2="-15.314656" x2="-29.02734" y1="162.59041" x1="106.77921" gradientUnits="userSpaceOnUse" id="linearGradient3898" xlink:href="#linearGradient3756" inkscape:collect="always"/>
    <linearGradient y2="-49.525463" x2="185.56773" y1="280.39215" x1="189.71449" gradientUnits="userSpaceOnUse" id="linearGradient3946" xlink:href="#linearGradient3756" inkscape:collect="always"/>
    <linearGradient y2="-49.525463" x2="185.56773" y1="429.02005" x1="185.56773" gradientUnits="userSpaceOnUse" id="linearGradient3948" xlink:href="#linearGradient3756" inkscape:collect="always"/>
    <linearGradient y2="-49.525463" x2="185.56773" y1="280.39215" x1="189.71449" gradientUnits="userSpaceOnUse" id="linearGradient3971" xlink:href="#linearGradient3756" inkscape:collect="always"/>
    <linearGradient y2="-49.525463" x2="185.56773" y1="429.02005" x1="185.56773" gradientUnits="userSpaceOnUse" id="linearGradient3973" xlink:href="#linearGradient3756" inkscape:collect="always"/>
    <linearGradient y2="-49.525463" x2="185.56773" y1="429.02005" x1="185.56773" gradientUnits="userSpaceOnUse" id="linearGradient3768-973" xlink:href="#linearGradient3756-724" inkscape:collect="always"/>
    <linearGradient id="linearGradient3756-724">
      <stop id="stop4912" offset="0" style="stop-color:#0599b0;stop-opacity:1"/>
      <stop style="stop-color:#ffffff;stop-opacity:0.49803922;" offset="1" id="stop4914"/>
      <stop id="stop4916" offset="1" style="stop-color:#000000;stop-opacity:0;"/>
    </linearGradient>
    <linearGradient gradientUnits="userSpaceOnUse" y2="-49.525463" x2="185.56773" y1="280.39215" x1="189.71449" id="linearGradient3764-897" xlink:href="#linearGradient3756-909" inkscape:collect="always"/>
    <linearGradient id="linearGradient3756-909">
      <stop id="stop4920" offset="0" style="stop-color:#0599b0;stop-opacity:1"/>
      <stop style="stop-color:#ffffff;stop-opacity:0.49803922;" offset="1" id="stop4922"/>
      <stop id="stop4924" offset="1" style="stop-color:#000000;stop-opacity:0;"/>
    </linearGradient>
    <linearGradient id="linearGradient3756-100">
      <stop id="stop4928" offset="0" style="stop-color:#0599b0;stop-opacity:1"/>
      <stop style="stop-color:#ffffff;stop-opacity:0.49803922;" offset="1" id="stop4930"/>
      <stop id="stop4932" offset="1" style="stop-color:#000000;stop-opacity:0;"/>
    </linearGradient>
    <linearGradient id="linearGradient3756-273">
      <stop id="stop4936" offset="0" style="stop-color:#0599b0;stop-opacity:1"/>
      <stop style="stop-color:#ffffff;stop-opacity:0.49803922;" offset="1" id="stop4938"/>
      <stop id="stop4940" offset="1" style="stop-color:#000000;stop-opacity:0;"/>
    </linearGradient>
    <linearGradient id="linearGradient3756-903">
      <stop id="stop4944" offset="0" style="stop-color:#0599b0;stop-opacity:1"/>
      <stop style="stop-color:#ffffff;stop-opacity:0.49803922;" offset="1" id="stop4946"/>
      <stop id="stop4948" offset="1" style="stop-color:#000000;stop-opacity:0;"/>
    </linearGradient>
    <linearGradient id="linearGradient3756-914">
      <stop id="stop4952" offset="0" style="stop-color:#0599b0;stop-opacity:1"/>
      <stop style="stop-color:#ffffff;stop-opacity:0.49803922;" offset="1" id="stop4954"/>
      <stop id="stop4956" offset="1" style="stop-color:#000000;stop-opacity:0;"/>
    </linearGradient>
    <linearGradient id="linearGradient3756-207">
      <stop id="stop4960" offset="0" style="stop-color:#0599b0;stop-opacity:1"/>
      <stop style="stop-color:#ffffff;stop-opacity:0.49803922;" offset="1" id="stop4962"/>
      <stop id="stop4964" offset="1" style="stop-color:#000000;stop-opacity:0;"/>
    </linearGradient>
    <linearGradient id="linearGradient3756-923">
      <stop id="stop4968" offset="0" style="stop-color:#0599b0;stop-opacity:1"/>
      <stop style="stop-color:#ffffff;stop-opacity:0.49803922;" offset="1" id="stop4970"/>
      <stop id="stop4972" offset="1" style="stop-color:#000000;stop-opacity:0;"/>
    </linearGradient>
    <linearGradient id="linearGradient3756-110">
      <stop id="stop4976" offset="0" style="stop-color:#0599b0;stop-opacity:1"/>
      <stop style="stop-color:#ffffff;stop-opacity:0.49803922;" offset="1" id="stop4978"/>
      <stop id="stop4980" offset="1" style="stop-color:#000000;stop-opacity:0;"/>
    </linearGradient>
    <linearGradient id="linearGradient3756-148">
      <stop id="stop4984" offset="0" style="stop-color:#0599b0;stop-opacity:1"/>
      <stop style="stop-color:#ffffff;stop-opacity:0.49803922;" offset="1" id="stop4986"/>
      <stop id="stop4988" offset="1" style="stop-color:#000000;stop-opacity:0;"/>
    </linearGradient>
    <linearGradient inkscape:collect="always" xlink:href="#linearGradient3756" id="linearGradient5531" gradientUnits="userSpaceOnUse" x1="189.71449" y1="280.39215" x2="185.56773" y2="-49.525463"/>
    <linearGradient inkscape:collect="always" xlink:href="#linearGradient3756" id="linearGradient5533" gradientUnits="userSpaceOnUse" x1="185.56773" y1="429.02005" x2="185.56773" y2="-49.525463"/>
    <linearGradient inkscape:collect="always" xlink:href="#linearGradient5571" id="linearGradient5577" x1="184.5312" y1="227.5054" x2="184.5312" y2="1.3710403" gradientUnits="userSpaceOnUse"/>
  </defs>
  <metadata id="metadata2543">
    <rdf:RDF>
      <cc:Work rdf:about="">
        <dc:format>image/svg+xml</dc:format>
        <dc:type rdf:resource="http://purl.org/dc/dcmitype/StillImage"/>
      </cc:Work>
    </rdf:RDF>
  </metadata>
  <g transform="translate(6.2902012e-6,0)" id="layer1" inkscape:groupmode="layer" inkscape:label="Ebene 1">
    <g style="fill-opacity:1;fill:url(#linearGradient3690)" transform="matrix(1.2646009,0,0,1.2646009,-52.92018,0)" id="g3669">
      <g style="fill-opacity:1;fill:url(#linearGradient3690)" id="g3657">
        <g style="fill-opacity:1;fill:url(#linearGradient3690)" transform="translate(10.677828,-39.232605)" id="g3646">
          <path d="M 140.04593,61.6114 L 152.66751,61.6114 L 152.66751,109.75415 L 140.04593,109.75415 L 140.04593,61.6114 z" style="fill:url(#linearGradient3690);fill-rule:nonzero;stroke:none;fill-opacity:1" id="path47"/>
          <path d="M 324.71311,89.228762 L 324.71311,109.57034 L 312.01494,109.52439 L 312.01494,60.125608 L 334.8839,79.80853 L 334.8839,61.6114 L 347.47484,61.6114 L 347.47484,111.53097 L 324.71311,89.228762" style="fill:url(#linearGradient3690);fill-rule:nonzero;stroke:none;fill-opacity:1" id="path49"/>
          <path d="M 76.570425,85.552574 C 76.570425,71.889409 87.660255,60.799575 101.32342,60.799575 C 107.48103,60.799575 113.11785,63.066558 117.4527,66.788698 L 109.27318,76.071073 C 107.12873,74.263614 104.35628,73.176075 101.32342,73.176075 C 94.491845,73.176075 88.946925,78.720992 88.946925,85.552574 C 88.946925,92.384157 94.491845,97.929076 101.32342,97.929076 C 104.40223,97.929076 107.22064,96.795582 109.39572,94.926854 L 117.55992,104.22455 C 113.22508,108.00796 107.5423,110.29026 101.32342,110.29026 C 87.660255,110.29026 76.570425,99.215738 76.570425,85.552574" style="fill:url(#linearGradient3690);fill-rule:nonzero;stroke:none;fill-opacity:1" id="path51"/>
          <path d="M 176.70059,120.76739 L 152.82069,57.322513 L 132.86205,57.322513 L 132.86205,109.93796 L 119.79627,109.93796 L 119.79627,57.322513 L 90.876925,57.322513 L 97.585965,44.685617 L 162.14901,44.685617 L 176.70059,82.703528 L 191.26748,44.685617 L 253.778,44.685617 L 260.67085,57.322513 L 200.59581,57.322513 L 176.70059,120.76739" style="fill:url(#linearGradient3690);fill-rule:nonzero;stroke:none;fill-opacity:1" id="path53"/>
          <path d="M 217.04675,109.57034 L 217.04675,98.940025 L 225.71643,98.940025 C 227.12563,98.940025 229.80619,98.832804 230.48016,96.596456 C 231.87404,91.939952 217.59818,84.388448 217.59818,72.808457 C 217.59818,64.046874 223.93961,61.427591 228.24381,61.427591 L 241.38618,61.427591 L 241.38618,71.874091 L 233.26793,71.874091 C 233.26793,71.874091 230.93968,71.874091 230.29635,72.808457 C 226.77333,77.847897 243.34682,85.21559 243.34682,98.756214 C 243.34682,105.83289 237.28111,109.57034 231.23071,109.57034 L 217.04675,109.57034" style="fill:url(#linearGradient3690);fill-rule:nonzero;stroke:none;fill-opacity:1" id="path55"/>
          <path d="M 200.77962,61.427591 L 213.41652,61.427591 L 213.41652,109.57034 L 200.77962,109.57034 L 200.77962,61.427591 z" style="fill:url(#linearGradient3690);fill-rule:nonzero;stroke:none;fill-opacity:1" id="path57"/>
          <path d="M 245.39936,61.427591 L 258.03625,61.427591 L 258.03625,109.57034 L 245.39936,109.57034 L 245.39936,61.427591 z" style="fill:url(#linearGradient3690);fill-rule:nonzero;stroke:none;fill-opacity:1" id="path59"/>
          <path d="M 66.981702,109.75415 L 63.62718,100.79344 L 47.957428,100.79344 L 44.602904,109.75415 L 31.169504,109.75415 L 55.799962,39.232605 L 80.430425,109.75415 L 66.981702,109.75415 M 51.786791,87.926779 L 59.246388,87.926779 L 55.508931,75.611549 L 51.786791,87.926779" style="fill:url(#linearGradient3690);fill-rule:nonzero;stroke:none;fill-opacity:1" id="path63"/>
          <path d="M 260.33386,85.537256 C 260.33386,71.858774 271.43902,60.753623 285.13282,60.753623 C 298.8113,60.753623 309.91646,71.858774 309.91646,85.537256 C 309.91646,99.231057 298.8113,110.33621 285.13282,110.33621 C 271.43902,110.33621 260.33386,99.231057 260.33386,85.537256 M 272.81759,85.537256 C 272.81759,92.338205 278.33187,97.852486 285.13282,97.852486 C 291.91846,97.852486 297.43273,92.338205 297.43273,85.537256 C 297.43273,78.751627 291.91846,73.237345 285.13282,73.237345 C 278.33187,73.237345 272.81759,78.751627 272.81759,85.537256" style="fill:url(#linearGradient3690);fill-rule:nonzero;stroke:none;fill-opacity:1" id="path65"/>
        </g>
      </g>
    </g>
    <g id="g4314" style="fill:url(#linearGradient5577);fill-opacity:1;stroke:none;stroke-opacity:1" transform="translate(-6.2580191e-6,1.4878123e-7)">
      <g transform="matrix(1.2019275,0,0,1.2019275,-1.3031114,7.7126016)" id="g4316" style="fill:url(#linearGradient5577);fill-opacity:1;stroke:none;stroke-opacity:1">
        <path style="opacity:1;fill:url(#linearGradient5577);fill-opacity:1;fill-rule:nonzero;stroke:none;stroke-opacity:1" d="M 280.15773,73.131454 C 283.32943,73.558548 286.48889,74.098232 289.62488,74.757869 C 292.98383,76.870736 296.61102,78.506668 300.02668,80.526971 C 300.5481,80.663059 301.59095,80.935199 302.11238,81.071271 C 303.74187,81.576432 305.39202,82.053536 307.03437,82.545422 C 309.5391,83.329284 312.13884,83.734444 314.75288,83.975876 C 316.64184,84.233406 318.53589,84.469422 320.43664,84.699467 C 323.90737,87.928474 327.55353,91.194027 329.51513,95.620068 C 333.5937,102.13458 330.35659,110.07077 332.53325,117.0937 C 333.55653,123.90117 335.27209,131.62513 331.86682,138.00305 C 331.824,143.1672 332.22177,148.81459 328.21527,152.7607 C 324.89658,165.22879 328.1609,178.24036 325.76257,190.82191 C 325.38847,197.833 324.77768,204.93611 322.30354,211.57208 C 320.899,214.97931 318.34158,218.27761 314.56309,219.10508 C 310.49018,220.29032 306.3584,221.98026 302.03454,221.35173 C 298.73657,221.1732 295.59789,222.4493 292.49793,223.37557 C 295.94405,218.3228 296.35705,212.2307 295.33172,206.35678 C 297.02134,205.53201 298.7077,204.68878 300.38438,203.82702 C 297.97315,199.88836 295.2535,195.70832 295.35463,190.90856 C 295.35133,184.04328 297.29168,177.29615 296.61405,170.39778 C 293.86499,165.33955 291.86618,159.8745 291.15573,154.14239 C 290.1329,149.66481 290.47373,145.04975 290.15649,140.5038 C 289.09869,135.28458 289.87602,129.8767 288.9154,124.61146 C 289.13107,113.43585 287.90088,101.90497 291.42895,91.095856 C 291.57069,88.948926 291.67367,86.800144 291.77707,84.651783 C 287.69102,81.033638 283.5842,77.400921 280.15773,73.131454 z" id="path4318"/>
        <path style="opacity:1;fill:url(#linearGradient5577);fill-opacity:1;fill-rule:nonzero;stroke:none;stroke-opacity:1" d="M 57.999433,75.202244 C 59.150232,75.924157 60.294852,76.657379 61.433309,77.401913 C 64.229883,77.458428 67.028039,77.497032 69.826769,77.526387 C 74.184012,79.426868 77.673067,82.614621 80.483049,86.399907 C 80.664839,90.984199 80.159009,95.536602 79.546484,100.06665 C 80.111688,100.79512 81.242079,102.25209 81.807283,102.98058 C 81.591448,105.08891 81.283888,107.19258 80.686011,109.2322 C 80.121436,117.66343 80.554671,126.12038 80.415167,134.56336 C 81.247172,135.38777 82.081274,136.21238 82.917456,137.03715 C 83.966326,146.02858 83.407167,155.16312 82.233614,164.10973 C 80.815309,169.47989 82.875761,174.84253 82.976984,180.23167 C 82.122663,181.68532 80.354513,182.98341 80.896104,184.88181 C 81.383127,188.2611 80.618262,191.61876 80.002436,194.92526 C 79.270014,200.12538 77.593131,205.5214 79.186319,210.71742 C 84.132266,211.56877 89.655261,212.04625 93.291182,207.80805 C 97.746042,209.39015 102.45742,209.77093 107.15387,209.54362 C 108.46825,208.72857 109.78635,207.91906 111.10813,207.11507 C 124.24753,205.66941 137.46648,206.93673 150.63794,206.45261 C 151.71044,212.8852 149.43538,219.94628 152.87744,225.84607 C 145.90887,225.69148 138.68205,226.51652 132.1079,223.64587 C 131.58878,223.41393 130.55052,222.95003 130.03137,222.7181 C 125.54269,221.75743 120.93345,222.0456 116.3833,221.76773 C 106.40069,219.03201 95.918802,221.09128 85.762781,220.04073 C 82.228483,219.00655 78.646483,218.11156 74.936156,218.09241 C 72.388014,220.26313 69.766058,222.34488 67.205957,224.5021 C 63.156084,224.51497 59.106859,224.5211 55.058073,224.51475 C 55.642237,223.45307 56.229967,222.39531 56.821264,221.34143 C 59.268774,219.83992 61.627326,218.20218 64.009928,216.60226 C 65.720514,208.67588 62.853026,200.55072 65.792612,192.79673 C 66.195272,191.32787 66.583971,189.85677 66.958708,188.38343 C 66.025213,187.48166 65.093378,186.5809 64.163183,185.68116 C 64.152006,181.0301 64.056353,176.3716 64.437861,171.73257 C 65.967421,167.46949 64.867071,162.79633 66.416621,158.54014 C 66.681379,154.04042 66.428027,149.47825 67.482103,145.05992 C 68.186754,142.76471 67.155127,140.49825 66.896796,138.22495 C 65.960573,132.12054 67.781843,125.74645 65.680898,119.80363 C 65.472902,116.96715 65.405554,114.12419 65.349382,111.28283 C 66.003984,110.72041 67.313169,109.59555 67.967753,109.03312 C 68.218339,105.41161 68.206477,101.75666 67.298063,98.218544 C 69.806074,93.732803 68.677611,88.727501 66.091761,84.552658 C 65.471396,84.526413 64.230703,84.473923 63.610338,84.447678 C 61.813768,82.464683 59.952597,80.541066 57.986158,78.727138 C 57.989477,77.845924 57.996114,76.083477 57.999433,75.202244 z" id="path4320"/>
        <path style="opacity:1;fill:url(#linearGradient5577);fill-opacity:1;fill-rule:nonzero;stroke:none;stroke-opacity:1" d="M 246.34754,76.432254 C 254.08187,76.045617 261.2225,79.354027 268.67295,80.809086 C 276.18049,82.906864 278.98185,90.802887 281.6748,97.266434 C 283.46893,101.36144 282.08683,105.86919 280.87909,109.91425 C 280.77078,112.44864 280.59687,114.97992 280.40533,117.51021 C 277.6611,123.26033 273.87834,129.73 266.67218,129.96861 C 266.66825,131.48381 266.66829,133.00017 266.67227,134.51772 C 268.16112,134.50972 269.65362,134.50295 271.1497,134.49746 C 272.8621,136.32134 274.58728,138.13641 276.32337,139.94384 C 280.08312,145.27999 280.65209,151.82139 280.67609,158.1507 C 280.608,163.59608 285.0476,167.72298 285.32539,173.0968 C 286.21675,177.33665 284.71588,181.97537 286.75848,185.94702 C 288.95639,190.1212 287.93815,195.00243 288.08099,199.5162 C 288.27035,207.18381 285.74095,214.5423 284.99839,222.12361 C 278.17387,220.01398 274.17347,212.12976 266.34287,212.9275 C 267.71852,208.45938 269.67979,204.17621 270.77114,199.62363 C 272.20552,191.56741 271.88657,183.26312 270.09584,175.28976 C 269.13469,170.51227 267.50167,165.92862 265.3846,161.54889 C 264.90818,158.27113 265.44128,154.91504 265.42953,151.60954 C 263.29085,148.00706 261.08577,144.41777 258.22662,141.33273 C 257.07273,145.63409 254.60769,149.76634 255.10103,154.35862 C 255.4663,164.35437 257.91234,174.22392 257.56517,184.23765 C 258.80654,190.96423 257.08745,197.74723 257.90294,204.5013 C 258.59697,210.8373 257.49462,217.15791 256.25542,223.35357 C 253.92977,214.94701 247.16112,209.10502 240.05204,204.65843 C 241.06845,196.9585 245.22987,190.16795 246.4856,182.55036 C 245.903,181.95115 244.73779,180.75268 244.15519,180.15346 C 243.69668,167.86483 245.08619,155.52026 243.96787,143.28019 C 241.17577,133.75457 241.07132,123.75817 239.42809,114.02997 C 237.30972,109.5336 236.73099,104.65558 236.98259,99.726494 C 241.2004,95.928658 245.80867,92.568196 249.71059,88.422192 C 246.98018,87.359474 244.06572,86.637257 241.33262,88.154457 C 239.34453,82.887447 234.5435,79.795749 229.98337,76.963147 C 235.44165,77.149686 240.92043,77.142074 246.34754,76.432254 z" id="path4322"/>
        <path style="opacity:1;fill:url(#linearGradient5577);fill-opacity:1;fill-rule:nonzero;stroke:none;stroke-opacity:1" d="M 214.40008,78.393067 C 214.07789,75.367973 217.73142,77.406814 218.95793,78.261478 C 218.99459,85.281933 225.47625,90.242164 224.43042,97.443779 C 228.8333,109.41405 231.74373,121.81399 234.98315,134.12869 C 235.97365,139.10949 235.0001,144.27678 236.22734,149.24243 C 238.36023,159.22911 238.03522,169.4658 237.89017,179.61045 C 237.57717,188.53486 230.62955,195.85898 230.98053,204.88887 C 230.22232,207.32631 229.4838,209.77025 228.78284,212.22643 C 228.51275,212.68887 227.97258,213.61375 227.70249,214.07618 C 227.599,218.42575 226.6521,222.69767 225.46815,226.86855 C 224.8537,226.51715 223.62479,225.81435 223.01034,225.46295 C 223.74005,217.86691 219.9356,211.01581 219.25487,203.58371 C 217.74659,200.50815 215.27117,198.0397 213.30743,195.25906 C 217.51275,189.00318 221.03487,182.18707 222.01872,174.61565 C 216.59618,170.24973 210.4136,166.96767 204.19234,163.90662 C 204.34384,167.46054 204.5242,171.01657 204.465,174.5771 C 205.98405,175.97937 207.51454,177.37393 209.04018,178.77608 C 208.06177,179.66298 207.08683,180.55213 206.11533,181.44355 C 203.47409,181.22951 200.83179,181.08008 198.19318,180.90951 C 193.63098,182.55437 189.04903,184.14641 184.55768,185.97658 C 184.06568,184.5112 183.57042,183.04936 183.07185,181.5911 C 184.66182,179.81847 186.28032,178.07188 187.91872,176.34301 C 187.90298,175.02217 187.88953,173.703 187.87838,172.38543 C 189.43223,171.2339 190.99445,170.09145 192.56425,168.95823 C 192.09604,168.24315 191.63129,167.52957 191.17002,166.81752 C 191.73883,159.88498 192.32393,152.93307 194.53022,146.28327 C 194.20968,145.83186 193.5686,144.92907 193.24808,144.47768 C 193.3953,142.26849 193.4748,140.05553 193.53927,137.84446 C 195.45803,134.20445 196.91104,130.3385 197.63437,126.27824 C 197.9717,125.85257 198.6464,125.00125 198.98374,124.57558 C 199.07138,118.48416 200.32979,112.31259 204.05897,107.35284 C 203.98639,106.73922 203.84122,105.51202 203.76865,104.8984 C 205.80934,98.592594 210.81937,93.269889 210.67949,86.376732 C 213.22738,84.369533 214.77319,81.714543 214.40008,78.393067 z" id="path4324"/>
        <path style="opacity:1;fill:url(#linearGradient5577);fill-opacity:1;fill-rule:nonzero;stroke:none;stroke-opacity:1" d="M 2.8976769,79.638622 C 9.1845069,79.659871 15.351061,78.128136 21.638846,78.228939 C 28.213228,78.283661 34.789938,78.181064 41.362699,78.388642 C 43.287711,80.537537 45.874589,81.760509 48.518747,82.778804 C 52.231764,84.228199 53.495668,88.359478 55.348906,91.512917 C 55.397524,94.274204 55.472311,97.036446 55.673174,99.792507 C 57.625688,103.18759 56.250394,106.85252 54.428248,109.92741 C 51.432242,115.55835 48.410563,121.32422 43.640932,125.69226 C 44.991697,128.361 47.965539,128.99667 50.549597,129.91242 C 50.190043,131.64838 49.693636,133.36226 49.484953,135.12786 C 50.993056,136.83461 52.857374,138.26682 53.988489,140.28159 C 53.724932,146.15969 52.202524,152.66667 56.568349,157.54357 C 55.965399,165.84033 58.752207,174.54583 55.248693,182.44025 C 55.423673,187.4788 56.178488,192.90408 53.465571,197.46056 C 51.011232,201.63626 48.616823,206.03951 49.045023,211.07602 C 43.866438,214.35223 38.372949,217.2866 34.239343,221.93206 C 32.818331,221.98896 31.397967,222.04805 29.978269,222.10932 C 28.583006,222.81941 27.183183,223.52452 25.783781,224.22903 C 25.306562,223.55908 24.352163,222.21917 23.874944,221.5492 C 22.628988,222.50407 21.393808,223.47487 20.162501,224.45167 C 14.240317,224.13443 7.9385706,225.68477 2.3111669,223.3047 C 8.1725444,220.83225 8.2226694,213.84425 9.0615794,208.4456 C 9.2000906,199.26758 9.6948944,190.00787 8.2594619,180.90171 C 7.3807856,172.44996 8.2383856,163.94931 8.1169644,155.47734 C 8.9395469,154.73759 9.7634256,154.00033 10.588621,153.26552 C 10.035891,147.34469 8.5447831,141.45285 9.3969094,135.47618 C 11.620592,131.13471 8.9746606,126.54317 9.1600356,122.03008 C 9.2060031,113.58933 8.9757481,105.13814 9.3956694,96.704414 C 9.9411906,94.765232 10.386213,92.801331 10.818781,90.835559 C 9.9233956,90.816219 8.1326431,90.777501 7.2372569,90.758141 C 5.4442344,88.935078 3.6427444,87.121361 1.8334331,85.315483 C 1.6461319,84.550102 1.2715094,83.019302 1.0841881,82.253903 C 1.5375656,81.600083 2.4442994,80.292442 2.8976769,79.638622 z" id="path4326"/>
        <path style="opacity:1;fill:url(#linearGradient5577);fill-opacity:1;fill-rule:nonzero;stroke:none;stroke-opacity:1" d="M 161.6772,77.712296 C 173.3661,77.597378 185.05349,77.913387 196.74255,77.781342 C 199.39565,77.651013 201.97795,78.291711 204.47608,79.129647 C 202.93834,82.573632 201.36098,86.014298 199.29094,89.178188 C 199.23592,90.749099 199.19154,92.320622 199.15313,93.893192 C 197.90925,95.315159 196.67285,96.740539 195.432,98.162163 C 195.42612,99.681366 195.42297,101.20127 195.42254,102.72193 C 194.85214,103.28227 193.71132,104.40293 193.1409,104.96327 C 192.67872,108.301 191.97513,111.59741 191.2717,114.891 C 188.16739,121.20663 190.47705,128.51985 188.31704,135.08687 C 187.43135,139.57745 184.06427,143.45219 184.53059,148.18051 C 183.2154,150.39864 181.64913,152.49049 180.67534,154.89367 C 179.72103,160.60466 181.45698,166.61176 179.48379,172.17546 C 176.60202,179.30205 178.34724,187.63806 173.34112,194.03067 C 172.51239,196.96147 171.43343,199.8129 170.22464,202.60817 C 173.58699,202.44103 176.98782,202.36136 180.28437,201.61185 C 181.859,199.62951 182.49263,196.58123 185.24057,195.84306 C 190.28134,193.74951 195.41227,191.57218 199.42938,187.75563 C 202.33075,188.29515 205.79483,187.65212 208.0239,189.99242 C 207.80447,191.46897 207.44917,192.91552 206.95798,194.33203 C 207.812,199.5845 208.45117,204.95795 207.73904,210.26717 C 207.34794,210.65633 206.5657,211.43466 206.17458,211.82381 C 200.25355,212.23498 194.20245,212.45238 188.35039,211.28606 C 186.42462,210.81963 184.49878,210.37845 182.5772,209.91822 C 181.21962,211.03743 179.85615,212.14947 178.50037,213.26905 C 172.68232,212.90986 166.79088,213.13135 161.4985,215.82457 C 159.28998,212.66485 160.44324,208.31431 161.30562,204.83578 C 161.46899,203.6527 161.6274,202.47067 161.78084,201.28976 C 162.32139,200.72982 163.40244,199.6099 163.94298,199.04996 C 164.9643,191.62025 167.49419,184.3255 166.57267,176.73135 C 163.15097,172.53145 164.18848,166.95395 164.15584,161.96315 C 164.22784,154.07187 168.49903,147.14003 170.876,139.82158 C 172.11284,136.62005 171.22445,133.08644 172.29872,129.83638 C 173.27674,124.96276 176.46368,120.78975 176.77405,115.76226 C 177.45824,106.86227 185.54509,100.8952 186.51632,92.079399 C 185.91082,91.838062 184.69982,91.355408 184.09433,91.114091 C 181.26184,91.375836 178.49708,90.878303 176.20012,89.114102 C 173.76174,89.521187 170.66112,89.479893 169.50252,92.142361 C 167.10545,97.095441 166.94307,102.7562 165.31347,107.96782 C 163.57267,108.52336 161.84027,109.10003 160.11234,109.68161 C 160.16513,107.27507 160.18022,104.86941 160.14979,102.46392 C 163.18214,94.585808 161.05222,85.931423 161.6772,77.712296 z" id="path4328"/>
        <path style="opacity:1;fill:url(#linearGradient5577);fill-opacity:1;fill-rule:nonzero;stroke:none;stroke-opacity:1" d="M 83.775611,79.703606 C 92.136663,79.324272 100.50945,79.591759 108.87638,79.514644 C 109.32855,80.478084 109.78315,81.441697 110.24017,82.405461 C 107.13085,83.826339 104.26355,85.803212 102.81406,89.015797 C 104.98401,94.012592 102.1902,99.317558 102.87034,104.51768 C 103.47824,115.62087 101.61333,126.95659 104.36195,137.86094 C 103.80659,138.52687 102.69588,139.85877 102.14054,140.5247 C 102.32412,145.62512 102.89606,150.69695 103.3105,155.78095 C 103.72693,158.29821 101.67005,160.17409 100.61283,162.23933 C 101.66423,166.76127 102.57986,171.33318 104.21565,175.69407 C 103.72936,181.01958 100.37609,186.25331 102.8145,191.55881 C 105.38879,193.02752 107.90056,194.60345 110.43273,196.14748 C 110.43253,197.00616 110.43209,198.72347 110.43188,199.58215 C 104.32861,199.1229 98.211817,199.19 92.109808,199.61141 C 90.611013,200.61931 89.101557,201.61103 87.571024,202.57007 C 87.093291,198.75968 90.551276,196.6797 92.829984,194.32757 C 92.564253,186.51042 95.144801,178.75035 93.708414,171.00493 C 96.881823,161.65311 94.812903,151.67298 94.858469,142.0296 C 94.995588,132.73705 94.500479,123.42589 95.231318,114.15063 C 93.397764,104.91433 94.420351,95.381554 92.862638,86.079929 C 89.666303,84.202984 86.547674,82.177342 83.775611,79.703606 z" id="path4330"/>
        <path style="opacity:1;fill:#ffffff;fill-opacity:1;fill-rule:evenodd;stroke:none;stroke-opacity:1" d="M 255.53503,91.354969 C 260.22809,93.171394 263.18914,97.395562 266.16954,101.20827 C 268.29309,103.82245 267.93273,107.28312 268.10237,110.42517 C 266.46253,115.25039 266.27058,120.65488 263.38514,124.99335 C 261.61109,127.60127 258.29978,128.05854 255.47078,128.71539 C 255.42653,116.26237 255.31245,103.8061 255.53503,91.354969 z" id="path4334"/>
        <path style="opacity:1;fill:url(#linearGradient5577);fill-opacity:1;fill-rule:nonzero;stroke:none;stroke-opacity:1" d="M 116.66267,93.379734 C 116.65519,88.525551 116.07673,83.448723 118.217,78.912228 C 129.72683,78.822106 141.21865,79.502514 152.72953,79.407413 C 152.89205,84.899701 154.3463,90.269249 154.22269,95.778454 C 154.08437,102.13139 155.20868,108.96043 151.54065,114.60368 C 151.83672,115.23335 152.42883,116.4927 152.7249,117.12239 C 148.42517,123.15739 145.48557,130.33564 145.18427,137.79509 C 143.1113,139.24744 140.88695,140.58652 139.28257,142.58616 C 138.4175,144.3689 138.9774,146.43637 138.85797,148.34096 C 133.5745,154.73271 129.99757,162.50874 128.5469,170.6717 C 127.72744,174.89567 126.12302,178.91408 124.43429,182.85502 C 124.29258,183.36656 124.00917,184.38963 123.86747,184.90117 C 122.86994,187.3924 121.9819,189.92635 121.19968,192.49485 C 126.20414,191.11356 131.19632,189.55302 135.99923,187.5917 C 139.2843,183.70156 141.70009,178.86766 146.515,176.54256 C 147.13638,175.30968 147.75497,174.07607 148.37078,172.84173 C 149.0964,172.97917 150.54765,173.25405 151.27328,173.39148 C 152.5721,170.73078 153.75075,167.82712 156.38313,166.19002 C 156.68079,168.51083 156.93939,170.84121 157.22257,173.16783 C 152.22253,179.98052 154.70457,188.68413 154.19269,196.48583 C 148.20522,199.50522 141.36359,198.57911 135.02034,197.48052 C 132.68815,197.14671 130.7756,199.57188 128.4145,199.06535 C 124.21673,198.33175 119.95103,198.31173 115.72135,197.92046 C 116.111,194.36427 116.68972,190.82713 116.82888,187.24717 C 117.28548,186.62791 118.19869,185.38936 118.65529,184.7701 C 117.93954,182.91355 117.21955,181.06286 116.5021,179.21216 C 114.34085,171.22023 116.61153,163.15686 119.08384,155.53124 C 120.12675,152.62181 121.98423,150.11617 123.70679,147.58481 C 124.63573,143.82285 126.62937,140.48125 129.07043,137.50987 C 129.1723,136.37223 129.27612,135.23576 129.3819,134.10046 C 130.60079,130.35374 131.79404,126.59371 133.31649,122.95611 C 136.09258,120.39414 138.64252,117.52089 140.58929,114.27548 C 140.78115,111.93633 140.5305,109.58934 140.47,107.25077 C 143.78422,103.52444 146.82514,99.567192 149.80527,95.571431 C 149.70035,92.719906 149.63928,89.867714 149.58683,87.015789 C 144.67395,87.014854 139.76255,87.027767 134.85154,86.999291 C 131.33302,89.144601 128.1837,91.952618 127.34993,96.181382 C 125.84638,97.280892 124.34899,98.386257 122.86063,99.503182 C 122.80309,104.63536 123.95244,110.19889 120.88518,114.76161 C 117.91349,108.97601 117.23579,102.41168 119.37745,96.232861 C 118.4711,95.280979 117.56618,94.329937 116.66267,93.379734 z" id="path4332"/>
        <path style="opacity:1;fill:#ffffff;fill-opacity:1;fill-rule:evenodd;stroke:none;stroke-opacity:1" d="M 29.250368,93.950012 C 31.444487,94.261749 33.644384,94.527843 35.845217,94.797848 C 37.551912,95.789879 39.282469,96.740273 41.033663,97.655494 C 40.625166,98.096703 39.808153,98.979118 39.399637,99.420327 C 40.580916,103.89237 39.118704,108.43877 39.220652,112.96351 C 35.656637,114.43421 33.238214,117.39964 31.541991,120.76133 C 30.637068,120.76274 28.827223,120.76558 27.922301,120.76699 C 28.301729,112.55683 27.032064,104.21 28.707041,96.104248 C 28.842863,95.565689 29.114527,94.488572 29.250368,93.950012 z" id="path4336"/>
        <path style="opacity:1;fill:#ffffff;fill-opacity:1;fill-rule:evenodd;stroke:none;stroke-opacity:1" d="M 302.47484,107.37708 C 305.19807,107.71903 307.92368,108.05739 310.65575,108.38561 C 314.25559,111.95454 318.68535,115.28865 319.8882,120.50008 C 321.94644,125.43156 321.91995,130.84019 321.53017,136.07991 C 320.30044,138.56982 319.407,141.20313 318.7167,143.88833 C 312.86265,154.80187 316.89555,167.62488 314.91153,179.27346 C 311.66455,186.60905 311.60144,195.2173 306.04119,201.46586 C 305.72057,183.70732 305.97122,165.94088 305.93015,148.18024 C 305.94562,141.8047 302.71224,135.91168 302.92409,129.50246 C 303.12724,122.11688 300.9513,114.71078 302.47484,107.37708 z" id="path4338"/>
        <path style="opacity:1;fill:#ffffff;fill-opacity:1;fill-rule:evenodd;stroke:none;stroke-opacity:1" d="M 213.02872,125.68 C 214.71925,128.58035 217.41882,130.53613 220.54853,131.66903 C 223.20029,140.89421 223.6292,150.61812 222.33805,160.10535 C 218.0655,157.16464 213.35469,154.66386 207.98945,155.06842 C 207.20949,148.78121 207.69939,142.48496 209.04752,136.31478 C 211.06947,133.0683 212.95427,129.61091 213.02872,125.68 z" id="path4340"/>
        <path style="opacity:1;fill:#ffffff;fill-opacity:1;fill-rule:evenodd;stroke:none;stroke-opacity:1" d="M 27.920431,135.3406 C 31.024584,138.31321 34.331449,141.06433 37.810014,143.58958 C 39.576582,149.18725 40.069269,155.22895 38.449434,160.92685 C 39.521326,163.63772 41.465926,166.63495 39.207511,169.3912 C 39.853911,174.60607 41.361117,179.9595 39.749121,185.16235 C 39.736037,185.21002 39.709887,185.30537 39.696802,185.35306 C 39.432253,186.19658 38.903136,187.88367 38.638586,188.72722 C 37.556776,193.159 38.764757,198.37582 35.547346,202.0779 C 32.528281,206.16125 27.933936,208.63692 23.405699,210.6892 C 23.891138,209.5491 24.861998,207.26891 25.347418,206.12881 C 24.769968,191.94291 28.435148,177.79376 26.023611,163.65186 C 26.885198,161.12735 27.908949,158.5777 27.845778,155.86219 C 27.708506,149.02098 27.959684,142.18167 27.920431,135.3406 z" id="path4342"/>
      </g>
    </g>
  </g>
  <g inkscape:label="schatte" id="layer2" inkscape:groupmode="layer"/>
</svg>