<svg xmlns="http://www.w3.org/2000/svg" viewBox="0 0 1200 717.01"><defs><style>.cls-1{fill:#fff;}.cls-2{fill:#148eff;}</style></defs><g id="Layer_2" data-name="Layer 2"><g id="Vertical"><g id="logo-vertical-color-light-R"><path id="White" class="cls-1" d="M282.53,699.89l-48.27-96.72a14.17,14.17,0,0,0-12.49-7.65H196.61a14.17,14.17,0,0,0-12.48,7.65l-48.08,96.72a2.54,2.54,0,0,0,2.23,3.73H159.9a3.41,3.41,0,0,0,3.17-1.87l10.62-21.24h71.38l10.62,21.24a3.12,3.12,0,0,0,3.17,1.87h21.62C282.16,703.62,283.27,701.57,282.53,699.89Zm-98.4-40.82,20.13-40.44a2.9,2.9,0,0,1,2.42-1.49h5a2.49,2.49,0,0,1,2.42,1.49l20.13,40.44ZM1200,598.14v16.4a2.66,2.66,0,0,1-2.61,2.61h-43.61v98a1.86,1.86,0,0,1-3.07,1.42L1129,698.14a7.43,7.43,0,0,1-2.63-5.68V617.15h-34.67a5.32,5.32,0,0,1-4.66-3l-8.38-16.77a1.28,1.28,0,0,1,1.12-1.87h117.4A2.84,2.84,0,0,1,1200,598.14ZM966.11,619V639h79.58a10.81,10.81,0,0,1,0,21.62H966.11v14.9a7,7,0,0,0,6.9,6.9h89.64a2.67,2.67,0,0,1,2.61,2.61v16.4a2.81,2.81,0,0,1-2.61,2.61H965.74a27.64,27.64,0,0,1-27.58-27.58V609.5A13.76,13.76,0,0,1,952,595.71h110.7a2.67,2.67,0,0,1,2.61,2.61v16.4a2.81,2.81,0,0,1-2.61,2.61H967.79C966.86,617.14,966.11,617.89,966.11,619Zm-51.25-20.13v94.86A13.45,13.45,0,0,1,892.69,704L809,633v67.47a3.34,3.34,0,0,1-3.36,3.35H784.59a3.5,3.5,0,0,1-3.54-3.35V605.77a13.46,13.46,0,0,1,22.18-10.25l83.68,71V599.07a3.51,3.51,0,0,1,3.35-3.55h21.06A3.38,3.38,0,0,1,914.86,598.88ZM654.14,619V639h55.35a10.81,10.81,0,0,1,0,21.62H654.14v14.9a7,7,0,0,0,6.89,6.9h89.65a2.66,2.66,0,0,1,2.6,2.61v16.4a2.66,2.66,0,0,1-2.6,2.61H653.77a27.64,27.64,0,0,1-27.59-27.58V609.5A13.76,13.76,0,0,1,640,595.71h110.7a2.66,2.66,0,0,1,2.6,2.61v16.4a2.66,2.66,0,0,1-2.6,2.61H655.82C654.88,617.14,654.14,617.89,654.14,619Zm-39.51,65.6V701a2.67,2.67,0,0,1-2.61,2.61h-77.9A27.64,27.64,0,0,1,506.54,676v-77.9a2.67,2.67,0,0,1,2.61-2.61h22.92a2.67,2.67,0,0,1,2.61,2.61v77a7,7,0,0,0,6.89,6.9H612A2.66,2.66,0,0,1,614.63,684.61ZM491.82,598.14v16.4a2.66,2.66,0,0,1-2.61,2.61H448.58v98a1.87,1.87,0,0,1-3.07,1.42L423.63,698a7.43,7.43,0,0,1-2.63-5.68V617H394.53a5.31,5.31,0,0,1-4.66-3l-8.38-16.77c-.37-.75.18-1.68,1.3-1.68H489.21A2.67,2.67,0,0,1,491.82,598.14ZM106.23,648.45c5-1.86,15.28-6.71,15.28-20.5,0-23.67-17.52-32.43-38.58-32.43H2.61A2.66,2.66,0,0,0,0,598.13V701a2.67,2.67,0,0,0,2.61,2.61H93.18c13.23-.19,32.24-7.65,32.24-32.06C125.42,656.28,111.82,649.94,106.23,648.45ZM27.58,618.82a1.57,1.57,0,0,1,1.68-1.68H78.83c5.22,0,16.59,0,16.59,10.81s-11.56,10.81-16.59,10.81H27.58Zm57.4,63H29.26a1.56,1.56,0,0,1-1.68-1.68V660.38H85c5.59,0,14.54,0,14.54,10.81C99.52,682.18,89.27,681.81,85,681.81Zm283.09-83.67v16.4a2.66,2.66,0,0,1-2.61,2.61H333.59v98a1.86,1.86,0,0,1-3.07,1.42L308.64,698a7.43,7.43,0,0,1-2.63-5.68V617H271.53a5.31,5.31,0,0,1-4.66-3l-8.38-16.77a1.37,1.37,0,0,1,1.3-1.68H365.46A2.67,2.67,0,0,1,368.07,598.14Z"/><path id="Blue" class="cls-2" d="M763.16,649.57a13.61,13.61,0,1,1-13.6-13.6A13.56,13.56,0,0,1,763.16,649.57ZM740.4,159.94C679,131.52,590.62,113.47,507.51,120.19c4.16-27.53,14.45-46.68,31.32-50.72,23.22-5.57,48.55,9.7,72.7,37.51,15.82,2,34.58,5.66,47.64,8.67-44-82.83-103.1-129.25-148-112.12C477,16.57,459.5,63.6,461.58,126.81c-44.52,9.47-79.2,26.29-101.42,50.48-1.11,1.31-3.66,4.59-2.75,6.16.68,1.2,2.95-.14,3.92-.79,25.76-18,58.74-27.77,101.7-33.9,6.12,67.43,34.65,153,82,221.56-25.93,10.17-47.65,10.84-59.59-1.75-16.42-17.33-15.86-46.9-3.86-81.72-6.13-14.73-12.39-32.78-16.31-45.59-49.71,79.55-60.38,153.91-23.09,184.24,28.38,23.09,77.85,14.7,131.55-18.7,30.46,33.81,62.37,55.44,94.43,62.58,1.69.31,5.81.88,6.71-.69.69-1.19-1.6-2.49-2.65-3-28.48-13.3-53.42-37-80.21-71.13,55.34-39,115.13-106.48,150.87-181.82,21.77,17.38,33.21,35.86,28.27,52.49-6.79,22.89-32.68,37.19-68.83,44.21-9.69,12.67-22.2,27.11-31.33,36.91,93.74,3.28,163.48-24.66,171.1-72.13,5.8-36.12-26.19-74.75-82-104.56,14.06-43.29,16.83-81.74,7-113.07-.57-1.63-2.14-5.47-4-5.47-1.38,0-1.36,2.63-1.28,3.8C764.62,86.23,756.57,119.68,740.4,159.94ZM567.8,359.59C528.17,296,505.29,221,505.44,145.26h0c74.9-2.51,151.24,15.14,216.79,53.16h0C687,264.54,633.49,321.82,567.8,359.58Z"/><path id="_R_" data-name="(R)" class="cls-1" d="M1177,703.89a10.76,10.76,0,1,1,10.74-10.77A10.77,10.77,0,0,1,1177,703.89Zm0-19.83a9.08,9.08,0,1,0,9.07,9.06A9.08,9.08,0,0,0,1177,684.06Zm2.75,15.27-3.8-5.11h-1.3v5.11h-2.15V687h4.45c3.22,0,4.64,1,4.64,3.48a3.41,3.41,0,0,1-3.33,3.62l4.14,5.26Zm-1.07-10.42a4.93,4.93,0,0,0-2-.29h-2v4.11h2c1.91,0,2.83-.71,2.83-2.23A1.77,1.77,0,0,0,1178.64,688.91Z"/></g></g></g></svg>