<?xml version="1.0" encoding="UTF-8" standalone="no"?>
<svg
     id="svgngpicon"
     width="128"
     height="128"
     version="1.1"
     xmlns="http://www.w3.org/2000/svg"
     xmlns:svg="http://www.w3.org/2000/svg">
    <path
         id="ngpicon04"
         fill="#e81a2e"
         d="m 39.35482,73.139509 7.49516,-21.562179 19.90244,0.05961 0.16984,9.667243 -13.13539,-0.105435 -2.68354,9.923523 13.48752,9.737041 C 71.23741,78.134052 75.98156,72.205771 76.95709,65.406592 77.93263,58.607408 74.9834,52.025238 69.2696,48.249463 63.55582,44.473668 56.02123,44.225428 49.58243,47.414374 L 27.92267,58.141791 60.56453,123.78799 52.0601,128 15,53.468361 45.82864,38.199891 c 10.09845,-5.001461 22.11601,-3.788917 30.7011,3.097645 8.58506,6.886577 12.14043,18.165956 9.08281,28.815246 -3.05761,10.649311 -12.55696,18.553661 -22.65852,21.728079 z" />
    <path
         id="ngpicon03"
         fill="#e81a2e"
         d="m 64.22359,0 -3.46156,25.648449 6.50353,1.256253 9.1259,-25.1250148 z" />
    <path
         id="ngplogo02"
         fill="#00adf7"
         d="M 106.8112,23.450012 88.24466,39.990643 92.54539,46.37658 113,33.604702 Z" />
    <path
         id="ngplogo01"
         fill="#008c84"
         d="M 89.7132,8.0609414 76.91595,30.254699 82.58029,34.023452 98.73424,14.446884 Z" />
</svg>
