<?xml version="1.0" encoding="UTF-8" standalone="no"?>
<svg xmlns="http://www.w3.org/2000/svg" xmlns:svg="http://www.w3.org/2000/svg" id="svgggicon" width="128" height="126" version="1.1">
  <g id="ggicon">
    <path id="ggicon03" fill="#000000" d="m 38.918073,125.83483 c -2.819956,-0.58945 -4.998631,-1.95841 -6.731582,-4.2298 -1.038559,-1.36124 -1.92243,-3.36061 -2.358374,-5.33477 -0.732296,-3.31622 -0.707998,-7.45819 0.06547,-11.16085 1.129307,-5.406092 4.132853,-10.168221 7.849436,-12.445306 2.618215,-1.604134 5.951973,-2.22617 9.366063,-1.747584 3.897533,0.546353 7.005762,2.603945 8.507991,5.632143 0.773588,1.559397 1.222245,3.511727 1.302061,5.665917 l 0.04015,1.08353 h -3.434847 -3.434842 l -0.0012,-0.37197 c -6.85e-4,-0.20457 -0.04205,-0.6776 -0.09192,-1.05118 -0.244516,-1.83176 -0.924002,-2.930961 -2.222946,-3.596059 -0.869856,-0.445392 -2.357875,-0.67261 -3.601368,-0.549922 -2.389792,0.235786 -4.221675,1.494483 -5.630066,3.868441 -1.024661,1.72716 -1.881106,4.26922 -2.181624,6.47538 -0.746073,5.47711 0.587482,9.54875 3.509295,10.71468 0.715729,0.28561 1.2635,0.37789 2.249356,0.37894 3.027364,0.003 4.983503,-1.28767 6.450368,-4.25666 0.275898,-0.55844 0.751909,-1.76475 0.751909,-1.9055 0,-0.046 -1.021714,-0.0675 -3.205328,-0.0675 -3.021888,0 -3.203541,-0.006 -3.174143,-0.11321 0.01715,-0.0622 0.255748,-1.47408 0.530222,-3.13738 l 0.499038,-3.0242 h 6.228229 c 3.926909,0 6.228228,0.0229 6.228228,0.062 0,0.2374 -1.123503,6.43403 -1.255461,6.92442 -1.024544,3.80763 -2.953562,7.12874 -5.278372,9.08758 -0.831476,0.70059 -1.505612,1.12631 -2.976414,1.87962 -2.647794,1.35616 -2.776954,1.38976 -5.321106,1.38412 -1.775348,-0.004 -1.964077,-0.0156 -2.678183,-0.16481 z M 55.23688,125.1144 c 0.04851,-0.24085 5.480085,-33.425509 5.480085,-33.48103 0,-0.02416 3.88742,-0.04394 8.638708,-0.04394 h 8.638709 l -0.03365,0.210238 c -0.01851,0.11563 -0.255948,1.680292 -0.527644,3.477021 l -0.493992,3.266785 -5.440451,0.01653 -5.440453,0.01653 -0.546112,3.040006 -0.546113,3.04001 h 4.885716 4.88572 l -8.4e-5,0.14555 c -4.7e-5,0.0801 -0.216116,1.53656 -0.480153,3.23669 -0.264035,1.70011 -0.480067,3.10467 -0.480067,3.12121 0,0.0166 -2.2183,0.0301 -4.929557,0.0301 -3.900261,0 -4.929837,0.0169 -4.930888,0.0809 -7.29e-4,0.0445 -0.283409,1.6601 -0.62818,3.59024 l -0.626853,3.50936 h 5.55896 5.558958 l -0.03251,0.14554 c -0.03619,0.16209 -1.058282,6.66488 -1.058282,6.73305 0,0.0237 -3.934732,0.0431 -8.743851,0.0431 H 55.20104 Z m 19.949455,-4.62525 c 1.05157,-2.64173 4.068911,-10.21759 6.705197,-16.83524 l 4.793245,-12.032125 3.597338,-0.01671 c 1.978535,-0.0092 3.597337,-0.0041 3.597337,0.01132 0,0.01542 0.84987,7.575327 1.888597,16.799785 1.038729,9.22448 1.888599,16.79552 1.888599,16.82454 0,0.029 -1.41885,0.0452 -3.152998,0.036 l -3.152998,-0.0168 -0.267403,-3.10506 c -0.147072,-1.70776 -0.26951,-3.17054 -0.272086,-3.25059 l -0.0047,-0.14557 h -4.311527 -4.311529 l -1.178207,3.26564 -1.178209,3.26562 -3.276312,9.9e-4 -3.276312,0.001 z m 15.105288,-7.66563 c -0.0085,-0.56366 -1.12959,-13.23267 -1.16572,-13.173814 -0.08097,0.131904 -4.785467,13.167744 -4.785467,13.260214 0,0.0776 0.453243,0.0915 2.97694,0.0915 h 2.976942 z m 8.09617,12.29088 c 0.05288,-0.25358 5.478817,-33.397986 5.478817,-33.467436 0,-0.07999 11.58693,-0.07211 12.35591,0.0084 3.1949,0.334498 5.30722,1.845342 6.23873,4.462295 0.84599,2.376636 0.87524,5.756641 0.0709,8.185651 -0.80759,2.43864 -2.86334,4.92624 -5.32935,6.44894 -0.29266,0.18069 -0.5321,0.3529 -0.5321,0.3827 0,0.0545 5.36325,14.0167 5.41937,14.10846 0.0164,0.0269 -1.62111,0.0485 -3.63901,0.048 l -3.66896,-8.4e-4 -2.46518,-6.41951 -2.46519,-6.41952 -1.45719,-0.0174 -1.45716,-0.0174 -0.0537,0.14677 c -0.0295,0.0807 -0.52415,2.9777 -1.09931,6.43774 l -1.04572,6.291 h -3.19402 -3.194014 z m 14.097157,-18.80994 c 1.81101,-0.31445 3.17887,-1.21364 3.74254,-2.46024 0.33537,-0.74165 0.40735,-1.13615 0.40655,-2.22802 -0.002,-2.097061 -0.50921,-2.890511 -2.14006,-3.344904 -0.36582,-0.101926 -0.7063,-0.115944 -2.81618,-0.115944 h -2.40005 l -0.68431,3.881338 c -0.37637,2.13471 -0.70333,3.99048 -0.72658,4.1239 l -0.0423,0.24257 h 2.0459 c 1.54304,0 2.18562,-0.0243 2.61445,-0.0987 z M 11.037255,89.832061 C 9.5045445,89.686187 7.9856982,89.252826 6.651869,88.580813 5.6000893,88.0509 4.7856366,87.463532 3.9617666,86.640749 1.7480745,84.429981 0.50090252,81.448128 0.07916916,77.35791 c -0.10591511,-1.027232 -0.10545415,-4.10418 7.6824e-4,-5.175102 0.36593972,-3.689152 1.2171081,-6.656149 2.6961998,-9.398399 1.9951716,-3.699061 4.6133776,-6.181184 7.7976468,-7.39235 2.317491,-0.881479 5.507736,-1.076968 8.230101,-0.504317 2.287605,0.481199 4.275119,1.531015 5.804761,3.066111 1.843499,1.850067 2.854557,4.578934 2.988989,8.067351 l 0.04051,1.051192 H 24.203238 20.76833 v -0.406004 c 0,-0.223299 -0.02944,-0.643219 -0.06542,-0.933153 -0.288873,-2.327882 -1.285694,-3.523061 -3.39273,-4.067859 -0.391616,-0.101255 -0.707052,-0.123874 -1.727492,-0.123874 -1.452728,0 -1.975983,0.101722 -2.984793,0.580249 -0.829389,0.393422 -1.316212,0.74329 -1.982729,1.424934 -1.8285999,1.870108 -3.214971,5.251242 -3.6494597,8.900438 -0.1287594,1.081424 -0.1461423,3.343542 -0.032518,4.231552 0.1019933,0.797101 0.373738,1.898542 0.6396345,2.592577 0.5267888,1.375006 1.53508,2.599663 2.5681442,3.119231 0.686769,0.345402 1.383515,0.52383 2.240708,0.573816 1.653423,0.09642 3.286087,-0.334005 4.449851,-1.173121 0.876248,-0.631809 1.861974,-1.899799 2.461243,-3.166029 0.282404,-0.596712 0.707315,-1.710834 0.707315,-1.854595 0,-0.03546 -1.290139,-0.05954 -3.190017,-0.05954 h -3.190016 l 0.516369,-3.137407 0.51637,-3.137404 h 6.226771 c 4.410026,0 6.226771,0.02035 6.226771,0.06976 0,0.03837 -0.244466,1.473816 -0.543256,3.189889 -0.682428,3.919445 -0.99088,5.058534 -1.959809,7.237426 -1.332948,2.997485 -3.307874,5.353367 -5.643334,6.731909 -0.976142,0.576184 -3.306797,1.70287 -3.890509,1.88075 -1.107036,0.337361 -2.47435,0.434384 -4.032175,0.28612 z m 11.779726,-0.80046 c 0,-0.01923 2.878314,-7.260338 6.396254,-16.091333 3.517938,-8.830994 6.53149,-16.398396 6.696776,-16.816447 l 0.300523,-0.760094 h 3.578472 c 1.968161,0 3.581199,0.0073 3.584531,0.01617 0.0033,0.0089 0.860738,7.584759 1.905348,16.835253 l 1.899286,16.819081 -3.131792,0.01679 c -1.722485,0.0092 -3.145726,0.0027 -3.162761,-0.0145 -0.01703,-0.01721 -0.155594,-1.480264 -0.307912,-3.251228 -0.152318,-1.770962 -0.277899,-3.227415 -0.27907,-3.23656 -0.0012,-0.0091 -1.937648,-0.0091 -4.303285,0 l -4.301154,0.01663 -1.184722,3.250612 -1.184721,3.250612 h -3.252887 c -1.789088,0 -3.252886,-0.01574 -3.252886,-0.03498 z M 39.782345,76.581808 c 0,-0.106646 -0.244877,-3.093048 -0.544171,-6.636448 -0.299296,-3.543398 -0.546523,-6.476299 -0.549395,-6.517555 -0.0029,-0.04126 -0.04685,0.02128 -0.09773,0.138977 -0.147713,0.341697 -4.762587,13.08302 -4.762587,13.149149 0,0.03573 1.197902,0.05978 2.976942,0.05978 h 2.976941 z m 8.276241,12.306878 c 0.01849,-0.09784 1.268024,-7.666429 2.776724,-16.819082 L 53.5784,55.428416 h 4.273507 c 2.350426,0 4.271976,0.02183 4.270109,0.04852 -0.01535,0.219352 1.898065,23.613364 1.928418,23.577463 0.02182,-0.02581 2.18323,-5.366378 4.803139,-11.867935 l 4.763471,-11.821015 2.208699,0.0081 c 1.214784,0.0045 3.145417,0.02591 4.29029,0.04766 l 2.081593,0.03954 -2.785815,16.802659 -2.785817,16.80266 -2.992945,2.54e-4 c -1.64612,1.35e-4 -2.992946,-0.01812 -2.992946,-0.04056 0,-0.02244 1.0535,-5.847298 2.34111,-12.944118 1.287613,-7.096818 2.331436,-12.913085 2.319608,-12.925035 -0.01183,-0.01195 -2.354533,5.812414 -5.206016,12.943032 l -5.184513,12.964759 -2.480785,0.0011 -2.480785,0.0011 v -0.150054 c 0,-0.171719 -2.150917,-24.930372 -2.211496,-25.455977 -0.02187,-0.189785 -0.04856,-0.335334 -0.05929,-0.323446 -0.01074,0.01189 -0.821432,5.850886 -1.80154,12.975546 l -1.782018,12.953913 h -3.034714 -3.034713 z m 30.77615,0.129376 c 3.7e-5,-0.04117 5.369557,-32.842472 5.474742,-33.444096 l 0.03676,-0.210239 h 8.607823 8.607829 v 0.145086 c 0,0.137822 -0.92941,6.389614 -0.99539,6.695753 l -0.0314,0.14555 h -5.440492 c -2.992276,0 -5.4405,0.02225 -5.4405,0.04944 0,0.0631 -1.009944,5.691102 -1.056198,5.885752 l -0.03459,0.14555 h 4.898768 4.898768 v 0.136008 c 0,0.0748 -0.216068,1.517569 -0.480152,3.206141 -0.264083,1.688572 -0.480151,3.09742 -0.480151,3.130776 0,0.03721 -1.905108,0.06064 -4.92956,0.06064 -2.711256,0 -4.929558,0.01847 -4.929558,0.04105 0,0.02258 -0.273687,1.588332 -0.608194,3.479453 -0.334505,1.89112 -0.60819,3.488251 -0.60819,3.549177 0,0.103718 0.350852,0.110776 5.505739,0.110776 5.200219,0 5.505839,0.0063 5.507488,0.113207 9.61e-4,0.06226 -0.235012,1.619645 -0.524385,3.460849 l -0.52613,3.347645 h -8.726541 c -4.799597,0 -8.726522,-0.02183 -8.726498,-0.04852 z"/>
    <path id="ggicon02" fill="#0098fc" d="m 90.998542,45.081285 c -2.455301,-0.259578 -4.091197,-1.47244 -4.846612,-3.593299 -0.345477,-0.969942 -0.49866,-2.858116 -0.343932,-4.239366 0.631117,-5.633868 4.585043,-13.291457 10.436791,-20.212993 1.835018,-2.170483 4.707271,-5.15858 6.533481,-6.796959 3.61973,-3.2474672 7.04058,-5.6892226 10.4673,-7.4714437 4.36805,-2.27180497 7.9988,-3.08488464 10.68041,-2.39180912 2.22147,0.57416463 3.56763,2.14826872 3.98283,4.65732652 0.16014,0.9677893 0.10332,2.8704026 -0.12278,4.1108552 -0.55109,3.0235081 -1.88927,6.4208451 -3.97493,10.0914491 -3.32887,5.858571 -8.3637,11.90373 -13.92925,16.724429 -5.06815,4.389861 -10.33669,7.499147 -14.684797,8.666389 -1.403661,0.376812 -3.15015,0.566257 -4.198511,0.455421 z"/>
    <path id="ggicon01" fill="#00cb98" d="M 51.49805,45.081533 C 49.278976,44.845849 47.7324,43.829085 46.917577,42.070199 46.066664,40.233402 46.017505,37.80093 46.769854,34.760367 49.405492,24.108625 60.989873,10.024076 72.56071,3.4032637 c 2.862119,-1.6376998 5.720903,-2.73806868 8.130571,-3.12952634 1.00558,-0.16335856 2.673547,-0.15159813 3.431633,0.0242001 2.675313,0.62037181 4.118144,2.42296324 4.37777,5.46933234 0.345377,4.0525576 -1.858191,10.1224532 -5.922543,16.3140982 -2.408359,3.668899 -5.115613,6.98425 -8.479627,10.384302 -6.238889,6.305723 -13.006006,10.756762 -18.535178,12.191427 -1.412693,0.366553 -3.025176,0.534904 -4.065286,0.424436 z" style="stroke-width:0.0643536"/>
    <path id="ggicon00" fill="#fd0000" d="M 10.845196,45.204562 C 8.1821262,44.871299 6.4781399,43.184457 6.0174501,40.425395 5.8878091,39.648971 5.8832253,37.911398 6.0082952,36.953246 6.7571119,31.21652 10.662255,23.620414 16.480692,16.582807 c 2.636263,-3.188653 6.007553,-6.574016 8.993129,-9.0306834 6.396365,-5.2632016 12.787632,-8.0902821 16.880601,-7.46686991 4.151282,0.63228749 5.666541,4.50144591 4.142816,10.57853031 -1.489202,5.939411 -5.65147,13.08507 -11.49891,19.740989 -1.100728,1.252916 -3.731095,3.940037 -4.942333,5.048968 -5.850352,5.356215 -11.726524,8.807929 -16.387561,9.626195 -0.864478,0.151761 -2.152175,0.208605 -2.823238,0.124626 z" style="stroke-width:0.0643536"/>
  </g>
</svg>
