<?xml version="1.0" encoding="UTF-8" standalone="no"?>
<!-- Created with Inkscape (http://www.inkscape.org/) -->

<svg
   width="169.33333mm"
   height="47.973206mm"
   viewBox="0 0 169.33333 47.973206"
   version="1.1"
   id="svg329"
   xmlns="http://www.w3.org/2000/svg"
   xmlns:svg="http://www.w3.org/2000/svg">
  <defs
     id="defs326" />
  <g
     id="layer1"
     transform="translate(43.397074,-42.32693)">
    <g
       id="g474"
       transform="matrix(3.9428533,0,0,3.9428533,-121.45037,-195.15101)">
      <path
         fill="#ffffff"
         d="m 23.760133,65.929629 v 0.03545 c 1.591204,0.02963 2.766219,0.346075 3.52425,0.949325 0.75856,0.602721 1.137973,1.332177 1.137973,2.187311 0,0.954352 -0.431006,1.742545 -1.295136,2.362729 -0.862277,0.622035 -2.011362,0.932656 -3.443552,0.932656 -1.237985,0 -2.194189,-0.248179 -2.871523,-0.742421 -0.677333,-0.494241 -1.016,-1.056481 -1.016,-1.689629 0,-0.419629 0.151607,-0.760148 0.455348,-1.017587 0.303213,-0.25744 0.667544,-0.384969 1.091407,-0.384969 0.397933,0 0.740039,0.113241 1.023143,0.33655 0.284957,0.225954 0.42545,0.52361 0.42545,0.89191 0,0.492125 -0.329406,0.904611 -0.989806,1.237721 -0.129117,0.06482 -0.195792,0.138642 -0.195792,0.220398 0,0.151606 0.18468,0.284692 0.556684,0.40005 0.370152,0.114565 0.747448,0.170127 1.135856,0.170127 1.271323,0 1.907646,-0.934244 1.907646,-2.802996 0,-1.850231 -0.764381,-2.775214 -2.290498,-2.775214 l -1.267619,0.05133 c -0.255323,0 -0.384704,-0.09393 -0.384704,-0.282575 0,-0.216429 0.134938,-0.325438 0.403225,-0.325438 l 0.923131,0.03519 c 0.941917,0 1.572419,-0.209285 1.892829,-0.629444 0.321469,-0.418041 0.480748,-1.013883 0.480748,-1.786996 0,-0.795866 -0.120385,-1.382448 -0.362743,-1.756304 -0.242359,-0.375708 -0.658548,-0.562239 -1.246982,-0.562239 -0.319881,0 -0.621506,0.05345 -0.903023,0.162454 -0.281252,0.107421 -0.423862,0.212989 -0.423862,0.318558 0,0.09737 0.09287,0.199761 0.277812,0.305065 0.484453,0.309033 0.728928,0.643996 0.728928,1.004623 0,0.355335 -0.134938,0.636058 -0.407194,0.84746 -0.271727,0.208756 -0.577321,0.314325 -0.91784,0.314325 -0.392112,0 -0.742156,-0.120385 -1.049073,-0.35851 -0.307446,-0.240771 -0.463021,-0.536575 -0.463021,-0.894027 0,-0.60669 0.342636,-1.132153 1.026848,-1.574536 0.684742,-0.443971 1.561571,-0.665956 2.634986,-0.665956 1.185862,0 2.185193,0.251354 2.998787,0.753269 0.815975,0.501385 1.223169,1.143 1.223169,1.929606 0.0021,1.546489 -1.439333,2.481527 -4.319852,2.802731 z"
         id="path10"
         style="stroke-width:0.264583" />
      <path
         fill="#ffffff"
         d="m 38.123039,60.96631 v 10.638632 h 1.041929 c 1.593056,0 2.555081,-0.418042 2.88634,-1.252538 0.331258,-0.836083 0.496093,-2.264569 0.496093,-4.286779 0,-1.581944 -0.102129,-2.719917 -0.305329,-3.410479 C 42.04046,61.96379 41.731426,61.508442 41.318941,61.292277 40.905926,61.075583 40.380993,60.966575 39.746258,60.966575 H 38.123039 Z M 34.905706,71.604942 V 60.96631 h -1.668727 v -0.575733 h 6.686285 c 1.93384,0 3.465512,0.547688 4.592373,1.644915 1.126596,1.095639 1.690952,2.47941 1.690952,4.150254 0,0.865452 -0.17145,1.681956 -0.515938,2.442104 -0.344223,0.762264 -0.873389,1.456267 -1.5875,2.07936 -0.714375,0.623623 -1.447006,1.024996 -2.198158,1.204648 -0.751417,0.179388 -1.672696,0.268817 -2.768335,0.268817 h -5.899944 v -0.575733 z"
         id="path12"
         style="stroke-width:0.264583" />
      <path
         fill="#ffffff"
         d="m 59.082801,66.29105 c 0,-1.805517 -0.03757,-2.995613 -0.111389,-3.5687 -0.07541,-0.575733 -0.268288,-1.038225 -0.578909,-1.390121 -0.310885,-0.351102 -0.823118,-0.52705 -1.535906,-0.52705 -0.600869,0 -1.080294,0.142611 -1.437746,0.425715 -0.357452,0.284691 -0.578908,0.740039 -0.667808,1.367366 -0.08678,0.626798 -0.131233,1.852084 -0.131233,3.674534 0,1.803664 0.03704,2.999052 0.112712,3.581929 0.07408,0.582877 0.274108,1.047485 0.598223,1.39356 0.32385,0.346075 0.832379,0.518054 1.526381,0.518054 0.575469,0 1.045104,-0.138377 1.407848,-0.416454 0.362744,-0.2794 0.590021,-0.730779 0.681038,-1.358106 0.09234,-0.627856 0.136789,-1.861608 0.136789,-3.700727 z m -8.122443,-0.05001 c 0,-1.763448 0.580495,-3.206486 1.747043,-4.329642 1.163109,-1.120775 2.560638,-1.681427 4.188354,-1.681427 1.512094,0 2.86438,0.52705 4.05765,1.581944 1.194065,1.054629 1.789642,2.555081 1.789642,4.500033 0,1.822715 -0.562504,3.284008 -1.691481,4.383087 -1.128713,1.09855 -2.507192,1.648355 -4.135173,1.648355 -1.759479,0 -3.193521,-0.584994 -4.297892,-1.750219 -1.1049,-1.166283 -1.658143,-2.616465 -1.658143,-4.352131 z"
         id="path14"
         style="stroke-width:0.264583" />
    </g>
  </g>
</svg>
