<?xml version="1.0" encoding="UTF-8" standalone="no"?>
<svg xmlns="http://www.w3.org/2000/svg" xmlns:svg="http://www.w3.org/2000/svg" id="svgjaguaricon" width="128" height="128" version="1.1">
  <path id="jaguaricon" fill="#ed1c24" d="m 89.566317,69.330217 c -0.123366,1.009014 -0.570153,1.918781 -1.140307,2.755767 -0.246733,-0.04962 -0.223394,-0.443305 -0.546814,-0.516086 0.02667,-0.122405 0.17338,-0.195187 0.246733,-0.294434 0.123367,0 0.223394,-0.02647 0.296747,-0.122405 0.373434,-0.664957 -0.07335,-1.796377 0.84356,-2.067653 0.100027,0.04632 0.200054,0.145563 0.300081,0.244811 m 7.538699,-5.905216 c 0.4968,0.416839 0.916914,0.886609 0.893574,1.5251 0.8669,1.501943 2.33063,2.557273 3.57096,3.665535 0.39678,0.714581 0.8669,1.402695 1.38704,2.067652 1.04028,-0.443304 1.66045,0.737739 2.30729,1.353072 -0.12337,0.764204 0.8669,0.909767 1.31369,1.353072 0.37343,-0.148871 0.59683,0.221652 0.64351,0.539244 0.84356,0.344057 1.21366,1.425853 2.15724,1.5251 0.37344,0.737739 1.43706,0.420147 1.48707,1.303448 0.79355,0.615334 1.68712,1.081796 2.43066,1.647506 -0.0734,0.492928 0.72019,0.221652 0.67018,0.764204 0.37343,0.271276 0.74353,0.787362 1.29034,0.711273 0.10003,0.71458 0.89358,0.71458 1.31369,1.058638 2.25728,1.895624 4.8113,3.592753 6.96855,5.561158 -0.32342,0 -0.59683,-0.198495 -0.89358,-0.294434 -5.87825,-4.575301 -12.09992,-8.611359 -17.90482,-13.457936 -0.32342,-0.172029 -0.34676,-0.539244 -0.4968,-0.836986 -2.00721,-0.271276 -3.07417,-2.434868 -4.761287,-3.543129 -0.620167,-1.673972 -2.950795,-2.041187 -3.147515,-3.887187 -0.620167,-0.56571 -1.710461,-0.344058 -2.007207,-1.303448 -0.17338,-0.07278 -0.17338,-0.3209 -0.246734,-0.466463 -0.34676,-0.344057 -1.3637,-0.24481 -1.066954,-0.95939 0.916914,-0.466463 1.660448,0.565709 2.554022,0.71458 0.420113,0.416839 1.04028,0.638491 1.537081,0.959391 m -0.943588,-3.199072 c 0.273407,0.172029 0.546814,0.393681 0.893574,0.416839 1.116968,1.697129 3.074158,2.828548 4.167788,4.601767 0.54682,0.492929 1.51374,0.638491 1.66045,1.475477 1.11697,0.909767 2.50401,1.819534 3.15085,3.076667 0.77021,0.393681 1.46373,0.886609 2.28061,1.108262 2.25728,1.76991 3.96774,3.665534 6.05163,5.607473 1.34037,1.525101 3.14752,1.869158 4.58791,3.076667 0.99027,0.936233 2.30729,1.869158 3.05082,2.954262 -0.05,0.09925 -0.27341,0.09925 -0.37343,0 -3.10084,-2.65652 -6.49509,-4.701015 -9.57258,-7.430316 -0.44679,0.04962 -0.84356,-0.294434 -1.19032,-0.588867 -2.03389,-1.032173 -3.32423,-3.642377 -5.60485,-4.208087 -0.69352,-1.230667 -1.96053,-1.968405 -3.15085,-2.65652 -0.94359,-0.367215 -1.04028,-1.574724 -1.96053,-1.819534 -0.273403,-0.344057 -0.770204,-0.370523 -0.89357,-0.836986 -0.893574,-0.985856 -1.783814,-2.09081 -2.927456,-2.706143 -0.34676,-0.344058 -0.52014,-0.737739 -0.770208,-1.13142 -0.396773,-0.07278 -1.090293,0.221653 -1.3637,-0.344057 -0.396774,0 -0.843561,0.07278 -1.066955,-0.294434 0.05001,-0.416838 0.446787,-0.638491 0,-1.009014 0.470127,-1.230667 1.513742,0.09925 2.307289,0 0.326755,0.142254 0.573488,0.387064 0.723528,0.707964 m 5.951602,-14.933413 c 1.29035,-0.02316 2.43066,1.055329 3.57096,1.773218 1.36371,1.154578 2.03389,2.606897 1.96053,4.35365 -0.15004,3.321476 -3.5943,5.878749 -6.29836,7.208663 0.22339,0.367215 0.69352,0.688115 1.06695,0.959391 1.19032,1.157885 2.00721,2.755767 3.39759,3.837563 0.39677,0.836986 1.43705,0.886609 2.08389,1.574724 0.96693,1.697129 2.85077,2.190058 3.91772,3.738316 1.29035,1.108262 2.5807,2.461333 3.99108,3.420724 0.62017,1.13142 1.91051,0.88661 2.43065,2.117276 0.34676,0.122405 0.5935,0.492929 0.7202,0.764205 -0.79355,0.711272 -1.3637,-0.764205 -2.0839,-1.058638 -0.54681,-0.344058 -0.96692,-0.836986 -1.53708,-1.230667 -2.60403,-2.018029 -4.86131,-4.085682 -7.56204,-5.855592 -0.84356,-0.420147 -1.41371,-1.379538 -2.03388,-2.117276 -1.48706,-0.416839 -1.93385,-2.018029 -3.14751,-2.828549 -0.19672,-0.370523 -0.52014,-0.737738 -0.82022,-1.009014 -0.0233,0.420147 -0.4968,0.271276 -0.67018,0.04962 -0.44679,-0.565709 -1.213665,-0.787362 -1.710465,-1.230666 0.200054,-0.615334 -0.52014,-0.221653 -0.71686,-0.416839 -0.296747,-0.367215 -0.670181,-0.787362 -1.066954,-1.009015 -0.296747,0.148871 0,0.3209 0.05001,0.469771 0.943588,0.664957 1.213661,2.067653 2.380649,2.312463 1.11696,1.230666 2.3573,2.190057 3.57096,3.199072 -0.10003,0.122405 -0.37344,0.07278 -0.54682,0.172028 2.35731,1.13142 4.16446,3.566287 6.44841,4.896201 0.8669,0.81052 1.76047,1.574725 2.48067,2.362087 0.05,0.07278 -0.10003,0.09925 -0.05,0.172028 3.05083,2.041187 5.48148,5.31304 8.75236,7.036635 0.10003,0.24481 -0.17338,0.271276 -0.29674,0.172029 -3.52095,-2.213215 -6.5451,-5.266724 -10.11606,-7.380692 -2.97747,-2.190058 -4.95801,-5.339506 -8.28224,-6.963854 -0.10002,-0.56571 -0.69352,-0.539244 -1.06695,-0.764204 -0.37343,-0.542552 -1.166984,-1.009015 -1.190324,-1.723595 -0.52014,-0.56571 -1.487067,-0.81052 -1.737135,-1.647506 -0.470126,-0.24481 -0.893574,-0.714581 -1.487067,-0.542552 -0.420113,-0.271276 -0.620167,-0.936233 -1.190321,-1.009014 -0.100027,-0.221653 -0.423448,-0.198495 -0.396774,-0.466463 0.520141,-0.07278 0.34676,-0.737738 0.893575,-0.813828 0.446787,0.24481 0.943587,0.221653 1.413714,0.04962 0.396774,-0.764205 -0.720194,-0.959391 -1.016941,-1.525101 -0.223393,-0.320899 0.19672,-0.638491 0.246733,-0.787362 0.816887,-0.02316 1.290348,1.597882 2.207262,0.959391 0.223393,0 0.320086,0.271276 0.593493,0.172029 0.593493,-0.982549 1.387045,-1.895624 2.130575,-2.828549 0.24674,-0.592176 0.77021,-1.154577 0.47013,-1.895624 -1.06696,-1.353072 -2.974139,-1.60119 -4.6846,-1.303448 -0.446787,0.393681 -1.340361,0.145563 -1.437054,0.88661 -0.07669,0.638491 -0.4968,1.108261 -0.770207,1.647505 -0.150041,-0.02316 -0.17338,-0.145563 -0.17338,-0.294434 0.123366,-0.07278 -0.100027,-0.195186 -0.173381,-0.221652 -0.770207,0.936233 -0.8669,2.262839 -1.38704,3.371101 -0.17338,0 -0.100027,-0.24481 -0.296747,-0.24481 -1.340361,4.009591 -2.107234,8.217678 -3.027482,12.399298 -0.100027,0.294434 -0.296747,0.416839 -0.54348,0.588868 -0.373434,-0.271276 0.296746,-0.936234 -0.34676,-1.13142 -0.793548,1.796377 -1.513742,3.615911 -2.330628,5.38913 -0.246734,-0.370524 0.02667,-0.714581 -0.223394,-1.058639 -0.34676,-0.07278 -0.52014,0.07278 -0.593493,0.344058 -0.34676,0.764204 -0.246733,1.819534 -0.893574,2.362086 0.02667,-0.172029 0.200053,-0.688115 0,-0.936233 -0.323421,0.221652 -0.296747,0.982548 -0.720195,0.764204 0,-0.516086 -0.543479,-1.108261 0,-1.551566 -0.716859,-0.985857 0.470127,-2.190058 0.843561,-3.248696 0.223394,-0.172028 0.69352,-0.294433 0.296747,-0.638491 0.246733,-0.271276 -0.150041,-1.058638 0.396773,-1.009014 0.320087,-0.221653 0.02334,-0.370524 -0.17338,-0.466463 0.423448,-0.909767 0.593494,-1.918781 1.016941,-2.828548 0.420113,-0.148871 0.743534,-0.492929 0.770208,-0.959391 -0.323421,-0.04962 -0.246734,-0.443305 -0.17338,-0.638491 0.793547,-2.190058 1.240334,-4.528986 2.257275,-6.619796 0.123366,-0.466463 0.196719,-1.104954 0.593493,-1.525101 0.15004,-0.813828 0.620167,-1.452319 0.770208,-2.239681 -1.040281,0.195186 -2.057222,1.551566 -3.270882,0.886609 0.02334,-1.230666 -1.587094,0.195187 -1.537081,-1.009014 -0.100027,-0.737738 -0.993601,-0.07278 -1.190321,-0.764204 0,-0.492929 0.273407,-0.737739 0.17338,-1.181043 0.446787,0.221652 0.71686,-0.3209 1.140308,-0.294434 0.470126,-0.367215 0.246733,-1.032172 0.643506,-1.425853 1.016941,-0.24481 1.883841,-0.982549 2.850769,-1.13142 0.123366,-0.172028 0.223393,-0.420147 0.4968,-0.393681 0.496801,0.02647 0.990267,-0.294434 1.487068,-0.416839 0,0.02316 0.02667,0.02316 0.05001,0.04962 0.496801,-0.317591 1.190321,-0.294434 1.610434,-0.711272 1.016941,-0.09925 1.983868,-0.688115 2.974135,-0.516086 0.670181,-0.122405 1.613769,0.04962 2.133909,-0.588868 0.52014,-0.367215 1.140307,0.24481 1.660444,-0.294434 0.56348,0.360599 1.45706,-0.254734 2.02721,0.287818 m -69.505394,5.78281 c -0.05001,0.09925 -0.17338,0.172029 -0.17338,0.294434 -0.15004,0.172029 -0.446787,0.836986 -0.670181,0.24481 -1.240334,1.968405 -2.280614,4.009592 -3.324229,6.077244 -0.07335,0.148871 -0.07335,0.3209 0,0.469771 0.593493,0.122405 0.52014,-0.344058 0.720194,-0.6418 0.34676,-0.195186 0.743534,-0.416838 1.190321,-0.24481 0.496801,-0.737738 1.413714,-0.95939 2.180588,-1.303448 -0.04668,-1.673971 0.15004,-3.225538 0.07669,-4.896201 m 3.867709,-5.365972 c 0.273407,0.516086 -0.420113,1.769911 0.593493,1.69713 0.520141,0.909767 0.02667,1.991562 0.05001,3.027043 -0.546814,5.610782 -0.670181,11.638402 -0.593493,17.295499 -0.123367,0.24481 0.100027,1.035481 -0.470127,0.714581 -0.273407,-0.271276 -0.296747,-0.813828 -0.643507,-0.886609 -0.423447,0.71458 -0.200054,1.624348 -0.423447,2.289305 -0.470127,-0.172029 -0.496801,-0.638491 -0.546814,-1.058638 0.470126,-0.787363 -0.743534,-1.181044 -0.420114,-2.067653 -0.34676,0.195186 0,0.909767 -0.296746,1.230667 -0.34676,0.09925 -0.396774,-0.344058 -0.596828,-0.592176 0.05001,-0.539244 -0.593493,-1.131419 -0.100027,-1.5251 0.34676,-0.88661 -0.593493,-1.425854 -0.246733,-2.239682 -0.05001,-1.597881 -0.123366,-3.493505 -0.17338,-5.018606 l -0.12338,-0.122394 c -1.487067,0.615334 -3.100835,1.157886 -4.587903,1.60119 -0.32342,0.145563 -0.593493,0.492929 -1.016941,0.466463 -1.587094,2.927796 -2.777415,6.02762 -4.214469,9.028198 0.07335,0.810519 -1.016941,0.982548 -0.84356,1.846 -0.19672,0.370523 -0.296747,0.836986 -0.593494,1.104953 -0.246733,-0.466462 0.546814,-1.081796 0,-1.5251 0.19672,-0.492929 0.396774,-1.058638 0.296747,-1.597882 -0.743534,1.032172 -1.166981,2.262839 -1.710461,3.420724 -0.246733,0.07278 -0.296747,-0.320899 -0.17338,-0.466462 0.146706,-0.294434 0.420113,-0.714581 0.223393,-1.009015 h -0.1267 c -0.470127,0.691423 -0.570154,1.673972 -1.363701,2.067653 0.196719,-0.641799 -0.100027,-0.936233 -0.05001,-1.525101 0,-0.71458 0.69352,-0.982548 0.643507,-1.597881 0.273407,-0.148871 -0.07335,-0.592176 0.373434,-0.592176 -0.02667,-0.3209 0.770208,-0.539244 0.34676,-0.836986 0.323421,-0.936233 0.920248,-1.796376 1.317022,-2.65652 0.34676,-0.294433 0.223393,-0.787362 0.643506,-1.05533 0.323421,-0.836985 0.743534,-1.723595 1.363701,-2.484491 -0.273407,-0.443305 0.520141,-0.466462 0.246734,-0.936233 0.100026,-0.271276 0.34676,-0.492928 0.423447,-0.764204 -0.223394,-0.172029 -0.993601,0.122405 -0.893574,-0.466463 0.123366,-0.172028 -0.200054,-0.172028 -0.296747,-0.24481 0.34676,-0.344057 0.943588,-0.542552 1.413715,-0.542552 0.100026,-0.271276 0.446787,-0.195186 0.67018,-0.294433 0.246733,-0.615334 1.016941,-1.13142 0.770208,-1.869158 0.396773,-0.271276 0.770207,-0.664957 0.770207,-1.081796 0,-0.959391 1.140308,-1.720287 1.263674,-2.583739 0.546814,-0.393681 0.643507,-1.131419 0.993601,-1.597882 0.496801,-0.09925 0.02334,-0.565709 0.546814,-0.588867 0.593494,-1.081796 0.720195,-2.41171 1.783815,-3.248696 0.396773,-0.565709 0.620167,-1.181043 0.770207,-1.819534 0.273407,-0.145562 0.420113,0 0.720194,-0.07278 0.223394,0.221652 0,0.836986 0.546814,0.714581 0.17338,-0.370524 0.02334,-1.230667 0.766874,-1.230667 0.596827,-0.02647 1.290347,0.320899 1.660447,-0.24481 0.340092,-0.205111 0.936919,-0.403606 1.307019,-0.05955 m 0.17338,-3.787939 c -0.100027,0.195186 -0.3701,0.195186 -0.546814,0.344057 -1.610434,0.24481 -3.297555,0.344058 -4.86131,0.714581 -0.246733,0.638491 0.446787,0.615333 0.816887,0.588868 0.123366,0.172028 0.34676,-0.04962 0.373434,0 0,0.737738 -1.190321,0.443304 -0.966928,1.303448 -0.620167,0.565709 -1.563754,0.344057 -2.207261,0.886609 0.05001,0.04962 0.100027,0.07278 0.123366,0.122405 -1.066954,0.420147 -2.180587,0.936233 -3.324229,1.058638 0.17338,0.416839 -0.470127,0.764205 -0.67018,1.009015 -0.71686,-0.04962 -1.240335,0.320899 -1.833828,0.588867 -0.713526,4.429739 -2.250607,8.538578 -3.514281,12.746664 -1.337027,2.510957 -2.057221,5.266725 -4.214469,7.456782 -2.207261,2.878172 -5.354776,6.226115 -9.3991999,5.018606 -2.3806416,-0.985856 -5.43146388,-1.846 -6.42173079,-4.628233 -0.02667385,-0.24481 0.19671969,-0.344057 0.39677361,-0.393681 0.17338006,-0.07278 0.12336658,0.09925 0.19671969,0.172029 0.29674665,0.172028 0.64350679,0.294433 0.69352029,0.71458 1.5137413,0.88661 2.8007548,2.289305 4.7612833,2.064345 3.694329,-0.390373 6.0516308,-4.155155 7.8121058,-6.987012 2.403981,-4.796954 3.694329,-10.086836 4.88465,-15.403184 -0.05001,-0.04962 -0.100027,-0.07278 -0.123367,-0.122405 -3.074162,0.271276 -6.051631,0.932925 -9.0991191,1.009014 C 9.3513638,49.940598 9.3013504,49.669322 9.1513099,49.421204 8.8278894,49.298799 8.3811023,49.69248 8.2577357,49.298799 8.4311158,49.249175 8.2310619,49.176394 8.2077223,49.12677 8.5811562,49.153236 8.851229,48.88196 9.0279433,48.584218 9.1279703,48.213695 8.6811832,48.164071 8.5078031,47.945727 8.26107,47.896104 8.0376764,47.84648 7.9609891,47.575204 c 0,-0.24481 0,-0.492928 0.2467332,-0.638491 0.3467601,-0.221652 1.3136874,0.24481 1.1136335,-0.420147 -0.2233936,-0.02316 -0.7935473,0.122405 -0.8168869,-0.344057 0.026674,-0.370524 0.073353,-0.714581 0.5201402,-0.664958 3.1741889,0.271276 5.9249299,-0.638491 9.0491059,-0.810519 4.487876,-0.615334 8.752359,-1.895624 13.166882,-2.484492 1.490402,-0.241501 2.977469,-0.463154 4.467871,-0.711272 0.3701,0 0.8669,-0.04631 0.940253,0.420147 m 42.724849,8.905793 c -1.290348,1.597882 -2.704062,3.149448 -3.497609,4.968982 h 0.17338 c 0.223393,-0.344057 1.066954,-0.122405 1.190321,-0.764204 0.620167,-0.195186 1.166981,-0.936233 1.910515,-0.466462 -0.246734,-0.516087 0.470126,-0.664957 0.05001,-1.009015 -0.05001,-0.271276 0.02667,-0.664957 0.34676,-0.764204 -0.07335,-0.638491 0.396774,-1.181043 0.373434,-1.846 -0.02667,0.09925 -0.19672,0.317591 -0.373434,0.294433 -0.123366,-0.09263 -0.19672,-0.218344 -0.17338,-0.41353 M 62.188938,44.822745 c -0.396773,0.638491 0.866901,0.959391 0.17338,1.574724 0.396774,0.271276 0.816887,0.122405 1.066955,0.664957 -0.423448,1.204201 -1.290348,2.239681 -1.783814,3.420724 -0.816887,0.542552 -0.446788,1.574725 -0.943588,2.239682 -0.8669,1.230666 -1.687122,2.484491 -2.033882,3.910344 -1.637108,2.140434 -2.430655,4.648083 -3.150849,7.185506 -0.123366,0.367215 -0.100027,0.886609 0.296747,1.081796 1.116967,0.145563 1.883841,-1.157886 2.727402,-1.597882 0.32342,-0.516086 1.01694,-0.664957 1.263673,-1.253825 1.213661,-1.108261 3.074162,-2.289304 3.197529,-4.009591 0.546814,-0.466463 0.05001,-1.353072 0.720194,-1.769911 0,-0.638491 0,-1.452319 0.596828,-1.697129 -0.150041,-0.466462 -0.273407,-0.982548 0.123366,-1.376229 -0.07335,-0.172029 0.123367,-0.271276 0.05001,-0.466463 0.17338,0.09925 0.373434,-0.145563 0.546814,-0.221652 0.643506,-0.443305 -0.546814,-0.764205 0.123366,-1.181043 0.420114,-0.542552 0.54348,-1.37623 1.116968,-1.673972 -0.19672,-0.344057 0.396774,-0.516086 0.373434,-0.886609 0.496801,-0.688115 0.743534,-1.551567 1.487067,-2.117276 0.296747,0.271276 0.866901,-0.04962 1.066955,0.466462 0.4968,-0.24481 0.916914,-0.271276 1.413714,0 0.17338,0.294434 0.446787,0.615333 0.296747,0.959391 -0.07335,0.172029 -0.273407,0.294434 -0.223394,0.516086 0.323421,0.172029 0.793547,0.294434 0.770208,0.764204 v 0.370524 c -2.504008,4.429738 -4.437863,9.077821 -6.074971,13.878083 -0.02667,0.443305 -0.223393,0.909767 -0.05001,1.353072 0.123366,0.294434 0.420113,0.664957 0.766873,0.714581 0.100027,0.09925 0.223393,0.271276 0.34676,0.122405 0.743534,-1.452319 2.083895,-2.510958 2.800755,-3.959968 -0.496801,0.07278 -1.066954,0.320899 -1.613768,0.466462 -0.07335,-0.393681 0.470126,-0.615333 0.4968,-1.05533 0.100027,-0.344057 -0.52014,-0.294434 -0.196719,-0.592175 0.52014,-0.294434 1.240334,-0.416839 1.487067,-0.959391 0.496801,-0.393681 1.263674,-0.344058 1.487067,-1.058638 1.263674,-0.271276 1.166982,-1.624348 1.983869,-2.362087 0.123366,-0.764204 0.943587,-1.181043 1.240334,-1.822842 0.100027,0.07609 0.223393,0.04962 0.296746,-0.07278 -0.200053,-0.909767 1.413715,-0.88661 1.240335,-1.945248 0.720194,-0.221652 0.620167,-0.982548 1.190321,-1.353072 0.423447,-0.565709 0.84356,-1.181043 1.490401,-1.60119 -0.07669,-0.145562 0.146707,-0.172028 0.123367,-0.294433 0.843561,-0.836986 2.257275,-1.353072 2.157248,-2.65652 0.02667,-0.344058 0.05001,-0.88661 0.470127,-1.108262 0.420113,0 0.816887,0.195186 1.116967,0.344057 0.02667,0.195187 -0.07335,0.56571 0.246734,0.542552 0.8669,0.221653 1.463727,0 2.257275,0.393681 0.123366,0.09925 0,0.271276 0.123366,0.370524 -1.687121,6.887764 -1.313687,14.860632 -2.380641,22.019672 0.15004,1.009014 -0.246734,2.09081 -0.123367,3.000577 -0.17338,0.122405 -0.15004,0.416839 -0.34676,0.294434 0.05001,-0.148871 -0.100027,-0.24481 -0.17338,-0.344058 0,-0.344057 0.100027,-0.886609 -0.200054,-1.181043 -0.05001,0.09925 -0.17338,0.122405 -0.296747,0.122405 -0.17338,-0.122405 -0.100027,-0.344057 -0.296746,-0.466462 0.570153,-0.172029 0.423447,-0.787362 0.373434,-1.181043 -0.373434,-0.02647 -0.296747,-0.443305 -0.470127,-0.664957 0.100027,-0.148871 0.593493,-0.122405 0.396773,-0.516086 -0.123366,-0.3209 -0.246733,0.145562 -0.470126,0 -0.123367,-0.271276 -0.273407,-0.56571 -0.17338,-0.836986 -0.34676,-0.492928 0.05001,-1.329914 -0.420114,-1.723595 0,-0.294434 0.273408,-0.664957 0,-0.936233 -0.296746,0.148871 -0.15004,0.688115 -0.34676,0.836985 -0.100027,-1.009014 -0.620167,-2.166899 0,-3.076666 -0.100027,-0.492929 -0.546814,-1.032173 -0.296746,-1.647506 -0.100027,-1.081796 0.223393,-2.312463 0.123366,-3.371101 -0.596827,-0.09925 -1.066954,0.443305 -1.687121,0.466463 -0.150041,0.344057 -0.593493,0.320899 -0.893574,0.466462 -0.866901,0.195187 -1.263674,1.181043 -2.180588,1.253825 -0.15004,0.148871 -0.3701,0.148871 -0.546814,0.221652 0,-0.04962 0.02334,-0.148871 -0.05001,-0.172029 -0.223393,0.294434 -0.8669,0.04962 -0.67018,0.592176 -0.296747,0 -0.496801,0.3209 -0.643507,0.539244 -1.190321,2.216523 -2.303954,4.452896 -3.694329,6.59333 -0.223394,0.615333 -0.720194,1.13142 -0.893574,1.769911 -0.100027,0.122405 -0.323421,0.04962 -0.34676,-0.04962 -0.223394,-0.294434 -0.496801,0.195186 -0.546814,0.344057 -0.570154,1.13142 -1.166982,2.362087 -2.083895,3.248696 -0.100027,0.04962 -0.17338,-0.04962 -0.246734,-0.09925 0.02667,-0.271276 0.200054,-0.516086 0.200054,-0.714581 -0.446787,0.370523 -0.720194,0.813828 -1.01694,1.230667 -0.570154,0.145562 -0.150041,-0.492929 -0.373434,-0.714581 -0.546814,0.542552 -0.720194,1.60119 -1.660448,1.60119 -0.05001,-0.271276 0.07335,-0.615333 0.123367,-0.936233 -0.200054,-0.195186 -0.423448,0.24481 -0.596828,-0.07278 0.123367,-0.492929 0.720194,-0.909767 0.843561,-1.475477 0.52014,-0.195187 0.373434,-0.959391 0.893574,-1.230667 -0.100027,-0.443305 0.34676,-0.516086 0.34676,-0.886609 0.52014,-0.492929 0.496801,-1.230667 1.066954,-1.723595 -1.216994,0.172028 -3.124175,1.425853 -3.991075,-0.221653 0.17338,-0.344057 0.02667,-0.764204 -0.296747,-0.959391 0.17338,-1.032172 -0.05001,-1.76991 0.373434,-2.706143 -0.05001,-0.492928 0.570154,-0.688115 0.296747,-1.13142 -1.263674,1.37623 -2.677389,2.778925 -4.117777,4.036058 -1.066954,0.516086 -2.280615,0.714581 -3.397582,0.09925 -0.420113,-0.24481 -0.396774,-0.688114 -0.69352,-0.985856 -0.446788,-1.968405 -0.3701,-3.986434 0.470126,-5.733187 0.470127,-0.982549 0.246733,-2.262839 0.943588,-3.122982 0.32342,-2.018029 1.413714,-3.715158 2.157248,-5.561159 0.446787,-1.058638 0.770208,-2.190057 1.537081,-3.12629 0.373434,-1.157886 0.820221,-2.434868 1.910515,-3.122983 0.17338,-0.09925 0.373434,-0.393681 0.593493,-0.195186 0.446787,0.122405 0.546814,-0.714581 1.066954,-0.393681 0.09669,0.07609 0.193386,0.175337 0.243399,0.297742 m -12.199955,2.461334 c 0.670181,0.172028 0.593494,1.230666 1.413715,0.886609 0.223393,-0.04962 0.4968,0.221652 0.296746,0.492928 -0.123366,0.07278 -0.273407,0.148871 -0.423447,0.221653 0.123367,0.24481 0.396774,0.565709 0.123367,0.836985 -0.743534,0.393681 -1.610434,0.420147 -2.430656,0.638491 -2.950795,1.108262 -6.148323,3.347943 -7.388658,6.44446 -0.620167,2.067652 -0.720194,4.724172 0.546814,6.543706 1.040281,1.058638 2.257275,2.190058 3.744343,2.434868 1.313687,0.294434 2.453995,-0.195186 3.397582,-1.009014 0,-0.294434 -0.593493,-0.443305 -0.246733,-0.714581 -0.69352,-0.836986 0.07335,-1.746753 -0.123366,-2.65652 0.246733,-0.959391 0.34676,-1.746753 0.720194,-2.65652 -0.546814,-0.04962 -1.066955,0.3209 -1.660448,0.344057 0.246733,-0.122405 0,-0.443304 -0.17338,-0.221652 -1.116968,0.516086 -2.307288,0.836986 -3.347569,1.5251 -0.15004,-0.02316 -0.423447,-0.145562 -0.223393,-0.344057 1.093628,-0.317591 0.67018,-1.76991 1.910515,-1.846 0.17338,-0.737738 1.066954,-0.836986 1.710461,-0.982549 -0.17338,-0.737738 0.67018,-0.271276 0.966927,-0.492928 0.8669,-0.443305 1.860501,-0.664957 2.604035,-1.475477 0.34676,-0.172028 0.670181,-0.09925 0.770208,0.294434 0.02667,0.145563 -0.02667,0.294434 0.123366,0.370523 0.396774,-0.04962 0.69352,-0.664957 1.066954,-0.370523 -0.02667,3.814405 -2.280614,7.208664 -1.3637,11.119008 -0.05001,0.367215 0.07335,0.81052 0.123366,1.230667 -0.07669,0.122405 -0.200054,0.122405 -0.296746,0.172029 -0.123367,-0.09925 0,-0.294434 -0.123367,-0.420147 -0.843561,0.443304 -0.423448,-0.88661 -1.116968,-0.764205 -0.34676,-0.344057 -0.52014,-0.860143 -1.090294,-0.81052 -0.69352,0.737739 -1.166981,1.819535 -2.257275,1.991563 -1.463728,0.393681 -3.174189,0.148871 -4.51455,-0.638491 -1.960528,-0.764204 -3.347569,-2.557272 -4.16779,-4.380115 -0.843561,-3.3711 -0.67018,-7.331069 1.240334,-10.159617 0.346761,-1.13142 1.463728,-1.796377 1.957195,-2.878172 0.990267,-0.542552 1.413714,-1.869158 2.453994,-2.434868 0.17338,0.02647 0.423448,0 0.423448,-0.221652 1.263674,-0.714581 2.677388,-1.032172 4.164456,-1.253825 0.300081,0.79067 1.563754,0.152179 1.19032,1.184352 m 73.723204,36.390684 c -0.39678,0.172028 -0.84356,-0.244811 -1.19032,-0.542553 0.32342,-0.615333 0.74353,0.393682 1.19032,0.416839 v 0.125714 m 1.06362,-2.193366 c -0.15004,0.24481 -0.42012,0.04962 -0.5935,0 -0.91691,-0.416839 -1.76047,-1.032172 -2.60403,-1.647506 -0.17338,-0.172028 0.0267,-0.393681 0.22339,-0.294433 1.06696,0.492928 2.00721,1.353071 2.97414,1.941939 m -0.29675,-2.706144 c 1.16698,0.764205 2.454,1.253825 3.52095,2.117276 -1.43705,-0.172028 -2.67739,-1.204201 -3.99108,-1.895624 -0.3701,-0.09925 -0.74353,-0.271276 -0.94358,-0.638491 0.0267,-0.172028 -0.10003,-0.393681 0.12336,-0.466462 0.52348,0.07278 0.82022,0.688115 1.29035,0.883301 M 120.01452,75.7019 c 0.29675,0.122406 0.52014,0.443305 0.89358,0.420147 0.74353,0.370524 1.09029,1.253825 1.8605,1.574725 -0.4968,0.592175 -1.01694,-0.420147 -1.61043,-0.466463 -0.54682,-0.787362 -1.68713,-0.909767 -1.91052,-1.819534 0.29675,-0.274584 0.59349,-0.02977 0.76687,0.291125"/>
</svg>
