<?xml version="1.0" encoding="UTF-8" standalone="no"?>
<svg xmlns="http://www.w3.org/2000/svg" xmlns:svg="http://www.w3.org/2000/svg" width="128" height="92" viewBox="0 0 128 92" version="1.1" id="svg_snes_icon" xml:space="preserve">
     <g id="snes_icon">
          <path id="icon03" style="fill:#eee816;stroke:none" d="M 101.42794,78.317778 A 27.112491,13.682223 0 0 1 74.315451,92 27.112491,13.682223 0 0 1 47.202961,78.317778 27.112491,13.682223 0 0 1 74.315451,64.635552 27.112491,13.682223 0 0 1 101.42794,78.317778 Z"/>
          <path id="icon02" style="fill:#7bc049;stroke:none" d="M 54.224983,54.466982 A 27.112491,13.682223 0 0 1 27.112491,68.149205 27.112491,13.682223 0 0 1 0,54.466982 27.112491,13.682223 0 0 1 27.112491,40.784757 27.112491,13.682223 0 0 1 54.224983,54.466982 Z"/>
          <path id="icon01" style="fill:#ec1d23;stroke:none" d="m 104.3259,23.677383 a 23.694643,23.832309 0 0 0 -9.324056,1.913956 23.694643,23.832309 0 0 0 -14.39043,22.017986 23.43897,21.764131 0 0 1 16.269778,6.250658 23.43897,21.764131 0 0 1 6.948248,16.949234 l 0.53866,0.532849 A 23.694643,23.832309 0 0 0 126.24453,56.511801 23.694643,23.832309 0 0 0 120.92452,30.522304 23.694643,23.832309 0 0 0 104.3259,23.677383 Z"/>
          <path id="icon00" style="fill:#43b9e9;stroke:none" d="M 57.115105,8.9304936e-6 A 23.694643,23.832309 0 0 0 47.791048,1.9139533 23.694643,23.832309 0 0 0 33.400604,23.931938 a 23.43897,21.764132 0 0 1 16.269795,6.25067 23.43897,21.764132 0 0 1 6.948216,16.94923 l 0.538628,0.532857 A 23.694643,23.832309 0 0 0 79.033696,32.834426 23.694643,23.832309 0 0 0 73.713693,6.8449163 23.694643,23.832309 0 0 0 57.115105,8.9304936e-6 Z"/>
     </g>
</svg>
