<?xml version="1.0" encoding="UTF-8" standalone="no"?>
<svg xmlns="http://www.w3.org/2000/svg" xmlns:svg="http://www.w3.org/2000/svg" width="640" height="162" viewBox="0 0 640 162" version="1.1" id="svg_snes_logo" xml:space="preserve">
    <path id="snes_logo" style="fill:#fc0c18;stroke:none" d="m 204.48537,144.62172 h 7.07844 l -0.39275,-17.27993 z m -55.54528,-17.5744 c -0.6878,-0.0957 -1.47523,-0.19706 -2.35941,-0.19706 h -2.85104 l -1.86799,10.50541 h 2.85084 c 1.96628,0 3.44094,-0.39224 4.42398,-1.08106 1.18019,-0.88398 1.96628,-2.35633 2.26114,-4.32003 0.29506,-1.86554 0.0958,-3.14177 -0.5901,-3.92721 -0.49238,-0.49174 -1.08056,-0.7864 -1.86799,-0.98157 z M 0,117.81832 V 162 h 640 v -44.18168 z m 27.920065,9.32716 h -9.831003 l -1.867993,10.21094 h 9.241101 l -0.687804,3.7309 h -9.241101 l -1.867992,10.79989 h 10.420906 l -0.687804,3.7309 H 8.5536802 l 5.7018788,-32.39985 h 14.353268 z m 29.788057,28.57078 H 51.121294 L 47.582262,133.2327 c 0,-0.39224 -0.197329,-1.57088 -0.392761,-3.63274 -0.09577,-1.17864 -0.197329,-2.16001 -0.29503,-2.8473 l -0.197329,1.07915 -0.197329,0.88398 -0.197329,1.3738 -0.392757,2.06186 -4.128934,23.56348 H 37.75011 l 5.701881,-32.39985 h 6.980159 l 3.047603,19.24363 c 0.590094,4.51634 0.982848,7.65812 1.180188,9.52347 0.09581,-0.68691 0.197329,-1.66847 0.295068,-3.04361 0.29503,-1.96352 0.392757,-3.04362 0.490469,-3.33809 l 3.93236,-22.3854 h 4.03084 z m 38.144401,-28.57078 h -7.569868 l -5.013883,28.57078 h -4.423983 l 5.013884,-28.57078 h -7.471589 l 0.687806,-3.82906 h 19.563718 z m 28.215107,0 h -9.831 l -1.77028,10.21094 h 9.24129 l -0.6878,3.7309 h -9.24129 l -1.868,10.79989 h 10.42091 l -0.68781,3.7309 h -14.94317 l 5.70207,-32.39985 h 14.35327 z m 31.85243,4.51634 c -0.49046,2.65098 -1.47524,4.6145 -3.14589,5.79276 -0.88514,0.6869 -2.16285,1.17864 -3.73579,1.57088 0.98285,0.29466 1.77028,0.49174 2.26113,0.7864 1.08057,0.58933 1.57295,1.86555 1.57295,3.7309 0,1.27623 -0.19733,3.43643 -0.5901,6.3817 -0.19733,1.96371 -0.29503,3.43643 -0.0958,4.32003 0.0958,0.49174 0.19733,0.88399 0.29503,1.37381 h -5.01388 c -0.0958,-0.58932 -0.19733,-1.17865 -0.19733,-1.86555 0,-0.39224 0.19733,-1.86554 0.39275,-4.32003 0.29507,-3.24012 0.39277,-5.39994 0.39277,-6.28373 -0.0958,-0.7864 -0.49239,-1.37381 -1.08248,-1.66847 -0.49047,-0.29465 -1.08057,-0.49173 -1.67066,-0.58932 -0.49047,-0.0957 -1.18019,-0.0957 -1.96609,-0.0957 h -2.16284 l -2.55618,14.72729 h -4.42398 l 5.70207,-32.39985 h 8.15977 c 2.16285,0 3.83408,0.19707 4.81712,0.49174 2.75275,1.17865 3.83408,3.82906 3.04761,8.05093 z m 34.40861,-4.51634 h -7.56987 l -5.01369,28.57078 h -4.42398 l 5.01369,-28.57078 h -7.47159 l 0.68781,-3.82906 h 19.56372 z m 21.72657,28.57078 -0.19733,-7.36364 h -8.6512 l -2.85104,7.36364 h -4.32569 l 13.17365,-32.39984 h 5.89845 l 1.77028,32.39984 z m 23.49627,0 h -4.42397 l 5.70188,-32.39984 h 4.42398 z m 34.90004,0 h -6.58664 l -3.53922,-22.48356 c 0,-0.39224 -0.19733,-1.57088 -0.39276,-3.63274 -0.0958,-1.17864 -0.19733,-2.16001 -0.29503,-2.8473 l -0.19733,1.07915 -0.19733,0.88398 -0.19733,1.3738 -0.39275,2.06186 -4.12913,23.56348 h -4.03065 l 5.70188,-32.39985 h 6.98016 l 3.04761,19.24363 c 0.59009,4.51634 0.98285,7.65812 1.18019,9.52347 0.0958,-0.68691 0.19733,-1.66847 0.29503,-3.04361 0.29506,-1.96352 0.39275,-3.04362 0.49238,-3.33809 l 3.93255,-22.3854 h 4.03065 z m 41.19201,0 h -3.83408 l 4.91559,-27.78534 -11.79728,27.78534 h -4.42398 l -1.96608,-27.78534 -4.9156,27.78534 h -3.83408 l 5.70188,-32.39984 h 7.3733 l 1.57295,24.83989 9.53614,-24.83989 h 7.37331 z m 34.80193,-28.57078 h -9.831 l -1.77028,10.21094 h 9.24129 l -0.6878,3.7309 h -9.2413 l -1.86799,10.79989 h 10.32262 l -0.6878,3.7309 h -14.94318 l 5.70188,-32.39985 h 14.35347 z m 29.78806,28.57078 h -6.58683 L 366.1075,133.2327 c 0,-0.39224 -0.19733,-1.57088 -0.39276,-3.63274 -0.0958,-1.17864 -0.19732,-2.16001 -0.29506,-2.8473 l -0.19733,1.07915 -0.19733,0.88398 -0.19733,1.3738 -0.39275,2.06186 -4.12913,23.56348 h -4.03065 l 5.70207,-32.39985 h 6.97997 l 3.0476,19.24363 c 0.5901,4.51634 0.98286,7.65812 1.18019,9.52347 0.0958,-0.68691 0.19733,-1.66847 0.29503,-3.04361 0.29503,-1.96352 0.39276,-3.04362 0.49238,-3.33809 l 3.93236,-22.3854 h 4.03062 z m 38.14439,-28.57078 h -7.57006 l -5.01369,28.57078 h -4.42398 l 5.01389,-28.57078 h -7.47156 l 0.6878,-3.82906 h 19.5637 z m 50.72798,4.51634 c 0,0.0957 -0.096,0.49174 -0.19729,0.98156 h -4.52228 c 0.096,-0.48982 0.096,-0.78448 0.19729,-0.88398 0.19729,-1.07914 0.19729,-1.86555 0.19729,-2.35633 -0.29518,-1.9637 -1.47526,-2.94545 -3.73583,-2.94545 -1.47523,0 -2.65444,0.49174 -3.53919,1.3738 -0.78743,0.7864 -1.2779,1.76796 -1.47526,3.04362 -0.19729,1.17864 -0.0956,2.06185 0.29518,2.8473 0.49239,1.07915 1.37559,1.96351 2.75274,2.74895 l 2.65444,1.57089 c 2.35944,1.4733 3.93241,2.94546 4.62058,4.41799 0.5901,1.27623 0.6878,2.94546 0.29519,5.00732 -0.49236,2.94546 -1.868,5.20363 -3.93238,6.77451 -1.86799,1.37381 -4.12909,1.96371 -6.98014,1.96371 -3.24416,0 -5.6036,-0.7864 -6.88169,-2.35633 -1.27793,-1.4733 -1.57296,-3.82906 -1.0806,-6.97102 0.096,-0.29465 0.19729,-0.88398 0.39277,-1.86555 h 4.52231 c -0.096,0.58932 -0.19729,1.07915 -0.29518,1.27623 -0.29518,1.76796 -0.29518,3.14177 0,4.12353 0.4924,1.47329 1.77029,2.16001 3.83411,2.16001 1.86799,0 3.24415,-0.58932 4.2274,-1.66847 0.78546,-0.88398 1.37556,-1.9637 1.57289,-3.33828 0.29518,-1.57088 0,-2.8471 -0.88513,-3.9272 -0.68776,-0.78449 -1.86796,-1.76797 -3.73576,-2.84731 -1.868,-1.07914 -3.34265,-2.16001 -4.32571,-3.14177 -1.57293,-1.57088 -2.16283,-3.7309 -1.57293,-6.67636 0.4924,-2.74914 1.67067,-4.81081 3.53923,-6.28354 1.77029,-1.3738 4.03064,-1.9637 6.68508,-1.9637 3.04762,0 5.2103,0.7864 6.48839,2.35633 1.08056,1.4733 1.37559,3.63274 0.88512,6.5782 z m 22.80805,10.60358 -2.35941,13.45086 h -4.42393 l 2.3594,-13.45086 -4.03063,-18.94898 h 5.11196 l 2.2611,14.23631 7.47163,-14.23631 h 4.42398 z m 40.3073,-10.60358 c 0,0.0957 -0.096,0.49174 -0.19729,0.98156 h -4.52224 c 0.0956,-0.48982 0.0956,-0.78448 0.19729,-0.88398 0.19729,-1.07914 0.19729,-1.86555 0.19729,-2.35633 -0.29518,-1.9637 -1.47523,-2.94545 -3.7358,-2.94545 -1.47522,0 -2.65444,0.49174 -3.53926,1.3738 -0.7855,0.7864 -1.2779,1.76796 -1.47523,3.04362 -0.19729,1.17864 -0.0956,2.06185 0.29518,2.8473 0.49047,1.07915 1.3756,1.96351 2.7526,2.74895 l 2.65443,1.57089 c 2.35945,1.4733 3.93238,2.94546 4.62059,4.41799 0.59006,1.27623 0.6878,2.94546 0.29518,5.00732 -0.4924,2.94546 -1.86799,5.20363 -3.93237,6.77451 -1.86799,1.37381 -4.12891,1.96371 -6.97999,1.96371 -3.24435,0 -5.60376,-0.7864 -6.88165,-2.35633 -1.2779,-1.4733 -1.57297,-3.82906 -1.08057,-6.97102 0.096,-0.29465 0.19729,-0.88398 0.39277,-1.86555 h 4.52224 c -0.0956,0.58932 -0.19729,1.07915 -0.29518,1.27623 -0.29518,1.76796 -0.29518,3.14177 0,4.12353 0.4924,1.47329 1.77029,2.16001 3.83403,2.16001 1.86803,0 3.24442,-0.58932 4.22747,-1.66847 0.78743,-0.88398 1.3756,-1.9637 1.57293,-3.33828 0.29518,-1.57088 0,-2.8471 -0.88513,-3.9272 -0.6878,-0.78449 -1.86799,-1.76797 -3.73583,-2.84731 -1.868,-1.07914 -3.34243,-2.16001 -4.32567,-3.14177 -1.57293,-1.57088 -2.16284,-3.7309 -1.57293,-6.67636 0.49236,-2.74914 1.67063,-4.81081 3.53923,-6.28354 1.77021,-1.3738 4.03064,-1.9637 6.68511,-1.9637 3.04758,0 5.21042,0.7864 6.48835,2.35633 1.08053,1.4733 1.47523,3.63274 0.88513,6.5782 z m 33.91699,-4.51634 h -7.56987 l -5.01388,28.57078 h -4.42405 l 5.01392,-28.57078 h -7.47156 l 0.6878,-3.82906 h 19.46544 z m 28.31338,0 h -9.831 l -1.77029,10.21094 h 9.24128 l -0.68784,3.7309 h -9.24124 l -1.868,10.79989 h 10.42092 l -0.6878,3.7309 h -14.94316 l 5.70206,-32.39985 h 14.35325 z m 36.2764,28.57078 h -3.83407 l 4.91562,-27.78534 -11.79734,27.78534 h -4.42394 l -1.96626,-27.78534 -4.91543,27.78534 h -3.83406 l 5.70187,-32.39984 h 7.37329 l 1.57296,24.83989 9.53613,-24.83989 h 7.37329 z M 598.21808,15.709428 c 0.6878,-2.945457 1.86799,-5.596255 3.44092,-7.8546184 0.6878,-0.9815636 1.47523,-1.9635109 2.45768,-2.8471104 0.9829,-0.9815641 2.0646,-1.7679633 3.44099,-2.552832 1.2779,-0.6869036 2.75255,-1.3738072 4.42398,-1.7679636 C 613.65231,0.19516486 615.52068,0 617.58521,0 h 8.25808 c 2.06457,0 3.8341,0.19707817 5.30872,0.6869036 1.47523,0.4917388 2.75278,1.0791466 3.83411,1.7679636 1.08245,0.784486 1.86799,1.5708855 2.55617,2.552832 0.59009,0.9815648 1.08056,1.8655468 1.47522,2.8471104 0.78554,2.2583634 0.98287,4.9091614 0.68784,7.8546184 l -13.96014,79.036204 c -0.6878,2.945453 -1.86799,5.596248 -3.44096,7.854418 -0.6878,0.98157 -1.47522,1.96371 -2.45767,2.84731 -0.98291,0.98156 -2.06461,1.76796 -3.441,2.55264 -1.27786,0.7864 -2.75251,1.3738 -4.42375,1.76796 -1.67066,0.48983 -3.53922,0.68691 -5.60379,0.68691 H 598.12 c -2.06457,0 -3.8341,-0.19707 -5.30876,-0.68691 -1.47523,-0.49174 -2.75274,-1.08106 -3.8341,-1.76796 -1.08246,-0.6869 -1.868,-1.57089 -2.55614,-2.55264 -0.68779,-0.98157 -1.08056,-1.86555 -1.47522,-2.84731 -0.78554,-2.25817 -0.98287,-4.908965 -0.68784,-7.854418 z m -0.6878,79.036204 c -0.096,0.589319 0,1.178641 0.096,1.668461 0.19729,0.392246 0.39273,0.786406 0.7855,1.178649 0.39277,0.392239 0.98287,0.491735 1.77029,0.491735 h 8.25804 c 0.78554,0 1.47523,-0.197064 1.96611,-0.491735 0.49236,-0.392243 0.88513,-0.686906 1.18016,-1.178649 0.29518,-0.491736 0.5901,-1.079142 0.6878,-1.668461 l 13.96014,-78.938047 c 0.096,-0.589322 0,-1.178643 -0.0956,-1.668469 -0.19729,-0.392242 -0.39277,-0.784485 -0.78743,-1.178642 -0.39277,-0.392243 -0.98287,-0.489825 -1.77029,-0.489825 h -8.25808 c -0.7855,0 -1.47523,0.19708 -1.96626,0.489825 -0.4924,0.392243 -0.88513,0.686904 -1.1802,1.178642 -0.29518,0.49174 -0.5901,1.079147 -0.6878,1.668469 z M 549.55489,3.8267609e-4 h 26.05224 c 2.06457,0 3.83411,0.19707816391 5.30877,0.68690363391 1.47522,0.49173879 2.75274,1.07914659 3.83406,1.76796359 1.08057,0.784486 1.86799,1.5708852 2.55613,2.5528322 0.5901,0.9815644 1.08057,1.865546 1.47523,2.8471104 0.78746,2.2583625 0.98286,4.9091605 0.68783,7.8546185 l -14.05821,79.036202 c -0.68784,2.945454 -1.868,5.596257 -3.44092,7.854427 -0.6878,0.98156 -1.47523,1.9637 -2.45771,2.8473 -0.98283,0.98156 -2.06457,1.76796 -3.44092,2.55264 -1.2779,0.7864 -2.75256,1.37381 -4.42398,1.76796 -1.6707,0.48983 -3.53907,0.68691 -5.6036,0.68691 H 530.08979 Z M 545.52417,97.985556 h 12.68206 c 0.78553,0 1.47522,-0.197065 1.96607,-0.491739 0.4924,-0.392244 0.8852,-0.686903 1.18023,-1.178646 0.29518,-0.491732 0.5901,-1.081054 0.6878,-1.668465 l 13.95995,-78.938043 c 0.096,-0.589321 0,-1.178643 -0.0956,-1.668468 -0.19729,-0.392243 -0.39277,-0.786399 -0.78558,-1.178642 -0.39277,-0.392243 -0.98283,-0.489826 -1.77029,-0.489826 H 560.66677 Z M 475.92055,110.45468 495.38598,3.8267609e-4 h 13.27193 L 489.19247,110.45468 Z M 500.89124,44.182059 508.65791,3.8267609e-4 515.73613,66.272993 507.96973,110.45468 Z M 507.96973,110.45468 527.43517,3.8267609e-4 H 540.7069 L 521.24147,110.45468 Z M 461.07566,49.97482 h 16.61439 l -2.16284,12.468926 h -16.61438 l -6.29182,35.639964 h 16.61442 l -2.16283,12.46912 H 437.18625 L 456.65165,3.8267609e-4 H 486.538 L 484.37516,12.469501 H 467.76078 Z M 415.1648,3.8267609e-4 h 32.6389 L 445.64086,12.469501 h -8.84776 l -17.30279,97.985179 h -14.94315 l 17.30275,-97.985179 h -8.84799 z M 341.53028,110.45468 360.99572,3.8267609e-4 h 13.27194 L 354.80222,110.45468 Z M 366.50122,44.182059 374.26766,3.8267609e-4 381.34593,66.272993 373.57947,110.45468 Z M 373.57947,110.45468 393.04492,3.8267609e-4 h 13.27193 L 386.85141,110.45468 Z M 338.87601,3.8267609e-4 h 13.27175 L 332.68232,110.45468 H 319.41057 Z M 265.14319,110.45468 284.60863,3.8267609e-4 h 13.27194 L 278.41513,110.45468 Z M 290.11413,44.182059 297.88057,3.8267609e-4 304.95883,66.272993 297.19239,110.45468 Z M 297.29067,110.45468 316.7561,3.8267609e-4 h 13.27195 L 310.56261,110.45468 Z M 206.74688,3.8267609e-4 h 24.87265 c 2.06438,0 3.83409,0.19707816391 5.30875,0.68690363391 1.47523,0.49173879 2.75256,1.07914659 3.83407,1.76796359 1.08056,0.784486 1.868,1.5708852 2.55599,2.5528322 0.59009,0.9815644 1.08248,1.865546 1.47523,2.8471104 0.78552,2.2583625 0.98285,4.9091605 0.68781,7.8546185 l -5.50531,30.927116 c -0.39276,2.061857 -1.18019,3.829058 -2.55618,5.400132 -1.37561,1.570888 -2.94932,2.945461 -4.71884,4.123528 1.37561,1.178642 2.45771,2.55264 3.24418,4.123718 0.78743,1.570885 0.98286,3.338082 0.6878,5.399943 l -7.86472,44.770812 h -13.27194 l 7.86472,-44.770812 c 0.0958,-0.589323 0,-1.178646 -0.0958,-1.668465 -0.19733,-0.392243 -0.39275,-0.786402 -0.78743,-1.178642 -0.39276,-0.392243 -0.98285,-0.491743 -1.77028,-0.491743 h -11.60069 l -8.45463,48.010932 H 187.38031 Z M 211.17086,49.97482 h 8.84796 2.75275 c 0.78743,0 1.47524,-0.197064 1.96609,-0.491735 0.49239,-0.392243 0.88514,-0.686907 1.18019,-1.178642 0.29503,-0.491743 0.5901,-1.081066 0.68781,-1.668469 l 5.5053,-30.92712 c 0.0958,-0.589321 0,-1.178642 -0.0958,-1.668468 -0.19732,-0.392243 -0.39274,-0.786399 -0.78742,-1.178642 -0.39275,-0.392243 -0.98285,-0.489825 -1.77027,-0.489825 h -11.699 z m -38.7343,0 h 16.6146 l -2.16285,12.468926 H 170.2739 l -6.29196,35.639964 h 16.61439 l -2.16285,12.46912 H 148.54734 L 168.01277,0.09853908 h 29.88615 L 195.73627,12.567657 h -16.6146 z M 117.67776,3.8267609e-4 h 24.87265 c 2.06437,0 3.83408,0.19707816391 5.30874,0.68690363391 1.47524,0.49173879 2.75256,1.07914659 3.83408,1.76796359 1.08056,0.784486 1.86799,1.5708852 2.55599,2.5528322 0.59009,0.9815644 1.08056,1.865546 1.47523,2.8471104 0.78551,2.2583625 0.98285,4.9091605 0.6878,7.8546185 l -5.5053,30.927116 c -0.68781,2.945457 -1.868,5.596452 -3.44094,7.854621 -0.6878,0.981566 -1.47524,1.96351 -2.4577,2.8473 -0.98285,0.981565 -2.06457,1.767964 -3.44094,2.552643 -1.2779,0.784483 -2.75256,1.373805 -4.42398,1.767961 -1.67066,0.491743 -3.53903,0.686906 -5.6036,0.686906 h -11.60071 l 2.16285,-12.468929 h 11.60072 c 0.78551,0 1.47523,-0.197064 1.96608,-0.491735 0.49238,-0.392247 0.88514,-0.68691 1.18019,-1.178642 0.29503,-0.489831 0.59009,-1.079153 0.6878,-1.668472 l 5.50531,-30.927117 c 0.0958,-0.589321 0,-1.178643 -0.0958,-1.668468 -0.19733,-0.392243 -0.39276,-0.786399 -0.78551,-1.178642 -0.39275,-0.392243 -0.98284,-0.491739 -1.77027,-0.491739 H 128.78972 L 111.48714,110.45429 H 98.215196 Z m -50.334821,0 H 80.614878 L 63.902193,94.745632 c -0.09581,0.589319 0,1.178641 0.09581,1.668461 0.19733,0.392246 0.392758,0.786406 0.785511,1.178649 0.392761,0.392239 0.982855,0.491735 1.770285,0.491735 h 8.258052 c 0.785522,0 1.475237,-0.197064 1.966284,-0.491735 0.490466,-0.392243 0.885135,-0.686906 1.180188,-1.178649 0.29503,-0.491736 0.590094,-1.079142 0.687802,-1.668461 L 95.358988,3.8267609e-4 H 108.63074 L 91.918054,94.745632 c -0.687806,2.945453 -1.867994,5.596248 -3.440939,7.854418 -0.687806,0.98157 -1.475232,1.96371 -2.457702,2.84731 -0.982854,0.98156 -2.064563,1.76796 -3.440938,2.55264 -1.277896,0.7864 -2.752558,1.3738 -4.42379,1.76796 -1.670653,0.48983 -3.539221,0.68691 -5.603784,0.68691 h -8.258059 c -2.06456,0 -3.834078,-0.19707 -5.30874,-0.68691 -1.475236,-0.49174 -2.752747,-1.08106 -3.834073,-1.76796 -1.080563,-0.6869 -1.867994,-1.57089 -2.556182,-2.55264 -0.687806,-0.98157 -1.080567,-1.86555 -1.475236,-2.84731 -0.785514,-2.25817 -0.982855,-4.908965 -0.687802,-7.854418 z M 25.462745,27.589416 c -0.295045,1.767964 -0.197337,3.632744 0.197337,5.596256 0.492384,1.963702 1.080561,3.730901 1.670655,5.301785 0.785515,1.865548 1.770282,3.730904 2.850844,5.596448 L 41.78229,66.272993 c 0.687806,1.373809 1.2779,2.847114 1.670657,4.418192 0.392757,1.373805 0.687806,3.043611 0.885139,4.908967 0.197329,1.865544 0.09581,3.927212 -0.29503,6.185382 l -2.261133,12.960098 c -0.687802,2.945453 -1.867997,5.596248 -3.440938,7.854418 -0.687822,0.98157 -1.475252,1.96371 -2.457721,2.84731 -0.982851,0.98156 -2.064562,1.76796 -3.440937,2.55264 -1.277898,0.7864 -2.752558,1.3738 -4.423789,1.76796 -1.670655,0.48983 -3.539222,0.68691 -5.603785,0.68691 h -8.258058 c -2.064562,0 -3.834078,-0.19707 -5.3087378,-0.68691 C 7.3727256,109.27622 6.0952106,108.6869 5.0138821,108 3.9333209,107.3131 3.1458904,106.42911 2.4577029,105.44736 1.7698987,104.46579 1.3771413,103.58181 0.98246808,102.60005 0.19695344,100.34188 -3.831779e-4,97.691085 0.29466379,94.745632 L 4.5218822,70.691185 H 17.793823 l -4.22741,24.054447 c -0.0958,0.589319 0,1.178641 0.0958,1.668461 0.197337,0.392246 0.392757,0.786406 0.785514,1.178649 0.392758,0.392239 0.982852,0.491735 1.770282,0.491735 h 8.258058 c 0.785515,0 1.475235,-0.197064 1.966086,-0.491735 0.492382,-0.392243 0.885139,-0.686906 1.180186,-1.178649 0.295045,-0.491736 0.590094,-1.079142 0.687805,-1.668461 L 30.374702,82.86564 c 0.295048,-1.767965 0.197337,-3.632746 -0.197336,-5.596445 -0.490468,-1.96351 -1.080562,-3.730904 -1.670656,-5.301789 -0.785514,-1.86554 -1.770282,-3.730896 -2.851035,-5.596255 L 14.251727,44.182059 C 13.563922,42.808254 12.973828,41.334756 12.581071,39.763875 12.188314,38.390066 11.893267,36.720259 11.69593,34.854905 11.498594,32.989359 11.600136,30.9275 11.990977,28.669329 L 14.25211,15.709428 C 14.939914,12.763971 16.120102,10.113173 17.693047,7.8548096 18.380851,6.873246 19.168282,5.8912987 20.15075,5.0076992 21.133601,4.0261351 22.215313,3.2397359 23.591688,2.4548672 24.869586,1.7679636 26.344246,1.08106 28.015668,0.6869036 29.686323,0.19516486 31.554699,0 33.619261,0 h 8.258058 c 2.064563,0 3.834073,0.19707817 5.308735,0.6869036 1.475237,0.4917388 2.752755,1.0791466 3.834081,1.7679636 1.080563,0.784486 1.867994,1.5708855 2.556182,2.552832 0.590093,0.9815648 1.080559,1.8655468 1.475232,2.8471104 0.785511,2.2583634 0.982848,4.9091614 0.687806,7.8546184 L 51.511943,39.763875 H 38.240004 l 4.227409,-24.054447 c 0.09581,-0.589321 0,-1.178642 -0.09577,-1.668468 -0.197329,-0.392243 -0.392757,-0.786399 -0.785514,-1.178642 -0.392776,-0.392243 -0.98287,-0.489825 -1.7703,-0.489825 h -8.258061 c -0.785514,0 -1.475235,0.197079 -1.966086,0.489825 -0.492383,0.392243 -0.88514,0.686903 -1.180187,1.178642 -0.295047,0.489826 -0.590095,1.079147 -0.687805,1.668468 z M 598.21846,15.709428 c 0.6878,-2.945457 1.86799,-5.596255 3.44092,-7.8546184 0.6878,-0.9815636 1.47522,-1.9635109 2.45771,-2.8471104 0.98287,-0.9815641 2.06457,-1.7679633 3.44096,-2.552832 C 608.83594,1.7679636 610.3106,1.08106 611.98202,0.6869036 613.65269,0.19516486 615.52106,0 617.58559,0 h 8.25808 c 2.06456,0 3.8341,0.19707817 5.30872,0.6869036 1.47523,0.4917388 2.75278,1.0791466 3.8341,1.7679636 1.0825,0.784486 1.868,1.5708855 2.55617,2.552832 0.5901,0.9815648 1.08057,1.8655468 1.47527,2.8471104 0.7855,2.2583634 0.98283,4.9091614 0.6878,7.8546184 l -13.96014,79.036204 c -0.6878,2.945453 -1.868,5.596248 -3.44096,7.854418 -0.6878,0.98157 -1.47522,1.96371 -2.45767,2.84731 -0.98291,0.98156 -2.06461,1.76796 -3.441,2.55264 -1.27786,0.7864 -2.75252,1.3738 -4.42375,1.76796 -1.67066,0.48983 -3.53922,0.68691 -5.60379,0.68691 h -8.25804 c -2.06457,0 -3.83407,-0.19707 -5.30872,-0.68691 -1.47527,-0.49174 -2.75279,-1.08106 -3.83415,-1.76796 -1.08245,-0.6869 -1.86799,-1.57089 -2.55613,-2.55264 -0.6878,-0.98157 -1.08057,-1.86555 -1.47522,-2.84731 -0.78554,-2.25817 -0.98287,-4.908965 -0.6878,-7.854418 z m -0.6878,79.036204 c -0.0956,0.589319 0,1.178641 0.096,1.668461 0.19729,0.392246 0.39273,0.786406 0.7855,1.178649 0.39277,0.392239 0.98287,0.491735 1.77029,0.491735 h 8.25804 c 0.78554,0 1.47527,-0.197064 1.96611,-0.491735 0.49236,-0.392243 0.88513,-0.686906 1.18016,-1.178649 0.29518,-0.491736 0.5901,-1.079142 0.68784,-1.668461 l 13.9601,-78.938047 c 0.0956,-0.589322 0,-1.178643 -0.0956,-1.668469 -0.19729,-0.392242 -0.39276,-0.784485 -0.78742,-1.178642 -0.39277,-0.392243 -0.98287,-0.489825 -1.7703,-0.489825 h -8.25804 c -0.78553,0 -1.47526,0.19708 -1.96629,0.489825 -0.4924,0.392243 -0.88513,0.686904 -1.1802,1.178642 -0.29518,0.49174 -0.5901,1.079147 -0.6878,1.668469 z M 549.55527,3.8267609e-4 h 26.05224 c 2.06457,0 3.8341,0.19707816391 5.30876,0.68690363391 1.47523,0.49173879 2.75275,1.07914659 3.83407,1.76796359 1.08057,0.784486 1.86799,1.5708852 2.55613,2.5528322 0.5901,0.9815644 1.08057,1.865546 1.47526,2.8471104 0.78743,2.2583625 0.98283,4.9091605 0.6878,7.8546185 l -14.05818,79.036202 c -0.68787,2.945454 -1.86803,5.596257 -3.44095,7.854427 -0.6878,0.98156 -1.47523,1.9637 -2.45772,2.8473 -0.98283,0.98156 -2.06453,1.76796 -3.44092,2.55264 -1.27789,0.7864 -2.75255,1.37381 -4.42397,1.76796 -1.6707,0.48983 -3.53907,0.68691 -5.6036,0.68691 H 530.09017 Z M 545.52459,97.985556 h 12.68201 c 0.78554,0 1.47527,-0.197065 1.96611,-0.491739 0.49236,-0.392244 0.88517,-0.686903 1.1802,-1.178646 0.29518,-0.491732 0.5901,-1.081054 0.68784,-1.668465 l 13.95991,-78.938043 c 0.096,-0.589321 0,-1.178643 -0.0956,-1.668468 -0.1973,-0.392243 -0.39277,-0.786399 -0.78558,-1.178642 -0.39273,-0.392243 -0.98283,-0.489826 -1.77025,-0.489826 H 560.66715 Z M 475.92093,110.45468 495.38636,3.8267609e-4 h 13.27193 L 489.19285,110.45468 Z M 500.89162,44.182059 508.65829,3.8267609e-4 515.73651,66.272993 507.97011,110.45468 Z M 507.97011,110.45468 527.43554,3.8267609e-4 h 13.27178 L 521.24188,110.45468 Z M 461.07604,49.97482 h 16.61439 l -2.16284,12.468926 H 458.9132 l -6.29178,35.639964 h 16.61439 l -2.16283,12.46912 H 437.18663 L 456.65203,3.8267609e-4 h 29.88634 L 484.37554,12.469501 H 467.76115 Z M 415.16521,3.8267609e-4 h 32.6389 L 445.64124,12.469501 h -8.84776 L 419.49069,110.45468 H 404.54754 L 421.85033,12.469501 H 413.0023 Z M 341.53066,110.45468 360.9961,3.8267609e-4 h 13.27194 L 354.80261,110.45468 Z M 366.5016,44.182059 374.26804,3.8267609e-4 381.3463,66.272993 373.57985,110.45468 Z M 373.57985,110.45468 393.0453,3.8267609e-4 h 13.27192 L 386.85179,110.45468 Z M 338.87639,3.8267609e-4 h 13.27175 L 332.6827,110.45468 H 319.41095 Z M 265.14358,110.45468 284.60901,3.8267609e-4 h 13.27194 L 278.41552,110.45468 Z M 290.11451,44.182059 297.88095,3.8267609e-4 304.95921,66.272993 297.19277,110.45468 Z M 297.29105,110.45468 316.75649,3.8267609e-4 h 13.27194 L 310.56299,110.45468 Z M 206.74727,3.8267609e-4 h 24.87265 c 2.06437,0 3.83408,0.19707816391 5.30874,0.68690363391 1.47523,0.49173879 2.75256,1.07914659 3.83407,1.76796359 1.08057,0.784486 1.868,1.5708852 2.55599,2.5528322 0.5901,0.9815644 1.08248,1.865546 1.47524,2.8471104 0.78552,2.2583625 0.98285,4.9091605 0.6878,7.8546185 l -5.50531,30.927116 c -0.39276,2.061857 -1.18019,3.829058 -2.55618,5.400132 -1.3756,1.570888 -2.94932,2.945461 -4.71883,4.123528 1.37561,1.178642 2.4577,2.55264 3.24417,4.123718 0.78744,1.570885 0.98286,3.338082 0.68781,5.399943 l -7.86473,44.770812 h -13.27194 l 7.86473,-44.770812 c 0.0958,-0.589323 0,-1.178646 -0.0958,-1.668465 -0.19732,-0.392243 -0.39275,-0.786402 -0.78743,-1.178642 -0.39275,-0.392243 -0.98285,-0.491743 -1.77027,-0.491743 h -11.6007 l -8.45463,48.010932 H 187.38069 Z M 211.17125,49.97482 h 8.84796 2.75275 c 0.78743,0 1.47523,-0.197064 1.96608,-0.491735 0.49239,-0.392243 0.88514,-0.686907 1.18019,-1.178642 0.29507,-0.491743 0.5901,-1.081066 0.68781,-1.668469 l 5.5053,-30.92712 c 0.0958,-0.589321 0,-1.178642 -0.0958,-1.668468 -0.19736,-0.392243 -0.39278,-0.786399 -0.78745,-1.178642 -0.39276,-0.392243 -0.98285,-0.489825 -1.77028,-0.489825 h -11.699 z m -38.73431,0 h 16.6146 l -2.16285,12.468926 h -16.6144 l -6.29197,35.639964 h 16.6144 l -2.16285,12.46912 H 148.54772 L 168.01315,0.09853908 h 29.88616 L 195.73665,12.567657 H 179.12206 Z M 117.67814,3.8267609e-4 h 24.87266 c 2.06436,0 3.83407,0.19707816391 5.30873,0.68690363391 1.47524,0.49173879 2.75256,1.07914659 3.83408,1.76796359 1.08056,0.784486 1.86799,1.5708852 2.55599,2.5528322 0.59009,0.9815644 1.08056,1.865546 1.47524,2.8471104 0.78551,2.2583625 0.98285,4.9091605 0.6878,7.8546185 l -5.50531,30.927116 c -0.68781,2.945457 -1.86799,5.596452 -3.44094,7.854621 -0.6878,0.981566 -1.47523,1.96351 -2.4577,2.8473 -0.98285,0.981565 -2.06457,1.767964 -3.44094,2.552643 -1.2779,0.784483 -2.75256,1.373805 -4.42398,1.767961 -1.67065,0.491743 -3.53903,0.686906 -5.60359,0.686906 h -11.60071 l 2.16285,-12.468929 h 11.60071 c 0.78551,0 1.47523,-0.197064 1.96608,-0.491735 0.49238,-0.392247 0.88514,-0.68691 1.18019,-1.178642 0.29503,-0.489831 0.59009,-1.079153 0.6878,-1.668472 l 5.50531,-30.927117 c 0.0958,-0.589321 0,-1.178643 -0.0958,-1.668468 -0.19733,-0.392243 -0.39274,-0.786399 -0.7855,-1.178642 -0.39276,-0.392243 -0.98285,-0.491739 -1.77028,-0.491739 H 128.79011 L 111.48752,110.45429 H 98.215578 Z m -50.334819,0 H 80.61526 L 63.902575,94.745632 c -0.09581,0.589319 0,1.178641 0.09581,1.668461 0.197329,0.392246 0.392757,0.786406 0.785511,1.178649 0.392761,0.392239 0.982854,0.491735 1.770285,0.491735 h 8.258056 c 0.785518,0 1.475232,-0.197064 1.96628,-0.491735 0.490469,-0.392243 0.885139,-0.686906 1.180188,-1.178649 0.295067,-0.491736 0.590093,-1.079142 0.687806,-1.668461 L 95.35937,3.8267609e-4 h 13.27175 L 91.918435,94.745632 c -0.687802,2.945453 -1.867989,5.596248 -3.440934,7.854418 -0.68781,0.98157 -1.475237,1.96371 -2.457706,2.84731 -0.982855,0.98156 -2.064563,1.76796 -3.440935,2.55264 -1.277899,0.7864 -2.752561,1.3738 -4.423789,1.76796 -1.670657,0.48983 -3.539225,0.68691 -5.603784,0.68691 h -8.25806 c -2.064563,0 -3.834077,-0.19707 -5.308743,-0.68691 C 57.509251,109.27622 56.231737,108.6869 55.15041,108 c -1.080563,-0.6869 -1.867993,-1.57089 -2.556181,-2.55264 -0.687802,-0.98157 -1.080563,-1.86555 -1.475233,-2.84731 -0.785514,-2.25817 -0.982854,-4.908965 -0.687806,-7.854418 z M 25.463128,27.589416 c -0.295045,1.767964 -0.197336,3.632744 0.197337,5.596256 0.492384,1.963702 1.080561,3.730901 1.670656,5.301785 0.785514,1.865548 1.770281,3.730904 2.850843,5.596448 l 11.600712,22.189088 c 0.687802,1.373809 1.277896,2.847114 1.670656,4.418192 0.392758,1.373805 0.687803,3.043611 0.885136,4.908967 0.197329,1.865544 0.09581,3.927212 -0.29503,6.185382 l -2.261137,12.960098 c -0.687802,2.945453 -1.867993,5.596248 -3.440934,7.854418 -0.687806,0.98157 -1.475236,1.96371 -2.457705,2.84731 -0.982851,0.98156 -2.064562,1.76796 -3.440937,2.55264 -1.277898,0.7864 -2.752558,1.3738 -4.423789,1.76796 -1.670655,0.48983 -3.539222,0.68691 -5.603785,0.68691 h -8.258069 c -2.064563,0 -3.834078,-0.19707 -5.3087382,-0.68691 C 7.3731089,109.27622 6.0955938,108.6869 5.0142654,108 3.9337042,107.3131 3.1462736,106.42911 2.4580861,105.44736 1.7702818,104.46579 1.3775245,103.58181 0.98285125,102.60005 0.19733661,100.34188 0,97.691085 0.29504699,94.745632 L 4.5222654,70.691185 H 17.794206 l -4.22741,24.054447 c -0.0958,0.589319 0,1.178641 0.0958,1.668461 0.197336,0.392246 0.392756,0.786406 0.785514,1.178649 0.392758,0.392239 0.982851,0.491735 1.770282,0.491735 h 8.258058 c 0.785515,0 1.475235,-0.197064 1.966087,-0.491735 0.492383,-0.392243 0.88514,-0.686906 1.180187,-1.178649 0.295045,-0.491736 0.590094,-1.079142 0.687804,-1.668461 L 30.375086,82.86564 c 0.295046,-1.767965 0.197336,-3.632746 -0.197337,-5.596445 -0.490468,-1.96351 -1.080562,-3.730904 -1.670656,-5.301789 -0.785514,-1.86554 -1.770281,-3.730896 -2.851035,-5.596255 L 14.25211,44.182059 C 13.564305,42.808254 12.974211,41.334756 12.581454,39.763875 12.188697,38.390066 11.89365,36.720259 11.696313,34.854905 11.498977,32.989359 11.600519,30.9275 11.99136,28.669329 L 14.252493,15.709428 C 14.940298,12.763971 16.120485,10.113173 17.69343,7.8548096 18.381235,6.873246 19.168665,5.8912987 20.151133,5.0076992 21.133985,4.0261351 22.215696,3.2397359 23.592071,2.4548672 24.869969,1.7679636 26.344629,1.08106 28.016051,0.6869036 29.686707,0.19516486 31.555082,0 33.619644,0 h 8.25806 c 2.064563,0 3.834074,0.19707817 5.308732,0.6869036 1.475236,0.4917388 2.752754,1.0791466 3.834085,1.7679636 1.080559,0.784486 1.86799,1.5708855 2.556177,2.552832 0.590094,0.9815648 1.080563,1.8655468 1.475237,2.8471104 0.78551,2.2583634 0.982847,4.9091614 0.687802,7.8546184 L 51.512324,39.763875 H 38.240385 l 4.227413,-24.054447 c 0.09577,-0.589321 0,-1.178642 -0.09581,-1.668468 -0.197329,-0.392243 -0.392757,-0.786399 -0.785514,-1.178642 -0.392742,-0.392243 -0.982836,-0.489825 -1.770267,-0.489825 h -8.258058 c -0.785515,0 -1.475235,0.197079 -1.966086,0.489825 -0.492384,0.392243 -0.885141,0.686903 -1.180188,1.178642 -0.295047,0.489826 -0.590094,1.079147 -0.687805,1.668468 z"/>
</svg>
