<?xml version="1.0" encoding="UTF-8" standalone="no"?>
<svg
   viewBox="0 0 91.294998 128"
   version="1.1"
   id="svg7"
   width="91.294998"
   height="128"
   xmlns="http://www.w3.org/2000/svg"
   xmlns:svg="http://www.w3.org/2000/svg">
  <defs
     id="defs7" />
  <g
     id="g7"
     transform="matrix(0.4544616,0,0,0.4657933,-21.410989,-5.8689956)"
     style="stroke-width:2.17348">
    <path
       d="M 52,52.2 158.3,12.6 248,26.2 v 242.6 6.8 L 159.1,287.4 52,251.7 Z"
       fill="#365798"
       id="path1"
       style="stroke-width:2.17348" />
    <path
       d="M 58,246.3 57.7,58 149.8,24 149.6,275.3 Z m 107.2,29.2 V 25.3 l 73.4,9.9 v 231.2 z"
       fill="#a5b6d9"
       id="path2"
       style="stroke-width:2.17348" />
    <path
       d="m 103,187.5 -41.2,-2.4 -0.3,-72.6 41.6,-3.9 z m 4,-79.3 37,-4.6 -0.3,85.2 -36.8,-1.1 z M 61.3,107.6 V 61.5 l 41.7,-13.6 0.3,55 z m 83.1,-75.1 0.2,65 -37.6,4.8 V 45.9 Z M 84.5,248 v -55.7 l 33.6,2.2 V 258 Z m 58.5,19.1 -4.1,-1.5 c 0.9,-5.3 -4.5,-7.6 -4.5,-1.4 l -4.4,-1.3 c -0.2,-5.2 -3.3,-7.5 -5,-1.6 l -2.3,-0.7 -0.1,-65.8 2.9,0.2 c -1,6.5 5.6,6.7 4.8,0.4 l 4.8,0.3 c -1,6.8 5.5,6.8 4.8,0.3 l 3,0.2 z m -80.9,-76.3 19.5,1.4 -0.1,25.6 -19.4,-2.7 z m 19.7,30.6 -0.2,26.2 -19.6,-4.8 v -24.3 z m 87.3,-192 66,8.7 v 225.1 l -65.9,8.3 z"
       fill="#365798"
       id="path3"
       style="stroke-width:2.17348" />
    <path
       d="M 72.9,100.1 78.7,78.3 74.9,80 80,61.3 86,59.6 81.5,72.2 86,69.8 Z"
       fill="#a5b6d9"
       id="path4"
       style="stroke-width:2.17348" />
    <path
       d="m 118,88.2 c 0.3,-0.8 0.6,-1.5 0.9,-2.3 3.3,1.4 6.3,2.4 9.6,0.5 3.2,-1.9 5.4,-5.8 6.6,-9.2 2.4,-6.7 2.4,-15.8 -2,-21.7 -5.3,-7.2 -12.9,-3.4 -16.5,3.3 -1.1,2.1 -2.7,7.4 -2.9,10.7 -0.1,1.6 0,3.3 0.2,5 0.2,1.9 1.2,3.9 1,5.9 -0.1,0.6 -0.4,1 -1.1,1.1 -4,-6.6 -1.8,-17.3 1.2,-23.8 3,-6.5 11.3,-13.1 18,-6.9 6.1,5.7 6.7,16.1 5,23.8 -1.5,6.8 -6.2,16.9 -14.7,16.2 -1.4,-0.4 -4.4,-1.1 -5.3,-2.6 z m 4.9,-10.9 c -0.8,-2.7 2.7,-4.6 3.5,-6.7 0.5,-1.2 0,-2.3 -0.5,-3.3 -1.2,-0.6 -2.1,-0.3 -2.6,0.9 -0.8,2.1 -1.5,3.5 -3,5.2 -0.8,-3.2 -0.3,-6.9 1.6,-9.7 1,-1.5 3.1,-2.2 4.6,-1.6 4.9,1.8 3.4,10.1 1.3,13.4 -1.2,1.7 -3.1,1.8 -4.9,1.8 z m 0.8,-6.1 c -1.9,5.3 -4.7,11.2 -6.7,15.7 -0.2,-0.1 -0.3,-0.1 -0.4,-0.2 -0.8,-0.9 -1.3,-2 -1.8,-3.1 -0.2,-0.4 0,-0.9 0.3,-1.2 3.1,-3.4 5.4,-8.3 8.6,-11.2 z"
       fill="#a5b6d8"
       id="path5"
       style="stroke-width:2.17348" />
    <path
       d="m 96.7,231.2 c -1.4,2.8 -1,5.9 -1.4,9 -2.3,-0.6 -4,-5.1 -4.4,-7.1 0.4,-2.3 1.6,-4.1 3.1,-5.9 0.7,-0.9 0.9,-1.7 0.5,-2.7 -0.2,-0.4 -0.1,-0.9 -0.5,-1.2 -2.1,0.4 -3.3,1.9 -4.7,3.3 -1.6,-1.7 -1.2,-7.9 0,-9.7 2,-0.4 3.7,0.2 5.4,1.4 1.3,-1.2 1.3,-2.4 0.2,-3.7 -0.9,-1 -3.5,-2.1 -4,-3.1 -0.4,-1.5 2.4,-6.5 4.1,-6.4 1.8,2.7 2.9,5.8 3.6,9 0.6,0.3 1.2,0.5 1.9,0.4 0.4,-3.7 -0.5,-7.2 -1.6,-10.6 0.1,-0.1 0.2,-0.2 0.2,-0.2 2,0.1 4,0.5 5.5,2 3.5,3.4 -2.7,9.9 0.1,13.8 2.5,-2.4 2.5,-5.5 4.4,-8.1 1.9,2.4 3.6,7.3 3.2,10.4 -1.6,2 -2.9,3.1 -6.8,3.4 0.1,0.9 -0.4,1.7 -0.2,2.7 2.1,2.2 4.4,1.9 7.1,1.7 0.4,1.9 -1.6,8 -3.1,9.4 -3,-1.4 -4.5,-4.2 -6.2,-6.9 -0.6,0.5 -1.1,0.9 -1.5,1.4 0.4,3.1 4.3,6.9 3.8,9.6 -1.3,0.6 -2.7,1 -4.2,0.8 -1.5,-0.2 -2.1,-1 -2.4,-2.6 -0.7,-3.3 0.8,-7.6 -2.1,-10.1 z m 28.1,5.2 v -15.1 l 16.1,2.6 v 16 z m -0.1,-33 16.1,1.7 v 15.8 l -16.1,-2.3 z m 16.1,39.2 v 15.8 l -16,-4.4 v -15.1 z m -76,-7.5 v -6.8 l 3.2,0.5 3.9,-3.9 0.2,16 -3.9,-5 z m 9.5,-6 c 0.3,-0.1 2.5,-2 2.8,-1.9 1.5,4.1 1.3,7.4 -0.5,11.7 L 74.5,236 c 0.7,-3.1 0.7,-3.9 -0.3,-6.9 z m 2.3,12.9 c -51.1,38.7 -25.5,19.3 0,0 z m 117.2,18.9 -16.7,2 v -89.7 l 16.7,-0.9 z m 21.3,-121.7 c -2.6,11.9 -15.6,10.8 -18.5,0.7 l -21.9,0.7 v -16.1 l 21.2,-0.8 c 5.4,-12.8 15.3,-10.9 19.4,0 l 15.7,0.1 0.4,14.6 z M 174.2,83 v -5.7 l 57.3,1.8 v 4.6 z m -109.8,125.9 14.8,2.3 -4.5,-10.3 -1.9,3.6 -3.2,-6.9 z"
       fill="#a5b6d9"
       id="path6"
       style="stroke-width:2.17348" />
    <ellipse
       cx="205.8"
       cy="131.7"
       rx="7.3000002"
       ry="12.3"
       fill="#365798"
       id="ellipse6"
       style="stroke-width:2.17348" />
    <path
       d="m 94.1,161.4 c -0.4,0.7 -0.4,1.6 0.1,2.2 l -6.2,9.5 h 1.6 l 5.9,-8.7 c 0.8,0.1 1.6,-0.2 2,-0.9 0.6,-0.9 0.3,-2.1 -0.6,-2.7 -1,-0.6 -2.2,-0.3 -2.8,0.6 z m -26.3,7.1 -2.3,3.1 1.1,1 1.9,-2.6 1.7,0.1 c 0.1,0.2 0.2,0.3 0.4,0.5 0.8,0.8 2,0.8 2.8,0 0.8,-0.8 0.8,-2 0,-2.8 -0.8,-0.8 -2,-0.8 -2.8,0 -0.2,0.2 -0.4,0.5 -0.5,0.9 z m 4.8,-16.3 c -1,0 -1.9,0.9 -1.9,1.9 0,1 0.9,1.9 1.9,1.9 0.9,0 1.6,-0.6 1.8,-1.4 l 10.5,0.3 4.1,5.1 c 0,0.2 -0.1,0.4 -0.1,0.6 0,1.1 0.9,2 2,2 1.1,0 2,-0.9 2,-2 0,-1.1 -0.9,-2 -2,-2 -0.4,0 -0.7,0.1 -1,0.3 L 85.4,153.5 74,153.2 c -0.2,-0.7 -0.8,-1 -1.4,-1 z m 3.2,6.4 c -1.1,0 -2,0.9 -1.9,2 0,1.1 0.9,2 2,1.9 0.8,0 1.4,-0.5 1.7,-1.2 l 5.3,-0.1 c 0.3,0.7 1,1.1 1.8,1.1 1.1,0 2,-0.9 1.9,-2 0,-1.1 -0.9,-2 -2,-1.9 -0.9,0 -1.6,0.6 -1.8,1.4 l -5.1,0.1 c -0.3,-0.8 -1,-1.4 -1.9,-1.3 z m -6.2,3.9 c 0,1 -0.9,1.9 -1.9,1.9 -1,0 -1.9,-0.9 -1.9,-1.9 0,-1 0.9,-1.9 1.9,-1.9 1,0 1.9,0.9 1.9,1.9 z m 3.1,-36.8 c -0.8,0 -1.5,0.6 -1.8,1.3 l -5.4,0.2 0.1,1.5 5.4,-0.2 c 0.3,0.7 1,1.2 1.9,1.2 1.1,0 1.9,-1 1.9,-2.1 0,-1.1 -1,-1.9 -2.1,-1.9 z m 13.4,4.8 c -1.1,0 -2,0.9 -1.9,2 0,1.1 0.9,2 2,1.9 0.8,0 1.4,-0.5 1.7,-1.2 l 6,-0.2 c 0.3,0.7 1,1.1 1.8,1.1 1.1,0 2,-0.9 1.9,-2 0,-1.1 -0.9,-2 -2,-1.9 -0.9,0 -1.6,0.6 -1.8,1.4 l -5.8,0.2 c -0.3,-0.8 -1,-1.4 -1.9,-1.3 z m -10.5,-7.2 -1,1.1 4.7,4.1 19.2,-0.7 -0.1,-1.5 -18.5,0.7 z m -9.9,12.2 v -1.4 l 16.2,-0.9 16.9,24.6 -1.3,0.8 -16.6,-24 z m 31.4,6 c 0.5,-0.6 0.6,-1.5 0.3,-2.2 L 99,137 v -2 l -2.8,3.4 c -0.7,-0.3 -1.6,0 -2.1,0.6 -0.7,0.8 -0.6,2.1 0.2,2.8 0.8,0.6 2.1,0.5 2.8,-0.3 z m -7.6,0.1 c 0.5,0.7 1.3,1 2.1,0.8 l 7.3,10.5 v -2.3 l -6,-9 c 0.4,-0.7 0.4,-1.5 0,-2.2 -0.6,-0.9 -1.8,-1.1 -2.7,-0.5 -1.2,0.6 -1.4,1.9 -0.7,2.7 z m -8.3,-2.2 c -0.8,0 -1.5,0.6 -1.8,1.3 l -13.6,0.7 0.1,1.5 13.6,-0.7 c 0.3,0.7 1,1.2 1.9,1.2 1.1,0 1.9,-1 1.9,-2.1 0,-1.1 -1,-2 -2.1,-1.9 z m 4.2,7.8 -19.3,0.5 v 1.5 l 18.6,-0.5 4.1,5.3 c 0,0.2 -0.1,0.4 -0.1,0.6 0,1.1 0.9,2 2,2 1.1,0 2,-0.9 2,-2 0,-1.1 -0.9,-2 -2,-2 -0.4,0 -0.7,0.1 -1,0.3 z m 9,25 c 0.3,0.6 1.2,0 1.4,0.9 -0.2,1 -2.1,0.1 -2.7,0.2 -0.3,-1 2,-3.6 2.6,-4.5 0.7,-0.3 2.2,0 3,0 0.1,0.7 0.1,1.3 -0.4,1.8 -0.8,0 -1.6,-0.3 -2.4,-0.4 -0.5,0.7 -1,1.3 -1.5,2 z m -26.5,-16 H 66 v -1.6 c 1.5,0 2.3,-0.4 3.1,0.9 1.6,2.4 3,5 4.5,7.4 0.7,1.2 1.5,2.5 2.3,3.7 1.1,1.8 1.4,1.9 3.5,2 1.5,0.1 3,0.1 4.5,0.1 1.6,0 1.5,-1.3 3,-1.2 1.3,1.2 1.3,2.8 0,4 -1.4,0.1 -1.3,-1.4 -2.3,-1.4 H 80 c -2.3,0 -2.9,0.5 -4.1,-1.3 -2.6,-4.2 -5.3,-8.4 -8,-12.6 z"
       fill="#a5b6d9"
       id="path7"
       style="stroke-width:2.17348" />
    <rect
       ry="5.1999998"
       y="131.89999"
       x="113.8"
       height="31.6"
       width="22.6"
       fill="#a5b6d9"
       id="rect7"
       style="stroke-width:2.17348" />
  </g>
</svg>
