<?xml version="1.0" encoding="UTF-8" standalone="no"?>
<svg xmlns="http://www.w3.org/2000/svg" xmlns:svg="http://www.w3.org/2000/svg" width="128" height="128" viewBox="0 0 128 128" version="1.1" id="svg_3do_icon">
  <defs id="defs1">
    <radialGradient id="SVGID_1_" cx="109.1953" cy="155.1304" r="36.6576" gradientUnits="userSpaceOnUse" gradientTransform="matrix(0.58801282,0,0,0.57469452,2.2583555,-2.1499321)">
      <stop offset="0.5225" stop-color="#FFE41B" id="stop4"/>
      <stop offset="0.8933" stop-color="#716A13" id="stop5"/>
      <stop offset="1" stop-color="#49482E" id="stop6"/>
    </radialGradient>
  </defs>
  <g id="3do_icon">
    <path id="icon03" fill="#888888" d="m 43,124.39896 c 0,-1.98902 9.399972,-3.60104 20.999701,-3.60104 C 75.59943,120.79792 85,122.40994 85,124.39896 85,126.38855 75.60002,128 63.999701,128 52.399386,128 43,126.38855 43,124.39896 Z"/>
    <path id="icon02" fill="url(#SVGID_1_);stroke:none" d="m 46.149397,90.448295 c 0,-9.661765 7.989328,-17.490248 17.850304,-17.490248 9.860383,0 17.849722,7.828483 17.849722,17.490248 0,9.661195 -7.989921,17.490255 -17.849722,17.490255 -9.860976,0 -17.850304,-7.82906 -17.850304,-17.490255 z"/>
    <path id="icon01" fill="#0000a0" d="m 47.374814,44.838819 c -2.62724,1.712013 -3.326388,11.658256 -3.326388,11.658256 0,0 0.699152,9.946809 3.326388,11.658826 2.623715,1.715463 16.624887,2.744163 16.624887,2.744163 0,0 14.001756,-1.0287 16.624295,-2.744163 2.627837,-1.712017 3.326978,-11.658826 3.326978,-11.658826 0,0 -0.699134,-9.946814 -3.326978,-11.658256 -2.62254,-1.716612 -16.624295,-2.74532 -16.624295,-2.74532 0,0 -14.001173,1.028708 -16.624887,2.74532 z"/>
    <path id="icon00" fill="#ff0000" d="M 63.9997,40.972271 43.0902,20.488435 63.9997,0 84.9092,20.488435 Z"/>
  </g>
</svg>
