<?xml version="1.0" encoding="UTF-8" standalone="no"?>
<svg xmlns="http://www.w3.org/2000/svg" xmlns:svg="http://www.w3.org/2000/svg" x="0px" y="0px" width="640" height="264" viewBox="0 0 640 264" id="svg_3do_logo" version="1.1">
  <g id="3do_logo">
    <path id="logo01" style="fill:#000000;stroke:none" d="M 0,-1.7822276e-7 H 640 V 264 H 0 Z"/>
    <path id="logo00" style="fill:#ffffff;stroke:none" d="m 108.2304,127.35477 v 0.42637 c 19.2448,0.35905 33.456,4.19322 42.6272,11.50251 9.1744,7.30609 13.7632,16.14135 13.7632,26.49939 0,11.56663 -5.2128,21.11679 -15.664,28.63125 -10.4288,7.5337 -24.3264,11.29734 -41.648,11.29734 -14.9696,0 -26.5376,-3.00706 -34.7296,-8.99235 -8.1888,-5.98528 -12.2848,-12.80087 -12.2848,-20.46921 0,-5.08765 1.8336,-9.21356 5.504,-12.33283 3.6704,-3.11606 8.0768,-4.66127 13.2032,-4.66127 4.8096,0 8.9504,1.36889 12.3744,4.07781 3.4464,2.73778 5.1456,6.34434 5.1456,10.80685 0,5.96284 -3.984,10.96073 -11.9712,14.99687 -1.5648,0.78543 -2.3712,1.67985 -2.3712,2.67045 0,1.83694 2.2368,3.44948 6.736,4.84401 4.4768,1.38812 9.04,2.06135 13.7376,2.06135 15.376,0 23.072,-11.31978 23.072,-33.96255 0,-22.41836 -9.2416,-33.62594 -27.7024,-33.62594 l -15.3312,0.62514 c -3.088,0 -4.656,-1.14128 -4.656,-3.42703 0,-2.62558 1.6352,-3.94638 4.88,-3.94638 l 11.1648,0.42638 c 11.392,0 19.0208,-2.53261 22.8928,-7.62346 3.8912,-5.06521 5.8176,-12.28474 5.8176,-21.655378 0,-9.639928 -1.456,-16.74725 -4.3872,-21.277086 -2.9312,-4.552277 -7.968,-6.812386 -15.0816,-6.812386 -3.8688,0 -7.5168,0.647577 -10.9216,1.968378 -3.4016,1.301567 -5.1232,2.580693 -5.1232,3.859818 0,1.182951 1.12,2.420401 3.3568,3.696321 5.8624,3.744408 8.816,7.802987 8.816,12.172532 0,4.305428 -1.632,7.710018 -4.9248,10.26827 -3.2896,2.532601 -6.9824,3.808521 -11.1008,3.808521 -4.7424,0 -8.9728,-1.45865 -12.688,-4.347101 -3.7152,-2.914098 -5.5968,-6.50142 -5.5968,-10.829289 0,-7.350966 4.1408,-13.717742 12.4192,-19.077888 8.2784,-5.382586 18.8864,-8.069071 31.8656,-8.069071 14.3456,0 26.4288,3.045538 36.272,9.123789 9.8688,6.075046 14.7936,13.852386 14.7936,23.383315 0.0128,18.741275 -17.4208,30.064265 -52.2592,33.962555 z M 281.9456,67.210212 V 196.11338 h 12.5984 c 19.2672,0 30.9024,-5.06521 34.9088,-15.17639 4.0064,-10.13042 6,-27.43869 6,-51.94084 0,-19.16765 -1.2352,-32.95592 -3.6928,-41.319927 -2.4384,-8.380037 -6.176,-13.897268 -11.168,-16.51643 -4.992,-2.625574 -11.344,-3.946376 -19.0208,-3.946376 H 281.9456 Z M 243.0304,196.11338 V 67.210212 H 222.848 v -6.972678 h 80.8704 c 23.3856,0 41.9136,6.636066 55.5424,19.930638 13.6256,13.272131 20.4512,30.038618 20.4512,50.283428 0,10.48947 -2.0768,20.37945 -6.24,29.593 -4.1632,9.23599 -10.5632,17.64168 -19.2,25.19461 -8.64,7.55614 -17.5008,12.41938 -26.5856,14.59614 -9.088,2.17355 -20.2304,3.25392 -33.4784,3.25392 h -71.36 v -6.97589 z M 535.44,131.73072 c 0,-21.87978 -0.4512,-36.296392 -1.344,-43.243423 -0.9152,-6.975883 -3.2448,-12.579672 -7.0016,-16.840218 -3.76,-4.257341 -9.9584,-6.389217 -18.576,-6.389217 -7.2704,0 -13.0656,1.727942 -17.3888,5.158178 -4.32,3.452678 -7.0016,8.966704 -8.0768,16.567724 -1.0496,7.597814 -1.5872,22.440806 -1.5872,44.522546 0,21.85734 0.448,36.33807 1.3632,43.40051 0.896,7.06245 3.3152,12.69188 7.232,16.8851 3.9168,4.19002 10.0672,6.27702 18.4608,6.27702 6.96,0 12.6432,-1.67986 17.0272,-5.04598 4.3904,-3.38535 7.1392,-8.8545 8.2368,-16.45552 1.1168,-7.60422 1.6544,-22.553 1.6544,-44.83672 z m -98.2368,-0.6059 c 0,-21.36685 7.024,-38.851439 21.1264,-52.460182 C 472.4,65.081541 489.2992,58.28839 508.9888,58.28839 c 18.2848,0 34.6432,6.389217 49.0752,19.16765 14.4384,12.778434 21.6416,30.95869 21.6416,54.52153 0,22.08496 -6.8032,39.79395 -20.4544,53.11097 -13.6512,13.3138 -30.3232,19.97231 -50.0128,19.97231 -21.28,0 -38.624,-7.08488 -51.984,-21.20656 -13.36,-14.12809 -20.0512,-31.70244 -20.0512,-52.72947 z"/>
  </g>
</svg>
