<?xml version="1.0" encoding="UTF-8" standalone="no"?>
<svg
   version="1.1"
   id="svg14"
   width="600"
   height="107.442"
   xmlns="http://www.w3.org/2000/svg"
   xmlns:svg="http://www.w3.org/2000/svg">
  <defs
     id="defs18" />
  <g
     id="g12"
     style="fill:#cccccc;fill-opacity:1;stroke:none">
    <path
       id="path16"
       d="m 332.787,4.932 -8.481,25.83 h 4.188 L 336.99,5.82 c 0.309,-1.14 1.239,-1.974 2.334,-1.974 1.107,0 2.037,0.834 2.346,1.974 l 7.182,21.099 h -11.268 v 3.843 h 16.77 L 345.873,4.932 C 345.06,2.082 342.435,0 339.324,0 336.222,0 333.6,2.082 332.787,4.932 Z m 4.965,16.041 1.485,-4.407 1.548,4.407 z M 337.14,8.325 329.544,30.762 h 4.896 l 3.141,-9.3 v 4.398 h 9.864 L 341.589,8.325 c -0.3,-0.975 -1.185,-3.783 -2.229,-3.783 -1.047,0 -1.935,2.805 -2.22,3.783 z M 310.329,4.896 h 14.676 V 0.699 h -15.027 c -4.053,0 -7.338,3.294 -7.338,7.347 v 15.381 c 0,4.053 3.285,7.338 7.338,7.338 h 15.027 V 11.181 h -11.88 v 3.846 h 7.683 v 11.535 h -10.479 c -1.935,0 -3.492,-1.563 -3.492,-3.492 V 8.385 c 0,-1.923 1.557,-3.489 3.492,-3.489 z m 2.796,11.181 v 4.2 h 2.442 v 1.047 h -2.442 c -0.579,0 -1.05,-0.471 -1.05,-1.047 v -9.093 c 0,-0.579 0.471,-1.05 1.05,-1.05 h 11.88 V 5.943 h -13.626 c -1.935,0 -3.504,1.566 -3.504,3.495 v 12.585 c 0,1.926 1.569,3.492 3.504,3.492 h 8.388 V 16.077 Z M 286.218,4.896 h 14.676 V 0.699 h -15.03 c -4.053,0 -7.335,3.294 -7.335,7.347 v 15.21 c 0,4.05 3.282,7.344 7.335,7.344 h 15.03 v -4.197 h -14.676 c -1.929,0 -3.495,-1.563 -3.495,-3.492 V 8.388 c 0,-1.926 1.566,-3.492 3.495,-3.492 z m 11.526,10.131 v -3.843 h -9.783 c 0,-0.579 0.471,-1.05 1.05,-1.05 h 11.88 V 5.943 h -13.626 c -1.926,0 -3.489,1.566 -3.489,3.495 v 5.589 z m 0,1.404 v 3.843 h -9.783 c 0,0.579 0.471,1.05 1.05,1.05 h 11.88 v 4.188 h -13.626 c -1.926,0 -3.489,-1.563 -3.489,-3.495 v -5.589 z m -35.91,5.238 h -8.814 v 3.846 h 13.452 0.174 c 2.523,-0.093 4.542,-2.172 4.542,-4.716 0,-2.604 -2.109,-4.722 -4.716,-4.722 h -5.301 c -2.142,-0.816 -3.963,-2.943 -3.963,-5.421 0,-3.186 2.934,-5.766 6.117,-5.766 h 13.11 V 0.696 H 262.8 c -5.4,0 -9.78,4.389 -9.78,9.789 0,5.409 4.731,9.789 10.131,9.789 v -0.045 l 0.027,0.045 h 3.123 c 0.378,0 0.696,0.309 0.696,0.699 0,0.387 -0.318,0.696 -0.696,0.696 z m 5.781,-11.88 h 8.823 V 5.943 h -13.455 -0.18 c -2.526,0.09 -4.542,2.172 -4.542,4.716 0,2.613 2.115,4.725 4.725,4.725 h 5.301 c 2.145,0.822 3.954,2.94 3.954,5.418 0,3.186 -2.931,5.766 -6.117,5.766 h -13.101 v 4.197 h 13.626 c 5.403,0 9.789,-4.38 9.789,-9.789 0,-5.4 -4.731,-9.789 -10.134,-9.789 v 0.054 l -0.033,-0.054 h -3.114 c -0.39,0 -0.699,-0.306 -0.699,-0.696 0,-0.378 0.309,-0.696 0.699,-0.696 z"
       style="fill:#cccccc;fill-opacity:1;stroke:none" />
    <polygon
       id="polygon37"
       points="213.855,107.346 192.966,107.346 192.966,45.312 214.725,45.312 253.887,67.593 253.887,45.312 274.776,45.312 274.776,107.346 253.887,107.346 253.887,84.429 213.855,61.647 "
       style="fill:#cccccc;fill-opacity:1;stroke:none" />
    <rect
       id="rect58"
       x="479.96701"
       y="45.012001"
       width="21.714001"
       height="62.43"
       style="fill:#cccccc;fill-opacity:1;stroke:none" />
    <polygon
       id="polygon79"
       points="310.74,82.47 310.74,94.956 368.709,94.956 348.195,107.442 289.335,107.442 289.335,59.283 310.74,45.012 366.924,45.012 346.413,57.498 310.74,57.498 310.74,69.984 353.547,69.984 333.033,82.47 "
       style="fill:#cccccc;fill-opacity:1;stroke:none" />
    <polygon
       id="polygon100"
       points="121.275,82.563 121.275,94.977 178.92,94.977 158.52,107.394 99.99,107.394 99.99,59.505 121.275,45.312 177.147,45.312 156.747,57.732 121.275,57.732 121.275,70.143 163.842,70.143 143.445,82.563 "
       style="fill:#cccccc;fill-opacity:1;stroke:none" />
    <polygon
       id="polygon121"
       points="21.291,94.995 61.215,94.995 61.215,79.914 36.375,79.914 56.778,67.494 82.509,67.494 82.509,93.222 61.215,107.418 0,107.418 0,59.508 21.291,45.312 86.055,45.312 65.649,57.738 21.291,57.738 "
       style="fill:#cccccc;fill-opacity:1;stroke:none" />
    <polygon
       points="443.172,82.11 381.648,82.11 381.648,57.681 402.459,45.012 467.604,45.012 446.793,57.681 404.268,57.681 404.268,69.441 466.698,69.441 466.698,94.776 445.887,107.442 381.648,107.442 402.459,94.776 443.172,94.776 "
       id="polygon170"
       style="fill:#cccccc;fill-opacity:1;stroke:none" />
    <polygon
       id="polygon142"
       points="467.604,45.012 446.793,57.681 404.268,57.681 404.268,69.441 466.698,69.441 466.698,94.776 445.887,107.442 381.648,107.442 402.459,94.776 443.172,94.776 443.172,82.11 381.648,82.11 381.648,57.681 402.459,45.012 "
       style="fill:#cccccc;fill-opacity:1;stroke:none" />
    <polygon
       points="575.574,82.11 514.047,82.11 514.047,57.681 534.858,45.012 600,45.012 579.192,57.681 536.667,57.681 536.667,69.441 599.097,69.441 599.097,94.776 578.286,107.442 514.047,107.442 534.858,94.776 575.574,94.776 "
       id="polygon202"
       style="fill:#cccccc;fill-opacity:1;stroke:none" />
    <polygon
       id="polygon163"
       points="600,45.012 579.192,57.681 536.667,57.681 536.667,69.441 599.097,69.441 599.097,94.776 578.286,107.442 514.047,107.442 534.858,94.776 575.574,94.776 575.574,82.11 514.047,82.11 514.047,57.681 534.858,45.012 "
       style="fill:#cccccc;fill-opacity:1;stroke:none" />
  </g>
</svg>
