<?xml version="1.0" encoding="UTF-8" standalone="no"?>
<svg xmlns="http://www.w3.org/2000/svg" xmlns:svg="http://www.w3.org/2000/svg" id="svgmsxicon" width="128" height="128" version="1.1">
  <g id="msxicon">
    <path id="msxicon01" fill="#00000f" d="m 0,37.5 h 128 v 53 H 0 Z"/>
    <path id="msxicon00" fill="#ffffff" d="m 8.396893,82.986986 9.722718,-38.272155 h 9.015611 l 4.684583,16.705397 4.86136,-16.705397 h 8.48528 l 7.954952,28.195884 19.408825,-0.03661 c 2.03741,-0.01985 2.162383,-4.233017 -0.15089,-4.231917 L 61.076347,68.491298 C 56.22262,68.538257 51.104395,63.28721 51.35363,56.293704 51.405417,49.878928 56.99906,44.827367 64.154775,44.829107 l 28.829768,-0.02589 7.336227,9.987883 7.15946,-10.076271 11.93243,0.08839 L 106.33118,63.187995 120.47332,83.12271 108.60339,83.0861 100.37255,71.647391 92.5426,83.0861 80.433397,83.07538 94.221977,63.36478 88.21157,54.614333 63.150332,54.650943 c -2.735062,0.02507 -2.634775,4.327819 0.02145,4.247082 l 10.559268,0.161612 c 4.462722,0.0289 10.74778,4.666401 10.591435,11.906538 0.06824,8.417196 -7.512918,12.262495 -11.16282,12.057428 L 45.52,83.06021 40.923805,65.839645 36.32761,83.023597 h -8.724558 l -4.798858,-17.095562 -4.216753,17.12145 z"/>
  </g>
</svg>
