<?xml version="1.0" encoding="UTF-8" standalone="no"?>
<svg xmlns="http://www.w3.org/2000/svg" xmlns:svg="http://www.w3.org/2000/svg" id="svgmsxlogo" width="640" height="265" version="1.1">
  <g id="msxlogo">
    <path id="msxlogo01" fill="#00000f" d="M 0,0 H 640 V 265 H 0 Z"/>
    <path id="msxlogo00" fill="#ffffff" d="M 41.984465,227.43494 90.598056,36.074177 h 45.078054 l 23.42291,83.526983 24.3068,-83.526983 h 42.4264 l 39.77477,140.979413 97.04412,-0.18306 c 10.18705,-0.0993 10.81192,-21.16509 -0.75445,-21.15959 l -56.51492,-0.75443 c -24.26864,0.23478 -49.85977,-26.02044 -48.61359,-60.987966 0.25894,-32.073879 28.22715,-57.331685 64.00572,-57.322985 l 144.14884,-0.129441 36.68117,49.939416 35.79727,-50.381357 59.66214,0.441941 -65.40738,91.923872 70.71068,99.67358 -59.34964,-0.18306 -41.15419,-57.19355 -39.14976,57.19355 -60.54601,-0.0536 68.9429,-98.55301 -30.05204,-43.752232 -125.30619,0.183059 c -13.67531,0.125339 -13.17387,21.639093 0.10725,21.235413 l 52.79634,0.80805 c 22.31361,0.1445 53.7389,23.33201 52.95717,59.5327 0.34122,42.08597 -37.56458,61.31247 -55.8141,60.28713 L 227.6,227.80107 204.61903,141.69824 181.63805,227.61801 H 138.01526 L 114.02097,142.1402 92.937206,227.74744 Z"/>
  </g>
</svg>
