<?xml version="1.0" encoding="UTF-8" standalone="no"?>
<svg
     id="svgnesicon"
     width="128"
     height="128"
     version="1.1"
     xmlns="http://www.w3.org/2000/svg"
     xmlns:svg="http://www.w3.org/2000/svg">
    <path
         id="nesicon02"
         fill="#000000"
         d="m 43.052715,80.555448 v 3.350049 c 0,0.651398 1.011923,1.675024 1.655874,1.675024 h 1.655874 V 88 h 2.391817 v -2.419479 h 1.655874 c 0.643951,0 1.655873,-1.023626 1.655873,-1.675024 v -3.350049 h -2.299824 v 2.69865 c 0,0.279171 -0.367972,0.651399 -0.735944,0.651399 h -2.943775 c -0.367972,0 -0.735944,-0.372228 -0.735944,-0.651399 v -2.69865 z m 12.035429,0 c -0.643951,0 -2.023846,1.023625 -2.023846,1.675024 v 1.023626 c 0,0.651399 1.379895,1.675025 2.023846,1.675025 h 4.047691 c 0.367972,0 0.735944,0.372227 0.735944,0.651398 0,0.372227 -0.367972,0.744455 -0.735944,0.744455 H 53.064298 V 88 h 6.807481 c 0.643951,0 1.931853,-1.023626 1.931853,-1.675024 V 85.30135 c 0,-0.744455 -1.287902,-1.768081 -1.931853,-1.768081 h -4.047691 c -0.367972,0 -0.735944,-0.279171 -0.735944,-0.651399 0,-0.372227 0.367972,-0.651398 0.735944,-0.651398 h 5.979544 v -1.675024 z m -19.48686,0 c -0.643951,0 -2.023846,1.023625 -2.023846,1.675024 v 1.023626 c 0,0.651399 1.379895,1.675025 2.023846,1.675025 h 4.047691 c 0.367972,0 0.735944,0.372227 0.735944,0.651398 0,0.372227 -0.367972,0.744455 -0.735944,0.744455 H 33.577438 V 88 h 6.807481 c 0.643951,0 1.931852,-1.023626 1.931852,-1.675024 V 85.30135 c 0,-0.744455 -1.287901,-1.768081 -1.931852,-1.768081 h -4.047691 c -0.367972,0 -0.735944,-0.279171 -0.735944,-0.651399 0,-0.372227 0.367972,-0.651398 0.735944,-0.651398 h 5.979543 v -1.675024 z m 27.246674,-0.04001 v 1.675024 h 2.391818 c 0.64395,0 0.64395,0 0.64395,0.744455 v 5.025073 h 2.299825 v -5.025073 c 0,-0.744455 0,-0.744455 0.735944,-0.744455 h 2.299824 v -1.675024 z m 17.4832,7.444552 h -6.071537 c -1.011923,0 -2.023845,-0.651399 -2.023845,-1.675024 v -5.862585 h 8.095382 v 1.768081 h -5.427586 c -0.275979,0 -0.643951,0.27917 -0.643951,0.651398 0,0.372228 0.367972,0.651398 0.643951,0.651398 h 5.059614 v 1.488911 h -5.059614 c -0.275979,0 -0.643951,0.372228 -0.643951,0.651399 0,0.372227 0.367972,0.744455 0.643951,0.744455 h 5.427586 z m 14.065581,0 v -5.397299 c 0,-1.023625 -1.011922,-2.047251 -2.023845,-2.047251 H 81.977691 v 7.444552 h 2.391817 v -5.02507 c 0,-0.372228 0.275979,-0.744455 0.643951,-0.744455 h 1.379895 c 0.275979,0 0.643951,0.372227 0.643951,0.744455 v 5.025073 h 2.391817 v -5.025073 c 0,-0.372228 0.275979,-0.744455 0.643947,-0.744455 h 1.379895 c 0.275979,0 0.643951,0.372227 0.643951,0.744455 v 5.025073 z M 72.21449,77.763741 v -7.444552 h -2.299824 v 7.444552 z M 60.807361,70.319189 c -0.643951,0 -1.655874,1.395853 -1.655874,2.047251 v 5.397301 h 2.391817 v -2.047252 h 4.323671 v 2.047252 h 2.391817 V 72.36644 c 0,-0.651398 -1.011923,-2.047251 -1.747867,-2.047251 z m 1.379894,1.675023 h 3.035769 c 0.275979,0 0.643951,0.372228 0.643951,0.744456 v 1.302797 h -4.323671 v -1.302797 c 0,-0.372228 0.275979,-0.744456 0.643951,-0.744456 z m -22.53828,-1.675023 v 7.444552 h 2.391817 v -1.302797 c 0,-0.372228 0.275979,-0.744455 0.643951,-0.744455 h 3.035769 c 0.367972,0 0.643951,0.372227 0.643951,0.744455 v 1.302797 h 2.023845 v -2.047252 c 0,-0.27917 -0.275979,-0.651398 -0.275979,-1.023626 0,-0.279171 0.643951,-0.930569 0.643951,-1.675024 V 72.36644 c 0,-0.651398 -1.011923,-2.047251 -1.655874,-2.047251 z m 3.035768,1.675023 h 3.035769 c 0.367972,0 0.643951,0.372228 0.643951,0.744456 v 0.651398 c 0,0.372228 -0.275979,0.651399 -0.643951,0.651399 h -3.035769 c -0.367972,0 -0.643951,-0.279171 -0.643951,-0.651399 v -0.651398 c 0,-0.372228 0.275979,-0.744456 0.643951,-0.744456 z m 76.943897,-1.675023 v 1.675023 h 2.39182 c 0.64395,0 0.64395,0 0.64395,0.744456 v 5.025073 h 2.29982 v -5.025073 c 0,-0.744456 0,-0.744456 0.73595,-0.744456 H 128 v -1.675023 z m -69.883915,0 v 1.675023 h 2.391818 c 0.643951,0 0.643951,0 0.643951,0.744456 v 5.025073 h 2.299824 v -5.025073 c 0,-0.744456 0,-0.744456 0.735944,-0.744456 h 2.299825 v -1.675023 z m -29.23029,0 v 1.675023 h 2.391817 c 0.643951,0 0.643951,0 0.643951,0.744456 v 5.025073 h 2.299825 v -5.025073 c 0,-0.744456 0,-0.744456 0.735944,-0.744456 h 2.299824 v -1.675023 z m 86.695155,7.444552 h -6.07154 c -1.01192,0 -2.023846,-0.651399 -2.023846,-1.675025 v -5.862584 h 8.095386 v 1.76808 H 101.782 c -0.27598,0 -0.64395,0.279171 -0.64395,0.651399 0,0.372228 0.36797,0.651398 0.64395,0.651398 h 5.05961 V 74.78592 H 101.782 c -0.27598,0 -0.64395,0.372228 -0.64395,0.651399 0,0.372227 0.36797,0.744454 0.64395,0.744454 h 5.42759 z m -69.211956,0 h -6.071537 c -1.011923,0 -2.023846,-0.651399 -2.023846,-1.675025 v -5.862584 h 8.095383 v 1.76808 h -5.427586 c -0.275979,0 -0.643951,0.279171 -0.643951,0.651399 0,0.372228 0.367972,0.651398 0.643951,0.651398 h 5.059614 v 1.488911 h -5.059614 c -0.275979,0 -0.643951,0.372228 -0.643951,0.651399 0,0.372227 0.367972,0.744454 0.643951,0.744454 h 5.427586 z m -29.9022517,0 H 2.0238456 C 1.0119228,77.763741 0,77.112342 0,76.088716 v -5.862584 h 8.0953823 v 1.76808 H 2.6677965 c -0.275979,0 -0.6439509,0.279171 -0.6439509,0.651399 0,0.372228 0.3679719,0.651398 0.6439509,0.651398 H 7.7274104 V 74.78592 H 2.6677965 c -0.275979,0 -0.6439509,0.372228 -0.6439509,0.651399 0,0.372227 0.3679719,0.744454 0.6439509,0.744454 h 5.4275858 z m 89.3251847,0 V 72.36644 c 0,-1.023626 -1.011923,-2.047251 -2.023845,-2.047251 H 85.001515 v 7.444552 h 2.391817 v -5.025073 c 0,-0.372228 0.275979,-0.744456 0.643951,-0.744456 h 1.379895 c 0.275979,0 0.643951,0.372228 0.643951,0.744456 v 5.025073 h 2.391817 v -5.025073 c 0,-0.372228 0.275979,-0.744456 0.643951,-0.744456 h 1.379895 c 0.275979,0 0.643951,0.372228 0.643951,0.744456 v 5.025073 z m 20.860173,0 V 72.36644 c 0,-1.023626 -1.01192,-2.047251 -2.02385,-2.047251 h -7.72741 v 7.444552 h 2.39182 v -5.025073 c 0,-0.372228 0.27598,-0.744456 0.64395,-0.744456 h 3.67972 c 0.36797,0 0.73594,0.372228 0.73594,0.744456 v 5.025073 z m -34.941961,0 V 72.36644 c 0,-1.023626 -1.011923,-2.047251 -2.023845,-2.047251 h -7.727411 v 7.444552 h 2.391818 v -5.025073 c 0,-0.372228 0.275979,-0.744456 0.643951,-0.744456 h 3.679719 c 0.367972,0 0.735944,0.372228 0.735944,0.744456 v 5.025073 z m -63.836267,0 V 72.36644 c 0,-1.023626 -1.011923,-2.047251 -2.023846,-2.047251 h -7.72741 v 7.444552 h 2.391818 v -5.025073 c 0,-0.372228 0.275978,-0.744456 0.64395,-0.744456 h 3.67972 c 0.367972,0 0.735943,0.372228 0.735943,0.744456 v 5.025073 z" />
    <path
         id="nesicon01"
         fill="#ff0000"
         d="m 22.958705,40.000001 c 0,0 1.047348,0 1.047348,0 0,0 1.933563,0 1.933563,0 0,0 5.934966,0 5.934966,0 0,0 18.100307,0 18.100307,0 0,0 36.549735,0 36.549735,0 0,0 18.288306,0 18.288306,0 0,0 0.51024,0.02525 0.51024,0.02525 0.34321,0.0041 1.09649,0.112789 1.45017,0.176706 1.10241,0.198728 2.23972,0.53737 3.24946,1.024788 0,0 0.37598,0.175098 0.37598,0.175098 1.39297,0.718102 2.66133,1.66528 3.73043,2.812796 3.78012,4.057262 4.63089,10.147453 2.2244,15.119397 -0.5575,1.151813 -1.35269,2.313833 -2.2244,3.249464 0,0 -0.48097,0.48339 -0.48097,0.48339 -1.15263,1.15262 -2.55956,2.058709 -4.05511,2.696785 -0.90529,0.386176 -1.85193,0.657949 -2.81979,0.832507 -0.35368,0.06391 -1.10696,0.172679 -1.45017,0.176706 0,0 -0.51024,0.02685 -0.51024,0.02685 0,0 -40.819698,0 -40.819698,0 0,0 -40.819686,0 -40.819686,0 0,0 -0.510244,-0.02685 -0.510244,-0.02685 0,0 -0.537107,-0.04941 -0.537107,-0.04941 -0.850231,-0.09077 -1.624726,-0.249481 -2.443811,-0.495205 -1.287965,-0.386445 -2.455889,-0.963828 -3.57172,-1.711204 -0.859092,-0.575505 -1.706907,-1.324492 -2.394397,-2.094695 -0.828212,-0.927304 -1.541206,-1.968207 -2.083416,-3.088333 -1.8000882,-3.719156 -1.8000882,-8.150777 0,-11.869933 1.564846,-3.233081 4.439677,-5.745103 7.861554,-6.83891 0.742005,-0.237131 1.510327,-0.410076 2.282678,-0.511858 0,0 0.886219,-0.08808 0.886219,-0.08808 0.127824,-0.0013 0.163548,0.0033 0.295403,-0.02525 z m 0.402821,3.141503 c -0.166763,0.03062 -0.239273,0.02498 -0.402821,0.02578 0,0 -0.429679,0.03142 -0.429679,0.03142 -0.542745,0.05264 -1.221373,0.179662 -1.745582,0.329244 -2.441393,0.695815 -4.562674,2.322695 -5.869169,4.500103 -2.027829,3.37944 -1.968213,7.695047 0.167581,11.010571 0.579253,0.899377 1.324754,1.723828 2.156724,2.395472 0.811561,0.654726 1.763303,1.199616 2.739207,1.5678 0.852386,0.321455 1.776735,0.538172 2.685515,0.604507 0,0 0.268546,0.02551 0.268546,0.02551 0,0 0.322261,0 0.322261,0 0,0 0.322265,0.02579 0.322265,0.02579 0,0 23.363894,0 23.363894,0 0,0 46.727803,0 46.727803,0 0,0 7.385139,0 7.385139,0 0,0 3.35688,0 3.35688,0 0,0 0.40284,-0.02685 0.40284,-0.02685 0.70601,-0.008 1.40934,-0.114133 2.09468,-0.28547 2.40407,-0.601014 4.44855,-2.053068 5.85387,-4.091904 0.53522,-0.776648 0.97377,-1.683275 1.27159,-2.578086 0.27285,-0.819347 0.50004,-1.984587 0.50138,-2.846636 0,0 0.0269,-0.402824 0.0269,-0.402824 0,0 -0.0258,-0.322263 -0.0258,-0.322263 0,0 0,-0.32226 0,-0.32226 0,0 -0.0256,-0.268551 -0.0256,-0.268551 -0.0741,-1.058627 -0.33408,-2.077774 -0.7275,-3.061476 -0.32576,-0.814515 -0.76698,-1.580957 -1.29254,-2.282679 -1.47165,-1.965523 -3.63134,-3.337278 -6.0389,-3.818789 -0.53199,-0.106346 -1.06909,-0.176438 -1.6113,-0.182615 0,0 -0.40282,-0.02578 -0.40282,-0.02578 0,0 -3.22261,0 -3.22261,0 0,0 -7.036026,0 -7.036026,0 0,0 -47.39918,0 -47.39918,0 0,0 -15.629642,0 -15.629642,0 0,0 -5.156169,0 -5.156169,0 0,0 -1.691871,0 -1.691871,0 z m -2.497516,4.10775 c 0,0 3.75971,0 3.75971,0 0.0513,0 0.136688,-0.0033 0.183152,0.01612 0.10312,0.04324 0.286543,0.385908 0.35529,0.494134 0,0 0.97672,1.557592 0.97672,1.557592 0,0 1.66931,2.658651 1.66931,2.658651 0,0 1.22808,1.960421 1.22808,1.960421 0,0 0.805919,1.289041 0.805919,1.289041 0,0 0.421092,0.64452 0.421092,0.64452 0,0 0,-8.620472 0,-8.620472 0,0 3.679143,0 3.679143,0 0,0 0,9.506691 0,9.506691 0,0 0,2.202114 0,2.202114 0,0 0,0.48339 0,0.48339 0,0 -0.04297,0.160596 -0.04297,0.160596 0,0 -0.198727,0.02739 -0.198727,0.02739 0,0 -3.222604,0 -3.222604,0 0,0 -0.210008,-0.02739 -0.210008,-0.02739 0,0 -0.359053,-0.50971 -0.359053,-0.50971 0,0 -1.043592,-1.638159 -1.043592,-1.638159 0,0 -2.88047,-4.51165 -2.88047,-4.51165 0,0 -0.839758,-1.315898 -0.839758,-1.315898 0,0 -0.602095,-0.913072 -0.602095,-0.913072 0,0 0,8.91588 0,8.91588 0,0 -2.819777,0 -2.819777,0 0,0 -0.644524,0 -0.644524,0 0,0 -0.171871,-0.02739 -0.171871,-0.02739 0,0 -0.04297,-0.214305 -0.04297,-0.214305 z m 15.361095,0 c 0,0 3.679143,0 3.679143,0 0,0 0,2.22897 0,2.22897 0,0 -3.679143,0 -3.679143,0 z m 55.267705,0 c 0,0 3.679143,0 3.679143,0 0,0 0,9.506691 0,9.506691 0,0 0,2.202115 0,2.202115 0,0 0,0.48339 0,0.48339 0,0 -0.04297,0.160595 -0.04297,0.160595 0,0 -0.198725,0.02739 -0.198725,0.02739 0,0 -3.43745,0 -3.43745,0 0,0 0,-0.26855 0,-0.26855 0,0 -0.563955,0.20329 -0.563955,0.20329 -0.528773,0.161937 -1.00438,0.2707 -1.557593,0.309372 0,0 -0.268551,0.02443 -0.268551,0.02443 -0.604776,0.007 -1.107501,-0.07197 -1.665011,-0.318499 -1.528859,-0.675674 -2.60924,-2.327258 -2.741365,-3.978307 0,0 -0.02472,-0.268551 -0.02472,-0.268551 -0.01961,-1.683545 0.974838,-3.208107 2.470666,-3.954408 0.497625,-0.24814 1.134091,-0.416254 1.691869,-0.422967 0.696353,-0.008 1.443458,0.186105 2.06784,0.490373 0,0 0.59081,0.342134 0.59081,0.342134 z m -36.496027,1.101057 c 0,0 3.759716,0 3.759716,0 0,0 0,1.772435 0,1.772435 0,0 1.933558,0 1.933558,0 0,0 0,1.127911 0,1.127911 0,0 -1.933558,0 -1.933558,0 0,0 0,6.418359 0,6.418359 0,0 0,1.477028 0,1.477028 0,0.09104 0.02416,0.402827 -0.04297,0.456001 -0.0427,0.03357 -0.145286,0.02739 -0.198728,0.02739 0,0 -3.518017,0 -3.518017,0 0,0 0,-8.378779 0,-8.378779 0,0 -1.933558,0 -1.933558,0 0,0 0,-1.127912 0,-1.127912 0,0 1.933558,0 1.933558,0 z m -9.399267,3.705999 c 0.208666,-0.05962 0.529579,-0.252707 0.725091,-0.364693 0.363078,-0.208125 0.817196,-0.467277 1.208478,-0.605849 0.512661,-0.181541 1.171415,-0.136692 1.718719,-0.130516 0.39558,0.0048 0.857217,0.167307 1.208477,0.342401 0.656608,0.327632 1.16202,0.707901 1.665556,1.242047 0.334074,0.354219 0.643173,0.813172 0.64398,1.315899 0,0 0,5.773838 0,5.773838 0,0 -3.759706,0 -3.759706,0 0,0 0,-5.639563 0,-5.639563 0,-0.121653 7e-4,-0.204637 -0.04162,-0.32226 -0.130786,-0.366304 -0.630561,-0.729921 -0.978871,-0.88219 -0.167575,-0.07305 -0.324943,-0.133739 -0.510243,-0.138033 -0.208662,-0.0046 -0.28762,0.02659 -0.483392,0.08406 -0.356635,0.105004 -0.809142,0.355294 -1.074205,0.614176 -0.101237,0.09909 -0.199529,0.190939 -0.259151,0.321993 -0.06096,0.133736 -0.06283,0.233638 -0.06311,0.375969 0,0 0,5.585854 0,5.585854 0,0 -2.819776,0 -2.819776,0 0,0 -0.644524,0 -0.644524,0 0,0 -0.171871,-0.02739 -0.171871,-0.02739 0,0 -0.04297,-0.214304 -0.04297,-0.214304 0,0 0,-8.137083 0,-8.137083 0,0 3.679142,0 3.679142,0 z m 25.458596,4.67278 c -0.02684,0.297285 -0.28681,0.792224 -0.447938,1.047347 -0.545428,0.863658 -1.398349,1.543897 -2.344986,1.922823 -0.614445,0.245991 -1.430841,0.466204 -2.094698,0.467276 -0.577654,9.09e-4 -0.923001,0.01262 -1.503881,-0.09695 -1.509254,-0.284662 -2.943849,-1.154498 -3.71352,-2.507993 -0.270159,-0.475067 -0.523134,-1.195318 -0.529579,-1.745579 0,0 0,-0.537102 0,-0.537102 0,-0.242769 0.05183,-0.490373 0.11091,-0.725086 0.341329,-1.359672 1.432448,-2.443541 2.682015,-3.016092 0.858556,-0.393426 1.794456,-0.593497 2.73922,-0.582486 0,0 0.268547,0.02792 0.268547,0.02792 0,0 0.214842,0 0.214842,0 1.567527,0.152807 3.117063,0.868761 4.047325,2.174186 0.232564,0.326557 0.425923,0.693667 0.55375,1.074202 0.161936,0.481779 0.205982,0.783898 0.205982,1.289043 0,0 -6.794335,0 -6.794335,0 0,0 0,2.33639 0,2.33639 0.0038,0.317695 0.08729,0.656068 0.324682,0.881384 0.211615,0.200875 0.493595,0.276069 0.776378,0.302118 0.467009,0.04324 1.021298,0.01451 1.396195,-0.305879 0.354217,-0.303193 0.349386,-0.697964 0.349386,-1.119319 0,0 0,-0.886216 0,-0.886216 z m 30.695338,-5.762559 c 0.38805,-0.04726 1.13865,0.03921 1.53074,0.117625 1.78452,0.356905 3.49679,1.52698 4.03577,3.335398 0.14367,0.481781 0.15925,0.821229 0.15361,1.315898 -0.005,0.379464 -0.13803,0.936169 -0.27929,1.289044 -0.64157,1.604051 -2.19245,2.687923 -3.85638,3.022536 -0.62384,0.12568 -1.03795,0.126755 -1.66502,0.119504 -0.39504,-0.0048 -0.98666,-0.121115 -1.36961,-0.230415 -1.919868,-0.547842 -3.503778,-2.027021 -3.654705,-4.093248 0,0 -0.02443,-0.268552 -0.02443,-0.268552 -0.0078,-0.669227 0.189325,-1.433253 0.521795,-2.014128 0.714073,-1.247686 1.92282,-2.03615 3.29162,-2.397352 0.33193,-0.08755 0.67916,-0.143673 1.02049,-0.176169 z m -65.526345,0.284126 c 0,0 3.679143,0 3.679143,0 0,0 0,8.37878 0,8.37878 0,0 -2.819782,0 -2.819782,0 0,0 -0.644524,0 -0.644524,0 0,0 -0.171871,-0.02739 -0.171871,-0.02739 0,0 -0.04297,-0.214304 -0.04297,-0.214304 z m 40.14831,1.101059 c 0.731262,-0.31501 1.368802,-0.840295 2.148404,-1.043319 0.353142,-0.09185 1.159602,-0.0623 1.557592,-0.05774 0.389671,0.0046 0.810486,0.17053 1.154769,0.342403 0.656873,0.328438 1.314286,0.807262 1.782908,1.376323 0.287348,0.349385 0.525821,0.743883 0.526628,1.208476 0,0 0,5.720126 0,5.720126 0,0 -3.759708,0 -3.759708,0 0,0 0,-5.585851 0,-5.585851 -2.24e-4,-0.147703 -0.007,-0.264253 -0.06795,-0.402826 -0.200879,-0.456266 -0.961412,-0.949594 -1.462799,-0.973496 -0.167039,-0.008 -0.378924,0.04351 -0.5371,0.09695 -0.422162,0.141796 -1.13409,0.531193 -1.303007,0.957115 -0.04324,0.108495 -0.03947,0.182345 -0.03975,0.295406 0,0 0,5.612706 0,5.612706 0,0 -3.679141,0 -3.679141,0 0,0 0,-8.378778 0,-8.378778 0,0 3.679141,0 3.679141,0 z m -9.077008,1.772433 c 0,-0.576845 0.08888,-1.251446 -0.257002,-1.745578 -0.554295,-0.791956 -1.921479,-0.783361 -2.400578,0.08056 -0.251896,0.454116 -0.189061,1.152081 -0.189061,1.665013 z m 34.750443,-2.321083 c -0.67111,0.03411 -1.16148,0.23337 -1.38679,0.924621 -0.12112,0.370867 -0.0902,1.29119 -0.0902,1.718722 0,0 0,3.222607 0,3.222607 10e-4,0.257272 0.0338,0.63378 0.15845,0.859363 0.2578,0.466472 0.89051,0.542741 1.3723,0.537102 0.51346,-0.0062 1.04734,-0.144749 1.24956,-0.671377 0.0612,-0.158983 0.0929,-0.523137 0.0932,-0.698232 0,0 0,-4.269953 0,-4.269953 -0.001,-0.621963 -0.17511,-1.261651 -0.80566,-1.518653 -0.22289,-0.09077 -0.35717,-0.09238 -0.59081,-0.1042 z m -12.057922,0.556167 c -0.223164,0.03223 -0.349385,0.03491 -0.563955,0.13535 -0.910657,0.426191 -0.805653,1.385184 -0.805653,2.220377 0,0 0,2.390099 0,2.390099 2.24e-4,0.208666 0.02765,0.53764 0.116284,0.725089 0.188792,0.400408 0.675672,0.558854 1.092196,0.563956 0.455192,0.0051 1.047882,0.03572 1.391626,-0.324678 0.22451,-0.23552 0.269627,-0.5986 0.273384,-0.910655 0,0 0,-3.142042 0,-3.142042 -3.5e-4,-0.308028 -0.04538,-0.663589 -0.187445,-0.939926 -0.250021,-0.486615 -0.772889,-0.767518 -1.316437,-0.71757 z" />
</svg>
