<?xml version="1.0" encoding="UTF-8" standalone="no"?>
<svg xmlns="http://www.w3.org/2000/svg" xmlns:svg="http://www.w3.org/2000/svg" id="svglinuxicon" width="128" height="128" version="1.1">
  <g id="linuxicon">
    <path id="linuxicon03" fill="#202020" d="m 113.14644,100.98143 c -0.001,-0.001 -0.003,-0.003 -0.003,-0.004 -0.90777,-1.022136 -1.34019,-2.917197 -1.80522,-4.936108 -0.46383,-2.017419 -0.9827,-4.193009 -2.64299,-5.603114 -0.003,-0.0031 -0.008,-0.006 -0.0105,-0.0091 -0.32906,-0.286497 -0.6671,-0.52808 -1.00663,-0.729673 -0.34089,-0.201443 -0.68655,-0.365583 -1.03192,-0.495402 2.30794,-6.828188 1.40301,-13.627876 -0.92737,-19.771305 -2.85848,-7.54193 -7.849795,-14.111823 -11.662459,-18.606251 -4.267372,-5.370334 -8.44066,-10.4676 -8.358244,-17.99711 C 85.825096,21.338135 86.964856,0.02839793 66.694468,4.662e-5 65.870311,-0.00144555 65.010255,0.03287445 64.114302,0.1044988 41.462682,1.9234589 47.471105,25.798243 47.134561,33.791819 c -0.414322,5.846338 -1.601947,10.454171 -5.63299,16.169197 -4.734045,5.616543 -11.402093,14.70836 -14.559618,24.173219 -1.489766,4.466077 -2.198751,9.018551 -1.545109,13.327949 -0.204918,0.183538 -0.399365,0.376177 -0.586333,0.573144 -1.389551,1.481729 -2.417131,3.275173 -3.561378,4.482342 -1.069461,1.065561 -2.592133,1.46994 -4.267372,2.068153 -1.675238,0.600003 -3.513514,1.483221 -4.629342,3.620014 0,0 0,0.0016 -0.0015,0.0016 -0.0015,0.003 -0.003,0.0075 -0.006,0.0103 -0.525008,0.977374 -0.695523,2.032343 -0.695523,3.102223 0,0.98932 0.146583,1.99221 0.294662,2.95749 0.308125,2.00847 0.620736,3.90786 0.206414,5.19426 -1.325234,3.61554 -1.495749,6.11493 -0.562402,7.92956 0.936339,1.81747 2.858376,2.61877 5.031699,3.07239 4.346646,0.90426 10.232418,0.68043 14.870735,3.13356 l 0.399365,-0.75056 -0.394878,0.75206 c 4.965886,2.59041 10.000576,3.50974 14.016662,2.59489 2.913719,-0.66238 5.277002,-2.3933 6.49155,-5.05549 3.141072,-0.0149 6.588773,-1.34296 12.111078,-1.64572 3.746851,-0.30157 8.427049,1.32789 13.810248,1.02945 0.140601,0.58195 0.344172,1.14301 0.622232,1.67572 0.0031,0.004 0.006,0.0103 0.0091,0.0149 2.08642,4.16316 5.963401,6.06718 10.096304,5.74188 4.137092,-0.32544 8.536089,-2.75903 12.093135,-6.98039 l -0.65215,-0.54613 0.65679,0.54016 c 3.38936,-4.10049 9.01487,-5.80008 12.74677,-8.04431 1.8652,-1.12211 3.3774,-2.52759 3.49556,-4.56903 0.11637,-2.03981 -1.08471,-4.32582 -3.84588,-7.38328 z"/>
    <path id="linuxicon02" fill="#f8bf11" d="m 51.159621,117.5759 -0.0015,0.009 v 0.0104 c -0.305133,3.99007 -2.560722,6.16267 -6.024877,6.95203 -3.461162,0.78936 -8.156318,0.003 -12.843994,-2.44268 -0.0015,0 -0.003,-0.002 -0.0045,-0.002 -5.187257,-2.74112 -11.35722,-2.46805 -15.316467,-3.29323 -1.978876,-0.41184 -3.271203,-1.03258 -3.86352,-2.18454 -0.592316,-1.15345 -0.605778,-3.16341 0.653643,-6.59093 l 0.006,-0.0151 0.0045,-0.0149 c 0.623727,-1.91745 0.161541,-4.01544 -0.1406,-5.98511 -0.302142,-1.96803 -0.450221,-3.76013 0.224362,-5.007739 l 0.006,-0.01194 c 0.863047,-1.659298 2.12845,-2.253183 3.698987,-2.814241 1.572032,-0.562549 3.434239,-1.004083 4.90456,-2.475516 l 0.009,-0.0075 0.0075,-0.0075 c 1.359636,-1.430995 2.381232,-3.22608 3.576336,-4.498905 1.008134,-1.074365 2.017765,-1.786132 3.538941,-1.796577 0.01795,0.0016 0.0344,0.0016 0.05235,0 0.266244,0.0016 0.54894,0.02388 0.84809,0.07028 2.019261,0.304404 3.779757,1.712867 5.475936,4.00783 l 4.897082,8.903808 0.0015,0.004 0.003,0.003 c 1.302797,2.71426 4.054975,5.7001 6.386848,8.74563 2.331872,3.04418 4.135745,6.10165 3.900912,8.44138 z m 64.130229,-9.30818 c -0.0718,1.25924 -0.9857,2.19498 -2.6744,3.20966 -3.37456,2.03085 -9.35606,3.79758 -13.174553,8.41288 -3.31772,3.93785 -7.362225,6.10001 -10.923454,6.38053 -3.561228,0.28053 -6.633645,-1.19373 -8.446493,-4.82121 l -0.0031,-0.007 -0.0043,-0.009 c -1.124952,-2.13381 -0.656783,-5.49866 0.290026,-9.04989 0.946809,-3.54988 2.30794,-7.19675 2.490422,-10.15872 v -0.009 c 0.191306,-3.795943 0.405348,-7.111703 1.043883,-9.670781 0.64018,-2.559079 1.646819,-4.29 3.429901,-5.26439 0.08376,-0.04477 0.165879,-0.08804 0.248145,-0.128327 0.202076,3.287259 1.833938,6.641816 4.717592,7.366863 3.156179,0.829798 7.704751,-1.871186 9.625291,-4.075127 0.38426,-0.01507 0.7582,-0.03432 1.12181,-0.04327 1.68571,-0.04044 3.0977,0.0567 4.54259,1.316097 l 0.004,0.0043 0.004,0.0031 c 1.10984,0.938578 1.63784,2.71128 2.09554,4.695872 0.45785,1.986233 0.82266,4.148243 2.19591,5.689653 l 0.001,0.002 0.001,0.003 c 2.63865,2.92018 3.48674,4.89284 3.41345,6.15373 z M 75.582208,34.572226 c -0.393382,-0.76847 -1.196599,-1.499635 -2.563714,-2.0592 l -0.003,-0.0015 -0.0045,-0.0015 c -2.843419,-1.21463 -4.077412,-1.301176 -5.664401,-2.330776 -2.583158,-1.656313 -4.717592,-2.236769 -6.49155,-2.229308 -0.92886,0.003 -1.759,0.167123 -2.502388,0.423777 -2.161357,0.741611 -3.59578,2.288995 -4.494725,3.138042 l -0.0015,0.0015 c 0,0.0015 -0.0015,0.0015 -0.0015,0.003 -0.176499,0.167123 -0.403852,0.319325 -0.954288,0.722212 -0.554923,0.404379 -1.386559,1.013186 -2.583158,1.90849 -1.063478,0.795329 -1.408996,1.830898 -1.041041,3.044035 0.366458,1.213138 1.539125,2.612797 3.684029,3.82295 l 0.003,0.003 0.0045,0.0015 c 1.331216,0.780407 2.240631,1.832389 3.284664,2.669499 0.522016,0.417809 1.070956,0.790852 1.732077,1.072873 0.661121,0.282021 1.432928,0.473019 2.399181,0.529722 2.267555,0.131311 3.936811,-0.547628 5.410124,-1.389214 1.476304,-0.840094 2.7266,-1.868202 4.161173,-2.332268 l 0.003,-0.0015 0.0031,-0.0015 c 2.940493,-0.916195 5.037682,-2.762015 5.694167,-4.515319 0.329064,-0.877398 0.318594,-1.710031 -0.07329,-2.478501 z"/>
    <path id="linuxicon01" fill="#ffffff" d="m 58.479816,27.318768 c -0.151071,0.04327 -0.297654,0.08953 -0.442742,0.138772 -0.822661,0.283513 -1.475834,0.596401 -2.10704,1.012718 0.06133,-0.435715 0.0703,-0.877398 0.02244,-1.371308 -0.0045,-0.02686 -0.0045,-0.04924 -0.0045,-0.0761 -0.06581,-0.655064 -0.204918,-1.204184 -0.436759,-1.759273 -0.246798,-0.577471 -0.523512,-0.984835 -0.886979,-1.298191 -0.329064,-0.283513 -0.64018,-0.414825 -0.984202,-0.41184 -0.0344,0 -0.0703,0.0015 -0.106199,0.0045 -0.385903,0.03283 -0.705993,0.220842 -1.00963,0.589409 -0.302141,0.367075 -0.501076,0.82368 -0.644668,1.429503 -0.143592,0.60433 -0.180985,1.198215 -0.121155,1.880139 0,0.02686 0.006,0.04924 0.006,0.0761 0.06581,0.661033 0.198934,1.210153 0.435262,1.765242 0.242312,0.571502 0.523513,0.978866 0.88698,1.292222 0.06133,0.05223 0.121155,0.09998 0.180985,0.141757 -0.376929,0.290974 -0.63018,0.497362 -0.941296,0.724173 -0.198934,0.144741 -0.435262,0.317833 -0.71048,0.520768 -0.599795,-0.561057 -1.067965,-1.265363 -1.4778,-2.194988 -0.484623,-1.09824 -0.743387,-2.197972 -0.821166,-3.496163 v -0.01044 c -0.0718,-1.298192 0.05534,-2.414338 0.412827,-3.569281 0.358979,-1.154942 0.837619,-1.99056 1.533142,-2.67696 0.694028,-0.687892 1.394038,-1.034076 2.23764,-1.077349 0.06581,-0.003 0.13013,-0.0045 0.194448,-0.0045 0.764327,0.0015 1.446389,0.255162 2.152382,0.817711 0.765824,0.6103 1.344678,1.390707 1.829301,2.490439 0.486118,1.099732 0.744883,2.199464 0.816679,3.497656 v 0.01044 c 0.0344,0.544643 0.02992,1.057951 -0.01346,1.554845 z m 17.362652,-1.499635 c 0.01197,1.505604 -0.248294,2.787381 -0.821166,4.096018 -0.326073,0.746087 -0.701357,1.3728 -1.151577,1.915951 -0.152716,-0.07312 -0.311116,-0.143248 -0.475798,-0.210396 -0.56988,-0.243225 -1.073947,-0.443176 -1.525514,-0.613284 -0.451866,-0.170107 -0.8044,-0.28634 -1.168017,-0.411683 0.263402,-0.317833 0.782277,-0.692369 0.975378,-1.162404 0.293167,-0.708782 0.436759,-1.401151 0.463682,-2.226323 0,-0.03283 0.01047,-0.06118 0.01047,-0.09998 0.01645,-0.790852 -0.08825,-1.466807 -0.320091,-2.159176 -0.242311,-0.726688 -0.550585,-1.248949 -0.996168,-1.683172 -0.447229,-0.434223 -0.892962,-0.631189 -1.428441,-0.649096 -0.02543,-0.0015 -0.04936,-0.0015 -0.07479,-0.0015 -0.502572,0.0015 -0.93933,0.174585 -1.391196,0.550612 -0.474152,0.395427 -0.825653,0.901274 -1.11867,1.60558 -0.291671,0.704306 -0.435263,1.402643 -0.463832,2.232292 -0.0043,0.03283 -0.0043,0.06118 -0.0043,0.09401 -0.01047,0.456605 0.01944,0.874414 0.08974,1.280285 -1.029075,-0.511815 -2.345647,-0.885016 -3.255062,-1.101381 -0.05235,-0.392442 -0.08227,-0.796821 -0.09124,-1.220598 V 25.93999 c -0.01645,-1.501127 0.230346,-2.788873 0.809201,-4.096017 0.578854,-1.308637 1.295318,-2.248706 2.303303,-3.014192 1.009631,-0.763993 2.001462,-1.114654 3.175475,-1.126591 h 0.05534 c 1.148736,0 2.131443,0.337231 3.141073,1.066904 1.024588,0.743103 1.763488,1.671235 2.358796,2.969427 0.583342,1.265363 0.864543,2.502375 0.893111,3.969182 -1.49e-4,0.0388 -1.49e-4,0.07163 0.01032,0.110421 z M 103.9446,88.705314 c -0.32458,-0.01194 -0.64467,-0.0103 -0.95579,-0.003 -0.0284,0.0015 -0.0568,0.0015 -0.0867,0.0015 0.80322,-2.530727 -0.97373,-4.397437 -5.709274,-6.53423 -4.910543,-2.15455 -8.823422,-1.941318 -9.484543,2.430752 -0.04188,0.228302 -0.07628,0.462574 -0.101711,0.698337 -0.367954,0.128327 -0.735908,0.289482 -1.106854,0.490925 -2.304949,1.259395 -3.564369,3.542421 -4.26438,6.344873 -0.698514,2.799319 -0.90044,6.182077 -1.091896,9.985629 0,0.001 0,0.001 0,0.003 -0.118164,1.91163 -0.90792,4.49891 -1.70665,7.23869 -8.044137,5.72532 -19.208406,8.20531 -28.688462,1.75017 -0.641676,-1.01319 -1.37908,-2.01742 -2.137425,-3.00822 -0.484622,-0.63254 -0.982707,-1.26089 -1.476304,-1.88149 0.972237,0.002 1.799386,-0.15832 2.467986,-0.45959 0.831636,-0.37752 1.414978,-0.98035 1.705154,-1.75643 0.577359,-1.55037 -0.003,-3.7379 -1.853233,-6.23729 -1.850241,-2.497899 -4.983835,-5.316615 -9.58775,-8.13384 0,0 0,0 0,-0.0015 -3.383384,-2.099489 -5.27401,-4.672146 -6.159494,-7.465347 -0.886979,-2.794842 -0.762831,-5.816494 -0.07927,-8.79935 1.310276,-5.725471 4.67571,-11.294265 6.823606,-14.788936 0.577359,-0.423778 0.206413,0.787868 -2.174819,5.198734 -2.132938,4.032003 -6.1221,13.337051 -0.661121,20.601103 0.146583,-5.16904 1.383568,-10.44089 3.461163,-15.372525 3.0259,-6.841618 9.354413,-18.708878 9.856984,-28.166277 0.260261,0.188014 1.150231,0.787868 1.546605,1.013186 0.0015,0.0015 0.0015,0.0015 0.003,0.0015 1.160701,0.681923 2.032723,1.678695 3.162013,2.584445 1.132282,0.907242 2.545765,1.690633 4.681694,1.814483 0.204917,0.01194 0.405348,0.01791 0.601291,0.01791 2.201742,0 3.918862,-0.716244 5.348798,-1.532463 1.554232,-0.886351 2.795554,-1.868202 3.972858,-2.250199 0.0015,-0.0015 0.003,-0.0015 0.0045,-0.0015 2.48743,-0.77593 4.463315,-2.14873 5.587968,-3.748341 1.932508,7.59815 6.425737,18.57309 9.314177,23.928502 1.536134,2.8411 4.590304,8.878436 5.909704,16.152784 0.836124,-0.02552 1.757505,0.0955 2.743203,0.347527 3.450693,-8.924692 -2.925684,-18.535785 -5.842395,-21.212745 -1.177154,-1.140021 -1.233992,-1.650345 -0.649155,-1.62647 3.162013,2.791858 7.315558,8.403924 8.826414,14.739695 0.689391,2.8887 0.836124,5.926915 0.09707,8.924693 0.360476,0.149217 0.72843,0.311864 1.100871,0.48809 5.538757,2.69024 7.586437,5.029969 6.602237,8.223221 z"/>
    <path id="linuxicon00" fill="#202020" d="m 59.36115,30.423936 c -0.09675,0.309811 -0.597254,0.258461 -0.886424,0.407053 -0.253742,0.130383 -0.457828,0.416154 -0.743131,0.424371 -0.272291,0.0078 -0.696061,-0.09407 -0.731483,-0.363515 -0.0468,-0.355978 0.474277,-0.582195 0.809582,-0.712608 0.431477,-0.167826 0.984286,-0.252974 1.38904,-0.02846 0.09275,0.05145 0.193982,0.17209 0.162416,0.273164 z m 2.95625,0 c 0.09675,0.309811 0.597254,0.258461 0.886425,0.407053 0.253741,0.130383 0.457827,0.416154 0.743131,0.424371 0.27229,0.0078 0.69606,-0.09407 0.731482,-0.363515 0.0468,-0.355978 -0.474276,-0.582195 -0.809581,-0.712608 -0.431477,-0.167826 -0.984287,-0.252974 -1.389041,-0.02846 -0.09275,0.05145 -0.193982,0.17209 -0.162416,0.273164 z m 5.804013,8.478579 c -2.339464,1.216525 -5.072084,2.691882 -7.97982,2.691882 -2.90624,0 -5.202214,-1.339972 -6.853521,-2.645625 -0.825653,-0.65208 -1.495749,-1.301175 -2.001312,-1.772702 -0.877158,-0.690732 -0.772088,-1.659549 -0.411699,-1.630947 0.604078,0.07523 0.695414,0.868696 1.075812,1.223583 0.514537,0.48048 1.159205,1.102717 1.939986,1.720477 1.561561,1.234028 3.643644,2.435228 6.250734,2.435228 2.602603,0 5.640729,-1.524281 7.495197,-2.562063 1.050646,-0.587952 2.38755,-1.641854 3.4786,-2.440812 0.834736,-0.611264 0.804297,-1.347315 1.493519,-1.267178 0.68922,0.08014 0.179366,0.814703 -0.785832,1.65505 -0.965199,0.840346 -2.475192,1.95534 -3.701664,2.593107 z"/>
  </g>
</svg>
