<?xml version="1.0" encoding="UTF-8" standalone="no"?>
<svg xmlns="http://www.w3.org/2000/svg" xmlns:svg="http://www.w3.org/2000/svg" id="svglinuxlogo" width="640" height="182" version="1.1">
  <path id="linuxlogo" fill="#000000" d="m 406.45273,181.72617 c -15.57997,-2.52092 -25.08871,-12.86567 -27.019,-29.39454 -0.31521,-2.69916 -0.3653,-8.04359 -0.36556,-38.98862 V 77.482304 h -8.45972 -8.45971 l 0.0634,-4.935574 0.0634,-4.935584 16.90858,-5.945483 16.90859,-5.945475 h 6.98262 6.98262 l 0.0765,42.880738 c 0.0763,42.788034 0.0775,42.885554 0.57757,45.103744 1.22252,5.42312 2.82274,8.74619 5.66105,11.7558 4.92685,5.22421 11.16207,6.68399 22.23276,5.20511 5.24494,-0.70065 14.2413,-2.55581 16.44838,-3.39187 l 0.58051,-0.21991 -0.0594,-39.61024 -0.0594,-39.610254 -8.28357,-0.06148 -8.28355,-0.06148 0.0634,-4.934976 0.0634,-4.935005 16.9101,-6.286732 16.91007,-6.28673 6.75231,-0.007 6.75229,-0.007 v 54.359357 54.35935 l 0.61056,1.22076 c 0.39874,0.79719 0.96242,1.46195 1.62463,1.91589 1.70922,1.17166 3.14061,1.40127 8.73527,1.40127 h 4.9999 v 5.85001 5.85005 h -23.36881 -23.36879 v -6.78604 c 0,-3.73231 -0.0396,-6.78603 -0.0881,-6.78603 -0.0484,0 -1.60734,0.89669 -3.46423,1.99264 -11.11774,6.56178 -22.5951,11.14629 -32.26424,12.88764 -2.9682,0.53456 -10.61309,0.65417 -13.36379,0.20909 z m 174.59681,-6.51399 v -4.52868 l 1.75923,-0.14817 c 6.03607,-0.50837 9.19312,-2.99826 7.82196,-6.16904 -0.53484,-1.23684 -21.39135,-32.15446 -21.56342,-31.96559 -0.70265,0.77111 -22.419,32.39172 -22.60288,32.91141 -0.18998,0.53694 -0.14754,0.7837 0.22139,1.28701 0.98462,1.34328 3.56591,2.04138 8.47015,2.29069 l 3.11192,0.15821 v 5.11242 5.11243 H 534.19451 510.1211 v -4.99891 -4.9989 l 2.75964,-0.12991 c 1.74676,-0.0822 3.40612,-0.31296 4.5211,-0.62867 2.4235,-0.68622 5.71197,-2.32318 7.38691,-3.67712 1.07856,-0.87181 5.14187,-5.98238 17.7847,-22.36826 l 16.38678,-21.23828 -15.21595,-22.167758 c -8.36876,-12.192266 -15.86163,-23.12555 -16.65079,-24.296175 -1.54832,-2.296724 -2.64562,-3.187325 -5.18241,-4.206194 -1.89303,-0.76032 -5.58574,-1.462017 -8.67804,-1.649018 l -2.64221,-0.159786 v -5.697838 -5.697847 h 30.06238 30.0624 v 5.583381 5.58339 l -2.64223,0.127172 c -5.53789,0.266531 -8.43915,2.145239 -7.49224,4.85163 0.1703,0.486725 18.29915,27.002853 20.12684,29.438483 0.0616,0.0822 19.40091,-28.161584 19.83011,-28.960598 0.5002,-0.931246 0.35368,-2.088448 -0.3582,-2.828759 -1.12382,-1.168731 -3.04897,-1.66543 -6.97622,-1.799926 l -3.46422,-0.118632 V 63.53027 57.826195 h 22.89909 22.89908 v 5.46427 5.46428 l -1.93761,0.140256 c -2.32938,0.168636 -5.79444,1.019836 -8.18086,2.009667 -2.24594,0.931546 -5.14565,2.62414 -5.93444,3.46396 -0.33925,0.361167 -7.16344,9.396621 -15.1649,20.07877 l -14.54814,19.422112 0.39491,0.61472 c 0.21719,0.33811 8.53288,12.26177 18.47929,26.49705 l 18.08442,25.8823 1.64403,0.68681 c 2.87539,1.20122 7.38456,2.12842 10.35094,2.12842 H 640 v 5.03103 5.03102 h -29.47524 -29.47522 z m -443.88991,-0.97035 v -5.26502 l 4.75597,-0.003 c 5.36512,-0.004 6.89302,-0.24694 9.17693,-1.45979 1.0077,-0.53515 1.60184,-1.04864 2.07691,-1.79499 l 0.66543,-1.04541 v -43.143 -43.142998 l -8.22487,0.168138 -8.22486,0.168147 0.0634,-5.090378 0.0634,-5.090378 17.02753,-6.469756 17.02751,-6.469746 h 6.69358 6.69358 l 0.11743,54.639301 0.11744,54.63929 0.52034,0.96936 c 0.28618,0.53315 0.95906,1.34353 1.49526,1.80082 1.74568,1.48875 2.46065,1.62728 8.96421,1.73684 l 5.81284,0.0979 v 5.01006 5.01008 h -32.41101 -32.41101 z m 76.56514,0 v -5.26502 h 4.8895 c 3.81228,0 5.1705,-0.0831 6.16512,-0.37708 2.7205,-0.80422 4.31254,-1.96217 5.02099,-3.65193 0.32529,-0.77586 0.36476,-5.54178 0.36476,-44.05073 V 77.716299 h -8.57697 -8.57697 l 0.0632,-5.188423 0.0632,-5.188421 17.61468,-6.032718 17.61468,-6.032705 6.16515,-0.01096 6.16514,-0.01096 v 7.605034 c 0,4.371363 0.0902,7.605046 0.21214,7.605046 0.11669,0 2.20402,-0.988845 4.63853,-2.197435 12.19569,-6.05443 24.02504,-10.319179 32.90218,-11.861981 3.83812,-0.667049 11.31214,-0.734052 14.02748,-0.125757 7.86032,1.760914 13.94754,5.588613 18.39792,11.568854 2.6203,3.521039 4.75493,8.476523 5.44749,12.646246 0.21629,1.302121 0.29424,11.617263 0.3192,42.237221 l 0.033,40.51435 0.57724,1.16013 c 0.77017,1.54786 2.11681,2.84735 3.73296,3.60228 1.31125,0.61252 1.39597,0.62047 7.37421,0.69251 l 6.0477,0.0729 v 5.36764 5.36765 h -30.5321 -30.53211 v -5.59524 -5.59521 l 4.75597,-0.0829 c 4.34928,-0.0758 4.83862,-0.12662 5.72278,-0.59461 1.53013,-0.80996 2.36834,-1.63129 3.02074,-2.95982 l 0.60606,-1.23419 -0.0729,-33.56276 -0.0729,-33.562767 -0.52922,-1.978816 c -0.6462,-2.416243 -2.26406,-5.879416 -3.65065,-7.814486 -1.42097,-1.98303 -4.38446,-4.745214 -6.49294,-6.051889 -5.45443,-3.380216 -10.29324,-4.042761 -18.67047,-2.55644 -4.8948,0.86846 -8.96301,1.763426 -13.68044,3.009564 l -3.34648,0.884004 v 40.89922 c 0,34.8524 0.0491,41.01714 0.33408,41.69661 0.51686,1.23246 2.13146,2.82085 3.48753,3.43088 1.13664,0.51133 1.58011,0.55793 5.98359,0.62877 l 4.75597,0.0765 v 2.63705 c 0,1.45035 -0.0691,3.91718 -0.15353,5.48178 l -0.15384,2.84474 h -30.7308 -30.73087 z M 0.23486238,173.65682 V 168.0408 H 7.1317474 14.028632 l 1.635789,-0.81535 c 1.916141,-0.95509 3.244949,-2.16026 3.853272,-3.49476 0.42052,-0.9225 0.435469,-3.22054 0.440451,-67.713107 0.0051,-65.973944 -2.82e-4,-66.768812 -0.45775,-67.662243 C 18.891051,27.165315 17.631878,26.157398 16.129971,25.657449 14.972146,25.272038 8.3083219,24.890921 1.9376147,24.84575 L 0,24.831999 v -6.435038 -6.435039 h 36.168808 36.168808 v 6.318041 6.318031 h -7.016345 c -7.784154,0 -8.405347,0.09277 -9.862837,1.472461 -0.436073,0.412804 -0.989006,1.171759 -1.228743,1.686554 -0.421456,0.90502 -0.436059,3.215786 -0.441047,69.788569 l -0.0052,68.852572 22.722938,0.0608 c 21.254125,0.0569 22.785001,0.0342 23.683138,-0.35125 3.50007,-1.50205 6.17642,-11.37309 7.49087,-27.628 0.19595,-2.42326 0.35627,-4.97678 0.35627,-5.67452 v -1.26863 h 9.27707 9.27706 v 23.86815 23.86813 H 63.412836 0.23485299 Z M 167.47455,36.511662 c -6.97945,-1.364321 -12.6326,-6.698619 -14.48564,-13.668652 -0.64913,-2.441644 -0.59961,-6.879284 0.10431,-9.346806 1.83493,-6.4321082 6.87972,-11.3541695 13.33539,-13.01099968 2.30789,-0.59229236 6.33804,-0.65161327 8.60972,-0.12671338 8.42814,1.94744586 14.33125,9.27172016 14.34982,17.80449406 0.006,2.849028 -0.30417,4.626075 -1.20364,6.89136 -2.32045,5.844022 -7.55755,10.222998 -13.60508,11.375834 -1.914,0.364865 -5.44784,0.405402 -7.10488,0.08151 z"/>
</svg>
