<?xml version="1.0" encoding="UTF-8" standalone="no"?>
<svg
     id="svgwiiicon"
     width="128"
     height="128"
     version="1.1"
     xmlns="http://www.w3.org/2000/svg"
     xmlns:svg="http://www.w3.org/2000/svg">
     <path
          id="wiiicon"
          fill="#8b8b8b"
          d="M 69.881704,36.87777 59.115287,79.101081 c 0,0 -8.274083,-31.692293 -9.669731,-36.262461 -1.295958,-4.470612 -4.087251,-6.457596 -7.975124,-6.457596 -3.987457,0 -6.679061,1.986984 -8.074812,6.457596 -1.295853,4.570168 -9.570043,36.262461 -9.570043,36.262461 L 12.959576,36.87777 H 0 c 0,0 12.46113,45.004984 14.155844,50.270495 1.295853,4.073318 4.486007,7.351735 9.071599,7.351735 5.383103,0 7.875434,-3.874514 8.971909,-7.351735 1.196268,-3.576576 9.27108,-33.281885 9.27108,-33.281885 0,0 8.074708,29.705309 9.171394,33.281885 1.196266,3.477221 3.688388,7.351735 8.972011,7.351735 4.685284,0 7.775643,-3.278417 9.171288,-7.351735 C 70.479736,81.882754 82.940967,36.87777 82.940967,36.87777 Z M 126.90373,94.102604 V 54.263776 H 114.5425 V 94.102604 Z M 113.34582,40.454342 c 0,3.77527 3.28973,6.954446 7.27729,6.954446 4.08715,0 7.37689,-3.079931 7.37689,-6.954446 C 128,36.579722 124.71026,33.5 120.62311,33.5 c -3.98756,0 -7.27729,3.079722 -7.27729,6.954342 z M 101.8821,94.102604 V 54.263776 H 89.520343 V 94.102604 Z M 88.324072,40.454342 c 0,3.77527 3.190047,6.954446 7.177614,6.954446 4.186935,0 7.476674,-3.079931 7.476674,-6.954446 0,-3.87462 -3.289739,-6.954342 -7.476674,-6.954342 -3.987567,0 -7.177614,3.079722 -7.177614,6.954342 z"/>
</svg>
