<?xml version="1.0" encoding="UTF-8" standalone="no"?>
<svg xmlns="http://www.w3.org/2000/svg" xmlns:svg="http://www.w3.org/2000/svg" version="1.1" width="640" height="78" viewBox="0 0 640 78" xml:space="preserve" id="svg3dslogo">
     <g id="3dslogo">
          <path id="3dslogo02" style="fill:#8C8C8C;stroke:none" d="M 344.03756,41.5 H 314.4914 c -4.00627,0 -7.51175,3.5 -7.51175,7.5 v 21 c 0,4.000001 3.50548,7.5 7.51175,7.5 h 29.54616 c 4.00626,0 7.51173,-3.499999 7.51173,-7.5 V 49 c 0.50079,-4 -3.00469,-7.5 -7.51173,-7.5 m 1.50235,28.5 c 0,1 -0.50078,1.5 -1.50235,1.5 h -29.04539 c -1.00156,0 -1.50234,-0.5 -1.50234,-1.5 V 49 c 0,-0.999999 0.50078,-1.5 1.50234,-1.5 h 29.04539 c 1.00157,0 1.50235,0.500001 1.50235,1.5 z"/>
          <path id="3dslogo01" style="fill:#000000;stroke:none" d="M 115.17997,7 H 131.205 v 30.000001 h 7.01096 V 7 H 154.241 V 0.5 H 115.17997 Z M 100.65728,27 73.114241,0.5 h -5.508607 v 36.500001 h 6.510173 V 9.9999998 L 101.65884,37.000001 h 5.50861 V 0.5 h -6.51017 z M 50.078247,37.000001 h 7.010955 V 0.5 H 50.078247 Z M 33.051643,27 6.0093896,0.5 H 0 V 37.000001 H 6.5101721 V 9.9999998 L 34.053209,37.000001 h 5.508606 V 0.5 H 33.051643 Z M 162.25353,37.000001 h 35.55555 V 30.5 h -29.04539 v -9 h 22.53522 V 15.000001 H 168.76369 V 7 h 29.04539 V 0.5 H 162.25353 Z M 240.87637,27 213.33334,0.5 h -6.0094 v 36.500001 h 6.51017 V 9.9999998 l 27.54304,27.0000012 h 5.50861 V 0.5 h -6.51017 V 27 Z m 368.07512,5 c -14.52269,-5 -22.53521,-8 -22.53521,-14 0,-3.999999 5.50861,-8.0000002 17.52738,-8.0000002 11.518,0 19.02975,2.5000002 27.54303,4.5000002 V 2.5 C 622.97341,0.99999996 618.46636,0 604.94522,0 c -25.03911,0 -41.56493,7.5 -41.56493,20 0,12 13.52112,17.5 32.55085,24.500001 14.02191,4.999999 19.02973,7.999999 19.02973,13 C 614.96087,63 609.95305,67.5 596.93271,67.5 c -11.518,0 -26.04069,-2 -33.55242,-5 V 75.500001 C 573.39593,77 581.90924,78 594.92957,78 625.97809,78 640,69 640,57.000001 640,44.500001 628.98279,39 608.95149,32 Z M 536.83881,6 C 529.32707,2.5 515.80596,0.5 503.28639,0.5 H 456.71362 V 78 h 46.57277 c 12.01877,0 26.04068,-2 33.55242,-5.5 18.02817,-7.999999 23.53678,-20.999999 23.53678,-33 C 560.87637,27 554.86698,14.000001 536.83881,6 Z M 497.27699,67.000002 H 482.25353 V 11 h 15.02346 c 23.036,0 37.05791,10 37.05791,28 0,18.500001 -14.5227,28.000002 -37.05791,28.000002 z M 284.94522,0.5 h -27.04225 v 36.500001 h 27.04225 c 4.50705,0 8.51331,-2 11.51801,-5.500001 2.50391,-3 4.00625,-7.5 4.00625,-13 0,-5 -1.50234,-9.5 -4.00625,-13 -3.0047,-3 -6.51018,-5 -11.51801,-5 z m 0.50079,30 H 264.91393 V 7 h 20.53208 c 6.51017,0 9.01408,6.5 9.01408,12 -0.50078,5.500001 -3.00469,11.5 -9.01408,11.5 z m 58.59155,-30 H 314.4914 c -4.00627,0 -7.51175,3.5 -7.51175,7.5000001 V 29.000001 C 306.97965,33 310.48513,36.5 314.4914,36.5 h 29.54616 c 4.00626,0 7.51173,-3.5 7.51173,-7.499999 V 8.5000001 C 352.05008,4 348.5446,0.5 344.03756,0.5 Z m 1.50235,29 c 0,1 -0.50078,1.5 -1.50235,1.5 h -29.04539 c -1.00156,0 -1.50234,-0.5 -1.50234,-1.5 V 8.5000001 C 313.48983,7.5 313.99061,7 314.99217,7 h 29.04539 c 1.00157,0 1.50235,0.5 1.50235,1.5000001 z"/>
          <path id="3dslogo00" style="fill:#CE181E;stroke:none" d="m 424.66354,35.5 c 0,0 21.53364,-3.5 21.53364,-17 0,-13 -23.03599,-18.5 -47.57433,-18.5 -22.03443,0 -36.55711,2.5 -36.55711,2.5 v 12 c 10.01564,-2.499999 19.53051,-4.5000002 32.55084,-4.5000002 14.02192,0 24.53835,4.0000012 24.53835,10.0000002 0,7 -10.51643,11 -33.55242,11 h -10.01566 v 11 h 10.01566 c 24.03756,0 37.55868,3.500001 37.55868,12.5 0,8 -12.01878,12.500002 -27.54304,12.500002 C 382.09703,67.000002 370.07825,64 360.56338,61.5 v 13.000001 c 5.00782,1 17.52738,3.499999 40.56338,3.499999 26.04069,0 48.5759,-8.5 48.5759,-23 0,-12.5 -16.02504,-19.5 -25.03912,-19.5"/>
     </g>
</svg>
