<?xml version="1.0" encoding="UTF-8" standalone="no"?>
<svg xmlns="http://www.w3.org/2000/svg" xmlns:svg="http://www.w3.org/2000/svg" id="svggenesislogo" width="640" height="68" version="1.1">
  <path id="genesislogo" fill="#000000" d="M 29.265662,16.100387 V 51.890994 H 65.626677 V 42.052348 H 35.916755 L 59.641975,25.947652 H 94.896614 V 52.791685 L 72.4999,68 H 0 v -51.442804 0 L 24.276275,0 H 103.65367 L 80.039514,16.100387 Z M 269.83272,45.409469 233.47172,22.590531 V 68 H 204.20179 V 0 h 29.70992 l 35.92101,19.905698 V 0 0 h 29.26995 v 68 h -29.26995 z m -138.13083,6.481525 v -9.838646 h 28.04821 l 23.83202,-16.104696 h -51.88023 v -9.847265 h 42.23465 L 197.66176,0 h -69.73182 l -25.49372,15.772863 v 0 V 68 h 70.94926 l 23.94735,-16.109006 z m 204.87244,0 v -9.838646 h 28.03968 l 23.83628,-16.104696 h -51.87596 v -9.847265 h 42.23038 L 402.53421,0 H 332.80239 L 307.3044,15.772863 v 0 V 68 h 70.95353 L 402.20101,51.890994 Z M 573.36947,25.947652 h 65.18668 V 52.119399 L 615.27092,68 h -71.94457 l 23.83627,-16.109006 h 42.12787 V 42.052348 H 544.1038 V 16.436529 L 568.15795,0 V 0 H 640 L 616.27051,16.100387 H 573.36947 Z M 503.53086,0 v 0 h 29.26566 v 68 h -29.26566 z m -74.28122,25.947652 h 65.18669 V 52.119399 L 471.15963,68 H 399.20652 L 423.04281,51.890994 H 465.1664 V 42.052348 H 399.97971 V 16.436529 L 424.0424,0 v 0 h 71.83778 l -23.72949,16.100387 h -42.90105 z"/>
</svg>
