<?xml version="1.0" encoding="UTF-8" standalone="no"?>
<svg xmlns:xlink="http://www.w3.org/1999/xlink" xmlns="http://www.w3.org/2000/svg" xmlns:svg="http://www.w3.org/2000/svg" version="1.1" width="640" height="143" viewBox="0 0 640 143" id="svgamigalogo" xml:space="preserve">
    <g id="amigologo">
        <path id="amigalogo01" fill="#898989" d="M 600.32035,-1.112442e-7 C 596.96628,0.08881764 594.51279,1.0684433 592.98336,2.9383543 c -1.52883,1.8701632 -3.10969,4.0854291 -4.70779,6.672514 l -59.1239,83.3145927 -9.96596,14.018409 c -1.95633,2.99979 -4.09325,5.80321 -6.41994,8.38655 -2.32534,2.58336 -5.30671,4.18105 -8.92646,4.77483 -2.06082,0.16966 -4.00229,0.59197 -5.80854,1.22431 -1.80607,0.63236 -2.75381,2.13941 -2.87376,4.52997 0.0391,1.11345 0.34494,1.89316 0.91724,2.38741 0.16434,0.1424 0.33768,0.27413 0.55015,0.36729 l 12.59535,10.89641 c 0.15457,0.12186 0.29934,0.22319 0.48914,0.30608 0.95086,0.41641 2.05063,0.5972 3.30143,0.55093 3.42393,-0.0462 6.90067,-0.22706 10.39426,-0.55093 3.49298,-0.3239 6.93901,-0.50467 10.45509,-0.55095 3.14237,0.0385 6.33503,0.21982 9.47681,0.48972 3.14298,0.26991 6.27284,0.38995 9.41601,0.42852 1.45897,0.0192 2.76866,-0.26662 3.97409,-0.91824 1.20542,-0.65161 1.88335,-1.75178 1.95652,-3.30565 -0.0998,-1.1503 -0.50732,-2.03003 -1.22282,-2.69349 l -13.14551,-11.32492 c -0.68655,-0.61434 -1.6382,-0.9843 -2.87355,-1.16308 -2.58106,-0.37359 -5.18442,-0.88948 -7.76487,-1.53041 -0.57758,-0.1433 -1.0714,-0.40468 -1.52864,-0.67337 1.08292,-2.61408 2.6822,-5.66981 4.95254,-9.24356 3.88136,-6.11134 6.74241,-10.437253 8.49857,-12.916524 h 36.31805 c 0.0332,0.655865 0.088,1.301794 0.12125,1.958913 0.20015,3.940581 0.35139,7.859121 0.36685,11.753401 -0.20309,5.4312 -1.63957,8.61516 -4.27991,9.54965 -2.64053,0.93453 -5.30806,1.47967 -7.94839,1.59162 -2.64051,0.11204 -4.07701,1.62768 -4.27989,4.59118 0.0313,1.27239 0.45254,2.14645 1.22283,2.63227 l 13.08426,11.20247 c 0.77009,0.48583 1.73329,0.69652 2.87376,0.67338 5.09068,-0.0462 10.20896,-0.22706 15.3464,-0.55093 5.13726,-0.3239 10.25593,-0.50467 15.34642,-0.55095 3.42039,0.0308 6.7909,0.15136 10.21071,0.36729 3.41963,0.21592 6.85197,0.33645 10.27179,0.3673 1.53255,0.0501 2.85769,-0.14511 3.97409,-0.67336 1.11659,-0.52825 1.71899,-1.65878 1.7732,-3.36688 -0.0195,-1.52301 -0.45568,-2.53254 -1.28408,-3.06078 L 625.9377,121.8805 c -0.2471,-1.93758 -0.39582,-4.08811 -0.36686,-6.48886 l -4.83006,-92.313313 c 0.0195,-3.327394 -0.28567,-6.146243 -0.91722,-8.386554 -0.21973,-0.779201 -0.63236,-1.440632 -1.22285,-1.958902 L 605.51645,1.4691771 C 604.40495,0.55143247 602.6513,0.05623955 600.31932,-1.1124417e-7 Z M 580.14385,45.483281 l 1.10036,32.07704 H 558.19397 Z M 494.48456,2.2037657 c -15.44541,0.035545 -31.60202,3.188459 -48.48529,9.4272213 -16.88307,6.238996 -31.25317,15.346161 -43.16569,27.363427 -11.91289,12.017447 -18.17555,26.704528 -18.70949,44.075321 0.22482,11.030318 3.4525,20.164915 9.59932,27.363435 l 8.68209,11.20247 c 6.14683,7.19855 13.92343,12.58216 23.2948,16.09973 9.37157,3.51759 18.96012,5.27712 28.85879,5.26456 6.03079,-0.005 12.08193,-0.38085 18.15909,-1.10189 6.07679,-0.72102 12.06865,-1.79128 17.91457,-3.18321 2.22945,-0.45111 4.14118,-1.00843 5.74709,-1.71405 1.60573,-0.70559 2.82503,-2.19819 3.66849,-4.40753 1.62881,-4.63844 3.11949,-9.32546 4.40219,-14.07961 1.28212,-4.75412 2.56109,-9.47102 3.91305,-14.20205 2.22262,-6.733526 4.89015,-10.708128 7.9486,-11.875849 3.05765,-1.16744 5.77175,-1.719091 8.13171,-1.652824 2.35958,0.06624 3.60196,-1.375436 3.72952,-4.407531 -0.0352,-0.828793 -0.24299,-1.517914 -0.64897,-2.03868 l -8.82041,-11.313622 c -0.19175,-0.245606 -0.4504,-0.436509 -0.74114,-0.604885 -0.93209,-0.539789 -1.95555,-0.809763 -3.11812,-0.795803 -4.6178,0.05545 -9.23873,0.29557 -13.87921,0.673373 -4.64069,0.377916 -9.35278,0.558229 -14.06254,0.612157 -4.4366,-0.04622 -8.89262,-0.227 -13.32883,-0.550942 -4.43663,-0.323828 -8.83158,-0.504617 -13.26761,-0.55094 -1.48304,-0.04234 -2.91308,0.213643 -4.2801,0.795804 -1.36702,0.582272 -2.10483,1.77354 -2.20109,3.489296 0.0743,0.891697 0.35139,1.603631 0.79122,2.168864 l 8.78519,11.292929 c 0.57386,0.737765 1.57852,1.101164 2.8354,1.22998 0.42829,0.04391 0.85559,0.124545 1.28388,0.183647 -0.52239,2.880868 -1.40499,6.324088 -2.69023,10.345456 -1.93696,6.06126 -3.48712,10.91412 -4.70779,14.56934 -0.7202,2.83398 -1.66833,4.80774 -2.87374,5.99914 -1.20524,1.19144 -3.32806,1.80997 -6.35873,1.77525 -8.2851,-0.17987 -15.04765,-2.29572 -20.23773,-6.30521 -2.61568,-5.45746 -3.96098,-11.76416 -3.97428,-18.976861 0.0841,-9.670183 2.07156,-19.044197 5.99204,-28.159244 3.92011,-9.11491 9.27942,-17.102404 16.01888,-23.996564 6.65846,-6.69348 14.86217,-12.451232 24.64011,-17.201619 9.77774,-4.750165 19.39603,-7.25228 28.91983,-7.468318 0.33299,-0.0033 0.60319,0.05459 0.91722,0.06121 0,0.150245 0,0.275074 0,0.428512 -0.0196,1.110559 -0.0763,2.195296 -0.18392,3.305648 -0.10766,1.110557 -0.17022,2.25651 -0.18391,3.366866 -0.0587,1.846997 0.25826,3.519898 0.91701,5.019687 0.15653,0.357352 0.35414,0.674908 0.59147,0.952547 l 8.72689,11.253024 c 0.76011,0.855422 1.91563,1.31813 3.46091,1.384321 2.26057,-0.173422 3.93123,-1.334314 5.01359,-3.42808 1.08196,-2.093576 1.87984,-4.12853 2.38462,-6.060359 0.48132,-1.41881 1.4897,-4.523077 3.05688,-9.366005 1.56737,-4.842702 2.48616,-7.887185 2.69023,-9.121142 -0.0762,-0.590037 -0.30679,-1.127185 -0.68989,-1.612783 L 520.25163,6.58549 C 519.353,5.4001703 517.55554,4.5173004 514.84496,3.9178063 511.05751,3.0805186 507.09946,2.5463407 502.92227,2.3874125 498.74469,2.2287425 495.91673,2.1639079 494.48476,2.2037657 Z M 177.64944,4.2850998 c -1.15825,0.057893 -2.28249,0.2421046 -3.36288,0.6121585 -1.43981,0.4936557 -2.2231,1.6391313 -2.3232,3.4280796 0.14088,0.7051649 0.38377,1.3244203 0.72844,1.8578481 l 10.93131,16.262697 c -0.36626,1.039358 -0.72412,2.052362 -1.08236,2.998879 -4.50196,12.50428 -9.03347,24.997985 -13.51217,37.525239 -4.47883,12.527376 -9.09997,24.991192 -13.87912,37.402799 -1.79848,5.29396 -3.52905,9.01677 -5.25818,11.14127 -1.72912,2.12453 -5.41756,3.64653 -11.00546,4.59118 -1.5404,0.23134 -2.86459,0.71394 -4.03533,1.40797 -1.17072,0.69403 -1.83375,1.89977 -1.89538,3.61172 0.0317,0.89295 0.24153,1.5991 0.6162,2.11836 l 7.4504,11.10034 c 0.27209,0.41812 0.64235,0.72551 1.10462,0.92213 1.02439,0.4357 2.19833,0.60106 3.5462,0.55095 3.2426,-0.0231 6.49383,-0.0831 9.78265,-0.24488 3.28879,-0.16193 6.60113,-0.28294 9.84377,-0.30607 3.04623,0.0385 6.01114,0.21982 8.98761,0.48972 2.97687,0.26991 5.97309,0.38995 8.92685,0.42852 1.37877,0.0121 2.67301,-0.33506 3.91305,-1.04067 1.23965,-0.70559 1.93286,-1.80528 2.01757,-3.36686 -0.0743,-0.93771 -0.31283,-1.7173 -0.71334,-2.33927 l -7.53694,-11.22764 c -0.71041,-1.0838 -1.91876,-1.68237 -3.61115,-1.79825 -2.67028,-0.18277 -5.33942,-0.60917 -8.00946,-1.28553 -1.89134,-0.47905 -3.14585,-1.84554 -3.79078,-4.04023 0.98929,-5.08668 2.75177,-11.37356 5.25817,-18.854439 3.85204,-11.497505 7.96525,-22.625341 12.22833,-33.42379 4.26287,-10.798293 8.08592,-20.463028 9.58306,-24.201195 l 1.4224,80.213574 c -0.0509,2.71832 0.23556,4.84296 0.85578,6.42766 0.12321,0.31635 0.29544,0.60258 0.51475,0.85842 l 7.35029,11.04309 c 0.82743,1.15411 2.53097,1.71992 5.09637,1.74961 3.05374,-0.11959 5.41663,-1.18981 7.15364,-3.18325 1.73681,-1.9934 3.34802,-4.17829 4.83008,-6.61127 l 41.88201,-61.705458 -9.84328,36.974288 c -0.59676,3.16945 -1.45449,6.3952 -2.629,9.61088 -1.1747,3.21571 -3.50805,5.1745 -6.97012,5.93792 -1.98334,0.13877 -4.19597,0.4705 -6.66433,0.97946 -2.46873,0.50896 -3.80799,2.0464 -4.03552,4.59116 0.043,1.36881 0.50889,2.31806 1.40634,2.87715 l 12.2283,11.20247 c 0.89726,0.55909 1.99683,0.81509 3.2404,0.79581 4.25955,-0.0618 8.53398,-0.30274 12.8399,-0.73459 4.30475,-0.43183 8.58075,-0.6729 12.83952,-0.73457 4.43682,0.0616 8.89221,0.30274 13.32904,0.73457 4.43583,0.43185 8.83117,0.67289 13.2676,0.73459 1.64426,0.0462 3.16585,-0.19429 4.46322,-0.79581 1.29817,-0.60149 1.9444,-1.80722 2.01778,-3.61172 -0.09,-1.25384 -0.48719,-2.20877 -1.18781,-2.86571 L 294.3825,122.54829 c 0.10962,-1.43118 0.28388,-2.8727 0.59753,-4.34073 0.49266,-2.30956 1.06513,-4.52484 1.65073,-6.67252 l 18.83156,-75.723842 c 0.65839,-3.327403 1.51651,-5.904248 2.56795,-7.774398 1.05122,-1.869923 3.32394,-3.030346 6.84784,-3.489296 1.88315,-0.107859 3.73481,-0.499794 5.50274,-1.163097 1.76752,-0.663073 2.74677,-2.079974 2.87355,-4.223887 -0.0236,-1.191304 -0.44531,-2.050409 -1.16159,-2.571061 L 319.8645,5.3869835 c -0.71646,-0.5204053 -1.61902,-0.7460328 -2.75145,-0.7345901 -3.88938,0.023254 -7.80342,0.08305 -11.73917,0.2448649 -3.93575,0.1620599 -7.84958,0.2830631 -11.73916,0.3060769 -2.06043,-0.1039781 -5.17679,-0.2399317 -9.2935,-0.3672935 -4.11654,-0.1271112 -6.84081,0.3704147 -8.254,1.4691772 -0.26961,0.3857003 -0.57131,0.8075408 -0.79493,1.2855304 -0.22326,0.4782312 -0.4643,0.9000732 -0.7337,1.2855304 L 230.72025,75.356555 229.25286,21.364286 c 0.0959,-1.438074 0.0216,-2.627912 -0.18393,-3.672943 -0.0568,-0.291729 -0.17218,-0.545489 -0.34416,-0.760834 L 221.54764,6.4276506 c -0.0489,-0.250396 -0.14087,-0.4692996 -0.2745,-0.6581226 -0.42515,-0.5990457 -1.27604,-0.895282 -2.538,-0.9334863 -4.25935,0.03097 -8.53417,0.0604 -12.83971,0.1836467 -4.30553,0.1235174 -8.58053,0.1543409 -12.8397,0 -2.40694,-0.1116941 -4.77002,-0.3083812 -7.15346,-0.4897267 -2.38383,-0.1810994 -4.77803,-0.22546 -7.09241,-0.2448619 -0.39483,-0.015477 -0.77577,-0.019388 -1.16178,0 z M 395.6187,3.8565897 c -1.65582,0.00785 -3.2817,0.098482 -4.89133,0.2448634 -1.60962,0.1466504 -3.2353,0.3582788 -4.89132,0.5509403 -4.07818,0.4435345 -8.2178,0.6995356 -12.41161,0.7958052 -4.19382,0.096519 -8.36317,0.1418185 -12.5341,0.1224302 -3.04983,-0.030713 -6.1212,-0.1512469 -9.17102,-0.3672951 -3.05023,-0.2158006 -6.12139,-0.3363266 -9.17142,-0.3672936 -1.45155,0.00393 -2.7004,0.4108735 -3.85181,1.2243154 -1.15162,0.8136835 -1.76891,1.9736339 -1.83425,3.5505113 0.52377,2.7916752 2.5701,4.0875722 6.23643,3.9178052 3.44857,-0.159474 5.50722,1.272135 6.17538,4.223885 -0.77498,0.778256 -1.23085,1.775482 -1.28406,3.060787 0.13107,0.697919 0.34513,1.323643 0.67247,1.836471 -0.12321,0.465765 -0.22599,0.95324 -0.36666,1.407962 l -23.295,80.865963 c -0.88965,3.77481 -1.89842,7.07576 -2.99603,9.85573 -1.09724,2.78002 -3.58065,4.60334 -7.52031,5.50944 -1.80626,0.26604 -3.92871,0.73367 -6.35871,1.34673 -2.4302,0.61309 -3.73912,2.01455 -3.9743,4.22389 0.043,1.0034 0.34749,1.75702 0.92602,2.29592 l 11.01448,11.14086 c 0.18586,0.20142 0.40403,0.37519 0.65484,0.52041 0.9319,0.53979 2.0164,0.74999 3.17937,0.73458 3.97819,-0.0618 7.99729,-0.30274 12.04477,-0.73458 4.04746,-0.43185 8.09648,-0.6729 12.16724,-0.7346 4.3517,0.0385 8.686,0.21984 13.08409,0.48972 4.39807,0.26991 8.79379,0.38997 13.14551,0.42852 1.79061,0.13107 3.85319,0.10177 6.17519,-0.18364 2.32219,-0.28533 3.57106,-1.58172 3.79096,-3.8566 -0.0802,-1.12137 -0.39385,-1.99707 -0.93716,-2.62468 l -11.27215,-11.35496 c -0.33829,-0.3425 -0.75287,-0.60082 -1.2418,-0.77335 0.0587,-0.30192 0.11144,-0.6145 0.1839,-0.91822 0.36567,-1.53458 0.80257,-3.04164 1.28407,-4.52996 L 391.6446,34.525666 c 0.85481,-3.342824 1.87865,-5.769247 3.05707,-7.284673 1.17841,-1.515195 3.46618,-2.584989 6.90909,-3.244431 1.74424,-0.219662 3.62602,-0.717189 5.62501,-1.469177 1.99859,-0.751754 3.06706,-2.123338 3.2404,-4.101453 -0.0273,-1.110335 -0.40344,-1.954494 -1.10054,-2.509846 L 398.24788,4.7136085 C 397.55077,4.1585051 396.6625,3.8567075 395.6187,3.8565897 Z M 105.19048,4.0658548e-5 C 101.8364,0.08885841 99.382913,1.0684855 97.853506,2.9383951 96.324673,4.8085583 94.743793,7.0238242 93.145699,9.6109091 L 34.02181,92.925506 24.055842,106.9439 c -1.956324,2.99981 -4.093251,5.80321 -6.419961,8.38655 -2.325335,2.58337 -5.306675,4.18107 -8.926457,4.77484 -2.0608113,0.16965 -4.0022626,0.59198 -5.8085331,1.22432 -1.8060681,0.63235 -2.75381113,2.1394 -2.87374628,4.52996 0.03912225,1.11344 0.34493568,1.89315 0.91721983,2.3874 0.16434825,0.1424 0.33769555,0.27414 0.55017575,0.36731 l 12.5953338,10.89641 c 0.154571,0.12185 0.299359,0.22319 0.489141,0.30606 0.950863,0.41641 2.050635,0.59721 3.301445,0.55095 3.423914,-0.0462 6.900676,-0.22706 10.394244,-0.55095 3.492994,-0.32388 6.939014,-0.50467 10.455094,-0.55094 3.142373,0.0385 6.335027,0.21983 9.476827,0.48972 3.142962,0.26991 6.272818,0.38996 9.415976,0.42852 1.458984,0.0192 2.768696,-0.26662 3.974102,-0.91824 1.205422,-0.65162 1.883365,-1.75177 1.956536,-3.30564 -0.09981,-1.1503 -0.507336,-2.03005 -1.222831,-2.6935 L 49.184892,121.94176 c -0.686549,-0.61434 -1.638212,-0.9843 -2.87356,-1.16309 -2.581042,-0.3736 -5.184401,-0.88947 -7.764869,-1.5304 -0.577563,-0.1433 -1.071385,-0.40468 -1.528637,-0.67337 1.082936,-2.61408 2.682207,-5.66981 4.952566,-9.24357 3.881363,-6.11133 6.742376,-10.437247 8.498559,-12.916519 h 36.318046 c 0.03322,0.655865 0.08803,1.30178 0.121247,1.958898 0.200141,3.940601 0.351391,7.859131 0.366837,11.753421 -0.203085,5.4312 -1.639556,8.61515 -4.279893,9.54964 -2.640533,0.93454 -5.308064,1.47967 -7.948401,1.59162 -2.640518,0.11204 -4.077004,1.62767 -4.279908,4.59118 0.03126,1.2724 0.452555,2.14645 1.222831,2.63228 l 13.084272,11.20247 c 0.770094,0.48582 1.733308,0.69651 2.873757,0.67338 5.090695,-0.0462 10.208961,-0.22706 15.346401,-0.55095 5.13726,-0.32388 10.25594,-0.50467 15.34642,-0.55094 3.42041,0.0308 6.79091,0.15136 10.21073,0.36729 3.41962,0.21593 6.85195,0.33644 10.27177,0.36731 1.53253,0.0501 2.85769,-0.14511 3.97409,-0.67338 1.11659,-0.52823 1.71901,-1.65876 1.7732,-3.36686 -0.0196,-1.52303 -0.45567,-2.53255 -1.28406,-3.06079 l -12.77848,-11.01884 c -0.24712,-1.93759 -0.3958,-4.0881 -0.36685,-6.48887 l -4.83007,-92.313303 c 0.0196,-3.327393 -0.28565,-6.146242 -0.91722,-8.386553 -0.21971,-0.7792 -0.63234,-1.440632 -1.22283,-1.958902 L 110.38655,1.4692179 C 109.27506,0.55147324 107.52143,0.05628032 105.18944,4.0658548e-5 Z M 85.013993,45.483322 l 1.100345,32.07704 h -23.05024 z"/>
        <path id="amigalogo00" fill="#000000" d="m 626.9049,124.59029 c -0.0196,-1.52117 -0.44315,-2.54555 -1.27093,-3.07317 -0.82797,-0.52761 -1.94491,-0.85878 -3.35021,-0.99358 -4.75223,-0.77791 -7.58653,-2.59563 -8.50294,-5.45314 -0.9166,-2.85749 -1.34779,-6.52371 -1.2938,-10.99869 L 607.681,11.83056 C 607.70063,8.5071923 607.38831,5.7267121 606.75677,3.4891104 606.12503,1.2517609 603.96864,0.08873459 600.28718,3.0088602e-5 596.93304,0.08874214 594.49159,1.0669091 592.96281,2.9345567 c -1.52897,1.8679012 -3.09236,4.0938247 -4.69039,6.6777794 l -59.15017,83.1834039 -9.98162,14.04875 c -1.95625,2.99616 -4.09739,5.78435 -6.42342,8.36456 -2.32582,2.58023 -5.29885,4.16689 -8.91867,4.75993 -2.06014,0.16946 -3.99332,0.56997 -5.79951,1.20154 -1.806,0.63158 -2.76877,2.14121 -2.88812,4.52889 0.0509,1.43259 0.55055,2.35685 1.50178,2.77276 0.95122,0.41593 2.05252,0.60077 3.30405,0.55456 3.4236,-0.0462 6.88162,-0.23106 10.37448,-0.55456 3.49285,-0.32348 6.99704,-0.50833 10.51299,-0.55456 3.14225,0.0385 6.2847,0.19253 9.42697,0.46214 3.14244,0.26958 6.2847,0.42361 9.42715,0.46213 1.45951,0.0196 2.79185,-0.29655 3.99723,-0.94737 1.20536,-0.65084 1.84453,-1.75225 1.9177,-3.30422 -0.19857,-2.28326 -1.58823,-3.61145 -4.16918,-3.98459 -2.58096,-0.37313 -5.16191,-0.87976 -7.74286,-1.51989 -2.58115,-0.64014 -3.97081,-2.50235 -4.1694,-5.58664 0.46212,-3.30806 2.63417,-8.01409 6.51577,-14.118085 3.8818,-6.103932 6.70066,-10.39403 8.45676,-12.870312 h 36.96871 c 0.20014,3.889627 0.40048,7.802325 0.60083,11.738105 0.20014,3.935822 0.30793,7.848532 0.3234,11.738092 -0.20309,5.42463 -1.62484,8.60362 -4.26507,9.537 -2.64043,0.93339 -5.28066,1.456 -7.92089,1.56781 -2.64043,0.1119 -4.06218,1.64769 -4.26507,4.60763 0.0313,1.27084 0.43121,2.1489 1.20147,2.63413 0.77006,0.48524 1.7252,0.71631 2.86503,0.69319 5.09087,-0.0462 10.20484,-0.23106 15.3421,-0.55456 5.13705,-0.32348 10.25101,-0.50833 15.34208,-0.55456 3.41949,0.0307 6.83918,0.15399 10.25885,0.36971 3.41949,0.21566 6.83916,0.3389 10.25885,0.36971 1.53249,0.0501 2.85721,-0.1886 3.97413,-0.7163 1.11655,-0.5276 1.70192,-1.64441 1.75613,-3.35044 z M 581.24836,77.453024 h -30.86907 l 29.3902,-42.885667 z M 320.96623,7.9486658 c -0.0236,-1.1898634 -0.39285,-2.0448014 -1.1091,-2.5648216 -0.71646,-0.5197741 -1.64069,-0.7739435 -2.77268,-0.7625129 -3.88943,0.023224 -7.80214,0.1156503 -11.73754,0.2772754 -3.9358,0.1618651 -7.84831,0.2542948 -11.73754,0.2772799 -2.06052,-0.1038573 -5.14897,-0.2193883 -9.26536,-0.3465961 -4.11676,-0.1269602 -6.88182,0.3582743 -8.29496,1.4557081 -0.2696,0.3852337 -0.51611,0.816554 -0.73933,1.2939652 -0.22343,0.4776529 -0.46994,0.9089716 -0.73934,1.2939622 l -50.83213,76.898437 -2.03333,-75.604472 c 0.0959,-1.4363346 0.043,-2.6763825 -0.16239,-3.7201481 -0.20406,-1.043521 -1.13611,-1.5903737 -2.79577,-1.6405598 -4.2592,0.03094 -8.54128,0.1079644 -12.84664,0.2310665 -4.30537,0.1233664 -8.58765,0.1079494 -12.84664,-0.046221 -2.40683,-0.1115583 -4.80212,-0.2579052 -7.18586,-0.4390288 -2.38374,-0.180882 -4.73284,-0.2810035 -7.04713,-0.3003812 -1.57885,-0.061487 -3.08845,0.1541747 -4.5288,0.6469803 -1.44014,0.4930608 -2.21037,1.6329797 -2.31046,3.4197642 0.58526,2.9269389 2.92675,4.3749429 7.02414,4.3440199 4.09721,-0.0307 6.43868,1.417314 7.02405,4.344024 -0.0666,2.064288 -0.48911,4.174679 -1.2709,6.331181 -0.7818,2.156708 -1.52878,4.174675 -2.24112,6.053905 -4.5018,12.48915 -8.99205,24.989755 -13.47058,37.501853 -4.47865,12.512222 -9.10746,24.966613 -13.88641,37.363204 -1.79842,5.28755 -3.56214,8.99229 -5.29119,11.11422 -1.72908,2.12196 -5.38744,3.6547 -10.97512,4.5982 -1.54036,0.23107 -2.89588,0.69321 -4.06656,1.38638 -1.17069,0.69321 -1.78683,1.89476 -1.84845,3.60463 0.054,1.52118 0.59305,2.49935 1.61739,2.93452 1.02436,0.43518 2.21044,0.62773 3.55825,0.57766 3.24247,-0.0231 6.50806,-0.11536 9.79673,-0.27728 3.28869,-0.1618 6.55426,-0.25416 9.79675,-0.27728 3.04606,0.0385 6.05748,0.19252 9.03427,0.46213 2.97672,0.26958 5.9419,0.42362 8.89555,0.46214 1.37872,0.0121 2.68798,-0.33506 3.92797,-1.0398 1.24,-0.70474 1.90245,-1.83697 1.98718,-3.39665 -0.20544,-2.59249 -1.64323,-3.97999 -4.31301,-4.16258 -2.67016,-0.18258 -5.34007,-0.6116 -8.01001,-1.28714 -2.67,-0.67549 -4.10765,-3.04888 -4.31303,-7.12021 0.26469,-5.82853 2.3231,-14.484619 6.17517,-25.968283 3.85198,-11.483593 7.90946,-22.618063 12.17237,-33.403447 4.26272,-10.78523 7.14261,-18.044657 8.63969,-21.778302 l 2.03334,87.989552 c -0.0509,2.71501 0.23477,4.86391 0.85497,6.44672 0.6198,1.58279 2.42972,2.39152 5.42973,2.42616 3.05364,-0.11929 5.44891,-1.17457 7.18586,-3.16558 1.73674,-1.99101 3.34631,-4.20153 4.8289,-6.63156 l 59.15017,-87.065292 -19.59346,73.571092 c -0.59692,3.16561 -1.4826,6.3543 -2.65705,9.56609 -1.17466,3.21181 -3.49286,5.19898 -6.95479,5.96148 -1.98326,0.13861 -4.20913,0.46213 -6.67757,0.97047 -2.46846,0.50835 -3.81626,2.03338 -4.0434,4.57509 0.043,1.36712 0.51201,2.32989 1.40943,2.88833 0.89723,0.55838 1.9678,0.82796 3.21171,0.80871 4.259,-0.0616 8.54128,-0.30808 12.84664,-0.73941 4.30517,-0.43132 8.58745,-0.67779 12.84664,-0.73942 4.43626,0.0616 8.87251,0.3081 13.30876,0.73942 4.43626,0.43133 8.8725,0.67779 13.30877,0.73941 1.64419,0.0462 3.11525,-0.23106 4.41315,-0.83183 1.29773,-0.60076 1.98307,-1.80231 2.05644,-3.6046 -0.16043,-2.22279 -1.27796,-3.50763 -3.35454,-3.85453 -2.07677,-0.34688 -4.15354,-0.83753 -6.22993,-1.47196 -2.07677,-0.63444 -3.19507,-2.49434 -3.35452,-5.57978 0.0313,-2.23746 0.29249,-4.50961 0.78551,-6.81644 0.49283,-2.30677 1.03182,-4.53269 1.61739,-6.67777 l 18.85413,-75.604469 c 0.65835,-3.323377 1.51331,-5.919004 2.56471,-7.786891 1.0512,-1.867661 3.3385,-3.030688 6.86225,-3.489082 1.88309,-0.107723 3.70826,-0.492828 5.47612,-1.155331 1.76744,-0.662268 2.71476,-2.06406 2.84192,-4.205379 z m 199.93991,0.1848533 c -0.26138,-1.9933152 -2.28573,-3.4082339 -6.07243,-4.244753 -3.7873,-0.836273 -7.76946,-1.3337747 -11.94648,-1.4925096 -4.17742,-0.1584797 -6.98199,-0.2178164 -8.41392,-0.1780054 -15.44482,0.035485 -31.60842,3.1688502 -48.49083,9.4000629 -16.88241,6.23145 -31.27975,15.348525 -43.19179,27.351253 -11.91225,12.002908 -18.13533,26.679231 -18.66924,44.029014 0.2246,11.016988 3.41049,20.120369 9.55707,27.310169 6.14658,7.18984 13.90547,12.54141 23.27668,16.05474 9.37101,3.51332 19.00575,5.26372 28.90422,5.25117 6.03037,-0.005 12.08402,-0.36587 18.16096,-1.08601 6.07652,-0.72016 12.03784,-1.77536 17.88352,-3.1656 2.22957,-0.45056 4.14747,-1.02822 5.75332,-1.73298 1.60568,-0.70475 2.83041,-2.16045 3.67384,-4.36713 1.62875,-4.63284 3.08433,-9.32346 4.36699,-14.07186 1.28206,-4.74835 2.59914,-9.48518 3.95106,-14.21049 2.22252,-6.72538 4.86275,-10.67117 7.92087,-11.83738 3.05775,-1.166118 5.76645,-1.71611 8.12632,-1.649977 2.35949,0.06623 3.6032,-1.414862 3.73096,-4.443291 -0.0548,-1.278506 -0.54684,-2.18736 -1.47869,-2.726569 -0.93205,-0.539096 -1.97953,-0.800969 -3.14225,-0.785619 -4.61743,0.05398 -9.24619,0.269632 -13.8865,0.646979 -4.64051,0.377461 -9.31545,0.593121 -14.02502,0.646984 -4.43644,-0.04616 -8.8727,-0.231005 -13.30875,-0.554556 -4.43646,-0.323435 -8.87271,-0.508287 -13.30876,-0.554555 -1.48279,-0.04229 -2.90768,0.227271 -4.27465,0.808726 -1.36717,0.581568 -2.09888,1.729191 -2.19494,3.442872 0.17607,2.089333 1.4055,3.25093 3.69005,3.484796 2.28416,0.233965 4.56852,0.683542 6.85286,1.348736 2.28416,0.665289 3.51418,2.689532 3.69007,6.072736 -0.20426,3.466012 -1.27483,8.225946 -3.21171,14.279808 -1.93709,6.05394 -3.51594,10.9063 -4.73657,14.55711 -0.72017,2.83056 -1.68294,4.84081 -2.88831,6.03079 -1.20536,1.18999 -3.32341,1.76766 -6.35396,1.73299 -10.83267,-0.23491 -19.01984,-3.73939 -24.56109,-10.51346 -5.54165,-6.77404 -8.32196,-15.408159 -8.34114,-25.902385 0.0841,-9.658472 2.08715,-19.039704 6.00748,-28.143725 3.92014,-9.103883 9.2497,-17.098721 15.98891,-23.984543 6.65818,-6.685382 14.87606,-12.400387 24.65362,-17.145026 9.77736,-4.74442 19.42775,-7.224516 28.95118,-7.440292 4.52468,-0.0461 7.30518,0.831951 8.34113,2.634142 1.03574,1.80242 1.45932,4.806263 1.27091,9.011536 -0.0196,1.109217 -0.0763,2.218326 -0.18391,3.327334 -0.10766,1.109215 -0.17022,2.218325 -0.18391,3.327338 -0.0587,1.844765 0.2424,3.516133 0.90114,5.014109 0.65834,1.498164 2.02161,2.291489 4.08958,2.379971 2.26049,-0.173213 3.93167,-1.305423 5.01399,-3.396658 1.08191,-2.091042 1.87526,-4.101304 2.37983,-6.030795 0.48128,-1.417094 1.50569,-4.544173 3.07299,-9.38124 1.56731,-4.836844 2.453,-7.8714952 2.65725,-9.10396 z M 399.30585,7.2092588 c -0.0273,-1.1089897 -0.38894,-1.9408233 -1.08601,-2.4955054 -0.69709,-0.5544329 -1.56732,-0.8317098 -2.6109,-0.8318291 -1.65593,0.00785 -3.28879,0.084846 -4.89836,0.2310636 -1.60976,0.1464692 -3.24242,0.3159145 -4.89836,0.5083434 -4.07822,0.4429955 -8.21396,0.7125699 -12.40762,0.8087232 -4.19365,0.096398 -8.37576,0.1349027 -12.54632,0.1155295 -3.04992,-0.030683 -6.09983,-0.1539195 -9.14975,-0.3697035 -3.0501,-0.2155393 -6.10002,-0.3387743 -9.14992,-0.369705 -1.45169,0.00393 -2.75331,0.4121932 -3.90469,1.2246491 -1.15157,0.8127005 -1.76002,2.0065336 -1.82537,3.5815039 0.52375,2.7882985 2.61852,4.0976665 6.28471,3.9281045 3.66601,-0.169338 5.76097,1.417314 6.28471,4.759941 -0.0195,0.932067 -0.12714,1.887133 -0.34668,2.865202 -0.21952,0.978284 -0.47365,1.933351 -0.76243,2.86521 l -23.29038,80.780334 c -0.8896,3.77023 -1.88307,7.04365 -2.98066,9.82025 -1.09737,2.77665 -3.6159,4.61747 -7.55541,5.52247 -1.80619,0.26573 -3.92406,0.70474 -6.35398,1.31706 -2.43009,0.61235 -3.76244,2.02183 -3.99741,4.22851 0.0548,1.27855 0.54683,2.1874 1.47888,2.72656 0.93186,0.53914 1.97934,0.80102 3.14226,0.7856 3.97805,-0.0616 7.99074,-0.30807 12.03804,-0.7394 4.04732,-0.43133 8.10616,-0.67779 12.17656,-0.73941 4.35154,0.0385 8.72617,0.19253 13.12406,0.46213 4.39772,0.26958 8.77234,0.42362 13.12388,0.46214 1.79055,0.13091 3.84697,0.0541 6.16909,-0.23108 2.3221,-0.28498 3.59283,-1.56352 3.81254,-3.83566 -0.17022,-2.36883 -1.36933,-3.62858 -3.59421,-3.77921 -2.22507,-0.1507 -4.45014,-0.50662 -6.67502,-1.06804 -2.22507,-0.5614 -3.423,-2.64268 -3.59418,-6.24387 0.0195,-1.48652 0.21187,-2.99613 0.57772,-4.52889 0.36566,-1.53271 0.78944,-3.04234 1.27073,-4.52886 l 23.29037,-81.150037 c 0.85477,-3.338781 1.87154,-5.764961 3.04992,-7.278552 1.17836,-1.513363 3.48893,-2.599366 6.9317,-3.258011 1.74436,-0.219396 3.6159,-0.704632 5.61461,-1.455712 1.99853,-0.750846 3.08454,-2.1141254 3.25788,-4.0898492 z M 131.79421,124.59032 c -0.0196,-1.52117 -0.44313,-2.54555 -1.2709,-3.07317 -0.82797,-0.52758 -1.94491,-0.85878 -3.35023,-0.99356 -4.75222,-0.77792 -7.58653,-2.59563 -8.50294,-5.45314 -0.91659,-2.8575 -1.34779,-6.52373 -1.2938,-10.99869 L 112.57031,11.830601 C 112.58994,8.5072331 112.27763,5.7267529 111.64609,3.4891512 111.01436,1.2518016 108.85796,0.08877536 105.17649,7.2368386e-5 101.82237,0.08878442 99.380905,1.0669499 97.852132,2.9345974 96.323163,4.8024987 94.759768,7.0284221 93.161735,9.6123768 L 34.011573,92.795782 24.029962,106.84454 c -1.956264,2.99616 -4.097403,5.78434 -6.423418,8.36454 -2.325834,2.58025 -5.298854,4.16689 -8.9186818,4.75995 -2.0601469,0.16945 -3.9933087,0.56996 -5.7995112,1.20153 -1.8059987,0.63159 -2.76876854,2.1412 -2.88811180572,4.52888 0.0508695057,1.43262 0.55054419572,2.35687 1.50177060572,2.77278 0.9512265,0.41593 2.0525127,0.60078 3.3040519,0.55456 3.4235975,-0.0462 6.8816213,-0.23106 10.3744793,-0.55456 3.492858,-0.32349 6.997055,-0.50834 10.512985,-0.55456 3.142252,0.0385 6.284716,0.19252 9.426969,0.46213 3.142448,0.26958 6.284701,0.42362 9.427149,0.46214 1.459513,0.0196 2.791859,-0.29655 3.997235,-0.94737 1.205361,-0.65084 1.844544,-1.75224 1.917715,-3.30424 -0.198586,-2.28325 -1.588249,-3.61145 -4.1692,-3.98457 -2.580952,-0.37314 -5.161903,-0.87977 -7.742855,-1.51991 -2.581147,-0.64012 -3.97081,-2.50233 -4.169396,-5.58663 0.462114,-3.30807 2.634176,-8.01409 6.515765,-14.118079 3.881801,-6.103933 6.700657,-10.394035 8.456764,-12.870317 h 36.968704 c 0.200142,3.889627 0.400494,7.802329 0.600831,11.738094 0.200141,3.935842 0.30795,7.848532 0.323397,11.738102 -0.20307,5.42462 -1.624835,8.60362 -4.265066,9.537 -2.640427,0.9334 -5.280644,1.45601 -7.920875,1.56782 -2.640427,0.11189 -4.062192,1.64769 -4.265066,4.60761 0.03126,1.27085 0.431191,2.1489 1.201451,2.63415 0.770063,0.48523 1.725199,0.71629 2.865029,0.69319 5.090876,-0.0462 10.204854,-0.23106 15.3421,-0.55456 5.137049,-0.32349 10.251013,-0.50834 15.342103,-0.55456 3.41947,0.0307 6.83916,0.15397 10.25883,0.36971 3.41949,0.21565 6.83918,0.33888 10.25885,0.3697 1.53249,0.0501 2.85721,-0.18881 3.97415,-0.71631 1.11654,-0.52759 1.70191,-1.64439 1.7561,-3.35044 z M 86.137697,77.453065 H 55.268607 L 84.658812,34.567397 Z"/>
    </g>
</svg>
