<?xml version="1.0" encoding="UTF-8" standalone="no"?>
<svg
     id="svgngplogo"
     width="640"
     height="136"
     version="1.1"
     xmlns="http://www.w3.org/2000/svg"
     xmlns:svg="http://www.w3.org/2000/svg">
     <path
          id="npglogo01"
          fill="#000000"
          d="m 614.06946,75.811905 h 6.4061 v 55.528455 h -6.4061 z m -19.3321,0 h 45.2654 v 6.276242 h -45.2654 z m -59.25369,0 h 8.17293 l -42.59354,44.202545 1.72892,-11.48326 z m 0.15723,55.528455 h 8.33012 l -28.76242,-29.88785 -5.18666,3.93263 z M 498.03897,75.811905 h 6.32477 v 55.528455 h -6.32477 z m 86.9159,55.528455 H 553.9921 l -0.11944,-55.528455 h 30.96282 v 6.276242 h -24.73466 v 17.574506 h 23.11653 v 6.228947 h -23.11653 v 20.24403 h 24.7836 z M 463.82616,73.931529 v 0.0012 c -3.13252,0.04524 -6.30334,0.595037 -9.39749,1.694709 -14.14476,5.027085 -22.30348,19.97489 -18.93726,34.650882 3.36621,14.676 17.22807,24.53063 32.13701,22.82564 10.38101,-1.18716 19.00487,-8.31348 23.28899,-16.86435 h -7.95225 c -3.5878,5.15858 -9.36049,9.17425 -16.12682,9.94805 -11.43694,1.30795 -21.97479,-6.17362 -24.56529,-17.4678 -2.59057,-11.294118 3.63153,-22.673697 14.48582,-26.531352 9.70583,-3.449465 20.27136,0.11297 26.00817,8.353094 h 8.04461 c -4.93547,-10.109594 -14.9792,-16.263035 -25.64594,-16.597918 -0.44565,-0.01398 -0.89205,-0.01701 -1.33955,-0.0121 z m -64.68841,0.299302 a 29.320559,29.345329 0 0 0 -29.32059,29.345349 29.320559,29.345329 0 0 0 29.32059,29.34532 29.320559,29.345329 0 0 0 29.32057,-29.34532 29.320559,29.345329 0 0 0 -29.32057,-29.345349 z m 0.0779,6.456444 a 22.948104,22.96749 0 0 1 22.9486,22.967965 22.948104,22.96749 0 0 1 -22.9486,22.96676 22.948104,22.96749 0 0 1 -22.94739,-22.96676 22.948104,22.96749 0 0 1 22.94739,-22.967965 z M 239.80597,131.34035 h -30.96281 l -0.11925,-55.528453 h 30.96281 v 6.276243 h -24.73465 v 17.574505 h 23.11652 v 6.228955 h -23.11652 v 20.24402 h 24.78356 z m -34.53923,-26.72814 h -38.82907 v 6.28477 h 34.00794 z M 175.259,73.932746 c -3.13253,0.0452 -6.30335,0.595037 -9.39751,1.694702 -14.14473,5.027085 -22.30348,19.974886 -18.93725,34.650882 3.36623,14.676 17.2281,24.53065 32.13704,22.82566 14.90895,-1.70498 26.20509,-15.65608 26.20509,-28.4913 h -6.95545 c 0,9.70059 -8.60286,20.26705 -20.03975,21.575 -11.43691,1.30793 -21.97478,-6.17364 -24.5653,-17.46779 -2.59054,-11.294137 3.63154,-22.673727 14.48586,-26.531386 9.7058,-3.449462 20.27135,0.11297 26.00817,8.353113 h 8.04458 c -4.93549,-10.109592 -14.97916,-16.263045 -25.64594,-16.597932 -0.44563,-0.01398 -0.89204,-0.01663 -1.33954,-0.01172 z m 94.99803,0.298092 a 29.320559,29.345329 0 0 0 -29.32058,29.345352 29.320559,29.345329 0 0 0 29.32058,29.34532 29.320559,29.345329 0 0 0 29.32058,-29.34532 29.320559,29.345329 0 0 0 -29.32058,-29.345344 z m 0.0779,6.456444 a 22.948104,22.96749 0 0 1 22.94862,22.967968 22.948104,22.96749 0 0 1 -22.94862,22.96676 22.948104,22.96749 0 0 1 -22.94739,-22.96676 22.948104,22.96749 0 0 1 22.94739,-22.967968 z M 113.08543,74.230819 A 29.320557,29.345327 0 0 0 83.764849,103.57617 29.320557,29.345327 0 0 0 113.08543,132.92149 29.320557,29.345327 0 0 0 142.406,103.57617 29.320557,29.345327 0 0 0 113.08543,74.230819 Z m 0.0778,6.456444 a 22.948104,22.96749 0 0 1 22.94859,22.967977 22.948104,22.96749 0 0 1 -22.94861,22.96677 22.948104,22.96749 0 0 1 -22.94739,-22.96677 22.948104,22.96749 0 0 1 22.94739,-22.967977 z M 81.376971,131.34037 H 50.414149 L 50.294905,75.811916 h 30.962822 v 6.276243 H 56.523068 v 17.574505 h 23.116519 v 6.228956 H 56.523068 v 20.24402 H 81.30663 Z m -36.935366,0 H 38.311952 L 6.2868518,85.25016 v 46.0902 H 0 V 75.811905 H 7.7014047 L 38.192692,119.85714 V 75.811905 h 6.248932 z" />
    <path
         id="ngpicon04"
         fill="#e81a2e"
         d="m 318.46282,77.710728 7.94111,-22.909815 21.0866,0.06334 0.17994,10.271445 -13.91692,-0.112025 -2.84321,10.543744 14.29001,10.345606 c 7.04202,-2.89559 12.06843,-9.194388 13.10201,-16.418517 1.03358,-7.224132 -2.09113,-14.217687 -8.14488,-18.229448 -6.05374,-4.011783 -14.03663,-4.275538 -20.85852,-0.887282 l -22.94849,11.39788 34.584,69.749084 L 331.92404,136 292.65893,56.810137 325.32182,40.587387 c 10.69929,-5.314052 23.43187,-4.025724 32.52776,3.291247 9.09585,7.316988 12.86277,19.301329 9.62323,30.6162 -3.23955,11.314892 -13.30409,19.713264 -24.00667,23.086084 z" />
    <path
         id="ngpicon03"
         fill="#e81a2e"
         d="m 344.81123,0 -3.66751,27.251477 6.89048,1.334768 9.66888,-26.6953273 z" />
    <path
         id="ngplogo02"
         fill="#00adf7"
         d="m 389.93273,24.915638 -19.67121,17.57442 4.55661,6.785057 21.67163,-13.570119 z" />
    <path
         id="ngplogo01"
         fill="#008c84"
         d="m 371.81743,8.5647502 -13.55867,23.5808678 6.00137,4.004299 17.11507,-20.800103 z" />
</svg>
