<?xml version="1.0" encoding="UTF-8" standalone="no"?>
<svg
     version="1.1"
     id="svgscummvmicon"
     width="128"
     height="128"
     xmlns="http://www.w3.org/2000/svg"
     xmlns:svg="http://www.w3.org/2000/svg">
     <path
          id="scummvmicon01"
          fill="#4e4e4e"
          d="m 60.757769,127.97093 c -9.022889,-0.43019 -17.470308,-2.55288 -24.775938,-6.22575 -6.58082,-3.30848 -11.914127,-7.42149 -16.656792,-12.84561 -3.105731,-3.55198 -4.878186,-6.61201 -5.477766,-9.45701 -0.194074,-0.920887 -0.236511,-2.532782 -0.09338,-3.546902 0.553547,-3.922021 3.212458,-8.286176 8.725218,-14.320975 0.393048,-0.430269 1.683928,-1.796176 2.868624,-3.035349 3.880624,-4.059069 4.47748,-4.766499 5.06904,-6.008113 0.350132,-0.734886 0.428467,-1.09874 0.389062,-1.807128 -0.07263,-1.305619 -0.752554,-2.513951 -3.395734,-6.034724 -2.971392,-3.957963 -3.891889,-5.387921 -5.325947,-8.273659 -2.277571,-4.583132 -3.473115,-8.739005 -3.987895,-13.862469 -0.151457,-1.507402 -0.150783,-5.191694 0.0012,-6.759127 0.274996,-2.835447 0.729691,-5.24791 1.476035,-7.831362 0.997571,-3.45307 2.270544,-6.337709 4.083822,-9.25421 2.123198,-3.414979 5.249537,-6.793324 8.678336,-9.3778716 4.10055,-3.0908963 8.670276,-5.3793211 13.938182,-6.9799531 4.08536,-1.2413205 7.771938,-1.90360999 12.649796,-2.27252114 1.385024,-0.10474899 6.119003,-0.1041111 7.554019,0.0010179 6.632813,0.48591874 12.192771,1.66264304 18.424134,3.89933204 4.981158,1.7879403 10.410998,4.5836071 14.776252,7.6078589 6.634193,4.596179 10.231533,8.274077 11.740813,12.003729 0.57021,1.409078 0.80741,2.630495 0.80823,4.16187 9.9e-4,2.354277 -0.6149,4.574716 -2.10137,7.572726 -1.31482,2.651824 -2.85623,4.989612 -6.12784,9.2938 -1.92576,2.533578 -2.45352,3.266425 -2.95164,4.098633 -0.7643,1.27691 -1.02625,2.035877 -1.02625,2.973416 0,1.335786 0.60772,2.528334 2.69494,5.288391 0.37743,0.499112 1.12268,1.484818 1.65609,2.190458 3.34144,4.420269 4.28599,5.916014 5.55275,8.793124 2.03435,4.620426 3.14812,8.932167 3.62935,14.050222 0.15489,1.647419 0.1545,5.824033 -6.9e-4,7.416265 -0.4487,4.603122 -1.40557,8.542979 -3.05925,12.596101 -0.49712,1.21845 -1.8542,3.96104 -2.45374,4.95885 -2.5637,4.26688 -5.44075,7.54358 -8.981302,10.22889 -8.06901,6.1199 -20.30376,10.13625 -32.704804,10.73616 -1.159311,0.0561 -4.596459,0.0695 -5.595569,0.0219 z m 5.377964,-11.22424 c 6.56719,-0.40004 13.052493,-1.97241 18.372121,-4.45432 4.113296,-1.9191 7.262638,-4.11588 10.134197,-7.06901 4.104289,-4.22086 6.604019,-9.275844 7.578319,-15.324937 0.31803,-1.974629 0.37965,-2.855613 0.37856,-5.413561 -9.9e-4,-2.397168 -0.0358,-3.008813 -0.28238,-4.975468 C 101.43432,72.474895 98.147495,65.834872 92.844169,60.373365 88.326096,55.72053 84.49775,53.124372 71.916457,46.181421 c -2.272745,-1.254208 -3.137393,-1.754453 -4.412918,-2.553105 -4.40936,-2.76086 -6.444092,-4.767533 -6.974308,-6.878133 -0.164193,-0.653592 -0.133279,-1.703728 0.07144,-2.426805 0.434306,-1.533989 1.270247,-2.445607 2.755096,-3.004514 1.365723,-0.514066 3.707572,-0.573127 6.012961,-0.151643 4.876735,0.891589 10.417123,3.355304 16.009546,7.119168 1.022628,0.688258 1.643039,1.146052 3.201909,2.362638 1.962845,1.531863 2.442336,1.810337 3.11713,1.810337 0.782895,0 1.029175,-0.277149 3.003143,-3.379564 0.886997,-1.39407 2.37231,-3.703438 3.300689,-5.131929 2.904465,-4.469064 3.231245,-5.095667 3.231245,-6.195867 0,-0.458142 -0.0245,-0.582371 -0.17716,-0.895154 -0.35756,-0.732994 -2.15058,-2.416369 -5.387325,-5.057891 -2.086452,-1.702765 -4.8649,-3.58139 -7.46076,-5.044537 -4.97139,-2.802106 -9.837751,-4.662369 -15.347729,-5.866976 -8.241822,-1.8018497 -16.801475,-1.464859 -24.101036,0.94885 -3.318371,1.097268 -5.709314,2.248055 -8.424441,4.054776 -5.323362,3.542313 -8.996266,8.262509 -10.910333,14.021311 -1.87789,5.64996 -1.840187,12.632927 0.100476,18.608734 1.447282,4.456561 3.766935,8.257462 7.400308,12.125889 3.722825,3.963663 8.474185,7.665137 15.253505,11.882995 6.368008,3.961956 7.914193,4.948914 9.885507,6.310077 2.76118,1.906555 4.457503,3.250351 5.782579,4.580848 1.568453,1.57487 2.329622,2.944682 2.438462,4.388294 0.08765,1.162539 -0.484873,3.014734 -1.222035,3.953489 -0.79948,1.018112 -2.222867,1.73682 -4.076876,2.058523 -0.777732,0.134951 -3.219626,0.154108 -4.196677,0.03292 -3.893906,-0.482971 -7.882683,-1.776111 -12.133721,-3.933681 -3.260957,-1.655072 -6.168,-3.638582 -8.956535,-6.111152 -2.110026,-1.870945 -2.537127,-2.212319 -3.199694,-2.557453 -0.533828,-0.27807 -0.839329,-0.306652 -1.232072,-0.115269 -0.494328,0.240882 -0.417644,0.148595 -6.188201,7.447551 -3.355175,4.24383 -4.162787,5.355075 -4.684884,6.446204 -0.232973,0.486889 -0.254497,0.574395 -0.254006,1.032645 7.59e-4,0.70984 0.146058,0.969196 1.57777,2.816303 1.421525,1.83396 3.539718,4.10604 5.352651,5.7415 4.262867,3.84557 9.258302,6.87979 14.859346,9.02556 4.557523,1.74599 10.040996,2.88143 15.076951,3.12192 0.994186,0.0475 4.21822,0.0339 5.129272,-0.0216 z" />
     <path
          id="scummvmicon02"
          fill="#00c832"
          d="M 63.536489,9.7594462 C 58.375057,9.630412 53.320602,10.327781 48.758381,11.836348 c -3.318367,1.097267 -5.709316,2.247951 -8.424441,4.054669 -5.323357,3.54231 -8.996323,8.262578 -10.910389,14.021375 -1.877888,5.649954 -1.840116,12.632946 0.100545,18.608746 1.447282,4.456557 3.766917,8.257449 7.400288,12.125872 3.722821,3.963659 8.474199,7.665133 15.253512,11.882991 6.368002,3.96195 7.914195,4.94887 9.885507,6.310033 2.761178,1.906555 4.457498,3.250395 5.782573,4.580892 1.568452,1.57487 2.329629,2.944638 2.43847,4.38825 0.08765,1.162539 -0.484928,3.014828 -1.222089,3.953583 -0.799479,1.018106 -2.222817,1.736739 -4.076824,2.058442 -0.777732,0.134951 -3.219628,0.154189 -4.196677,0.033 -3.893902,-0.482971 -7.882658,-1.776211 -12.133692,-3.933775 -3.260953,-1.655072 -6.168021,-3.638594 -8.956554,-6.111158 -2.110024,-1.870945 -2.537156,-2.212275 -3.199723,-2.55741 -0.533828,-0.278069 -0.839303,-0.306651 -1.232045,-0.115268 -0.494327,0.240882 -0.417605,0.148607 -6.188157,7.447557 -3.35517,4.243824 -4.162856,5.355075 -4.684953,6.446204 -0.232972,0.486889 -0.254526,0.574395 -0.254035,1.032645 7.59e-4,0.70984 0.14605,0.969196 1.577761,2.816303 1.421523,1.833961 3.539775,4.106061 5.352706,5.741521 4.262863,3.84556 9.258307,6.87973 14.859346,9.02549 4.557518,1.74599 10.041001,2.88152 15.076951,3.12201 0.994184,0.0475 4.21822,0.0339 5.129272,-0.0216 6.567183,-0.40004 13.052499,-1.97247 18.372121,-4.45438 4.11329,-1.9191 7.262638,-4.11587 10.134197,-7.06899 4.104282,-4.22086 6.604009,-9.275811 7.578309,-15.324898 0.31803,-1.974629 0.37971,-2.855613 0.37862,-5.413561 -9.9e-4,-2.397168 -0.0358,-3.008813 -0.28245,-4.975468 -0.88224,-7.034493 -4.169078,-13.674565 -9.472397,-19.13607 -4.518069,-4.652831 -8.346365,-7.248948 -20.927647,-14.191893 -2.272742,-1.254207 -3.137423,-1.754478 -4.412947,-2.55313 -4.409355,-2.760857 -6.444088,-4.767464 -6.974304,-6.878063 -0.164192,-0.65359 -0.133318,-1.703783 0.0714,-2.42686 0.434306,-1.533987 1.270315,-2.44564 2.755163,-3.004546 1.365722,-0.514066 3.707544,-0.573055 6.01293,-0.151572 4.87673,0.891589 10.417129,3.355251 16.009546,7.119111 1.022628,0.688257 1.643039,1.146102 3.201909,2.362687 1.962845,1.531861 2.442355,1.810306 3.117149,1.810306 0.782895,0 1.029162,-0.277152 3.00313,-3.379564 0.886991,-1.394068 2.372254,-3.703439 3.300627,-5.131929 2.904461,-4.46906 3.231301,-5.095668 3.231301,-6.195867 0,-0.458141 -0.0246,-0.582347 -0.17717,-0.895129 -0.35756,-0.732994 -2.150577,-2.416336 -5.387315,-5.057856 -2.086452,-1.702763 -4.8649,-3.581508 -7.46076,-5.044654 -4.97138,-2.802131 -9.837766,-4.662354 -15.34774,-5.86696 -3.090679,-0.675693 -6.226053,-1.050567 -9.322913,-1.1279878 z" />
</svg>
